<svg width="524" height="146" viewBox="0 0 524 146" fill="none" xmlns="http://www.w3.org/2000/svg">
<g clip-path="url(#clip0)">
<path d="M-5 8C-5 3.58173 -1.41828 0 3 0H521C525.418 0 529 3.58172 529 8V146H-5V8Z" fill="#FEF9F4"/>
<path opacity="0.35" fill-rule="evenodd" clip-rule="evenodd" d="M455.4 36C443.581 36 434 45.402 434 57V120C434 131.598 443.581 141 455.4 141H519.6C531.419 141 541 131.598 541 120V57C541 45.402 531.419 36 519.6 36H455.4ZM476.8 46.5C470.891 46.5 466.1 51.201 466.1 57V99C466.1 104.799 470.891 109.5 476.8 109.5H519.6C525.509 109.5 530.3 104.799 530.3 99V57C530.3 51.201 525.509 46.5 519.6 46.5H476.8Z" fill="#FF6A4D"/>
<path opacity="0.1" d="M466.1 57C466.1 51.201 470.891 46.5 476.8 46.5H519.6C525.509 46.5 530.3 51.201 530.3 57V99C530.3 104.799 525.509 109.5 519.6 109.5H476.8C470.891 109.5 466.1 104.799 466.1 99V57Z" fill="#FF6A4D"/>
<path opacity="0.35" fill-rule="evenodd" clip-rule="evenodd" d="M98.4 -45C86.5811 -45 77 -35.598 77 -24V39C77 50.598 86.5811 60 98.4 60H162.6C174.419 60 184 50.598 184 39V-24C184 -35.598 174.419 -45 162.6 -45H98.4ZM98.4 -13.5C92.4906 -13.5 87.7 -8.79899 87.7 -3V39C87.7 44.799 92.4906 49.5 98.4 49.5H141.2C147.109 49.5 151.9 44.799 151.9 39V-3C151.9 -8.79899 147.109 -13.5 141.2 -13.5H98.4Z" fill="#FF6A4D"/>
<path opacity="0.1" d="M87.7 -3C87.7 -8.79899 92.4905 -13.5 98.4 -13.5H141.2C147.109 -13.5 151.9 -8.79899 151.9 -3V39C151.9 44.799 147.109 49.5 141.2 49.5H98.4C92.4905 49.5 87.7 44.799 87.7 39V-3Z" fill="#FF6A4D"/>
<path opacity="0.35" fill-rule="evenodd" clip-rule="evenodd" d="M410.4 12C407.97 12 406 13.8804 406 16.2V28.8C406 31.1196 407.97 33 410.4 33H423.6C426.03 33 428 31.1196 428 28.8V16.2C428 13.8804 426.03 12 423.6 12H410.4ZM410.4 18.3C409.185 18.3 408.2 19.2402 408.2 20.4V28.8C408.2 29.9598 409.185 30.9 410.4 30.9H419.2C420.415 30.9 421.4 29.9598 421.4 28.8V20.4C421.4 19.2402 420.415 18.3 419.2 18.3H410.4Z" fill="#FF6A4D"/>
<path opacity="0.1" d="M408.2 20.4C408.2 19.2402 409.185 18.3 410.4 18.3H419.2C420.415 18.3 421.4 19.2402 421.4 20.4V28.8C421.4 29.9598 420.415 30.9 419.2 30.9H410.4C409.185 30.9 408.2 29.9598 408.2 28.8V20.4Z" fill="#FF6A4D"/>
<path opacity="0.35" fill-rule="evenodd" clip-rule="evenodd" d="M487.8 -12C484.044 -12 481 -8.95554 481 -5.2V15.2C481 18.9555 484.044 22 487.8 22H508.2C511.956 22 515 18.9555 515 15.2V-5.2C515 -8.95554 511.956 -12 508.2 -12H487.8ZM491.2 -5.2C489.322 -5.2 487.8 -3.67777 487.8 -1.8V11.8C487.8 13.6778 489.322 15.2 491.2 15.2H504.8C506.678 15.2 508.2 13.6778 508.2 11.8V-1.8C508.2 -3.67777 506.678 -5.2 504.8 -5.2H491.2Z" fill="#FF6A4D"/>
<path opacity="0.1" d="M487.8 -1.80001C487.8 -3.67778 489.322 -5.20001 491.2 -5.20001H504.8C506.678 -5.20001 508.2 -3.67778 508.2 -1.80001V11.8C508.2 13.6778 506.678 15.2 504.8 15.2H491.2C489.322 15.2 487.8 13.6778 487.8 11.8V-1.80001Z" fill="#FF6A4D"/>
<path opacity="0.35" fill-rule="evenodd" clip-rule="evenodd" d="M107.4 75C102.209 75 98 79.119 98 84.2V111.8C98 116.881 102.209 121 107.4 121H135.6C140.791 121 145 116.881 145 111.8V84.2C145 79.119 140.791 75 135.6 75H107.4ZM116.8 79.6C114.204 79.6 112.1 81.6595 112.1 84.2V102.6C112.1 105.141 114.204 107.2 116.8 107.2H135.6C138.196 107.2 140.3 105.141 140.3 102.6V84.2C140.3 81.6595 138.196 79.6 135.6 79.6H116.8Z" fill="#FF6A4D"/>
<path opacity="0.1" d="M112.1 84.2C112.1 81.6595 114.204 79.6 116.8 79.6H135.6C138.196 79.6 140.3 81.6595 140.3 84.2V102.6C140.3 105.14 138.196 107.2 135.6 107.2H116.8C114.204 107.2 112.1 105.14 112.1 102.6V84.2Z" fill="#FF6A4D"/>
<path opacity="0.35" fill-rule="evenodd" clip-rule="evenodd" d="M51.4 67C47.8654 67 45 69.7758 45 73.2V91.8C45 95.2242 47.8654 98 51.4 98H70.6C74.1346 98 77 95.2242 77 91.8V73.2C77 69.7758 74.1346 67 70.6 67H51.4ZM57.8 70.1C56.0327 70.1 54.6 71.4879 54.6 73.2V85.6C54.6 87.3121 56.0327 88.7 57.8 88.7H70.6C72.3673 88.7 73.8 87.3121 73.8 85.6V73.2C73.8 71.4879 72.3673 70.1 70.6 70.1H57.8Z" fill="#FF6A4D"/>
<path opacity="0.1" d="M54.6 73.2C54.6 71.4879 56.0327 70.1 57.8 70.1H70.6C72.3673 70.1 73.8 71.4879 73.8 73.2V85.6C73.8 87.3121 72.3673 88.7 70.6 88.7H57.8C56.0327 88.7 54.6 87.3121 54.6 85.6V73.2Z" fill="#FF6A4D"/>
</g>
<defs>
<clipPath id="clip0">
<rect width="524" height="146" fill="white"/>
</clipPath>
</defs>
</svg>
