<svg width="134" height="35" viewBox="0 0 134 35" fill="none" xmlns="http://www.w3.org/2000/svg">
<path fill-rule="evenodd" clip-rule="evenodd" d="M42.8693 27.5585L44.5416 23.5473C46.3479 24.9415 48.7545 25.6663 51.129 25.6663C52.8817 25.6663 53.9913 24.9692 53.9913 23.9124C53.9645 20.9579 43.491 23.2706 43.4106 15.8623C43.3838 12.1001 46.6213 9.2009 51.2094 9.2009C53.9377 9.2009 56.6605 9.89803 58.6062 11.4859L57.0411 15.5801C55.2616 14.4072 53.0479 13.5718 50.9414 13.5718C49.5103 13.5718 48.5669 14.2689 48.5669 15.1596C48.5937 18.0588 59.1476 16.4709 59.2548 23.5473C59.2548 27.3925 56.0977 30.098 51.5632 30.098C48.24 30.0925 45.1901 29.2847 42.8693 27.5585ZM107.087 22.0977C106.251 23.6026 104.686 24.6317 102.874 24.6317C100.2 24.6317 98.0451 22.402 98.0451 19.6467C98.0451 16.8914 100.205 14.6617 102.874 14.6617C104.681 14.6617 106.251 15.6908 107.087 17.1957L111.702 14.551C109.976 11.3753 106.653 9.2009 102.874 9.2009C97.284 9.2009 92.7494 13.8816 92.7494 19.6522C92.7494 25.4228 97.284 30.1035 102.874 30.1035C106.68 30.1035 109.976 27.9568 111.702 24.7534L107.087 22.0977ZM61.5757 0.531128H67.3537V29.7052H61.5757V0.531128ZM113.97 0.531128V29.7052H119.748V20.9524L126.603 29.7052H134L125.279 19.3092L133.351 9.61032H126.276L119.742 17.6604V0.531128H113.97Z" fill="black"/>
<path d="M84.5218 22.153C83.6857 23.5749 81.9597 24.6317 80.0141 24.6317C77.3394 24.6317 75.1847 22.402 75.1847 19.6467C75.1847 16.8914 77.3448 14.6617 80.0141 14.6617C81.9597 14.6617 83.6857 15.7738 84.5218 17.2234V22.153ZM84.5218 9.61586V11.9839C83.5785 10.3406 81.2308 9.19537 78.7705 9.19537C73.6946 9.19537 69.7014 13.8207 69.7014 19.619C69.7014 25.4173 73.6946 30.098 78.7705 30.098C81.2254 30.098 83.5731 28.9583 84.5218 27.3095V29.6775H90.2999V9.61586H84.5218Z" fill="black"/>
<path fill-rule="evenodd" clip-rule="evenodd" d="M7.15627 22.1254C7.15627 24.1614 5.56435 25.8046 3.59187 25.8046C1.61939 25.8046 0.0274658 24.1559 0.0274658 22.1254C0.0274658 20.0949 1.61939 18.4461 3.59187 18.4461H7.15627V22.1254ZM8.93578 22.1254C8.93578 20.0893 10.5277 18.4461 12.5002 18.4461C14.4727 18.4461 16.0646 20.0893 16.0646 22.1254V31.3208C16.0646 33.3568 14.4727 35 12.5002 35C10.5277 35 8.93578 33.3568 8.93578 31.3208V22.1254Z" fill="#E01E5A"/>
<path fill-rule="evenodd" clip-rule="evenodd" d="M12.4995 7.35852C10.527 7.35852 8.93512 5.7153 8.93512 3.67926C8.93512 1.64322 10.527 0 12.4995 0C14.472 0 16.0639 1.64322 16.0639 3.67926V7.35852H12.4995ZM12.4995 9.22305C14.472 9.22305 16.0639 10.8663 16.0639 12.9023C16.0639 14.9384 14.472 16.5816 12.4995 16.5816H3.5644C1.59192 16.5816 0 14.9328 0 12.9023C0 10.8718 1.59192 9.22305 3.5644 9.22305H12.4995Z" fill="#36C5F0"/>
<path fill-rule="evenodd" clip-rule="evenodd" d="M26.7786 12.9023C26.7786 10.8663 28.3705 9.22305 30.343 9.22305C32.3154 9.22305 33.9074 10.8663 33.9074 12.9023C33.9074 14.9384 32.3154 16.5816 30.343 16.5816H26.7786V12.9023ZM24.999 12.9023C24.999 14.9384 23.4071 16.5816 21.4346 16.5816C19.4622 16.5816 17.8702 14.9384 17.8702 12.9023V3.67926C17.8702 1.64322 19.4622 0 21.4346 0C23.4071 0 24.999 1.64322 24.999 3.67926V12.9023Z" fill="#2EB67D"/>
<path fill-rule="evenodd" clip-rule="evenodd" d="M21.4346 27.6415C23.4071 27.6415 24.999 29.2847 24.999 31.3208C24.999 33.3568 23.4071 35 21.4346 35C19.4622 35 17.8702 33.3568 17.8702 31.3208V27.6415H21.4346ZM21.4346 25.8046C19.4622 25.8046 17.8702 24.1614 17.8702 22.1254C17.8702 20.0893 19.4622 18.4461 21.4346 18.4461H30.3698C32.3422 18.4461 33.9342 20.0893 33.9342 22.1254C33.9342 24.1614 32.3422 25.8046 30.3698 25.8046H21.4346Z" fill="#ECB22E"/>
</svg>
