<svg width="250" height="250" viewBox="0 0 250 250" fill="none" xmlns="http://www.w3.org/2000/svg">
<path fill-rule="evenodd" clip-rule="evenodd" d="M105.354 102.007H89.9502V138.004L76.4855 102.007H63.1516L51.6498 132.103C50.4376 124.52 42.443 121.903 36.1563 119.924C31.9919 118.623 27.5967 116.673 27.6374 114.555C27.6693 112.819 30.0059 111.193 34.6132 111.431C37.706 111.599 40.4515 111.837 45.8852 114.42L51.2421 105.258C46.2688 102.772 39.4084 101.204 33.7911 101.185H33.7515C27.1934 101.185 21.7321 103.289 18.3403 106.728C15.9851 109.137 14.7112 112.189 14.6574 115.552C14.5705 120.219 16.3082 123.518 19.9472 126.135C23.0202 128.351 26.9571 129.79 30.4247 130.845C34.6989 132.142 38.1907 133.283 38.1489 135.711C38.1291 136.582 37.7818 137.404 37.1378 138.063C36.0738 139.145 34.4407 139.551 32.1787 139.6C27.8045 139.678 24.5688 139.01 19.4131 136.021L14.6574 145.299C19.8076 148.172 25.8844 149.865 32.0985 149.865H32.8932C38.306 149.768 42.6661 148.249 46.1633 145.482L46.7216 145.018L45.1785 149.072H59.1752L61.5228 142.048C63.988 142.86 66.7829 143.335 69.7581 143.335C72.6443 143.335 75.3656 142.89 77.7748 142.115L80.0433 149.072H102.863V134.521H107.844C119.887 134.521 127.008 128.512 127.008 118.411C127.008 107.154 120.098 102.007 105.354 102.007ZM69.7581 132.838C67.9524 132.838 66.2642 132.509 64.8123 131.968L69.6966 116.818H69.8021L74.5908 132.015C73.1488 132.528 71.5057 132.838 69.7581 132.838ZM106.265 124.104H102.863V111.905H106.265C110.786 111.905 114.399 113.385 114.399 117.956C114.399 122.634 110.786 124.104 106.265 124.104Z" fill="#A29F9E"/>
<path fill-rule="evenodd" clip-rule="evenodd" d="M154.34 113.665C154.34 112.253 153.204 111.42 150.881 111.42H146.2V115.958H151.092C153.115 115.958 154.34 115.184 154.34 113.665ZM153.4 106.71C153.4 105.35 152.347 104.58 150.453 104.58H146.2V108.973H150.236C152.125 108.973 153.4 108.233 153.4 106.71ZM156.352 106.235C156.352 108.257 155.206 109.301 153.955 109.94C155.919 110.599 157.298 111.706 157.298 113.975C157.298 116.945 154.821 118.526 151.072 118.526H143.291V102.003H150.836C154.222 102.003 156.352 103.632 156.352 106.235Z" fill="#A29F9E"/>
<path fill-rule="evenodd" clip-rule="evenodd" d="M167.194 106.061H170.099V118.531H167.194V116.596C166.373 117.777 165.197 118.792 163.229 118.792C160.369 118.792 158.705 116.901 158.705 114.003V106.061H161.619V113.152C161.619 115.077 162.602 116.2 164.334 116.2C166.014 116.2 167.194 115.034 167.194 113.105V106.061Z" fill="#A29F9E"/>
<path fill-rule="evenodd" clip-rule="evenodd" d="M176.899 118.773C175.093 118.773 173.1 118.12 171.516 116.901L172.815 114.956C174.182 115.982 175.669 116.494 176.967 116.494C178.218 116.494 178.937 115.982 178.937 115.155V115.106C178.937 114.134 177.588 113.804 176.102 113.35C174.231 112.842 172.135 112.084 172.135 109.698V109.645C172.135 107.289 174.133 105.848 176.653 105.848C178.243 105.848 179.97 106.389 181.318 107.27L180.168 109.302C178.937 108.562 177.637 108.121 176.589 108.121C175.457 108.121 174.813 108.629 174.813 109.369V109.413C174.813 110.317 176.171 110.68 177.667 111.159C179.518 111.725 181.604 112.547 181.604 114.792V114.841C181.604 117.462 179.537 118.773 176.899 118.773Z" fill="#A29F9E"/>
<path fill-rule="evenodd" clip-rule="evenodd" d="M186.426 118.531H183.518V106.061H186.426V118.531ZM186.529 104.16H183.404V101.44H186.529V104.16Z" fill="#A29F9E"/>
<path fill-rule="evenodd" clip-rule="evenodd" d="M191.934 118.531H189.025V106.061H191.934V107.996C192.745 106.821 193.926 105.804 195.895 105.804C198.754 105.804 200.413 107.696 200.413 110.599V118.531H197.499V111.45C197.499 109.519 196.516 108.402 194.788 108.402C193.104 108.402 191.934 109.553 191.934 111.497V118.531Z" fill="#A29F9E"/>
<path fill-rule="evenodd" clip-rule="evenodd" d="M211.417 111.42C211.225 109.583 210.118 108.14 208.199 108.14C206.422 108.14 205.172 109.485 204.906 111.42H211.417ZM208.588 116.475C210 116.475 211.003 115.958 212.018 114.991L213.726 116.475C212.53 117.892 210.861 118.812 208.538 118.812C204.856 118.812 202.027 116.2 202.027 112.32C202.027 108.731 204.597 105.799 208.224 105.799C212.254 105.799 214.301 108.924 214.301 112.533L214.257 113.316H204.937C205.265 115.339 206.707 116.475 208.588 116.475Z" fill="#A29F9E"/>
<path fill-rule="evenodd" clip-rule="evenodd" d="M220.374 118.773C218.578 118.773 216.575 118.12 214.99 116.901L216.294 114.956C217.662 115.982 219.154 116.494 220.447 116.494C221.698 116.494 222.421 115.982 222.421 115.155V115.106C222.421 114.134 221.074 113.804 219.587 113.35C217.712 112.842 215.62 112.084 215.62 109.698V109.645C215.62 107.289 217.613 105.848 220.133 105.848C221.726 105.848 223.45 106.389 224.798 107.27L223.648 109.302C222.421 108.562 221.118 108.121 220.065 108.121C218.932 108.121 218.287 108.629 218.287 109.369V109.413C218.287 110.317 219.656 110.68 221.142 111.159C222.997 111.725 225.094 112.547 225.094 114.792V114.841C225.094 117.462 223.017 118.773 220.374 118.773Z" fill="#A29F9E"/>
<path fill-rule="evenodd" clip-rule="evenodd" d="M231.181 118.773C229.38 118.773 227.393 118.12 225.807 116.901L227.097 114.956C228.475 115.982 229.961 116.494 231.26 116.494C232.505 116.494 233.223 115.982 233.223 115.155V115.106C233.223 114.134 231.886 113.804 230.394 113.35C228.519 112.842 226.428 112.084 226.428 109.698V109.645C226.428 107.289 228.416 105.848 230.94 105.848C232.531 105.848 234.253 106.389 235.605 107.27L234.45 109.302C233.223 108.562 231.925 108.121 230.872 108.121C229.745 108.121 229.095 108.629 229.095 109.369V109.413C229.095 110.317 230.463 110.68 231.949 111.159C233.805 111.725 235.896 112.547 235.896 114.792V114.841C235.896 117.462 233.829 118.773 231.181 118.773Z" fill="#A29F9E"/>
<path fill-rule="evenodd" clip-rule="evenodd" d="M163.78 135.566C163.78 130.922 160.316 127.044 155.428 127.044C150.542 127.044 147.151 130.835 147.151 135.489V135.566C147.151 140.22 150.621 144.09 155.503 144.09C160.389 144.09 163.78 140.297 163.78 135.643V135.566ZM155.428 149.594C146.909 149.594 140.803 143.354 140.803 135.643V135.566C140.803 127.857 146.998 121.55 155.503 121.55C164.022 121.55 170.134 127.78 170.134 135.489V135.566C170.134 143.277 163.938 149.594 155.428 149.594Z" fill="#F0AD00"/>
<path fill-rule="evenodd" clip-rule="evenodd" d="M185.895 149.12V137.54C185.895 134.753 184.556 133.321 182.272 133.321C179.979 133.321 178.522 134.753 178.522 137.54V149.12H172.533V128.36H178.522V131.309C179.91 129.567 181.682 127.969 184.714 127.969C189.251 127.969 191.883 130.922 191.883 135.683V149.12H185.895Z" fill="#F0AD00"/>
<path fill-rule="evenodd" clip-rule="evenodd" d="M204.931 132.703C202.45 132.703 200.835 134.443 200.364 137.114H209.389C209.03 134.482 207.461 132.703 204.931 132.703ZM215.142 140.8H200.437C201.033 143.47 202.924 144.864 205.604 144.864C207.609 144.864 209.07 144.245 210.724 142.735L214.154 145.715C212.18 148.115 209.35 149.595 205.522 149.595C199.174 149.595 194.488 145.212 194.488 138.865V138.798C194.488 132.857 198.783 127.974 204.931 127.974C211.988 127.974 215.221 133.359 215.221 139.252V139.32C215.221 139.9 215.177 140.248 215.142 140.8Z" fill="#F0AD00"/>
<path fill-rule="evenodd" clip-rule="evenodd" d="M134.393 106.844L134.974 106.274L134.393 105.664H132.937V106.844H134.393ZM131.213 104.469H134.097C135.889 104.469 136.692 104.948 136.692 106.022C136.692 106.772 136.327 107.197 135.594 107.381C136.293 107.594 136.549 107.889 136.549 108.417V109.108C136.549 109.969 136.583 110.143 136.835 110.327H135.018L134.83 109.612V108.75C134.83 108.17 134.649 108.029 133.955 108.029H132.937V110.327H131.213V104.469ZM129.427 107.492C129.427 109.887 131.352 111.797 133.774 111.797C136.15 111.797 138.075 109.858 138.075 107.492C138.075 105.19 136.15 103.216 133.808 103.216C131.352 103.216 129.427 105.083 129.427 107.492ZM139.354 107.492C139.354 110.54 136.835 113.017 133.774 113.017C130.633 113.017 128.152 110.54 128.152 107.453C128.152 104.445 130.668 102.002 133.848 102.002C136.835 102.002 139.354 104.507 139.354 107.492Z" fill="#A29F9E"/>
</svg>
