<svg width="34" height="24" viewBox="0 0 34 24" fill="none" xmlns="http://www.w3.org/2000/svg">
<path opacity="0.1" d="M20 11V8L25 12L20 16V13H11V11H20ZM12.458 15H14.582C15.28 16.7191 16.5537 18.1422 18.1851 19.0259C19.8165 19.9097 21.7043 20.1991 23.5255 19.8447C25.3468 19.4904 26.9883 18.5142 28.1693 17.0832C29.3503 15.6523 29.9975 13.8554 30 12C30.001 10.1427 29.3558 8.34283 28.1749 6.90922C26.994 5.47561 25.3511 4.49756 23.528 4.14281C21.7048 3.78807 19.815 4.07874 18.1828 4.96498C16.5505 5.85121 15.2775 7.27778 14.582 9H12.458C13.732 4.943 17.522 2 22 2C27.523 2 32 6.477 32 12C32 17.523 27.523 22 22 22C17.522 22 13.732 19.057 12.458 15Z" fill="#1A194D"/>
<g clip-path="url(#clip0)">
<path d="M12.8 22C7.27705 22 2.80005 17.523 2.80005 12C2.80005 6.477 7.27705 2 12.8 2C14.3527 1.99884 15.8842 2.35978 17.273 3.05414C18.6617 3.74851 19.8694 4.75718 20.8 6H18.09C16.9353 4.98176 15.5112 4.31836 13.9888 4.0894C12.4663 3.86044 10.9101 4.07566 9.50694 4.70922C8.10376 5.34277 6.9132 6.36776 6.07812 7.66119C5.24304 8.95462 4.79892 10.4615 4.79905 12.0011C4.79917 13.5407 5.24355 15.0475 6.07884 16.3408C6.91414 17.6341 8.10487 18.6589 9.50815 19.2922C10.9114 19.9255 12.4677 20.1405 13.9901 19.9113C15.5125 19.6821 16.9364 19.0184 18.091 18H20.801C19.8703 19.243 18.6625 20.2517 17.2735 20.9461C15.8846 21.6405 14.3529 22.0013 12.8 22ZM19.8 16V13H11.8V11H19.8V8L24.8 12L19.8 16Z" fill="#615EFF"/>
</g>
<defs>
<clipPath id="clip0">
<rect width="24" height="24" fill="white" transform="translate(0.800049)"/>
</clipPath>
</defs>
</svg>
