<svg width="36" height="36" viewBox="0 0 36 36" fill="none" xmlns="http://www.w3.org/2000/svg">
<g clip-path="url(#clip0_131_117034)">
<path fill-rule="evenodd" clip-rule="evenodd" d="M3 18.3598C3 9.87669 9.69082 3 17.942 3C26.194 3 32.8839 9.87669 32.8839 18.3598C32.8839 25.144 28.6079 30.8994 22.6743 32.9327C21.9168 33.0835 21.6478 32.6045 21.6478 32.1958C21.6478 32.028 21.6497 31.734 21.6523 31.3409C21.6574 30.5487 21.6652 29.3542 21.6652 27.9806C21.6652 26.5477 21.1876 25.6129 20.6517 25.1362C23.9789 24.7561 27.4744 23.457 27.4744 17.5576C27.4744 15.8806 26.8946 14.5105 25.9366 13.4348C26.0918 13.0479 26.6034 11.4857 25.7902 9.37002C25.7902 9.37002 24.5372 8.95719 21.6852 10.9445C20.4911 10.6041 19.2118 10.4335 17.942 10.4277C16.6721 10.4335 15.3939 10.6041 14.2021 10.9445C11.3467 8.95719 10.092 9.37002 10.092 9.37002C9.28066 11.4857 9.79207 13.0479 9.94723 13.4348C8.99133 14.5105 8.40762 15.8807 8.40762 17.5576C8.40762 23.443 11.8965 24.76 15.2153 25.1485C14.788 25.5321 14.4007 26.2096 14.2666 27.2024C13.414 27.5948 11.2512 28.2737 9.91852 25.9255C9.91852 25.9255 9.12844 24.451 7.62797 24.3426C7.62797 24.3426 6.17016 24.3231 7.52578 25.2765C7.52578 25.2765 8.50512 25.7484 9.1848 27.5238C9.1848 27.5238 10.062 30.2652 14.2189 29.3361C14.2224 30.038 14.2281 30.718 14.2326 31.25C14.2364 31.6907 14.2392 32.0299 14.2392 32.1958C14.2392 32.6015 13.965 33.0769 13.2183 32.9347C7.28133 30.9037 3 25.1462 3 18.3598ZM8.34031 24.9272C8.4466 24.9795 8.56356 24.9566 8.59637 24.8804C8.63399 24.8037 8.57211 24.6987 8.46348 24.6487C8.35531 24.5959 8.23836 24.6179 8.20613 24.6964C8.17098 24.773 8.23192 24.8771 8.34031 24.9272ZM9.02621 25.4835C9.12078 25.5909 9.26012 25.6224 9.33137 25.5545L9.33125 25.5546C9.40578 25.4859 9.3868 25.3437 9.28906 25.2354C9.19109 25.1282 9.05598 25.0965 8.9825 25.1643C8.9102 25.2333 8.92848 25.3764 9.02621 25.4835ZM9.50176 26.2845C9.59422 26.4211 9.74398 26.4824 9.83562 26.417L9.83551 26.4171C9.92914 26.3502 9.92914 26.1863 9.83773 26.0474C9.74398 25.9119 9.59656 25.8529 9.50375 25.9185C9.41023 25.9842 9.41023 26.148 9.50176 26.2845ZM10.3043 27.3572C10.432 27.484 10.6064 27.5088 10.6883 27.416H10.6884C10.7757 27.3242 10.7361 27.1471 10.6064 27.0235C10.4777 26.8979 10.3023 26.8718 10.2194 26.9648C10.1373 27.0576 10.1737 27.2334 10.3043 27.3572ZM11.4171 27.8772C11.5863 27.9282 11.7543 27.8735 11.7903 27.7533H11.7904C11.8256 27.6309 11.7147 27.4911 11.546 27.4387C11.3755 27.384 11.2067 27.441 11.1716 27.562C11.1375 27.6836 11.2481 27.8245 11.4171 27.8772ZM12.7277 28.1304C12.9053 28.1281 13.0489 28.023 13.0447 27.8963C13.0447 27.7704 12.8991 27.6686 12.7215 27.6722C12.5429 27.6753 12.4026 27.7793 12.4026 27.9073C12.4045 28.0318 12.549 28.1343 12.7277 28.1304ZM13.9982 28.1321C14.1746 28.0983 14.2981 27.9714 14.2768 27.8478C14.2543 27.7221 14.0962 27.6478 13.9195 27.6794C13.7464 27.7122 13.6205 27.8391 13.6421 27.9658C13.6642 28.0883 13.8248 28.1646 13.9982 28.1321Z" fill="#C0C3D9"/>
</g>
<defs>
<clipPath id="clip0_131_117034">
<rect width="36" height="36" fill="white"/>
</clipPath>
</defs>
</svg>
