<svg width="36" height="36" viewBox="0 0 36 36" fill="none" xmlns="http://www.w3.org/2000/svg">
<g clip-path="url(#clip0_131_117038)">
<path fill-rule="evenodd" clip-rule="evenodd" d="M13.6549 32.3611V20.7385H10.5V15.828H13.5602C13.5602 15.3337 13.5617 14.8581 13.5632 14.3926C13.566 13.4908 13.5688 12.627 13.5602 11.7384C13.5602 7.87183 16.5026 6.74995 19.1479 6.74995H23.6055H23.6076V11.6006C23.3524 11.6021 22.5932 11.6016 21.8981 11.6011C21.5735 11.6009 21.2628 11.6006 21.024 11.6006C21.0207 11.6006 21.0156 11.6005 21.0089 11.6004C20.8218 11.5965 19.3524 11.5661 19.3524 13.0411C19.362 13.6652 19.3524 15.8142 19.3524 15.8142H23.625L23.2788 20.6452H19.4523V32.9306C27.0551 32.2002 33 25.7943 33 18C33 9.71573 26.2843 3 18 3C9.71573 3 3 9.71573 3 18C3 24.7734 7.48941 30.4981 13.6549 32.3611Z" fill="#C0C3D9"/>
</g>
<defs>
<clipPath id="clip0_131_117038">
<rect width="36" height="36" fill="white"/>
</clipPath>
</defs>
</svg>
