<svg width="36" height="36" viewBox="0 0 36 36" fill="none" xmlns="http://www.w3.org/2000/svg">
<g clip-path="url(#clip0_131_117037)">
<path d="M13.755 29.9997C23.8301 29.9997 29.3398 21.7357 29.3398 14.5695C29.3398 14.3348 29.335 14.1012 29.3243 13.8685C30.3964 13.1005 31.3216 12.1496 32.0566 11.0603C31.0751 11.4923 30.019 11.7831 28.911 11.9142C30.0419 11.2428 30.9101 10.1807 31.3197 8.91462C30.2445 9.54614 29.0682 9.99132 27.8415 10.231C26.842 9.17686 25.419 8.51758 23.8433 8.51758C20.8184 8.51758 18.3655 10.9462 18.3655 13.9399C18.3655 14.3655 18.4136 14.7794 18.5076 15.1765C13.9551 14.9497 9.91834 12.7917 7.21671 9.51037C6.73012 10.338 6.47418 11.2786 6.47503 12.2361C6.47503 14.1176 7.44201 15.7786 8.91256 16.7503C8.04271 16.724 7.19196 16.4914 6.43184 16.072C6.43102 16.0948 6.43102 16.117 6.43102 16.1413C6.43102 18.7676 8.31908 20.9605 10.8254 21.4574C10.3547 21.5843 9.86895 21.6485 9.38107 21.6482C9.02874 21.6482 8.68536 21.6139 8.35163 21.5504C9.04898 23.7052 11.0711 25.2732 13.4685 25.317C11.5937 26.7719 9.23212 27.6384 6.66539 27.6384C6.22875 27.6388 5.79248 27.6137 5.35883 27.5633C7.783 29.1017 10.6615 29.9993 13.7553 29.9993" fill="#C0C3D9"/>
</g>
<defs>
<clipPath id="clip0_131_117037">
<rect width="36" height="36" fill="white"/>
</clipPath>
</defs>
</svg>
