<svg width="36" height="36" viewBox="0 0 36 36" fill="none" xmlns="http://www.w3.org/2000/svg">
<g clip-path="url(#clip0_131_117036)">
<path fill-rule="evenodd" clip-rule="evenodd" d="M6.49547 4.55371C5.39374 4.55371 4.5 5.41678 4.5 6.48006V29.52C4.5 30.5834 5.39385 31.4457 6.49547 31.4457H29.5045C30.6067 31.4457 31.5 30.5833 31.5 29.5197V6.48006C31.5 5.41678 30.6067 4.55371 29.5045 4.55371H6.49547ZM12.7051 14.9519V27.0587H8.66484V14.9519H12.7051ZM12.9715 11.2077C12.9715 12.3695 12.0945 13.2992 10.6858 13.2992L10.6855 13.2991H10.6594C9.30335 13.2991 8.4267 12.3694 8.4267 11.2076C8.4267 10.0194 9.32983 9.11569 10.7126 9.11569C12.0945 9.11569 12.9451 10.0194 12.9715 11.2077ZM18.9815 27.0587H14.9415L14.9414 27.0592C14.9414 27.0592 14.9944 16.0881 14.9417 14.9523H18.9818V16.666C19.5189 15.8412 20.4801 14.668 22.6231 14.668C25.2812 14.668 27.2742 16.3985 27.2742 20.117V27.0587H23.2343V20.5826C23.2343 18.9549 22.6493 17.8448 21.1877 17.8448C20.0713 17.8448 19.4065 18.5934 19.1146 19.3167C19.0079 19.5748 18.9815 19.9371 18.9815 20.2985V27.0587Z" fill="#C0C3D9"/>
</g>
<defs>
<clipPath id="clip0_131_117036">
<rect width="36" height="36" fill="white"/>
</clipPath>
</defs>
</svg>
