<svg width="36" height="36" viewBox="0 0 36 36" fill="none" xmlns="http://www.w3.org/2000/svg">
<g clip-path="url(#clip0_131_117035)">
<path fill-rule="evenodd" clip-rule="evenodd" d="M11.0001 5.99939C10.9989 4.34434 12.341 3.00122 13.9993 3C15.6589 3.00245 17.0023 4.34557 17.0011 6.00061V8.99878H14.0006C12.3422 8.99755 10.9989 7.65443 11.0001 5.99939ZM6.00049 11H13.9993C15.6577 11.0012 17.0011 12.3443 16.9998 14.0006C17.0011 15.6557 15.6577 16.9988 13.9993 17H5.99927C4.34091 16.9976 2.99755 15.6544 3 13.9994C2.99878 12.3443 4.34213 11.0012 6.00049 11ZM29.9999 11C31.6582 11.0012 33.0016 12.3443 33.0004 13.9994C33.0016 15.6557 31.6582 16.9988 29.9999 17H26.9994V13.9994C26.9981 12.3443 28.3415 11.0012 29.9999 11ZM25.0003 5.99939V13.9994C25.0015 15.6557 23.6581 16.9988 21.9998 17C20.3414 16.9976 18.998 15.6544 19.0005 13.9994V5.99939C18.9993 4.34434 20.3426 3.00122 22.001 3C23.6594 3.00245 25.0015 4.34557 25.0003 5.99939ZM21.9997 33C23.6581 32.9988 25.0014 31.6557 25.0002 30.0006C25.0014 28.3456 23.6581 27.0025 21.9997 27.0012H18.9992V30.0006C18.998 31.6544 20.3413 32.9976 21.9997 33ZM21.9997 24.9988H29.9998C31.6581 24.9976 33.0015 23.6544 33.0003 21.9994C33.0027 20.3444 31.6594 19.0012 30.001 18.9988H22.0009C20.3426 19 18.9992 20.3431 19.0004 21.9982C18.9992 23.6545 20.3413 24.9976 21.9997 24.9988ZM6.00086 24.9987C4.3425 24.9975 2.99914 23.6544 3.00037 21.9993C2.99914 20.3443 4.3425 19.0012 6.00086 18.9999H9.00135V21.9993C9.00257 23.6544 7.65922 24.9975 6.00086 24.9987ZM11.0004 29.9993V21.9993C10.9992 20.3443 12.3414 19.0012 14.0009 19.0012C15.6593 19.0036 17.0027 20.3467 17.0002 22.0018V30.0006C17.0014 31.6556 15.6581 32.9987 13.9997 33C12.3414 32.9975 10.998 31.6544 11.0004 29.9993Z" fill="#C0C3D9"/>
</g>
<defs>
<clipPath id="clip0_131_117035">
<rect width="36" height="36" fill="white"/>
</clipPath>
</defs>
</svg>
