<svg width="130" height="35" viewBox="0 0 130 35" fill="none" xmlns="http://www.w3.org/2000/svg">
<path fill-rule="evenodd" clip-rule="evenodd" d="M11.542 4.24644C15.2862 0.0397129 21.4865 -1.19433 26.584 1.23386C33.3567 4.4604 35.8274 12.6796 32.1401 19.0197L23.8451 33.2666C23.3815 34.0627 22.6187 34.6436 21.7242 34.8817C20.8297 35.1197 19.8766 34.9956 19.0742 34.5364L29.1168 17.2847C31.7921 12.6832 30.0027 6.71867 25.0925 4.37026C21.4083 2.6083 16.9045 3.4885 14.1828 6.51869C12.6815 8.18218 11.8386 10.3299 11.8105 12.5635C11.7824 14.7972 12.571 16.9651 14.0299 18.6654C14.2921 18.9705 14.5743 19.2581 14.8746 19.5264L9.01176 29.6158C8.78249 30.0102 8.47724 30.356 8.11342 30.6332C7.74961 30.9105 7.33436 31.1139 6.89139 31.2318C6.44842 31.3497 5.9864 31.3798 5.53171 31.3204C5.07702 31.261 4.63857 31.1133 4.24138 30.8856L10.6061 19.932C9.69185 18.6232 9.03531 17.1543 8.67109 15.603L4.7709 22.3286C4.30728 23.1247 3.54448 23.7056 2.64998 23.9437C1.75548 24.1817 0.802394 24.0576 0 23.5984L10.0859 6.24982C10.5057 5.53737 10.9933 4.86652 11.542 4.24644ZM23.1831 9.76855C25.6121 11.1616 26.451 14.2597 25.0455 16.6708L15.3738 33.2646C14.9102 34.0607 14.1474 34.6415 13.2529 34.8796C12.3584 35.1177 11.4053 34.9935 10.6029 34.5344L19.5834 19.0855C18.8628 18.9349 18.1838 18.6308 17.5931 18.1942C17.0024 17.7575 16.5142 17.1988 16.1622 16.5566C15.8101 15.9143 15.6026 15.2039 15.554 14.4742C15.5054 13.7446 15.6168 13.0132 15.8806 12.3305C16.1443 11.6478 16.5542 11.03 17.0818 10.5199C17.6094 10.0098 18.2422 9.61954 18.9365 9.37596C19.6308 9.13238 20.37 9.04134 21.1032 9.10912C21.8364 9.1769 22.546 9.40189 23.1831 9.76855ZM19.6651 12.8871C19.4989 13.0138 19.3594 13.1718 19.2547 13.352H19.2542C19.0964 13.6235 19.0233 13.9353 19.0439 14.2481C19.0646 14.5608 19.1782 14.8605 19.3704 15.1091C19.5626 15.3577 19.8246 15.5442 20.1235 15.6449C20.4224 15.7457 20.7446 15.7561 21.0495 15.675C21.3544 15.5938 21.6281 15.4248 21.8362 15.1891C22.0443 14.9534 22.1774 14.6618 22.2186 14.3511C22.2598 14.0403 22.2073 13.7244 22.0677 13.4433C21.9281 13.1622 21.7077 12.9285 21.4344 12.7718C21.2529 12.6677 21.0526 12.6002 20.8448 12.573C20.637 12.5459 20.4259 12.5596 20.2235 12.6135C20.0211 12.6674 19.8314 12.7604 19.6651 12.8871Z" fill="#C0C3D9"/>
<path fill-rule="evenodd" clip-rule="evenodd" d="M11.542 4.24644C15.2862 0.0397129 21.4865 -1.19433 26.584 1.23386C33.3567 4.4604 35.8274 12.6796 32.1401 19.0197L23.8451 33.2666C23.3815 34.0627 22.6187 34.6436 21.7242 34.8817C20.8297 35.1197 19.8766 34.9956 19.0742 34.5364L29.1168 17.2847C31.7921 12.6832 30.0027 6.71867 25.0925 4.37026C21.4083 2.6083 16.9045 3.4885 14.1828 6.51869C12.6815 8.18218 11.8386 10.3299 11.8105 12.5635C11.7824 14.7972 12.571 16.9651 14.0299 18.6654C14.2921 18.9705 14.5743 19.2581 14.8746 19.5264L9.01176 29.6158C8.78249 30.0102 8.47724 30.356 8.11342 30.6332C7.74961 30.9105 7.33436 31.1139 6.89139 31.2318C6.44842 31.3497 5.9864 31.3798 5.53171 31.3204C5.07702 31.261 4.63857 31.1133 4.24138 30.8856L10.6061 19.932C9.69185 18.6232 9.03531 17.1543 8.67109 15.603L4.7709 22.3286C4.30728 23.1247 3.54448 23.7056 2.64998 23.9437C1.75548 24.1817 0.802394 24.0576 0 23.5984L10.0859 6.24982C10.5057 5.53737 10.9933 4.86652 11.542 4.24644ZM23.1831 9.76855C25.6121 11.1616 26.451 14.2597 25.0455 16.6708L15.3738 33.2646C14.9102 34.0607 14.1474 34.6415 13.2529 34.8796C12.3584 35.1177 11.4053 34.9935 10.6029 34.5344L19.5834 19.0855C18.8628 18.9349 18.1838 18.6308 17.5931 18.1942C17.0024 17.7575 16.5142 17.1988 16.1622 16.5566C15.8101 15.9143 15.6026 15.2039 15.554 14.4742C15.5054 13.7446 15.6168 13.0132 15.8806 12.3305C16.1443 11.6478 16.5542 11.03 17.0818 10.5199C17.6094 10.0098 18.2422 9.61954 18.9365 9.37596C19.6308 9.13238 20.37 9.04134 21.1032 9.10912C21.8364 9.1769 22.546 9.40189 23.1831 9.76855ZM19.6651 12.8871C19.4989 13.0138 19.3594 13.1718 19.2547 13.352H19.2542C19.0964 13.6235 19.0233 13.9353 19.0439 14.2481C19.0646 14.5608 19.1782 14.8605 19.3704 15.1091C19.5626 15.3577 19.8246 15.5442 20.1235 15.6449C20.4224 15.7457 20.7446 15.7561 21.0495 15.675C21.3544 15.5938 21.6281 15.4248 21.8362 15.1891C22.0443 14.9534 22.1774 14.6618 22.2186 14.3511C22.2598 14.0403 22.2073 13.7244 22.0677 13.4433C21.9281 13.1622 21.7077 12.9285 21.4344 12.7718C21.2529 12.6677 21.0526 12.6002 20.8448 12.573C20.637 12.5459 20.4259 12.5596 20.2235 12.6135C20.0211 12.6674 19.8314 12.7604 19.6651 12.8871Z" fill="#C0C3D9"/>
<path fill-rule="evenodd" clip-rule="evenodd" d="M40.1792 26.5996L47.4278 8.14258H51.6778L58.9265 26.5996H54.8747L53.3134 22.4652H45.7922L44.231 26.5996H40.1792ZM52.0744 19.143C51.5787 17.6992 51.1368 16.4072 50.7485 15.267C50.3603 14.1268 49.9638 12.9496 49.559 11.7355C49.1543 12.9496 48.7536 14.1268 48.3571 15.267C47.9689 16.4072 47.5269 17.6992 47.0313 19.143H52.0744ZM60.1531 10.1113C60.1531 9.5207 60.3349 9.04492 60.6983 8.68398C61.0618 8.32305 61.5409 8.14258 62.1357 8.14258C62.7304 8.14258 63.2095 8.32305 63.573 8.68398C63.9365 9.04492 64.1182 9.5207 64.1182 10.1113C64.1182 10.702 63.9365 11.1777 63.573 11.5387C63.2095 11.8996 62.7304 12.0801 62.1357 12.0801C61.5409 12.0801 61.0618 11.8996 60.6983 11.5387C60.3349 11.1777 60.1531 10.702 60.1531 10.1113ZM60.3514 26.5996V14.2949H63.9199V26.5996H60.3514ZM66.9433 14.2949V26.5996H70.5118V21.1732C70.5118 19.8771 70.8051 18.8805 71.3916 18.1832C71.9781 17.4777 72.7505 17.125 73.7087 17.125C74.1713 17.125 74.6421 17.2029 75.1212 17.3588L75.6169 14.2949C75.0469 14.1309 74.4934 14.0488 73.9565 14.0488C72.3787 14.0488 71.1396 14.7174 70.2393 16.0545V14.2949H66.9433ZM76.9798 26.5996V8.14258H80.5484V15.5131C81.0688 15.0537 81.6636 14.6969 82.3327 14.4426C83.0018 14.1801 83.7246 14.0488 84.501 14.0488C85.6658 14.0488 86.7025 14.3277 87.6111 14.8855C88.5198 15.4352 89.2343 16.1939 89.7547 17.1619C90.2752 18.1217 90.5354 19.2168 90.5354 20.4473C90.5354 21.6777 90.2752 22.777 89.7547 23.7449C89.2343 24.7047 88.5198 25.4635 87.6111 26.0213C86.7025 26.5709 85.6658 26.8457 84.501 26.8457C83.6998 26.8457 82.9522 26.7104 82.2583 26.4396C81.5644 26.1607 80.9573 25.7711 80.4369 25.2707L80.3501 26.5996H76.9798ZM84.0481 23.7695C84.9567 23.7695 85.7085 23.4537 86.3032 22.8221C86.898 22.1904 87.1954 21.3988 87.1954 20.4473C87.1954 19.4957 86.898 18.7041 86.3032 18.0725C85.7085 17.4408 84.9567 17.125 84.0481 17.125C83.1394 17.125 82.3877 17.4408 81.793 18.0725C81.1982 18.7041 80.9008 19.4957 80.9008 20.4473C80.9008 21.3988 81.1982 22.1904 81.793 22.8221C82.3877 23.4537 83.1394 23.7695 84.0481 23.7695ZM96.4981 20.3119L93.5986 14.2949H89.869L95.6431 25.9844L92.818 32.7519H96.5724L104.279 14.2949H100.513L97.1672 22.3176C97.0846 21.9156 96.9855 21.5465 96.8698 21.2102C96.7542 20.8738 96.6302 20.5744 96.4981 20.3119ZM104.763 14.2949H106.807V11.2188H110.376V14.2949H113.387V17.3711H110.376V21.8992C110.376 22.4816 110.562 22.941 110.933 23.2773C111.313 23.6055 111.792 23.7695 112.371 23.7695C112.8 23.7695 113.242 23.6752 113.696 23.4865V26.3904C112.912 26.6939 112.139 26.8457 111.379 26.8457C109.909 26.8457 108.777 26.4561 107.984 25.6768C107.2 24.8893 106.807 23.7654 106.807 22.3053V17.3711H104.763V14.2949ZM120.152 23.1666C119.557 22.74 119.148 22.1863 118.925 21.5055H128.59V20.435C128.59 19.1963 128.309 18.0971 127.748 17.1373C127.186 16.1775 126.418 15.4229 125.443 14.8732C124.476 14.3236 123.37 14.0488 122.122 14.0488C120.867 14.0488 119.743 14.3277 118.752 14.8855C117.769 15.4352 116.992 16.1898 116.422 17.1496C115.852 18.1012 115.568 19.1881 115.568 20.4104C115.568 21.649 115.865 22.7564 116.46 23.7326C117.054 24.7006 117.876 25.4635 118.925 26.0213C119.974 26.5709 121.185 26.8457 122.556 26.8457C123.415 26.8457 124.311 26.7062 125.245 26.4273C126.186 26.1484 127.136 25.6357 128.095 24.8893L125.939 22.3299C125.476 22.7646 124.96 23.1215 124.39 23.4004C123.828 23.6711 123.118 23.8064 122.259 23.8064C121.457 23.8064 120.755 23.5932 120.152 23.1666ZM124.706 18.8996C124.509 18.4638 124.226 18.0937 123.857 17.7895C123.32 17.3465 122.676 17.125 121.924 17.125C121.164 17.125 120.503 17.3506 119.941 17.8018C119.565 18.1088 119.276 18.4748 119.075 18.8996H124.706Z" fill="#C0C3D9"/>
</svg>
