<svg width="61" height="60" viewBox="0 0 61 60" fill="none" xmlns="http://www.w3.org/2000/svg">
<rect x="1.5" y="1" width="58" height="58" rx="29" fill="white"/>
<path fill-rule="evenodd" clip-rule="evenodd" d="M31.2316 7.95061C30.6852 7.88763 30.0292 7.8719 29.4514 7.93485C29.4144 7.93219 29.3757 7.93042 29.3361 7.92942C29.2664 7.92763 29.1935 7.92819 29.119 7.93026C28.9868 7.93391 28.8499 7.94226 28.7175 7.95061C23.9082 8.3284 19.4891 10.8628 16.7252 15.1604C16.8006 15.1545 16.8805 15.1617 16.9616 15.1691C17.0982 15.1814 17.238 15.194 17.3654 15.1446C17.8496 14.452 18.3805 13.7908 18.9893 13.1454L19.0948 13.0424C19.5711 12.5756 20.0272 12.1289 20.5511 11.7916C20.8395 11.9855 21.1526 12.1597 21.46 12.3307C21.7015 12.4652 21.9395 12.5976 22.1591 12.7361L22.0434 12.8819L22.0396 12.8866C21.454 13.6237 20.8654 14.3644 20.4417 15.1604C20.5821 15.2233 20.8477 15.2076 21.035 15.1604C21.5348 14.4205 22.0811 13.6649 22.7213 13.0037L22.8814 13.0654C23.6851 13.3751 24.4777 13.6806 25.2979 13.9168L25.3758 13.9955L24.8764 15.1604C25.0485 15.1976 25.1724 15.1859 25.3242 15.1716L25.4025 15.1644L25.4541 15.1604C25.4826 15.1075 25.5102 15.0539 25.5368 14.9998C25.5977 14.8767 25.6547 14.7509 25.7118 14.6251C25.7935 14.4441 25.8756 14.2631 25.9694 14.0899C27.1249 14.3575 28.3584 14.4992 29.5922 14.5307C29.6904 14.6201 29.6834 14.7721 29.6765 14.9196C29.6723 15.0059 29.6685 15.0906 29.6856 15.1604H30.2323C30.239 15.1387 30.2441 15.1169 30.2479 15.095C30.2507 15.0783 30.2529 15.0614 30.2545 15.0446C30.2574 15.0149 30.2586 14.9852 30.259 14.9555C30.2593 14.9362 30.259 14.917 30.2586 14.8979L30.258 14.8651C30.2567 14.7979 30.2555 14.7322 30.2647 14.6702C30.27 14.6327 30.2792 14.5965 30.2948 14.5622C31.4503 14.4992 32.6837 14.3733 33.7926 14.0899L33.8861 14.1057L34.4328 15.1604C34.4787 15.1604 34.5279 15.1632 34.5776 15.1661C34.7298 15.175 34.8888 15.1843 34.9947 15.1131L34.4952 13.9482L34.5421 13.901C35.4634 13.6649 36.3223 13.3028 37.2122 12.925C37.8368 13.5862 38.4146 14.3733 38.9299 15.1446L39.0395 15.1455C39.2202 15.1477 39.3932 15.1498 39.5232 15.0974C39.289 14.6566 38.9768 14.2159 38.6643 13.8223C38.3991 13.4445 38.1179 13.0982 37.7899 12.7361V12.6417L39.1952 11.8074L39.3983 11.7286C40.6162 12.6732 41.6938 13.8223 42.5681 15.0974C42.6436 15.0974 42.7158 15.1056 42.7859 15.1135C42.9332 15.1301 43.0708 15.1457 43.2083 15.0816C40.5227 10.9573 36.1036 8.31266 31.3095 7.93485L31.294 7.98208L31.2316 7.95061ZM33.2928 8.86363V8.91085C31.5441 10.2017 28.7333 10.3276 26.8907 9.13124C26.8739 9.11701 26.8533 9.1038 26.8308 9.09088L26.7982 9.07295L26.7741 9.06009C26.6831 9.01182 26.5836 8.95922 26.5627 8.86363C28.6864 8.35989 31.2005 8.31266 33.2928 8.86363ZM38.805 11.3193L38.7581 11.3981L37.384 12.1851H37.2901C36.2285 11.099 34.9947 10.1387 33.7302 9.39884C33.765 9.29259 33.8795 9.2129 33.9935 9.1332C34.0316 9.10665 34.0696 9.08008 34.1048 9.05252C35.7756 9.50904 37.3684 10.2804 38.805 11.3193ZM26.1878 9.4146C24.9388 10.2017 23.7209 11.1305 22.5965 12.2639C22.0501 12.0592 21.5503 11.7601 21.0819 11.4138V11.3666C22.3467 10.4221 23.7519 9.71369 25.2199 9.22568L25.2393 9.20531L25.2557 9.18683C25.2979 9.13918 25.3331 9.09975 25.4072 9.09975V9.14697C25.4754 9.16758 25.5375 9.14324 25.5977 9.11972C25.6753 9.08931 25.7495 9.06025 25.8287 9.13124L25.8728 9.16355L25.9412 9.21151C25.9942 9.24816 26.0465 9.28449 26.094 9.32376C26.1282 9.3521 26.1602 9.38196 26.1878 9.4146ZM36.7124 12.4528L36.6658 12.5157C35.8849 12.862 35.0885 13.1769 34.2297 13.3658C33.605 12.2953 32.9338 11.2249 32.1684 10.2017C32.3177 10.1181 32.4847 10.0433 32.653 9.96803L32.6587 9.96556C32.8051 9.89994 32.9525 9.83381 33.0897 9.76091C34.3859 10.4221 35.6507 11.3666 36.7124 12.4528ZM27.6871 10.1545L27.6244 10.3119C26.9126 11.2199 26.3494 12.1824 25.784 13.1487L25.657 13.3658L25.579 13.3815C24.7515 13.1611 23.9551 12.8935 23.1897 12.5472L23.2366 12.4213C24.3452 11.3508 25.501 10.4693 26.7814 9.77665C26.9265 9.84258 27.0685 9.89827 27.2086 9.95326C27.279 9.98088 27.349 10.0083 27.4187 10.0368C27.5084 10.0735 27.5978 10.1118 27.6871 10.1545ZM29.6387 10.5323C29.6828 11.2731 29.6727 12.0916 29.6628 12.895V12.9027C29.6603 13.1107 29.6578 13.3177 29.6562 13.5221L29.6552 13.699L29.6546 13.901C29.222 13.9616 28.8265 13.9196 28.4107 13.8755C28.2864 13.8623 28.16 13.8489 28.0304 13.838C27.9296 13.8235 27.8241 13.8095 27.716 13.7951C27.24 13.7317 26.7113 13.6614 26.2661 13.5075C26.8438 12.3898 27.5309 11.3193 28.3429 10.3434L29.6387 10.5323ZM31.5127 10.3748C32.2936 11.3823 33.0586 12.4213 33.5739 13.5232C32.4964 13.7908 31.3878 13.9325 30.2634 13.9325C30.2241 13.0294 30.2399 12.0367 30.2555 11.0866L30.2634 10.5638C30.4374 10.5368 30.6199 10.5098 30.8025 10.4828L31.1745 10.4274C31.2905 10.4099 31.404 10.3924 31.5127 10.3748Z" fill="#1A194D"/>
<path d="M29.8888 17.2383C27.6871 16.2938 24.5953 16.1836 22.5965 17.6633C21.3006 18.6393 20.8946 20.3709 21.2378 21.8979C21.5034 23.3461 22.862 24.4166 24.1579 24.9203C25.1512 25.2804 26.1688 25.5866 27.1889 25.8936C27.9971 26.1368 28.8071 26.3806 29.6077 26.6519C29.795 26.7306 30.0292 26.9195 29.9823 27.1399C29.9823 27.3195 29.813 27.4137 29.6755 27.4902L29.6546 27.502C27.7651 28.0215 25.7352 27.6279 24.3611 26.1639C24.3297 26.123 24.3002 26.0809 24.272 26.038C24.2295 25.9735 24.1899 25.9074 24.1503 25.8412L24.1465 25.8349C24.1161 25.7848 24.0857 25.7347 24.0543 25.6854C24.0182 25.6283 23.9804 25.5723 23.9392 25.5185L21.2378 25.5342C21.1912 27.1714 21.1754 29.0447 21.2378 30.6661L24.2362 30.6503L24.2828 29.6743C24.5839 29.8122 24.8846 29.9862 25.1749 30.1542L25.2979 30.2253C27.3747 31.1069 30.0606 31.3115 32.1218 30.2253C33.6208 29.3752 34.417 27.7381 34.1986 25.9907C33.9799 24.2749 32.3715 22.7165 30.7476 22.2914L25.907 20.8589L25.5476 20.67C25.3917 20.5283 25.2824 20.3394 25.3293 20.119C25.6392 19.5717 26.3028 19.6177 26.8939 19.6587C27.0169 19.6672 27.137 19.6755 27.2498 19.6783C28.655 19.8829 30.0916 20.3709 30.9194 21.6775C31.1318 21.6775 31.3533 21.6784 31.5821 21.6794C32.2907 21.6824 33.0561 21.6856 33.7768 21.6617C33.8126 20.4197 33.785 19.2844 33.7562 18.0887V18.0521L33.7543 17.9859L33.7422 17.4722L33.7302 16.8762C32.8244 16.8605 31.7314 16.8605 30.8256 16.892C30.8066 16.9879 30.8107 17.102 30.8152 17.2206C30.8171 17.2688 30.819 17.3177 30.8193 17.3665C30.8196 17.4931 30.8101 17.6183 30.7632 17.7263L29.8888 17.2383Z" fill="#1A194D"/>
<path fill-rule="evenodd" clip-rule="evenodd" d="M46.8779 17.8837C44.2703 16.1836 40.3041 16.0734 37.6182 17.6003C36.1505 18.3717 35.1978 19.8829 34.9012 21.4414C34.3545 24.0073 34.4952 27.0612 36.4158 28.966C38.6643 30.9809 41.928 31.4217 44.8322 30.6031C44.9729 30.5716 45.41 30.4614 45.7069 30.304L45.7849 30.2725C46.6906 29.8947 47.5495 29.2651 48.1897 28.415C49.6729 26.1954 49.7667 22.8581 48.8768 20.3552C48.5174 19.3792 47.7837 18.5134 46.8779 17.8837ZM43.9268 20.7959C44.1629 21.1594 44.2012 21.6227 44.2383 22.0745L44.244 22.139L44.2567 22.2794C44.2608 22.3257 44.2652 22.3718 44.2703 22.4174C44.2662 22.7131 44.2697 23.0236 44.2732 23.3416V23.3741C44.2833 24.2822 44.2941 25.2503 44.1451 26.1167C44.0516 26.6047 43.7236 27.1084 43.2238 27.2816C42.4277 27.6436 41.3347 27.5492 40.6007 27.1242C39.9818 26.6873 39.8994 25.9412 39.822 25.2383L39.8198 25.2194L39.8093 24.9887C39.7485 23.6711 39.6845 22.2839 40.0385 21.0793C40.3351 20.2922 41.1629 20.0876 41.8966 20.0246C42.693 20.0246 43.4584 20.1505 43.9268 20.7959Z" fill="#1A194D"/>
<path d="M12.8527 16.6716L11.6034 16.6873C11.5879 17.7578 11.5879 19.0014 11.6034 20.1033C11.7166 20.1059 11.8288 20.1076 11.9397 20.109L12.1768 20.1116C12.654 20.1164 13.1164 20.1211 13.5867 20.1663V27.0297L13.5709 27.3131L11.5879 27.3603C11.541 28.4937 11.541 29.5799 11.5879 30.6976H20.4259V27.3603C20.1391 27.3396 19.8342 27.3401 19.5287 27.3405C19.1354 27.341 18.7405 27.3416 18.3805 27.2973L18.396 20.2135L18.4429 20.1505L20.4259 20.1348L20.4328 19.6599C20.4484 18.6532 20.4642 17.6136 20.4103 16.7031L12.8527 16.6716Z" fill="#1A194D"/>
<path fill-rule="evenodd" clip-rule="evenodd" d="M25.3597 32.1685C25.2183 32.1587 25.083 32.1493 24.9857 32.193L25.4852 33.3894L25.4228 33.4524C24.517 33.72 23.6426 34.0348 22.7838 34.3969L22.7058 34.3497C22.1436 33.72 21.5972 33.0431 21.1599 32.3505C21.0952 32.1112 20.8813 32.1349 20.6832 32.1568C20.5948 32.1667 20.5092 32.1762 20.4417 32.1615C20.8787 32.9577 21.4432 33.6767 22.02 34.4115L22.206 34.6487C22.0745 34.7284 21.9436 34.81 21.813 34.8913C21.402 35.1474 20.9932 35.4022 20.5666 35.5933C19.3642 34.6645 18.2398 33.4524 17.3967 32.1773C17.2094 32.1395 17.0621 32.1521 16.8909 32.1667C16.8478 32.1704 16.8035 32.1741 16.7566 32.1773C18.1932 34.4756 20.4417 36.4905 22.7838 37.6869L22.7844 37.6834C22.7847 37.6815 22.7857 37.6791 22.7872 37.6769L22.7901 37.6739L22.7929 37.6723C22.7948 37.6716 22.7971 37.6712 22.7996 37.6712C22.8151 37.6712 22.862 37.7184 22.8151 37.7342C24.3921 38.5213 26.0788 39.088 27.8589 39.3241C34.011 40.1584 39.8822 37.4665 43.2866 32.1773C43.099 32.1615 42.8492 32.1615 42.6461 32.1773C41.8031 33.4051 40.7411 34.6015 39.5856 35.5303C39.5587 35.5666 39.5111 35.5767 39.4668 35.5668C39.4506 35.5632 39.4351 35.557 39.4208 35.5485C39.4059 35.5397 39.3929 35.5282 39.3828 35.5146C39.1521 35.3621 38.9118 35.2263 38.6735 35.0918C38.3953 34.9348 38.1205 34.7796 37.8679 34.6015C38.5084 33.8144 39.1327 33.0274 39.617 32.1615H38.9923L38.8934 32.308C38.4241 33.0044 37.9332 33.733 37.306 34.3654C36.4313 34.0033 35.6193 33.6728 34.7294 33.4366L34.6356 33.3579C34.6591 33.29 34.6857 33.223 34.7145 33.1565C34.7567 33.0592 34.8033 32.9631 34.8495 32.8674C34.9621 32.6344 35.0736 32.4035 35.1199 32.1615H34.5732L34.0268 33.2477C32.84 32.9801 31.5441 32.8384 30.3417 32.7597C30.3119 32.6701 30.3138 32.5663 30.316 32.4652C30.3179 32.3531 30.3201 32.2443 30.2792 32.1615H29.7481C29.7402 32.202 29.7367 32.2412 29.7357 32.2792C29.7345 32.3308 29.7383 32.3804 29.7421 32.4289C29.7516 32.553 29.7601 32.6693 29.6856 32.7912C28.4367 32.8542 27.2498 32.9959 26.0788 33.232L25.5476 32.1773C25.5232 32.1773 25.4985 32.1766 25.4738 32.1755C25.4357 32.1738 25.3974 32.1712 25.3597 32.1685ZM29.1554 36.9113C28.9209 36.9388 28.6873 36.9662 28.4677 37.0258C27.6402 36.034 26.9687 34.9636 26.3909 33.8617L26.4848 33.783C27.5309 33.5783 28.6084 33.4209 29.7326 33.4209L29.7481 36.8211C29.62 36.8498 29.4892 36.8698 29.3576 36.8868L29.2286 36.9026L29.1554 36.9113ZM33.6988 33.8144L33.7143 33.8774C33.1521 34.9636 32.4495 36.0183 31.6845 37.01C31.5811 37.0243 31.4807 37.0214 31.3812 37.0095C31.2737 36.9967 31.1676 36.9735 31.0608 36.9501C30.9933 36.9353 30.9254 36.9204 30.857 36.9081C30.8003 36.8979 30.7432 36.8894 30.6852 36.8841L30.3417 36.8369C30.2948 35.6405 30.2792 34.6015 30.3417 33.4051C31.4972 33.4366 32.6371 33.5468 33.6988 33.8144ZM25.7977 34.0033C26.3754 35.121 27.0936 36.16 27.8275 37.2147C27.7531 37.2565 27.6742 37.2949 27.593 37.3318C27.5211 37.3644 27.4479 37.3958 27.3747 37.4272C27.2187 37.4941 27.0625 37.561 26.9218 37.6397C25.5945 36.9786 24.3452 36.0498 23.2835 34.9321V34.8691C24.0644 34.4913 24.8919 34.208 25.7194 33.9876L25.7977 34.0033ZM36.8062 34.8534C36.166 35.5933 35.3382 36.2387 34.5887 36.7897L34.4601 36.8704C34.0474 37.1291 33.6218 37.3959 33.1835 37.624L32.3246 37.2462L32.3871 37.1045C33.1055 36.1128 33.7457 35.1053 34.3079 34.0348L34.3704 33.9876C35.2292 34.1765 36.0412 34.4599 36.8062 34.8534ZM38.9454 36.0026C37.8213 36.9156 36.5251 37.5138 35.1978 38.0175L34.261 38.3166C34.1054 38.2383 33.9657 38.1131 33.8256 37.9878L33.8237 37.986L33.8706 37.9231C35.1509 37.1517 36.3064 36.2229 37.4153 35.121C37.9462 35.3571 38.4615 35.6562 38.9454 36.0026ZM26.0471 38.1924C25.9904 38.2346 25.9308 38.2746 25.8747 38.3121L25.8446 38.3324C24.1579 37.8916 22.5965 37.1202 21.1599 36.0655V36.0026C21.2499 35.9469 21.3399 35.8901 21.4302 35.8332L21.4435 35.8249C21.8339 35.5787 22.2285 35.3299 22.6434 35.1525C23.7833 36.3017 24.9699 37.1674 26.2505 38.0018C26.1998 38.0699 26.1263 38.1334 26.0471 38.1924ZM33.4177 38.4583C33.4583 38.5402 33.4066 38.5488 33.3524 38.5579C33.3233 38.5627 33.2935 38.5677 33.2773 38.5842C31.1536 39.0407 28.7957 39.0722 26.6721 38.537C26.654 38.5005 26.6638 38.4733 26.6863 38.4502C26.6958 38.4406 26.7072 38.4316 26.7199 38.4229L26.7557 38.4002C26.7823 38.3839 26.809 38.3675 26.8283 38.3481C28.6864 37.1202 31.5907 37.1202 33.4177 38.4583Z" fill="#1A194D"/>
<path d="M13.0582 47.3684V46.7673L14.6528 45.2041C14.8053 45.05 14.9324 44.9132 15.0341 44.7936C15.1358 44.674 15.212 44.5581 15.2629 44.446C15.3137 44.3338 15.3391 44.2142 15.3391 44.0871C15.3391 43.9421 15.3062 43.818 15.2404 43.7148C15.1746 43.6102 15.0842 43.5294 14.9691 43.4726C14.8539 43.4158 14.7231 43.3874 14.5766 43.3874C14.4255 43.3874 14.2932 43.4188 14.1796 43.4816C14.0659 43.5429 13.9777 43.6303 13.9149 43.744C13.8536 43.8576 13.823 43.9929 13.823 44.1499H13.0312C13.0312 43.8584 13.0978 43.6049 13.2309 43.3896C13.3639 43.1743 13.5471 43.0076 13.7804 42.8895C14.0151 42.7713 14.2842 42.7123 14.5878 42.7123C14.8958 42.7123 15.1664 42.7698 15.3997 42.885C15.6329 43.0001 15.8138 43.1579 15.9424 43.3582C16.0725 43.5586 16.1376 43.7873 16.1376 44.0445C16.1376 44.2165 16.1047 44.3854 16.0389 44.5514C15.9731 44.7174 15.8572 44.9013 15.6912 45.1031C15.5268 45.305 15.2958 45.5495 14.9982 45.8365L14.2065 46.6417V46.6731H16.2071V47.3684H13.0582Z" fill="#1A194D"/>
<path d="M17.1491 47.3684L19.1026 43.5018V43.4704H16.8351V42.7751H19.9638V43.4861L18.0126 47.3684H17.1491Z" fill="#1A194D"/>
<path d="M22.2868 47.4558C21.9175 47.4558 21.6005 47.3624 21.3359 47.1755C21.0727 46.9871 20.8701 46.7157 20.7281 46.3614C20.5875 46.0055 20.5172 45.5771 20.5172 45.0762C20.5187 44.5753 20.5898 44.1492 20.7303 43.7978C20.8724 43.4449 21.075 43.1758 21.3381 42.9904C21.6028 42.805 21.919 42.7123 22.2868 42.7123C22.6546 42.7123 22.9709 42.805 23.2355 42.9904C23.5002 43.1758 23.7028 43.4449 23.8433 43.7978C23.9854 44.1507 24.0564 44.5768 24.0564 45.0762C24.0564 45.5786 23.9854 46.0077 23.8433 46.3636C23.7028 46.718 23.5002 46.9886 23.2355 47.1755C22.9724 47.3624 22.6561 47.4558 22.2868 47.4558ZM22.2868 46.7538C22.5739 46.7538 22.8004 46.6125 22.9664 46.33C23.1339 46.0459 23.2176 45.6279 23.2176 45.0762C23.2176 44.7114 23.1795 44.4049 23.1032 44.1567C23.027 43.9085 22.9193 43.7216 22.7802 43.596C22.6412 43.4689 22.4767 43.4053 22.2868 43.4053C22.0012 43.4053 21.7755 43.5474 21.6095 43.8314C21.4435 44.114 21.3598 44.529 21.3583 45.0762C21.3568 45.4425 21.3934 45.7506 21.4682 46.0003C21.5444 46.25 21.6521 46.4384 21.7912 46.5654C21.9302 46.691 22.0954 46.7538 22.2868 46.7538Z" fill="#1A194D"/>
<path d="M26.4994 47.4558C26.1301 47.4558 25.8131 47.3624 25.5485 47.1755C25.2853 46.9871 25.0827 46.7157 24.9406 46.3614C24.8001 46.0055 24.7298 45.5771 24.7298 45.0762C24.7313 44.5753 24.8023 44.1492 24.9429 43.7978C25.0849 43.4449 25.2875 43.1758 25.5507 42.9904C25.8153 42.805 26.1316 42.7123 26.4994 42.7123C26.8672 42.7123 27.1835 42.805 27.4481 42.9904C27.7128 43.1758 27.9154 43.4449 28.0559 43.7978C28.198 44.1507 28.269 44.5768 28.269 45.0762C28.269 45.5786 28.198 46.0077 28.0559 46.3636C27.9154 46.718 27.7128 46.9886 27.4481 47.1755C27.185 47.3624 26.8687 47.4558 26.4994 47.4558ZM26.4994 46.7538C26.7865 46.7538 27.013 46.6125 27.179 46.33C27.3465 46.0459 27.4302 45.6279 27.4302 45.0762C27.4302 44.7114 27.3921 44.4049 27.3158 44.1567C27.2395 43.9085 27.1319 43.7216 26.9928 43.596C26.8538 43.4689 26.6893 43.4053 26.4994 43.4053C26.2138 43.4053 25.988 43.5474 25.8221 43.8314C25.6561 44.114 25.5724 44.529 25.5709 45.0762C25.5694 45.4425 25.606 45.7506 25.6808 46.0003C25.757 46.25 25.8647 46.4384 26.0037 46.5654C26.1428 46.691 26.308 46.7538 26.4994 46.7538Z" fill="#1A194D"/>
<path d="M30.8824 42.7751V47.3684H30.0504V43.5847H30.0234L28.9491 44.271V43.5085L30.0907 42.7751H30.8824Z" fill="#1A194D"/>
<path d="M32.5578 46.8166C32.4218 46.8166 32.3051 46.7688 32.208 46.6731C32.1108 46.5759 32.0629 46.4593 32.0644 46.3232C32.0629 46.1887 32.1108 46.0735 32.208 45.9778C32.3051 45.8821 32.4218 45.8343 32.5578 45.8343C32.6894 45.8343 32.8038 45.8821 32.901 45.9778C32.9997 46.0735 33.0498 46.1887 33.0513 46.3232C33.0498 46.4144 33.0258 46.4974 32.9795 46.5722C32.9346 46.6469 32.8748 46.7067 32.8001 46.7516C32.7268 46.795 32.6461 46.8166 32.5578 46.8166ZM32.5578 44.5402C32.4218 44.5402 32.3051 44.4923 32.208 44.3966C32.1108 44.2995 32.0629 44.1828 32.0644 44.0468C32.0629 43.9122 32.1108 43.7971 32.208 43.7014C32.3051 43.6042 32.4218 43.5556 32.5578 43.5556C32.6894 43.5556 32.8038 43.6042 32.901 43.7014C32.9997 43.7971 33.0498 43.9122 33.0513 44.0468C33.0498 44.1365 33.0258 44.2187 32.9795 44.2935C32.9346 44.3682 32.8748 44.428 32.8001 44.4729C32.7268 44.5178 32.6461 44.5402 32.5578 44.5402Z" fill="#1A194D"/>
<path d="M33.8805 47.3684V46.7673L35.4752 45.2041C35.6277 45.05 35.7548 44.9132 35.8565 44.7936C35.9581 44.674 36.0344 44.5581 36.0852 44.446C36.1361 44.3338 36.1615 44.2142 36.1615 44.0871C36.1615 43.9421 36.1286 43.818 36.0628 43.7148C35.997 43.6102 35.9066 43.5294 35.7914 43.4726C35.6763 43.4158 35.5455 43.3874 35.3989 43.3874C35.2479 43.3874 35.1156 43.4188 35.002 43.4816C34.8883 43.5429 34.8001 43.6303 34.7373 43.744C34.676 43.8576 34.6453 43.9929 34.6453 44.1499H33.8536C33.8536 43.8584 33.9202 43.6049 34.0532 43.3896C34.1863 43.1743 34.3695 43.0076 34.6027 42.8895C34.8375 42.7713 35.1066 42.7123 35.4102 42.7123C35.7182 42.7123 35.9888 42.7698 36.2221 42.885C36.4553 43.0001 36.6362 43.1579 36.7648 43.3582C36.8949 43.5586 36.9599 43.7873 36.9599 44.0445C36.9599 44.2165 36.927 44.3854 36.8613 44.5514C36.7955 44.7174 36.6796 44.9013 36.5136 45.1031C36.3491 45.305 36.1181 45.5495 35.8206 45.8365L35.0289 46.6417V46.6731H37.0295V47.3684H33.8805Z" fill="#1A194D"/>
<path d="M39.5011 47.4558C39.1317 47.4558 38.8148 47.3624 38.5501 47.1755C38.2869 46.9871 38.0843 46.7157 37.9423 46.3614C37.8017 46.0055 37.7315 45.5771 37.7315 45.0762C37.733 44.5753 37.804 44.1492 37.9445 43.7978C38.0866 43.4449 38.2892 43.1758 38.5523 42.9904C38.817 42.805 39.1332 42.7123 39.5011 42.7123C39.8689 42.7123 40.1851 42.805 40.4498 42.9904C40.7144 43.1758 40.917 43.4449 41.0576 43.7978C41.1996 44.1507 41.2706 44.5768 41.2706 45.0762C41.2706 45.5786 41.1996 46.0077 41.0576 46.3636C40.917 46.718 40.7144 46.9886 40.4498 47.1755C40.1866 47.3624 39.8704 47.4558 39.5011 47.4558ZM39.5011 46.7538C39.7881 46.7538 40.0147 46.6125 40.1806 46.33C40.3481 46.0459 40.4318 45.6279 40.4318 45.0762C40.4318 44.7114 40.3937 44.4049 40.3174 44.1567C40.2412 43.9085 40.1335 43.7216 39.9945 43.596C39.8554 43.4689 39.691 43.4053 39.5011 43.4053C39.2155 43.4053 38.9897 43.5474 38.8237 43.8314C38.6578 44.114 38.574 44.529 38.5725 45.0762C38.571 45.4425 38.6077 45.7506 38.6824 46.0003C38.7587 46.25 38.8663 46.4384 39.0054 46.5654C39.1445 46.691 39.3097 46.7538 39.5011 46.7538Z" fill="#1A194D"/>
<path d="M43.8841 42.7751V47.3684H43.052V43.5847H43.0251L41.9508 44.271V43.5085L43.0924 42.7751H43.8841Z" fill="#1A194D"/>
<path d="M45.2186 47.3684L47.1721 43.5018V43.4704H44.9046V42.7751H48.0333V43.4861L46.0821 47.3684H45.2186Z" fill="#1A194D"/>
<path d="M23.1191 50.9925H22.5948C22.5798 50.9065 22.5523 50.8304 22.5121 50.764C22.4719 50.6967 22.4219 50.6397 22.3621 50.593C22.3023 50.5463 22.2341 50.5112 22.1574 50.4879C22.0817 50.4636 22 50.4514 21.9121 50.4514C21.7561 50.4514 21.6178 50.4907 21.4972 50.5692C21.3767 50.6467 21.2823 50.7607 21.2141 50.9112C21.1458 51.0607 21.1117 51.2434 21.1117 51.4593C21.1117 51.6789 21.1458 51.8639 21.2141 52.0144C21.2832 52.1639 21.3776 52.277 21.4972 52.3536C21.6178 52.4293 21.7556 52.4671 21.9107 52.4671C21.9967 52.4671 22.0771 52.4559 22.1518 52.4335C22.2275 52.4101 22.2953 52.376 22.3551 52.3312C22.4158 52.2863 22.4668 52.2312 22.5079 52.1658C22.5499 52.1003 22.5789 52.0256 22.5948 51.9415L23.1191 51.9443C23.0994 52.0807 23.0569 52.2088 22.9915 52.3284C22.927 52.448 22.8424 52.5536 22.7378 52.6452C22.6331 52.7358 22.5107 52.8068 22.3705 52.8582C22.2303 52.9087 22.0747 52.9339 21.9037 52.9339C21.6514 52.9339 21.4262 52.8755 21.2281 52.7587C21.03 52.6419 20.8739 52.4732 20.7599 52.2527C20.6459 52.0321 20.5889 51.7677 20.5889 51.4593C20.5889 51.15 20.6463 50.8855 20.7613 50.6659C20.8762 50.4453 21.0328 50.2767 21.2309 50.1598C21.429 50.043 21.6533 49.9846 21.9037 49.9846C22.0635 49.9846 22.2121 50.007 22.3495 50.0519C22.4869 50.0968 22.6093 50.1626 22.7167 50.2496C22.8242 50.3355 22.9125 50.4411 22.9817 50.5664C23.0518 50.6906 23.0976 50.8327 23.1191 50.9925Z" fill="#1A194D"/>
<path d="M23.5953 52.8947V50.0239H25.4625V50.4598H24.1154V51.2392H25.3657V51.6751H24.1154V52.4587H25.4737V52.8947H23.5953Z" fill="#1A194D"/>
<path d="M25.993 52.8947V50.0239H27.0696C27.2901 50.0239 27.4752 50.0622 27.6247 50.1388C27.7751 50.2154 27.8887 50.3229 27.9653 50.4612C28.0429 50.5986 28.0816 50.7589 28.0816 50.942C28.0816 51.1261 28.0424 51.2859 27.9639 51.4214C27.8863 51.556 27.7719 51.6602 27.6205 51.734C27.4691 51.8069 27.2831 51.8434 27.0626 51.8434H26.2958V51.4116H26.9925C27.1214 51.4116 27.227 51.3939 27.3093 51.3583C27.3915 51.3219 27.4523 51.2691 27.4915 51.1999C27.5317 51.1299 27.5518 51.0439 27.5518 50.942C27.5518 50.8402 27.5317 50.7533 27.4915 50.6813C27.4513 50.6084 27.3901 50.5533 27.3079 50.5159C27.2256 50.4776 27.1196 50.4584 26.9897 50.4584H26.5131V52.8947H25.993ZM27.4761 51.5938L28.1868 52.8947H27.6065L26.9084 51.5938H27.4761Z" fill="#1A194D"/>
<path d="M28.4342 50.4598V50.0239H30.7247V50.4598H29.8374V52.8947H29.3215V50.4598H28.4342Z" fill="#1A194D"/>
<path d="M31.6863 50.0239V52.8947H31.1662V50.0239H31.6863Z" fill="#1A194D"/>
<path d="M32.2494 52.8947V50.0239H34.0886V50.4598H32.7695V51.2392H33.9624V51.6751H32.7695V52.8947H32.2494Z" fill="#1A194D"/>
<path d="M35.0824 50.0239V52.8947H34.5624V50.0239H35.0824Z" fill="#1A194D"/>
<path d="M35.6456 52.8947V50.0239H37.5127V50.4598H36.1656V51.2392H37.416V51.6751H36.1656V52.4587H37.5239V52.8947H35.6456Z" fill="#1A194D"/>
<path d="M39.0161 52.8947H38.0433V50.0239H39.0357C39.3208 50.0239 39.5656 50.0813 39.7703 50.1963C39.9759 50.3103 40.1338 50.4743 40.2441 50.6883C40.3543 50.9023 40.4095 51.1584 40.4095 51.4565C40.4095 51.7555 40.3539 52.0125 40.2427 52.2274C40.1324 52.4424 39.9731 52.6073 39.7647 52.7223C39.5572 52.8372 39.3077 52.8947 39.0161 52.8947ZM38.5633 52.4447H38.9909C39.1909 52.4447 39.3577 52.4083 39.4913 52.3354C39.6249 52.2616 39.7254 52.1517 39.7927 52.006C39.86 51.8592 39.8936 51.6761 39.8936 51.4565C39.8936 51.2369 39.86 51.0546 39.7927 50.9098C39.7254 50.764 39.6259 50.6551 39.4941 50.5832C39.3633 50.5103 39.2007 50.4738 39.0063 50.4738H38.5633V52.4447Z" fill="#1A194D"/>
<rect x="1.5" y="1" width="58" height="58" rx="29" stroke="#1A194D" stroke-width="2"/>
</svg>
