<svg width="250" height="250" viewBox="0 0 250 250" fill="none" xmlns="http://www.w3.org/2000/svg">
<g clip-path="url(#clip0_1789_7050)">
<path d="M83.5218 218C168.97 218 215.699 146.635 215.699 84.7497C215.699 82.723 215.658 80.7055 215.567 78.6964C224.66 72.0639 232.507 63.8518 238.74 54.4452C230.416 58.1759 221.459 60.6868 212.062 61.8189C221.654 56.0211 229.017 46.8489 232.491 35.9157C223.372 41.3693 213.395 45.2138 202.992 47.2835C194.515 38.1803 182.446 32.4869 169.082 32.4869C143.428 32.4869 122.624 53.4601 122.624 79.3128C122.624 82.9882 123.032 86.5621 123.829 89.9914C85.219 88.0328 50.9824 69.3971 28.0695 41.0604C23.9426 48.2075 21.772 56.3303 21.7792 64.5993C21.7792 80.8474 29.9803 95.1908 42.4523 103.583C35.0749 103.355 27.8596 101.347 21.4129 97.7249C21.406 97.9216 21.406 98.1131 21.406 98.3232C21.406 121.004 37.4188 139.94 58.6754 144.231C54.6832 145.327 50.5636 145.881 46.4258 145.879C43.4376 145.879 40.5253 145.583 37.695 145.035C43.6092 163.643 60.7589 177.184 81.0918 177.562C65.1917 190.126 45.1625 197.609 23.3937 197.609C19.6905 197.612 15.9904 197.395 12.3125 196.96C32.8723 210.245 57.2851 217.997 83.5241 217.997" fill="#1DA1F2"/>
</g>
<defs>
<clipPath id="clip0_1789_7050">
<rect width="227" height="186" fill="white" transform="translate(12 32)"/>
</clipPath>
</defs>
</svg>
