<svg width="250" height="250" viewBox="0 0 250 250" fill="none" xmlns="http://www.w3.org/2000/svg">
<g clip-path="url(#clip0_2152_4094)">
<path d="M202.702 30H47.2976C37.7444 30 30 37.7444 30 47.2976V202.702C30 212.256 37.7444 220 47.2976 220H202.702C212.256 220 220 212.256 220 202.702V47.2976C220 37.7444 212.256 30 202.702 30Z" fill="#082326"/>
<path d="M166.42 99.54H83.5801C69.5189 99.54 58.1201 110.939 58.1201 125C58.1201 139.061 69.5189 150.46 83.5801 150.46H166.42C180.481 150.46 191.88 139.061 191.88 125C191.88 110.939 180.481 99.54 166.42 99.54Z" fill="url(#paint0_linear_2152_4094)"/>
</g>
<defs>
<linearGradient id="paint0_linear_2152_4094" x1="58.1201" y1="125" x2="191.88" y2="125" gradientUnits="userSpaceOnUse">
<stop stop-color="#8BD5A3"/>
<stop offset="1" stop-color="#06B5E2"/>
</linearGradient>
<clipPath id="clip0_2152_4094">
<rect width="190" height="190" fill="white" transform="translate(30 30)"/>
</clipPath>
</defs>
</svg>
