<svg width="250" height="250" viewBox="0 0 250 250" fill="none" xmlns="http://www.w3.org/2000/svg">
<g clip-path="url(#clip0_2112_5824)">
<path d="M29 125C29 177.8 72.2 221 125 221C177.8 221 221 177.8 221 125C221 72.2 177.8 29 125 29C72.2 29 29 72.2 29 125Z" fill="#F9AF4A"/>
<path d="M172.518 126.92L143.238 140.84L142.758 145.64L165.318 138.92L154.278 152.36L153.318 156.68L139.398 162.44L137.958 166.28L144.198 163.88L127.878 182.12L126.438 197V210.92H123.558V197.48L122.598 182.12L106.278 163.88L112.518 166.28L111.078 162.44L97.1578 156.68L96.1978 152.36L85.1578 138.92L107.718 145.64L107.238 140.84L77.9578 126.92L84.6778 116.36L70.7578 97.64L109.158 114.92L110.118 109.64L99.0778 92.36L100.518 89.48L95.2378 69.32L115.398 89.48L116.838 78.44L110.598 62.12L118.758 64.52L125.958 44.36L133.158 64.52L141.318 62.12L135.078 78.44L136.518 89.48L156.678 69.32L151.398 89.48L152.838 92.36L141.798 109.64L142.758 114.92L181.158 97.64L167.238 116.36L172.518 126.92Z" fill="#444444"/>
</g>
<defs>
<clipPath id="clip0_2112_5824">
<rect width="192" height="192" fill="white" transform="translate(29 29)"/>
</clipPath>
</defs>
</svg>
