<svg width="250" height="250" viewBox="0 0 250 250" fill="none" xmlns="http://www.w3.org/2000/svg">
<g clip-path="url(#clip0_2152_4050)">
<path d="M34.8181 218.422H119.349C122.419 214.503 124.06 209.655 124.003 204.678C124.003 189.323 113.34 180.915 85.6 172.139C52.0993 161.91 34.5922 146.607 31.5049 128.098V218.422H34.3286L34.4114 218.204L34.8181 218.422Z" fill="#E81F63"/>
<path d="M219 31H31.5049V115.506C35.3075 90.0418 61.331 70.1404 102.286 70.1404C123.189 70.1404 141.532 75.2588 153.053 81.1073L143.626 104.509C135.523 100.12 120.592 94.272 101.39 94.272C79.207 94.272 66.8354 105.239 66.8354 118.396C66.8354 133.021 79.2071 139.6 106.089 148.376C141.924 160.073 160.305 175.428 160.305 201.75C160.325 207.448 159.291 213.1 157.255 218.422H219V31Z" fill="#E81F63"/>
<path d="M106.089 148.376C79.2071 139.6 66.8354 133.021 66.8354 118.396C66.8354 105.239 79.207 94.3096 101.39 94.3096C120.592 94.3096 135.523 100.158 143.626 104.546L153.016 81.1449C141.495 75.2587 123.152 70.1404 102.286 70.1404C61.331 70.1404 35.3075 90.0418 31.5049 115.506V128.098C34.5922 146.577 52.0993 161.88 85.6075 172.109C113.34 180.885 124.01 189.293 124.01 204.648C124.072 209.636 122.428 214.496 119.349 218.422H157.255C159.278 213.098 160.299 207.446 160.267 201.75C160.267 175.428 141.924 160.073 106.089 148.376Z" fill="white"/>
</g>
<defs>
<clipPath id="clip0_2152_4050">
<rect width="188" height="188" fill="white" transform="translate(31 31)"/>
</clipPath>
</defs>
</svg>
