<svg width="250" height="250" viewBox="0 0 250 250" fill="none" xmlns="http://www.w3.org/2000/svg">
<path fill-rule="evenodd" clip-rule="evenodd" d="M202.705 170.434C197.305 179.779 188.486 186.677 178.097 189.68C179.582 184.597 180.34 179.33 180.349 174.036C180.349 147.669 162.128 125.555 137.669 119.533C142.739 114.588 149 111.026 155.849 109.191C161.131 107.757 166.647 107.387 172.074 108.104C177.502 108.821 182.731 110.609 187.458 113.364C207.35 124.885 214.189 150.484 202.705 170.434ZM124.338 215.811C113.457 215.811 103.107 211.476 95.4287 204.075C100.557 202.819 105.48 200.84 110.048 198.198C132.808 185.019 142.793 158.148 135.778 133.899C153.195 138.903 165.993 154.984 165.993 174.036C165.993 197.067 147.303 215.811 124.338 215.811ZM45.9658 170.434C40.5266 160.983 39.1186 149.849 41.6609 139.493C45.3087 143.297 49.4738 146.571 54.0344 149.22C62.5093 154.143 72.142 156.737 81.9499 156.735C89.5178 156.729 97.006 155.195 103.963 152.225C110.921 149.255 117.203 144.911 122.432 139.455C126.801 157.075 119.311 176.205 102.871 185.726C96.5693 189.387 89.4066 191.315 82.1137 191.314C74.778 191.317 67.5715 189.387 61.2236 185.721C54.8757 182.054 49.6115 176.781 45.9637 170.434M45.9637 79.679C51.3646 70.3328 60.1845 63.4351 70.5739 60.4325C69.0857 65.5164 68.3262 70.7847 68.3177 76.0808C68.3177 102.433 86.5306 124.541 110.977 130.574C97.9461 143.201 77.6616 146.274 61.2134 136.749C51.575 131.165 44.6843 122.159 41.8039 111.379C40.3728 106.082 40.0035 100.555 40.7173 95.1157C41.4311 89.6761 43.2139 84.4304 45.9637 79.679ZM124.338 34.3017C135.222 34.3017 145.561 38.6321 153.234 46.0271C148.11 47.2937 143.191 49.2758 138.623 51.9146C125.663 59.4213 116.393 71.5333 112.524 86.0297C109.872 95.9333 109.994 106.372 112.876 116.212C95.4681 111.203 82.6799 95.1246 82.6799 76.0808C82.6799 53.0437 101.366 34.3017 124.338 34.3017ZM202.705 79.679C208.151 89.142 209.561 100.288 207.002 110.657C203.363 106.837 199.201 103.549 194.639 100.892C181.678 93.3917 166.584 91.3981 152.129 95.2818C142.234 97.94 133.269 103.275 126.225 110.696C124.497 103.815 124.556 96.6086 126.395 89.7562C129.271 78.978 136.164 69.9679 145.802 64.3864C155.438 58.8091 166.663 57.3264 177.411 60.2133C188.158 63.1022 197.139 70.0154 202.705 79.679ZM215.141 72.4825C207.659 59.4854 195.58 50.1899 181.125 46.3063C177.708 45.3929 174.212 44.803 170.684 44.5444C160.315 29.2538 142.911 19.9025 124.338 19.9025C105.1 19.9025 88.1025 29.6819 78.0121 44.5381C59.6125 45.8947 42.8221 56.3379 33.5321 72.4784C26.0462 85.4734 24.0618 100.615 27.9312 115.111C28.8519 118.535 30.0911 121.865 31.6327 125.058C23.6138 141.712 24.2401 161.502 33.528 177.636C43.1456 194.341 60.0832 204.203 77.954 205.543C88.3223 220.846 105.762 230.214 124.335 230.214C143.571 230.214 160.568 220.433 170.657 205.574C189.056 204.218 205.847 193.779 215.139 177.636C224.758 160.927 224.808 141.275 217.024 125.085C225.053 108.424 224.431 88.625 215.139 72.4825" fill="#0092FF"/>
</svg>
