<svg width="250" height="250" viewBox="0 0 250 250" fill="none" xmlns="http://www.w3.org/2000/svg">
<g clip-path="url(#clip0_2153_3836)">
<path d="M249.873 46.1268V51.4118C244.836 50.6085 239.63 52.4688 235.598 55.6398C231.566 58.8108 228.593 63.0388 226.074 67.457C221.206 75.8073 217.778 84.7601 213.894 93.5649C209.947 102.518 205.312 111.153 201.196 119.99C192.169 139.386 183.355 158.866 174.37 178.283C172.487 182.363 170.593 186.436 168.688 190.502C167.915 192.151 162.54 200.818 163.206 202.224C151.848 179.09 140.42 155.963 128.921 132.843L88.561 203.725C68.3705 163.39 48.1271 122.928 33.1959 80.3841C30.762 73.4396 28.3176 66.1886 23.2382 60.8508C17.3546 54.6674 8.6033 51.898 0.137695 51.0947L0.201187 46.148H68.106V52.3948C61.0901 51.3378 52.9631 55.069 51.1747 61.9078C49.8731 66.7911 51.8837 71.7484 53.852 76.3041C67.9613 108.979 82.9384 141.246 98.7832 173.104L122.582 130.359C123.342 129.164 123.883 127.843 124.18 126.459C124.54 124.091 123.45 121.776 122.402 119.63L100.826 75.6488C98.2541 70.3638 95.6403 65.0788 91.7356 60.7874C86.6985 55.1641 80.4763 53.1559 73.1536 52.7119V46.1268H134.318V51.137C129.873 51.137 126.984 51.4752 124.127 52.9233C121.947 53.9803 118.413 55.8195 117.333 59.7092C116.191 63.7787 118.497 67.4147 119.027 68.1652C124.67 79.4821 130.335 90.7955 136.021 102.105C136.275 102.634 136.529 103.162 136.804 103.68C140.244 97.2432 143.45 90.7004 147.027 84.3479C150.826 77.5936 156.614 69.4865 154.709 61.3793C154.423 60.1637 153.524 55.5552 149.609 52.9233C148.878 52.4265 147.196 51.4118 139.418 51.2215H137.714V46.1268H193.799V52.5322L185.333 52.9233C177.778 53.2404 171.736 58.536 167.81 64.5503C157.979 79.6759 149.82 96.2602 140.836 111.904C150.572 131.832 160.307 151.763 170.042 171.698C169.291 170.155 174.572 161.022 175.333 159.204C177.189 154.843 179.037 150.481 180.878 146.119L191.99 119.948C196.759 108.673 201.52 97.3983 206.275 86.1236C209.704 77.9847 218.646 65.0576 211.566 56.7285C209.784 54.77 207.504 53.3301 204.968 52.5615C202.432 51.7929 199.736 51.7244 197.164 52.3631V46.0211L249.873 46.1268Z" fill="#121214" stroke="#221F1F" stroke-width="0.25"/>
</g>
<defs>
<clipPath id="clip0_2153_3836">
<rect width="250" height="158" fill="white" transform="translate(0 46)"/>
</clipPath>
</defs>
</svg>
