<svg width="250" height="250" viewBox="0 0 250 250" fill="none" xmlns="http://www.w3.org/2000/svg">
<circle cx="125" cy="125" r="100" fill="#10285E"/>
<path d="M55.5918 125.655C55.5918 109.489 58.7598 92.7453 67.6878 79.1774C76.3278 65.8981 90.1518 57.2377 105.128 52.9075C123.272 47.7113 143.432 48.2887 162.152 51.7528C166.184 52.6189 170.216 53.4849 173.96 54.6396C174.536 54.9283 177.128 55.5057 177.416 56.083V56.949C178.28 60.4132 177.704 64.7434 177.704 68.2075C177.992 77.1566 177.992 86.3943 178.28 95.3434C177.128 95.3434 175.112 95.6321 174.248 95.3434C173.672 95.0547 173.096 93.6113 172.808 93.034C170.504 89.5698 168.2 86.1057 166.184 82.3528C161.288 74.5585 156.104 66.7641 151.208 58.9698C148.616 54.6396 141.416 54.6396 136.808 54.6396C131.624 54.6396 126.44 55.5057 122.12 58.1038C112.328 64.166 107.72 76.0019 105.128 86.683C101.096 103.715 101.384 121.613 102.248 138.934C103.112 152.213 104.264 166.358 109.448 178.483C112.616 185.989 118.088 192.628 126.44 194.36C129.032 194.938 131.624 194.938 134.504 194.649C136.232 194.36 142.28 194.072 143.144 192.34C143.432 191.762 143.144 190.319 143.144 189.742V184.834V154.234V142.398C143.144 140.377 143.72 139.511 141.992 138.357C139.976 137.202 137.672 136.047 135.656 134.604C134.216 133.738 131.336 132.872 130.472 131.717C129.896 131.14 129.608 127.964 130.184 127.387C130.472 126.809 130.472 127.098 131.336 127.098C133.928 126.521 137.384 127.098 139.976 127.098H184.616C187.496 127.098 190.664 126.809 193.544 127.098H194.696C194.984 127.387 194.984 131.428 194.696 132.006C194.12 132.872 191.24 134.026 190.088 134.604C188.072 135.758 185.768 136.913 183.752 138.357C181.448 139.511 181.736 139.511 181.736 142.109V189.164C181.736 189.742 182.024 191.185 181.736 191.762C181.16 193.206 175.112 194.072 173.384 194.649C168.488 196.092 163.304 197.247 158.12 198.113C148.04 199.845 137.96 200.423 127.88 200.134C111.752 199.557 94.7598 196.092 81.5118 186.277C69.9918 177.906 62.5038 165.204 59.0478 151.347C56.4558 143.264 55.5918 134.315 55.5918 125.655Z" fill="white"/>
</svg>
