<svg width="250" height="250" viewBox="0 0 250 250" fill="none" xmlns="http://www.w3.org/2000/svg">
<g clip-path="url(#clip0_1789_6949)">
<path d="M126.373 57.4287C107.463 60.8538 95.6033 74.5544 95.5374 92.8657C95.5374 98.1352 96.921 105.644 98.9635 111.77C101.928 120.399 111.153 136.668 117.478 144.177L119.718 146.943L122.024 144.506C125.516 140.818 128.218 137.063 129.799 133.836L131.249 130.872L128.613 126.92C124.792 121.123 122.881 117.5 120.838 112.033C119.257 107.884 118.993 106.105 118.993 100.243C118.928 94.3148 119.125 92.9316 120.377 90.6262C126.043 80.0214 140.275 79.6921 145.546 90.0334C147.984 94.6441 148.248 102.087 146.337 109.201C140.868 129.291 121.827 152.937 103.707 162.027C87.7626 170.063 70.4341 166.901 57.586 153.464C43.0248 138.381 33.8663 108.938 30.572 66.4526L30.1107 60.7221H15.0883H0V65.7939C0.0658878 87.0035 5.4028 114.009 13.6388 134.165C24.4444 160.776 38.6103 178.428 55.6752 186.925C64.043 191.009 68.5892 192.063 78.0771 191.997C87.1037 191.931 93.7584 190.35 103.18 185.937C116.753 179.548 133.423 165.913 144.294 152.279C152.267 142.267 161.557 126.261 166.037 115.129C173.614 96.0274 171.77 79.1652 160.898 68.1652C156.352 63.5544 152.728 61.3149 146.073 59.0754C140.539 57.2311 131.512 56.4407 126.373 57.4287Z" fill="black"/>
<path d="M228.039 101.56C227.578 104.458 226.392 110.321 225.338 114.536C215.784 153.662 191.801 172.039 165.577 160.446C160.965 158.404 160.636 158.47 159.252 160.842C158.593 161.895 155.76 164.925 152.861 167.56C149.369 170.788 147.853 172.566 148.249 173.027C149.435 174.41 160.438 179.285 165.709 180.668C173.813 182.907 186.068 182.71 193.909 180.404C218.749 172.83 238.449 149.512 246.685 118.027C248.596 110.65 250.573 98.1351 249.848 97.5423C249.584 97.2788 244.774 96.9495 239.108 96.686L228.764 96.2908L228.039 101.56Z" fill="black"/>
</g>
<defs>
<clipPath id="clip0_1789_6949">
<rect width="250" height="135" fill="white" transform="translate(0 57)"/>
</clipPath>
</defs>
</svg>
