<svg width="250" height="250" viewBox="0 0 250 250" fill="none" xmlns="http://www.w3.org/2000/svg">
<path fill-rule="evenodd" clip-rule="evenodd" d="M104.781 55.4453C111.044 52.3212 117.954 50.6973 124.957 50.6973C131.966 50.6973 138.873 52.3212 145.138 55.4453L220.569 93.0294V71.9286L144.882 34.2173C138.618 31.0949 131.709 29.4694 124.705 29.4694C117.7 29.4694 110.793 31.0949 104.523 34.2173L28.8398 71.9286V93.1549L29.0933 93.2837V93.1549L104.781 55.4453Z" fill="#12AE3A"/>
<path fill-rule="evenodd" clip-rule="evenodd" d="M124.959 93.1556C131.966 93.1556 138.872 94.7828 145.137 97.9019L178.089 114.32L199.395 103.708L145.137 76.6723C138.872 73.5532 131.966 71.9276 124.959 71.9276C117.955 71.9276 111.044 73.5532 104.783 76.6723L50.2695 103.834L71.5751 114.447L104.783 97.9019C111.044 94.7828 117.955 93.1556 124.959 93.1556Z" fill="#12AE3A"/>
<path fill-rule="evenodd" clip-rule="evenodd" d="M124.958 114.386C117.954 114.386 111.043 116.013 104.778 119.132L92.8759 125.064C92.8747 125.064 92.8747 125.064 92.8759 125.064L104.523 130.869C110.79 133.988 117.697 135.614 124.702 135.614C131.708 135.614 138.617 133.988 144.88 130.869L156.786 124.937L145.135 119.13C138.87 116.013 131.964 114.386 124.958 114.386Z" fill="#12AE3A"/>
<path fill-rule="evenodd" clip-rule="evenodd" d="M145.138 152.097C138.873 155.219 131.965 156.845 124.96 156.845C117.953 156.845 111.044 155.219 104.781 152.097L71.7006 135.613L50.3984 146.226L104.781 173.326C111.044 176.447 117.953 178.071 124.96 178.071C131.965 178.071 138.873 176.447 145.138 173.326L199.52 146.226L178.218 135.613L145.138 152.097Z" fill="#12AE3A"/>
<path fill-rule="evenodd" clip-rule="evenodd" d="M71.5717 114.448L28.8398 93.1562V71.9249L71.5717 93.2231V114.448Z" fill="#12AE3A"/>
<path fill-rule="evenodd" clip-rule="evenodd" d="M220.763 178.104L178.031 156.812V135.581L220.763 156.879V178.104Z" fill="#12AE3A"/>
<path fill-rule="evenodd" clip-rule="evenodd" d="M145.139 194.555C138.874 197.678 131.966 199.302 124.961 199.302C117.954 199.302 111.045 197.678 104.782 194.555L29.0938 156.846V178.072L104.782 215.783C111.045 218.904 117.954 220.53 124.961 220.53C131.966 220.53 138.874 218.904 145.139 215.783L220.825 178.072V156.846L145.139 194.555Z" fill="#12AE3A"/>
</svg>
