<svg width="250" height="250" viewBox="0 0 250 250" fill="none" xmlns="http://www.w3.org/2000/svg">
<path d="M124.583 211.026C155.077 211.026 179.797 186.67 179.797 156.627C179.797 126.582 155.077 102.228 124.583 102.228C94.0892 102.228 69.3691 126.582 69.3691 156.627C69.3691 186.67 94.0892 211.026 124.583 211.026Z" fill="url(#paint0_linear_2155_4108)"/>
<path d="M8.47693 93.8345L38.1347 128.339C40.3433 131.137 44.4448 131.448 46.9689 128.961C94.9261 86.6849 154.242 86.6849 202.199 128.961C204.722 131.137 208.824 130.826 211.033 128.339L240.691 93.8345C242.899 91.3477 242.584 87.3066 240.059 85.1307C170.647 25.1363 78.5197 25.1363 9.10795 85.1307C6.58388 87.3066 6.26838 91.3477 8.47693 93.8345Z" fill="#2684FF"/>
<defs>
<linearGradient id="paint0_linear_2155_4108" x1="124.607" y1="192.275" x2="124.607" y2="96.0601" gradientUnits="userSpaceOnUse">
<stop stop-color="#2684FF"/>
<stop offset="0.824" stop-color="#0052CC"/>
</linearGradient>
</defs>
</svg>
