<svg width="250" height="250" viewBox="0 0 250 250" fill="none" xmlns="http://www.w3.org/2000/svg">
<g clip-path="url(#clip0_2152_4124)">
<path d="M226.944 99.9814C226.594 98.3606 226.222 96.7488 225.83 95.1458C224.25 88.7246 220.776 82.9299 215.861 78.5179C210.946 74.106 204.818 71.2817 198.277 70.4138L191.875 69.6183C179.624 68.1435 166.909 67.0262 153.819 66.3111L204.278 36.6899C205.404 36.0305 206.383 35.1459 207.153 34.0911C207.923 33.0364 208.469 31.834 208.756 30.5588C209.043 29.2837 209.065 27.963 208.821 26.6789C208.577 25.3948 208.071 24.1748 207.337 23.0948C205.978 21.0992 203.915 19.6943 201.563 19.1635C199.212 18.6327 196.747 19.0155 194.666 20.2346L124.349 61.5381L52.2046 19.2693C50.107 18.0419 47.6136 17.6858 45.2575 18.2771C42.9015 18.8683 40.8696 20.3601 39.5964 22.4334C38.9457 23.4916 38.5127 24.6695 38.3229 25.8978C38.133 27.1262 38.1902 28.3802 38.4909 29.5862C38.7917 30.7921 39.33 31.9255 40.0742 32.9198C40.8183 33.9141 41.7533 34.7492 42.8242 35.3759L94.8262 65.8463C82.5093 66.2873 70.5164 67.1036 58.8475 68.2954L52.8466 68.9032C46.1468 69.6574 39.8383 72.4509 34.7704 76.9079C29.7025 81.3649 26.1183 87.2712 24.5005 93.8319C24.2597 94.7883 24.019 95.7358 23.7961 96.6921C15.7604 131.334 16.066 167.395 24.6877 201.895C25.0266 203.227 25.3743 204.576 25.7488 205.864C27.5219 212.19 31.1501 217.837 36.1631 222.071C41.1761 226.306 47.3426 228.933 53.8631 229.612C56.2408 229.863 58.6186 230.101 60.9964 230.327C79.552 232.115 99.026 233.009 119.088 233.009C142.68 233.042 166.253 231.708 189.691 229.014C192.169 228.736 194.622 228.424 197.074 228.12C203.572 227.272 209.672 224.504 214.595 220.168C219.518 215.831 223.041 210.124 224.715 203.772C225.17 202.083 225.607 200.384 225.999 198.659C229.971 181.879 231.958 164.689 231.92 147.443C231.978 131.489 230.31 115.575 226.944 99.9814ZM205.919 188.175C204.735 193.097 202.11 197.552 198.381 200.967C194.651 204.382 189.989 206.601 184.992 207.338C163.19 210.524 141.183 212.095 119.151 212.04C101.699 212.06 84.2597 211.091 66.9171 209.135C61.5714 208.526 56.5403 206.29 52.5006 202.728C48.461 199.166 45.6068 194.449 44.3222 189.212C37.8791 162.246 37.7601 134.151 43.9745 107.132C45.062 102.552 47.5267 98.4169 51.0352 95.2868C54.5437 92.1567 58.9267 90.1824 63.5911 89.631C68.7093 89.0053 73.9345 88.4511 79.2577 88.0131C92.062 86.8959 105.428 86.3238 119.151 86.3238H119.775C123.199 86.3238 126.602 86.3655 129.985 86.4489C144.421 86.7707 158.402 87.7271 171.661 89.2555C177.163 89.8991 182.557 90.632 187.809 91.4544C192.296 92.1444 196.472 94.1727 199.792 97.275C203.113 100.377 205.425 104.41 206.427 108.848C209.225 121.515 210.624 134.452 210.6 147.425C210.627 161.145 209.056 174.821 205.919 188.175Z" fill="#010101"/>
<path d="M80.5592 170.879C95.0915 170.879 106.872 159.07 106.872 144.503C106.872 129.935 95.0915 118.126 80.5592 118.126C66.0269 118.126 54.2461 129.935 54.2461 144.503C54.2461 159.07 66.0269 170.879 80.5592 170.879Z" fill="#3F918B"/>
<path d="M169.441 172.05C183.973 172.05 195.754 160.241 195.754 145.674C195.754 131.106 183.973 119.297 169.441 119.297C154.909 119.297 143.128 131.106 143.128 145.674C143.128 160.241 154.909 172.05 169.441 172.05Z" fill="#3F918B"/>
</g>
<defs>
<clipPath id="clip0_2152_4124">
<rect width="214" height="215" fill="white" transform="translate(18 18)"/>
</clipPath>
</defs>
</svg>
