<svg width="250" height="250" viewBox="0 0 250 250" fill="none" xmlns="http://www.w3.org/2000/svg">
<g clip-path="url(#clip0_1789_6973)">
<path d="M200.745 218.706C200.743 221.885 199.49 224.933 197.262 227.181C195.034 229.429 192.013 230.693 188.862 230.695H62.0719C58.9212 230.695 55.8992 229.434 53.6695 227.188C51.4399 224.942 50.1847 221.895 50.1797 218.716V31.4846C50.1784 29.9086 50.4852 28.3478 51.0824 26.8916C51.6796 25.4354 52.5555 24.1122 53.6601 22.9978C54.7646 21.8834 56.0761 20.9997 57.5195 20.3972C58.9629 19.7947 60.5099 19.4852 62.0719 19.4865H143.443L200.745 78.4453V218.706Z" fill="#615EFF"/>
<path d="M83.8678 156.832C83.7262 155.403 83.1189 154.293 82.0457 153.502C80.9725 152.71 79.5161 152.315 77.6763 152.315C76.4262 152.315 75.3708 152.492 74.5099 152.846C73.649 153.189 72.9885 153.667 72.5286 154.281C72.0805 154.895 71.8564 155.592 71.8564 156.371C71.8328 157.021 71.9684 157.588 72.2633 158.072C72.5699 158.556 72.9885 158.975 73.5192 159.33C74.0499 159.672 74.6632 159.973 75.359 160.233C76.0548 160.481 76.7977 160.694 77.5879 160.871L80.8428 161.65C82.4231 162.004 83.8736 162.477 85.1945 163.067C86.5153 163.658 87.6593 164.384 88.6263 165.246C89.5933 166.108 90.3422 167.124 90.8729 168.293C91.4154 169.462 91.6925 170.802 91.7043 172.314C91.6925 174.534 91.1265 176.459 90.0061 178.089C88.8975 179.706 87.2937 180.964 85.1945 181.862C83.1071 182.747 80.5892 183.19 77.6409 183.19C74.7162 183.19 72.1689 182.741 69.999 181.844C67.8408 180.946 66.1544 179.618 64.9397 177.858C63.7368 176.087 63.1058 173.896 63.0469 171.286H70.4589C70.5414 172.503 70.8893 173.518 71.5026 174.333C72.1276 175.136 72.9591 175.744 73.9969 176.158C75.0464 176.559 76.2317 176.76 77.5525 176.76C78.8497 176.76 79.976 176.571 80.9312 176.193C81.8983 175.815 82.6472 175.29 83.1779 174.617C83.7085 173.944 83.9739 173.17 83.9739 172.296C83.9739 171.481 83.7321 170.796 83.2486 170.241C82.7769 169.686 82.0811 169.214 81.1612 168.824C80.2531 168.434 79.1387 168.08 77.8178 167.761L73.873 166.769C70.8186 166.025 68.4069 164.862 66.6379 163.28C64.8689 161.697 63.9903 159.566 64.0021 156.885C63.9903 154.689 64.5741 152.769 65.7534 151.128C66.9445 149.487 68.5779 148.205 70.6535 147.284C72.7291 146.363 75.0877 145.902 77.7294 145.902C80.4182 145.902 82.7651 146.363 84.7699 147.284C86.7866 148.205 88.3551 149.487 89.4754 151.128C90.5958 152.769 91.1736 154.671 91.209 156.832H83.8678Z" fill="white"/>
<path d="M96.8565 182.676V146.398H120.844V152.722H104.516V161.367H119.252V167.691H104.516V182.676H96.8565Z" fill="white"/>
<path d="M124.616 152.722V146.398H154.37V152.722H143.279V182.676H135.708V152.722H124.616Z" fill="white"/>
<path d="M159.27 182.676V146.398H173.564C176.312 146.398 178.653 146.924 180.587 147.975C182.521 149.014 183.995 150.461 185.009 152.315C186.035 154.157 186.548 156.283 186.548 158.692C186.548 161.101 186.029 163.227 184.991 165.069C183.954 166.911 182.45 168.346 180.48 169.373C178.523 170.401 176.152 170.914 173.369 170.914H164.259V164.768H172.131C173.605 164.768 174.82 164.514 175.775 164.006C176.742 163.486 177.461 162.772 177.933 161.863C178.417 160.942 178.658 159.885 178.658 158.692C178.658 157.487 178.417 156.436 177.933 155.539C177.461 154.629 176.742 153.927 175.775 153.431C174.808 152.923 173.581 152.669 172.096 152.669H166.93V182.676H159.27Z" fill="white"/>
<path opacity="0.3" d="M149.75 76.9073L200.746 126.084V78.1013H155.573C153.601 78.1238 151.657 77.6302 149.93 76.6685L149.75 76.9073Z" fill="#1A194D"/>
<path d="M200.746 78.3497H155.449C152.298 78.3472 149.277 77.0833 147.05 74.8355C144.822 72.5878 143.569 69.54 143.566 66.3612V19.1616L200.746 78.3497Z" fill="#C5C4FF"/>
</g>
<defs>
<clipPath id="clip0_1789_6973">
<rect width="151" height="212" fill="white" transform="translate(50 19)"/>
</clipPath>
</defs>
</svg>
