<svg width="250" height="250" viewBox="0 0 250 250" fill="none" xmlns="http://www.w3.org/2000/svg">
<g clip-path="url(#clip0_2158_4160)">
<path d="M250 154.889L228.07 176.545L201.898 150.699C200.218 149.04 197.496 149.04 195.736 150.699L176.287 169.906V138.448L179.808 134.971C181.489 133.311 181.489 130.623 179.808 128.885L129.945 79.6428C122.182 71.976 112.097 72.8454 105.214 79.6428L80.8828 103.671V72.2131L95.3695 57.9069C116.259 37.2776 136.188 42.4151 149.074 55.1405L201.818 107.228C203.499 108.888 206.3 108.888 207.981 107.228L224.709 90.7084L240.636 106.437L223.908 122.957C222.228 124.616 222.228 127.383 223.908 129.043L250 154.889Z" fill="#F8971D"/>
<path d="M0 95.1115L21.9301 73.4546L48.1021 99.3006C49.7829 100.96 52.5041 100.96 54.2649 99.3006L73.7138 80.0939V111.552L70.1922 115.029C68.5115 116.689 68.5115 119.377 70.1922 121.116L120.055 170.357C127.819 178.024 137.903 177.155 144.786 170.357L169.118 146.329V177.787L154.631 192.093C133.741 212.722 113.812 207.585 100.926 194.86L48.1821 142.772C46.5014 141.113 43.7001 141.113 42.0193 142.772L25.4517 159.292L9.52437 143.563L26.2521 127.043C27.9328 125.384 27.9328 122.617 26.2521 120.957L0 95.1115Z" fill="#5F6062"/>
</g>
<defs>
<clipPath id="clip0_2158_4160">
<rect width="250" height="162" fill="white" transform="translate(0 44)"/>
</clipPath>
</defs>
</svg>
