<svg width="250" height="250" viewBox="0 0 250 250" fill="none" xmlns="http://www.w3.org/2000/svg">
<g clip-path="url(#clip0_2112_5443)">
<path d="M23.95 148.949C19.2 148.949 14.75 148.294 10.6375 146.996C6.5375 145.699 3 143.759 0 141.163L8.3375 131.339C10.875 133.267 13.55 134.676 16.3375 135.491C19.15 136.356 21.925 136.764 24.6875 136.764C26.1125 136.764 27.125 136.579 27.75 136.233C28.375 135.862 28.6875 135.393 28.6875 134.787V134.664C28.6875 133.984 28.225 133.428 27.3125 132.995C26.4125 132.563 24.6875 132.093 22.2125 131.611C19.5875 131.092 17.0875 130.462 14.7125 129.758C12.3375 129.066 10.2375 128.151 8.4375 127.064C6.6375 125.952 5.1875 124.592 4.1375 122.912C3.075 121.231 2.55 119.204 2.55 116.77V116.646C2.55 114.422 2.975 112.395 3.85 110.505C4.725 108.614 5.975 106.958 7.65 105.562C9.325 104.153 11.4 103.053 13.875 102.25C16.3375 101.471 19.175 101.076 22.375 101.076C26.9125 101.076 30.875 101.595 34.2875 102.658C37.7 103.708 40.75 105.29 43.475 107.403L35.85 117.82C33.7108 116.285 31.3283 115.111 28.8 114.348C26.325 113.606 24.0125 113.236 21.825 113.236C20.675 113.236 19.825 113.433 19.2625 113.779C18.7 114.15 18.425 114.595 18.425 115.164V115.287C18.425 115.905 18.85 116.449 19.7 116.894C20.5375 117.326 22.2 117.783 24.625 118.253C27.6 118.797 30.3125 119.439 32.75 120.181C35.2 120.922 37.3125 121.886 39.0625 123.048C40.8125 124.221 42.1875 125.606 43.1375 127.249C44.1 128.856 44.5875 130.833 44.5875 133.181V133.304C44.5875 135.726 44.0875 137.914 43.1125 139.854C42.1375 141.781 40.7375 143.413 38.9875 144.76C37.2 146.119 35.0375 147.132 32.4875 147.849C29.9875 148.59 27.1125 148.961 23.9625 148.961L23.95 148.949Z" fill="#FC4C02"/>
<path d="M57.4375 114.966H43.6875V101.916H86.8125V114.966H73.0625V148.084H57.4375V114.966ZM111.375 123.888C113.225 123.888 114.7 123.48 115.75 122.689C116.825 121.898 117.375 120.798 117.375 119.39V119.266C117.375 117.783 116.825 116.671 115.75 115.93C114.7 115.213 113.25 114.842 111.425 114.842H104.625V123.888H111.375ZM89 101.916H111.825C116.012 101.916 119.45 102.411 122.137 103.337C124.838 104.264 127.013 105.562 128.638 107.168C130.075 108.589 131.137 110.171 131.862 111.926C132.562 113.693 132.925 115.757 132.925 118.129V118.253C132.925 121.651 132.1 124.506 130.45 126.829C128.825 129.177 126.575 131.03 123.7 132.39L134.575 148.084H116.775L107.975 134.898H104.625V148.084H89V101.916Z" fill="#FC4C02"/>
<path d="M154.902 128.225L165.077 148.084H180.039L154.914 99.0247L129.789 148.084H144.727L154.902 128.225ZM189.877 121.762L179.714 101.916H164.752L189.877 150.975L215.002 101.916H200.064L189.877 121.762ZM224.877 128.225L235.039 148.084H250.002L224.877 99.0247L199.727 148.084H214.689L224.864 128.225H224.877Z" fill="#FC4C02"/>
</g>
<defs>
<clipPath id="clip0_2112_5443">
<rect width="250" height="52" fill="white" transform="translate(0 99)"/>
</clipPath>
</defs>
</svg>
