<svg width="250" height="250" viewBox="0 0 250 250" fill="none" xmlns="http://www.w3.org/2000/svg">
<g clip-path="url(#clip0_2152_4156)">
<path d="M204.286 152.051C203.13 150.895 181.087 132.329 181.087 132.329L180.439 128.423C188.87 127.876 196.168 126.86 196.168 125.391C196.168 113.795 195.011 93.7373 195.011 90.5883C195.011 69.4443 180.462 52.3009 162.529 52.3009C143.651 52.3009 130.438 73.398 130.048 90.5883C129.696 106.028 131.032 125.172 132.392 126.532C134.189 128.383 140.651 128.766 147.957 128.829L126.586 152.051L104.544 116.108C104.544 116.108 95.2686 118.452 92.9479 117.264C91.7837 116.686 91.7837 114.084 92.0728 111.639C101.444 110.232 109.922 105.294 115.77 97.8383C121.618 90.3824 124.394 80.9723 123.528 71.536C122.663 62.0997 118.222 53.3516 111.115 47.084C104.007 40.8164 94.7726 37.5039 85.3022 37.8251C75.8317 38.1462 66.8425 42.0768 60.1764 48.8115C53.5103 55.5462 49.6719 64.5751 49.4476 74.0484C49.2234 83.5216 52.6302 92.7221 58.9702 99.7646C65.3102 106.807 74.1033 111.159 83.548 111.928L82.5243 116.092L70.9209 118.437L47.6828 150.895C47.6828 150.895 45.3386 162.491 46.5185 162.491H59.2784L81.321 127.688C81.321 127.688 83.6652 149.731 82.4853 150.895C81.3054 152.059 70.8818 140.448 53.4806 210.053H70.8818L88.2831 162.491L104.52 208.889H125.406C125.406 208.889 111.482 152.044 92.9245 150.887V127.68L117.288 161.326L134.689 162.483L154.411 139.291L155.575 155.529C155.575 155.529 134.697 183.377 134.697 210.053H150.934C150.934 210.053 150.934 183.377 162.537 169.421C162.537 169.421 177.618 184.502 178.774 211.186L193.855 210.022C193.855 210.022 182.259 162.459 170.656 156.662L169.499 140.417L196.176 162.459L204.294 163.624C204.294 163.624 205.451 153.216 204.286 152.051ZM87.0798 99.8476C73.015 99.8476 61.56 90.2445 61.56 78.3832C61.56 66.5219 73.0306 56.9266 87.1188 56.9266C101.207 56.9266 112.646 66.5297 112.646 78.3988C112.646 90.2679 101.215 99.8476 87.1188 99.8476H87.0798ZM143.925 106.81C141.049 102.614 141.151 95.8704 143.925 91.7291C144.448 90.9477 146.597 89.2756 150.887 85.9235C156.255 81.7353 157.404 81.1805 159.005 78.9692C161.271 75.8437 160.615 74.7107 162.49 73.1636C166.335 69.9912 172.586 71.8978 172.93 72.0072C179.462 74.0934 183.65 81.3837 184.08 87.9707C184.861 99.9804 172.906 107.294 171.765 107.966C163.116 113.108 149.051 114.217 143.964 106.81H143.925Z" fill="black" stroke="black" stroke-miterlimit="10"/>
<path d="M220.046 29.9535H30.9531V219.047H220.046V29.9535Z" stroke="black" stroke-width="5" stroke-miterlimit="10"/>
</g>
<defs>
<clipPath id="clip0_2152_4156">
<rect width="193" height="193" fill="white" transform="translate(29 28)"/>
</clipPath>
</defs>
</svg>
