<svg width="250" height="250" viewBox="0 0 250 250" fill="none" xmlns="http://www.w3.org/2000/svg">
<g clip-path="url(#clip0_2112_5883)">
<path d="M219.977 124.565C220.4 176.83 178.335 219.574 126.124 219.997C73.9137 220.42 31.215 178.311 30.7922 126.046C30.3695 73.7803 72.434 30.8253 124.645 30.6137C176.856 30.1904 219.554 72.0875 219.977 124.565Z" fill="#312A65"/>
<path d="M137.332 30.1904H137.543H137.332ZM135.429 29.7672H135.852H135.641H135.429ZM135.218 29.9788H134.584H135.218ZM191.234 56.6406L191.022 56.429C189.543 54.9478 188.063 53.6782 186.795 52.6201L186.161 52.1969C187.852 53.4666 189.543 54.9478 191.022 56.429L191.445 56.8522C191.445 56.6406 191.445 56.6406 191.234 56.6406ZM215.331 92.8244C215.331 92.8244 215.331 93.036 215.331 92.8244V92.8244ZM214.485 90.92C214.697 91.5548 215.12 92.1896 215.331 92.8244V92.6128C215.331 92.4012 215.331 92.4012 215.12 92.1896V91.978C214.908 91.7664 214.697 91.3432 214.485 90.92ZM209.201 79.9167C208.144 78.0123 207.087 76.3195 206.03 74.6267C207.087 76.1079 207.933 77.5891 208.778 79.2819C208.99 79.4935 209.201 79.7051 209.201 79.9167ZM191.234 56.6406L191.868 57.2754L191.234 56.6406C191.445 56.6406 191.445 56.6406 191.234 56.6406ZM202.86 179.369L202.437 179.793C203.705 178.1 204.973 176.407 206.03 174.503C205.396 175.349 204.339 177.042 202.86 179.369ZM210.046 167.731C211.315 165.615 212.16 163.499 213.217 161.383V161.595C212.16 163.711 211.103 165.827 210.046 167.731ZM216.176 152.919C216.176 153.131 216.176 153.131 216.176 152.919C216.811 151.015 217.445 148.899 217.868 146.994C217.445 149.11 216.811 151.015 216.176 152.919ZM219.77 110.387C219.981 111.869 220.193 113.35 220.404 114.831C220.193 113.35 219.981 111.869 219.77 110.387ZM114.08 58.1218C114.08 57.9102 114.08 57.9102 114.08 57.6986C114.08 57.487 114.08 57.2754 114.08 56.8522H113.235L112.389 57.2754L112.6 58.3334H113.657L114.08 58.1218ZM111.121 56.6406V56.2174C110.909 56.2174 110.909 56.429 110.698 56.429C110.487 56.429 110.698 56.429 110.275 56.429C110.064 56.429 109.641 56.6406 109.43 56.8522C109.218 56.8522 109.218 57.0638 109.007 57.0638C109.218 57.0638 109.218 57.2754 109.43 57.487C109.641 57.487 109.641 57.487 109.852 57.487C110.064 57.487 110.275 57.2754 110.487 57.0638C110.909 56.8522 110.909 56.8522 111.121 56.6406ZM117.462 40.7705L118.308 40.5589L117.674 39.9241H116.405H115.56V40.5589V40.9821H116.828L117.462 40.7705ZM133.95 29.7672L132.893 29.5556H132.681H132.893L134.373 29.7672L135.429 29.9788H135.852H136.486H136.909H137.332H137.543L135.641 29.7672H135.852H135.218H134.584H133.95ZM136.698 29.9788H136.064L135.218 29.7672H135.007C135.429 29.7672 135.852 29.7672 136.064 29.9788H136.698H136.275L137.12 30.1904L136.698 29.9788C137.12 30.1904 137.543 30.1904 137.755 30.1904C137.543 30.1904 137.12 30.1904 136.909 29.9788C137.12 29.9788 137.543 29.9788 137.755 30.1904H138.389H139.023H139.446C139.234 30.1904 138.6 29.9788 137.966 29.9788H137.755H137.543H136.698ZM140.291 31.0368C140.08 31.0368 139.657 31.0368 139.446 30.8252H139.657L138.389 30.6136C138.811 30.6136 139.234 30.8252 139.657 30.8252H139.446L138.811 30.6136H138.6H138.177H138.6H138.389L140.291 31.0368C139.657 31.0368 139.234 31.0368 138.811 30.8252C138.6 30.8252 138.6 30.8252 138.389 30.8252C138.811 30.8252 139.657 31.0368 139.868 31.0368H140.291H140.08C140.291 31.0368 140.503 31.0368 140.714 31.2484L141.348 31.46C141.559 31.46 141.771 31.46 141.982 31.46C142.194 31.46 142.405 31.6716 142.616 31.46C142.405 31.2484 142.194 31.46 141.771 31.2484C141.982 31.2484 141.982 31.2484 142.194 31.2484C142.194 31.46 142.194 31.46 140.291 31.0368ZM148.324 32.9412H148.112C147.901 32.9412 147.689 32.7296 147.478 32.7296L146.421 32.518C145.787 32.3064 144.941 32.0948 144.307 32.0948C144.307 32.0948 143.25 31.8832 143.039 31.8832H143.25C143.039 31.8832 143.039 31.8832 142.828 31.8832L141.982 31.6716C141.348 31.8832 140.714 31.46 139.868 31.2484C140.291 31.2484 140.503 31.46 140.925 31.46H141.348C142.616 31.6716 142.616 31.6716 143.039 31.8832C142.828 31.8832 142.405 31.8832 142.194 31.6716H141.982H141.559H141.137L140.503 31.46C140.925 31.46 141.137 31.6716 141.559 31.6716H140.925C140.714 31.6716 140.291 31.46 140.08 31.46L140.714 31.6716C142.194 32.0948 143.462 32.3064 144.941 32.7296C144.519 32.7296 143.885 32.518 143.462 32.3064C143.673 32.3064 145.364 32.7296 145.576 32.7296C145.153 32.518 144.941 32.518 144.519 32.518C144.941 32.518 145.364 32.7296 145.787 32.7296C145.576 32.7296 144.73 32.518 144.519 32.3064L144.096 32.0948C144.519 32.0948 144.519 32.0948 145.364 32.3064L144.73 32.0948H144.941C145.153 32.0948 145.576 32.3064 145.787 32.3064H145.998H145.787H145.998C145.998 32.3064 145.998 32.3064 146.633 32.518L147.267 32.7296H147.055H147.267C147.267 32.7296 147.267 32.7296 146.633 32.518C146.844 32.518 147.901 32.9412 147.901 32.9412H147.689C148.746 33.3644 150.015 33.576 151.071 33.7876L148.324 32.9412C147.689 32.7296 147.267 32.518 146.844 32.518C146.21 32.3064 145.576 32.0948 144.941 31.8832C147.055 32.518 147.055 32.518 148.958 32.9412C148.746 32.9412 148.324 32.7296 148.112 32.7296C148.535 32.7296 148.958 32.9412 149.38 32.9412H148.324ZM191.445 57.487L191.234 57.2754L191.022 57.0638C191.022 57.0638 191.022 57.2754 191.445 57.487ZM169.039 40.9821C168.616 40.7705 168.193 40.5589 167.771 40.3473H167.982L169.039 40.9821ZM176.86 45.2141L171.364 42.0401C171.153 42.0401 170.941 41.8285 170.941 41.8285L171.575 42.2517L170.73 41.8285H170.518L169.673 41.4053L170.096 41.6169C169.884 41.6169 169.673 41.4053 169.673 41.4053L169.25 41.1937L168.616 40.7705C168.193 40.5589 167.771 40.3473 167.559 40.3473L168.405 40.7705C168.405 40.7705 168.193 40.5589 167.982 40.5589L167.559 40.3473L167.136 40.1356C167.771 40.5588 167.771 40.5589 168.405 40.7705L168.616 40.9821L168.827 41.1937C168.193 40.7704 167.982 40.7705 167.559 40.5589L166.925 40.1356C167.348 40.3472 168.405 40.9821 168.405 40.9821C168.193 40.9821 167.982 40.7705 167.559 40.5589H167.348C167.771 40.9821 168.405 41.1937 168.827 41.4053C169.039 41.6169 169.25 41.6169 169.462 41.8285C169.25 41.8285 169.25 41.8285 169.039 41.8285C170.096 42.4633 170.307 42.4633 170.518 42.6749L168.616 41.8285C168.827 42.0401 169.039 42.0401 169.039 42.2517C169.673 42.4633 170.307 42.8865 170.941 43.3097C170.73 43.3097 170.73 43.3097 170.096 42.8865C170.307 43.0981 170.941 43.5213 170.941 43.5213C171.153 43.7329 171.364 43.7329 171.787 43.9445L171.998 44.1561L172.209 44.3677C171.575 44.1561 171.153 43.9445 170.518 43.5213C170.941 43.7329 171.153 43.9445 171.364 44.1561H171.153C171.364 44.3677 171.787 44.5793 171.998 44.7909C172.209 45.0025 172.209 45.0025 172.421 45.2141C172.632 45.4257 172.844 45.4257 172.844 45.6373L173.055 45.8489H173.266C172.844 45.4257 172.844 45.4257 172.844 45.4257L172.632 45.2141V45.0025V44.7909C172.844 44.7909 173.055 45.0025 173.266 45.0025C173.478 45.4257 178.339 49.0229 178.339 49.2345L178.128 49.0229C178.339 49.4461 178.762 49.8693 179.185 50.2925H179.396C179.608 50.5041 179.608 50.5041 181.299 52.4085H181.087H180.876L181.299 52.8317L181.722 53.255V53.4665C182.144 53.8897 182.356 54.5245 182.778 54.9477C183.201 56.0057 184.047 56.429 184.892 57.0638L185.104 57.2754L185.526 57.6986H185.738C187.006 57.487 186.583 59.3914 187.64 59.3914C188.063 59.8146 188.063 59.8146 188.274 60.0262C188.697 60.0262 189.12 60.0262 189.543 59.8146C189.331 59.603 189.331 59.3914 189.12 59.1798H189.331V58.9682C189.12 58.7566 189.12 58.7566 188.908 58.545C188.908 58.545 189.331 58.545 190.177 59.603C190.6 59.3914 191.022 59.3914 191.656 59.1798C191.234 58.545 190.811 58.1218 190.388 57.6986L190.177 57.487C189.543 57.0638 188.908 56.6406 188.274 56.2174C187.64 55.7942 187.006 55.1593 186.372 54.5245C184.258 52.4085 181.933 50.5041 179.396 48.5997L180.242 49.0229C180.031 49.0229 180.031 48.8113 179.819 48.8113C180.031 49.0229 180.453 49.2345 180.665 49.4461L181.51 50.0809C182.144 50.5041 182.778 50.9273 183.413 51.5621H183.201C183.835 52.1969 183.835 52.1969 187.64 55.371L187.852 55.5826C188.274 56.0058 188.908 56.429 190.177 57.2754L189.754 56.8522H189.965C189.965 56.6406 189.754 56.6406 189.543 56.429V56.2174L189.331 56.0057L189.754 56.429L189.965 56.6406C190.6 57.0638 191.022 57.6986 191.656 58.1218C191.445 58.1218 191.445 57.9102 191.234 57.6986C191.234 57.9102 191.445 57.9102 191.445 58.1218H190.811C191.022 58.3334 191.234 58.7566 191.656 58.9682C191.868 58.7566 191.868 58.545 191.656 58.3334L191.234 57.9102C183.835 51.5621 183.624 51.3505 179.396 48.3881L177.917 47.3301C177.283 46.9069 177.283 46.9069 176.226 46.2721C176.226 44.7909 176.86 45.2141 176.86 45.2141ZM189.12 58.545C188.697 58.545 188.274 58.7566 187.852 58.7566L188.063 58.9682L188.274 59.1798L188.486 59.3914H188.697C188.908 59.603 188.908 59.603 189.12 59.8146V59.603C189.12 59.603 189.12 59.603 189.331 59.603V59.3914C189.331 59.3914 189.331 59.3914 189.331 59.1798C189.331 59.1798 189.331 59.1798 189.331 58.9682C189.331 58.9682 189.12 58.7566 189.12 58.545ZM190.811 57.9102C190.388 58.1218 189.965 58.3334 189.331 58.3334C189.543 58.545 189.965 58.7566 190.177 59.1798C190.811 59.8146 190.811 59.8146 191.022 60.0262C191.234 60.2378 191.445 60.4494 191.656 60.4494L191.868 60.661L192.079 60.8726C192.502 61.2958 192.713 61.5074 193.136 61.719C193.347 61.9306 193.77 62.3538 193.982 62.5654V62.777L194.404 63.2002L194.827 62.9886C193.982 62.1422 193.982 62.1422 193.982 61.9306L194.193 62.1422C194.193 61.9306 193.982 61.9306 193.982 61.719C193.77 61.5074 193.559 61.2958 193.347 61.0842H193.559L192.925 60.4494C192.713 60.4494 192.713 60.2378 192.502 60.2378C192.079 59.603 191.656 59.1798 191.234 58.7566C191.234 58.545 191.022 58.3334 190.811 57.9102ZM200.957 67.4322C198.209 64.0466 194.404 59.8146 191.234 56.8522C191.445 57.0638 191.445 57.2754 191.445 57.487C191.868 57.9102 192.079 58.3334 192.502 58.545C192.502 58.3334 192.502 58.3334 192.079 57.9102C192.502 58.1218 192.502 58.1218 194.404 60.2378C194.193 60.0262 193.982 59.8146 193.77 59.603C193.559 59.603 193.559 59.603 193.559 59.603L193.136 59.1798C192.925 59.1798 192.925 59.1798 192.925 59.1798C194.193 60.4494 195.25 61.9306 196.518 63.2002L196.73 63.4118C196.518 63.4118 196.518 63.4118 196.307 63.4118C196.73 63.835 196.941 64.2582 197.364 64.6814C196.941 64.4698 196.73 64.0466 196.307 63.835C196.518 64.2582 196.73 64.6814 196.941 65.3162L196.73 65.5278V65.7394H196.518C196.307 65.5278 196.095 65.3162 195.884 64.893C195.673 64.893 195.673 64.893 195.673 64.893V65.1046L195.461 65.3162C195.461 65.5278 195.461 65.5278 195.884 66.1626H195.673C195.461 66.1626 195.461 66.1626 194.827 65.5278H194.616L194.193 65.1046C194.193 65.1046 193.982 64.893 193.982 64.6814C193.982 64.4698 193.982 64.4698 194.193 64.4698C194.193 64.4698 194.193 64.4698 194.827 64.893C194.827 64.4698 193.77 63.2002 193.136 62.5654C192.925 62.3538 192.925 62.5654 192.925 62.5654C192.925 62.777 192.925 62.777 193.136 63.4118C192.925 63.2002 192.925 63.2002 192.502 62.5654L192.079 62.1422H191.868C191.445 61.5074 190.811 60.8726 190.177 60.2378C190.177 60.661 190.811 61.0842 190.811 61.5074C190.811 61.719 191.022 61.719 191.022 61.9306L191.234 62.1422C191.868 62.9886 192.713 64.0466 193.347 64.6814L193.559 64.893C193.77 65.1046 193.77 65.3162 193.982 65.5278C194.193 65.7394 194.616 66.1626 194.827 66.3742C195.038 66.5858 195.038 66.7974 195.25 67.009H195.038L194.827 67.2206H194.616C194.404 67.2206 194.404 67.2206 194.193 67.2206C194.193 67.4322 194.193 67.4322 194.193 67.6438V67.8554C194.404 68.067 194.616 68.4902 194.616 68.7018C194.616 68.9134 194.616 69.125 194.827 69.3366L195.25 69.5483L195.884 70.3946C195.673 70.6063 195.673 70.6063 195.884 71.6643C195.884 71.8759 195.884 71.8759 195.884 71.8759H195.673C195.884 72.5107 196.307 72.9339 196.518 73.3571C196.307 73.3571 196.307 73.5687 196.095 73.5687C196.095 73.9919 196.307 74.2035 196.518 74.4151H196.095H195.884C195.673 74.4151 195.673 74.4151 195.461 74.4151L195.25 74.2035C195.038 74.2035 195.038 73.9919 194.827 73.9919C195.038 74.2035 195.038 74.6267 195.25 74.8383C195.461 75.0499 195.673 75.4731 195.884 75.8963L196.095 76.1079C196.095 76.3195 196.307 76.3195 196.307 76.5311C195.884 76.7427 195.25 76.5311 195.038 76.3195C194.827 76.3195 194.827 76.5311 194.616 76.5311C194.404 76.7427 194.404 76.9543 194.827 77.3775H195.038C195.461 77.8007 195.884 77.8007 195.884 77.8007H196.095C196.518 78.2239 196.941 78.6471 197.575 79.0703C197.786 79.4935 197.998 79.9167 198.421 80.5515C200.323 82.6675 200.323 82.6675 200.957 85.2067C200.957 85.4183 200.957 85.4183 200.746 85.6299C200.534 85.8415 200.534 85.8416 200.534 85.8416C200.112 85.63 199.477 85.6299 199.055 85.2067C198.421 85.2067 197.998 85.2068 197.575 85.4184C196.941 85.4184 196.941 85.4183 196.73 85.2067H197.152V85.4184C197.152 85.63 197.364 85.63 197.364 85.8416C197.152 86.0532 196.941 86.0532 196.73 86.0532V86.2648C197.575 87.1112 197.575 88.3808 198.421 89.2272C198.632 89.862 198.843 90.4968 199.055 90.92C199.055 91.7664 199.266 92.6128 199.689 93.4592C199.689 93.6708 199.9 93.6708 199.9 93.8824V94.094V94.3056C199.9 94.7288 199.9 94.9404 200.323 95.7868C200.534 95.7868 200.746 95.7868 200.746 95.7868C200.957 95.7868 200.957 95.5752 201.169 95.5752C201.38 95.7868 201.38 95.7868 201.591 95.9984C201.803 95.9984 201.803 95.7868 202.014 95.7868C202.225 95.9984 202.648 96.21 202.86 96.21C203.071 96.6332 203.282 96.8448 203.494 97.268C203.494 97.268 203.494 97.0564 203.494 96.8448V96.6332C204.339 96.6332 203.705 95.152 204.762 95.152C205.185 94.5172 205.185 93.4592 206.03 93.036L205.607 91.978C204.973 91.3432 204.762 90.2852 204.551 89.4388C204.551 89.2272 204.551 89.2272 204.551 89.0156C204.551 88.804 204.762 88.804 204.762 88.804C204.762 88.1692 204.762 88.1692 204.973 87.5344C205.185 87.5344 205.185 87.5344 205.396 87.3228C205.396 87.1112 205.185 86.688 204.973 86.4764L204.762 86.2648C203.916 84.7835 203.494 83.9371 204.551 84.3604C204.762 84.572 204.973 84.5719 205.185 84.7835H205.607V84.5719C205.396 84.1487 205.396 83.9371 205.185 83.5139C205.185 83.3023 205.396 83.3023 205.396 83.3023L205.607 83.0907C205.607 82.8791 205.607 82.4559 205.396 82.2443C206.876 82.4559 206.664 83.9371 207.51 84.7835C207.721 84.9952 207.933 85.2068 207.933 85.4184C209.624 86.8996 210.892 88.804 211.949 90.92C211.949 90.92 211.949 90.92 211.949 91.7664C211.737 91.7664 211.526 91.7664 211.315 91.978C211.315 91.978 211.526 92.1896 211.526 92.4012C211.949 92.8244 211.949 93.2476 212.372 93.6708C212.583 93.6708 212.794 93.6708 212.794 93.6708L212.372 92.6128C212.372 91.5548 211.949 90.4968 211.737 89.4388C211.737 89.4388 211.738 89.2272 211.526 89.2272H211.315C211.315 89.2272 211.103 89.0156 211.103 88.804L210.892 88.3808H211.103C211.315 88.5924 211.526 88.804 211.526 89.0156C211.315 87.746 210.258 87.1112 209.624 86.0532C209.201 85.8416 207.721 83.7255 207.51 83.5139C207.299 83.3023 207.087 82.8791 207.087 82.6675H206.876C206.664 82.4559 206.453 82.2443 206.453 82.0327V81.8211V81.6095V81.3979C206.242 81.1863 206.03 80.7631 205.819 80.5515H206.03C207.087 81.6095 208.355 82.8791 209.201 84.3604C209.835 85.2068 210.469 86.2648 211.103 87.1112C212.372 89.862 212.372 89.862 212.583 90.0736C212.794 90.4968 213.006 90.92 213.217 91.3432V91.1316C213.217 91.3432 213.217 91.5548 213.851 92.6128C213.851 92.4012 213.851 92.4012 213.851 92.1896V91.978C214.063 92.6128 214.485 93.2476 214.697 93.8824C214.697 93.8824 214.697 93.8824 214.908 93.8824C214.908 93.6708 214.908 93.2476 214.697 93.036L214.485 92.6128C214.485 92.4012 214.274 92.1896 214.274 91.978L214.485 92.1896C214.274 91.7664 214.274 91.3432 214.063 90.92C214.063 90.7084 213.851 90.2852 213.64 90.0736C213.64 90.2852 213.851 90.4968 213.851 90.7084C213.64 90.2852 212.583 88.3808 212.583 88.3808C212.583 88.3808 212.583 88.1692 212.372 88.1692V87.9576C212.372 88.1692 212.583 88.1692 212.583 88.3808C212.372 87.9576 212.16 87.5344 212.16 87.1112C212.372 87.3228 212.583 87.746 212.794 88.1692C212.794 88.3808 213.006 88.5924 213.006 88.5924C213.217 89.4388 213.64 90.0736 214.063 90.92L214.274 91.3432C214.274 91.5548 214.485 91.5548 214.485 91.7664C214.485 91.978 214.697 92.1896 214.697 92.6128V92.8244V93.036V93.2476C214.697 93.4592 214.908 93.6708 214.908 93.8824V94.094V94.3056C214.908 94.5172 215.12 94.9404 215.12 95.152V95.3636L214.908 94.9404C214.908 94.9404 214.908 94.7288 214.697 94.5172C214.697 94.3056 214.485 94.094 214.485 93.8824C214.485 93.6708 214.485 93.6708 214.274 93.4592C212.794 89.862 210.469 84.9951 208.778 81.3979C204.339 72.2991 203.494 71.0295 200.957 67.4322ZM182.99 60.2378C182.99 60.4494 182.99 60.661 182.99 60.661L183.201 60.8726C183.201 60.8726 183.201 61.0842 183.413 61.2958C183.413 61.5074 183.624 61.5074 183.624 61.5074H183.835V61.2958V61.0842C183.624 60.8726 183.624 60.661 183.624 60.661L183.413 60.4494V60.2378C183.201 60.4494 183.201 60.4494 182.99 60.2378ZM195.038 69.7598C194.827 69.5482 194.827 69.3366 194.616 69.3366C194.193 69.125 193.982 68.7018 193.559 68.2786C193.559 68.4902 193.982 68.7018 193.77 68.9134C193.77 68.9134 193.77 68.9135 192.502 67.4322H192.291C191.868 66.7974 191.234 65.951 191.022 66.1626L190.811 65.951C190.6 65.7394 190.177 65.5278 189.965 65.3162C189.543 65.1046 189.331 64.6814 189.12 64.4698C188.697 64.2582 188.274 64.2582 188.063 64.0466L187.852 63.4118H188.063L187.852 63.2002C187.64 62.9886 187.64 62.5654 187.429 62.3538C187.217 62.1422 187.006 61.719 186.583 61.5074L185.526 61.719C184.681 60.2378 184.681 60.0262 184.469 60.0262H184.258C184.258 60.0262 184.047 60.0262 183.835 60.0262C183.835 60.0262 183.835 60.0262 184.469 61.0842C184.681 61.2958 185.104 61.5074 185.104 61.9306C184.892 62.1422 184.681 61.719 184.258 61.719C184.47 62.3538 184.892 62.777 185.315 62.777L185.526 62.9886L185.738 63.2002C185.949 63.4118 186.161 63.6234 186.372 63.835C186.161 64.0466 186.161 64.0466 186.583 64.6814H186.795L187.429 65.1046H187.64C187.429 64.893 187.429 64.893 187.429 64.6814C187.852 65.1046 188.274 65.5278 188.486 65.951V66.1626C188.697 66.3742 188.697 66.5858 188.908 66.5858H189.543V66.3742C190.388 66.5858 190.388 67.6438 191.234 67.8554C191.445 68.2786 192.079 68.4903 192.079 69.1251C191.868 69.1251 191.656 68.9134 191.234 68.9134V69.1251C191.234 69.1251 191.234 69.3366 191.445 69.3366H191.234C191.445 69.7598 191.445 69.7598 191.656 69.7598C192.079 69.3366 192.079 69.7599 192.291 70.1831H192.079C192.079 70.3947 192.079 70.3947 192.291 70.6063H192.079C192.079 70.8179 192.502 71.4527 192.713 71.2411C192.713 71.2411 192.713 71.0295 192.925 71.0295L193.982 71.2411C193.982 71.2411 194.616 71.8759 193.77 71.8759C193.77 72.0875 193.77 72.0875 193.77 72.2991L193.559 72.5107C193.982 73.3571 193.982 73.3571 193.982 73.7803L194.193 73.9919C194.404 73.9919 194.404 73.7803 194.404 73.7803C194.404 73.7803 194.404 73.7803 194.404 73.3571C194.404 73.3571 194.404 73.3571 194.827 73.5687H195.25C194.827 72.9339 194.827 72.9339 194.827 72.9339C195.038 72.9339 195.038 72.9339 195.25 72.9339C195.461 72.9339 195.673 72.9339 195.673 72.9339C195.673 72.7223 195.673 72.7223 195.673 72.5107C195.884 72.5107 196.095 72.7223 196.307 72.9339C196.307 72.9339 196.518 72.9339 196.73 72.7223C196.73 72.7223 196.518 72.5107 196.73 72.2991H196.941V72.0875C196.73 71.8759 196.518 71.4527 196.095 71.2411V71.0295C195.884 70.8179 195.884 70.8178 195.884 70.8178H196.095L195.884 70.3946L195.038 69.7598ZM188.697 67.009L187.64 65.951C187.429 65.7394 187.429 65.7394 187.217 65.7394L187.006 65.5278C187.006 65.5278 187.006 65.7394 186.795 65.7394C186.795 65.7394 186.795 65.951 186.795 66.1626C186.583 65.951 186.372 65.951 186.161 65.7394H185.949C186.161 66.1626 186.583 66.5858 186.795 67.009V67.2206H186.583L186.372 67.4322L186.161 67.2206H185.949L187.217 68.9134C187.429 68.9134 187.429 68.9134 187.64 68.9134L188.063 69.7598H187.852C187.852 69.9714 187.852 70.1831 188.063 70.1831C188.274 70.3947 188.274 70.6062 188.486 70.8178V71.0295C188.697 71.6643 189.331 71.8759 189.331 71.8759C189.331 71.6642 189.543 71.6642 189.754 71.8759C189.754 71.8759 189.754 71.8759 189.754 71.0295L190.811 70.8178C190.811 70.6062 190.6 70.6063 190.6 70.3946L190.388 70.1831C190.177 69.9715 190.177 69.9714 190.177 69.7598C189.965 69.125 189.543 68.4903 189.12 68.0671L188.697 67.6438H188.908C188.697 67.4322 188.697 67.2206 188.697 67.009ZM219.347 108.483L217.868 101.288C217.445 100.654 217.233 99.8073 216.811 99.1724C216.599 100.654 217.445 101.923 217.656 103.404C217.656 103.404 217.656 103.404 217.445 103.193C217.233 102.77 217.022 102.558 216.811 102.135C216.599 102.135 216.388 102.346 216.388 102.346L211.526 93.036C211.315 93.6708 210.469 94.094 210.046 94.7288C209.412 93.8824 209.412 93.8824 208.778 93.6708C208.567 94.094 208.355 94.5172 208.355 95.152C207.933 95.152 207.51 95.3636 207.087 95.5752C207.299 96.8448 207.299 96.8448 207.087 97.268H206.453L206.03 97.6912H205.819H205.185H204.973C204.551 97.9028 203.916 97.6912 203.494 97.268L203.071 97.0564C203.071 97.9028 203.282 98.9609 203.494 99.8073C203.071 99.8073 202.86 100.019 202.437 100.019C202.648 100.865 202.86 101.712 203.071 102.558C202.648 102.558 202.225 102.77 202.014 103.193C202.225 104.462 202.437 105.944 202.648 107.213C202.648 107.637 202.86 107.848 202.86 108.271L201.803 108.483C201.803 109.329 201.591 110.387 201.169 111.234C198.632 112.927 200.957 116.101 198.843 117.793H198.632L198.209 118.005C198.209 118.217 198.209 118.217 197.364 122.872V123.93C197.998 123.93 198.421 123.93 199.055 123.93C199.055 124.141 199.266 124.353 199.266 124.353C198.843 125.411 198.843 125.411 198.843 129.643C198.843 129.855 198.843 130.066 198.843 130.701C198.632 131.336 198.632 131.336 197.998 131.971C197.998 132.605 198.209 133.452 198.209 134.087C198.209 134.298 198.209 134.51 198.209 134.721C198.209 136.203 198.421 136.414 199.477 137.896H200.112C200.323 138.319 200.534 138.953 200.534 139.588H201.169C200.957 142.339 200.957 142.339 203.071 143.397C203.071 144.032 202.86 144.455 202.86 145.09C203.705 145.725 203.916 146.783 205.185 147.206C205.607 146.783 205.607 146.148 206.03 145.725C206.453 145.725 206.876 145.725 207.087 145.513H207.299C207.721 145.513 207.933 145.513 208.355 145.513L208.567 145.936C210.046 145.725 210.046 143.609 211.949 143.609C211.949 143.609 211.949 143.609 212.16 143.397C212.372 142.974 212.583 142.762 212.794 142.551L213.217 142.762C213.006 144.878 213.006 144.878 213.429 145.302C214.063 145.09 214.485 145.09 215.12 144.878C214.908 145.513 214.908 146.148 214.697 147.206C210.892 162.441 210.892 162.441 210.046 163.711C210.046 163.922 209.835 164.134 209.835 164.346C208.355 167.731 207.299 170.059 199.477 181.909C198.843 182.755 198.209 183.601 197.575 184.448C195.461 187.199 192.925 189.949 190.388 192.489L189.965 192.912C189.12 193.547 189.12 193.547 188.697 193.97C187.852 194.816 187.852 194.816 187.429 195.028L187.64 194.816C190.6 192.065 194.193 188.468 196.941 185.717C200.323 181.909 200.323 181.909 206.03 173.868C208.778 169.636 208.778 169.636 213.006 160.537C215.12 155.882 215.12 155.882 217.868 146.148C219.559 138.742 220.615 131.124 220.615 123.507C220.827 118.64 220.827 118.64 219.347 108.483ZM174.112 166.885C174.323 163.922 173.901 163.711 173.478 163.288C173.055 163.288 172.421 163.288 171.998 163.288C170.518 162.864 170.307 160.325 168.193 160.96H166.291C165.023 160.325 164.177 159.902 163.966 160.96C163.543 161.172 163.332 161.383 162.486 160.748C162.486 160.537 162.486 160.537 163.332 159.902C161.218 158.632 161.218 158.632 160.161 158.421C159.949 158.421 159.738 158.421 159.527 158.209C159.104 157.786 158.47 157.786 157.836 157.998C157.836 158.421 157.624 158.844 157.624 159.479H156.356C156.356 159.267 156.356 158.844 156.567 158.632C156.779 158.421 156.99 158.209 157.202 157.998L157.624 157.786V157.363C157.624 157.363 156.99 157.151 155.933 156.94H155.51H155.088L154.665 157.151C154.665 157.998 154.454 158.421 153.185 158.209C153.185 157.998 153.185 157.574 153.397 157.363C155.51 155.247 155.51 155.247 154.876 154.189H154.031C154.031 153.554 154.031 153.131 154.242 152.496C154.031 151.861 153.819 151.226 153.608 150.592C153.608 150.592 150.437 149.11 149.592 148.687C148.746 148.264 147.901 148.899 147.267 148.899H146.421C143.462 148.476 143.25 147.841 142.616 145.936C142.405 145.936 142.405 145.936 140.714 145.09C140.714 145.09 140.714 144.878 140.714 144.667C139.657 144.455 139.657 143.82 139.657 143.186C139.446 143.186 139.234 143.186 139.023 143.186C137.755 143.609 137.755 143.609 137.332 143.609C137.332 143.186 137.12 142.762 137.12 142.339C137.332 142.339 137.543 142.128 137.755 141.916C137.543 141.493 137.332 141.493 136.275 141.281L135.429 141.916H135.218C134.795 141.704 134.372 141.704 133.95 141.704C133.316 143.186 133.316 143.186 132.681 143.186C132.047 142.762 131.413 141.916 130.568 141.916C129.934 141.916 129.299 141.916 128.454 141.704L127.608 141.493C127.608 141.07 127.608 140.858 127.186 140.646C126.129 140.646 125.495 139.588 124.438 140.012C124.438 140.435 124.226 140.858 124.015 141.07C123.381 141.07 122.958 141.281 122.535 141.704C122.112 142.551 122.958 143.609 122.535 144.455C120.844 143.609 122.324 141.916 121.478 140.858C121.69 140.223 122.958 139.165 122.958 139.165L122.747 138.742H122.112C121.056 138.953 121.056 138.954 121.056 140.012C120.421 140.012 119.787 140.012 118.942 140.012C118.096 140.858 116.828 141.281 115.771 141.07C115.771 141.704 115.771 142.339 115.56 142.974C115.137 143.397 114.714 143.397 114.291 143.397C114.08 143.82 113.869 144.455 113.657 144.878C112.389 145.725 112.178 146.36 112.178 146.783C112.389 146.994 112.6 146.994 113.023 146.994C113.023 148.264 114.503 149.745 113.023 150.803C112.812 152.708 112.812 152.708 112.389 153.131H111.543C111.543 153.342 111.755 153.977 111.755 154.189C111.543 154.4 111.121 154.612 110.909 154.612C110.909 154.824 110.909 155.035 110.909 155.247C110.064 155.458 109.43 155.458 109.641 156.94C109.218 156.94 108.796 156.94 108.373 157.151C108.373 157.998 108.373 158.844 108.584 159.69L109.007 159.902C109.43 159.69 109.852 159.69 110.275 159.902C110.275 160.114 110.275 160.537 110.064 160.748C109.641 160.96 109.218 160.96 108.796 161.172C108.796 161.806 108.796 161.806 107.95 162.441C107.739 163.076 107.739 163.076 108.373 163.922V164.134C108.584 166.885 112.389 167.096 112.812 169.847C112.812 170.059 112.812 170.271 112.812 170.482C117.674 177.465 117.674 177.465 118.308 177.465C118.308 177.465 120.633 177.888 123.169 180.639C123.381 180.639 123.804 180.639 124.015 180.639C124.015 181.485 124.015 182.332 124.015 183.178C124.015 183.39 124.015 183.813 124.015 184.025V184.236C124.015 184.448 124.015 184.448 124.015 184.659V185.083C124.015 185.294 124.015 185.294 123.804 185.506C123.804 185.717 123.592 185.929 123.804 186.352C123.804 186.564 123.804 186.564 123.804 186.775C123.804 186.987 123.804 186.987 123.804 187.199V187.41C123.804 187.41 123.804 187.622 123.592 187.833C123.592 188.045 123.592 188.468 123.804 188.68V188.891C123.804 189.103 123.804 189.103 123.804 189.315C123.592 190.161 122.958 190.796 122.958 191.642C122.747 192.7 122.324 193.758 121.901 194.816V195.028C122.535 197.99 122.535 198.625 121.056 199.895C121.056 200.106 121.056 200.318 121.056 200.318C121.056 200.53 121.056 200.529 121.056 200.741V200.953C120.844 201.587 120.21 202.011 119.787 202.646C120.421 203.704 120.21 204.127 119.787 205.396L119.999 205.82C120.21 206.031 120.21 206.243 120.21 206.454L119.787 206.666C119.576 207.512 119.576 207.512 119.576 207.724L119.999 207.936H120.633V206.666H121.267C121.267 206.878 121.267 207.089 121.056 207.301L120.633 207.512C120.633 207.724 120.633 208.147 120.633 208.359C120.633 208.359 120.633 208.359 120.421 209.84C120.21 209.628 119.999 209.628 119.999 209.417C119.999 209.417 119.999 209.417 119.999 208.994C119.999 208.994 119.999 208.994 119.787 208.994C119.787 209.205 119.787 209.205 120.21 209.628C120.421 209.84 120.421 210.052 120.421 210.263C120.21 210.052 119.787 209.84 119.576 209.84C119.576 210.052 119.576 210.052 119.153 210.475C119.153 210.686 119.153 210.686 119.153 210.898C119.365 210.898 119.787 211.11 119.999 211.11C119.999 211.11 119.999 211.321 119.999 211.533H120.421C120.421 211.744 120.421 211.744 120.633 211.956C119.787 211.956 119.787 211.956 119.365 212.168C119.365 212.379 119.365 212.379 119.576 212.591L119.787 212.802C119.787 212.802 119.787 212.802 119.787 213.226C119.787 213.437 119.999 213.649 120.21 213.86H119.999H120.21C120.21 213.86 120.421 213.86 120.421 214.284H120.844V214.495C121.056 214.918 121.69 215.13 121.901 215.553H122.324C122.324 215.553 122.324 215.553 122.535 215.765C122.747 215.976 123.169 215.765 123.381 215.976C123.592 215.976 123.592 215.976 123.804 215.976H124.86C125.072 215.765 125.072 215.765 125.283 215.765C125.072 215.765 124.649 215.765 124.438 215.553C124.438 215.553 124.438 215.342 124.015 215.342C124.015 215.13 124.015 214.707 123.804 214.495C123.804 214.284 123.804 214.072 123.592 213.649C123.592 213.649 123.592 213.649 123.592 213.437C123.592 213.226 123.592 213.014 123.804 212.802C124.015 212.802 124.226 212.802 124.438 212.802C124.438 212.591 124.438 212.591 124.438 212.379C125.072 211.956 125.706 211.321 126.34 210.898C126.34 210.898 126.34 210.686 126.129 210.686H125.706C125.072 210.052 125.072 210.052 125.072 209.84V209.628C125.283 209.417 125.495 209.417 125.917 209.205H126.974C126.974 208.782 127.186 208.57 127.397 208.147C127.608 207.936 127.82 207.512 128.031 207.089C128.877 207.089 128.877 207.089 129.088 206.666C129.088 206.666 129.088 206.666 128.877 206.454C128.665 206.666 128.454 206.666 128.031 206.666C128.031 206.454 128.031 206.031 128.031 205.82V205.396C128.243 205.396 128.454 205.396 128.665 205.396L129.088 205.608C129.511 205.608 129.934 205.608 130.356 205.185C130.356 205.185 130.356 205.185 130.568 204.762L130.99 204.55C130.99 204.338 130.99 203.915 130.99 203.704C130.99 203.492 130.99 203.492 130.99 203.28C131.413 203.28 131.836 203.28 132.259 203.28H132.681C132.893 203.28 133.316 203.28 133.527 203.069C133.95 203.069 134.373 203.069 134.795 203.069C134.795 203.069 136.486 202.011 137.12 201.376L137.543 200.953L137.755 200.318C137.543 200.318 137.543 200.318 137.332 200.318C137.332 200.106 137.332 200.106 137.543 199.683C137.332 199.26 136.909 199.048 136.698 198.837C136.698 198.625 136.698 198.625 136.698 198.414H137.543C140.714 198.837 140.714 198.837 142.194 197.779C145.787 194.393 145.787 194.393 145.998 194.393C145.787 194.605 145.576 194.816 145.576 195.028C145.787 195.028 150.226 191.854 150.226 190.373C150.226 189.526 150.226 188.68 154.031 186.564H155.299C155.722 186.352 156.356 185.929 156.779 185.717C157.836 185.717 158.893 185.506 159.738 185.294C159.738 185.083 159.949 184.871 160.161 184.659C160.584 184.448 160.584 184.448 163.754 180.851C163.966 180.851 163.966 180.851 165.234 178.523C165.234 178.311 165.445 178.1 165.445 178.1C165.868 177.677 166.291 177.042 166.502 176.407C166.502 176.195 166.714 175.984 166.714 175.772C166.714 175.561 166.714 175.561 166.714 175.349C166.714 175.137 166.925 174.714 166.925 174.503C167.136 173.868 167.348 173.233 167.771 172.81C167.771 172.81 170.518 170.482 171.153 169.847L173.689 167.096C173.689 167.943 174.112 167.308 174.112 166.885ZM132.681 130.066C132.681 129.855 132.259 130.066 132.047 129.643C131.836 129.431 132.047 129.008 132.047 128.797C131.413 129.008 130.779 129.008 130.145 129.22H129.511C129.088 129.22 128.877 129.008 128.454 128.797H128.242C128.031 128.797 127.82 129.22 127.608 129.22H126.551C126.129 129.22 125.917 128.797 125.495 128.585C125.072 128.373 124.649 127.95 124.015 127.95H121.69C121.267 127.95 120.844 127.95 120.421 128.162C120.421 128.797 120.421 129.431 120.421 130.066C120.844 130.489 121.267 130.913 121.69 131.336H122.324C123.169 131.336 123.592 130.489 124.438 130.489C124.86 130.489 125.072 130.701 125.495 130.701C125.917 130.701 126.129 130.489 126.551 130.489C127.397 130.489 128.243 130.489 129.088 130.278C129.299 130.066 129.511 130.066 129.722 130.278C130.356 130.489 130.779 130.489 131.413 130.489H132.047C132.47 130.489 132.47 130.278 132.681 130.066ZM115.137 130.913C115.137 130.701 115.348 130.278 115.137 130.066C114.926 129.855 114.714 130.066 114.503 129.855C114.291 129.855 114.08 129.643 113.869 129.431H113.657H111.755C111.966 129.643 111.966 129.855 112.178 130.066L112.389 130.278C112.6 130.278 112.6 130.278 112.812 130.278C113.235 130.278 113.657 130.701 113.657 130.701C113.657 130.701 113.869 130.913 113.869 131.124V131.336C114.08 131.336 114.291 131.336 114.503 131.336C114.714 131.336 114.714 131.547 115.137 130.913ZM113.023 127.104H118.096C117.462 126.257 116.617 125.411 115.56 124.988H114.714C114.08 125.199 113.235 125.199 112.6 124.988C112.178 124.776 111.966 124.353 111.543 124.141C110.909 123.718 110.275 123.507 109.641 123.083C108.796 122.66 108.796 122.66 108.796 122.449C108.584 122.237 108.584 122.025 108.161 122.025H106.682C106.682 122.025 106.682 122.025 106.048 122.237C105.836 122.449 105.413 122.237 105.202 122.025H103.722C102.454 122.025 102.454 122.025 102.243 122.025C100.763 123.083 103.088 124.988 104.779 124.141C105.202 123.93 105.413 123.507 105.836 123.507C106.259 123.507 106.682 123.507 107.105 123.507C107.105 123.507 108.373 123.93 108.584 124.565C108.584 124.776 108.584 124.776 108.796 124.988C109.218 125.199 109.852 125.411 110.487 125.411C110.909 125.411 111.121 125.411 111.332 125.834C111.755 126.681 112.389 126.892 113.023 127.104ZM169.673 51.1389C169.462 50.9273 169.039 50.7157 168.827 50.2925C168.616 50.0809 168.405 50.0809 168.405 49.8693C167.982 49.6577 167.982 49.6577 167.771 49.6577C167.559 49.4461 167.348 49.2345 167.136 48.8113C166.925 48.5997 166.714 48.5997 166.502 48.3881H165.868C165.657 48.3881 165.657 48.5997 165.868 48.5997C165.868 48.5997 166.079 49.0229 165.868 49.0229V49.2345C165.657 49.2345 165.234 49.0229 165.023 49.0229C164.811 49.0229 164.6 49.2345 164.6 49.4461C164.6 49.6577 164.6 49.6577 164.388 49.6577H163.966L163.543 49.2345L163.12 48.8113C162.909 48.5997 162.697 48.5997 162.486 48.3881L162.275 48.5997C162.486 48.8113 162.486 48.8113 162.697 49.0229C162.063 48.8113 162.063 48.8113 162.063 48.8113C162.063 48.8113 161.429 48.8113 161.429 49.0229C161.429 49.4461 162.063 50.0809 162.486 49.8693V49.6577C163.12 49.4461 163.754 50.0809 164.177 50.5041C163.754 50.2925 163.332 50.5041 162.697 50.5041L163.332 51.1389L163.543 50.9273H164.177H164.388L165.023 51.7737L165.445 52.1969H165.657C165.868 51.9853 166.079 51.9853 166.291 51.9853H166.502C166.925 51.7737 167.136 52.1969 167.559 52.4085C167.982 52.6201 168.193 52.6201 168.616 52.4085V51.9853C168.405 51.5621 168.405 51.5621 168.405 51.5621C168.405 51.3505 168.405 51.3505 168.405 51.3505H168.616C168.616 51.1389 168.405 50.9273 168.616 50.7157C168.827 51.3505 168.827 51.3505 169.673 51.1389ZM146.633 79.7051C146.633 79.4935 146.421 79.2819 146.421 79.0703C145.787 79.0703 145.787 79.0703 145.576 78.8587C145.153 78.6471 144.73 78.4355 144.307 78.2239C144.307 78.0123 144.096 78.0123 143.885 78.0123C143.462 77.8007 143.039 78.0123 142.828 77.8007C142.616 77.8007 142.405 77.5891 142.194 77.5891C142.405 76.7427 142.405 76.7427 142.405 76.5311C142.405 76.3195 142.616 76.5311 142.828 76.3195C143.039 76.1079 143.039 75.6847 142.828 75.4731L142.616 75.2615C142.405 75.2615 142.405 75.2615 142.194 75.2615C141.982 75.2615 141.771 75.4731 141.559 75.4731C141.559 75.6847 141.559 75.6847 141.559 75.8963C141.559 76.1079 141.559 76.3195 141.559 76.5311V76.7427C141.137 77.5891 140.503 78.2239 139.868 79.0703C139.657 79.2819 139.446 79.4935 139.234 79.9167C139.234 80.1283 139.023 80.3399 139.234 80.7631C139.234 80.9747 139.446 81.1863 139.446 81.3979H143.462C143.885 81.3979 143.885 81.3979 144.519 81.8211C144.941 82.2443 145.576 82.6675 146.21 82.8792C146.21 82.8792 146.21 82.6675 146.421 82.6675C146.633 82.6675 146.844 82.4559 146.421 81.1863C146.421 80.7631 146.421 80.1283 146.633 79.7051ZM135.218 78.4355C135.007 78.4355 134.795 78.2239 134.795 78.2239H134.584C134.373 78.2239 134.161 78.2239 134.161 78.2239C133.95 78.2239 133.527 78.0123 133.316 77.8007C133.104 77.5891 133.104 77.5891 132.893 77.5891C132.681 77.5891 132.681 77.5891 132.47 77.5891L131.836 77.8007C132.047 77.8007 132.259 78.0123 132.47 78.0123C132.681 78.2239 132.681 78.4355 132.893 78.4355H133.104C133.316 78.6471 133.527 78.6471 133.527 78.8587C133.527 79.0703 133.738 79.0703 133.95 79.2819C134.161 79.2819 134.161 79.4935 134.373 79.4935C134.373 79.2819 134.584 79.4935 135.218 78.4355ZM131.836 30.6136C131.413 30.6136 131.202 30.6136 130.779 30.402H130.568C130.99 30.402 131.202 30.6136 131.625 30.8252C131.413 30.8252 131.202 30.8252 130.99 30.8252C131.202 30.8252 131.413 31.0368 131.625 31.0368C132.047 31.2484 132.47 31.2484 132.681 31.46C132.047 31.2484 131.625 31.0368 130.99 30.8252L130.356 30.6136C129.934 30.402 129.511 30.402 129.088 30.1904H128.877C129.299 30.1904 129.722 30.402 130.145 30.402H129.934H130.145C129.934 30.402 129.722 30.1904 129.511 30.1904C129.299 30.1904 129.088 30.1904 129.088 30.1904C128.877 30.1904 128.877 30.1904 128.665 30.1904H128.877C128.454 30.1904 128.243 29.9788 128.031 29.7672C128.243 29.7672 128.242 29.7672 128.454 29.7672H128.242C128.454 29.7672 128.454 29.7672 128.665 29.7672H128.242H127.608L126.551 29.5556C126.551 29.5556 126.551 29.5556 126.763 29.5556H126.551H126.129H125.917H126.129H125.917H125.283H124.86H125.283L124.438 29.344H124.015H123.592H123.804C124.015 29.344 124.226 29.5556 124.649 29.5556H124.438H124.226C124.015 29.5556 123.804 29.5556 123.592 29.5556H123.804H123.592H123.804H124.015L124.438 29.7672H124.226H124.438H124.649H124.86H125.072H125.283H125.495H125.283H125.072H124.86H124.438H124.226H124.015C123.804 29.7672 123.804 29.7672 123.592 29.7672L124.015 29.9788H124.226H124.438H124.649H125.283H125.072H124.86H124.649L124.86 30.1904L125.283 30.402L125.495 30.6136H125.283H125.072V30.402H124.86H124.649H124.438H124.015H123.169H123.381H123.592H123.804H123.592H123.381H123.169H122.958H122.747V30.6136L122.958 30.8252H122.747H122.324L122.112 31.0368V31.2484H121.901V31.6716H122.112H122.324H122.535V31.8832V32.0948V32.3064H122.324H122.112H121.901H121.69H121.478C121.478 32.3064 121.478 32.3064 121.478 32.518H121.267C121.056 32.518 120.844 32.518 120.633 32.518V32.7296H120.421C120.21 32.9412 120.21 32.9412 120.633 33.3644C120.844 33.3644 120.844 33.3644 121.056 33.576H121.478H121.69C121.69 33.576 121.901 33.7876 122.112 33.7876H122.324H122.535H122.747H123.169H123.381C123.381 33.9992 123.381 33.9992 123.381 34.2108L122.958 34.8456H122.747H122.535H122.112V35.0572H121.901V35.2688L122.112 35.4804C122.324 35.4804 122.747 35.692 122.958 35.692H123.169H123.381H123.169C123.169 35.692 123.169 35.4804 122.958 35.4804H123.169C123.381 35.4804 123.381 35.4804 123.592 35.4804V35.2688H123.804C124.015 35.2688 124.015 35.2688 124.226 35.2688C124.438 35.2688 124.438 35.2688 124.649 35.2688H125.283H125.495L125.706 35.4804H126.129C126.129 35.4804 126.34 35.4804 126.34 35.692H126.551H126.763L126.974 35.9036H127.186H127.397L127.608 36.1152L127.82 36.5384L128.031 36.75H128.242L128.454 36.9616L128.665 37.1732H128.877C128.877 37.1732 128.877 37.1732 129.299 37.5964L129.511 37.808L129.722 38.0196V38.2312C129.722 38.4428 129.722 38.4428 130.145 38.6544C130.145 38.866 130.356 38.866 130.356 39.0776C130.356 39.2892 130.356 39.2893 130.356 39.5009H130.779C130.779 39.7125 130.99 39.7124 130.779 39.7124H130.568C130.568 39.9241 130.779 40.1357 130.779 40.3473H131.625C131.625 40.3473 131.625 40.5589 131.836 40.7705C132.047 40.9821 132.259 40.9821 132.259 40.9821C132.47 40.9821 132.47 40.9821 132.681 40.9821H132.893C133.104 40.9821 133.316 40.9821 133.527 40.9821V40.7705C134.373 40.3473 134.584 41.4053 135.218 41.4053C135.641 41.6169 135.852 41.8285 136.275 42.0401V42.2517H135.852H135.429C134.795 42.2517 134.161 41.6169 133.316 42.0401C133.527 42.2517 133.738 42.4633 134.161 42.6749V42.8865H133.95C133.95 42.8865 133.527 43.0981 133.95 43.5213C134.372 43.9445 135.007 43.7329 135.429 44.1561H135.641C135.641 43.9445 135.641 43.9445 135.852 43.7329C136.064 43.7329 136.275 43.7329 136.486 43.7329C136.486 43.5213 136.275 43.3097 136.064 43.0981C135.852 43.0981 135.641 43.0981 135.429 43.0981L135.218 42.8865H134.795V42.6749H135.218C135.429 42.8865 135.852 42.8865 136.064 42.8865H136.486C136.698 42.8865 136.909 43.0981 136.909 43.0981V43.3097V43.5213V43.7329C136.909 43.7329 136.909 43.7329 136.909 43.9445C137.12 44.1561 137.332 44.1561 137.543 44.3677L137.755 44.7909H137.332H137.12C137.12 44.7909 137.12 45.0025 136.909 45.2141H136.486H136.275H136.064C136.275 45.4257 136.275 45.8489 136.275 46.0605H135.852C135.852 46.2721 135.852 46.2721 135.429 46.4837V46.6953V46.9069V47.1185C135.852 47.5417 136.698 47.5417 136.909 48.1765C136.698 48.1765 136.698 48.3881 136.486 48.3881C136.486 48.3881 137.12 49.8693 138.177 49.6577V49.4461H138.389H138.6C138.811 49.6577 138.811 49.6577 138.811 49.8693H138.6H138.389C139.234 51.3505 139.234 51.3505 139.446 51.3505C139.657 51.1389 139.657 50.9273 139.657 50.7157H140.08C140.503 51.1389 140.714 51.7737 140.925 52.4085C140.925 52.6201 140.714 52.6201 140.503 52.8317C139.868 53.6781 145.787 58.1218 146.633 58.1218C146.844 58.1218 146.844 58.1218 147.055 58.1218C147.267 58.1218 147.267 58.1218 147.478 57.9102C148.746 58.1218 150.86 60.4494 151.283 58.7566V58.545L151.071 58.1218C150.86 57.487 151.283 56.8522 150.86 56.2174C150.437 55.5826 150.015 55.371 149.592 54.7362V54.5245C149.803 54.5245 149.803 54.313 150.015 54.313C150.226 54.313 150.226 54.313 150.226 54.313C150.437 54.313 150.437 54.313 150.649 54.1013C150.226 53.4665 150.226 53.4666 150.437 53.255H150.649V53.0433C150.437 52.6201 150.226 52.4085 150.015 51.9853C150.226 51.3505 149.169 51.1389 148.958 50.7157C149.38 50.7157 149.38 50.7157 149.592 50.5041C149.592 50.2925 149.38 50.0809 149.169 49.8693H150.226C150.015 49.6577 149.803 49.4461 149.803 49.2345H150.437C150.649 49.4461 150.86 49.8693 151.071 50.0809C151.283 50.0809 151.494 50.0809 151.706 50.0809C151.917 49.8693 151.706 49.4461 151.917 49.2345H152.128C152.34 49.2345 152.551 49.2345 152.551 49.0229L152.34 48.8113C152.34 48.5997 152.34 48.3881 152.34 48.1765C152.34 47.9649 152.34 47.9649 152.128 47.7533H152.34L152.128 47.3301L152.34 47.1185L152.128 46.9069V46.6953L152.34 46.4837C152.128 46.2721 151.917 46.0605 151.706 45.8489H151.917H152.128H152.34C153.608 46.2721 153.608 46.2721 154.031 46.0605C154.242 45.8489 154.031 45.4257 154.031 45.2141C154.242 45.2141 154.242 45.2141 154.454 45.2141L154.665 45.0025V44.7909H154.876C154.876 44.3677 154.454 44.1561 154.454 43.7329C154.665 43.7329 154.876 43.7329 155.088 43.5213C155.088 43.3097 154.876 43.0981 154.665 42.8865H154.454V43.0981V43.3097H154.242C153.819 43.3097 153.608 42.8865 153.185 42.8865H152.974C152.34 42.8865 151.917 42.6749 151.494 42.4633C151.283 42.4633 151.283 42.2517 151.283 42.0401C151.494 42.0401 151.706 42.0401 151.706 41.8285C151.706 41.6169 151.706 41.6169 151.494 41.4053C152.128 41.6169 152.551 42.2517 153.185 42.4633L153.397 42.2517L153.185 42.0401C153.397 42.0401 153.608 42.0401 153.608 41.8285C152.34 40.9821 150.86 40.3473 149.592 39.7124V39.5009C150.226 39.7125 150.226 39.7125 150.437 39.9241H150.649L149.803 39.2893L149.592 39.0776C148.958 38.6544 148.746 38.4428 148.324 38.6544V38.8661C148.112 38.8661 148.112 38.8661 147.901 38.8661C147.901 38.8661 147.689 38.6545 147.689 38.4429C147.478 38.2313 147.267 38.2312 147.055 38.2312C147.267 38.2312 147.267 38.2312 147.478 38.2312L148.112 38.6544C148.324 38.6544 148.324 38.6544 148.535 38.6544V39.2893H148.746C148.958 39.2893 148.958 39.2893 149.169 39.2893C148.746 38.866 148.324 38.6545 147.689 38.4429V38.6544C147.267 38.4428 147.055 38.4428 147.055 38.2312C147.267 38.2312 147.478 38.2312 147.689 38.2312L147.478 38.0196H147.689C147.689 38.0196 147.689 38.0197 147.901 37.808C147.055 37.3848 146.21 37.1732 145.364 36.75H145.576L144.73 36.3268C143.885 35.9036 142.828 35.9036 141.982 35.4804L141.771 35.2688H141.559H141.771H141.982L142.616 35.4804H142.828C143.25 35.692 143.885 35.9036 144.307 36.1152L142.194 35.0572C141.982 35.0572 141.982 34.8456 141.771 34.8456H141.559L140.925 34.634H140.714H140.503C140.291 34.634 140.08 34.4224 139.868 34.2108H140.08C140.08 34.2108 139.234 33.7876 138.811 33.9992C139.023 33.9992 139.023 34.2108 139.234 34.2108C138.811 33.9992 138.6 33.9992 138.177 33.7876C138.177 33.7876 138.177 33.7876 136.698 33.1528H136.909C136.698 33.1528 136.486 32.9412 136.275 32.7296C135.429 32.3064 134.584 31.8832 133.527 31.6716H133.316H132.893C132.681 31.6716 132.47 31.46 132.259 31.46H132.681L131.836 31.2484C132.47 30.8252 132.259 30.6136 131.836 30.6136ZM122.324 30.6136L122.112 30.402H121.901L121.69 30.1904L121.478 29.9788H121.267H121.056H120.844C120.844 29.9788 120.844 29.9788 120.633 29.9788H120.421V30.1904L120.21 29.9788C120.21 30.1904 120.21 30.1904 120.21 30.1904L119.999 29.9788H119.787C119.787 29.9788 119.787 29.9788 119.576 30.1904L119.365 29.9788H119.153H118.942H118.519L118.308 30.1904H118.519C118.519 30.1904 118.519 30.1904 118.73 30.402V30.6136H118.519V30.402H118.308V30.1904H118.096V29.9788H117.885C117.674 30.1904 117.674 30.1904 117.462 30.1904H117.251L116.828 30.402L116.617 30.6136H116.405L116.194 30.8252L115.982 31.0368H116.194C115.982 31.2484 115.982 31.2484 116.194 31.2484C116.405 31.2484 116.405 31.46 116.617 31.46L117.039 31.2484L117.251 31.0368H117.462L117.251 31.2484L117.039 31.46L116.828 31.6716C117.462 31.6716 117.462 31.6716 117.885 31.46H118.096H118.519L118.73 31.2484L118.942 31.0368L119.153 30.8252C119.365 30.8252 119.365 30.8252 119.576 30.6136H119.787H119.576L118.942 31.0368H119.153H119.365L119.153 31.2484H118.942H118.73H118.519C118.308 31.2484 118.096 31.2484 117.885 31.46H117.674L117.462 31.6716H117.674V31.8832V32.0948H118.096H117.885H117.674C117.462 31.46 117.462 31.46 117.039 31.46H116.617L116.405 31.6716V31.8832V32.0948L116.617 32.518L116.828 32.7296H117.251C117.039 32.9412 116.828 32.7296 116.828 32.9412L116.617 33.1528L116.405 32.7296H116.194H115.771H115.348L114.926 32.9412L114.714 33.1528L114.503 33.3644H114.714H115.137H115.56L115.137 33.576V33.7876C115.56 33.7876 115.56 33.7876 116.405 33.3644L116.194 33.7876L115.771 33.9992H115.348C115.137 33.9992 114.926 33.7876 114.926 33.7876L114.714 33.576C114.503 33.576 114.291 33.576 114.08 33.576C113.869 34.2108 113.869 34.2108 113.235 34.4224L112.812 34.634V35.0572L113.023 35.2688C113.235 35.2688 113.446 35.0572 113.657 35.0572C113.869 35.0572 114.08 35.2688 114.503 35.2688C114.714 35.2688 114.714 35.0572 114.926 35.0572C114.926 35.2688 114.926 35.2688 115.771 35.0572H116.194C116.194 35.0572 116.194 35.0572 115.982 35.2688C116.194 35.2688 116.405 35.2688 116.617 35.2688H116.828C117.674 34.8456 117.674 34.8456 117.885 34.634V34.4224L117.462 34.634V34.4224H117.885L118.096 33.9992V33.576H118.308C118.942 33.576 118.942 33.576 118.942 33.576C119.153 33.3644 118.942 33.1528 118.942 32.9412H119.365C119.365 32.9412 119.365 32.9412 119.576 32.9412C119.576 32.9412 119.576 32.7296 119.365 32.518C119.153 32.518 118.942 32.3064 118.73 32.3064L118.519 32.518L118.308 32.7296V32.518L118.73 32.3064C118.73 32.3064 118.73 32.3064 118.942 32.0948H119.153V32.3064C119.576 32.3064 119.576 32.3064 119.999 32.0948L119.787 31.8832H120.21L120.421 32.0948H120.633L120.844 31.8832L120.633 31.6716H120.421H121.056V31.46H121.267C121.478 31.2484 121.69 31.2484 121.901 30.8252H122.112L121.901 30.6136L121.69 30.8252C121.478 30.8252 121.478 30.8252 121.267 30.8252V30.6136H121.478H121.901C121.901 30.6136 122.112 30.6136 122.112 30.402H122.324C122.324 30.6136 122.324 30.6136 122.324 30.6136ZM115.771 33.3644C115.771 33.1528 115.982 33.1528 115.982 32.9412C115.56 32.7296 115.56 32.7296 115.56 32.7296V32.518L115.771 32.3064V32.0948C115.56 32.3064 115.56 32.3064 115.56 32.3064L115.771 32.0948C115.771 31.8832 115.56 32.0948 115.56 31.8832C115.56 31.6716 115.56 31.8832 115.56 31.6716C115.56 31.46 115.771 31.46 115.771 31.2484C115.56 31.2484 115.348 31.2484 115.348 31.46H115.56C115.348 31.6716 115.137 31.6716 115.137 31.6716H114.926C114.714 31.6716 114.714 31.6716 114.714 31.8832C114.714 32.0948 114.714 31.8832 114.503 32.0948H114.291H114.08L113.657 32.3064H113.446L113.023 32.518H113.235L112.812 32.7296V32.9412H113.023H113.446H113.869V33.1528C113.657 33.1528 113.657 33.1528 113.446 33.3644H113.235L112.812 33.576V33.7876L112.6 34.2108L113.023 34.4224H113.446L113.657 34.634L113.869 34.4224H114.08C114.08 34.4224 114.08 34.4224 114.291 34.2108L114.503 33.9992L114.714 34.2108L114.926 33.9992C114.926 33.9992 114.926 33.9992 115.137 33.9992C115.348 33.9992 115.56 33.576 115.771 33.3644ZM112.389 35.4804C112.6 35.4804 112.812 35.2688 112.812 35.2688C112.812 35.0572 112.812 35.0572 112.812 34.8456H112.178L111.755 35.2688L112.389 35.4804ZM116.617 38.0196V37.5964L115.982 37.3849L115.348 37.1732L114.714 37.3849L113.869 37.5964H113.235L112.6 37.3849H111.966L111.755 36.9616L111.966 36.5384L112.178 36.1152H111.543H111.121C110.909 36.5384 110.698 36.9617 110.698 37.3849L110.064 37.808V38.2312L110.275 38.6544H111.121L111.755 38.4429C112.178 39.0777 112.178 39.0777 112.812 38.8661H113.869L114.291 38.6544L114.503 38.4429L114.714 38.6544C116.194 38.6544 116.194 38.6544 116.194 38.2312C116.194 38.2312 116.194 38.0196 116.617 38.0196ZM106.048 38.6544H106.47V38.4429L106.048 38.6544ZM108.796 38.4429L109.218 38.0196L109.007 37.808V37.3849H108.584L107.739 37.5964L107.316 38.0196V38.4429H107.739L107.95 38.6544L108.796 38.4429ZM110.064 36.5384L110.698 36.1152L110.909 35.9036V35.4804H110.487L110.275 35.2688H109.852L109.43 35.692L109.641 35.9036L109.852 36.1152L110.064 36.5384ZM111.543 34.8456L111.755 34.634H110.909L110.487 34.8456L110.275 35.0572H110.909H111.332L111.543 34.8456ZM111.543 34.4224L111.755 34.2108V33.9992H111.332V33.7876L110.909 33.9992L110.698 34.2108L110.275 34.634H110.487H110.909L111.543 34.4224ZM111.966 32.7296H112.389L112.812 32.518H112.6L112.178 32.7296H112.389H111.966ZM109.43 34.634L109.852 34.4224L110.275 34.2108V33.9992L110.487 33.7876V33.576V33.3644H110.275L110.487 33.1528V32.9412H110.275L109.641 33.1528L109.43 33.3644H109.641V33.576L109.218 33.7876H109.007L108.796 33.9992H109.007L108.796 34.2108L109.218 33.9992H109.43H109.852L109.641 34.4224L109.43 34.634ZM108.161 34.8456H108.584V34.634H108.161L107.739 34.8456H108.161ZM108.161 36.5384L108.373 36.3268C108.373 36.3268 108.373 36.1152 108.161 36.1152C107.95 36.1152 107.739 36.1152 107.739 36.3268V35.9036H107.316C107.316 36.1152 107.105 37.1732 106.682 36.75L106.893 36.1152H106.47L106.048 36.5384L105.625 36.9616V36.5384L106.048 35.9036L105.836 35.692L105.202 36.1152C105.202 36.1152 104.991 36.3268 104.991 36.5384C104.991 36.75 104.991 36.9616 104.991 37.1732L105.202 37.3849L105.625 37.1732H105.836V37.3849L105.413 38.0196L105.836 37.808H106.259H106.682L107.105 37.3849L107.527 36.9616C107.95 36.75 108.161 36.75 108.161 36.5384ZM104.145 37.5964C104.357 37.3848 104.145 37.3849 104.145 37.3849V37.5964C103.934 37.3848 103.722 37.5964 103.722 37.5964L103.511 38.0196C103.722 38.0196 103.722 38.0196 103.934 38.0196C103.934 37.808 104.145 37.808 104.145 37.5964ZM106.259 35.4804L106.682 35.2688L107.105 34.8456V34.634C106.682 34.634 106.47 35.0572 106.259 35.4804ZM118.096 49.0229L118.519 48.3881L118.096 47.7533C117.674 47.7533 117.251 47.7533 116.828 47.7533C116.617 47.9649 116.405 48.1765 116.194 48.5997L116.617 49.2345H117.462L118.096 49.0229ZM109.007 40.1356C109.218 39.924 109.43 39.7124 109.641 39.7124C109.43 39.5008 109.43 39.5009 109.218 39.5009H108.796L108.373 39.2893C107.527 39.2893 107.527 39.2893 107.527 39.5009C107.316 39.9241 107.105 39.924 106.682 40.1356L106.048 40.9821C105.836 41.4053 105.836 41.6169 105.625 42.0401L106.259 41.8285L106.893 41.4053L107.316 40.7705L107.95 40.9821L108.584 40.5589L109.007 40.1356ZM103.934 42.4633L104.568 41.8285V41.4053V40.9821L104.357 40.7705C105.413 40.3473 105.413 40.3473 105.202 39.7124V39.5009H104.779L104.357 39.9241H104.145V39.2893L103.511 39.5009L103.3 39.9241V40.3473C102.243 41.1937 102.243 41.1937 102.243 40.5589H101.82L101.397 40.9821L101.609 41.4053L101.82 41.6169L102.243 41.8285C102.243 42.0401 102.243 42.2517 102.031 42.4633V42.6749C102.031 42.8865 102.454 43.0981 102.454 43.0981C102.666 42.8865 103.088 42.8865 103.3 42.6749L103.934 42.4633ZM100.763 40.3473L101.397 39.7124V39.5009L100.763 39.2893L100.129 39.5009C100.129 39.7125 100.129 39.9241 100.129 39.9241C100.129 39.9241 100.129 39.9241 100.129 40.5589L100.763 40.3473ZM99.7062 39.7124L100.129 39.2893H99.9176L99.4949 39.5009L99.7062 39.7124ZM106.682 33.7876C107.105 33.576 107.105 33.576 107.105 33.576V33.3644H106.682H106.259L105.413 33.576H105.625H106.259L106.682 33.7876ZM105.625 34.4224L106.048 34.2108H105.836H105.413H104.991L104.357 34.4224L103.722 34.8456H104.145H104.568L104.991 34.634L105.202 34.4224H105.625ZM103.934 34.4224H104.145L104.779 33.9992V33.7876H104.568L104.145 33.9992L103.934 34.4224ZM103.088 37.5964L103.934 36.9616V36.75H103.722L103.3 36.9616L103.088 36.75L103.3 36.3268L103.722 36.1152L104.145 35.692H103.934L103.511 35.9036H103.088L102.877 36.1152C102.877 36.3268 102.877 36.3268 102.031 36.75H102.243C102.031 36.9616 101.82 36.9616 101.609 36.9616H101.186V36.75L101.609 36.3268V36.1152H101.397V35.9036L100.763 36.1152L99.9176 36.5384L99.2835 36.75L98.438 37.1732L97.8038 37.5964H98.2266L98.438 37.808H98.8607H99.4949L99.9176 38.0196H100.34C100.129 38.2312 99.9176 38.2312 99.7062 38.2312H99.2835L98.6493 38.4429L98.2266 38.6544V38.8661H98.8607L99.9176 38.6544L100.763 38.2312H101.186H101.82H102.454L103.088 37.5964ZM102.031 35.4804H102.454L102.877 35.2688H102.454L102.031 35.4804ZM98.0152 36.9616L99.2835 36.3268L98.6493 36.5384L97.8038 36.9616H98.0152ZM102.243 35.0572L103.088 34.634L102.877 34.4224L102.243 34.634H101.82H101.609C100.763 34.8456 99.9176 35.2688 99.2835 35.692H98.8607L98.2266 35.9036L97.8038 36.3268V36.5384L98.438 36.3268L98.2266 36.5384L98.6493 36.3268L99.0721 36.1152H99.2835L99.9176 35.692L100.552 35.4804L100.129 35.9036H100.552L101.186 35.692L102.243 35.0572ZM99.0721 45.2141L99.4949 44.7909L99.2835 44.3677L98.438 43.7329V43.0981L99.0721 42.4633V42.0401L99.7062 41.1937L99.9176 40.5589L99.7062 40.1356H99.0721L98.438 40.7705L98.0152 41.1937L97.5924 41.8285L97.1697 42.0401H96.9583V41.8285L97.3811 41.4053L97.5924 40.9821L97.8038 40.3473H97.3811L96.9583 40.7705L96.7469 41.1937H96.3242L95.9014 41.4053H95.4786L95.9014 40.9821L96.5355 40.5589H96.3242L96.1128 40.3473H95.69L95.0559 40.7705L94.8445 40.5589L95.2673 40.3473L95.9014 39.9241V39.7124H95.4786L94.6331 40.1356L93.999 40.3473L93.3648 40.5589L92.5193 40.7705L91.8852 41.4053L91.0397 41.8285L90.6169 42.0401H91.0397L90.8283 42.4633L91.4624 42.2517H92.0966V42.6749L91.251 42.8865L90.6169 43.0981L89.9828 43.3097L90.1941 43.7329H90.8283H91.6738C91.8852 43.7329 92.0966 43.7329 92.3079 43.7329C92.5193 43.7329 92.5193 43.9445 92.5193 44.1561C92.3079 44.3677 92.3079 44.3677 92.0966 44.5793H91.0397H89.9828L88.9259 45.0025L88.5031 45.8489H89.3486H89.9828L89.56 46.6953L89.7714 47.1185H90.6169H91.4624L92.3079 46.6953L93.1535 46.4837L94.2104 46.0605L94.8445 45.8489V46.0605H95.4786L96.1128 46.6953H96.7469H97.3811L98.0152 46.0605L97.8038 45.6373H98.2266L99.0721 45.2141ZM94.4217 46.9069L94.8445 46.2721L93.5762 46.4837L92.0966 47.1185L92.7307 47.3301L93.5762 46.9069C93.7876 47.1185 94.4217 46.9069 94.4217 46.9069ZM94.8445 39.9241L95.69 39.7124L96.3242 39.2893V38.6544H96.1128L95.2673 38.8661L95.0559 38.6544V38.4429H94.6331H93.7876L93.3648 38.8661L92.5193 39.5009L91.0397 40.3473L88.5031 41.6169L88.9259 42.0401L88.0803 43.0981L89.1372 42.4633H89.7714L90.6169 42.0401C91.6738 41.4053 92.7307 40.7705 93.7876 40.3473L94.8445 39.9241ZM141.771 73.7803L142.194 73.1455L141.559 72.7223L141.771 72.0875L141.559 71.0295H140.08L139.657 70.3946H138.177L137.12 71.0295L136.486 71.4527L135.852 71.2411L136.064 70.3946L137.332 69.9715L138.811 69.5483L139.446 68.9134H138.389L137.332 68.4902L135.852 68.0671L135.007 67.4322L133.95 66.7974L133.527 66.1626L134.161 65.951L134.373 65.5278L133.316 64.4698L132.047 63.2002L130.356 61.0842L129.722 60.0262L128.877 61.2958C128.877 61.719 128.877 61.9306 129.088 62.3538L128.031 62.777L127.397 63.6234H126.34L126.129 62.9886L125.283 62.5654L124.226 62.777L124.438 61.5074V59.8146V58.9682H123.169L122.112 58.3334L121.267 57.487L119.787 56.6406L119.153 57.0638H117.885L117.462 56.6406H115.982L115.348 57.2754L115.771 58.1218L115.56 59.3914V60.2378L115.982 61.2958H114.714V62.3538L114.08 62.9886L114.714 63.4118L115.771 64.2582L115.982 65.7394C115.982 66.1626 115.982 66.7974 115.982 67.4322L115.137 68.4902L113.869 69.3366L112.389 69.5483L113.235 71.0295C113.235 71.6643 113.235 72.2991 113.023 72.7223L113.446 73.7803L113.235 74.6267L112.389 75.6847L110.698 75.8963L109.852 74.4151L108.796 73.1455C108.796 72.7223 108.796 72.5107 109.007 72.0875L108.796 70.6063L109.218 69.3366L107.316 69.1251H105.836L105.202 68.7018L103.511 68.2786L103.088 67.4322L101.82 66.5858L100.552 65.7394L98.438 66.1626L98.2266 65.3162L98.0152 63.6234L97.1697 63.2002L96.7469 62.5654L97.5924 60.4494L99.0721 58.9682L100.34 57.6986L101.609 57.2754L102.666 56.6406L102.454 55.7942L101.186 55.371L99.9176 54.7362L101.609 54.9477L102.877 55.371L103.511 55.1594L103.934 54.313L104.991 54.7362L105.625 54.5245L105.836 53.8897L106.259 53.6782L106.682 52.8317H105.836L104.779 52.6201L104.568 52.1969L103.511 51.7737H104.357L105.413 52.1969L106.048 52.4085L106.893 52.1969L107.739 51.5621L107.316 50.9273H108.161L108.584 51.5621L107.95 52.1969L107.316 53.255C107.105 53.6782 107.105 54.1014 106.893 54.7362L105.836 54.9477V55.5826H106.682C106.682 55.7942 106.682 56.0058 106.682 56.2174C107.105 56.2174 107.527 56.2174 107.95 56.0057L108.373 55.371H109.641L110.275 55.5826L110.909 55.7942H111.966L112.178 54.9477L111.332 54.7362L111.121 53.6782L110.064 53.4665L109.43 52.6201L108.584 52.4085C108.584 52.1969 108.584 51.9853 108.796 51.7737L109.43 51.9853L109.852 51.5621V51.1389H110.698L111.121 50.5041L111.966 49.8693L112.389 49.2345L111.966 48.5997L111.755 47.7533L112.6 47.5417L113.023 46.9069L112.6 46.2721L111.966 45.8489L111.121 45.4257H112.178L112.389 45.0025H113.023L113.446 45.4257H114.291L115.137 45.2141L114.503 44.5793L114.926 44.3677L115.56 45.0025H116.405L116.617 45.6373L117.251 45.8489L117.462 46.2721L118.096 46.4837L118.519 47.1185L119.153 47.3301L119.787 47.9649L119.999 48.8113L119.153 49.6577L118.308 50.5041L118.73 51.3505L117.251 51.5621L116.405 51.3505C116.194 51.3505 115.771 51.3505 115.56 51.3505L114.503 52.1969C114.503 52.4086 114.503 52.8317 114.503 53.0433L115.771 53.255H116.828V52.8317L117.251 52.6201L117.885 52.8317L119.153 53.255L120.421 54.313L120.633 54.9477L121.478 55.7942H123.169L124.438 56.8522H126.129L127.186 57.2754V56.6406L125.283 55.371L124.438 54.7362L124.015 54.1013L125.283 54.7362L127.397 55.7942L128.454 56.429C128.454 56.0058 128.454 55.7942 128.242 55.371L128.665 54.5245L127.608 54.1013L127.186 52.8317L125.917 52.4085L124.226 50.7157L124.649 50.2925L125.072 49.8693L127.186 51.3505L128.031 52.1969L128.877 52.4085V51.3505L129.722 50.9273V50.5041H130.356L130.568 50.0809L130.356 49.4461H129.088C129.088 49.2345 129.088 49.2345 129.088 49.0229L128.242 48.3881H127.608L126.763 47.9649H126.129L125.917 47.5417L125.706 47.1185H124.649H124.226V46.2721H124.86L125.283 45.8489L124.226 45.6373V45.4257H124.649L124.015 45.0025L123.169 44.7909L123.381 44.3677L122.747 44.1561H121.901L121.69 43.7329H121.056H120.844L121.267 43.3097L120.421 43.0981L119.576 43.3097L118.942 42.6749V42.2517V41.8285L118.096 41.6169H117.039L116.828 42.0401H116.194L115.771 41.8285L115.56 42.2517H114.926V41.6169L115.348 41.1937L114.926 40.5589V39.9241H114.08L113.446 40.3473H112.812L112.178 40.5589L111.755 41.1937L111.966 41.8285L111.543 42.2517L111.755 43.0981H111.332L110.909 42.4633L111.121 41.6169L111.332 40.9821L111.966 40.3473L112.6 39.9241H111.755H110.909L109.852 40.5589L108.796 41.6169L108.161 42.8865L108.796 43.0981H109.43V43.7329L108.796 43.5213L107.95 43.7329L108.161 44.3677H109.007L109.43 44.1561L109.852 44.5793L110.909 45.0025L110.275 45.2141L110.064 45.8489L110.487 46.2721L109.43 47.5417L108.796 48.3881L107.95 49.0229L107.527 48.8113V47.7533L108.161 47.1185L107.527 46.0605L106.47 46.9069L106.048 45.4257L105.836 45.2141L106.259 44.5793L106.47 43.7329H106.048L106.259 43.0981L105.836 42.4633H104.991L104.568 42.8865H104.145L103.3 43.5213L103.088 44.1561L102.666 44.5793L102.877 45.4257L103.3 45.8489L102.666 46.4837L102.031 46.2721L101.82 47.1185H102.454L103.511 46.6953C103.3 46.9069 103.3 47.3301 103.088 47.5417L101.186 48.3881L100.763 49.6577L100.129 49.0229L100.763 48.1765H100.129L100.552 47.3301H100.975L101.397 46.2721L100.552 45.6373L99.9176 46.4837L99.0721 46.9069L99.7062 47.7533L98.8607 48.1765L98.2266 48.8113H96.1128L95.4786 48.1765L94.8445 47.9649L94.4217 47.3301L93.3648 47.7533L91.8852 48.1765L91.4624 49.0229L90.4055 50.2925L90.8283 48.8113L90.1941 48.1765L88.9259 48.3881L86.8121 47.9649L87.2348 47.5417L88.2917 47.3301L87.869 46.4837H87.2348L86.1779 45.6373L86.3893 45.0025L85.7552 44.7909H85.3324L84.4869 45.2141H83.8527L84.6983 44.1561L83.43 45.0025L83.0072 44.7909L84.0641 43.5213L83.8527 43.3097L82.5845 44.1561L81.5276 44.5793H80.8934L79.8365 44.7909L78.3569 45.2141L80.0479 44.3677L80.8934 44.1561L81.5276 43.9445L82.1617 43.5213H81.9503L80.8934 43.7329L79.4138 44.1561H78.991H78.5683L76.6658 44.7909L76.0317 44.5793L76.6658 43.7329L75.8203 43.5213L76.0317 43.0981L75.8203 42.8865L74.9748 43.0981L75.1862 42.6749H74.7634V42.2517H74.3407H74.1293C67.5765 46.0605 61.4465 50.7157 55.9506 56.0057L56.7961 55.7942L56.5848 56.2174L55.3165 56.6406L54.471 57.2754L54.0482 57.6986L53.4141 58.3334L55.3165 57.487L56.162 57.2754C56.5848 56.8522 57.0075 56.2174 57.4303 56.0057L57.853 56.2174L57.6417 57.0638V57.9102L57.853 58.3334L58.6986 58.1218L58.9099 58.545H59.3327L59.1213 59.3914L59.3327 60.2378C59.3327 60.661 59.3327 61.0842 59.3327 61.5074C59.5441 61.5074 59.7555 61.2958 59.9668 61.2958V61.9306L59.7555 62.777L60.3896 63.2002L59.7555 64.0466L60.1782 64.6814L59.5441 65.3162L59.7555 65.7394L60.1782 65.951L59.5441 66.7974L59.3327 67.8554L58.6986 68.9134L58.2758 69.9715L58.9099 70.1831L58.4872 71.4527L58.6986 72.7223L58.4872 73.5687L58.9099 74.2035L59.5441 74.6267L60.1782 75.0499L59.9668 75.6847L60.601 76.5311L61.0237 77.3775L60.8124 79.0703L60.1782 80.3399L59.9668 79.4935L59.7555 78.4355L59.9668 77.8007L59.5441 77.1659L59.1213 76.9543L59.5441 75.8963H58.9099L58.6986 75.2615L58.4872 75.0499L58.0644 74.8383H57.4303V75.6847L57.6417 76.3195L57.853 77.1659L58.4872 78.4355L58.2758 79.7051L58.0644 81.3979L57.4303 82.6675L56.5848 84.3604C56.3734 84.9952 56.162 85.63 55.7392 86.4764L55.1051 86.8996L54.6823 88.1692V89.6504L54.0482 90.92L53.8368 91.978L54.0482 93.036L53.6254 94.5172L53.8368 95.7868L54.471 96.8448V98.9608L54.8937 99.8073V100.865L55.3165 102.135H56.3734L57.0075 102.981L58.0644 103.828L58.6986 104.886V106.155L58.9099 107.425L59.1213 109.753L59.7555 110.811L60.601 111.869L60.8124 112.715L59.9668 113.35L60.3896 114.196L61.2351 115.043L62.292 116.101L62.9262 117.159L62.7148 118.005L62.9262 118.64L63.983 119.063L64.8286 120.121L65.4627 120.967V122.025L66.0968 121.814L66.3082 120.756L65.8855 119.486L65.0399 119.063V118.005L64.1944 117.159L63.983 115.677L63.7717 114.408L62.9262 113.35L62.7148 112.08L61.8693 111.657L61.6579 109.964L60.8124 108.695L61.0237 107.002H61.8693L62.9262 107.637L63.3489 108.695L63.1375 110.176L63.983 112.292L65.0399 113.985L66.0968 115.254L66.731 116.312V117.582L67.9993 118.428L68.8448 119.698L69.4789 120.967L70.9586 122.872L71.3813 124.353L72.2269 125.199L71.3813 125.834L71.17 126.892L72.861 128.373L74.1293 129.643L75.8203 130.278L77.5114 131.547L79.6252 132.605L81.9503 133.875L83.8527 134.51H85.121L85.5438 133.875L86.8121 133.663L88.2917 134.51L89.9828 135.991L90.8283 137.049H92.3079H93.5762L94.4217 137.472L95.2673 138.742L96.9583 139.377V138.53L98.0152 138.954C100.975 142.762 100.975 142.762 100.763 143.609L101.397 144.244L102.031 144.032L103.088 144.455C104.991 146.148 104.991 146.148 105.836 146.148L108.161 147.418L109.43 148.052V146.783L110.064 145.936L112.389 146.148L112.6 146.994H113.235L113.657 145.936L112.812 144.878H110.487H109.007L106.682 144.667L105.625 144.032L104.145 142.551V141.281V138.742L104.568 136.626C104.568 136.203 104.568 135.779 104.568 135.145L103.934 134.087L102.454 133.24L100.34 133.452L98.6493 133.029L96.9583 133.663L95.9014 132.817L96.9583 131.971V130.489L97.3811 129.643L98.0152 128.162C98.0152 127.527 98.0152 127.104 98.0152 126.469L98.8607 125.834L99.0721 124.565L98.438 124.141L96.1128 124.353L94.6331 124.565L93.999 125.623L93.3648 127.315L92.7307 128.797L91.4624 129.008L89.7714 129.431L87.869 129.643L87.0234 128.373L85.5438 127.527L85.121 126.257L84.0641 124.565L83.6414 121.602L83.43 119.486L84.2755 117.793L84.6983 115.889L84.0641 113.985L85.5438 112.292H86.6007L87.869 111.445L89.1372 110.387L90.6169 110.599L91.6738 111.022L92.5193 110.599L93.1535 111.657H94.4217H95.4786L95.2673 110.811L95.69 109.541H97.3811L98.6493 109.329L100.763 109.541L101.609 110.599H102.031L102.454 109.964L103.088 109.753L104.145 110.811L104.991 112.08V113.35L105.413 114.196L105.625 115.043L106.259 115.677L106.682 116.735L107.527 117.159V118.217L108.373 118.428L108.796 117.793L109.218 116.735L108.796 115.466L108.373 113.35L107.316 111.445C107.316 110.599 107.316 109.964 107.527 108.695C107.739 108.271 107.95 107.848 107.95 107.425L109.007 105.732L110.275 105.309L111.966 104.039L113.446 102.981L114.926 102.346L115.137 101.288L116.194 100.654L115.348 98.9608L114.714 98.1144L115.137 97.268L114.503 96.4216L115.56 95.9984L116.405 97.268L117.039 95.9984L117.674 94.9404L118.308 94.3056L118.942 92.1896H121.056L122.324 91.5548L123.804 91.3432L123.381 90.4968V88.5924L124.438 87.3228H125.706L126.129 86.4764H127.397L128.665 85.6299L129.511 84.5719C131.836 84.5719 131.836 84.5719 133.104 84.7835L132.681 85.2067C132.047 85.2067 131.413 85.2067 130.779 85.2067L129.722 86.0532C129.722 86.4764 129.722 86.8996 129.934 87.1112L130.779 87.5344L131.625 86.8996L132.259 86.4764L133.527 86.0532L134.795 85.4184L136.064 85.2067L136.909 83.9372L137.755 83.0907V82.0327L136.486 82.4559L135.641 83.9372H133.95L132.681 83.3023L131.202 82.2443L130.356 80.5515L131.413 79.7051L131.202 78.4355L129.511 78.2239L127.608 78.8587L125.495 80.1283L123.592 82.0327L121.901 83.0907L122.535 82.0327L123.592 80.9747L124.226 80.3399L122.535 79.9167H124.649L125.072 78.8587L126.129 78.0123H127.397L127.82 76.9543L128.877 76.5311H130.568L133.738 76.3195L135.429 76.5311H136.698L137.755 75.6847L138.6 74.4151L140.503 74.2035L141.771 73.7803Z" fill="#5B5480"/>
<path d="M167.981 107.848C152.762 124.776 136.485 140.646 119.152 155.458C110.486 162.865 101.608 169.847 92.5183 176.83C83.4289 183.813 74.1282 190.161 64.4048 196.298C59.543 199.26 54.6813 202.222 49.6082 204.973C44.5351 207.724 39.462 210.263 34.1775 212.591C28.6816 214.918 23.1857 216.823 17.2671 217.881C14.0964 218.516 10.9257 218.516 7.75499 217.881C6.06396 217.458 4.37292 216.611 3.10464 215.342C1.83636 214.072 0.779463 212.379 0.356703 210.475C-0.277436 207.301 -0.0660562 204.127 0.990843 200.953C1.83636 198.202 2.89326 195.24 4.16154 192.7C6.6981 187.622 9.65741 182.543 13.0395 177.888C19.5923 168.578 26.9906 159.69 34.8116 151.438C28.0474 160.537 21.2833 169.636 15.3647 179.369C12.4053 184.025 9.86879 189.103 7.54361 194.182C6.48672 196.721 5.6412 199.26 5.00706 201.799C4.37292 204.127 4.16154 206.666 4.79568 209.205C5.00706 210.052 5.6412 211.11 6.27534 211.744C7.12085 212.379 7.96637 212.802 9.02327 213.014C11.5598 213.437 14.0964 213.437 16.4216 212.802C21.7061 211.533 26.9906 209.84 31.8523 207.512C41.9985 202.857 51.9334 197.567 61.2341 191.431C70.7462 185.506 80.0469 179.158 89.1362 172.387C98.2255 165.827 107.315 158.844 116.193 151.861C133.949 137.896 151.07 123.083 167.981 107.848Z" fill="#ED6E48"/>
<path d="M201.8 98.1145C198.206 101.289 189.751 97.4797 182.987 89.6504C176.223 81.8212 173.686 72.9339 177.28 69.7599L217.865 34.4225L242.385 62.7771L201.8 98.1145Z" fill="#F1886A"/>
<path d="M242.389 62.5654C238.795 65.7394 231.82 60.661 225.056 52.8317C218.291 45.0025 214.275 37.3848 217.869 34.2108C225.901 27.228 249.998 31.0368 249.998 31.0368C249.998 31.0368 250.421 55.5826 242.389 62.5654Z" fill="#F1886A"/>
<path d="M218.288 107.213C223.784 102.558 225.686 77.3776 225.686 77.3776L196.305 102.77L207.931 116.101L218.288 107.213Z" fill="#F1886A"/>
<path d="M204.538 95.5829L196.242 102.802L207.892 116.217L216.187 108.997L204.538 95.5829Z" fill="#EA5835"/>
<path d="M170.514 51.9853C176.01 47.3301 201.164 49.0229 201.164 49.0229L171.782 74.6267L160.156 61.2958L170.514 51.9853Z" fill="#F1886A"/>
<path d="M168.233 53.9825L159.938 61.2018L171.587 74.6162L179.883 67.397L168.233 53.9825Z" fill="#EA5835"/>
<path d="M202.014 96.6332C201.379 96.6332 200.534 96.6332 199.9 96.6332C199.477 96.6332 199.054 96.4216 198.843 96.4216C197.997 96.21 197.152 95.9984 196.306 95.5752C192.29 93.4592 188.697 90.7084 185.737 87.3228C182.778 83.9372 180.453 79.9167 178.973 75.6847C178.762 74.8383 178.55 73.9919 178.339 73.1455C178.339 72.7223 178.339 72.2991 178.339 71.8759C178.339 71.2411 178.339 70.3947 178.55 69.7599C178.55 69.5483 178.762 69.1251 178.973 68.9135C179.185 68.2787 179.607 67.8555 180.03 67.4323L172.42 74.2035C168.827 77.3775 171.364 86.2648 178.128 94.094C184.892 101.923 193.347 105.732 196.94 102.558L204.55 95.7868C204.127 96.21 203.705 96.4216 203.071 96.6332C202.648 96.6332 202.436 96.6332 202.014 96.6332Z" fill="#EA5835"/>
<path d="M216.178 84.3603C215.544 84.3603 214.698 84.3603 214.064 84.3603C213.641 84.3603 213.218 84.1487 213.007 84.1487C212.161 83.9371 211.316 83.7255 210.47 83.3023C206.454 81.1863 202.861 78.4355 199.901 74.8383C196.942 71.4527 194.617 67.4322 193.137 63.2002C192.926 62.3538 192.715 61.5074 192.503 60.661C192.503 60.2378 192.503 59.8146 192.503 59.3914C192.503 58.7566 192.503 57.9102 192.715 57.2754C192.715 57.0638 192.926 56.6406 193.137 56.429C193.349 55.7942 193.771 55.371 194.194 54.9478L186.585 61.719C182.991 64.893 185.528 73.7803 192.292 81.6095C199.056 89.4388 207.511 93.2476 211.105 90.0736L218.714 83.3023C218.291 83.7255 217.657 83.9371 217.235 84.1487C216.812 84.3603 216.389 84.3603 216.178 84.3603Z" fill="#EA5835"/>
<path d="M230.334 72.0875C229.7 72.0875 228.855 72.0875 228.221 72.0875C227.798 72.0875 227.375 71.8759 227.164 71.8759C226.318 71.6643 225.473 71.4527 224.627 71.0295C220.611 69.125 217.017 66.1626 214.058 62.777C211.099 59.3914 208.774 55.371 207.294 51.1389C207.083 50.2925 206.871 49.4461 206.66 48.5997C206.66 48.1765 206.66 47.7533 206.66 47.3301C206.66 46.6953 206.66 45.8489 206.871 45.2141C206.871 45.0025 207.083 44.5793 207.083 44.3677C207.294 43.7329 207.717 43.3097 208.139 42.8865L200.53 49.6577C196.936 52.8317 199.473 61.719 206.237 69.5482C213.001 77.3775 221.456 81.1863 225.05 78.0123L232.66 71.2411C232.237 71.6643 231.603 71.8759 231.18 72.0875C230.969 72.0875 230.546 72.0875 230.334 72.0875Z" fill="#EA5835"/>
</g>
<defs>
<clipPath id="clip0_2112_5883">
<rect width="250" height="190" fill="white" transform="translate(0 30)"/>
</clipPath>
</defs>
</svg>
