<svg width="250" height="250" viewBox="0 0 250 250" fill="none" xmlns="http://www.w3.org/2000/svg">
<path d="M127.701 103.204C126.274 102.918 124.823 102.774 123.368 102.774C120.036 102.774 116.747 103.534 113.747 104.995C110.747 106.457 108.113 108.584 106.043 111.216C103.972 113.849 102.519 116.919 101.791 120.197C101.063 123.475 101.079 126.877 101.838 130.148L78.9053 169.904L118.339 146.783C121.942 147.633 125.7 147.558 129.267 146.565C132.834 145.571 136.097 143.691 138.756 141.096C141.416 138.502 143.387 135.276 144.489 131.714C145.591 128.152 145.789 124.369 145.064 120.71L167.846 80.2352L127.701 103.204ZM129.736 131.483C128.478 132.751 126.876 133.615 125.131 133.965C123.386 134.315 121.577 134.135 119.933 133.449C118.289 132.762 116.884 131.6 115.896 130.108C114.907 128.617 114.38 126.863 114.38 125.069C114.38 123.276 114.907 121.522 115.896 120.031C116.884 118.539 118.289 117.377 119.933 116.69C121.577 116.004 123.386 115.824 125.131 116.174C126.876 116.524 128.478 117.388 129.736 118.656C130.572 119.498 131.235 120.498 131.687 121.599C132.139 122.699 132.371 123.878 132.371 125.069C132.371 126.261 132.139 127.44 131.687 128.54C131.235 129.641 130.572 130.641 129.736 131.483Z" fill="#5C7642"/>
<path d="M110.399 38.0908V23.5282C65.4025 29.41 32.3325 65.5366 27.0496 111.99H42.2733C47.0823 73.8141 72.7823 43.7528 110.399 38.0908V38.0908ZM110.403 226.62V212.043C72.7798 206.383 47.0823 176.324 42.2728 138.149H27.0439C32.2982 184.623 65.2074 220.762 110.403 226.62V226.62ZM136.35 212.042V226.619C181.545 220.759 214.453 184.621 219.706 138.149H204.477C199.668 176.323 173.969 206.381 136.35 212.042ZM136.346 23.5282V38.0908C173.969 43.7534 199.666 73.8141 204.476 111.99H219.7C214.418 65.5366 181.348 29.41 136.346 23.5282V23.5282Z" fill="#4B4C4D"/>
</svg>
