<svg width="250" height="250" viewBox="0 0 250 250" fill="none" xmlns="http://www.w3.org/2000/svg">
<path fill-rule="evenodd" clip-rule="evenodd" d="M75.4707 195.266C77.8015 202.468 82.2688 218.429 79.938 226.02C77.6072 233.416 70.4207 228.939 67.7015 226.02C66.7303 225.046 66.1477 224.852 65.565 224.073C63.8169 222.516 59.3496 217.066 57.9899 215.314L51.3861 205.388C50.8034 204.414 50.4149 203.83 49.8322 202.857L39.9265 184.366C37.4015 178.527 34.8765 173.077 32.7399 167.043C31.5746 163.929 29.6323 157.895 28.6611 154.78C27.3015 149.525 20.3091 121.107 33.9053 127.141C35.8476 127.92 37.2073 129.282 38.5669 130.645C39.9265 131.813 43.6168 135.511 44.588 136.873C45.9476 138.625 48.8611 142.323 49.8322 143.88C50.6092 145.243 55.6592 152.055 56.0476 153.613L51.7745 148.357C44.9765 140.182 37.9842 138.43 39.9265 151.471C40.8977 157.505 41.8687 161.204 43.6168 166.848L46.3361 173.855C47.113 176.191 48.2784 178.138 49.2496 180.279C53.3284 189.427 59.9322 201.105 67.313 207.723C74.888 214.341 76.4419 208.113 75.4707 200.521L73.9169 192.736C74.6938 192.93 75.2765 194.682 75.4707 195.266ZM173.751 72.4465C173.363 71.2786 171.421 68.5536 170.644 67.1911C162.098 53.3714 152.969 40.7197 141.315 29.0411C140.732 28.2625 140.15 27.8733 139.178 27.0947C136.265 24.175 130.438 19.8929 126.553 18.3358C125.388 17.7518 124.028 17.5572 122.669 17.3625H119.95C117.425 17.7518 115.482 18.9197 114.123 20.6714C111.598 24.5643 111.015 28.4571 110.626 34.1018C110.238 36.8268 111.015 47.1429 111.403 49.8679C112.375 56.875 115.288 70.1108 117.425 77.5072C119.367 83.5411 121.503 90.7429 123.64 96.5822C126.553 104.952 129.855 112.543 133.157 120.913C133.934 123.054 134.905 124.805 135.682 126.752C138.401 133.759 145.976 148.746 149.278 155.364C151.998 160.62 158.407 171.909 161.515 176.775L167.925 187.091C171.809 193.514 179.19 203.052 184.046 208.891C187.348 212.979 190.455 216.288 194.146 219.986C198.807 224.657 213.957 237.698 220.95 227.771C223.863 223.489 223.669 219.207 224.446 214.341C224.834 211.421 224.251 208.891 224.251 206.166C224.251 204.025 223.863 200.911 223.475 198.77C222.892 194.877 220.95 184.561 220.173 181.057L217.453 171.13C217.065 169.184 212.403 153.418 211.044 152.055L212.986 160.23C214.54 166.848 218.813 190.789 208.713 190.789C204.828 190.984 201.138 188.064 198.419 186.118C195.7 183.977 192.009 180.084 189.873 177.359C188.125 175.218 185.794 172.688 184.24 170.352L180.161 164.513C178.025 161.593 176.082 158.673 174.334 155.559C173.169 153.418 172.003 151.277 170.644 149.33C167.73 144.854 163.263 134.927 160.544 129.671L155.882 119.355C154.717 117.214 149.473 103.589 148.696 101.448L146.171 93.8572C143.84 86.85 141.509 77.1179 140.538 69.7215C139.761 64.0768 139.373 56.6804 141.509 52.2036C141.898 51.2304 142.869 49.8679 143.646 49.4786C151.026 44.8072 164.623 60.9626 169.09 66.9965C170.061 67.7751 172.975 71.8625 173.751 72.4465ZM134.323 175.802L136.653 187.48C137.236 191.568 137.43 197.407 136.071 200.327C132.38 208.113 121.309 196.045 119.367 193.514C117.23 190.789 115.677 189.038 113.152 185.534C112.18 184.171 111.209 182.614 110.238 181.252C108.296 178.332 106.742 175.413 104.994 172.298C104.023 170.546 103.246 169.573 102.469 167.627L96.4476 155.754C94.5053 151.666 92.7572 147.384 91.2034 143.102C88.0957 135.121 86.3476 129.477 84.4053 121.107C83.2399 116.436 81.6861 106.898 84.2111 102.421C86.3476 98.1393 91.2035 100.67 93.7285 102.616C101.109 108.261 106.353 117.02 107.325 117.798C107.13 116.63 105.771 115.073 105.382 114.1L100.527 106.704C98.9727 104.368 94.6996 98.334 92.7573 96.1929C89.6496 92.3 88.8726 91.7161 86.3476 88.7964C82.2687 83.7357 70.6149 73.4197 64.788 79.4536C60.7092 83.7358 61.4861 94.6358 62.0687 100.086C64.5937 116.825 70.4207 136.095 77.413 151.861C81.1034 160.425 83.0457 164.513 87.1246 172.688C91.5919 181.446 94.8938 187.091 100.332 196.239C101.886 198.77 103.44 201.3 104.994 203.441L110.044 210.643C111.792 212.979 116.259 218.623 118.396 220.764C122.475 225.046 130.244 233.027 137.042 232.638C146.559 232.054 144.034 211.616 142.675 204.609C141.315 198.186 138.401 185.534 136.265 180.279L135.294 176.97C134.711 176.191 134.711 176.386 134.323 175.802ZM166.953 98.9179C166.953 110.596 183.463 142.323 187.93 142.323C191.427 142.323 187.542 130.061 186.959 128.504L183.269 118.966C182.686 117.798 182.298 117.214 181.715 116.046C178.801 110.207 175.694 104.757 171.421 99.8911C170.838 98.7233 166.953 95.2197 166.953 98.9179ZM104.023 137.263C104.023 143.686 114.317 165.291 117.813 165.291C121.698 165.291 114.511 149.136 113.346 146.605C111.986 144.27 108.102 137.652 105.965 136.484C105.188 136.289 104.023 136.484 104.023 137.263ZM54.1053 168.211C54.1053 170.936 56.4361 175.996 57.4073 177.943C57.6015 178.721 57.7957 179.305 58.3784 180.084C58.9611 181.057 60.9034 184.366 61.8746 184.561C65.1765 185.534 59.5438 172.104 56.0476 168.405C55.6592 168.016 54.1053 167.043 54.1053 168.211ZM134.323 175.802V174.829H133.934C133.934 176.386 133.934 175.218 134.323 175.802ZM106.936 117.798V118.188L107.325 117.798H106.936ZM173.946 72.4465H173.557H173.946ZM173.946 73.225V72.4465V73.225Z" fill="#FF9E00"/>
</svg>
