<svg width="250" height="250" viewBox="0 0 250 250" fill="none" xmlns="http://www.w3.org/2000/svg">
<g clip-path="url(#clip0_2153_3830)">
<path d="M189.85 29H60.1501C42.9464 29 29 42.9464 29 60.1501V189.85C29 207.054 42.9464 221 60.1501 221H189.85C207.054 221 221 207.054 221 189.85V60.1501C221 42.9464 207.054 29 189.85 29Z" fill="#FF7962"/>
<path d="M216.392 95.816V90.5783C216.393 85.3991 215.374 80.2704 213.393 75.4853C211.411 70.7001 208.506 66.3522 204.844 62.69C201.182 59.0278 196.834 56.1229 192.049 54.1414C187.263 52.1598 182.135 51.1405 176.956 51.1415H72.93C62.5059 51.1435 52.5089 55.2838 45.1358 62.6526C37.7627 70.0214 33.6165 80.0159 33.6084 90.44C33.6084 96.4842 36.0506 105.255 40.0135 112.512C43.9764 119.77 49.4522 125.507 55.4964 125.507C43.4081 125.53 33.6084 144.254 33.6084 156.35C33.6145 167.622 38.0951 178.431 46.0657 186.401C54.0363 194.372 64.845 198.852 76.1172 198.859H174.682C180.16 198.86 185.584 197.781 190.645 195.686C195.706 193.59 200.305 190.518 204.178 186.644C208.051 182.771 211.124 178.172 213.219 173.111C215.315 168.051 216.393 162.626 216.392 157.149V155.29C216.392 144.63 207.752 125.53 197.093 125.53C207.752 125.53 216.392 106.437 216.392 95.816ZM86.7463 182.915H73.9361C70.8705 182.915 67.835 182.311 65.0032 181.137C62.1714 179.962 59.5988 178.242 57.4325 176.073C55.2663 173.903 53.5489 171.329 52.3785 168.495C51.2082 165.662 50.6079 162.626 50.6119 159.56V155.451C50.6119 149.481 52.9835 143.756 57.205 139.534C61.4264 135.313 67.152 132.941 73.122 132.941H86.7463V182.915ZM86.7463 117.028H73.483C70.4789 117.03 67.504 116.44 64.7282 115.291C61.9524 114.143 59.4304 112.458 57.3062 110.334C55.182 108.21 53.4974 105.688 52.3488 102.912C51.2001 100.136 50.6099 97.1612 50.6119 94.1572V89.7181C50.614 83.7161 52.9991 77.9605 57.2432 73.7164C61.4873 69.4724 67.2429 67.0872 73.2449 67.0852H86.7463V117.028ZM148.378 182.915H102.682V67.0852H148.378V182.915ZM200.449 156.803V159.107C200.449 165.421 197.94 171.477 193.476 175.942C189.011 180.407 182.955 182.915 176.641 182.915H164.353V132.995H176.641C182.952 132.995 189.006 135.501 193.47 139.963C197.935 144.424 200.445 150.476 200.449 156.788V156.803ZM200.449 96.1924C200.451 98.9305 199.913 101.642 198.866 104.172C197.82 106.703 196.285 109.002 194.349 110.938C192.413 112.875 190.114 114.411 187.585 115.458C185.055 116.506 182.343 117.045 179.605 117.044H164.322V67.1236H178.914C184.629 67.1236 190.111 69.394 194.152 73.4354C198.194 77.4769 200.464 82.9582 200.464 88.6736L200.449 96.1924Z" fill="white"/>
</g>
<defs>
<clipPath id="clip0_2153_3830">
<rect width="192" height="192" fill="white" transform="translate(29 29)"/>
</clipPath>
</defs>
</svg>
