<svg width="250" height="250" viewBox="0 0 250 250" fill="none" xmlns="http://www.w3.org/2000/svg">
<path d="M217.644 115.533C209.824 105.998 199.41 98.946 187.622 95.2892C187.622 95.028 187.622 94.7667 187.622 94.5708C187.622 59.8307 159.624 31.6861 124.991 31.6208C90.35 31.6208 62.2893 59.7002 62.218 94.4402V94.5056C62.218 94.7667 62.218 95.0932 62.218 95.3545C29.2085 105.803 10.849 141.13 21.2637 174.238C31.6873 207.346 66.9081 225.761 99.9176 215.312C109.423 212.309 118.018 207.085 125.116 200.098C149.664 224.585 189.316 224.454 213.739 199.836C236.521 176.98 238.153 140.478 217.644 115.533ZM169.138 202.448C143.217 202.383 122.254 181.356 122.254 155.431C122.254 151.056 118.741 147.53 114.372 147.53C110.011 147.53 106.498 151.056 106.498 155.431C106.498 166.729 109.494 177.895 115.29 187.624C97.5725 206.562 67.8889 207.477 49.0034 189.649C30.1179 171.887 29.2085 142.11 46.9883 123.172C59.8818 109.46 79.6679 104.758 97.314 111.223L97.5102 111.288C99.2668 111.876 101.87 113.116 102.655 113.769C105.972 116.642 110.921 116.25 113.792 112.92C116.654 109.59 116.262 104.627 112.945 101.754C109.494 98.8154 104.019 96.7911 102.718 96.334C95.816 93.7872 88.4597 92.4812 81.1034 92.4812C80.0602 92.4812 79.0883 92.4812 78.1074 92.5466C79.2131 66.6221 101.095 46.5094 127.007 47.6195C152.856 48.7296 172.909 70.6707 171.804 96.6605C171.153 111.157 163.921 124.479 152.205 132.902C148.62 135.449 147.845 140.412 150.386 143.938C152.918 147.53 157.867 148.314 161.389 145.767C173.106 137.343 181.639 125.132 185.473 111.223C209.762 120.235 222.201 147.268 213.275 171.626C206.374 190.171 188.799 202.448 169.138 202.448Z" fill="#F3702A"/>
</svg>
