<svg width="250" height="250" viewBox="0 0 250 250" fill="none" xmlns="http://www.w3.org/2000/svg">
<g clip-path="url(#clip0_2112_5323)">
<path d="M82.054 37.9823C88.7109 41.6598 95 46.3133 100.378 51.4897C109.041 49.9299 117.966 49.1455 127.032 49.1455C154.15 49.1455 179.867 56.2217 199.426 69.0756C209.561 75.7335 217.61 83.6375 223.356 92.5612C229.759 102.504 233 113.197 233 124.657C233 135.811 229.759 146.504 223.356 156.447C217.61 165.38 209.552 173.275 199.426 179.933C179.858 192.787 154.15 199.863 127.032 199.863C117.975 199.863 109.041 199.078 100.378 197.519C95 202.686 88.7109 207.349 82.054 211.026C46.492 228.751 17 211.444 17 211.444C17 211.444 44.4161 188.281 39.9577 167.976C27.6861 155.462 21.0467 140.378 21.0467 124.36C21.0467 108.648 27.6949 93.5633 39.9577 81.0493C44.4161 60.7358 17.0088 37.5814 17 37.5727C17.0088 37.564 46.5007 20.2657 82.054 37.9823Z" fill="#DB2323"/>
<path d="M60.8063 159.733C48.6048 150.147 41.2734 137.885 41.2734 124.517C41.2734 93.8424 79.8486 68.9712 127.428 68.9712C175.008 68.9712 213.583 93.8424 213.583 124.517C213.583 155.192 175.008 180.064 127.428 180.064C115.7 180.064 104.523 178.556 94.3274 175.82L86.8734 182.983C82.8267 186.87 78.0793 190.39 73.1391 193.17C66.5873 196.377 60.1143 198.129 53.7026 198.66C54.0618 198.007 54.3946 197.344 54.7537 196.691C62.2253 182.974 64.2399 170.661 60.8063 159.733Z" fill="white"/>
<path d="M86.2076 136.918C79.2003 136.918 73.5156 131.28 73.5156 124.326C73.5156 117.372 79.2003 111.742 86.2076 111.742C93.2149 111.742 98.8996 117.38 98.8996 124.334C98.9083 131.28 93.2236 136.918 86.2076 136.918ZM127.086 136.918C120.079 136.918 114.394 131.28 114.394 124.326C114.394 117.372 120.079 111.742 127.086 111.742C134.094 111.742 139.778 117.38 139.778 124.334C139.778 131.28 134.094 136.918 127.086 136.918ZM167.956 136.918C160.94 136.918 155.265 131.28 155.265 124.326C155.265 117.372 160.949 111.742 167.956 111.742C174.964 111.742 180.648 117.38 180.648 124.334C180.648 131.28 174.964 136.918 167.956 136.918Z" fill="#DB2323"/>
</g>
<defs>
<clipPath id="clip0_2112_5323">
<rect width="216" height="189" fill="white" transform="translate(17 30)"/>
</clipPath>
</defs>
</svg>
