<svg width="250" height="250" viewBox="0 0 250 250" fill="none" xmlns="http://www.w3.org/2000/svg">
<g clip-path="url(#clip0_1789_6940)">
<g clip-path="url(#clip1_1789_6940)">
<path d="M134.981 109.927C126.598 109.927 119.779 116.673 119.779 124.964C119.779 133.255 126.598 140 134.981 140C143.364 140 150.185 133.255 150.185 124.964C150.185 116.673 143.364 109.927 134.981 109.927ZM134.981 151.898C119.966 151.898 107.75 139.815 107.75 124.964C107.75 110.112 119.966 98.0301 134.981 98.0301C149.997 98.0301 162.213 110.112 162.213 124.964C162.213 139.815 149.997 151.898 134.981 151.898Z" fill="#3B455A"/>
<path d="M57.639 98.0188H65.8965C66.9957 98.0188 67.8867 98.9001 67.8867 99.9873V128.617C67.8867 135.17 69.5948 139.896 76.3269 139.896C86.1549 139.896 91.0687 134.42 91.0687 121.433V99.9873C91.0687 98.9001 91.9594 98.0188 93.0586 98.0188H101.241C102.34 98.0188 103.231 98.9001 103.231 99.9873V149.94C103.231 151.028 102.34 151.909 101.241 151.909H93.0586C91.9594 151.909 91.0687 151.028 91.0687 149.94V144.912C88.3982 150.513 81.9863 151.865 72.6915 151.865C61.0466 151.865 55.6484 146.053 55.6484 131.365V99.9873C55.6484 98.9001 56.5396 98.0188 57.639 98.0188Z" fill="#3B455A"/>
<path d="M168.78 98.0207H176.962C178.061 98.0207 178.952 98.9022 178.952 99.9895V105.018C178.952 105.018 180.604 98.1379 195.628 98.0168C197.782 97.9996 198.058 98.9921 197.91 100.155L196.838 108.614C196.838 109.697 195.93 110.573 194.836 110.519C194.467 110.501 194.062 110.489 193.633 110.489C187.863 110.489 182.673 114.299 180.11 122.329C179.256 124.971 178.935 127.93 178.935 131.099V149.943C178.935 151.03 178.044 151.911 176.945 151.911H168.78C167.68 151.911 166.789 151.03 166.789 149.943V99.9895C166.789 98.9022 167.68 98.0207 168.78 98.0207Z" fill="#3B455A"/>
<path d="M208.406 125.011C208.446 116.764 215.365 110.086 223.808 110.147C231.996 110.205 238.714 116.994 238.67 125.166C238.718 133.641 231.421 139.881 223.362 139.734C215.084 139.582 208.365 133.237 208.406 125.011ZM250.94 123.936C250.644 117.259 248.153 111.43 243.471 106.5C234.496 97.051 220.389 95.539 209.778 101.667C200.075 107.27 194.14 119.013 196.656 130.361C202.678 157.519 233.161 155.054 238.772 144.893C238.874 144.848 238.853 149.89 238.853 149.89C238.853 150.995 239.988 151.89 241.105 151.89H248.978C250.094 151.89 250.999 150.995 250.999 149.89C250.999 149.89 250.96 123.94 250.94 123.936Z" fill="#3B455A"/>
<path d="M56.8686 150.563C56.8634 150.559 56.858 150.554 56.8527 150.549C56.8437 150.541 56.8342 150.533 56.8245 150.526C54.057 148.466 53.1015 144.773 51.7649 140.381C51.6672 140.06 51.366 139.837 51.0275 139.838L23.0386 139.931C22.3866 139.933 22.026 139.184 22.4385 138.685L50.6429 105.845C50.9421 105.496 51.1067 105.054 51.1067 104.596V99.9157C51.1067 98.6817 50.1132 98.0089 48.3307 98.0089H3.0709C1.69443 98.0089 0.578594 99.1125 0.578594 100.474V107.626C0.578594 108.988 1.69443 110.091 3.0709 110.091H15.6217V110.077H29.2663C29.9125 110.077 30.2724 110.816 29.8703 111.316L4.21531 141.053C1.89534 143.66 -0.468117 146.22 0.0800673 149.056C0.242348 149.897 0.616892 150.674 1.14723 151.333C1.45069 151.71 1.92228 151.919 2.40977 151.919L56.3588 151.899C57.0698 151.899 57.3957 151.036 56.8686 150.563Z" fill="#3B455A"/>
</g>
</g>
<defs>
<clipPath id="clip0_1789_6940">
<rect width="250" height="250" fill="white"/>
</clipPath>
<clipPath id="clip1_1789_6940">
<rect width="251" height="54" fill="white" transform="translate(0 98)"/>
</clipPath>
</defs>
</svg>
