<svg width="250" height="250" viewBox="0 0 250 250" fill="none" xmlns="http://www.w3.org/2000/svg">
<g clip-path="url(#clip0_1789_7009)">
<path d="M124.895 195.728C85.8913 195.728 54.272 164.109 54.272 125.106C54.272 86.1018 85.8913 54.4833 124.895 54.4833C163.898 54.4833 195.517 86.1018 195.517 125.106C195.517 164.109 163.898 195.728 124.895 195.728ZM124.895 29.2106C71.9338 29.2106 29 72.1451 29 125.106C29 178.067 71.9338 221 124.895 221C177.855 221 220.789 178.067 220.789 125.106C220.789 72.1451 177.855 29.2106 124.894 29.2106H124.895Z" fill="#CF272D"/>
<path d="M128.834 101.223C128.834 90.2111 137.761 81.2838 148.774 81.2838C159.786 81.2838 168.712 90.2111 168.712 101.223C168.712 112.236 159.786 121.162 148.774 121.162C137.761 121.162 128.834 112.236 128.834 101.223ZM128.834 148.987C128.834 137.976 137.761 129.048 148.774 129.048C159.786 129.048 168.712 137.976 168.712 148.987C168.712 159.999 159.786 168.927 148.774 168.927C137.761 168.927 128.834 159.999 128.834 148.987ZM81.0703 148.987C81.0703 137.976 89.9983 129.048 101.01 129.048C112.022 129.048 120.949 137.976 120.949 148.987C120.949 159.999 112.022 168.927 101.01 168.927C89.9983 168.927 81.0703 159.999 81.0703 148.987ZM81.0703 101.223C81.0703 90.2111 89.9983 81.2846 101.01 81.2846C112.022 81.2846 120.949 90.2111 120.949 101.223C120.949 112.236 112.022 121.163 101.01 121.163C89.9983 121.163 81.0703 112.236 81.0703 101.223Z" fill="#CF272D"/>
</g>
<defs>
<clipPath id="clip0_1789_7009">
<rect width="192" height="192" fill="white" transform="translate(29 29)"/>
</clipPath>
</defs>
</svg>
