<svg width="250" height="250" viewBox="0 0 250 250" fill="none" xmlns="http://www.w3.org/2000/svg">
<path d="M129.342 163.821L89.1307 163.077C76.111 162.818 63.059 163.335 50.2947 160.653C30.8772 156.644 29.5015 136.991 28.0621 120.505C26.0787 97.3283 26.8466 73.731 30.5895 50.7477C32.7025 37.8517 41.0179 30.1566 53.8775 29.3192C97.288 26.2802 140.987 26.6404 184.302 28.0582C188.876 28.1881 193.482 28.8985 197.993 29.7071C220.259 33.6509 220.802 55.9228 222.245 74.6715C223.684 93.6137 223.077 112.653 220.326 131.466C218.118 147.043 213.895 160.106 196.073 161.367C173.744 163.016 151.926 164.343 129.534 163.921C129.535 163.821 129.406 163.821 129.342 163.821ZM105.702 124.384C122.529 114.622 139.035 105.022 155.766 95.3242C138.908 85.5614 122.433 75.9613 105.702 66.264V124.384Z" fill="#FF0000"/>
<path d="M51.7215 212.048H44.249L42.7954 217.626H37L45.4789 190.374H50.4916L59.0264 217.626H53.1751L51.7215 212.048ZM45.4416 207.463H50.5103L47.9759 197.749L45.4416 207.463Z" fill="black"/>
<path d="M80.5497 217.626H75.071L67.058 199.751V217.626H61.5794V190.374H67.058L75.0897 208.267V190.374H80.5497V217.626Z" fill="black"/>
<path d="M98.2342 212.048H90.7616L89.3081 217.626H83.5126L91.9915 190.374H97.0043L105.539 217.626H99.6877L98.2342 212.048ZM91.9542 207.463H97.0229L94.4886 197.749L91.9542 207.463Z" fill="black"/>
<path d="M113.571 213.059H123.186V217.626H108.092V190.374H113.571V213.059Z" fill="black"/>
<path d="M129.317 202.615L133.398 190.374H139.361L132.094 207.743V217.626H126.541V207.743L119.254 190.374H125.217L129.317 202.615Z" fill="black"/>
<path d="M159.766 194.96H153.058V217.626H147.561V194.96H140.964V190.374H159.766V194.96Z" fill="black"/>
<path d="M168.637 217.626H163.158V190.374H168.637V217.626Z" fill="black"/>
<path d="M191.632 208.548C191.495 211.655 190.626 214.007 189.023 215.604C187.421 217.201 185.16 218 182.24 218C179.172 218 176.817 216.989 175.178 214.968C173.55 212.934 172.736 210.039 172.736 206.283V201.698C172.736 197.955 173.581 195.072 175.271 193.051C176.96 191.017 179.308 190 182.315 190C185.271 190 187.514 190.83 189.042 192.489C190.582 194.149 191.458 196.532 191.669 199.639H186.172C186.122 197.717 185.824 196.395 185.278 195.671C184.743 194.935 183.756 194.567 182.315 194.567C180.849 194.567 179.811 195.085 179.203 196.12C178.594 197.143 178.271 198.834 178.234 201.193V206.34C178.234 209.047 178.532 210.906 179.128 211.917C179.737 212.928 180.774 213.433 182.24 213.433C183.681 213.433 184.675 213.084 185.222 212.385C185.768 211.674 186.079 210.395 186.153 208.548H191.632Z" fill="black"/>
<path d="M206.465 210.476C206.465 209.365 206.18 208.529 205.608 207.968C205.049 207.394 204.024 206.801 202.533 206.19C199.813 205.154 197.856 203.944 196.664 202.559C195.471 201.161 194.875 199.514 194.875 197.618C194.875 195.322 195.682 193.481 197.297 192.096C198.925 190.699 200.987 190 203.484 190C205.149 190 206.633 190.356 207.938 191.067C209.242 191.766 210.242 192.758 210.938 194.043C211.646 195.328 212 196.788 212 198.422H206.54C206.54 197.15 206.267 196.183 205.72 195.521C205.186 194.848 204.409 194.511 203.391 194.511C202.434 194.511 201.689 194.798 201.155 195.372C200.62 195.933 200.353 196.694 200.353 197.655C200.353 198.404 200.651 199.084 201.248 199.695C201.844 200.294 202.9 200.918 204.416 201.567C207.062 202.528 208.981 203.707 210.174 205.104C211.379 206.502 211.981 208.28 211.981 210.439C211.981 212.809 211.23 214.662 209.727 215.997C208.223 217.332 206.18 218 203.596 218C201.844 218 200.248 217.638 198.807 216.914C197.365 216.191 196.235 215.155 195.415 213.807C194.607 212.46 194.204 210.869 194.204 209.035H199.701C199.701 210.607 200.005 211.749 200.614 212.46C201.223 213.171 202.217 213.527 203.596 213.527C205.509 213.527 206.465 212.51 206.465 210.476Z" fill="black"/>
</svg>
