<svg width="250" height="250" viewBox="0 0 250 250" fill="none" xmlns="http://www.w3.org/2000/svg">
<g clip-path="url(#clip0_2155_4074)">
<path fill-rule="evenodd" clip-rule="evenodd" d="M16.4202 192.205H68.7372C250.857 9.21254 518.721 -10.2121 549.572 -11.8631C550.546 -11.9098 551.522 -11.9554 552.5 -12C552.5 -12 551.498 -11.9662 549.572 -11.8631C205.772 4.59971 47.4716 151.047 12 185.284L16.4202 192.205ZM77.3418 63.0043H19.5183L16.3796 68.9744L80.5956 115.77C92.76 108.728 105.996 101.592 120.393 94.5513L77.3418 63.0043ZM129.154 151.155L185.596 192.3H244.125L246.548 186.85L162.268 125.182C151.075 133.395 140.017 142.067 129.154 151.155Z" fill="black"/>
</g>
<defs>
<clipPath id="clip0_2155_4074">
<rect width="250" height="250" fill="white"/>
</clipPath>
</defs>
</svg>
