<svg width="250" height="250" viewBox="0 0 250 250" fill="none" xmlns="http://www.w3.org/2000/svg">
<g clip-path="url(#clip0_1789_6944)">
<g filter="url(#filter0_f_1789_6944)">
<path d="M62.2643 104.107L62.2218 125.422C64.4442 142.453 81.7841 138.098 87.2988 136.787C84.8505 133.729 78.0011 126.788 85.2944 117.145C96.6509 102.129 108.123 93.8434 130.075 89.6112C115.137 86.3729 95.4807 89.5338 61.582 105.136L62.2643 104.107Z" fill="url(#paint0_linear_1789_6944)"/>
</g>
<g filter="url(#filter1_f_1789_6944)">
<path d="M61.9261 108.139C48.0478 116.729 40.8224 121.906 20.0458 134.386C17.8458 135.707 13.9536 137.725 15.9515 140.905C17.0122 142.592 24.1222 140.514 27.4166 138.396C42.0493 128.991 54.7942 121.103 62.0873 115.817L61.9261 108.139Z" fill="url(#paint1_linear_1789_6944)"/>
</g>
<path d="M63.0676 83.0135H60.9023V160.673H63.0676V83.0135Z" fill="#0A4B96"/>
<g filter="url(#filter2_f_1789_6944)">
<path d="M177.245 124.522C206.66 96.3547 229.177 82.6202 244.118 78.8037C252.577 76.6425 247.583 80.2695 246.165 81.5485C241.658 85.6123 226.199 95.7563 219.893 100.076C215.382 103.167 202.33 112.443 177.16 136.873L177.245 124.522Z" fill="url(#paint2_linear_1789_6944)"/>
</g>
<g filter="url(#filter3_f_1789_6944)">
<path d="M176.765 111.121C188.148 127.667 196.332 142.406 222.241 165.586C227.697 170.468 227.187 174.361 218.019 170.438C209.482 166.785 189.332 148.862 176.523 125.071L176.765 111.121Z" fill="url(#paint3_linear_1789_6944)"/>
</g>
<path d="M177.825 83.0135H175.66V160.673H177.825V83.0135Z" fill="#0A4B96"/>
<path d="M62.3477 124.412C78.2757 109.013 107.926 90.5323 122.252 90.5323C134.113 90.5323 146.06 100.843 155.452 113.497L176.382 145.431V127.287L162.649 106.836C152.595 95.9997 141.424 87.3683 122.252 87.3683C103.664 87.3683 85.3867 95.3182 62.3477 108.416V124.412Z" fill="#0A4B96"/>
<path d="M62.3477 144.343L62.6183 156.046C73.3757 161.968 78.2752 162.419 84.6314 162.419C100.546 162.419 115.877 159.469 135.622 143.338C152.204 129.79 163.185 118.445 176.877 106.044L176.75 95.0741C160.525 108.701 134.815 131.132 118.598 142.789C110.002 148.969 98.1013 159.27 84.6321 159.27C78.2139 159.27 73.9032 157.951 62.3477 144.343Z" fill="#0A4B96"/>
<g filter="url(#filter4_f_1789_6944)">
<path d="M55.5348 147.876C53.0199 150.6 44.8868 147.275 41.3611 144.358C34.3408 138.549 27.9552 130.524 8.85219 109.786C-0.0628911 100.109 1.98046 99.3551 2.45896 98.5052C8.57552 96.77 14.7108 104.33 19.1658 109.423C37.005 129.813 45.8339 138.16 48.5384 140.112C53.4092 143.629 57.055 145.354 55.5348 147.876Z" fill="url(#paint4_linear_1789_6944)"/>
</g>
</g>
<defs>
<filter id="filter0_f_1789_6944" x="60.406" y="87.2898" width="70.8443" height="52.1471" filterUnits="userSpaceOnUse" color-interpolation-filters="sRGB">
<feFlood flood-opacity="0" result="BackgroundImageFix"/>
<feBlend mode="normal" in="SourceGraphic" in2="BackgroundImageFix" result="shape"/>
<feGaussianBlur stdDeviation="0.588027" result="effect1_foregroundBlur_1789_6944"/>
</filter>
<filter id="filter1_f_1789_6944" x="14.6023" y="107.342" width="48.2798" height="34.9765" filterUnits="userSpaceOnUse" color-interpolation-filters="sRGB">
<feFlood flood-opacity="0" result="BackgroundImageFix"/>
<feBlend mode="normal" in="SourceGraphic" in2="BackgroundImageFix" result="shape"/>
<feGaussianBlur stdDeviation="0.398065" result="effect1_foregroundBlur_1789_6944"/>
</filter>
<filter id="filter2_f_1789_6944" x="175.863" y="76.8338" width="74.3563" height="61.3367" filterUnits="userSpaceOnUse" color-interpolation-filters="sRGB">
<feFlood flood-opacity="0" result="BackgroundImageFix"/>
<feBlend mode="normal" in="SourceGraphic" in2="BackgroundImageFix" result="shape"/>
<feGaussianBlur stdDeviation="0.648649" result="effect1_foregroundBlur_1789_6944"/>
</filter>
<filter id="filter3_f_1789_6944" x="175.429" y="110.026" width="51.4233" height="63.114" filterUnits="userSpaceOnUse" color-interpolation-filters="sRGB">
<feFlood flood-opacity="0" result="BackgroundImageFix"/>
<feBlend mode="normal" in="SourceGraphic" in2="BackgroundImageFix" result="shape"/>
<feGaussianBlur stdDeviation="0.547222" result="effect1_foregroundBlur_1789_6944"/>
</filter>
<filter id="filter4_f_1789_6944" x="0.878353" y="97.2122" width="56.0441" height="52.7149" filterUnits="userSpaceOnUse" color-interpolation-filters="sRGB">
<feFlood flood-opacity="0" result="BackgroundImageFix"/>
<feBlend mode="normal" in="SourceGraphic" in2="BackgroundImageFix" result="shape"/>
<feGaussianBlur stdDeviation="0.519808" result="effect1_foregroundBlur_1789_6944"/>
</filter>
<linearGradient id="paint0_linear_1789_6944" x1="74.8393" y1="99.1733" x2="93.4053" y2="140.439" gradientUnits="userSpaceOnUse">
<stop stop-color="white" stop-opacity="0"/>
<stop offset="0.0714355" stop-color="#B8D3EE"/>
<stop offset="1" stop-color="white" stop-opacity="0"/>
</linearGradient>
<linearGradient id="paint1_linear_1789_6944" x1="25.9673" y1="132.894" x2="15.8856" y2="144.503" gradientUnits="userSpaceOnUse">
<stop stop-color="#B8D3EE"/>
<stop offset="1" stop-color="white" stop-opacity="0"/>
</linearGradient>
<linearGradient id="paint2_linear_1789_6944" x1="217.079" y1="96.7803" x2="249.096" y2="78.4081" gradientUnits="userSpaceOnUse">
<stop stop-color="#B8D3EE"/>
<stop offset="1" stop-color="white" stop-opacity="0"/>
</linearGradient>
<linearGradient id="paint3_linear_1789_6944" x1="197.512" y1="149.347" x2="228.546" y2="173.802" gradientUnits="userSpaceOnUse">
<stop stop-color="#B8D3EE"/>
<stop offset="1" stop-color="white" stop-opacity="0"/>
</linearGradient>
<linearGradient id="paint4_linear_1789_6944" x1="25.4113" y1="122.111" x2="-0.576289" y2="96.3044" gradientUnits="userSpaceOnUse">
<stop stop-color="#B8D3EE"/>
<stop offset="1" stop-color="white" stop-opacity="0"/>
</linearGradient>
<clipPath id="clip0_1789_6944">
<rect width="249" height="96" fill="white" transform="translate(1 77)"/>
</clipPath>
</defs>
</svg>
