<svg width="250" height="250" viewBox="0 0 250 250" fill="none" xmlns="http://www.w3.org/2000/svg">
<g clip-path="url(#clip0_1789_6886)">
<path d="M124.503 221.632C178.146 221.632 221.632 178.593 221.632 125.5C221.632 72.4078 178.146 29.368 124.503 29.368C70.8608 29.368 27.375 72.4078 27.375 125.5C27.375 178.593 70.8608 221.632 124.503 221.632Z" fill="#1AB4D7"/>
<path d="M73.8659 125.222L90.4416 108.776C90.9912 108.222 91.2978 107.488 91.2978 106.709C91.2978 105.087 89.9655 103.77 88.3265 103.77C87.5281 103.77 86.7796 104.079 86.2152 104.645C86.2136 104.648 69.6544 121.028 69.6544 121.028L53.0195 104.62C52.4574 104.072 51.7126 103.77 50.9228 103.77C49.2858 103.77 47.9531 105.086 47.9531 106.707C47.9531 107.497 48.272 108.239 48.8443 108.798L65.4178 125.199L48.8529 141.625C48.2707 142.192 47.9531 142.936 47.9531 143.73C47.9531 145.352 49.2858 146.668 50.9228 146.668C51.7139 146.668 52.4594 146.364 53.0195 145.809L69.6286 129.392L86.1746 145.749C86.7615 146.35 87.5185 146.669 88.3265 146.669C89.9638 146.669 91.2962 145.352 91.2962 143.73C91.2962 142.947 90.9898 142.212 90.4324 141.658L73.8659 125.222Z" fill="white"/>
<path d="M172.406 125.217C172.406 128.163 174.826 130.559 177.806 130.559C180.778 130.559 183.199 128.163 183.199 125.217C183.199 122.271 180.778 119.876 177.806 119.876C174.826 119.876 172.406 122.271 172.406 125.217Z" fill="white"/>
<path d="M162.172 125.22C162.172 116.69 169.182 109.75 177.801 109.75C186.416 109.75 193.428 116.69 193.428 125.22C193.428 133.748 186.416 140.685 177.801 140.685C169.182 140.685 162.172 133.748 162.172 125.22ZM156.023 125.22C156.023 137.103 165.793 146.771 177.801 146.771C189.809 146.771 199.584 137.103 199.584 125.22C199.584 113.335 189.809 103.664 177.801 103.664C165.793 103.664 156.023 113.335 156.023 125.22Z" fill="white"/>
<path d="M154.482 104.033L153.569 104.03C150.826 104.03 148.18 104.886 145.971 106.572C145.679 105.253 144.489 104.261 143.07 104.261C141.437 104.261 140.129 105.556 140.125 107.175C140.125 107.181 140.135 143.478 140.135 143.478C140.139 145.094 141.471 146.408 143.105 146.408C144.738 146.408 146.07 145.094 146.074 143.474C146.074 143.467 146.076 121.153 146.076 121.153C146.076 113.713 146.763 110.708 153.202 109.912C153.797 109.838 154.444 109.85 154.447 109.85C156.209 109.79 157.461 108.592 157.461 106.972C157.461 105.352 156.124 104.033 154.482 104.033Z" fill="white"/>
<path d="M97.4525 121.671C97.4525 121.591 97.4587 121.507 97.4627 121.425C99.187 114.678 105.36 109.686 112.712 109.686C120.152 109.686 126.382 114.801 128.018 121.671H97.4525ZM134.1 121.116C132.82 115.119 129.503 110.193 124.451 107.029C117.067 102.39 107.316 102.646 100.184 107.666C94.3661 111.763 91.0078 118.464 91.0078 125.367C91.0078 127.097 91.2186 128.844 91.6575 130.564C93.8543 139.117 101.283 145.592 110.141 146.665C112.769 146.98 115.327 146.829 117.976 146.15C120.253 145.602 122.456 144.688 124.485 143.401C126.592 142.061 128.352 140.293 130.056 138.178C130.09 138.139 130.125 138.104 130.159 138.063C131.342 136.611 131.123 134.546 129.823 133.561C128.727 132.729 126.886 132.392 125.438 134.227C125.126 134.666 124.779 135.118 124.397 135.57C123.245 136.829 121.816 138.049 120.104 138.996C117.926 140.148 115.443 140.806 112.804 140.821C104.165 140.726 99.5429 134.758 97.8986 130.498C97.6114 129.702 97.39 128.877 97.2357 128.027C97.2155 127.868 97.2007 127.715 97.1947 127.574C98.9808 127.574 128.194 127.569 128.194 127.569C132.444 127.481 134.732 124.512 134.1 121.116Z" fill="white"/>
</g>
<defs>
<clipPath id="clip0_1789_6886">
<rect width="195" height="193" fill="white" transform="translate(27 29)"/>
</clipPath>
</defs>
</svg>
