<svg width="250" height="250" viewBox="0 0 250 250" fill="none" xmlns="http://www.w3.org/2000/svg">
<g clip-path="url(#clip0_2152_4112)">
<path d="M200.119 63.6475C184.552 44.5614 162.292 32.1306 137.877 28.8892C135.767 28.5901 133.617 28.3799 131.41 28.2506C129.204 28.1212 127.159 28 125 28C122.438 28 119.916 28.097 117.402 28.291C115.244 28.4527 113.094 28.7033 110.976 29.0185C89.78 32.1127 70.2046 42.1358 55.3036 57.524C40.4027 72.9122 31.0145 92.8 28.6037 114.084C26.193 135.369 30.8953 156.852 41.977 175.184C53.0588 193.515 69.8966 207.662 89.8634 215.419C109.83 223.175 131.803 224.104 152.353 218.061C172.904 212.018 190.876 199.342 203.465 182.012C216.055 164.682 222.554 143.672 221.949 122.26C221.343 100.848 213.668 80.2387 200.119 63.6475ZM131.41 63.6475V134.934H117.402V63.6475H131.41ZM174.252 134.934C172.687 146.891 166.826 157.871 157.762 165.825C148.699 173.78 137.051 178.166 124.992 178.166C112.933 178.166 101.286 173.78 92.2224 165.825C83.1588 157.871 77.2979 146.891 75.7325 134.934C75.4598 132.803 75.3221 130.657 75.3202 128.508C75.3141 117.775 78.7835 107.328 85.2094 98.7315C91.6352 90.1346 100.672 83.8494 110.968 80.8165V93.9842C104.1 96.7747 98.2212 101.55 94.0827 107.7C89.9443 113.851 87.7346 121.095 87.7362 128.508C87.7327 130.662 87.9194 132.813 88.294 134.934C89.8053 143.57 94.3139 151.397 101.026 157.036C107.739 162.676 116.225 165.768 124.992 165.768C133.76 165.768 142.246 162.676 148.958 157.036C155.671 151.397 160.179 143.57 161.691 134.934C162.065 132.813 162.252 130.662 162.248 128.508C162.246 120.883 159.906 113.442 155.544 107.188C151.182 100.934 145.008 96.168 137.853 93.5316V80.5417C148.415 83.3752 157.748 89.6137 164.405 98.2902C171.062 106.967 174.671 117.597 174.673 128.532C174.67 130.673 174.532 132.811 174.26 134.934H174.252Z" fill="#DD6FD1"/>
<path d="M131.426 63.6475H117.401V134.934H131.426V63.6475Z" fill="#2C1338"/>
<path d="M174.672 128.508C174.67 130.657 174.533 132.803 174.26 134.934C172.695 146.891 166.834 157.871 157.77 165.825C148.707 173.78 137.059 178.166 125 178.166C112.941 178.166 101.294 173.78 92.2303 165.825C83.1667 157.871 77.3057 146.891 75.7404 134.934C75.4677 132.803 75.33 130.657 75.3281 128.508C75.322 117.775 78.7914 107.328 85.2173 98.7315C91.6431 90.1345 100.68 83.8494 110.976 80.8165V93.9842C104.108 96.7747 98.2291 101.55 94.0906 107.7C89.9522 113.851 87.7425 121.095 87.7441 128.508C87.7406 130.662 87.9272 132.813 88.3019 134.934C89.8132 143.57 94.3217 151.397 101.034 157.036C107.747 162.676 116.233 165.768 125 165.768C133.767 165.768 142.254 162.676 148.966 157.036C155.679 151.397 160.187 143.57 161.699 134.934C162.073 132.813 162.26 130.662 162.256 128.508C162.253 120.882 159.912 113.441 155.549 107.187C151.185 100.932 145.009 96.1666 137.853 93.5315V80.5416C148.411 83.3741 157.741 89.609 164.397 98.2805C171.054 106.952 174.665 117.576 174.672 128.508Z" fill="#2C1338"/>
</g>
<defs>
<clipPath id="clip0_2152_4112">
<rect width="194" height="194" fill="white" transform="translate(28 28)"/>
</clipPath>
</defs>
</svg>
