<svg width="250" height="250" viewBox="0 0 250 250" fill="none" xmlns="http://www.w3.org/2000/svg">
<path d="M18 134.008C18 116.43 18 107.641 19.3551 100.316C25.4606 67.3127 51.2345 41.491 84.1771 35.3741C91.4885 34.0165 100.261 34.0165 117.807 34.0165C135.352 34.0165 144.125 34.0165 151.436 35.3741C184.379 41.491 210.153 67.3127 216.258 100.316C217.613 107.641 217.613 116.43 217.613 134.008C217.613 151.586 217.613 160.375 216.258 167.7C210.153 200.704 184.379 226.526 151.436 232.642C144.125 234 135.352 234 117.807 234C100.261 234 91.4885 234 84.1771 232.642C51.2345 226.526 25.4606 200.704 19.3551 167.7C18 160.375 18 151.586 18 134.008Z" fill="#F6B801"/>
<path d="M232 66.8967C232 95.0062 209.255 117.793 181.197 117.793C153.14 117.793 130.395 95.0062 130.395 66.8967C130.395 38.7872 153.14 16 181.197 16C209.255 16 232 38.7872 232 66.8967Z" fill="#065DE8"/>
</svg>
