<svg width="250" height="250" viewBox="0 0 250 250" fill="none" xmlns="http://www.w3.org/2000/svg">
<path d="M116.754 221.123C64.4788 218.16 23 174.754 23 121.642C23 66.6113 67.5301 22 122.461 22C175.752 22 219.254 63.9871 221.804 116.742H185.048C182.552 84.2993 155.484 58.7532 122.461 58.7532C87.7916 58.7532 59.6864 86.9095 59.6864 121.642C59.6864 154.447 84.7591 181.386 116.754 184.275V221.123Z" fill="#0051FF"/>
<path fill-rule="evenodd" clip-rule="evenodd" d="M177.588 204.591C162.654 214.572 144.872 220.614 125.722 221.232V184.447C157.523 182.817 183.074 157.477 185.105 125.726H221.84C221.026 145.941 214.201 164.606 203.106 179.974L220.813 197.713C227.729 204.641 227.729 215.875 220.813 222.804C213.897 229.732 202.684 229.732 195.768 222.804L177.588 204.591Z" fill="#05D8FF"/>
</svg>
