<svg width="250" height="250" viewBox="0 0 250 250" fill="none" xmlns="http://www.w3.org/2000/svg">
<g clip-path="url(#clip0_2155_3905)">
<path d="M189.886 29.2344H59.645C42.7202 29.2344 29 42.9546 29 59.8794V190.121C29 207.046 42.7202 220.766 59.645 220.766H189.886C206.811 220.766 220.531 207.046 220.531 190.121V59.8794C220.531 42.9546 206.811 29.2344 189.886 29.2344Z" fill="#07A081"/>
<path d="M100.521 158.441H127.684V132.412H135.874C141.621 132.412 147.133 130.129 151.197 126.065C155.261 122.001 157.544 116.489 157.544 110.742C157.544 104.995 155.261 99.4833 151.197 95.4194C147.133 91.3555 141.621 89.0724 135.874 89.0724H100.521V158.441ZM141.75 172.316H86.459V75.2017H135.874C144.871 75.074 153.58 78.3657 160.243 84.4119C166.906 90.4581 171.026 98.808 171.77 107.775C172.515 116.741 169.828 125.656 164.252 132.718C158.677 139.78 150.629 144.462 141.735 145.819L141.75 172.316Z" fill="white"/>
</g>
<defs>
<clipPath id="clip0_2155_3905">
<rect width="192" height="192" fill="white" transform="translate(29 29)"/>
</clipPath>
</defs>
</svg>
