<svg width="250" height="250" viewBox="0 0 250 250" fill="none" xmlns="http://www.w3.org/2000/svg">
<g clip-path="url(#clip0_2112_5201)">
<path d="M26.3867 205.824C26.3867 152.319 26.3867 98.814 26.505 45.2569C26.7887 45.0164 27.0465 44.8533 27.1063 44.6357C29.6031 35.5644 35.4219 29.7932 44.4047 27.1261C44.6387 27.0566 44.77 26.6409 44.9492 26.3867C98.4543 26.3867 151.959 26.3867 205.517 26.5046C205.82 26.7964 206.048 27.058 206.325 27.131C210.425 28.2089 213.992 30.2532 217.033 33.17C220.28 36.2842 222.44 40.0709 223.649 44.4088C223.713 44.6396 224.133 44.7714 224.387 44.9492C224.387 98.4543 224.387 151.959 224.269 205.517C223.985 205.757 223.727 205.92 223.667 206.138C221.171 215.209 215.35 220.978 206.369 223.647C206.135 223.717 206.003 224.133 205.824 224.387C152.319 224.387 98.814 224.387 45.2567 224.269C45.0162 223.985 44.8533 223.727 44.6359 223.667C35.564 221.171 29.796 215.349 27.126 206.369C27.0564 206.135 26.6409 206.003 26.3867 205.824ZM66.9592 165.833C71.9025 171.645 77.8269 176.249 84.495 179.896C99.0258 187.845 114.666 190.811 131.076 189.82C145.733 188.934 159.436 184.865 171.687 176.558C181.945 169.602 189.62 160.61 193.357 148.561C195.225 142.536 194.967 136.347 194.981 130.181C195.022 113.237 195.025 96.2921 194.984 79.3478C194.959 68.7647 186.942 60.7861 176.36 60.7804C142.536 60.7624 108.711 60.7639 74.887 60.7781C63.6282 60.7828 55.7958 68.6085 55.7817 79.8421C55.7633 94.4027 55.77 108.963 55.7824 123.524C55.7852 126.871 56.0621 130.232 55.8567 133.564C55.1041 145.776 59.0144 156.343 66.9592 165.833Z" fill="#E84352"/>
<path d="M66.8711 165.728C59.0149 156.344 55.1045 145.776 55.8571 133.564C56.0625 130.232 55.7856 126.871 55.7828 123.524C55.7705 108.963 55.7637 94.4028 55.7821 79.8422C55.7963 68.6085 63.6286 60.7829 74.8875 60.7781C108.712 60.764 142.536 60.7624 176.361 60.7805C186.943 60.7861 194.959 68.7648 194.985 79.3478C195.025 96.2922 195.022 113.237 194.982 130.181C194.967 136.347 195.226 142.536 193.357 148.561C189.62 160.61 181.945 169.602 171.687 176.558C159.437 184.865 145.733 188.934 131.077 189.82C114.666 190.811 99.0262 187.845 84.4954 179.896C77.8273 176.249 71.903 171.645 66.8711 165.728ZM118.086 121.279C110.657 113.854 103.257 106.397 95.7843 99.0151C92.0406 95.3168 86.3786 95.3443 82.7552 98.9236C79.1313 102.503 78.9916 108.241 82.6746 111.953C94.6565 124.031 106.688 136.059 118.762 148.045C122.399 151.654 128.262 151.727 131.883 148.141C144.063 136.079 156.169 123.944 168.252 111.784C170.722 109.298 171.339 106.161 170.345 102.828C168.312 96.0127 159.986 94.0375 154.822 99.1645C145.492 108.426 136.221 117.747 126.922 127.039C126.434 127.526 125.916 127.982 125.29 128.567C122.889 126.137 120.584 123.805 118.086 121.279Z" fill="white"/>
<path d="M118.181 121.376C120.583 123.805 122.887 126.137 125.288 128.567C125.914 127.982 126.433 127.526 126.92 127.039C136.219 117.747 145.49 108.426 154.82 99.1644C159.985 94.0375 168.31 96.0126 170.343 102.828C171.337 106.161 170.721 109.298 168.25 111.784C156.168 123.944 144.061 136.079 131.882 148.141C128.261 151.727 122.397 151.654 118.761 148.044C106.687 136.059 94.6549 124.031 82.673 111.953C78.9901 108.241 79.1298 102.503 82.7536 98.9235C86.3771 95.3442 92.0391 95.3168 95.7827 99.015C103.256 106.397 110.655 113.854 118.181 121.376Z" fill="#E84352"/>
</g>
<defs>
<clipPath id="clip0_2112_5201">
<rect width="198" height="198" fill="white" transform="translate(26 26)"/>
</clipPath>
</defs>
</svg>
