<svg width="250" height="250" viewBox="0 0 250 250" fill="none" xmlns="http://www.w3.org/2000/svg">
<g clip-path="url(#clip0_2155_3940)">
<g opacity="0.2">
<path fill-rule="evenodd" clip-rule="evenodd" d="M249.028 92.2213C235.698 104.924 210.098 113.546 180.561 113.546C158.597 113.546 138.753 108.706 124.514 100.993C108.155 92.0699 85.5844 79.6679 56.0453 79.6679C34.0828 79.6679 14.2391 84.5086 0 92.2213V86.1716C14.2391 78.4589 34.0828 73.6198 56.0469 73.6198C85.5844 73.6198 108.156 86.0218 124.516 94.9435C138.753 102.656 158.597 107.495 180.561 107.495C210.098 107.495 235.698 98.8747 249.028 86.1716V92.2213Z" fill="black"/>
<path fill-rule="evenodd" clip-rule="evenodd" d="M249.028 117.932C235.698 130.635 210.098 139.255 180.561 139.255C158.597 139.255 138.753 134.416 124.514 126.702C108.155 117.779 85.5844 105.378 56.0453 105.378C34.0828 105.378 14.2391 110.217 0 117.932V111.88C14.2391 104.168 34.0828 99.327 56.0469 99.327C85.5844 99.327 108.156 111.729 124.516 120.652C138.753 128.365 158.597 133.204 180.561 133.204C210.098 133.204 235.698 124.583 249.028 111.879V117.93V117.932Z" fill="black"/>
<path fill-rule="evenodd" clip-rule="evenodd" d="M249.028 143.642C235.698 156.345 210.098 164.966 180.561 164.966C158.597 164.966 138.753 160.125 124.514 152.412C108.155 143.489 85.5844 131.089 56.0453 131.089C34.0828 131.089 14.2391 135.928 0 143.64V137.592C14.2391 129.878 34.0828 125.039 56.0469 125.039C85.5844 125.039 108.156 137.441 124.516 146.364C138.753 154.077 158.597 158.916 180.561 158.916C210.098 158.916 235.698 150.295 249.028 137.591V143.64V143.642Z" fill="black"/>
<path fill-rule="evenodd" clip-rule="evenodd" d="M249.028 169.351C235.698 182.055 210.098 190.674 180.561 190.674C158.597 190.674 138.753 185.835 124.514 178.123C108.155 169.199 85.5844 156.797 56.0453 156.797C34.0828 156.797 14.2391 161.638 0 169.351V163.301C14.2391 155.588 34.0828 150.749 56.0469 150.749C85.5844 150.749 108.156 163.151 124.516 172.074C138.753 179.786 158.597 184.626 180.561 184.626C210.098 184.626 235.698 176.006 249.028 163.301V169.351Z" fill="black"/>
</g>
<path d="M57 199.162H68.2844C69.5395 199.265 70.8021 199.095 71.9844 198.662C73.1668 198.229 74.2405 197.545 75.131 196.656C76.0215 195.767 76.7074 194.696 77.141 193.516C77.5746 192.336 77.7455 191.076 77.6418 189.823V60.1802C77.7455 58.9276 77.5746 57.6675 77.141 56.4875C76.7074 55.3075 76.0215 54.2359 75.131 53.3472C74.2405 52.4585 73.1668 51.774 71.9844 51.3412C70.8021 50.9085 69.5395 50.7379 68.2844 50.8413H57V22H139.012C183.049 22 218 44.2503 218 86.8214C218 129.396 183.049 151.917 139.012 151.917H110.943V189.823C110.847 191.098 111.033 192.378 111.487 193.573C111.941 194.768 112.652 195.849 113.571 196.74C114.49 197.631 115.593 198.309 116.803 198.728C118.014 199.146 119.301 199.294 120.575 199.162H143.415V228H57V199.162ZM136.54 121.706C165.709 121.706 182.5 109.619 182.5 87.0984C182.5 64.3004 165.709 52.4875 136.54 52.4875H110.943V121.703H136.536L136.54 121.706Z" fill="black"/>
</g>
<defs>
<clipPath id="clip0_2155_3940">
<rect width="250" height="206" fill="white" transform="translate(0 22)"/>
</clipPath>
</defs>
</svg>
