<svg width="250" height="250" viewBox="0 0 250 250" fill="none" xmlns="http://www.w3.org/2000/svg">
<g clip-path="url(#clip0_2152_4017)">
<path d="M155.65 127.3H95V151.19H155.65V127.3Z" fill="#00AFDB"/>
<path d="M155.64 119.65V127.3H95.0001V123.92C94.9895 118.929 96.1352 114.003 98.3472 109.528C100.559 105.054 103.778 101.152 107.75 98.13L113.08 26.6L111.5 21.6L111.74 17.17L111.94 13.17C112.23 9.17002 117.42 6.02002 121.46 6.02002H130.89C132.861 6.02248 134.757 6.78087 136.185 8.13897C137.614 9.49707 138.468 11.3514 138.57 13.32L138.7 15.47L138.92 19.69L137.41 25.8L142.72 95.96C146.686 98.5154 149.946 102.025 152.204 106.167C154.461 110.31 155.642 114.953 155.64 119.67V119.65Z" fill="#231F20"/>
<path d="M155.64 222V227.9C155.624 232.174 153.916 236.267 150.889 239.285C147.863 242.302 143.764 243.997 139.49 244H111.15C106.868 243.997 102.761 242.295 99.7332 239.267C96.705 236.239 95.0026 232.132 95 227.85V222H155.64Z" fill="#231F20"/>
<path d="M155.65 151.19H95V221.95H155.65V151.19Z" fill="#00AFDB"/>
</g>
<defs>
<clipPath id="clip0_2152_4017">
<rect width="60.65" height="238" fill="white" transform="translate(95 6)"/>
</clipPath>
</defs>
</svg>
