<svg width="250" height="250" viewBox="0 0 250 250" fill="none" xmlns="http://www.w3.org/2000/svg">
<path d="M56 87.5C56 40.2797 94.2797 2 141.5 2C188.72 2 227 40.2797 227 87.5V121.5C227 168.72 188.72 207 141.5 207C94.2797 207 56 168.72 56 121.5V87.5Z" fill="#434EE1"/>
<path d="M23 166.5C23 133.639 49.6391 107 82.5 107C115.361 107 142 133.639 142 166.5V187.5C142 220.361 115.361 247 82.5 247C49.6391 247 23 220.361 23 187.5V166.5Z" fill="#0A1567"/>
<path d="M138.746 206.956C92.8003 205.503 56 167.799 56 121.5V113.212C63.98 109.236 72.979 107 82.5 107C115.361 107 142 133.639 142 166.5V187.5C142 194.314 140.854 200.86 138.746 206.956Z" fill="#B6BCF7"/>
</svg>
