<svg width="250" height="250" viewBox="0 0 250 250" fill="none" xmlns="http://www.w3.org/2000/svg">
<g clip-path="url(#clip0_1789_6902)">
<path d="M124.998 108.04C134.368 108.04 141.962 115.633 141.962 124.999C141.962 134.368 134.368 141.962 124.998 141.962C115.632 141.962 108.038 134.366 108.038 124.999C108.038 115.633 115.632 108.04 124.998 108.04ZM67.2053 124.999C67.2053 93.0803 93.0803 67.206 124.998 67.206C156.921 67.206 182.794 93.0803 182.794 124.999C182.794 127.112 182.681 129.196 182.46 131.247C182.021 136.881 186.156 141.181 191.754 141.181C201.255 141.181 202.267 128.931 202.267 124.999C202.267 82.3233 167.674 47.7308 124.998 47.7308C82.3233 47.7308 47.7308 82.3241 47.7308 124.999C47.7308 167.672 82.3233 202.266 124.998 202.266C147.662 202.266 168.047 192.514 182.181 176.974L198.066 190.312C180.123 210.369 154.035 223.003 124.998 223.003C70.8749 223.003 27 179.124 27 124.999C27 70.8749 70.8749 27 124.998 27C179.125 27 223 70.8749 223 125C223 146.755 212.641 164.422 191.834 164.422C182.678 164.422 177.111 160.226 174.072 155.544C163.866 171.904 145.707 182.797 124.998 182.797C93.0796 182.797 67.2053 156.918 67.2053 125V124.999ZM124.998 87.9353C104.53 87.9353 87.9346 104.529 87.9346 124.999C87.9346 145.47 104.53 162.065 124.998 162.065C145.468 162.065 162.065 145.47 162.065 124.999C162.065 104.529 145.468 87.9353 124.998 87.9353Z" fill="#AF252A"/>
</g>
<defs>
<clipPath id="clip0_1789_6902">
<rect width="196" height="196" fill="white" transform="translate(27 27)"/>
</clipPath>
</defs>
</svg>
