<svg width="250" height="250" viewBox="0 0 250 250" fill="none" xmlns="http://www.w3.org/2000/svg">
<g clip-path="url(#clip0_2152_3948)">
<path d="M187.528 29H62.472C53.6051 29.0337 45.1109 32.571 38.841 38.841C32.571 45.1109 29.0337 53.6051 29 62.472V187.528C29.0337 196.395 32.571 204.889 38.841 211.159C45.1109 217.429 53.6051 220.966 62.472 221H119.4V181.392C119.4 181.392 119.4 143.512 96.2 140.928V119.4C96.2 119.4 133.216 114.24 143.552 163.312L144.888 221H187.528C196.395 220.966 204.889 217.429 211.159 211.159C217.429 204.889 220.966 196.395 221 187.528V62.472C220.966 53.6051 217.429 45.1109 211.159 38.841C204.889 32.571 196.395 29.0337 187.528 29ZM125.864 98.736C122.03 98.7376 118.281 97.6015 115.093 95.4716C111.905 93.3418 109.42 90.3139 107.953 86.7712C106.487 83.2285 106.104 79.3303 106.854 75.5701C107.604 71.8099 109.453 68.3568 112.166 65.6478C114.88 62.9388 118.336 61.0958 122.098 60.352C125.859 59.6083 129.757 59.9972 133.297 61.4697C136.837 62.9421 139.861 65.4318 141.985 68.6236C144.11 71.8154 145.24 75.5658 145.232 79.4C145.224 84.5312 143.179 89.4493 139.548 93.0746C135.917 96.6998 130.995 98.736 125.864 98.736Z" fill="black"/>
</g>
<defs>
<clipPath id="clip0_2152_3948">
<rect width="192" height="192" fill="white" transform="translate(29 29)"/>
</clipPath>
</defs>
</svg>
