<svg width="250" height="250" viewBox="0 0 250 250" fill="none" xmlns="http://www.w3.org/2000/svg">
<g clip-path="url(#clip0_2154_4145)">
<path fill-rule="evenodd" clip-rule="evenodd" d="M134.596 99.7369L188.845 26L234.376 222.539H16L89.0686 66.6617L134.596 99.7369ZM106.373 170.556L119.349 188.341V188.337H133.277L118.052 167.473L131.46 149.09L122.349 142.495L106.373 164.398V130.939L94.3621 122.252V188.341H106.373V170.556ZM135.177 168.722C135.177 179.964 144.327 189.079 155.617 189.079C166.915 189.079 176.065 179.964 176.065 168.726C176.058 163.888 174.329 159.211 171.19 155.53C168.05 151.85 163.703 149.406 158.927 148.636L168.706 135.232L159.595 128.637L139.09 156.742C136.541 160.216 135.17 164.413 135.177 168.722ZM164.404 168.722C164.404 173.552 160.473 177.47 155.621 177.47C154.469 177.473 153.329 177.249 152.264 176.811C151.199 176.373 150.231 175.729 149.415 174.917C148.599 174.104 147.951 173.139 147.508 172.076C147.065 171.013 146.836 169.873 146.833 168.722C146.833 163.892 150.764 159.974 155.621 159.974C160.469 159.974 164.404 163.892 164.404 168.722Z" fill="#7D64FF"/>
</g>
<defs>
<clipPath id="clip0_2154_4145">
<rect width="219" height="197" fill="white" transform="translate(16 26)"/>
</clipPath>
</defs>
</svg>
