<svg width="250" height="250" viewBox="0 0 250 250" fill="none" xmlns="http://www.w3.org/2000/svg">
<g clip-path="url(#clip0_1789_6898)">
<path fill-rule="evenodd" clip-rule="evenodd" d="M113.985 32C143.94 32 189.203 41.2669 210.273 62.5177C215.611 67.9059 222.595 78.4591 222.595 93.9149C222.595 121.394 200.643 163.554 176.404 188.008C163.873 200.648 143.94 217.167 117.127 217.167C90.9156 217.167 70.8975 199.211 65.1024 193.363C42.9021 170.97 27 136.981 27 105.288C27 85.2912 32.6513 67.8009 47.0704 53.264C60.4245 39.7968 83.4349 32 113.985 32ZM151.061 141.588C161.175 131.383 163.899 118.815 163.899 111.897C163.899 106.883 162.593 99.5262 156.373 93.2586C146.834 83.6373 136.27 80.9202 124.778 80.9202C110.222 80.9202 100.441 85.5602 93.9275 92.1363C88.8184 97.2882 84.4019 105.21 84.4019 116.465C84.4019 127.714 90.3472 138.582 96.8283 145.112C102.813 151.15 112.221 155.62 121.694 155.62C131.167 155.62 140.948 151.794 151.061 141.588Z" fill="#5952FF"/>
</g>
<defs>
<clipPath id="clip0_1789_6898">
<rect width="196" height="186" fill="white" transform="translate(27 32)"/>
</clipPath>
</defs>
</svg>
