<svg width="250" height="250" viewBox="0 0 250 250" fill="none" xmlns="http://www.w3.org/2000/svg">
<g clip-path="url(#clip0_2111_5015)">
<path d="M125.274 31C68.8851 31 23 76.8698 23 133.24C23 169.162 41.7963 200.663 69.4379 218.9C71.0964 217.795 72.7549 216.69 74.4134 215.585C75.5191 215.032 77.1776 213.927 78.2832 213.374C79.9417 212.821 81.6002 211.716 82.7059 211.163C84.3644 210.611 86.0229 210.058 87.6814 208.953C88.787 208.4 90.4455 207.847 91.5512 207.295C93.2097 206.742 95.421 206.19 97.0795 205.637C98.738 205.084 99.8437 205.084 101.502 204.532C103.161 203.979 104.266 203.979 105.925 203.426C107.583 202.874 109.242 202.874 110.9 202.874C112.559 202.874 114.77 202.321 116.429 202.321V195.689V190.163V167.504V161.978V141.53H110.9V130.477H116.429H133.014H138.542V160.32V166.399V189.61V195.137V203.426C154.021 205.637 167.842 211.163 180.557 218.9C208.752 200.663 226.995 169.162 226.995 133.24C227.548 76.8698 181.663 31 125.274 31ZM155.68 133.24C155.68 116.661 141.859 102.844 125.274 102.844C108.689 102.844 94.8682 116.661 94.8682 133.24C94.8682 144.846 101.502 155.346 111.453 160.32V166.399C98.738 160.872 89.3399 148.161 89.3399 133.24C89.3399 113.345 105.372 97.3178 125.274 97.3178C145.176 97.3178 161.208 113.345 161.208 133.24C161.208 145.951 154.574 157.004 144.623 163.636V157.004C151.257 150.925 155.68 142.635 155.68 133.24ZM144.623 193.479V187.4C167.289 179.662 183.321 158.109 183.321 132.687C183.321 101.186 157.338 75.2119 125.274 75.2119C93.2097 75.2119 67.2266 101.186 67.2266 133.24C67.2266 160.32 86.0229 183.531 111.453 189.61V195.137C83.2587 189.057 61.6982 163.636 61.6982 133.24C61.6982 97.8705 89.8927 69.6854 125.274 69.6854C160.655 69.6854 188.85 97.8705 188.85 133.24C188.85 161.425 170.053 185.742 144.623 193.479Z" fill="#E44A49"/>
</g>
<defs>
<clipPath id="clip0_2111_5015">
<rect width="204" height="188" fill="white" transform="translate(23 31)"/>
</clipPath>
</defs>
</svg>
