<svg width="250" height="250" viewBox="0 0 250 250" fill="none" xmlns="http://www.w3.org/2000/svg">
<path d="M221.366 172.413C214.864 172.413 208.627 175.01 204.029 179.632C199.431 184.254 196.848 190.523 196.848 197.06C196.848 203.596 199.431 209.865 204.029 214.487C208.627 219.109 214.864 221.706 221.366 221.706C227.869 221.706 234.105 219.109 238.703 214.487C243.301 209.865 245.884 203.596 245.884 197.06C245.884 190.523 243.301 184.254 238.703 179.632C234.105 175.01 227.869 172.413 221.366 172.413ZM154.457 29.2609H112.077C112.077 64.1738 96.1158 96.2194 68.2751 117.182L51.4809 129.822L116.542 218.989H170.023L110.164 136.942C138.539 108.548 154.457 70.338 154.457 29.2609ZM3 218.989H46.2995V29.2609H3V218.989Z" fill="#17120F"/>
</svg>
