<svg width="250" height="250" viewBox="0 0 250 250" fill="none" xmlns="http://www.w3.org/2000/svg">
<path fill-rule="evenodd" clip-rule="evenodd" d="M106.944 42.1241C92.9751 43.0371 77.1541 48.7331 66.0001 56.8671C51.9951 67.0781 44.0241 76.5061 36.9791 91.1891C31.0861 103.47 29.0001 112.812 29.0001 126.927C29.0001 139.028 28.4011 141 24.7231 141C23.6911 141 21.4851 142.361 19.8211 144.025C17.3961 146.45 16.9241 147.591 17.4411 149.775C18.7731 155.407 20.7031 156 37.6881 156H53.1541L56.0771 158.923C57.6851 160.531 59.0001 162.576 59.0001 163.469C59.0001 166.242 54.3791 170 50.9691 170C48.8511 170 46.9061 170.941 44.9231 172.923C41.5231 176.323 41.2451 178.845 43.9091 182.139C45.8051 184.483 46.0051 184.504 71.3071 185C94.562 185.456 96.9791 185.667 98.8981 187.405C101.517 189.779 101.602 194.035 99.09 197.139C97.232 199.437 96.703 199.508 79.34 199.815C62.806 200.107 61.3351 200.284 59.2501 202.239C56.3181 204.988 56.3951 208.485 59.4551 211.545L61.9091 214H128H194.091L196.545 211.545C199.66 208.431 199.66 205.569 196.545 202.455L194.091 200H168.996C141.742 200 138.658 199.468 137.424 194.554C135.979 188.794 140.383 185 148.516 185C155.934 185 158.958 182.782 158.985 177.323C159.004 173.306 155.112 170 150.365 170C142.549 170 140.19 161.022 147.072 157.463C149.409 156.254 156.498 156 187.84 156C222.517 156 225.956 155.85 227.847 154.25C228.984 153.287 230.205 151.274 230.559 149.775C231.076 147.591 230.604 146.45 228.179 144.025C225.221 141.067 224.936 141 215.277 141C208.928 141 204.971 140.571 204.2 139.8C203.402 139.002 202.992 134.56 202.976 126.55C202.924 99.4551 191.162 75.829 169.686 59.6761C150.993 45.6171 132.533 40.4521 106.944 42.1241ZM173.763 171.565C168.645 174.342 168.942 180.774 174.339 184.065C178.352 186.512 190.622 186.764 195.02 184.49C200.642 181.583 201.411 177.257 197.077 172.923C194.28 170.126 193.774 170.002 185.327 170.04C179.483 170.067 175.575 170.582 173.763 171.565ZM215.763 171.565C210.484 174.43 210.842 181.748 216.39 184.381C220.689 186.421 231.831 186.515 236.53 184.552C241.138 182.627 242.943 178.771 240.923 175.171C240.107 173.718 238.328 171.967 236.97 171.279C233.477 169.512 219.192 169.705 215.763 171.565Z" fill="#E96D49"/>
</svg>
