<svg width="250" height="250" viewBox="0 0 250 250" fill="none" xmlns="http://www.w3.org/2000/svg">
<g clip-path="url(#clip0_2111_4699)">
<path d="M221 125C221 106.012 215.369 87.4512 204.82 71.6637C194.27 55.8763 179.277 43.5718 161.734 36.3062C144.192 29.0406 124.889 27.1404 106.266 30.8457C87.6434 34.5511 70.5379 43.6955 57.1127 57.1229C43.6875 70.5501 34.5455 87.6571 30.8429 106.28C27.1403 124.903 29.0435 144.206 36.3117 161.747C43.5799 179.289 55.8868 194.281 71.6758 204.828C87.4647 215.374 106.027 221.003 125.014 221C137.621 221.001 150.105 218.52 161.752 213.696C173.399 208.871 183.983 201.8 192.896 192.885C201.81 183.971 208.879 173.386 213.702 161.739C218.523 150.091 221.004 137.607 221 125ZM125.014 50.4227C131.405 50.4217 137.769 51.2371 143.953 52.8493L132.251 80.403C112.939 73.2238 94.1295 69.1173 78.4646 68.7727H76.1098C89.6466 56.9276 107.027 50.4062 125.014 50.4227ZM125.014 199.577C118.579 199.596 112.169 198.775 105.946 197.136L114.561 176.834C111.259 175.618 107.947 174.302 104.626 172.885C101.294 171.449 98.035 170.013 94.8618 168.477L86.2468 188.751C75.8748 182.425 67.2003 173.666 60.9734 163.234C54.7466 152.801 51.1548 141.009 50.5089 128.877L52.2031 130.614C65.2692 143.537 84.9689 155.971 107.698 165.677C130.427 175.383 153.085 180.883 171.449 181.285H173.991C160.439 193.146 143.023 199.651 125.014 199.577ZM150.386 111.991C163.523 118.941 174.651 126.737 182.634 134.649C191.809 143.752 194.638 151.118 193.375 154.09C192.111 157.062 184.846 160.149 171.923 159.833C156.215 159.474 136.415 154.55 116.083 145.92C95.752 137.291 78.4502 126.479 67.2938 115.423C58.1188 106.305 55.3046 98.954 56.5681 95.9818C57.8316 93.0096 65.0682 89.9226 78.0051 90.2384C90.942 90.5543 107.124 94.029 123.88 100.189L109.378 134.29C109.331 134.352 109.293 134.419 109.263 134.491C112.422 136.013 115.681 137.506 119.013 138.928C122.344 140.349 125.675 141.641 128.977 142.862L151.965 88.7595L163.696 61.2058C168.815 64.3166 173.544 68.0282 177.781 72.2618C190.859 85.2882 198.602 102.729 199.491 121.166C198.917 120.563 198.328 119.975 197.711 119.343C187.961 109.68 174.479 100.289 158.771 92.0619L150.386 111.991Z" fill="#2DB67E"/>
</g>
<defs>
<clipPath id="clip0_2111_4699">
<rect width="192" height="192" fill="white" transform="translate(29 29)"/>
</clipPath>
</defs>
</svg>
