<svg width="250" height="250" viewBox="0 0 250 250" fill="none" xmlns="http://www.w3.org/2000/svg">
<path fill-rule="evenodd" clip-rule="evenodd" d="M116.615 19.5598C114.672 19.6098 113.082 19.7744 113.082 19.9269C113.082 20.0794 112.13 20.2879 110.964 20.3904C106.805 20.7575 106.471 20.8014 106.273 20.999C106.163 21.11 105.461 21.2002 104.713 21.2002C103.964 21.2002 103.352 21.3283 103.352 21.4844C103.352 21.6393 102.505 21.8661 101.468 21.9869C100.432 22.1064 99.5145 22.3186 99.428 22.4577C99.3428 22.5967 98.4244 22.8089 97.388 22.9297C96.3527 23.0492 95.505 23.2602 95.505 23.3956C95.505 23.5322 94.8485 23.742 94.0459 23.8627C93.2433 23.9835 92.3603 24.2018 92.0838 24.3469C91.4809 24.6652 90.4457 25.069 90.0108 25.1568C89.1169 25.3373 88.285 25.702 88.285 25.9117C88.285 26.0422 87.7199 26.2398 87.0293 26.3508C86.3387 26.4606 85.7736 26.6728 85.7736 26.8216C85.7736 26.9704 85.2085 27.1826 84.5179 27.2936C83.8273 27.4046 83.2622 27.6192 83.2622 27.7705C83.2622 27.9217 82.7677 28.1388 82.1636 28.2522C81.5595 28.3657 81.065 28.5779 81.065 28.7243C81.065 28.8694 80.5705 29.0816 79.9664 29.195C79.3623 29.3085 78.8678 29.5048 78.8678 29.6317C78.8678 29.7573 78.2333 30.1403 77.4575 30.4818C76.6828 30.8233 76.0471 31.1965 76.0459 31.3136C76.0434 31.4294 75.6184 31.6173 75.1007 31.7307C74.5831 31.8453 74.1592 32.0685 74.1592 32.2271C74.1592 32.3869 73.9571 32.5162 73.711 32.5162C73.4638 32.5162 73.0692 32.7101 72.8329 32.9467C72.5966 33.1833 72.0571 33.487 71.6332 33.6199C71.2094 33.7541 70.626 34.1359 70.3373 34.4688C70.0487 34.8006 69.7661 35.0543 69.7101 35.0323C69.436 34.9225 68.3228 35.5043 68.1012 35.8726C67.9623 36.1019 67.6444 36.2885 67.3948 36.2885C67.1439 36.2885 66.9393 36.4203 66.9393 36.5825C66.9393 36.7435 66.6323 36.9728 66.2572 37.0923C65.5386 37.3204 65.1489 37.5911 63.9468 38.6913C63.5412 39.062 63.1307 39.2864 63.0345 39.1889C62.9371 39.0925 62.8579 39.1779 62.8579 39.3804C62.8579 39.5816 62.6984 39.7463 62.5023 39.7463C62.3062 39.7463 61.8178 40.1 61.4183 40.5329C61.0188 40.9647 60.5535 41.3184 60.3867 41.3184C60.2186 41.3184 59.6584 41.7428 59.1395 42.2612C58.6219 42.7795 58.0775 43.204 57.9313 43.204C57.7839 43.204 57.0653 43.8406 56.3346 44.6188C55.6026 45.3969 54.8645 46.0336 54.6928 46.0336C54.325 46.0336 46.8492 53.5918 46.8492 53.9638C46.8492 54.1028 46.2134 54.8273 45.4364 55.5725C44.6593 56.3177 44.0235 57.1727 44.0235 57.4715C44.0235 57.7703 43.9176 57.952 43.7885 57.8727C43.6594 57.7947 43.3707 57.9276 43.1491 58.1691C42.9262 58.4094 42.8141 58.607 42.8994 58.607C42.9846 58.607 42.6972 58.996 42.2612 59.4717C41.8251 59.9474 41.2673 60.5596 41.0201 60.8341C40.7728 61.1073 40.5707 61.5756 40.5707 61.8744C40.5707 62.172 40.4403 62.3355 40.2796 62.2367C40.12 62.1367 39.8984 62.3403 39.7875 62.6892C39.6779 63.038 39.455 63.3222 39.2943 63.3222C39.1335 63.3222 39.0019 63.5197 39.0019 63.76C39.0019 64.0015 38.79 64.2796 38.5306 64.3796C38.2724 64.4784 38.0605 64.7772 38.0605 65.0419C38.0605 65.3065 37.9277 65.5224 37.7669 65.5224C37.6062 65.5224 37.376 65.8346 37.2554 66.2152C37.1336 66.5969 36.8425 67.1019 36.6062 67.3385C36.37 67.5751 36.1763 67.9556 36.1763 68.1837C36.1763 68.4118 35.9644 68.6801 35.7062 68.7801C35.4467 68.8789 35.2348 69.1777 35.2348 69.4424C35.2348 69.707 35.1094 69.9241 34.9547 69.9241C34.8012 69.9241 34.5869 70.2778 34.4785 70.7096C34.3701 71.1414 34.1423 71.4951 33.973 71.4951C33.8037 71.4951 33.6649 71.7073 33.6649 71.9671C33.6649 72.2256 33.509 72.4378 33.3178 72.4378C33.1266 72.4378 33.051 72.6501 33.1509 72.9099C33.2508 73.1696 33.1948 73.3819 33.0279 73.3819C32.8598 73.3819 32.7234 73.5941 32.7234 73.8526C32.7234 74.1124 32.5882 74.3246 32.4238 74.3246C32.2594 74.3246 32.0316 74.8186 31.9183 75.4223C31.8051 76.0261 31.6029 76.4505 31.4677 76.3676C31.0926 76.1346 30.7857 78.2739 31.0183 79.5106C31.1316 80.1168 31.3496 80.6107 31.503 80.6107C31.6565 80.6107 31.7819 80.8827 31.7819 81.2145C31.7819 81.6304 32.0755 81.8828 32.7234 82.0255C33.241 82.1402 33.6649 82.3524 33.6649 82.4975C33.6649 82.6427 34.0887 82.8549 34.6076 82.9683C35.1252 83.083 35.5491 83.2879 35.5491 83.4257C35.5491 83.5623 36.1142 83.7648 36.8048 83.8758C37.4953 83.9855 38.0605 84.2014 38.0605 84.3526C38.0605 84.5051 38.4466 84.7271 38.9203 84.8454C39.3929 84.9649 39.8521 85.1564 39.9398 85.2723C40.2357 85.6613 42.0748 86.5834 42.5559 86.5834C42.8166 86.5834 43.0894 86.7602 43.1612 86.9773C43.2648 87.2859 43.456 87.2896 44.0516 86.9956C44.4681 86.7895 45.261 86.5322 45.8151 86.4236C46.4558 86.298 46.8967 85.9858 47.0307 85.565C47.1451 85.2003 47.5105 84.6124 47.8418 84.2563C48.1719 83.9014 48.5239 83.2891 48.6213 82.8964C48.72 82.5036 48.9161 82.1829 49.0561 82.1829C49.1962 82.1829 49.4032 81.7584 49.5177 81.2401C49.631 80.7217 49.8514 80.2973 50.0073 80.2973C50.1632 80.2973 50.3788 79.9436 50.4872 79.5106C50.5956 79.0789 50.81 78.7252 50.9646 78.7252C51.1181 78.7252 51.2435 78.5081 51.2435 78.2434C51.2435 77.9787 51.4555 77.6811 51.7149 77.5811C51.9743 77.4823 52.185 77.1286 52.185 76.7957C52.185 76.4627 52.3969 76.109 52.6564 76.0102C52.9158 75.9102 53.1277 75.6321 53.1277 75.3906C53.1277 75.1504 53.2337 74.9515 53.3628 74.9515C53.4919 74.9503 53.9511 74.4198 54.3822 73.7721C54.8134 73.1245 55.3432 72.4086 55.56 72.1805C55.7755 71.9512 55.9521 71.6377 55.9521 71.4829C55.9521 71.3292 56.4113 70.7181 56.9728 70.1254C59.7607 67.1848 60.9518 65.7773 61.1321 65.2065C61.2417 64.8614 61.4524 64.5796 61.5998 64.5796C61.8507 64.5796 62.2855 64.1601 64.5265 61.7549C65.0112 61.2341 65.5471 60.8072 65.7164 60.8072C65.8857 60.8072 66.7834 60.0291 67.7102 59.079C68.6371 58.1277 69.4896 57.3495 69.6041 57.3495C69.7186 57.3495 70.2362 56.9251 70.7539 56.4067C71.2727 55.8884 71.8451 55.4639 72.0278 55.4639C72.2105 55.4639 72.688 55.1102 73.0875 54.6785C73.4882 54.2455 73.9632 53.8918 74.1434 53.8918C74.3249 53.8918 74.4723 53.7601 74.4723 53.5991C74.4723 53.4381 74.7902 53.2064 75.1787 53.0856C75.5672 52.9636 75.9557 52.777 76.0422 52.6709C76.3796 52.255 78.2321 51.0634 78.5414 51.0634C78.7205 51.0634 78.8678 50.9244 78.8678 50.7548C78.8678 50.5853 79.2211 50.3572 79.6522 50.2487C80.0834 50.1401 80.4366 49.9255 80.4366 49.7718C80.4366 49.6169 80.6485 49.4913 80.9079 49.4913C81.1673 49.4913 81.3793 49.3522 81.3793 49.1827C81.3793 49.0132 81.7325 48.7863 82.1636 48.6778C82.5948 48.5692 82.948 48.3655 82.948 48.2253C82.948 48.0838 83.3718 47.8765 83.8894 47.7618C84.4083 47.6484 84.8321 47.4362 84.8321 47.291C84.8321 47.1459 85.256 46.9337 85.7736 46.819C86.2912 46.7056 86.7151 46.4934 86.7151 46.3482C86.7151 46.2019 87.1389 45.9897 87.6566 45.8762C88.1742 45.7628 88.598 45.5506 88.598 45.4042C88.598 45.2591 89.0207 45.0481 89.5371 44.9347C90.0523 44.82 90.5553 44.5968 90.6539 44.437C90.7526 44.2785 91.107 44.148 91.4419 44.148C91.7769 44.148 92.0509 44.0077 92.0509 43.837C92.0509 43.6662 92.6161 43.4357 93.3066 43.3247C93.9972 43.215 94.5623 43.0186 94.5623 42.8905C94.5623 42.7612 95.1275 42.5661 95.818 42.4551C96.5086 42.3441 97.0737 42.1185 97.0737 41.9538C97.0737 41.7892 97.7838 41.5599 98.651 41.4452C99.5182 41.3294 100.3 41.1171 100.39 40.972C100.479 40.8269 101.254 40.6147 102.109 40.5012C102.965 40.3878 103.666 40.1707 103.666 40.0207C103.666 39.8694 104.16 39.7463 104.765 39.7463C105.369 39.7463 105.864 39.6194 105.864 39.4645C105.864 39.3084 106.888 39.0803 108.139 38.9547C109.391 38.8303 110.491 38.6083 110.583 38.4632C110.676 38.3168 112.689 38.0997 115.057 37.9814C117.424 37.8619 119.361 37.6448 119.361 37.4984C119.361 37.3521 121.763 37.2313 124.698 37.2313C127.632 37.2313 130.034 37.3521 130.034 37.4997C130.034 37.646 131.901 37.8656 134.183 37.9863C136.467 38.107 138.408 38.3229 138.5 38.4668C138.591 38.6108 139.831 38.8303 141.256 38.9559C142.68 39.0815 143.845 39.3096 143.845 39.4645C143.845 39.6194 144.269 39.7463 144.787 39.7463C145.306 39.7463 145.73 39.878 145.73 40.0378C145.73 40.1988 146.507 40.4268 147.455 40.5464C148.405 40.6647 149.182 40.8781 149.182 41.0208C149.182 41.1635 149.818 41.3757 150.594 41.4916C151.371 41.6087 152.007 41.816 152.007 41.9538C152.007 42.0904 152.713 42.3002 153.577 42.4185C154.44 42.538 155.075 42.7503 154.988 42.8917C154.901 43.0332 155.395 43.2442 156.087 43.3613C156.778 43.4784 157.344 43.6796 157.344 43.8101C157.344 43.9394 158.121 44.3102 159.07 44.6334C160.02 44.9566 160.797 45.3213 160.797 45.4445C160.797 45.5689 161.221 45.7628 161.738 45.8762C162.256 45.9897 162.68 46.2141 162.68 46.3726C162.68 46.5324 162.856 46.6666 163.072 46.6727C163.288 46.6788 164.029 46.9568 164.72 47.291C165.41 47.6252 166.138 47.9033 166.335 47.9094C166.532 47.9143 166.775 48.1314 166.874 48.3912C166.973 48.6509 167.271 48.8632 167.536 48.8632C167.8 48.8632 168.017 49.0046 168.017 49.1766C168.017 49.3498 168.284 49.4913 168.61 49.4913C168.938 49.4913 169.286 49.7035 169.386 49.9633C169.484 50.2219 169.783 50.4341 170.047 50.4341C170.311 50.4341 170.527 50.5609 170.527 50.7146C170.527 50.8683 170.88 51.0842 171.313 51.1915C171.744 51.3 172.097 51.5281 172.097 51.6976C172.097 51.8672 172.314 52.0062 172.578 52.0062C172.842 52.0062 173.14 52.2184 173.239 52.477C173.338 52.7368 173.587 52.949 173.789 52.949C174.161 52.949 175.304 53.7698 176.743 55.0712C177.173 55.4603 177.641 55.7786 177.782 55.7786C177.924 55.7786 178.473 56.203 179.003 56.7214C179.533 57.2397 180.173 57.6642 180.426 57.6642C180.68 57.6642 180.887 57.8044 180.887 57.9752C180.887 58.1472 181.536 58.8899 182.33 59.6254C184.001 61.1743 186.011 63.1575 187.229 64.4589C187.695 64.9577 188.472 65.7493 188.955 66.2176C190.107 67.336 190.617 67.9581 190.617 68.2422C190.617 68.3691 191.154 68.9752 191.812 69.5912C192.468 70.2059 193.099 70.9572 193.214 71.2597C193.329 71.5621 193.56 71.8097 193.725 71.8097C193.892 71.8097 194.128 72.1281 194.25 72.5171C194.372 72.9062 194.789 73.5209 195.176 73.8819C195.563 74.2442 195.977 74.8454 196.095 75.2187C196.214 75.5906 196.441 75.8956 196.603 75.8956C196.764 75.8956 196.896 76.1078 196.896 76.3676C196.896 76.6274 197.034 76.8396 197.204 76.8396C197.373 76.8396 197.6 77.1933 197.708 77.625C197.816 78.0568 198.031 78.4105 198.185 78.4105C198.339 78.4105 198.466 78.6276 198.466 78.8922C198.466 79.1569 198.668 79.4521 198.916 79.5472C199.165 79.6423 199.459 80.1339 199.569 80.6376C199.68 81.1413 199.898 81.5548 200.054 81.5548C200.21 81.5548 200.425 81.9085 200.534 82.3402C200.642 82.772 200.845 83.1257 200.985 83.1257C201.126 83.1257 201.334 83.5501 201.447 84.0697C201.56 84.588 201.767 85.0125 201.906 85.0125C202.045 85.0125 202.228 85.2759 202.312 85.5979C202.413 85.9845 202.879 86.2614 203.682 86.4126C204.352 86.537 205.088 86.7956 205.316 86.9846C205.619 87.2347 205.792 87.2335 205.947 86.981C206.066 86.7907 206.55 86.5358 207.025 86.4163C207.5 86.298 207.966 86.0736 208.061 85.9199C208.156 85.7662 208.508 85.6406 208.842 85.6406C209.177 85.6406 209.451 85.5101 209.451 85.3515C209.451 85.1918 209.875 84.9686 210.393 84.8551C210.912 84.7405 211.336 84.5331 211.336 84.3929C211.336 84.2538 211.83 84.0465 212.434 83.9331C213.038 83.8196 213.533 83.6026 213.533 83.4513C213.533 83.3001 213.957 83.083 214.474 82.9683C214.992 82.8549 215.416 82.6317 215.416 82.4719C215.416 82.3134 215.622 82.1829 215.872 82.1829C217.128 82.1829 217.903 81.4584 218.107 80.0948C218.219 79.3411 218.437 78.7252 218.591 78.7252C218.743 78.7252 218.869 78.4422 218.869 78.097C218.869 77.7507 218.727 77.4677 218.554 77.4677C218.383 77.4677 218.241 77.3189 218.241 77.1359C218.241 76.5237 216.973 74.01 216.664 74.01C216.495 74.01 216.357 73.7978 216.357 73.538C216.357 73.2794 216.228 73.0672 216.069 73.0672C215.91 73.0672 215.689 72.6525 215.578 72.1463C215.467 71.639 215.172 71.056 214.925 70.8499C214.676 70.6437 214.474 70.2803 214.474 70.0424C214.474 69.8046 214.333 69.6095 214.16 69.6095C213.987 69.6095 213.846 69.407 213.846 69.1606C213.846 68.913 213.669 68.5179 213.454 68.2825C212.983 67.769 212.351 66.8006 212.063 66.1518C211.948 65.892 211.666 65.5663 211.437 65.4285C211.209 65.2907 211.021 64.9723 211.021 64.7211C211.021 64.4711 210.89 64.2649 210.729 64.2649C210.567 64.2649 210.336 63.9466 210.214 63.5588C210.092 63.1697 209.658 62.5391 209.252 62.1586C208.844 61.7781 208.51 61.328 208.51 61.1597C208.51 60.9914 208.157 60.5755 207.726 60.2352C207.293 59.8949 206.94 59.4705 206.94 59.2912C206.94 59.1131 206.446 58.4411 205.841 57.7996C205.237 57.158 204.743 56.547 204.743 56.4409C204.743 56.0945 201.999 53.2881 201.827 53.4588C201.736 53.5503 201.569 53.332 201.454 52.9722C201.341 52.6136 201.112 52.3209 200.945 52.3209C200.778 52.3209 200.549 52.0733 200.436 51.7708C200.23 51.222 197.652 48.5485 197.329 48.5485C197.235 48.5485 196.327 47.735 195.31 46.741C193.107 44.5871 192.599 44.148 192.309 44.148C192.188 44.148 191.583 43.6004 190.962 42.932C190.341 42.2636 189.528 41.6209 189.156 41.505C188.783 41.3891 188.399 41.0879 188.302 40.8354C188.206 40.5817 187.944 40.3756 187.72 40.3756C187.497 40.3756 187.048 40.0219 186.725 39.5889C186.401 39.1572 185.943 38.8035 185.708 38.8035C185.474 38.8035 185.281 38.6717 185.281 38.5108C185.281 38.3498 184.969 38.118 184.589 37.9973C184.209 37.8765 183.704 37.5838 183.468 37.3472C183.233 37.1106 182.853 36.9179 182.624 36.9179C182.396 36.9179 182.128 36.7057 182.028 36.4459C181.929 36.1861 181.697 35.9751 181.51 35.9751C181.325 35.9751 180.876 35.697 180.512 35.3567C180.148 35.0164 179.73 34.8128 179.584 34.9042C179.436 34.9945 179.317 34.9189 179.317 34.7359C179.317 34.553 179.105 34.403 178.846 34.403C178.587 34.403 178.375 34.2639 178.375 34.0944C178.375 33.9249 178.022 33.6968 177.59 33.5894C177.159 33.4809 176.806 33.2772 176.806 33.1357C176.806 32.9955 176.382 32.7881 175.864 32.6735C175.346 32.5601 174.923 32.3393 174.923 32.1832C174.923 32.0271 174.569 31.8112 174.137 31.7026C173.706 31.5941 173.351 31.4148 173.35 31.3038C173.348 31.1928 172.712 30.8233 171.937 30.4818C171.162 30.1403 170.527 29.7524 170.527 29.6207C170.527 29.489 169.963 29.2902 169.273 29.1792C168.582 29.0694 168.017 28.867 168.017 28.7291C168.017 28.5925 167.593 28.3864 167.074 28.273C166.557 28.1596 166.133 27.9376 166.133 27.7802C166.133 27.6229 165.568 27.4046 164.877 27.2936C164.186 27.1826 163.621 26.9753 163.621 26.8326C163.621 26.6899 163.127 26.4801 162.523 26.3667C161.919 26.2532 161.424 26.0337 161.424 25.88C161.424 25.7263 161.071 25.6007 160.64 25.6007C160.209 25.6007 159.855 25.4788 159.855 25.33C159.855 25.1812 159.502 25.0982 159.07 25.1458C158.639 25.1921 158.285 25.1019 158.285 24.9445C158.285 24.7872 158.003 24.6579 157.657 24.6579C157.312 24.6579 157.03 24.5299 157.03 24.3738C157.03 24.2164 156.323 23.9908 155.46 23.8725C154.597 23.7529 153.891 23.5419 153.891 23.4017C153.891 23.2626 153.043 23.0492 152.007 22.9297C150.972 22.8089 150.124 22.5918 150.124 22.4455C150.124 22.3003 149.135 22.0845 147.927 21.9649C146.717 21.8454 145.73 21.6247 145.73 21.4746C145.73 21.3234 145.164 21.2002 144.474 21.2002C143.783 21.2002 143.218 21.0721 143.218 20.916C143.218 20.7599 142.671 20.705 142.003 20.7953C141.277 20.8916 140.701 20.8172 140.572 20.6075C140.45 20.4099 139.489 20.2574 138.36 20.2574C137.262 20.2574 136.316 20.1135 136.258 19.9367C136.15 19.6134 123.86 19.3781 116.615 19.5598ZM157.736 97.1651C157.521 97.2529 157.344 97.5249 157.344 97.7688C157.344 98.014 157.167 98.214 156.952 98.214C156.645 98.214 156.58 100.001 156.656 106.36C156.751 114.23 156.733 114.512 156.136 114.702C155.796 114.81 155.439 115.105 155.342 115.359C155.194 115.745 153.891 115.817 147.136 115.817H139.108L138.338 116.649C137.132 117.953 137.132 130.343 138.338 131.646L139.108 132.478L146.892 132.483L154.675 132.487L155.712 133.402L156.747 134.317L156.653 142.112L156.558 149.908L157.411 150.78L158.265 151.653H164.967H171.669L172.354 150.865C173.019 150.099 173.038 149.846 173.038 142.109V134.141L173.808 133.31L174.578 132.478H182.594C192.921 132.478 191.873 133.386 191.873 124.438C191.873 117.489 191.872 117.481 191.103 116.649L190.333 115.817L182.392 115.812L174.451 115.808L173.745 115.061C173.051 114.328 173.038 114.177 173.038 106.406V98.4994L172.208 97.7286C171.411 96.9883 159.336 96.5187 157.736 97.1651ZM58.0555 116.539C57.7462 116.921 57.3589 117.444 57.1981 117.704C57.0361 117.963 56.9021 120.937 56.8985 124.313L56.8936 130.452L57.818 131.465L58.7425 132.478H84.524H110.307L111.224 131.559L112.141 130.64V124.147V117.655L111.224 116.737L110.307 115.817L84.4631 115.832L58.6207 115.847L58.0555 116.539ZM42.4548 162.026C42.4548 162.199 42.1589 162.341 41.7971 162.341C41.1358 162.341 39.2443 163.252 39.0604 163.659C39.0056 163.779 38.7583 163.8 38.5111 163.704C38.2626 163.608 38.0605 163.687 38.0605 163.879C38.0605 164.07 37.8485 164.227 37.5891 164.227C37.3297 164.227 37.1178 164.357 37.1178 164.516C37.1178 164.675 36.6939 164.899 36.1763 165.012C35.6587 165.127 35.2348 165.332 35.2348 165.469C35.2348 165.606 34.6697 165.808 33.9791 165.919C33.2885 166.029 32.7234 166.26 32.7234 166.43C32.7234 166.601 32.5115 166.741 32.2533 166.741C31.9939 166.741 31.7819 166.941 31.7819 167.187C31.7819 167.432 31.6455 167.679 31.4787 167.737C30.8953 167.938 30.7162 171.287 31.2594 171.831C31.5298 172.102 31.8441 172.695 31.9573 173.147C32.0706 173.601 32.2898 173.972 32.4433 173.972C32.598 173.972 32.7234 174.184 32.7234 174.442C32.7234 174.702 32.8805 174.914 33.0705 174.914C33.2618 174.914 33.3373 175.127 33.2374 175.386C33.1387 175.645 33.1935 175.857 33.3616 175.857C33.5285 175.857 33.6649 176.069 33.6649 176.329C33.6649 176.588 33.8037 176.8 33.973 176.8C34.1423 176.8 34.3701 177.154 34.4785 177.587C34.5869 178.018 34.7854 178.372 34.9206 178.372C35.0558 178.372 35.2555 178.726 35.3639 179.157C35.4723 179.59 35.6989 179.944 35.8682 179.944C36.0375 179.944 36.1763 180.16 36.1763 180.425C36.1763 180.691 36.3882 180.988 36.6476 181.087C36.9059 181.187 37.1178 181.455 37.1178 181.683C37.1178 181.913 37.2944 182.292 37.5112 182.529C37.9813 183.042 38.6122 184.009 38.9021 184.659C39.0166 184.918 39.2979 185.244 39.5269 185.381C39.7558 185.52 39.9434 185.786 39.9434 185.974C39.9434 186.162 40.2966 186.644 40.7278 187.044C41.1601 187.445 41.5134 187.916 41.5134 188.091C41.5134 188.266 41.9372 188.844 42.4548 189.375C42.9724 189.905 43.3963 190.416 43.3963 190.509C43.3963 190.603 43.8214 191.128 44.3402 191.677C44.8591 192.226 45.4948 192.899 45.753 193.173C46.01 193.447 46.2219 193.77 46.2219 193.891C46.2219 194.201 54.9327 202.891 55.2433 202.891C55.3846 202.891 55.7183 203.138 55.9875 203.441C56.795 204.352 58.4404 205.72 58.7278 205.72C58.8764 205.72 59.3222 206.145 59.7192 206.663C60.1163 207.181 60.7107 207.606 61.0407 207.606C61.3696 207.606 61.5584 207.738 61.4597 207.897C61.361 208.058 61.5644 208.28 61.9116 208.39C62.2599 208.501 62.5449 208.723 62.5449 208.884C62.5449 209.046 62.7605 209.178 63.0248 209.178C63.2891 209.178 63.5826 209.377 63.6751 209.621C63.7689 209.865 64.1879 210.15 64.6081 210.256C65.0271 210.361 65.3693 210.586 65.3693 210.755C65.3693 210.925 65.5812 211.064 65.8407 211.064C66.0989 211.064 66.3108 211.203 66.3108 211.372C66.3108 211.542 66.6543 211.767 67.0732 211.872C67.4922 211.977 67.9124 212.263 68.005 212.506C68.0987 212.75 68.391 212.95 68.6553 212.95C68.9196 212.95 69.1364 213.088 69.1364 213.258C69.1364 213.427 69.4896 213.655 69.9208 213.764C70.3532 213.872 70.7064 214.073 70.7064 214.208C70.7064 214.343 71.0596 214.542 71.4907 214.651C71.9219 214.759 72.2751 214.987 72.2751 215.157C72.2751 215.326 72.487 215.464 72.7464 215.464C73.0059 215.464 73.2178 215.595 73.2178 215.754C73.2178 215.913 73.6404 216.136 74.1592 216.251C74.6769 216.364 75.1007 216.576 75.1007 216.722C75.1007 216.868 75.5246 217.08 76.0422 217.194C76.5598 217.307 76.9837 217.519 76.9837 217.666C76.9837 217.811 77.4075 218.023 77.9264 218.136C78.444 218.251 78.8678 218.468 78.8678 218.619C78.8678 218.771 79.3623 218.986 79.9664 219.1C80.5705 219.213 81.065 219.433 81.065 219.587C81.065 219.74 81.2769 219.866 81.5351 219.866C81.7946 219.866 82.0065 220 82.0065 220.166C82.0065 220.331 82.501 220.559 83.1051 220.672C83.7092 220.785 84.2037 220.992 84.2037 221.131C84.2037 221.268 84.7688 221.477 85.4594 221.594C86.15 221.711 86.7151 221.934 86.7151 222.089C86.7151 222.245 87.2802 222.464 87.9708 222.573C88.6614 222.684 89.2265 222.882 89.2265 223.014C89.2265 223.144 89.8623 223.348 90.6393 223.464C91.4164 223.581 92.0509 223.809 92.0509 223.971C92.0509 224.133 92.3968 224.266 92.8182 224.266C93.2396 224.266 93.6635 224.394 93.7597 224.552C93.8559 224.708 94.6415 224.934 95.505 225.052C96.3673 225.171 97.0737 225.382 97.0737 225.523C97.0737 225.662 97.9214 225.875 98.9579 225.995C99.9932 226.115 100.841 226.325 100.841 226.461C100.841 226.596 101.936 226.809 103.273 226.935C104.612 227.059 105.778 227.278 105.866 227.418C105.955 227.559 107.438 227.777 109.163 227.901C110.888 228.027 112.399 228.285 112.522 228.477C112.851 228.988 136.562 228.966 136.878 228.453C137.013 228.234 138.377 228.002 140.234 227.883C141.954 227.772 143.506 227.562 143.682 227.416C143.859 227.269 145.027 227.048 146.279 226.924C147.53 226.801 148.554 226.591 148.554 226.457C148.554 226.324 149.402 226.115 150.438 225.995C151.475 225.875 152.395 225.657 152.486 225.51C152.576 225.365 153.283 225.151 154.059 225.034C154.834 224.918 155.545 224.697 155.64 224.544C155.734 224.392 156.156 224.266 156.578 224.266C156.999 224.266 157.344 224.141 157.344 223.988C157.344 223.835 157.98 223.614 158.756 223.497C159.533 223.38 160.168 223.165 160.168 223.017C160.168 222.87 160.733 222.654 161.424 222.537C162.115 222.421 162.68 222.198 162.68 222.042C162.68 221.887 163.245 221.669 163.935 221.558C164.626 221.448 165.191 221.262 165.191 221.148C165.191 221.033 165.968 220.674 166.918 220.351C167.867 220.028 168.644 219.656 168.644 219.526C168.644 219.394 169.068 219.194 169.586 219.079C170.104 218.966 170.527 218.754 170.527 218.608C170.527 218.463 170.951 218.251 171.47 218.136C171.987 218.023 172.411 217.811 172.411 217.666C172.411 217.519 172.835 217.307 173.353 217.194C173.87 217.08 174.294 216.885 174.294 216.761C174.294 216.636 174.798 216.352 175.413 216.129C176.03 215.906 176.606 215.532 176.696 215.299C176.785 215.065 177.27 214.784 177.774 214.673C178.277 214.563 178.688 214.344 178.688 214.188C178.688 214.032 179.042 213.816 179.474 213.708C179.905 213.599 180.258 213.399 180.258 213.264C180.258 213.128 180.612 212.93 181.043 212.821C181.475 212.713 181.828 212.485 181.828 212.315C181.828 212.145 182.044 212.006 182.308 212.006C182.574 212.006 182.871 211.794 182.971 211.536C183.069 211.276 183.314 211.064 183.513 211.064C183.713 211.064 184.226 210.738 184.656 210.34C185.086 209.943 185.686 209.523 185.988 209.407C186.29 209.291 186.537 209.051 186.537 208.873C186.537 208.695 186.738 208.549 186.984 208.549C187.229 208.549 187.854 208.124 188.372 207.606C188.89 207.088 189.406 206.663 189.518 206.663C189.632 206.663 190.148 206.239 190.666 205.72C191.183 205.202 191.744 204.778 191.911 204.778C192.077 204.778 192.973 203.999 193.899 203.048C194.828 202.097 195.679 201.32 195.795 201.32C196.058 201.32 201.604 195.816 201.604 195.555C201.604 195.447 202.381 194.582 203.33 193.631C204.28 192.681 205.063 191.722 205.07 191.503C205.078 191.283 205.502 190.756 206.012 190.332C206.522 189.908 206.94 189.442 206.94 189.296C206.94 189.15 207.293 188.678 207.726 188.245C208.157 187.813 208.51 187.318 208.51 187.145C208.51 186.971 208.863 186.502 209.294 186.101C209.727 185.701 210.08 185.208 210.08 185.006C210.08 184.804 210.278 184.563 210.522 184.469C210.766 184.375 211.051 183.956 211.155 183.536C211.261 183.117 211.485 182.773 211.655 182.773C211.824 182.773 211.963 182.56 211.963 182.302C211.963 182.042 212.102 181.83 212.271 181.83C212.44 181.83 212.667 181.476 212.775 181.044C212.884 180.611 213.102 180.258 213.26 180.258C213.418 180.258 213.685 179.941 213.853 179.551C214.206 178.733 214.858 177.657 215.138 177.429C215.244 177.343 215.438 176.929 215.569 176.511C215.7 176.091 216.077 175.457 216.408 175.102C216.738 174.746 217.09 174.134 217.189 173.742C217.286 173.35 217.483 173.029 217.623 173.029C217.763 173.029 217.97 172.604 218.084 172.085C218.198 171.566 218.42 171.142 218.58 171.142C218.738 171.142 218.869 170.788 218.869 170.356C218.869 169.925 218.746 169.571 218.595 169.571C218.445 169.571 218.232 169.008 218.121 168.318C217.962 167.327 217.759 167.026 217.139 166.87C216.709 166.762 216.357 166.558 216.357 166.418C216.357 166.278 215.933 166.069 215.416 165.956C214.898 165.841 214.474 165.624 214.474 165.473C214.474 165.322 213.98 165.106 213.376 164.991C212.772 164.878 212.277 164.66 212.277 164.506C212.277 164.352 212.065 164.227 211.806 164.227C211.548 164.227 211.336 164.077 211.336 163.894C211.336 163.711 211.214 163.636 211.065 163.728C210.752 163.922 209.143 163.234 209.14 162.904C209.138 162.784 208.644 162.591 208.039 162.478C207.434 162.364 206.94 162.145 206.94 161.991C206.94 161.837 206.234 161.712 205.371 161.712C204.508 161.712 203.801 161.853 203.801 162.026C203.801 162.199 203.611 162.341 203.379 162.341C202.706 162.341 201.665 163.402 201.434 164.324C201.318 164.789 201.111 165.169 200.976 165.169C200.841 165.169 200.642 165.523 200.534 165.956C200.425 166.388 200.21 166.741 200.054 166.741C199.898 166.741 199.677 167.166 199.564 167.684C199.45 168.203 199.243 168.627 199.103 168.627C198.961 168.627 198.758 168.981 198.649 169.414C198.542 169.845 198.315 170.199 198.145 170.199C197.976 170.199 197.837 170.416 197.837 170.681C197.837 170.946 197.625 171.243 197.367 171.343C197.108 171.442 196.896 171.721 196.896 171.962C196.896 172.203 196.764 172.399 196.603 172.399C196.441 172.399 196.21 172.718 196.088 173.107C195.966 173.496 195.533 174.125 195.126 174.507C194.718 174.887 194.384 175.327 194.384 175.483C194.384 175.638 194.029 176.15 193.595 176.619C193.16 177.089 192.9 177.639 193.016 177.844C193.133 178.048 193.122 178.118 192.991 178C192.734 177.77 190.931 179.464 190.931 179.937C190.931 180.094 189.872 181.277 188.577 182.565C187.282 183.853 186.223 185.064 186.223 185.255C186.223 185.446 186.075 185.602 185.894 185.602C185.714 185.602 184.441 186.734 183.065 188.117C181.69 189.5 180.435 190.632 180.277 190.632C180.12 190.632 179.697 191.004 179.34 191.46C178.982 191.915 178.688 192.176 178.688 192.041C178.688 191.904 178.425 192.097 178.103 192.47C177.781 192.842 177.388 193.147 177.231 193.147C177.073 193.147 176.703 193.429 176.407 193.775C176.113 194.12 175.657 194.403 175.396 194.403C175.136 194.403 174.923 194.548 174.923 194.726C174.923 194.903 174.566 195.184 174.13 195.35C173.694 195.515 173.255 195.866 173.155 196.127C173.054 196.388 172.868 196.535 172.74 196.456C172.611 196.377 172.237 196.561 171.909 196.867C171.581 197.172 171.065 197.516 170.763 197.632C170.461 197.747 170.214 197.988 170.214 198.166C170.214 198.344 169.95 198.49 169.628 198.49C169.307 198.49 168.683 198.773 168.245 199.118C167.806 199.465 167.292 199.748 167.103 199.748C166.915 199.748 166.761 199.889 166.761 200.062C166.761 200.234 166.549 200.376 166.29 200.376C166.03 200.376 165.818 200.523 165.818 200.704C165.818 200.884 165.642 201.011 165.426 200.984C164.837 200.912 163.621 201.358 163.621 201.645C163.621 201.785 163.197 201.991 162.68 202.105C162.162 202.219 161.738 202.431 161.738 202.576C161.738 202.722 161.314 202.935 160.797 203.048C160.278 203.161 159.855 203.374 159.855 203.52C159.855 203.665 159.422 203.88 158.892 203.996C158.362 204.113 157.55 204.406 157.087 204.647C156.624 204.89 156.094 205.089 155.912 205.09C155.728 205.091 154.846 205.445 153.951 205.878C153.057 206.309 152.041 206.663 151.695 206.663C151.349 206.663 151.065 206.789 151.065 206.941C151.065 207.094 150.288 207.317 149.34 207.435C148.39 207.555 147.613 207.767 147.613 207.907C147.613 208.047 146.8 208.263 145.808 208.388C144.815 208.512 143.925 208.739 143.828 208.894C143.732 209.049 142.567 209.267 141.238 209.38C139.91 209.493 138.824 209.705 138.824 209.853C138.824 210 138.047 210.121 137.097 210.121C136.035 210.121 135.37 210.256 135.37 210.472C135.37 210.716 134.76 210.758 133.361 210.607C132.051 210.467 131.281 210.509 131.146 210.728C130.866 211.182 118.535 211.192 118.256 210.739C118.127 210.531 117.219 210.489 115.727 210.625C114.07 210.775 113.397 210.733 113.397 210.478C113.397 210.265 112.832 210.121 111.984 210.121C111.208 210.121 110.572 210 110.572 209.851C110.572 209.704 109.558 209.488 108.319 209.373C107.08 209.257 105.915 209.043 105.73 208.895C105.545 208.748 104.58 208.528 103.587 208.408C102.595 208.288 101.782 208.077 101.782 207.939C101.782 207.8 101.043 207.589 100.141 207.469C99.2368 207.349 98.4244 207.153 98.3355 207.035C98.1163 206.746 95.08 205.72 94.4417 205.72C94.1628 205.72 93.9351 205.585 93.9351 205.42C93.9351 205.254 93.4406 205.028 92.8365 204.913C92.2324 204.799 91.7379 204.587 91.7379 204.442C91.7379 204.296 91.2434 204.084 90.6393 203.97C90.0352 203.857 89.5407 203.644 89.5407 203.499C89.5407 203.353 89.0462 203.141 88.4421 203.027C87.8368 202.914 87.3423 202.707 87.3423 202.566C87.3423 202.427 86.8844 202.211 86.3229 202.088C85.7614 201.965 85.1159 201.597 84.8882 201.272C84.6616 200.947 84.3438 200.761 84.183 200.861C84.021 200.96 83.8894 200.892 83.8894 200.709C83.8894 200.526 83.6775 200.376 83.4193 200.376C83.1599 200.376 82.948 200.242 82.948 200.076C82.948 199.911 82.4547 199.683 81.8518 199.57C81.2502 199.457 80.8312 199.243 80.9237 199.094C81.0151 198.945 80.7313 198.733 80.2929 198.622C79.8544 198.512 79.4951 198.311 79.4951 198.176C79.4951 198.04 79.1419 197.841 78.7107 197.733C78.2784 197.624 77.9264 197.396 77.9264 197.227C77.9264 197.057 77.7145 196.918 77.455 196.918C77.1956 196.918 76.9837 196.786 76.9837 196.625C76.9837 196.464 76.6792 196.235 76.3077 196.117C75.935 195.998 75.3346 195.59 74.9728 195.208C74.6111 194.826 74.0691 194.423 73.7671 194.312C73.465 194.201 73.2178 193.963 73.2178 193.785C73.2178 193.607 73.0071 193.46 72.7489 193.46C72.4919 193.46 71.8756 193.036 71.3811 192.518C70.8866 191.999 70.3848 191.575 70.2679 191.575C70.151 191.575 69.3922 190.938 68.581 190.16C67.7699 189.382 67.0087 188.745 66.8881 188.745C66.5824 188.745 60.3477 182.529 60.3477 182.224C60.3477 182.087 59.7119 181.311 58.9349 180.5C58.1578 179.688 57.5221 178.937 57.5221 178.831C57.5221 178.725 57.0982 178.214 56.5806 177.695C56.0618 177.177 55.6391 176.615 55.6391 176.447C55.6391 176.279 55.3212 175.829 54.9327 175.447C54.1289 174.657 53.5053 173.742 53.2446 172.971C53.146 172.681 52.8671 172.366 52.6259 172.274C52.3836 172.181 52.185 171.888 52.185 171.624C52.185 171.359 52.0474 171.142 51.8781 171.142C51.7088 171.142 51.481 170.788 51.3727 170.356C51.2643 169.925 51.0499 169.571 50.8964 169.571C50.7418 169.571 50.6163 169.369 50.6163 169.121C50.6163 168.875 50.4397 168.486 50.2241 168.257C50.0073 168.028 49.5031 167.17 49.1036 166.349C48.7029 165.528 48.2438 164.856 48.083 164.856C47.9222 164.856 47.7907 164.564 47.7907 164.208C47.7907 163.852 47.6604 163.642 47.4996 163.741C47.3388 163.841 47.1622 163.601 47.1074 163.209C47.0343 162.698 46.7627 162.47 46.1428 162.398C45.6678 162.343 45.2792 162.167 45.2792 162.006C45.2792 161.845 44.6435 161.712 43.8676 161.712C43.0906 161.712 42.4548 161.853 42.4548 162.026Z" fill="#242C34"/>
<path fill-rule="evenodd" clip-rule="evenodd" d="M122.25 19.5476C123.409 19.6074 125.385 19.6074 126.645 19.5476C127.904 19.4879 126.956 19.4391 124.54 19.4379C122.122 19.4379 121.092 19.4867 122.25 19.5476ZM156.537 106.859C156.537 111.181 156.581 112.993 156.635 110.885C156.689 108.777 156.69 105.24 156.635 103.027C156.582 100.812 156.537 102.537 156.537 106.859ZM156.537 141.593C156.537 145.829 156.581 147.562 156.635 145.445C156.69 143.327 156.69 139.862 156.635 137.743C156.581 135.626 156.537 137.359 156.537 141.593ZM114.731 210.651C115.033 210.731 115.527 210.731 115.829 210.651C116.131 210.573 115.884 210.509 115.28 210.509C114.675 210.509 114.429 210.573 114.731 210.651ZM133.565 210.651C133.867 210.731 134.36 210.731 134.664 210.651C134.966 210.573 134.718 210.509 134.114 210.509C133.509 210.509 133.262 210.573 133.565 210.651Z" fill="#242C3C"/>
</svg>
