<svg width="250" height="250" viewBox="0 0 250 250" fill="none" xmlns="http://www.w3.org/2000/svg">
<g clip-path="url(#clip0_2111_4987)">
<path d="M125.123 223.925C119.493 227.364 113.648 230.336 106.924 230.766C103.865 230.962 100.684 231.017 97.7047 230.417C83.7124 227.597 74.1583 219.572 69.5159 205.922C69.2085 205.018 67.848 203.94 66.9001 203.861C47.6599 202.252 33.4551 186.204 34.4 166.922C34.5041 164.797 35.1388 162.687 35.1262 160.572C35.1187 159.305 34.7059 157.638 33.8381 156.84C23.977 147.765 20.2156 136.64 22.5603 123.564C23.1369 120.348 24.4828 117.207 25.8874 114.225C26.7618 112.368 26.6969 111.082 25.5427 109.457C21.305 103.492 18.7995 96.6988 19.0126 89.4988C19.4838 73.5775 28.8128 60.1773 45.0959 55.4846C47.0096 54.9331 48.3711 54.2687 49.1601 52.2757C56.318 34.1972 77.0612 25.1185 95.8725 32.9098C96.2237 33.0552 96.5958 33.1503 97.0024 33.2834C104.295 24.833 113.46 20.2604 124.838 20C125.086 30.4121 125.085 40.4991 125.087 50.5862C125.099 108.366 125.111 166.146 125.123 223.925H125.123Z" fill="#1B6FD8"/>
<path d="M125.313 224.04C125.111 166.146 125.098 108.366 125.087 50.5862C125.085 40.4991 125.086 30.4121 125.088 20.0521C134.376 20.0568 142.798 23.1307 149.221 29.639C152.513 32.975 154.953 32.738 158.731 31.6254C175.861 26.5812 194.108 35.5836 200.806 52.1972C201.482 53.8742 202.359 54.8695 204.193 55.3818C218.741 59.4455 228.016 69.9782 230.561 84.5214C232.209 93.9355 229.02 102.17 224.14 110.004C223.568 110.924 223.359 112.658 223.841 113.554C230.736 126.361 229.221 141.823 219.763 153.061C218.645 154.39 217.398 155.643 216.055 156.742C214.606 157.93 214.601 159.256 214.924 160.918C217.741 175.427 213.221 187.399 201.827 196.64C196.497 200.963 190.16 203.482 183.195 203.686C181.103 203.747 180.801 204.852 180.335 206.24C177.343 215.144 171.918 222.126 163.536 226.504C154.089 231.437 144.235 232.625 134.148 228.488C131.174 227.268 128.38 225.612 125.313 224.04H125.313Z" fill="#044BA2"/>
</g>
<defs>
<clipPath id="clip0_2111_4987">
<rect width="212" height="211" fill="white" transform="translate(19 20)"/>
</clipPath>
</defs>
</svg>
