<svg width="250" height="250" viewBox="0 0 250 250" fill="none" xmlns="http://www.w3.org/2000/svg">
<g clip-path="url(#clip0_2110_4537)">
<path d="M211.977 121.086C211.977 170.359 172.889 210.341 124.644 210.341C76.3993 210.341 37.3105 170.359 37.3105 121.086C37.3105 71.8126 76.3993 31.8309 124.644 31.8309C172.889 31.8309 211.977 71.8126 211.977 121.086Z" fill="#D33833"/>
<path d="M40.9022 143.188C40.9022 143.188 34.5635 50.1324 120.418 47.4576L114.431 37.4622L67.8769 53.0888L54.5656 68.3635L42.9447 90.6068L36.3242 116.51L38.2963 133.826" fill="#EF3D3A"/>
<path d="M64.8493 60.1982C49.566 75.8952 40.0579 97.505 40.0579 121.438C40.0579 145.37 49.566 166.98 64.8493 182.677C80.2031 198.374 101.262 208.018 124.645 208.018C148.027 208.018 169.086 198.374 184.44 182.677C199.723 166.98 209.231 145.37 209.231 121.438C209.231 97.505 199.723 75.8952 184.44 60.1982C169.086 44.5715 148.027 34.8577 124.645 34.8577C101.332 34.8577 80.2031 44.5011 64.8493 60.1982ZM60.9756 186.408C44.7063 169.796 34.6348 146.778 34.6348 121.438C34.6348 96.0972 44.7063 73.0796 60.9756 56.3971C77.245 39.785 99.7827 29.4376 124.645 29.4376C149.506 29.4376 172.044 39.785 188.313 56.3971C204.583 73.0092 214.654 96.0268 214.654 121.438C214.654 146.778 204.583 169.796 188.313 186.408C172.044 203.09 149.506 213.367 124.645 213.367C99.7827 213.367 77.245 203.09 60.9756 186.408Z" fill="#231F20"/>
<path d="M161.409 121.578L148.097 123.549L130.138 125.591L118.517 125.872L107.177 125.52L98.5145 122.846L90.8377 114.539L84.8511 97.5754L83.5129 93.9151L75.5543 91.2403L70.9059 83.5677L67.5957 72.5869L71.2581 62.9434L79.921 59.9166L86.8936 63.225L90.2038 70.5456L94.2183 69.912L95.5565 68.2227L94.2183 60.5501L93.8662 50.9067L95.8382 37.6029L95.7678 30.0008L101.825 20.2869L112.46 12.6144L131.053 4.66028L151.689 7.68706L169.649 20.6389L177.96 33.9426L183.312 43.5861L184.651 67.5188L180.636 88.1431L173.311 106.445L166.409 116.229" fill="#F0D6B7"/>
<path d="M150.139 179.087L102.599 181.058V189.012L106.613 216.957L104.641 219.28L71.3983 207.947L69.0741 203.935L65.7639 166.347L57.9462 143.822L56.2559 138.472L82.8785 120.171L91.1892 116.862L98.514 125.872L104.853 131.503L112.177 133.826L115.488 134.812L119.502 152.128L122.531 155.788L130.208 153.113L124.855 163.461L153.731 177.116L150.139 179.087Z" fill="#335061"/>
<path d="M71.2581 63.0842L79.921 60.0574L86.8936 63.3658L90.2038 70.6864L94.2183 70.0529L95.2043 66.0406L93.2323 58.3681L95.2043 40.0666L93.514 30.0712L99.5006 23.1026L112.46 12.8256L108.797 7.82788L90.4855 16.8378L82.8086 22.821L78.5124 32.1125L71.892 41.1225L69.9199 51.7514L71.2581 63.0842Z" fill="#6D6B6D"/>
<path d="M84.921 31.8309C84.921 31.8309 89.9216 19.5126 109.853 13.5295C129.785 7.5463 110.839 9.23567 110.839 9.23567L89.2173 17.5417L80.9065 25.8478L77.2441 32.4644L84.921 31.8309Z" fill="#DCD9D8"/>
<path d="M74.9205 60.7614C74.9205 60.7614 67.9479 37.4622 94.5705 34.1538L93.5845 30.1416L75.2726 34.4354L69.9199 51.7514L71.2581 63.0842L74.9205 60.7614Z" fill="#DCD9D8"/>
<path d="M85.5566 91.6626L89.9233 87.4392C89.9233 87.4392 91.8954 87.6504 92.2475 89.9733C92.5997 92.2961 93.5857 113.272 107.883 124.535C109.221 125.591 97.248 122.846 97.248 122.846L86.6131 106.233" fill="#F7E4CD"/>
<path d="M146.76 85.3275C146.76 85.3275 147.534 75.2617 150.281 76.036C153.028 76.8103 153.028 79.5555 153.028 79.5555C153.028 79.5555 146.408 83.7789 146.76 85.3275Z" fill="#F7E4CD"/>
<path d="M174.369 48.443C174.369 48.443 168.875 49.5692 168.382 54.4262C167.889 59.2831 174.369 55.4116 175.355 55.0597" fill="#F7E4CD"/>
<path d="M134.153 48.7949C134.153 48.7949 126.828 49.7804 126.828 54.4261C126.828 59.0719 135.139 58.7199 137.463 56.749" fill="#F7E4CD"/>
<path d="M88.9365 70.4048C88.9365 70.4048 76.3295 62.7323 74.9913 70.0529C73.6532 77.3735 70.6951 82.6527 76.9634 90.3253L72.6671 88.9878L68.6526 78.7109L67.3145 68.7155L74.9913 60.7614L83.6543 61.3949L88.6548 65.4071L88.9365 70.4048Z" fill="#F7E4CD"/>
<path d="M94.9228 49.4284C94.9228 49.4284 100.557 20.1461 129.152 14.5149C152.676 9.8691 165.071 15.5003 169.72 20.85C169.72 20.85 148.731 -4.06817 128.8 3.53397C108.868 11.2065 94.2185 25.1438 94.5707 34.0833C95.1341 49.4284 94.9228 49.4284 94.9228 49.4284Z" fill="#F7E4CD"/>
<path d="M172.044 24.1584C172.044 24.1584 162.395 23.8064 162.043 32.4644C162.043 32.4644 162.043 33.8018 162.677 35.1392C162.677 35.1392 170.354 26.4812 175.002 31.127" fill="#F7E4CD"/>
<path d="M129.856 36.0543C129.856 36.0543 128.166 22.8209 116.897 30.4935C109.573 35.4912 110.277 42.4598 111.545 43.7972C112.883 45.1346 112.531 47.8095 113.517 45.9793C114.503 44.1492 114.221 38.166 117.883 36.4766C121.475 34.7873 127.532 32.9571 129.856 36.0543Z" fill="#F7E4CD"/>
<path d="M98.5862 125.872L67.3152 139.81C67.3152 139.81 80.2744 191.335 73.6539 207.314L69.0056 205.624L68.6534 185.986L59.9905 148.82L56.3281 138.543L88.9373 116.581L98.5862 125.872Z" fill="#49728B"/>
<path d="M101.754 154.38L106.192 159.8V179.721H100.909C100.909 179.721 100.275 165.784 100.275 164.094C100.275 162.405 100.909 156.422 100.909 156.422" fill="#49728B"/>
<path d="M101.896 182.748L86.8945 183.381L91.1908 186.408L101.826 188.097" fill="#49728B"/>
<path d="M153.098 179.439L165.423 179.087L168.451 209.637L155.844 211.326L153.098 179.439Z" fill="#335061"/>
<path d="M156.408 179.439L175.002 178.454C175.002 178.454 182.679 159.167 182.679 158.181C182.679 157.196 189.299 130.237 189.299 130.237L174.297 114.61L171.269 111.935L163.31 119.889V150.79L156.408 179.439Z" fill="#335061"/>
<path d="M164.719 177.116L153.098 179.439L154.788 188.731C159.084 190.702 166.409 185.422 166.409 185.422" fill="#49728B"/>
<path d="M165.072 118.904L188.385 136.22L189.019 128.266L171.411 112.005L165.072 118.904Z" fill="#49728B"/>
<path d="M113.446 244.902L106.544 216.957L103.093 196.333L102.529 181.058L133.73 179.369H153.098L151.337 214.282L154.366 241.242L154.014 246.24L128.729 248.211L113.446 244.902Z" fill="white"/>
<path d="M148.801 179.087C148.801 179.087 147.111 213.649 152.111 238.285C152.111 238.285 142.11 244.621 127.531 246.24L155.492 245.254L158.802 243.283L154.788 188.801L153.731 177.116" fill="#DCD9D8"/>
<path d="M168.945 207.032L181.904 203.372L206.485 202.035L210.147 190.702L203.527 171.063L195.85 170.077L185.215 173.386L175.073 178.383L169.65 177.398L165.424 179.087" fill="white"/>
<path d="M168.734 200.345C168.734 200.345 177.397 196.333 178.735 196.685L175.073 178.383L179.369 176.694C179.369 176.694 182.398 194.01 182.398 195.981C182.398 195.981 200.991 196.966 202.682 196.966C202.682 196.966 206.696 189.294 205.71 181.34L209.373 191.969L209.725 197.952L204.372 205.906L198.385 207.243L188.384 206.891L185.074 202.598L173.453 204.287L169.791 205.624" fill="#DCD9D8"/>
<path d="M155.634 176.764L148.31 158.181L140.633 147.201C140.633 147.201 142.323 142.555 144.647 142.555H152.324L159.649 145.23L159.015 157.548L155.634 176.764Z" fill="white"/>
<path d="M157.112 170.429C157.112 170.429 147.816 152.48 147.816 149.805C147.816 149.805 149.506 145.793 151.83 146.778C154.154 147.764 159.155 150.439 159.155 150.439V144.103L147.816 141.781L140.139 142.766L153.098 173.456L155.774 173.808" fill="#DCD9D8"/>
<path d="M116.405 126.576L107.179 125.591L98.5156 122.916V125.943L102.741 130.588L116.053 136.572" fill="white"/>
<path d="M101.543 127.562C101.543 127.562 111.825 131.855 115.206 130.87L115.558 134.882L106.261 132.911L100.627 128.899L101.543 127.562Z" fill="#DCD9D8"/>
<path d="M168.946 143.681C163.311 143.54 158.17 142.836 153.733 141.569C154.014 139.739 153.451 137.979 153.944 136.642C155.212 135.727 157.254 135.727 159.156 135.516C157.536 134.741 155.212 134.389 153.381 134.882C153.31 133.615 152.747 132.841 152.395 131.855C155.564 130.729 163.029 123.338 167.255 125.731C169.298 126.928 170.143 133.545 170.284 136.853C170.425 139.528 170.002 142.203 168.946 143.681Z" fill="#D33833"/>
<path d="M168.946 143.681C163.311 143.54 158.17 142.836 153.733 141.569C154.014 139.739 153.451 137.979 153.944 136.642C155.212 135.727 157.254 135.727 159.156 135.516C157.536 134.741 155.212 134.389 153.381 134.882C153.31 133.615 152.747 132.841 152.395 131.855C155.564 130.729 163.029 123.338 167.255 125.731C169.298 126.928 170.143 133.545 170.284 136.853C170.425 139.528 170.002 142.203 168.946 143.681Z" fill="black" stroke="#D33833" stroke-width="2"/>
<path d="M141.971 134.46C141.971 134.882 141.971 135.305 141.901 135.727C140.14 136.853 137.323 136.853 135.351 137.839C138.168 137.979 140.422 138.683 142.394 139.598C142.323 140.654 142.323 141.781 142.253 142.836C139.013 145.018 136.055 148.327 132.252 150.439C130.421 151.424 124.152 153.958 122.251 153.465C121.194 153.184 121.053 151.846 120.631 150.579C119.715 147.904 117.602 143.54 117.391 139.458C117.18 134.319 116.616 125.661 122.18 126.717C126.688 127.562 131.9 129.603 135.351 131.504C137.534 132.771 138.731 134.178 141.971 134.46Z" fill="#D33833"/>
<path d="M141.971 134.46C141.971 134.882 141.971 135.305 141.901 135.727C140.14 136.853 137.323 136.853 135.351 137.839C138.168 137.979 140.422 138.683 142.394 139.598C142.323 140.654 142.323 141.781 142.253 142.836C139.013 145.018 136.055 148.327 132.252 150.439C130.421 151.424 124.152 153.958 122.251 153.465C121.194 153.184 121.053 151.846 120.631 150.579C119.715 147.904 117.602 143.54 117.391 139.458C117.18 134.319 116.616 125.661 122.18 126.717C126.688 127.562 131.9 129.603 135.351 131.504C137.534 132.771 138.731 134.178 141.971 134.46Z" fill="black" stroke="#D33833" stroke-width="2"/>
<path d="M145.139 140.584C144.646 137.768 144.082 136.994 144.294 134.53C151.83 129.533 153.168 143.118 145.139 140.584Z" fill="#D33833"/>
<path d="M145.139 140.584C144.646 137.768 144.082 136.994 144.294 134.53C151.83 129.533 153.168 143.118 145.139 140.584Z" fill="black" stroke="#D33833" stroke-width="2"/>
<path d="M155.986 142.836C155.986 142.836 153.662 139.528 155.352 138.542C157.043 137.557 158.663 138.542 159.649 136.853C160.635 135.164 159.649 134.178 160.001 132.207C160.353 130.236 161.973 129.884 163.663 129.533C165.353 129.181 170.002 128.547 170.636 130.166L168.664 124.183L164.649 122.845L152.042 130.166L151.408 133.826V141.147" fill="#EF3D3A"/>
<path d="M121.053 153.817C120.63 148.608 120.208 143.47 119.785 138.261C119.081 130.518 121.616 131.855 128.377 131.855C129.434 131.855 134.716 133.052 135.068 133.826C136.9 137.557 132.04 136.712 137.181 139.528C141.477 141.851 149.154 138.12 147.394 132.841C146.408 131.644 142.323 132.489 140.844 131.715C138.238 130.377 135.632 129.04 133.026 127.702C129.716 126.013 122.109 123.479 118.588 125.872C109.643 131.926 119.151 147.13 122.32 153.465" fill="#EF3D3A"/>
<path d="M129.857 36.0543C120.771 33.9426 116.264 39.8554 113.517 45.9794C111.052 45.4162 112.038 42.0375 112.672 40.3481C114.292 35.9135 120.842 29.9304 126.194 30.7751C128.448 31.0566 131.547 33.1683 129.857 36.0543Z" fill="#231F20"/>
<path d="M174.015 46.3313H174.438C176.48 50.5547 178.241 55.0597 180.847 58.8608C179.086 62.9434 167.747 66.4629 167.888 59.2831C170.353 58.2273 174.579 59.0719 176.762 57.6641C175.494 54.215 173.734 51.2586 174.015 46.3313Z" fill="#231F20"/>
<path d="M134.435 46.472C136.407 50.0619 137.041 53.7926 139.788 56.4675C141.055 57.6641 143.45 59.1423 142.253 62.521C141.971 63.2953 139.929 65.0551 138.731 65.407C134.435 66.674 124.364 65.6886 127.744 60.2685C131.336 60.4093 136.125 62.5914 138.802 59.987C136.759 56.749 133.097 50.2731 134.435 46.472Z" fill="#231F20"/>
<path d="M172.396 82.6526C165.916 86.8057 158.662 91.381 147.956 90.3252C145.703 88.3542 144.787 83.9196 147.041 81.0336C148.168 83.0046 147.463 86.6649 150.703 87.228C156.76 88.2838 163.803 83.4973 168.17 81.8783C170.846 77.303 167.958 75.684 165.493 72.7276C160.493 66.7444 153.872 59.2831 154.084 50.3435C156.126 48.8653 156.267 52.596 156.549 53.2295C159.155 59.2831 165.705 67.0964 170.424 72.3053C171.621 73.5723 173.522 74.8393 173.734 75.684C174.368 78.0773 172.114 81.0337 172.396 82.6526Z" fill="#231F20"/>
<path d="M86.6131 78.2884C84.5706 77.0918 84.0776 72.0237 81.683 71.8829C78.2319 71.6718 78.8658 78.4996 78.8658 82.5119C76.5416 80.4001 76.119 73.7835 77.8093 70.4047C75.8373 69.4193 74.9921 71.4606 73.8652 72.1645C75.3443 61.9579 88.8669 67.4483 86.6131 78.2884Z" fill="#231F20"/>
<path d="M176.482 86.9465C173.453 92.7185 169.157 99.0536 160.283 99.2648C160.072 97.4347 159.931 94.5487 160.283 93.4224C167.115 92.7185 171.34 89.2694 176.482 86.9465Z" fill="#231F20"/>
<path d="M133.941 90.6771C139.576 93.6335 149.999 93.9855 157.747 93.7743C158.169 95.4637 158.169 97.5754 158.169 99.6167C148.239 100.039 136.547 97.5754 133.941 90.6771Z" fill="#231F20"/>
<path d="M132.885 96.1676C136.829 106.022 150.282 104.896 161.621 104.614C161.128 105.881 160.071 107.43 158.663 107.923C155 109.401 144.999 110.527 139.928 107.852C136.759 106.163 134.646 102.292 132.885 100.039C132.111 98.9832 127.885 96.238 132.885 96.1676Z" fill="#231F20"/>
<path d="M171.903 150.438C167.325 158.322 162.888 166.417 157.465 173.315C159.719 166.628 160.705 155.366 161.057 146.778C165.846 144.526 169.931 147.271 171.903 150.438Z" fill="#81B0C4"/>
<path d="M196.625 178.735C191.483 179.791 187.891 184.789 182.82 184.437C185.638 180.565 190.427 178.876 196.625 178.735Z" fill="#231F20"/>
<path d="M198.878 186.76C194.652 187.182 189.722 187.886 185.496 187.534C187.539 184.437 195.286 185.563 198.878 186.76Z" fill="#231F20"/>
<path d="M200.357 193.728C195.638 193.799 189.793 193.728 185.285 193.377C187.962 190.491 197.329 192.321 200.357 193.728Z" fill="#231F20"/>
<path d="M163.028 212.734C163.732 218.647 166.056 224.63 165.775 231.106C163.169 231.95 161.69 232.725 158.168 232.725C157.957 227.234 157.182 218.787 157.394 213.508C159.084 213.649 161.619 212.311 163.028 212.734Z" fill="#DCD9D8"/>
<path d="M155.423 125.45C153.028 126.999 151.056 128.899 148.732 130.588C143.661 130.87 140.914 130.236 137.252 127.35C137.322 127.139 137.675 127.21 137.675 126.928C143.098 129.321 150 125.943 155.423 125.45Z" fill="#F0D6B7"/>
<path d="M127.109 162.264C128.588 155.859 134.434 152.48 139.716 148.96C145.139 155.859 148.45 164.728 152.112 173.315C143.449 170.711 134.645 166.558 127.109 162.264Z" fill="#81B0C4"/>
<path d="M157.394 213.579C157.182 218.858 157.887 227.234 158.168 232.795C161.69 232.795 163.169 232.021 165.775 231.176C166.057 224.7 163.732 218.717 163.028 212.804C161.619 212.311 159.084 213.649 157.394 213.579ZM103.022 183.733C105.346 204.921 108.656 222.659 114.783 241.453C128.376 245.606 144.716 245.958 156.76 242.227C154.576 231.669 155.492 218.787 154.224 207.455C153.238 198.937 153.731 190.42 152.393 181.762C137.814 178.735 117.248 181.058 103.022 183.733ZM155.844 181.903C155.703 190.983 156.267 199.993 156.971 209.074C160.493 208.581 162.817 208.229 166.057 207.455C165 198.726 165.141 188.801 162.958 181.058C160.493 181.129 158.309 181.058 155.844 181.903ZM173.522 180.425C171.832 180.073 169.93 180.425 168.381 180.425C169.155 187.816 170.916 195.981 171.55 203.794C174.015 203.865 175.353 202.668 177.396 202.316C177.537 195.488 176.832 186.056 173.522 180.425ZM200.356 204.921C205.568 203.653 208.808 197.318 207.329 190.772C206.343 186.408 204.652 178.102 202.751 175.286C201.412 173.245 197.68 170.5 194.651 172.4C189.791 175.497 181.269 176.412 177.748 180.143C179.509 186.056 180.072 194.08 180.776 201.542C186.833 201.894 194.229 199.852 199.3 202.035C195.778 203.161 191.271 203.161 188.242 204.85C190.777 206.047 196.553 205.836 200.356 204.921ZM152.041 173.315C148.379 164.728 145.068 155.859 139.645 148.96C134.363 152.48 128.588 155.859 127.038 162.264C134.645 166.558 143.448 170.711 152.041 173.315ZM161.056 146.778C160.704 155.366 159.718 166.628 157.464 173.315C162.887 166.347 167.324 158.322 171.902 150.438C169.93 147.271 165.845 144.526 161.056 146.778ZM150.844 143.188C148.801 142.977 147.04 145.582 144.364 144.455C143.73 145.159 143.167 145.863 142.533 146.567C148.449 153.747 151.196 163.883 155.774 172.259C158.239 164.165 157.957 155.366 158.52 146.567C155.14 146.708 153.238 143.399 150.844 143.188ZM144.294 134.53C144.082 136.994 144.646 137.768 145.139 140.584C153.168 143.118 151.83 129.533 144.294 134.53ZM135.349 131.574C131.898 129.673 126.686 127.632 122.179 126.787C116.615 125.731 117.178 134.389 117.389 139.528C117.601 143.611 119.713 147.904 120.629 150.65C121.052 151.917 121.193 153.254 122.249 153.536C124.151 153.958 130.489 151.494 132.25 150.509C136.053 148.468 139.011 145.159 142.251 142.907C142.322 141.851 142.322 140.725 142.392 139.669C140.42 138.683 138.237 138.05 135.349 137.909C137.251 136.924 140.138 136.924 141.899 135.797C141.899 135.375 141.899 134.953 141.969 134.53C138.73 134.178 137.532 132.771 135.349 131.574ZM102.247 125.591C99.3592 128.547 110.346 132.489 113.797 132.7C113.797 130.87 114.854 129.11 114.642 127.773C110.487 127.069 105.064 127.562 102.247 125.591ZM137.744 126.928C137.744 127.21 137.391 127.139 137.321 127.35C141.054 130.236 143.801 130.87 148.801 130.588C151.055 128.969 153.097 126.999 155.492 125.45C149.998 125.943 143.096 129.321 137.744 126.928ZM170.282 136.783C170.141 133.545 169.296 126.858 167.254 125.661C163.028 123.197 155.562 130.659 152.393 131.785C152.745 132.771 153.309 133.545 153.379 134.812C155.281 134.319 157.534 134.671 159.154 135.445C157.253 135.657 155.21 135.657 153.943 136.572C153.52 137.909 154.083 139.669 153.731 141.499C158.168 142.766 163.31 143.399 168.944 143.611C170.001 142.203 170.423 139.528 170.282 136.783ZM97.3871 128.406C96.4715 127.773 90.3441 119.819 89.4989 120.171C78.4414 124.535 68.0882 132.067 58.8618 139.246C67.6656 158.181 71.2575 181.34 71.8914 203.653C81.9629 208.37 90.8371 215.197 104.571 215.901C102.951 204.709 101.542 194.644 100.627 184.085C97.1758 182.607 92.2457 184.155 89.0059 183.663C89.0059 179.791 93.936 181.973 94.3586 179.369C94.6403 177.398 91.6118 177.257 92.5979 174.16C95.1333 175.075 96.4715 177.116 99.1479 177.891C101.613 172.541 99.1479 163.038 99.5 158.533C99.5704 157.689 99.9226 153.888 101.824 154.521C103.515 155.084 101.754 164.728 101.895 168.951C102.035 172.893 101.402 176.624 103.022 179.087C116.262 177.257 129.715 176.131 144.082 175.709C140.913 174.371 137.18 173.104 133.095 170.781C130.841 169.514 123.869 166.91 123.235 164.798C122.179 161.419 125.911 159.66 126.545 156.774C119.854 160.434 118.587 153.254 116.967 148.256C115.558 143.681 114.713 140.232 114.361 137.627C108.515 134.671 102.317 131.926 97.3871 128.406ZM164.437 121.086C173.663 116.651 175.353 137.768 171.691 144.596C172.254 146.637 174.156 147.412 174.931 149.242C169.789 158.463 164.084 167.051 158.802 176.131C162.676 173.667 168.31 175.709 172.888 173.878C174.579 173.245 175.776 169.373 177.044 166.276C180.565 157.829 184.227 147.13 185.847 139.106C186.2 137.275 187.256 133.263 186.974 131.644C186.552 128.688 182.608 126.506 180.565 124.746C176.832 121.367 174.508 118.481 170.564 115.314C169.085 117.637 165.704 119.185 164.437 121.086ZM76.3285 39.3627C71.9618 44.2196 72.8774 53.2295 73.3704 59.7054C81.329 54.7077 91.8231 60.1278 91.7527 68.5746C95.5559 68.5042 93.1613 63.8585 92.457 60.8317C90.2032 51.0474 96.2602 40.4889 92.7387 31.5493C85.907 32.1125 80.343 34.8577 76.3285 39.3627ZM107.74 11.277C97.8097 14.0926 85.0618 21.3428 80.9769 30.2823C84.1462 29.7896 86.3296 28.241 89.4285 28.0298C90.6258 27.9594 92.1753 28.5226 93.5135 28.1706C96.1898 27.4667 98.514 21.4132 100.556 19.1607C102.529 16.9786 104.923 15.9931 106.543 14.0222C107.599 13.5294 109.149 13.5294 109.219 11.9809C108.797 11.4881 108.304 11.1362 107.74 11.277ZM159.507 13.9518C149.153 8.1094 131.687 3.7452 120.699 9.23564C111.825 13.6702 99.8522 20.9908 95.7672 30.2119C99.5704 39.1515 94.6403 47.3168 94.2882 56.3971C94.1473 61.254 96.5419 65.4071 96.7532 70.6863C95.4151 72.8684 91.471 73.0796 88.7242 72.9388C87.8086 68.2931 86.1887 63.0842 81.3995 62.5211C74.6382 61.7468 69.6376 67.378 69.3559 73.2204C69.0038 80.1186 74.6382 91.5218 82.6672 90.7475C85.7661 90.466 86.5409 87.3688 89.9215 87.3688C91.7527 91.0291 87.1043 92.1553 86.6113 94.7598C86.4704 95.4637 86.9635 98.0681 87.3156 99.3352C88.7946 105.318 92.0344 113.132 95.2038 117.707C99.2887 123.549 107.247 124.394 115.84 124.957C117.389 121.649 123.024 121.93 126.686 122.775C122.249 121.015 118.164 116.792 114.783 113.061C110.91 108.767 106.966 104.192 106.754 98.5609C114.149 108.767 120.206 117.707 133.588 122.212C143.73 125.591 155.562 120.663 163.38 115.173C166.62 112.92 168.522 109.26 170.846 106.022C179.438 93.6335 183.453 76.036 182.608 58.9312C182.255 51.8921 182.255 44.8531 179.861 40.137C177.396 35.2096 169.015 30.7047 164.084 35.2096C163.169 30.3527 168.169 27.3963 174.015 29.1561C169.86 23.736 165.493 17.3305 159.507 13.9518ZM178.804 173.104C186.904 169.092 201.976 162.334 206.976 173.104C208.878 177.116 211.061 183.803 211.977 187.956C213.315 193.728 210.498 205.976 204.511 207.877C199.229 209.566 193.102 209.496 186.763 208.229C185.988 207.595 185.214 206.539 184.58 205.413C180.072 205.272 175.776 205.624 172.254 207.525C172.607 210.904 170.353 211.396 168.169 212.1C166.62 218.365 171.339 226.53 170.212 232.162C169.437 236.244 164.437 236.878 160.774 237.582C160.633 239.834 160.915 241.735 161.197 243.635C160.352 246.732 156.619 248.492 153.027 248.914C141.265 250.322 123.446 250.956 112.177 246.873C109.008 239.13 106.543 229.768 103.937 220.969C92.95 222.166 84.0054 216.253 75.6242 212.311C72.7366 210.974 68.722 210.2 67.5952 207.877C66.5387 205.624 66.9613 201.331 66.6796 197.318C66.0457 186.971 65.4118 176.976 62.7355 166.417C61.5382 161.631 59.3548 157.477 57.8758 152.902C56.4672 148.679 54.0726 143.399 53.4387 139.176C52.5231 132.911 58.4392 132.559 62.172 129.814C68.0177 125.591 72.5957 123.268 78.9344 119.467C80.836 118.341 86.4704 115.525 87.1043 114.187C88.3721 111.583 84.921 107.923 84.0054 105.881C82.5264 102.643 81.7516 99.8983 81.5403 96.7307C76.2581 95.886 72.1731 92.7185 69.7785 89.199C65.764 83.2862 62.9468 72.3757 66.4683 64.14C66.75 63.5065 68.0882 62.1691 68.2995 61.1836C68.722 59.2127 67.5247 56.6083 67.4543 54.4966C67.1021 43.7269 69.2855 34.4353 76.5398 31.1974C79.4978 19.4422 90.0624 15.5708 99.993 9.72837C103.726 7.54627 107.811 6.13847 112.037 4.58988C127.179 -0.970945 150.491 0.0849091 163.098 9.58759C168.451 13.5998 176.973 22.1171 180.002 28.3114C188.101 44.5715 187.467 71.8126 181.833 91.6626C181.058 94.3374 180.002 98.2089 178.452 101.447C177.396 103.699 174.086 108.134 174.438 110.105C174.86 112.146 182.044 117.566 183.594 119.044C186.34 121.719 191.623 125.239 192.045 128.618C192.538 132.207 190.496 137.135 189.439 140.584C186.059 152.128 182.678 162.757 178.804 173.104Z" fill="#231F20"/>
<path d="M124.925 93.1408C125.348 92.5777 127.743 91.6626 131.123 93.2816C131.123 93.2816 127.109 93.9151 127.461 100.602L125.771 100.25C125.841 100.321 124.08 94.2671 124.925 93.1408Z" fill="#F7E4CD"/>
<path d="M154.084 150.298C154.084 151.283 153.239 152.128 152.253 152.128C151.267 152.128 150.422 151.283 150.422 150.298C150.422 149.312 151.267 148.468 152.253 148.468C153.31 148.468 154.084 149.312 154.084 150.298Z" fill="#1D1919"/>
<path d="M155.916 158.815C155.916 159.8 155.071 160.645 154.085 160.645C153.099 160.645 152.254 159.8 152.254 158.815C152.254 157.829 153.099 156.985 154.085 156.985C155.142 156.985 155.916 157.759 155.916 158.815Z" fill="#1D1919"/>
</g>
<defs>
<clipPath id="clip0_2110_4537">
<rect width="181" height="249" fill="white" transform="translate(34 1)"/>
</clipPath>
</defs>
</svg>
