<svg width="250" height="250" viewBox="0 0 250 250" fill="none" xmlns="http://www.w3.org/2000/svg">
<g clip-path="url(#clip0_2155_3891)">
<path fill-rule="evenodd" clip-rule="evenodd" d="M223.684 111.8C211.422 111.8 201.118 103.387 198.197 92H168.035C161.603 92 156.114 96.6651 155.057 103.03L153.975 109.54C152.948 115.721 149.831 121.101 145.423 125C149.831 128.899 152.948 134.279 153.975 140.46L155.057 146.97C156.114 153.335 161.603 158 168.035 158H171.882C174.803 146.613 185.106 138.2 197.368 138.2C211.902 138.2 223.684 150.02 223.684 164.6C223.684 179.181 211.902 191 197.368 191C185.106 191 174.803 182.586 171.882 171.2H168.035C155.171 171.2 144.193 161.87 142.078 149.14L140.996 142.63C139.939 136.265 134.45 131.6 128.018 131.6H117.592C114.671 142.987 104.367 151.4 92.1053 151.4C79.8432 151.4 69.5399 142.987 66.6185 131.6H51.8025C48.8811 142.987 38.5779 151.4 26.3158 151.4C11.782 151.4 0 139.58 0 125C0 110.42 11.782 98.6 26.3158 98.6C38.5779 98.6 48.8811 107.013 51.8025 118.4H66.6185C69.5399 107.013 79.8432 98.6 92.1053 98.6C104.367 98.6 114.671 107.013 117.592 118.4H128.018C134.45 118.4 139.939 113.735 140.996 107.37L142.078 100.86C144.193 88.1301 155.171 78.8 168.035 78.8H198.197C201.118 67.4135 211.422 59 223.684 59C238.218 59 250 70.8197 250 85.4C250 99.9803 238.218 111.8 223.684 111.8ZM223.684 98.6C230.951 98.6 236.842 92.6901 236.842 85.4C236.842 78.1099 230.951 72.2 223.684 72.2C216.418 72.2 210.526 78.1099 210.526 85.4C210.526 92.6901 216.418 98.6 223.684 98.6ZM26.3158 138.2C33.5827 138.2 39.4737 132.29 39.4737 125C39.4737 117.71 33.5827 111.8 26.3158 111.8C19.0489 111.8 13.1579 117.71 13.1579 125C13.1579 132.29 19.0489 138.2 26.3158 138.2ZM105.263 125C105.263 132.29 99.3721 138.2 92.1053 138.2C84.8384 138.2 78.9474 132.29 78.9474 125C78.9474 117.71 84.8384 111.8 92.1053 111.8C99.3721 111.8 105.263 117.71 105.263 125ZM210.526 164.6C210.526 171.89 204.635 177.8 197.368 177.8C190.102 177.8 184.211 171.89 184.211 164.6C184.211 157.31 190.102 151.4 197.368 151.4C204.635 151.4 210.526 157.31 210.526 164.6Z" fill="#EA4B71"/>
</g>
<defs>
<clipPath id="clip0_2155_3891">
<rect width="250" height="132" fill="white" transform="translate(0 59)"/>
</clipPath>
</defs>
</svg>
