<svg width="250" height="250" viewBox="0 0 250 250" fill="none" xmlns="http://www.w3.org/2000/svg">
<path d="M210.835 35H39.1971C25.808 35 15 45.8045 15 59.1892V212.871L48.392 179.813H210.996C224.385 179.813 235.193 169.008 235.193 155.623V59.1892C235.032 45.8045 224.224 35 210.835 35ZM66.4591 143.368C66.4591 146.915 63.5555 149.818 60.0066 149.818C56.4577 149.818 53.554 146.915 53.554 143.368V74.8315C53.554 71.2838 56.4577 68.3811 60.0066 68.3811C63.5555 68.3811 66.4591 71.2838 66.4591 74.8315V143.368ZM96.4635 143.368C96.4635 146.915 93.5599 149.818 90.0109 149.818C86.462 149.818 83.5584 146.915 83.5584 143.368V98.0532C83.5584 94.5054 86.462 91.6027 90.0109 91.6027C93.5599 91.6027 96.4635 94.5054 96.4635 98.0532V143.368ZM97.2701 77.4117C97.2701 81.282 94.2051 84.3459 90.3336 84.3459H89.6883C85.8168 84.3459 82.7518 81.282 82.7518 77.4117V76.9279C82.7518 73.0577 85.8168 69.9937 89.6883 69.9937H90.3336C94.2051 69.9937 97.2701 73.0577 97.2701 76.9279V77.4117ZM142.761 148.205C139.857 149.657 136.631 150.302 133.243 150.302C122.112 150.302 116.144 144.98 116.144 134.821V103.697H110.337C108.401 103.697 106.788 102.246 106.788 100.311V100.15C106.788 99.0207 107.433 97.8919 108.401 97.0856L122.758 83.0559C123.564 82.2495 124.532 81.7658 125.661 81.6045C127.597 81.6045 129.372 83.2171 129.372 85.1523V85.3135V92.0865H139.696C142.922 92.0865 145.503 94.6667 145.503 97.8919C145.503 101.117 142.922 103.697 139.696 103.697H129.372V134.014C129.372 138.368 131.63 138.691 134.695 138.691C135.985 138.691 137.276 138.53 138.405 138.207C139.212 137.885 140.18 137.885 140.986 137.723C143.89 137.723 146.309 140.142 146.471 143.206C146.148 145.303 144.696 147.399 142.761 148.205ZM182.283 138.207C186.961 138.368 191.639 137.24 195.833 135.143C196.639 134.659 197.607 134.498 198.414 134.498C201.64 134.498 204.221 136.917 204.221 140.142V140.304C204.06 142.561 202.769 144.658 200.672 145.625C196.155 148.205 191.316 150.463 181.315 150.463C163.247 150.463 152.278 139.336 152.278 120.791C152.278 99.0207 166.796 91.1189 179.056 91.1189C197.446 91.1189 205.834 105.794 205.834 119.34C205.996 122.726 203.253 125.629 199.866 125.79C199.704 125.79 199.543 125.79 199.382 125.79H165.506C167.28 133.853 173.088 138.207 182.283 138.207Z" fill="#21C16C"/>
<path d="M179.379 102.569C172.281 102.407 166.312 107.729 165.667 114.824H193.252C192.445 107.729 186.476 102.407 179.379 102.569Z" fill="#21C16C"/>
</svg>
