<svg width="250" height="250" viewBox="0 0 250 250" fill="none" xmlns="http://www.w3.org/2000/svg">
<g clip-path="url(#clip0_1789_6897)">
<path d="M201.813 30H46.187C36.695 30 29 37.695 29 47.187V202.812C29 212.305 36.695 220 46.187 220H201.812C211.305 220 219 212.305 219 202.812V47.187C219 37.695 211.305 30 201.813 30ZM87.7941 194.059C87.7941 196.821 85.5548 199.06 82.7924 199.06H61.5014C58.739 199.06 56.4998 196.821 56.4998 194.059V104.808C56.4998 102.045 58.739 99.8061 61.5014 99.8061H82.7924C85.5548 99.8061 87.7941 102.045 87.7941 104.808V194.059ZM72.1469 91.3929C60.9762 91.3929 51.9204 82.337 51.9204 71.1663C51.9204 59.9956 60.9762 50.9398 72.1469 50.9398C83.3176 50.9398 92.3735 59.9956 92.3735 71.1663C92.3735 82.337 83.3181 91.3929 72.1469 91.3929ZM199.06 194.461C199.06 197.001 197.001 199.06 194.461 199.06H171.614C169.075 199.06 167.016 197.001 167.016 194.461V152.598C167.016 146.353 168.847 125.231 150.695 125.231C136.615 125.231 133.759 139.688 133.185 146.176V194.461C133.185 197.001 131.126 199.06 128.586 199.06H106.49C103.95 199.06 101.891 197.001 101.891 194.461V104.405C101.891 101.865 103.95 99.8061 106.49 99.8061H128.586C131.126 99.8061 133.185 101.865 133.185 104.405V112.191C138.406 104.356 146.165 98.3085 162.686 98.3085C199.269 98.3085 199.06 132.487 199.06 151.266V194.461Z" fill="#0077B7"/>
</g>
<defs>
<clipPath id="clip0_1789_6897">
<rect width="190" height="190" fill="white" transform="translate(29 30)"/>
</clipPath>
</defs>
</svg>
