<svg width="250" height="250" viewBox="0 0 250 250" fill="none" xmlns="http://www.w3.org/2000/svg">
<g clip-path="url(#clip0_2111_4880)">
<path d="M116.209 227C172.704 227 218.501 181.333 218.501 125C218.501 68.667 172.704 23 116.209 23C59.7154 23 13.918 68.667 13.918 125C13.918 181.333 59.7154 227 116.209 227Z" fill="#0B3D91"/>
<path d="M110.17 43.7355C110.804 43.7355 111.317 43.2235 111.317 42.592C111.317 41.9604 110.804 41.4485 110.17 41.4485C109.537 41.4485 109.023 41.9604 109.023 42.592C109.023 43.2235 109.537 43.7355 110.17 43.7355Z" fill="white"/>
<path d="M121.944 45.2601C122.577 45.2601 123.09 44.7482 123.09 44.1166C123.09 43.4851 122.577 42.9731 121.944 42.9731C121.31 42.9731 120.797 43.4851 120.797 44.1166C120.797 44.7482 121.31 45.2601 121.944 45.2601Z" fill="white"/>
<path d="M137.385 65.9955C138.018 65.9955 138.532 65.4835 138.532 64.852C138.532 64.2205 138.018 63.7085 137.385 63.7085C136.752 63.7085 136.238 64.2205 136.238 64.852C136.238 65.4835 136.752 65.9955 137.385 65.9955Z" fill="white"/>
<path d="M52.678 172.722C53.3114 172.722 53.8248 172.21 53.8248 171.578C53.8248 170.947 53.3114 170.435 52.678 170.435C52.0447 170.435 51.5312 170.947 51.5312 171.578C51.5312 172.21 52.0447 172.722 52.678 172.722Z" fill="white"/>
<path d="M55.6585 181.87C56.2918 181.87 56.8052 181.358 56.8052 180.726C56.8052 180.095 56.2918 179.583 55.6585 179.583C55.0251 179.583 54.5117 180.095 54.5117 180.726C54.5117 181.358 55.0251 181.87 55.6585 181.87Z" fill="white"/>
<path d="M41.4408 173.807C41.9151 173.807 42.2996 173.424 42.2996 172.951C42.2996 172.478 41.9151 172.094 41.4408 172.094C40.9665 172.094 40.582 172.478 40.582 172.951C40.582 173.424 40.9665 173.807 41.4408 173.807Z" fill="white"/>
<path d="M88.0723 191.78C88.548 191.78 88.9336 191.396 88.9336 190.921C88.9336 190.447 88.548 190.062 88.0723 190.062C87.5966 190.062 87.2109 190.447 87.2109 190.921C87.2109 191.396 87.5966 191.78 88.0723 191.78Z" fill="white"/>
<path d="M161.218 176.628C161.692 176.628 162.077 176.244 162.077 175.771C162.077 175.298 161.692 174.915 161.218 174.915C160.744 174.915 160.359 175.298 160.359 175.771C160.359 176.244 160.744 176.628 161.218 176.628Z" fill="white"/>
<path d="M182.475 153.608C182.95 153.608 183.336 153.223 183.336 152.749C183.336 152.275 182.95 151.89 182.475 151.89C181.999 151.89 181.613 152.275 181.613 152.749C181.613 153.223 181.999 153.608 182.475 153.608Z" fill="white"/>
<path d="M78.2885 72.3965C78.7628 72.3965 79.1473 72.0131 79.1473 71.5402C79.1473 71.0672 78.7628 70.6838 78.2885 70.6838C77.8142 70.6838 77.4297 71.0672 77.4297 71.5402C77.4297 72.0131 77.8142 72.3965 78.2885 72.3965Z" fill="white"/>
<path d="M101.683 55.2645C102.157 55.2645 102.542 54.8811 102.542 54.4081C102.542 53.9352 102.157 53.5518 101.683 53.5518C101.209 53.5518 100.824 53.9352 100.824 54.4081C100.824 54.8811 101.209 55.2645 101.683 55.2645Z" fill="white"/>
<path d="M99.1401 53.5873C99.6144 53.5873 99.9988 53.2039 99.9988 52.731C99.9988 52.258 99.6144 51.8746 99.1401 51.8746C98.6658 51.8746 98.2812 52.258 98.2812 52.731C98.2812 53.2039 98.6658 53.5873 99.1401 53.5873Z" fill="white"/>
<path d="M96.8471 51.9102C97.3214 51.9102 97.7059 51.5268 97.7059 51.0539C97.7059 50.5809 97.3214 50.1975 96.8471 50.1975C96.3728 50.1975 95.9883 50.5809 95.9883 51.0539C95.9883 51.5268 96.3728 51.9102 96.8471 51.9102Z" fill="white"/>
<path d="M81.9565 76.8206C82.4308 76.8206 82.8153 76.4372 82.8153 75.9643C82.8153 75.4913 82.4308 75.1079 81.9565 75.1079C81.4822 75.1079 81.0977 75.4913 81.0977 75.9643C81.0977 76.4372 81.4822 76.8206 81.9565 76.8206Z" fill="white"/>
<path d="M116.417 32.242C116.892 32.242 117.276 31.8586 117.276 31.3856C117.276 30.9127 116.892 30.5293 116.417 30.5293C115.943 30.5293 115.559 30.9127 115.559 31.3856C115.559 31.8586 115.943 32.242 116.417 32.242Z" fill="white"/>
<path d="M122.078 56.9416C122.552 56.9416 122.936 56.5582 122.936 56.0852C122.936 55.6123 122.552 55.2289 122.078 55.2289C121.603 55.2289 121.219 55.6123 121.219 56.0852C121.219 56.5582 121.603 56.9416 122.078 56.9416Z" fill="white"/>
<path d="M113.152 52.1186C113.626 52.1186 114.011 51.7352 114.011 51.2622C114.011 50.7893 113.626 50.4059 113.152 50.4059C112.677 50.4059 112.293 50.7893 112.293 51.2622C112.293 51.7352 112.677 52.1186 113.152 52.1186Z" fill="white"/>
<path d="M97.8588 58.6772C98.3331 58.6772 98.7176 58.2938 98.7176 57.8208C98.7176 57.3479 98.3331 56.9645 97.8588 56.9645C97.3845 56.9645 97 57.3479 97 57.8208C97 58.2938 97.3845 58.6772 97.8588 58.6772Z" fill="white"/>
<path d="M165.288 199.251C165.763 199.251 166.147 198.868 166.147 198.395C166.147 197.922 165.763 197.538 165.288 197.538C164.814 197.538 164.43 197.922 164.43 198.395C164.43 198.868 164.814 199.251 165.288 199.251Z" fill="white"/>
<path d="M51.2246 178.231C51.7003 178.231 52.086 177.847 52.086 177.372C52.086 176.898 51.7003 176.513 51.2246 176.513C50.7489 176.513 50.3633 176.898 50.3633 177.372C50.3633 177.847 50.7489 178.231 51.2246 178.231Z" fill="white"/>
<path d="M111.01 189.285C111.485 189.285 111.871 188.9 111.871 188.426C111.871 187.952 111.485 187.567 111.01 187.567C110.534 187.567 110.148 187.952 110.148 188.426C110.148 188.9 110.534 189.285 111.01 189.285Z" fill="white"/>
<path d="M69.0176 177.545C69.4933 177.545 69.8789 177.16 69.8789 176.686C69.8789 176.212 69.4933 175.827 69.0176 175.827C68.5419 175.827 68.1562 176.212 68.1562 176.686C68.1562 177.16 68.5419 177.545 69.0176 177.545Z" fill="white"/>
<path d="M76.4551 189.648C76.9308 189.648 77.3165 189.264 77.3165 188.789C77.3165 188.315 76.9308 187.931 76.4551 187.931C75.9794 187.931 75.5938 188.315 75.5938 188.789C75.5938 189.264 75.9794 189.648 76.4551 189.648Z" fill="white"/>
<path d="M131.191 182.022C131.665 182.022 132.05 181.639 132.05 181.166C132.05 180.693 131.665 180.31 131.191 180.31C130.717 180.31 130.332 180.693 130.332 181.166C130.332 181.639 130.717 182.022 131.191 182.022Z" fill="white"/>
<path d="M161.371 165.04C161.845 165.04 162.229 164.657 162.229 164.184C162.229 163.711 161.845 163.328 161.371 163.328C160.896 163.328 160.512 163.711 160.512 164.184C160.512 164.657 160.896 165.04 161.371 165.04Z" fill="white"/>
<path d="M184.249 175.464C184.724 175.464 185.108 175.08 185.108 174.607C185.108 174.134 184.724 173.751 184.249 173.751C183.775 173.751 183.391 174.134 183.391 174.607C183.391 175.08 183.775 175.464 184.249 175.464Z" fill="white"/>
<path d="M192.046 180.439C192.521 180.439 192.905 180.056 192.905 179.583C192.905 179.11 192.521 178.727 192.046 178.727C191.572 178.727 191.188 179.11 191.188 179.583C191.188 180.056 191.572 180.439 192.046 180.439Z" fill="white"/>
<path d="M193.328 166.87C193.802 166.87 194.186 166.486 194.186 166.013C194.186 165.541 193.802 165.157 193.328 165.157C192.853 165.157 192.469 165.541 192.469 166.013C192.469 166.486 192.853 166.87 193.328 166.87Z" fill="white"/>
<path d="M79.5658 147.659C80.0401 147.659 80.4246 147.276 80.4246 146.803C80.4246 146.33 80.0401 145.946 79.5658 145.946C79.0915 145.946 78.707 146.33 78.707 146.803C78.707 147.276 79.0915 147.659 79.5658 147.659Z" fill="white"/>
<path d="M79.8929 167.614C80.5262 167.614 81.0396 167.102 81.0396 166.471C81.0396 165.839 80.5262 165.327 79.8929 165.327C79.2595 165.327 78.7461 165.839 78.7461 166.471C78.7461 167.102 79.2595 167.614 79.8929 167.614Z" fill="white"/>
<path d="M86.7757 182.099C87.409 182.099 87.9224 181.587 87.9224 180.955C87.9224 180.324 87.409 179.812 86.7757 179.812C86.1423 179.812 85.6289 180.324 85.6289 180.955C85.6289 181.587 86.1423 182.099 86.7757 182.099Z" fill="white"/>
<path d="M169.19 167.005C169.823 167.005 170.336 166.493 170.336 165.861C170.336 165.229 169.823 164.718 169.19 164.718C168.556 164.718 168.043 165.229 168.043 165.861C168.043 166.493 168.556 167.005 169.19 167.005Z" fill="white"/>
<path d="M198.85 165.327C199.483 165.327 199.997 164.815 199.997 164.184C199.997 163.552 199.483 163.04 198.85 163.04C198.217 163.04 197.703 163.552 197.703 164.184C197.703 164.815 198.217 165.327 198.85 165.327Z" fill="white"/>
<path d="M184.174 159.076C184.807 159.076 185.321 158.564 185.321 157.933C185.321 157.301 184.807 156.789 184.174 156.789C183.541 156.789 183.027 157.301 183.027 157.933C183.027 158.564 183.541 159.076 184.174 159.076Z" fill="white"/>
<path d="M169.19 159.686C169.823 159.686 170.336 159.174 170.336 158.543C170.336 157.911 169.823 157.399 169.19 157.399C168.556 157.399 168.043 157.911 168.043 158.543C168.043 159.174 168.556 159.686 169.19 159.686Z" fill="white"/>
<path d="M138.28 41.8754L141.132 41.6035L138.285 41.4434C138.196 40.8945 137.755 40.4651 137.2 40.3939L136.927 37.5631L136.764 40.4168C136.249 40.5311 135.854 40.9606 135.79 41.4942L132.875 41.7585L135.811 41.916C135.918 42.4065 136.315 42.7902 136.815 42.8816L137.08 45.7988L137.235 42.8867C137.763 42.7978 138.181 42.3938 138.28 41.8754Z" fill="white"/>
<path d="M90.1512 73.5325L93.0028 73.2606L90.1563 73.1005C90.0696 72.5516 89.6262 72.1222 89.0707 72.051L88.798 69.2202L88.6375 72.0739C88.1201 72.1882 87.7251 72.6177 87.6614 73.1513L84.7461 73.4156L87.6818 73.5731C87.7888 74.0636 88.1864 74.4473 88.6859 74.5388L88.9509 77.4559L89.1089 74.5438C89.6364 74.4574 90.0543 74.0509 90.1512 73.5325Z" fill="white"/>
<path d="M196.762 157.231L199.614 156.96L196.767 156.799C196.68 156.251 196.237 155.821 195.681 155.75L195.409 152.919L195.248 155.773C194.733 155.887 194.338 156.317 194.275 156.85L191.359 157.115L194.295 157.272C194.402 157.763 194.8 158.146 195.299 158.238L195.564 161.155L195.722 158.243C196.245 158.156 196.663 157.752 196.762 157.231Z" fill="white"/>
<path d="M80.5184 200.994L83.37 200.722L80.5235 200.562C80.4343 200.013 79.9934 199.584 79.4379 199.513L79.1652 196.685L79.0046 199.536C78.4873 199.65 78.0923 200.079 78.0286 200.613L75.1133 200.877L78.049 201.035C78.156 201.525 78.5536 201.912 79.0531 202.001L79.3181 204.918L79.4761 202.006C80.001 201.919 80.4215 201.513 80.5184 200.994Z" fill="white"/>
<path d="M187.703 179.649L190.555 179.377L187.708 179.217C187.622 178.668 187.178 178.239 186.623 178.168L186.35 175.337L186.19 178.188C185.675 178.302 185.28 178.732 185.216 179.265L182.301 179.53L185.237 179.687C185.344 180.178 185.741 180.561 186.241 180.653L186.506 183.57L186.664 180.658C187.186 180.574 187.606 180.167 187.703 179.649Z" fill="white"/>
<path d="M140.466 100.567C128.573 105.177 116.973 109.291 107.184 112.345C87.2943 118.556 32.8739 135.368 0 156.56L2.75224 157.628C22.7824 146.345 35.802 142.8 48.3171 138.874C61.9253 134.605 105.918 124.339 125.838 118.749C132.569 116.861 140.451 114.388 148.799 111.38C146.857 108.678 144.808 105.97 142.653 103.266C141.931 102.354 141.2 101.454 140.466 100.567ZM154.997 120.538C152.117 122.477 149.704 124.024 148.014 125C138.229 130.641 90.5206 163.117 79.6671 170.587C68.8136 178.058 38.6893 206.417 29.821 214.65L29.5152 218.002C58.1079 192.388 67.0781 186.07 78.4439 177.448C92.5109 166.776 121.611 147.031 131.501 140.704C140.955 134.656 149.482 129.094 157.135 124.004C157.01 123.795 156.885 123.587 156.76 123.376C156.184 122.433 155.596 121.488 154.997 120.538ZM199.693 73.4663C185.763 81.608 163.809 91.4345 142.51 99.7718C143.02 100.394 143.527 101.022 144.031 101.655C146.411 104.643 148.657 107.652 150.769 110.663C167.512 104.514 185.883 96.26 200.46 86.271C193.515 92.8321 170.557 109.941 156.559 119.478C157.28 120.65 157.978 121.821 158.654 122.987C179.861 108.836 194.132 98.42 202.447 91.4548C213.915 81.8494 240.061 60.3517 250 31.5355C232.567 53.6457 211.955 66.2979 199.693 73.4663Z" fill="#FC3D21"/>
<path d="M103.045 150.256C100.789 147.425 97.67 143.634 95.3281 140.694C92.1961 136.763 89.2986 132.791 86.6432 128.824C85.7768 129.04 84.9129 129.256 84.049 129.472C87.2548 134.461 90.8149 139.441 94.6935 144.31C97.5273 147.867 100.104 150.731 101.424 152.513C101.691 152.873 102.221 153.671 102.937 154.734C103.763 154.174 104.596 153.61 105.437 153.041C104.625 152.159 103.822 151.232 103.045 150.256ZM119.507 165.157C117.654 163.409 113.162 160.489 108.485 156.108C107.453 156.815 106.411 157.531 105.366 158.253C108.386 162.497 112.499 167.708 115.72 169.228C120.572 171.52 121.88 167.398 119.507 165.157ZM144.03 101.655C117.292 68.097 84.63 49.6613 70.5477 60.8193C59.6101 69.4845 64.1004 94.8091 79.1765 121.412C79.9563 121.145 80.7285 120.883 81.493 120.624C66.2767 94.705 62.1126 70.6178 72.4284 62.4431C85.392 52.1719 116.694 70.6788 142.656 103.263C148.031 110.007 152.756 116.777 156.756 123.376C172.077 148.66 176.779 171.525 166.193 180.859C162.954 183.715 153.056 184.835 140.09 179.016C139.909 179.242 140.2 179.855 140.427 180.005C151.619 184.492 162.34 186.203 167.753 181.916C180.76 171.609 170.767 135.213 144.03 101.655Z" fill="white"/>
<path d="M29.3594 105.637H46.4844L60.8572 129.955C60.8572 129.955 60.8572 112.345 60.8572 110.973C60.8572 108.839 58.1432 106.056 57.1876 105.637C58.3343 105.637 68.3494 105.637 69.0375 105.637C68.3112 105.827 65.9794 108.648 65.9794 110.973C65.9794 112.117 65.9794 137.655 65.9794 138.874C65.9794 140.59 68.4641 142.953 69.6491 143.868H53.1357L38.5335 119.435C38.5335 119.435 38.5335 137.655 38.5335 138.646C38.5335 140.552 40.4066 142.381 42.3561 143.944H29.7416C31.5382 143.182 33.2584 140.78 33.4113 138.874C33.5642 136.969 33.4113 112.383 33.4113 111.316C33.4113 108.991 31.156 107.085 29.3594 105.637Z" fill="white"/>
<path d="M186.006 143.868H208.789C207.527 143.563 206.113 142.076 205.349 140.094C204.584 138.112 192.505 105.637 192.505 105.637H183.843C181.386 107.4 178.754 109.26 175.943 111.22C175.935 111.291 175.928 111.362 175.915 111.43C175.538 113.717 168.759 138.198 168.346 139.408C167.773 141.085 164.83 142.953 163.645 143.944H175.915C174.692 142.572 173.698 141.238 173.927 139.713C174.157 138.188 174.845 135.139 174.845 135.139H187.535C188.109 136.664 188.537 138.033 188.759 139.332C189.026 140.895 187.421 142.648 186.006 143.868ZM175.991 130.26L180.273 116.309L185.93 130.26H175.991ZM174.062 107.029C174.692 106.567 175.324 106.102 175.953 105.637H172.628C172.959 105.942 173.507 106.422 174.062 107.029Z" fill="white"/>
<path d="M86.9272 139.713C87.1565 138.188 87.8446 135.139 87.8446 135.139H100.535C101.109 136.664 101.537 138.033 101.759 139.332C102.026 140.895 100.421 142.648 99.0065 143.868H119.065C119.483 143.588 119.898 143.309 120.313 143.032C119.536 142.346 118.82 141.316 118.349 140.094C117.584 138.112 105.505 105.637 105.505 105.637H85.6275C86.5832 106.513 89.3354 108.877 88.9149 111.43C88.5403 113.717 81.7591 138.198 81.3463 139.408C80.7729 141.085 77.8295 142.953 76.6445 143.944H88.9149C87.6917 142.572 86.6978 141.238 86.9272 139.713ZM93.2726 116.309L98.93 130.26H88.9914L93.2726 116.309Z" fill="white"/>
<path d="M156.216 124.614C152.475 127.099 148.528 129.693 144.369 132.402C146.234 133.304 147.72 134.438 147.863 135.901C148.128 138.651 142.588 139.98 137.58 139.408C136.579 139.294 135.595 139.032 134.657 138.681C133.617 139.35 132.568 140.023 131.502 140.704C130.419 141.398 129.104 142.252 127.603 143.238V147.184C128.597 145.24 130.771 143.499 132.458 143.41C133.184 143.372 135.707 145.697 146.104 145.126C151.15 144.849 160.898 139.484 160.745 133.309C160.653 129.66 158.742 126.814 156.216 124.614ZM127.601 134.148V138.168C128.521 137.556 129.428 136.953 130.317 136.366C128.918 135.396 127.927 134.488 127.601 134.148ZM152.661 122.09C151.693 121.519 150.712 121.018 149.772 120.576C144.879 118.289 139.756 117.87 138.686 114.782C137.932 112.604 140.062 110.589 145.261 110.666C150.46 110.742 155.276 113.829 156.576 114.935V105.101C156.193 105.482 154.517 107.4 152.982 107.083C150.039 106.473 145.032 105.677 139.298 105.71C132.723 105.749 127.066 110.816 126.874 117.222C126.607 126.179 133.793 128.619 137.845 130.029C138.263 130.174 138.74 130.329 139.257 130.494C143.143 127.973 146.217 126.032 148.016 124.997C149.224 124.304 150.806 123.308 152.661 122.09Z" fill="white"/>
</g>
<defs>
<clipPath id="clip0_2111_4880">
<rect width="250" height="204" fill="white" transform="translate(0 23)"/>
</clipPath>
</defs>
</svg>
