<svg width="250" height="250" viewBox="0 0 250 250" fill="none" xmlns="http://www.w3.org/2000/svg">
<path d="M46.6481 80.2926C54.326 80.2926 60.5501 73.9749 60.5501 66.1816C60.5501 58.3884 54.326 52.0707 46.6481 52.0707C38.9702 52.0707 32.7461 58.3884 32.7461 66.1816C32.7461 73.9749 38.9702 80.2926 46.6481 80.2926Z" fill="#509EE3"/>
<path d="M46.6481 119.803C54.326 119.803 60.5501 113.485 60.5501 105.692C60.5501 97.899 54.326 91.5813 46.6481 91.5813C38.9702 91.5813 32.7461 97.899 32.7461 105.692C32.7461 113.485 38.9702 119.803 46.6481 119.803Z" fill="#509EE3"/>
<path opacity="0.2" d="M85.5739 80.2926C93.2517 80.2926 99.4759 73.9749 99.4759 66.1816C99.4759 58.3884 93.2517 52.0707 85.5739 52.0707C77.896 52.0707 71.6719 58.3884 71.6719 66.1816C71.6719 73.9749 77.896 80.2926 85.5739 80.2926Z" fill="#509EE3"/>
<path d="M85.5739 120.187C93.2517 120.187 99.4759 113.869 99.4759 106.076C99.4759 98.2828 93.2517 91.9651 85.5739 91.9651C77.896 91.9651 71.6719 98.2828 71.6719 106.076C71.6719 113.869 77.896 120.187 85.5739 120.187Z" fill="#509EE3"/>
<path opacity="0.2" d="M124.5 80.2926C132.178 80.2926 138.402 73.9749 138.402 66.1816C138.402 58.3884 132.178 52.0707 124.5 52.0707C116.822 52.0707 110.598 58.3884 110.598 66.1816C110.598 73.9749 116.822 80.2926 124.5 80.2926Z" fill="#509EE3"/>
<path opacity="0.2" d="M124.5 35.1375C132.178 35.1375 138.402 28.8198 138.402 21.0266C138.402 13.2333 132.178 6.91565 124.5 6.91565C116.822 6.91565 110.598 13.2333 110.598 21.0266C110.598 28.8198 116.822 35.1375 124.5 35.1375Z" fill="#509EE3"/>
<path opacity="0.2" d="M124.5 120.187C132.178 120.187 138.402 113.869 138.402 106.076C138.402 98.2828 132.178 91.9651 124.5 91.9651C116.822 91.9651 110.598 98.2828 110.598 106.076C110.598 113.869 116.822 120.187 124.5 120.187Z" fill="#509EE3"/>
<path opacity="0.2" d="M163.425 80.2926C171.103 80.2926 177.327 73.9749 177.327 66.1816C177.327 58.3884 171.103 52.0707 163.425 52.0707C155.748 52.0707 149.523 58.3884 149.523 66.1816C149.523 73.9749 155.748 80.2926 163.425 80.2926Z" fill="#509EE3"/>
<path d="M202.351 80.2926C210.029 80.2926 216.253 73.9749 216.253 66.1816C216.253 58.3884 210.029 52.0707 202.351 52.0707C194.673 52.0707 188.449 58.3884 188.449 66.1816C188.449 73.9749 194.673 80.2926 202.351 80.2926Z" fill="#509EE3"/>
<path d="M163.425 120.187C171.103 120.187 177.327 113.869 177.327 106.076C177.327 98.2828 171.103 91.9651 163.425 91.9651C155.748 91.9651 149.523 98.2828 149.523 106.076C149.523 113.869 155.748 120.187 163.425 120.187Z" fill="#509EE3"/>
<path d="M202.351 120.187C210.029 120.187 216.253 113.869 216.253 106.076C216.253 98.2828 210.029 91.9651 202.351 91.9651C194.673 91.9651 188.449 98.2828 188.449 106.076C188.449 113.869 194.673 120.187 202.351 120.187Z" fill="#509EE3"/>
<path d="M46.6481 159.314C54.326 159.314 60.5501 152.996 60.5501 145.203C60.5501 137.41 54.326 131.092 46.6481 131.092C38.9702 131.092 32.7461 137.41 32.7461 145.203C32.7461 152.996 38.9702 159.314 46.6481 159.314Z" fill="#509EE3"/>
<path opacity="0.2" d="M85.5739 159.698C93.2517 159.698 99.4759 153.38 99.4759 145.587C99.4759 137.793 93.2517 131.476 85.5739 131.476C77.896 131.476 71.6719 137.793 71.6719 145.587C71.6719 153.38 77.896 159.698 85.5739 159.698Z" fill="#509EE3"/>
<path d="M124.5 159.698C132.178 159.698 138.402 153.38 138.402 145.587C138.402 137.793 132.178 131.476 124.5 131.476C116.822 131.476 110.598 137.793 110.598 145.587C110.598 153.38 116.822 159.698 124.5 159.698Z" fill="#509EE3"/>
<path opacity="0.2" d="M163.425 159.698C171.103 159.698 177.327 153.38 177.327 145.587C177.327 137.793 171.103 131.476 163.425 131.476C155.748 131.476 149.523 137.793 149.523 145.587C149.523 153.38 155.748 159.698 163.425 159.698Z" fill="#509EE3"/>
<path d="M202.351 159.698C210.029 159.698 216.253 153.38 216.253 145.587C216.253 137.793 210.029 131.476 202.351 131.476C194.673 131.476 188.449 137.793 188.449 145.587C188.449 153.38 194.673 159.698 202.351 159.698Z" fill="#509EE3"/>
<path d="M46.6481 198.824C54.326 198.824 60.5501 192.507 60.5501 184.713C60.5501 176.92 54.326 170.603 46.6481 170.603C38.9702 170.603 32.7461 176.92 32.7461 184.713C32.7461 192.507 38.9702 198.824 46.6481 198.824Z" fill="#509EE3"/>
<path opacity="0.2" d="M85.5739 199.208C93.2517 199.208 99.4759 192.891 99.4759 185.097C99.4759 177.304 93.2517 170.986 85.5739 170.986C77.896 170.986 71.6719 177.304 71.6719 185.097C71.6719 192.891 77.896 199.208 85.5739 199.208Z" fill="#509EE3"/>
<path opacity="0.2" d="M124.5 199.208C132.178 199.208 138.402 192.891 138.402 185.097C138.402 177.304 132.178 170.986 124.5 170.986C116.822 170.986 110.598 177.304 110.598 185.097C110.598 192.891 116.822 199.208 124.5 199.208Z" fill="#509EE3"/>
<path opacity="0.2" d="M124.5 238.719C132.178 238.719 138.402 232.401 138.402 224.608C138.402 216.815 132.178 210.497 124.5 210.497C116.822 210.497 110.598 216.815 110.598 224.608C110.598 232.401 116.822 238.719 124.5 238.719Z" fill="#509EE3"/>
<path opacity="0.2" d="M163.425 199.208C171.103 199.208 177.327 192.891 177.327 185.097C177.327 177.304 171.103 170.986 163.425 170.986C155.748 170.986 149.523 177.304 149.523 185.097C149.523 192.891 155.748 199.208 163.425 199.208Z" fill="#509EE3"/>
<path d="M202.351 199.208C210.029 199.208 216.253 192.891 216.253 185.097C216.253 177.304 210.029 170.986 202.351 170.986C194.673 170.986 188.449 177.304 188.449 185.097C188.449 192.891 194.673 199.208 202.351 199.208Z" fill="#509EE3"/>
</svg>
