<svg width="250" height="250" viewBox="0 0 250 250" fill="none" xmlns="http://www.w3.org/2000/svg">
<path d="M218.219 209.997L182.45 174.223C181.321 173.116 179.802 172.495 178.22 172.495C176.638 172.495 175.119 173.116 173.989 174.223L138.221 209.997C137.368 210.81 136.782 211.864 136.543 213.018C136.303 214.172 136.421 215.371 136.88 216.457C137.339 217.542 138.118 218.462 139.112 219.095C140.107 219.727 141.271 220.041 142.448 219.996H213.991C215.162 220.025 216.315 219.701 217.299 219.066C218.283 218.431 219.053 217.515 219.51 216.436C219.966 215.357 220.086 214.166 219.856 213.017C219.626 211.869 219.055 210.816 218.219 209.997Z" fill="#C3C6CC"/>
<path d="M219.404 81.5088L208.2 48.2467C207.695 46.7425 206.889 45.3567 205.831 44.1736L31.3594 218.636C32.3833 219.552 33.7207 220.039 35.0942 219.996H84.6497C86.0347 220.003 87.4074 219.736 88.6892 219.211C89.971 218.686 91.1366 217.914 92.1192 216.938L217.029 92.0301C218.387 90.6851 219.332 88.9802 219.753 87.1161C220.173 85.252 220.053 83.3065 219.404 81.5088Z" fill="#E1E3E6"/>
<path d="M201.755 41.7924L168.492 30.5942C166.694 29.9461 164.749 29.8252 162.885 30.246C161.021 30.6668 159.316 31.6117 157.971 32.9692L33.0546 157.877C31.0896 159.865 29.9923 162.551 30.0027 165.346V214.901C29.9591 216.274 30.446 217.612 31.3624 218.636L205.834 44.1736C204.649 43.1124 203.261 42.3024 201.755 41.7924Z" fill="#C3C6CC"/>
</svg>
