<svg width="250" height="250" viewBox="0 0 250 250" fill="none" xmlns="http://www.w3.org/2000/svg">
<g clip-path="url(#clip0_2154_4269)">
<path d="M130.97 236C130.063 235.979 129.177 235.718 128.402 235.246C127.627 234.774 126.989 234.105 126.554 233.308C125.814 231.588 125.815 229.876 127.043 228.406L179.36 156.607L87.7457 193.857C87.0065 194.097 86.5168 194.347 85.7868 194.347C84.741 194.366 83.7181 194.04 82.8752 193.42C82.0322 192.8 81.4159 191.92 81.1207 190.915C80.3815 188.954 81.3608 186.753 83.0795 185.523L163.643 138.237L21.9292 130.143C20.6669 130.095 19.4731 129.556 18.6017 128.64C17.7303 127.725 17.25 126.505 17.263 125.24C17.263 123.039 18.7322 120.588 21.9292 120.338L163.643 112.263L83.0795 64.9675C81.3608 63.7465 80.3815 61.545 81.1207 59.5747C81.4493 58.5912 82.0744 57.7338 82.9101 57.1209C83.7459 56.5079 84.7509 56.1695 85.7868 56.1522C86.5168 56.1522 87.0065 56.3927 87.7457 56.6332L179.36 93.883L127.043 21.844C126.064 20.364 125.814 18.4122 126.554 16.9415C126.941 16.1054 127.567 15.4032 128.354 14.924C129.14 14.4447 130.051 14.2101 130.97 14.2497C132.199 14.2497 133.428 14.74 134.408 15.7205L238.552 119.367C239.983 120.895 240.773 122.915 240.76 125.009C240.76 126.961 240.021 128.922 238.552 130.633L134.408 234.529C133.961 234.991 133.427 235.36 132.837 235.614C132.247 235.868 131.613 235.993 130.97 236Z" fill="black"/>
</g>
<defs>
<clipPath id="clip0_2154_4269">
<rect width="231" height="222" fill="white" transform="translate(10 14)"/>
</clipPath>
</defs>
</svg>
