<svg width="250" height="250" viewBox="0 0 250 250" fill="none" xmlns="http://www.w3.org/2000/svg">
<path d="M204.488 35.875H48.0696C35.2714 35.875 24.8965 46.1725 24.8965 58.875V191.125C24.8965 203.828 35.2714 214.125 48.0696 214.125H204.488C217.286 214.125 227.661 203.828 227.661 191.125V58.875C227.661 46.1725 217.286 35.875 204.488 35.875Z" fill="#5F5CFF" stroke="#5F5CFF"/>
<path fill-rule="evenodd" clip-rule="evenodd" d="M126.176 67.5L161.039 102.687L154.803 110.66L126.004 188.25L108.846 134.084L91.5195 102.262L126.176 67.5ZM146.191 120.998L128.405 142.862L128.405 168.913L146.191 120.998ZM127.455 75.1763L113.32 133.407L123.933 166.9L123.936 141.244L155.031 103.012L127.455 75.1763ZM122.206 77.8442L97.0603 103.068L110.22 127.237L122.206 77.8442Z" fill="white"/>
</svg>
