<svg width="250" height="250" viewBox="0 0 250 250" fill="none" xmlns="http://www.w3.org/2000/svg">
<path fill-rule="evenodd" clip-rule="evenodd" d="M178.26 0H74.3636V22.7273H178.26V0ZM228.584 146.916C228.584 203.848 182.432 250 125.5 250C68.568 250 22.4155 203.848 22.4155 146.916C22.4155 89.9836 68.568 43.8312 125.5 43.8312C182.432 43.8312 228.584 89.9836 228.584 146.916ZM207.481 146.916C207.481 192.192 170.777 228.896 125.5 228.896C80.2234 228.896 43.5195 192.192 43.5195 146.916C43.5195 101.639 80.2234 64.9351 125.5 64.9351C170.777 64.9351 207.481 101.639 207.481 146.916Z" fill="#2F4A73"/>
</svg>
