<svg width="250" height="250" viewBox="0 0 250 250" fill="none" xmlns="http://www.w3.org/2000/svg">
<g clip-path="url(#clip0_2108_4374)">
<path d="M206.875 92.5489L160.008 45.1276C154.458 39.825 147.847 35.7873 140.621 33.2867C124.609 27.8993 108.673 32.1046 95.7679 45.1276L48.786 92.5489C43.5391 98.1583 39.5437 104.839 37.0694 112.142C31.7192 128.323 35.8805 144.428 48.786 157.451L95.71 204.872C101.251 210.177 107.857 214.215 115.078 216.713C119.453 218.207 124.037 218.98 128.655 219C139.912 219 150.689 214.194 159.932 204.872L206.836 157.451C212.09 151.843 216.092 145.162 218.573 137.858C223.904 121.677 219.742 105.591 206.836 92.5489H206.875ZM131.435 58.887C134.98 60.0355 138.247 61.9238 141.023 64.4295L154.888 78.4602L127.85 105.766L100.811 78.4408L114.752 64.3326C118.492 60.573 123.765 56.5808 131.474 58.8676L131.435 58.887ZM62.4395 121.328C63.5796 117.743 65.455 114.441 67.9431 111.638L81.8075 97.6266L108.846 124.951L81.7883 152.276L67.8472 138.168C64.1079 134.409 60.1767 129.08 62.4204 121.289L62.4395 121.328ZM124.225 191.055C120.676 189.916 117.407 188.027 114.637 185.512L100.811 171.656L127.85 144.312L154.888 171.636L140.947 185.745C137.207 189.505 131.953 193.497 124.225 191.21V191.055ZM193.26 128.75C192.12 132.331 190.252 135.631 187.775 138.44L173.911 152.276L146.873 124.951L173.911 97.6266L187.852 111.715C191.591 115.475 195.523 120.804 193.279 128.595" fill="#00ABE4"/>
</g>
<defs>
<clipPath id="clip0_2108_4374">
<rect width="193" height="188" fill="white" transform="translate(29 31)"/>
</clipPath>
</defs>
</svg>
