<svg width="250" height="250" viewBox="0 0 250 250" fill="none" xmlns="http://www.w3.org/2000/svg">
<g clip-path="url(#clip0_2158_4189)">
<path d="M215.918 34.7617C215.918 8.27939 190.733 1.65881 170.851 1.65881V5.63116C182.78 5.63116 192.059 9.60351 192.059 18.8723C192.059 24.1688 188.082 32.1135 176.153 32.1135C166.875 32.1135 146.992 26.817 132.412 21.5206C115.18 14.9 99.2745 9.60351 86.0196 9.60351C59.5098 9.60351 40.9529 29.4652 40.9529 51.9752C40.9529 71.837 55.5333 78.4575 60.8353 81.1058L62.1608 78.4575C59.5098 75.8093 55.5333 73.1611 55.5333 65.2164C55.5333 59.9199 60.8353 50.6511 74.0902 50.6511C86.0196 50.6511 101.925 55.9476 123.133 62.5681C141.69 67.8646 161.573 71.837 172.176 73.1611V114.209L152.294 131.422V132.746L172.176 149.96V206.897C161.573 213.517 149.643 214.841 139.039 214.841C119.157 214.841 101.925 209.545 87.3451 193.656L141.69 167.173V75.8093L75.4157 104.94C80.7176 87.7264 95.298 75.8093 109.878 67.8646L108.553 63.8923C68.7882 74.4852 33 111.56 33 156.58C33 209.545 76.7412 249.269 125.784 249.269C178.804 249.269 213.267 206.897 213.267 163.201H210.616C202.663 180.414 190.733 196.304 176.153 204.249V149.96L197.361 132.746V131.422L176.153 114.209V73.1611C196.035 73.1611 215.918 59.9199 215.918 34.7617ZM100.6 180.414L84.6941 188.359C75.4157 176.442 70.1137 160.553 70.1137 138.043C70.1137 128.774 70.1137 118.181 72.7647 110.236L100.6 98.3193V180.414Z" fill="black"/>
</g>
<defs>
<clipPath id="clip0_2158_4189">
<rect width="250" height="250" fill="white"/>
</clipPath>
</defs>
</svg>
