<svg width="250" height="250" viewBox="0 0 250 250" fill="none" xmlns="http://www.w3.org/2000/svg">
<path fill-rule="evenodd" clip-rule="evenodd" d="M105.417 29.4196C31.0159 47.5879 4.64074 140.092 58.4091 194.29C119.351 255.722 220.738 212.138 220.995 124.4C221.054 104.17 220.746 103.718 206.633 103.311C171.71 102.309 126.053 103.526 126.053 105.46C126.053 106.627 140.646 123.144 158.481 142.164C176.317 161.183 190.91 177.779 190.91 179.045C190.91 192.294 151.738 196.158 129.251 185.126C80.8751 161.391 46.4538 84.5377 72.8643 59.233C86.9677 45.7207 109.599 51.0922 160.065 79.9268C178.556 90.4929 194.398 98.6966 195.267 98.16C196.138 97.6215 189.058 81.9925 179.538 63.4252L162.227 29.6712L154.458 28.2914C142.44 26.159 116.313 26.7584 105.417 29.4196Z" fill="#1E1A14"/>
</svg>
