<svg width="250" height="250" viewBox="0 0 250 250" fill="none" xmlns="http://www.w3.org/2000/svg">
<g clip-path="url(#clip0_2154_3873)">
<path d="M194.339 158.885C194.339 162.118 191.664 164.766 188.395 164.766H62.6012C59.3324 164.766 56.6577 162.118 56.6577 158.885V35.8811C56.6577 32.6481 59.3324 30 62.6012 30H188.399C191.667 30 194.342 32.6481 194.342 35.8811V158.885H194.339Z" fill="#0C9D58"/>
<path opacity="0.2" d="M194.338 61.6212L147.193 55.5734L194.338 68.1794V61.6212Z" fill="#004D40"/>
<path opacity="0.2" d="M127.773 36.4128L56.377 68.1865L135.285 39.5608V39.4828C133.898 36.5192 130.519 35.1367 127.773 36.4128Z" fill="#004D40"/>
<path opacity="0.2" d="M188.399 30H62.6012C59.3324 30 56.6577 32.6481 56.6577 35.8811V37.1998C56.6577 33.9668 59.3324 31.3187 62.6012 31.3187H188.399C191.667 31.3187 194.342 33.9668 194.342 37.1998V35.8811C194.339 32.6481 191.667 30 188.399 30Z" fill="white"/>
<path d="M87.1862 155.106C86.3361 158.264 88.0327 161.487 90.9564 162.267L207.471 193.498C210.394 194.278 213.482 192.331 214.328 189.173L241.776 87.0776C242.626 83.919 240.93 80.6967 238.006 79.9168L121.492 48.6855C118.568 47.9056 115.481 49.8518 114.634 53.0104L87.1862 155.106Z" fill="#EA4335"/>
<path opacity="0.2" d="M215.523 123.52L221.651 160.625L215.523 183.43V123.52Z" fill="#3E2723"/>
<path opacity="0.2" d="M147.744 57.0872L153.236 58.5583L156.643 81.4589L147.744 57.0872Z" fill="#3E2723"/>
<path opacity="0.2" d="M238.009 79.9168L121.495 48.6855C118.571 47.9056 115.484 49.8518 114.637 53.0104L87.1895 155.106C87.1433 155.276 87.1326 155.45 87.1006 155.62L114.342 54.2972C115.192 51.1387 118.28 49.1925 121.2 49.9724L237.714 81.2036C240.478 81.941 242.117 84.8656 241.573 87.854L241.783 87.0776C242.63 83.919 240.933 80.6967 238.009 79.9168Z" fill="white"/>
<path d="M178.948 142.532C180.069 145.605 178.66 148.962 175.818 149.994L52.8697 194.593C50.0242 195.625 46.7804 193.955 45.66 190.882L9.38758 91.5585C8.26719 88.485 9.67569 85.1279 12.5176 84.0963L135.466 39.497C138.312 38.4654 141.555 40.1351 142.676 43.2086L178.948 142.532Z" fill="#FFC107"/>
<path opacity="0.2" d="M9.85348 92.8098C8.73309 89.7363 10.1416 86.3792 12.9835 85.3477L135.932 40.7448C138.745 39.7238 141.943 41.351 143.099 44.3607L142.676 43.205C141.552 40.1315 138.308 38.4618 135.466 39.4934L12.5175 84.0963C9.67209 85.1279 8.26359 88.485 9.38754 91.5585L45.66 190.882C45.6706 190.913 45.692 190.942 45.7062 190.977L9.85348 92.8098Z" fill="white"/>
<path d="M215.523 214.062C215.523 217.327 212.841 220 209.565 220H41.4347C38.1589 220 35.4771 217.327 35.4771 214.062V87.3967C35.4771 84.1318 38.1589 81.4589 41.4347 81.4589H209.565C212.841 81.4589 215.523 84.1318 215.523 87.3967V214.062Z" fill="#4285F4"/>
<path d="M183.419 131.599H133.112V118.405H183.419C184.881 118.405 186.066 119.585 186.066 121.042V128.958C186.066 130.415 184.881 131.599 183.419 131.599ZM183.419 181.736H133.112V168.541H183.419C184.881 168.541 186.066 169.722 186.066 171.179V179.094C186.066 180.555 184.881 181.736 183.419 181.736ZM191.362 156.665H133.112V143.471H191.362C192.824 143.471 194.008 144.652 194.008 146.109V154.024C194.008 155.485 192.824 156.665 191.362 156.665Z" fill="white"/>
<path opacity="0.2" d="M209.565 218.681H41.4347C38.1589 218.681 35.4771 216.008 35.4771 212.743V214.062C35.4771 217.327 38.1589 220 41.4347 220H209.565C212.841 220 215.523 217.327 215.523 214.062V212.743C215.523 216.008 212.841 218.681 209.565 218.681Z" fill="#1A237E"/>
<path opacity="0.2" d="M41.4347 82.7776H209.565C212.841 82.7776 215.523 85.4505 215.523 88.7154V87.3967C215.523 84.1318 212.841 81.4589 209.565 81.4589H41.4347C38.1589 81.4589 35.4771 84.1318 35.4771 87.3967V88.7154C35.4771 85.4505 38.1589 82.7776 41.4347 82.7776Z" fill="white"/>
<path d="M88.0998 144.793V156.694H105.233C103.817 163.943 97.4223 169.2 88.0998 169.2C77.6997 169.2 69.2665 160.434 69.2665 150.068C69.2665 139.703 77.6997 130.936 88.0998 130.936C92.7842 130.936 96.9777 132.542 100.289 135.686V135.693L109.355 126.657C103.849 121.542 96.6682 118.405 88.0963 118.405C70.5505 118.405 56.3232 132.581 56.3232 150.072C56.3232 167.563 70.547 181.739 88.0963 181.739C106.446 181.739 118.518 168.881 118.518 150.791C118.518 148.718 118.326 146.718 118.016 144.793H88.0998Z" fill="white"/>
<g opacity="0.2">
<path d="M88.4307 156.694V158.013H105.244C105.368 157.58 105.475 157.141 105.564 156.694H88.4307Z" fill="#1A237E"/>
<path d="M88.4308 181.736C71.1055 181.736 57.0276 167.914 56.6755 150.728C56.6719 150.947 56.6577 151.167 56.6577 151.387C56.6577 168.878 70.8814 183.054 88.4308 183.054C106.78 183.054 118.852 170.197 118.852 152.107C118.852 151.961 118.834 151.827 118.834 151.681C118.44 169.3 106.478 181.736 88.4308 181.736ZM100.62 135.686C97.3086 132.545 93.1115 130.936 88.4308 130.936C78.0306 130.936 69.5974 139.703 69.5974 150.068C69.5974 150.292 69.6223 150.508 69.6294 150.728C69.9816 140.653 78.2512 132.255 88.4308 132.255C93.1151 132.255 97.3086 133.861 100.62 137.005V137.012L110.348 127.317C110.12 127.104 109.868 126.916 109.633 126.71L100.624 135.693L100.62 135.686Z" fill="#1A237E"/>
</g>
<path opacity="0.2" d="M186.066 130.277V128.958C186.066 130.415 184.881 131.595 183.419 131.595H133.112V132.914H183.419C184.881 132.918 186.066 131.737 186.066 130.277ZM183.419 181.736H133.112V183.054H183.419C184.881 183.054 186.066 181.874 186.066 180.417V179.098C186.066 180.555 184.881 181.736 183.419 181.736ZM191.362 156.666H133.112V157.984H191.362C192.824 157.984 194.008 156.804 194.008 155.347V154.028C194.008 155.485 192.824 156.666 191.362 156.666Z" fill="#1A237E"/>
<path d="M238.01 79.9168L194.343 68.2113V35.8811C194.343 32.6481 191.668 30 188.399 30H62.6016C59.3329 30 56.6581 32.6481 56.6581 35.8811V68.0837L12.518 84.0963C9.67257 85.1279 8.26407 88.485 9.38803 91.5585L35.4773 163.004V214.062C35.4773 217.327 38.1591 220 41.435 220H209.566C212.842 220 215.523 217.327 215.523 214.062V184.749L241.783 87.0776C242.63 83.9191 240.933 80.6967 238.01 79.9168Z" fill="url(#paint0_radial_2154_3873)"/>
</g>
<defs>
<radialGradient id="paint0_radial_2154_3873" cx="0" cy="0" r="1" gradientUnits="userSpaceOnUse" gradientTransform="translate(61.5133 45.3936) scale(226.589 225.835)">
<stop stop-color="white" stop-opacity="0.1"/>
<stop offset="1" stop-color="white" stop-opacity="0"/>
</radialGradient>
<clipPath id="clip0_2154_3873">
<rect width="233" height="190" fill="white" transform="translate(9 30)"/>
</clipPath>
</defs>
</svg>
