<svg width="250" height="250" viewBox="0 0 250 250" fill="none" xmlns="http://www.w3.org/2000/svg">
<path fill-rule="evenodd" clip-rule="evenodd" d="M87.6289 48.6153C80.066 64.3335 80.1909 63.4866 84.3653 70.5894C86.3263 73.9282 87.9123 79.0969 88.398 83.7271L89.1981 91.362L82.7381 103.397C79.186 110.017 75.6042 117.55 74.7783 120.138C72.6177 126.907 70.1143 127.236 64.3668 121.503C58.4904 115.64 56.3169 108.779 56.1378 95.5129L56.0077 85.8746L51.8114 85.471C48.9666 85.1973 47.3729 85.6972 46.864 87.0222C46.127 88.9357 47.6898 97.8158 49.5425 102.249C50.9533 105.627 46.6849 106.705 43.7009 103.723C42.3649 102.388 40.4863 97.8261 39.5252 93.5852C37.6815 85.4453 34.4541 83.028 30.1689 86.5762C27.1038 89.113 27.9993 92.2436 34.1952 100.637C42.5903 112.012 40.4954 115.621 29.7244 108.341C22.1821 103.243 18 103.812 18 109.933C18 112.47 18.0168 112.479 35.9938 118.833C42.7024 121.204 50.5294 124.901 53.3871 127.051C75.1378 143.406 77.3332 143.381 86.3906 126.677C91.8573 116.593 94.8142 115.995 95.9106 124.749C97.8677 140.359 99.2089 144.689 104.303 151.852C110.185 160.122 109.608 160.849 99.3893 158.046C95.0564 156.858 87.9444 156.147 81.9147 156.299C69.3812 156.615 68.2088 157.787 70.707 167.509C73.4126 178.036 67.7102 179.084 60.9139 169.308C52.395 157.054 47.6331 155.319 47.6331 164.469C47.6331 168.56 48.5659 170.111 54.0751 175.19C64.0834 184.416 62.5643 187.623 50.4998 182.736C43.2809 179.812 38.845 184.921 43.0464 191.317L45.1156 194.466L60.2246 194.474C71.7339 194.481 76.2549 194.98 79.1988 196.575C112.692 214.715 127.887 219.607 131.801 213.508C133.537 210.803 129.128 200.789 122.038 191.339C113.328 179.728 117.182 179.704 131.022 191.285C149.147 206.451 152.279 206.44 157.854 191.195C161.498 181.231 168.233 170.394 169.804 171.972C170.283 172.452 170.675 179.413 170.675 187.437C170.675 203.837 171.577 206.052 177.433 204.011C180.017 203.111 184.212 197.889 192.862 184.806C205.303 165.988 215.161 155.345 223.622 151.595C231.83 147.958 232.497 147.435 232.962 144.288C233.364 141.564 230.459 137.922 227.884 137.922C227.379 137.922 224.535 139.946 221.567 142.419C212.852 149.682 212.205 149.047 212.736 133.745L213.192 120.573H209.327H205.462L204.818 132.139C203.837 149.746 201.853 150.804 195.6 137.05C191.711 128.493 189.173 126.322 185.638 128.531C181.669 131.013 182.675 134.863 189.934 144.954C193.869 150.423 197.054 155.849 197.014 157.012C196.904 160.131 190.145 172.026 188.682 171.676C187.99 171.511 187.085 166.306 186.67 160.11C184.757 131.513 177.125 126.642 165.425 146.556C160.595 154.777 159.646 153.567 159.919 139.528L160.163 126.998L154.79 117.565C150.211 109.53 148.292 104.509 149.798 104.509C150.007 104.509 155.306 107.141 161.574 110.357C167.842 113.574 174.192 116.032 175.687 115.819C179.251 115.311 182.669 108.214 184.329 97.8711C185.05 93.3937 186.574 88.2841 187.718 86.5171C193.149 78.133 198.226 73.283 204.584 70.4057C210.709 67.6324 211.393 66.9282 211.026 63.7616C210.735 61.2557 209.592 59.8626 207.117 59.0003C203.936 57.8913 203.139 58.3256 198.311 63.7951C191.079 71.9902 188.068 71.8823 188.068 63.4288C188.068 59.9192 188.978 55.145 190.089 52.8202C192.771 47.2094 190.88 41.5382 186.325 41.5382C181.094 41.5382 180.265 43.9594 181.163 56.583C182.303 72.6032 177.619 74.9048 173.776 60.2122C171.751 52.4668 166.349 49.245 163.692 54.1966C162.749 55.9546 163.071 57.7113 164.926 60.9434C174.815 78.1639 176.6 82.762 176.212 90.0075C175.637 100.772 173.977 101.068 160.65 92.7897C154.528 88.9871 147.157 84.4455 144.272 82.699C141.387 80.9526 136.404 76.037 133.196 71.7756C127.689 64.4582 127.407 63.6858 128.133 57.8746C128.834 52.2728 128.562 51.3822 125.086 47.9149C122.988 45.8215 119.902 44.1084 118.228 44.1084C116.556 44.1084 112.037 42.0844 108.188 39.6106C96.6115 32.171 95.2562 32.7648 87.6289 48.6153ZM90.1 177.935C100.331 191.922 100.169 193.113 88.8193 187.376C83.3951 184.635 82.4198 183.583 82.4198 180.469C82.4198 178.449 82.0578 174.989 81.6146 172.78C80.3481 166.463 82.796 167.951 90.1 177.935Z" fill="#14B2C7"/>
</svg>
