<svg width="250" height="250" viewBox="0 0 250 250" fill="none" xmlns="http://www.w3.org/2000/svg">
<g clip-path="url(#clip0_2154_3908)">
<path d="M220.192 109.343H161.44C158.083 109.343 155.525 112.77 156.724 115.958L170.873 152.457C171.512 154.051 170.233 155.804 168.475 155.725L150.41 154.609C149.61 154.529 148.811 154.928 148.331 155.645L134.263 175.489C133.544 176.604 132.025 177.003 130.826 176.206L110.043 162.1C109.244 161.542 108.125 161.542 107.325 162.1L78.5494 181.545C76.7109 182.82 74.233 181.067 74.8724 178.915L82.8658 150.305C83.1855 149.11 82.626 147.915 81.427 147.437L66.1597 141.22C64.6409 140.583 64.1614 138.75 65.2005 137.475L78.7093 120.899C79.3487 120.102 79.4287 118.906 78.7892 118.03L67.4386 101.693C66.3995 100.178 67.3587 98.1064 69.2771 97.947L86.8625 96.5923C88.1414 96.5126 89.1805 95.3969 89.1006 94.0421L87.7417 69.4966C87.6618 67.7433 89.4203 66.4682 91.099 67.1058L112.921 76.1111C113.88 76.5096 114.999 76.2705 115.639 75.4735L130.666 58.738C131.865 57.3832 134.023 57.7817 134.743 59.3755L143.775 82.5662C144.974 85.4352 148.571 86.4712 151.129 84.5586L186.46 58.3395C190.456 55.3909 187.898 49.0154 182.943 49.7327L159.682 52.8407C158.563 53 157.524 52.3625 157.124 51.3265L144.894 20.0071C143.535 16.7397 139.299 15.9427 136.901 18.5726L110.283 47.3419C109.564 48.0591 108.524 48.2982 107.565 47.8997L72.5544 33.1565C69.437 31.8814 65.9998 34.0331 65.84 37.4599L64.561 73.4812C64.4811 74.7563 63.5219 75.7126 62.3229 75.7923L30.3495 77.8643C26.5926 78.1034 24.5942 82.3272 26.6725 85.3555L47.9348 116.595C48.5743 117.472 48.4944 118.667 47.775 119.544L26.1929 144.249C24.0347 146.719 24.914 150.545 27.9515 151.82L52.7309 162.499C53.8499 162.977 54.4095 164.172 54.0897 165.288L38.2629 226.97C37.1438 231.353 42.0997 234.701 45.7766 232.071L105.247 189.515C106.047 188.957 107.166 188.877 108.045 189.515L135.142 208.481C137.38 210.075 140.418 209.438 141.937 207.206L158.883 181.306C159.362 180.509 160.321 180.111 161.201 180.27L201.727 185.131C205.004 185.61 208.282 182.9 207.083 179.872L190.217 136.359C189.737 135.164 190.217 133.889 191.655 133.171L222.43 118.667C226.986 116.356 225.387 109.343 220.192 109.343Z" fill="#8039E9"/>
</g>
<defs>
<clipPath id="clip0_2154_3908">
<rect width="201" height="216" fill="white" transform="translate(25 17)"/>
</clipPath>
</defs>
</svg>
