<svg width="250" height="250" viewBox="0 0 250 250" fill="none" xmlns="http://www.w3.org/2000/svg">
<g clip-path="url(#clip0_1789_6988)">
<path d="M28.168 166.685L95.3331 50.3511L153.533 83.9521L86.3761 200.286L28.168 166.685Z" fill="#FBBC04"/>
<path d="M221.261 166.28L154.054 49.9046C145.378 33.4969 125.049 27.2282 108.641 35.9035C92.2319 44.5787 85.971 64.9064 94.6386 81.314C95.019 82.0335 95.4243 82.7365 95.8544 83.4312L163.061 199.807C172.125 215.999 192.603 221.78 208.797 212.716C224.991 203.652 230.772 183.176 221.707 166.983C221.559 166.718 221.41 166.462 221.261 166.206V166.28Z" fill="#4285F4"/>
<path d="M57.6033 216.826C76.1618 216.826 91.2065 201.783 91.2065 183.225C91.2065 164.668 76.1618 149.624 57.6033 149.624C39.0447 149.624 24 164.668 24 183.225C24 201.783 39.0447 216.826 57.6033 216.826Z" fill="#34A853"/>
</g>
<defs>
<clipPath id="clip0_1789_6988">
<rect width="202" height="185" fill="white" transform="translate(24 32)"/>
</clipPath>
</defs>
</svg>
