<svg width="250" height="250" viewBox="0 0 250 250" fill="none" xmlns="http://www.w3.org/2000/svg">
<g clip-path="url(#clip0_2152_3938)">
<path d="M222.6 139.279C219.449 159.732 209.992 178.262 195.107 193.121C180.223 207.981 161.66 217.42 141.171 220.566C141.171 220.392 140.996 220.217 140.996 220.043V219.867C140.821 219.518 140.821 219.343 140.646 218.818C140.471 218.295 140.296 217.77 140.121 217.246C139.245 214.799 138.72 212.001 138.194 209.204V209.03C138.194 208.68 138.019 208.329 138.019 207.981V207.806C138.019 207.456 137.844 207.106 137.844 206.931V206.581C137.844 206.232 137.669 205.882 137.669 205.358C137.494 204.484 137.494 203.61 137.494 202.56V202.212C137.494 202.037 137.494 201.861 137.494 201.687V201.337C137.494 200.289 137.319 199.24 137.319 198.016C137.319 163.403 165.688 135.083 200.36 135.083C201.411 135.083 202.637 135.083 203.687 135.083H204.039C204.213 135.083 204.389 135.083 204.563 135.083H204.913C205.789 135.083 206.84 135.258 207.716 135.433C208.066 135.433 208.59 135.433 209.116 135.608C209.466 135.608 209.817 135.782 209.992 135.782H210.167C210.517 135.782 210.867 135.782 211.217 135.957H211.393C214.195 136.482 216.822 137.181 219.623 138.055C220.149 138.23 220.673 138.405 221.199 138.58C221.549 138.754 221.725 138.754 222.075 138.929H222.25C222.25 139.104 222.426 139.279 222.6 139.279Z" fill="#19212E"/>
<path opacity="0.6" d="M223.826 124.944H223.65C222.075 124.42 220.499 124.07 218.923 123.546C218.747 123.546 218.573 123.371 218.222 123.371C216.822 123.021 215.42 122.672 213.844 122.497C213.844 122.497 213.844 122.497 213.669 122.497C213.319 122.497 212.793 122.322 212.443 122.322H212.093C211.567 122.322 211.043 122.147 210.693 122.147C210.167 122.147 209.466 121.972 209.116 121.972C208.066 121.798 206.84 121.798 205.789 121.623C205.439 121.623 205.089 121.623 204.739 121.623H203.863C202.637 121.623 201.411 121.623 200.01 121.623C157.457 121.623 122.959 156.061 122.959 198.541C122.959 199.765 122.959 200.988 123.134 202.386V203.261C123.134 203.61 123.134 203.96 123.309 204.31C123.485 205.358 123.485 206.583 123.66 207.63C123.66 208.155 123.835 208.68 123.835 209.204C123.835 209.729 124.01 210.253 124.01 210.602C124.185 211.302 124.185 211.827 124.36 212.35C124.885 215.672 125.761 218.994 126.812 222.316C126.812 222.316 126.812 222.316 126.812 222.49C105.097 222.84 84.4336 216.022 67.0972 203.086C67.0972 202.736 67.0972 202.386 67.0972 202.212C67.0972 201.162 67.0972 199.939 67.0972 198.89C67.0972 125.644 126.812 66.0322 200.186 66.0322C201.236 66.0322 202.462 66.0322 203.513 66.0322C203.863 66.0322 204.213 66.0322 204.389 66.0322C217.346 82.4647 224.002 103.267 223.826 124.944Z" fill="#19212E"/>
<path opacity="0.3" d="M191.78 51.3479C191.08 51.3479 190.204 51.5227 189.503 51.5227C188.277 51.5227 187.227 51.6975 186.001 51.8724C185.651 51.8724 185.126 51.8724 184.775 52.0472C184.424 52.0472 184.25 52.0472 183.9 52.222C181.798 52.3968 179.697 52.7464 177.596 53.096C176.02 53.2709 174.618 53.6205 173.043 53.7953C172.167 53.9701 171.116 54.1449 170.241 54.3197C169.19 54.4945 168.139 54.8442 166.913 55.019C166.563 55.1938 166.038 55.1938 165.688 55.3686C164.987 55.5434 164.112 55.7182 163.411 55.893C163.061 55.893 162.886 56.0679 162.535 56.0679C161.66 56.2427 160.784 56.4175 160.084 56.7671C159.734 56.9419 159.208 56.9419 158.858 57.1167C158.158 57.2915 157.632 57.4664 156.932 57.6412C156.406 57.816 155.881 57.9908 155.531 58.1656C154.655 58.3404 153.955 58.69 153.254 58.8648C153.079 58.8648 152.904 59.0397 152.729 59.0397C151.678 59.3893 150.628 59.7389 149.577 60.2633C148.351 60.613 147.3 61.1374 146.25 61.487C145.549 61.6618 144.849 62.0115 144.323 62.3611C143.623 62.5359 143.098 62.8855 142.397 63.0603C141.346 63.5848 140.121 63.9344 139.07 64.4588C137.144 65.3329 135.217 66.207 133.291 67.256C130.84 68.4797 128.563 69.7034 126.111 71.1019C125.411 71.6263 124.535 71.9759 123.835 72.5004C122.959 73.0248 122.084 73.5492 121.033 74.2485C120.157 74.7729 119.282 75.2973 118.581 75.8218C117.881 76.3462 117.005 76.8707 116.305 77.3951C115.604 77.9195 114.904 78.444 114.204 78.9684C112.452 80.1921 110.876 81.4158 109.3 82.6395C108.6 83.1639 108.074 83.6883 107.374 84.2128C106.323 85.0868 105.097 86.1357 104.047 87.0098C103.171 87.709 102.296 88.5831 101.42 89.2823C100.72 89.8068 100.194 90.506 99.4938 91.0304C97.3924 93.1282 95.2909 95.0513 93.1896 97.3238C92.4892 98.0231 91.9639 98.5475 91.4384 99.2468C90.5629 100.121 89.8624 100.995 89.162 101.869C88.1113 102.918 87.2357 104.142 86.3601 105.19C85.8347 105.89 85.3094 106.414 84.7841 107.113C83.5582 108.687 82.3324 110.435 81.1066 112.008C80.5812 112.707 80.0559 113.407 79.5305 114.106C79.0052 114.805 78.4799 115.679 77.9545 116.378C77.4292 117.252 76.9038 117.952 76.3785 118.826C75.8532 119.7 75.1526 120.574 74.6273 121.623C74.102 122.322 73.7517 123.196 73.2263 123.895C71.8254 126.168 70.5997 128.615 69.3738 130.888C68.3231 132.811 67.4476 134.734 66.572 136.657C66.0467 137.706 65.5213 138.754 65.1711 139.978C64.9959 140.503 64.6457 141.202 64.4705 141.901C64.1204 142.6 63.9452 143.3 63.5951 143.824C63.0697 144.873 62.7194 146.097 62.3692 147.145C62.0189 148.194 61.6688 149.243 61.1434 150.292C61.1434 150.467 60.9682 150.642 60.9682 150.817C60.6181 151.516 60.4429 152.39 60.2678 153.089C60.0928 153.614 59.9176 154.138 59.7425 154.488C59.5673 155.187 59.3922 155.711 59.2172 156.411C59.0419 156.76 59.0419 157.285 58.8669 157.634C58.6918 158.508 58.3415 159.382 58.1665 160.082C58.1665 160.257 57.9913 160.606 57.9913 160.956C57.8162 161.655 57.6411 162.529 57.4659 163.228C57.4659 163.578 57.2909 163.928 57.1157 164.452C56.9406 165.501 56.5903 166.55 56.4153 167.773C56.2402 168.648 56.065 169.522 55.8899 170.57C55.5396 172.143 55.3646 173.543 55.1894 175.115C54.8392 177.213 54.664 179.312 54.3139 181.409C54.3139 181.759 54.3139 181.933 54.1387 182.283C54.1387 182.632 54.1387 182.982 53.9636 183.507C53.7886 184.73 53.7886 185.78 53.6134 187.003C53.6134 187.702 53.4383 188.577 53.4383 189.276C36.9774 171.969 28.0465 149.243 27.6962 125.119C27.346 99.4216 36.9774 74.9477 54.664 56.4175C55.1894 55.7182 55.8899 55.1938 56.4153 54.6694C56.9406 54.1449 57.641 53.4457 58.1665 52.9212C76.5536 35.6147 100.544 26 125.761 26H126.987C151.153 26.3496 173.918 35.2651 191.78 51.3479Z" fill="#19212E"/>
</g>
<defs>
<clipPath id="clip0_2152_3938">
<rect width="197" height="197" fill="white" transform="translate(27 26)"/>
</clipPath>
</defs>
</svg>
