<svg width="250" height="250" viewBox="0 0 250 250" fill="none" xmlns="http://www.w3.org/2000/svg">
<path fill-rule="evenodd" clip-rule="evenodd" d="M79.1429 25.1429H63.8571V40.4286H48.5714V55.7143L33.2857 55.7143V71V86.2857V101.571H48.5714V116.857V132.143V147.429V162.714L33.2857 162.714V178V193.286H18V208.571H33.2857V223.857H48.5714V208.571L33.2857 208.571V193.286H48.5714H63.8571V208.571H79.1429V193.286V178H63.8571V162.714H79.1429H94.4286V178H109.714V193.286H125V178H140.286V193.286H155.571V178H140.286V162.714H155.571H170.857L186.143 162.714L186.143 178H170.857V193.286V208.571H186.143V193.286H201.429H216.714L216.714 208.571L201.429 208.571V223.857H216.714L216.714 208.571H232V193.286H216.714V178V162.714H201.429V147.429V132.143V116.857V101.571H216.714V86.2857V71V55.7143H201.429V40.4286H186.143L186.143 25.1429H170.857H155.571V40.4286H170.857H186.143V55.7143L186.143 71H170.857V55.7143H155.571H140.286H125H109.714H94.4286H79.1429V71H63.8571V55.7143V40.4286H79.1429H94.4286V25.1429H79.1429ZM125 178H109.714V162.714H125V178ZM170.857 132.143V116.857V101.571H155.571V86.2857H140.286V101.571H155.571V116.857H140.286V132.143H155.571L170.857 132.143ZM109.714 101.571V86.2857H94.4286V101.571H79.1429V116.857V132.143L94.4286 132.143H109.714V116.857H94.4286V101.571H109.714Z" fill="#FFC500"/>
</svg>
