<svg width="250" height="250" viewBox="0 0 250 250" fill="none" xmlns="http://www.w3.org/2000/svg">
<path d="M38.6488 176.087C22.9932 148.086 10.1015 125.023 10.0006 124.836C9.89983 124.649 22.7283 101.435 38.5086 73.2482L67.2001 22H124.593H181.985L210.366 72.7267C225.976 100.626 238.861 123.749 238.999 124.11C239.142 124.486 227.052 146.573 210.719 175.769L182.189 226.77L124.651 226.885L67.1135 227L38.6488 176.088V176.087ZM171.767 185.323C176.089 183.615 179.501 180.18 181.142 175.885C181.811 174.135 181.898 169.626 182.009 130.666L182.132 87.3917L170.37 75.2407L158.609 63.0898H119.109C79.8128 63.0898 79.5968 63.0897 77.0301 64.0587C73.9273 65.2244 70.4713 68.3183 68.9873 71.2587C66.9838 75.2283 66.9389 76.5303 67.0777 126.53L67.2092 173.941L68.6279 176.948C70.9472 181.863 74.9561 185.044 79.9052 185.897C81.0846 186.101 101.781 186.234 125.896 186.196C166.694 186.13 169.884 186.068 171.767 185.324L171.767 185.323ZM80.0263 177.272C78.5592 176.684 76.9774 175.18 76.0484 173.489C75.3725 172.259 75.2914 167.987 75.1653 126.982C75.0891 102.147 75.1555 80.5655 75.3118 79.0221C75.6424 75.7709 76.8084 73.7387 79.1282 72.3706C80.6799 71.4552 81.1873 71.443 117.577 71.443H154.453L154.574 81.4895L154.695 91.536H164.355H174.015L174.013 131.158C174.011 155.768 173.842 171.386 173.567 172.38C173.065 174.196 170.81 176.587 168.927 177.3C167.231 177.942 81.6323 177.915 80.0262 177.267L80.0263 177.272ZM115.864 165.293C118.021 164.394 120.359 161.713 121.468 158.869C122.833 155.368 123.215 143.756 122.111 139.362C120.627 133.462 117.415 130.819 111.727 130.819C106.708 130.819 104.303 131.941 102.01 135.348C100.123 138.153 99.2864 142.409 99.3066 149.107C99.3399 160.183 101.869 164.972 108.236 166.01C110.762 166.421 113.855 166.131 115.864 165.293ZM108.781 160.43C108.149 160.072 107.385 159.238 107.084 158.575C105.413 154.892 105.319 142.898 106.934 139.242C108.017 136.789 108.996 136.033 111.087 136.033C114.885 136.033 116.23 139.357 116.192 148.655C116.166 154.991 115.639 157.694 114.076 159.5C112.858 160.908 110.392 161.341 108.781 160.43ZM148.832 163.104V160.621H145.684H142.536V145.994C142.536 129.667 142.787 130.819 139.235 130.819C137.67 130.819 136.622 131.313 132.952 133.777L128.547 136.735L128.683 138.857C128.847 141.414 129.294 141.442 133.204 139.143L135.79 137.622V149.122V160.622H132.465C128.927 160.622 128.595 160.835 128.595 163.105C128.595 165.651 128.331 165.589 138.986 165.589H148.832V163.105L148.832 163.104ZM143.226 117.313C146.943 115.662 148.993 111.721 149.789 104.697C150.298 100.203 149.876 93.7006 148.845 90.1308C147.495 85.4593 143.859 82.9508 138.459 82.9669C132.854 82.9998 129.761 85.1342 127.646 90.4833C126.704 92.8646 126.603 93.8507 126.588 100.793C126.568 109.175 127.111 111.957 129.333 114.904C132.002 118.442 138.245 119.525 143.226 117.313ZM135.419 112.078C133.592 110.534 132.983 107.669 132.983 100.605C132.983 91.3904 134.4 88.1314 138.355 88.2438C140.273 88.2996 141.916 89.7498 142.556 91.9542C143.362 94.7294 143.607 103.201 142.988 106.879C142.515 109.689 142.173 110.504 140.949 111.733C139.124 113.565 137.313 113.678 135.419 112.078ZM121.76 115.355L121.624 112.984L118.589 112.849L115.553 112.715V98.1106V83.5069L113.941 83.2047C111.44 82.7337 109.814 83.3131 105.555 86.1879L101.612 88.8494V91.0955C101.612 92.4124 101.814 93.3416 102.101 93.3416C102.37 93.3416 103.857 92.6304 105.405 91.7613C106.953 90.8922 108.352 90.1807 108.513 90.1807C108.675 90.1807 108.807 95.252 108.807 101.45V112.719L105.322 112.851L101.837 112.982L101.695 114.723C101.438 117.855 100.989 117.723 111.965 117.723H121.896L121.76 115.353L121.76 115.355Z" fill="#0078D7"/>
</svg>
