<svg width="250" height="250" viewBox="0 0 250 250" fill="none" xmlns="http://www.w3.org/2000/svg">
<path fill-rule="evenodd" clip-rule="evenodd" d="M95.0893 31.173C62.8142 41.3487 35.6815 70.9016 28.8151 103.358C26.4197 114.678 26.3903 136.674 28.7562 147.119C35.2736 175.887 54.6625 200.336 81.3123 213.388C87.8912 216.61 95.2043 219.103 99.5925 219.619C106.257 220.404 107.212 220.174 110.359 217.02C114.431 212.942 114.894 207.029 111.473 202.811C110.185 201.224 104.164 197.89 98.0905 195.402C67.4243 182.841 49.6163 157.003 49.6163 125.074C49.6163 92.4561 69.7822 64.8003 101.552 53.8515C108.135 51.5819 109.235 51.523 111.932 53.2928C118.108 57.347 117.051 65.1995 110.097 66.9426C92.175 71.4362 77.2626 84.4696 68.7604 103.074C65.5987 109.994 65.1841 112.548 65.1841 125.131C65.1841 138.728 65.4008 139.819 70.0591 149.645C75.9906 162.157 86.5163 173.255 97.0192 178.072C103.202 180.907 104.827 181.181 107.41 179.818C111.508 177.656 112.432 176.043 112.456 171.002C112.477 166.585 112.156 166.242 99.2073 156.793C95.9546 154.42 91.4702 149.5 89.2407 145.86C85.7366 140.136 85.1147 137.666 84.6319 127.568C84.1397 117.247 84.462 115.064 87.4084 108.73C92.2941 98.2306 100.237 90.9957 111.621 86.6749C130.421 79.5419 138.377 66.1454 133.744 49.4276C130.283 36.9421 120.483 29.8225 107.009 30.0034C102.291 30.0663 96.9283 30.5929 95.0893 31.173ZM145.946 35.2138C142.272 38.8942 141.339 43.7522 143.451 48.211C144.714 50.8772 148.599 53.7363 156.612 57.8937C183.181 71.6814 198.072 95.7024 198.072 124.774C198.072 132.969 197.259 140.667 195.916 145.201C188.923 168.8 171.643 187.384 148.702 195.979C140.989 198.867 140.407 198.907 137.149 196.769C132.548 193.749 132.963 186.824 137.887 184.434C139.726 183.54 144.842 181.122 149.256 179.058C159.343 174.342 173.109 160.784 177.429 151.31C189.457 124.932 180.636 90.8751 158.104 76.6975C150.847 72.1302 145.61 71.7243 141.9 75.4408C137.684 79.6638 138.481 84.5674 144.163 89.3612C159.721 102.49 163.764 109.798 163.887 125.013C164.025 142.221 155.669 154.838 138.262 163.707C128.911 168.471 125.357 171.694 121.839 178.602C115.673 190.711 120.431 207.375 132.186 214.843C137.481 218.207 139.748 218.798 147.357 218.798C155.114 218.798 157.699 218.093 166.822 213.494C194.028 199.776 212.707 175.606 219.398 145.459C222.832 129.99 222.86 120.795 219.521 105.465C212.652 73.9389 193.264 49.1891 165.589 36.6192C155.217 31.9072 149.645 31.5079 145.946 35.2138ZM112.201 102.888C97.7869 110.581 94.5463 130.274 105.616 142.907C113.277 151.652 129.721 152.961 138.87 145.553C146.198 139.621 148.778 134.441 148.778 125.661C148.778 116.048 145.395 109.431 137.875 104.337C129.772 98.8482 120.725 98.3378 112.201 102.888ZM130.78 118.547C135.889 123.357 134.728 130.509 128.297 133.841C123.574 136.286 120.146 135.396 116.523 130.782C113.089 126.408 113.103 123.599 116.586 119.165C120.091 114.699 126.4 114.426 130.78 118.547Z" fill="#3E8FFA"/>
</svg>
