<svg width="250" height="250" viewBox="0 0 250 250" fill="none" xmlns="http://www.w3.org/2000/svg">
<path d="M190.864 28.2219C207.875 28.2219 221.671 41.9585 221.671 58.9063V190.097C221.671 207.039 207.875 220.778 190.864 220.778H59.1346C42.1204 220.778 28.3242 207.039 28.3242 190.097V58.9063C28.3242 41.9585 42.1201 28.2219 59.1346 28.2219H190.864Z" fill="#FFFC00"/>
<path d="M190.188 157.509C189.618 155.631 186.891 154.307 186.891 154.307C186.634 154.171 186.403 154.05 186.213 153.955C181.668 151.766 177.639 149.132 174.247 146.145C171.52 143.74 169.187 141.092 167.314 138.282C165.022 134.85 163.95 131.985 163.488 130.432C163.231 129.418 163.271 129.013 163.488 128.486C163.665 128.04 164.194 127.621 164.438 127.419C165.971 126.338 168.44 124.743 169.96 123.771C171.276 122.919 172.402 122.19 173.067 121.73C175.197 120.244 176.662 118.731 177.517 117.096C178.629 114.988 178.765 112.664 177.897 110.381C176.73 107.3 173.84 105.463 170.163 105.463C169.349 105.463 168.508 105.557 167.667 105.733C165.564 106.192 163.57 106.935 161.901 107.584C161.873 107.596 161.842 107.602 161.812 107.599C161.782 107.595 161.752 107.584 161.728 107.567C161.703 107.549 161.683 107.525 161.671 107.497C161.658 107.469 161.654 107.438 161.657 107.408C161.833 103.287 162.037 97.7474 161.575 92.4916C161.168 87.7354 160.178 83.7224 158.577 80.223C156.963 76.7102 154.86 74.1158 153.218 72.2378C151.658 70.4543 148.904 67.8196 144.753 65.4551C138.919 62.1313 132.271 60.4423 124.999 60.4423C117.741 60.4423 111.106 62.1313 105.259 65.4551C100.863 67.9547 98.055 70.7786 96.7798 72.2378C95.1381 74.1158 93.0353 76.7102 91.4208 80.223C89.8062 83.7227 88.8295 87.722 88.4225 92.4916C87.9614 97.7745 88.1512 102.868 88.341 107.408C88.341 107.543 88.2189 107.638 88.0833 107.584C86.4146 106.935 84.4202 106.192 82.3174 105.733C81.4898 105.557 80.6487 105.463 79.8211 105.463C76.158 105.463 73.2683 107.3 72.0878 110.381C71.2197 112.664 71.3553 114.988 72.4679 117.096C73.336 118.731 74.7877 120.244 76.9177 121.73C77.569 122.19 78.7085 122.92 80.0246 123.771C81.5033 124.73 83.9047 126.284 85.4514 127.351C85.6412 127.486 86.2925 127.973 86.496 128.486C86.713 129.026 86.7537 129.432 86.469 130.513C85.994 132.08 84.9222 134.918 82.6701 138.282C80.7978 141.106 78.4645 143.74 75.7374 146.146C72.3457 149.132 68.3163 151.766 63.7713 153.955C63.5543 154.063 63.2966 154.185 63.0251 154.347C63.0251 154.347 60.3118 155.725 59.7963 157.509C59.0366 160.143 61.058 162.616 63.1068 163.94C66.4712 166.102 70.5684 167.264 72.9426 167.899C73.6072 168.075 74.2043 168.237 74.747 168.399C75.0861 168.507 75.9409 168.831 76.3073 169.304C76.7683 169.899 76.8228 170.628 76.9856 171.453C77.2433 172.844 77.8267 174.56 79.5496 175.749C81.4491 177.046 83.8505 177.141 86.9031 177.262C90.0912 177.384 94.0527 177.533 98.5977 179.032C100.701 179.722 102.613 180.897 104.812 182.248C109.424 185.072 115.163 188.585 124.958 188.585C134.767 188.585 140.547 185.059 145.187 182.221C147.384 180.884 149.27 179.722 151.333 179.046C155.877 177.546 159.839 177.397 163.027 177.276C166.08 177.154 168.481 177.073 170.38 175.763C172.225 174.493 172.755 172.601 172.999 171.182C173.134 170.48 173.216 169.845 173.623 169.331C173.976 168.885 174.762 168.575 175.129 168.453C175.685 168.277 176.309 168.115 177.001 167.926C179.375 167.291 182.36 166.548 185.982 164.508C190.351 162.035 190.649 159.008 190.188 157.509Z" fill="white"/>
<path d="M193.962 156.05C192.998 153.428 191.153 152.037 189.064 150.875C188.67 150.645 188.304 150.456 188.006 150.321C187.382 149.996 186.744 149.686 186.106 149.361C179.581 145.916 174.479 141.565 170.952 136.417C169.758 134.674 168.93 133.107 168.347 131.824C168.049 130.959 168.062 130.472 168.279 130.026C168.442 129.689 168.876 129.337 169.12 129.162C170.137 128.491 171.159 127.829 172.186 127.176C173.584 126.27 174.697 125.554 175.402 125.068C178.088 123.203 179.96 121.217 181.127 119.001C182.782 115.88 182.986 112.313 181.711 108.962C179.947 104.314 175.524 101.423 170.179 101.423C169.066 101.423 167.94 101.544 166.828 101.787C166.529 101.855 166.244 101.923 165.96 101.99C166.013 98.8283 165.932 95.4505 165.647 92.1536C164.643 80.5336 160.56 74.4401 156.3 69.5894C154.522 67.5627 151.429 64.6037 146.789 61.9554C140.318 58.2533 132.992 56.3887 125.001 56.3887C117.037 56.3887 109.711 58.2533 103.239 61.9422C98.5722 64.5903 95.4789 67.5627 93.7153 69.576C89.4553 74.4267 85.3717 80.5202 84.3675 92.1401C84.083 95.4371 84.0148 98.8146 84.0555 101.977C83.7708 101.909 83.4722 101.841 83.1875 101.774C82.0867 101.533 80.9632 101.411 79.8363 101.409C74.4909 101.409 70.0681 104.301 68.3045 108.948C67.0293 112.299 67.2326 115.866 68.8879 118.987C70.0546 121.203 71.9404 123.19 74.613 125.054C75.332 125.554 76.4311 126.27 77.8284 127.162C78.5881 127.648 79.6872 128.364 80.7725 129.08C80.9353 129.189 81.5187 129.621 81.722 130.026C81.9528 130.486 81.9528 130.986 81.6136 131.904C81.0437 133.161 80.2161 134.701 79.0493 136.404C75.5898 141.444 70.638 145.713 64.3292 149.118C60.9782 150.888 57.5052 152.064 56.04 156.036C54.9274 159.036 55.6599 162.454 58.4684 165.332C59.3909 166.318 60.5577 167.196 62.0229 168.007C65.469 169.899 68.3994 170.831 70.7057 171.466C71.1128 171.588 72.049 171.885 72.4558 172.25C73.487 173.141 73.3377 174.493 74.7079 176.465C75.5356 177.695 76.4853 178.533 77.2722 179.073C80.1347 181.046 83.3635 181.167 86.7827 181.302C89.8624 181.424 93.3627 181.559 97.3512 182.87C99.0065 183.41 100.729 184.464 102.71 185.68C107.486 188.612 114.039 192.612 124.987 192.612C135.949 192.612 142.529 188.585 147.345 185.653C149.326 184.45 151.036 183.397 152.637 182.87C156.625 181.559 160.126 181.424 163.205 181.302C166.624 181.167 169.839 181.046 172.716 179.073C173.914 178.241 174.914 177.157 175.646 175.898C176.623 174.236 176.609 173.06 177.532 172.263C177.912 171.939 178.739 171.655 179.187 171.52C181.507 170.885 184.478 169.953 187.992 168.02C189.552 167.169 190.76 166.237 191.723 165.17L191.764 165.129C194.382 162.292 195.047 158.981 193.962 156.05ZM184.234 161.251C178.292 164.521 174.344 164.17 171.278 166.129C168.673 167.804 170.206 171.412 168.32 172.709C165.986 174.317 159.108 172.601 150.222 175.519C142.895 177.938 138.215 184.87 125.014 184.87C111.786 184.87 107.241 177.965 99.8069 175.519C90.9205 172.601 84.0286 174.317 81.7085 172.709C79.8228 171.412 81.3559 167.805 78.7512 166.129C75.6849 164.156 71.7368 164.508 65.7946 161.251C62.0094 159.171 64.1529 157.887 65.4145 157.279C86.9317 146.916 90.3506 130.891 90.5135 129.689C90.7035 128.256 90.907 127.121 89.3197 125.649C87.7866 124.23 80.9626 120.028 79.0766 118.717C75.9426 116.542 74.5723 114.366 75.5898 111.691C76.2953 109.84 78.0319 109.151 79.8635 109.151C80.4334 109.151 81.0168 109.219 81.5727 109.34C85.0053 110.083 88.3428 111.8 90.2692 112.259C90.5407 112.326 90.7712 112.353 90.9747 112.353C92.0059 112.353 92.3585 111.84 92.2908 110.664C92.0738 106.922 91.5311 99.6257 92.128 92.8022C92.9421 83.4252 95.9809 78.7772 99.5898 74.6562C101.326 72.6837 109.467 64.1172 125.028 64.1172C140.63 64.1172 148.729 72.6837 150.466 74.6562C154.075 78.764 157.114 83.4117 157.928 92.8022C158.525 99.6257 158.009 106.922 157.765 110.664C157.684 111.894 158.063 112.353 159.081 112.353C159.284 112.353 159.529 112.327 159.786 112.259C161.713 111.8 165.05 110.083 168.483 109.34C169.044 109.217 169.617 109.153 170.192 109.151C172.024 109.151 173.76 109.854 174.466 111.691C175.483 114.366 174.099 116.542 170.979 118.717C169.093 120.028 162.269 124.23 160.736 125.649C159.149 127.108 159.352 128.243 159.542 129.689C159.691 130.891 163.124 146.916 184.641 157.279C185.862 157.887 188.019 159.171 184.234 161.251Z" fill="black"/>
</svg>
