<svg width="250" height="250" viewBox="0 0 250 250" fill="none" xmlns="http://www.w3.org/2000/svg">
<g clip-path="url(#clip0_2112_5661)">
<path d="M40.7656 58.905V56.4415H50.423V58.905H46.9045V70.8689C46.9045 75.8609 48.5434 78.3569 52.798 78.3569C56.9184 78.3569 58.8351 75.8237 58.8351 70.8689V58.905H55.3906V56.4415H64.8721V58.905H61.9601V71.7521C61.9601 77.4087 58.4786 80.8203 52.798 80.8203C47.011 80.8203 43.7795 77.5528 43.7795 71.7521V58.905H40.7656Z" fill="#AB0635"/>
<path d="M64.1641 78.1059H66.8631V65.7701H64.1641V63.5669H69.6317V66.4673C71.1224 64.1898 72.8631 63.1254 75.2428 63.1254C79.1872 63.1254 80.9233 65.0682 80.9233 69.1445V78.1059H83.6594V80.3044H75.0715V78.1059H78.0576V69.1445C78.0576 66.6114 76.8863 65.3285 74.5391 65.3285C71.7381 65.3285 69.7428 67.3086 69.7428 70.6133V78.1059H72.7613V80.3044H64.1733V78.1059" fill="#AB0635"/>
<path d="M89.5859 56.4415H86.4609V59.7463H89.5859V56.4415Z" fill="#AB0635"/>
<path d="M83.9375 78.106H86.706V65.7702H83.9375V63.567H89.581V78.106H92.2801V80.3045H83.9375V78.106Z" fill="#AB0635"/>
<path d="M90.7891 65.7701V63.5669H93.9789V60.0019L96.8539 58.8724V63.5669H101.896V65.7701H96.8539V76.1258C96.8539 77.7712 97.0298 78.3615 98.4187 78.3615C99.8724 78.3615 100.59 77.4831 100.59 75.3868H102.715V75.7168C102.715 78.9425 101.15 80.746 98.4511 80.746C95.3261 80.746 93.9789 79.4956 93.9789 76.6325V65.7701H90.7891Z" fill="#AB0635"/>
<path d="M118.91 75.094C118.169 78.8077 115.507 80.7506 111.1 80.7506C105.988 80.7506 102.938 77.339 102.938 71.938C102.938 66.6904 106.201 63.13 111.169 63.13C116.387 63.13 119.368 66.537 119.368 72.677H105.979C106.086 76.3815 108.076 78.5474 111.197 78.5474C113.97 78.5474 115.78 77.2274 116.206 75.0986H118.91M116.322 70.4646C115.896 67.0901 114.081 65.3332 111.174 65.3332C108.262 65.3332 106.308 67.2063 106.063 70.4646H116.322Z" fill="#AB0635"/>
<path d="M127.573 80.746C122.994 80.746 119.906 77.26 119.906 71.9333C119.906 66.6114 122.994 63.1254 127.647 63.1254C130.309 63.1254 132.221 64.2223 133.647 66.6114V58.6447H130.661V56.4415H136.522V78.1059H139.221V80.3044H133.749V77.1112C132.328 79.5747 130.304 80.746 127.573 80.746ZM128.351 65.5098C125.161 65.5098 122.92 67.9686 122.92 71.9333C122.92 75.9353 125.128 78.3615 128.318 78.3615C131.406 78.3615 133.642 75.9771 133.642 71.8311C133.642 67.9686 131.406 65.5098 128.351 65.5098Z" fill="#AB0635"/>
<path d="M146.921 72.1565H149.514C149.657 76.0097 151.574 78.1757 155.051 78.1757C158.139 78.1757 160.129 76.3397 160.129 74.0668C160.129 72.045 158.676 71.1293 156.083 70.1718L151.287 68.373C148.268 67.2715 146.852 65.5471 146.852 62.6839C146.852 58.7935 149.764 56.0372 154.129 56.0372C156.435 56.0372 158.282 56.8088 159.986 58.5007V56.4416H162.615V64.227H159.986C159.916 60.5969 157.856 58.5053 154.518 58.5053C151.75 58.5053 149.977 60.1879 149.977 62.3167C149.977 63.8598 150.972 64.8499 153.102 65.6214L158.926 67.7502C161.875 68.8518 163.259 70.7296 163.259 73.6997C163.259 77.9944 160.384 80.6391 155.518 80.6391C152.819 80.6391 150.796 79.6816 149.449 77.7713V80.3045H146.926V72.1565" fill="#AB0635"/>
<path d="M162.617 65.7701V63.5669H165.812V60.0019L168.682 58.8724V63.5669H173.728V65.7701H168.682V76.1258C168.682 77.7712 168.858 78.3615 170.247 78.3615C171.701 78.3615 172.413 77.4831 172.413 75.3868H174.543V75.7168C174.543 78.9425 172.983 80.746 170.284 80.746C167.159 80.746 165.812 79.4956 165.812 76.6325V65.7701H162.617Z" fill="#AB0635"/>
<path d="M186.97 77.4459C185.696 79.6769 183.956 80.746 181.47 80.746C177.521 80.746 175.289 78.6915 175.289 75.4937C175.289 71.9659 178.09 70.1671 183.669 70.1671C184.414 70.1671 185.479 70.2043 186.835 70.2415V69.0004C186.835 66.4673 185.622 65.3285 182.821 65.3285C180.437 65.3285 179.266 66.3185 178.988 68.5217H175.928C176.284 64.9985 178.696 63.13 183.067 63.13C187.47 63.13 189.706 65.1101 189.706 69.0051V78.1105H192.405V80.309H186.97V77.4459ZM184.127 72.3749C180.22 72.3749 178.34 73.4067 178.34 75.7586C178.34 77.3018 179.585 78.3662 181.715 78.3662C184.808 78.3662 186.831 76.3443 186.831 72.8583V72.4864C185.692 72.4121 184.771 72.3749 184.127 72.3749Z" fill="#AB0635"/>
<path d="M190.734 65.7701V63.5669H193.924V60.0019L196.799 58.8724V63.5669H201.841V65.7701H196.799V76.1258C196.799 77.7712 196.98 78.3615 198.364 78.3615C199.818 78.3615 200.535 77.4831 200.535 75.3868H202.665V75.7168C202.665 78.9425 201.1 80.746 198.396 80.746C195.276 80.746 193.924 79.4956 193.924 76.6325V65.7701H190.734Z" fill="#AB0635"/>
<path d="M218.844 75.094C218.103 78.8077 215.441 80.7506 211.034 80.7506C205.923 80.7506 202.867 77.339 202.867 71.938C202.867 66.6904 206.136 63.13 211.099 63.13C216.326 63.13 219.302 66.537 219.302 72.677H205.918C206.015 76.3815 208.006 78.5474 211.136 78.5474C213.904 78.5474 215.71 77.2274 216.14 75.0986H218.844M216.256 70.4646C215.83 67.0901 214.02 65.3285 211.108 65.3285C208.196 65.3285 206.242 67.2017 205.997 70.4599H216.256V70.4646Z" fill="#AB0635"/>
<path d="M220.447 74.5409H222.757C223.183 77.0369 224.85 78.3569 227.336 78.3569C229.748 78.3569 231.206 77.1809 231.206 75.5681C231.206 74.169 230.28 73.5416 228.039 73.2162L225.025 72.77C222.183 72.3284 220.66 70.7528 220.66 68.3683C220.66 65.3239 223.072 63.1207 226.836 63.1207C229.039 63.1207 230.637 63.8505 231.701 65.4308V63.5669H233.762V69.1027H231.766C231.595 66.7555 229.817 65.5098 227.437 65.5098C224.919 65.5098 223.53 66.3883 223.53 68.043C223.53 69.1817 224.238 69.8789 225.729 70.102L228.572 70.5018C232.331 71.0549 234.076 72.4865 234.076 75.4937C234.076 78.5382 231.762 80.746 227.933 80.746C225.627 80.746 223.919 79.9 222.637 78.171V80.2998H220.438V74.5409" fill="#AB0635"/>
<path d="M32.1481 108.197L41.5648 111.785C40.1111 118.339 37.6806 123.127 34.3009 126.157C30.912 129.183 26.7454 130.693 21.7963 130.693C15.5741 130.693 10.5324 128.286 6.66667 123.48C2.22222 117.925 0 110.433 0 100.997C0 91.0367 2.23611 83.2373 6.71296 77.604C10.6019 72.7143 15.8287 70.2694 22.3981 70.2694C27.7454 70.2694 32.2176 72.1054 35.8194 75.7634C38.3843 78.3616 40.2639 82.2194 41.4583 87.3369L32.0417 90.1582C31.4259 87.0022 30.213 84.5853 28.3935 82.9027C26.5741 81.2201 24.4259 80.3788 21.9583 80.3788C18.4167 80.3788 15.537 81.9173 13.3056 84.9943C11.0741 88.0713 9.95833 93.1562 9.95833 100.24C9.95833 107.588 11.0324 112.822 13.1898 115.922C15.3519 119.032 18.1528 120.579 21.6019 120.579C24.1296 120.579 26.3102 119.594 28.1574 117.614C30 115.639 31.3333 112.501 32.1481 108.197Z" fill="#AB0635"/>
<path d="M67.612 117.763L77.5657 119.389C76.2925 123.075 74.2648 125.878 71.5009 127.807C68.737 129.736 65.2833 130.693 61.1351 130.693C54.5703 130.693 49.7092 128.537 46.5564 124.223C44.0657 120.77 42.8203 116.41 42.8203 111.149C42.8203 104.855 44.4546 99.9376 47.7277 96.3679C51.0009 92.8075 55.1444 91.032 60.149 91.032C65.7694 91.032 70.1999 92.8912 73.4499 96.6235C76.6999 100.347 78.2555 106.05 78.112 113.742H53.1074C53.1814 116.731 53.9823 119.05 55.5194 120.71C57.0564 122.364 58.9731 123.201 61.2648 123.201C62.8249 123.201 64.1305 122.769 65.1999 121.913C66.2694 121.058 67.0657 119.668 67.612 117.763ZM68.1536 107.653C68.0842 104.739 67.3388 102.527 65.9268 101.011C64.5055 99.496 62.7879 98.7384 60.7601 98.7384C58.5888 98.7384 56.7925 99.5425 55.3805 101.141C53.9638 102.74 53.2648 104.911 53.2879 107.653H68.1536Z" fill="#AB0635"/>
<path d="M117.571 129.713H107.613V110.442C107.613 106.366 107.4 103.726 106.974 102.531C106.543 101.332 105.858 100.402 104.9 99.7377C103.942 99.073 102.789 98.7384 101.442 98.7384C99.7193 98.7384 98.1684 99.2171 96.798 100.165C95.4277 101.114 94.4878 102.368 93.9786 103.935C93.474 105.501 93.2193 108.392 93.2193 112.608V129.713H83.2656V91.7896H92.5712V97.344C95.849 93.1375 99.974 91.0273 104.951 91.0273C107.141 91.0273 109.145 91.4271 110.965 92.2219C112.78 93.0167 114.15 94.0346 115.09 95.2663C116.016 96.5027 116.668 97.8971 117.034 99.4681C117.4 101.035 117.58 103.275 117.58 106.198V129.713" fill="#AB0635"/>
<path d="M121.5 119.064L131.565 117.549C131.986 119.464 132.843 120.928 134.134 121.918C135.426 122.908 137.222 123.41 139.546 123.41C142.102 123.41 144.028 122.927 145.31 121.969C146.181 121.3 146.611 120.403 146.611 119.283C146.611 118.516 146.375 117.874 145.903 117.377C145.407 116.894 144.292 116.457 142.565 116.048C134.523 114.253 129.421 112.622 127.269 111.149C124.282 109.108 122.796 106.264 122.796 102.638C122.796 99.3612 124.083 96.6003 126.671 94.3739C129.25 92.1429 133.255 91.0273 138.681 91.0273C143.843 91.0273 147.681 91.8593 150.194 93.528C152.704 95.1873 154.431 97.6554 155.38 100.918L145.963 102.657C145.56 101.183 144.796 100.049 143.676 99.2683C142.551 98.4827 140.954 98.0923 138.875 98.0923C136.255 98.0923 134.37 98.4642 133.241 99.2032C132.486 99.7331 132.106 100.412 132.106 101.244C132.106 101.964 132.44 102.578 133.102 103.084C134 103.754 137.111 104.697 142.421 105.92C147.736 107.142 151.449 108.639 153.556 110.41C155.634 112.204 156.676 114.704 156.676 117.907C156.676 121.407 155.236 124.405 152.352 126.919C149.468 129.429 145.199 130.689 139.546 130.689C134.421 130.689 130.356 129.643 127.361 127.561C124.375 125.478 122.421 122.643 121.5 119.064Z" fill="#AB0635"/>
<path d="M187.473 129.713V124.047C186.103 126.069 184.293 127.677 182.061 128.885C179.825 130.089 177.469 130.693 174.987 130.693C172.459 130.693 170.186 130.136 168.177 129.016C166.163 127.891 164.714 126.315 163.816 124.279C162.922 122.248 162.469 119.445 162.469 115.862V91.7897H172.427V109.243C172.427 114.579 172.608 117.856 172.978 119.055C173.348 120.263 174.02 121.221 174.992 121.918C175.969 122.62 177.209 122.978 178.696 122.978C180.409 122.978 181.941 122.504 183.293 121.56C184.649 120.617 185.575 119.45 186.08 118.056C186.571 116.661 186.83 113.245 186.83 107.807V91.7897H196.784V129.708H187.473" fill="#AB0635"/>
<path d="M200.711 119.064L210.78 117.549C211.206 119.464 212.054 120.928 213.35 121.918C214.637 122.913 216.438 123.41 218.762 123.41C221.317 123.41 223.239 122.927 224.526 121.969C225.396 121.3 225.827 120.403 225.827 119.283C225.827 118.516 225.586 117.874 225.118 117.377C224.618 116.894 223.512 116.457 221.78 116.048C213.739 114.253 208.637 112.622 206.479 111.149C203.498 109.108 202.007 106.264 202.007 102.638C202.007 99.3612 203.299 96.6003 205.882 94.3739C208.47 92.1429 212.466 91.0273 217.896 91.0273C223.054 91.0273 226.891 91.8593 229.405 93.528C231.915 95.1873 233.641 97.6554 234.591 100.918L225.174 102.657C224.771 101.183 224.007 100.049 222.887 99.2683C221.766 98.4874 220.165 98.0923 218.091 98.0923C215.47 98.0923 213.586 98.4642 212.452 99.2032C211.697 99.7331 211.317 100.412 211.317 101.244C211.317 101.964 211.651 102.578 212.317 103.084C213.211 103.754 216.322 104.697 221.641 105.92C226.952 107.142 230.665 108.639 232.771 110.41C234.845 112.204 235.896 114.704 235.896 117.907C235.896 121.407 234.452 124.405 231.563 126.919C228.679 129.429 224.415 130.689 218.762 130.689C213.632 130.689 209.567 129.643 206.581 127.561C203.591 125.478 201.632 122.643 200.711 119.064Z" fill="#AB0635"/>
<path d="M83.7459 181.445V191.871H44.6719C45.0932 187.934 46.3524 184.206 48.4635 180.683C50.5747 177.155 54.7413 172.479 60.9682 166.65C65.9821 161.942 69.0561 158.749 70.1904 157.071C71.7182 154.756 72.4821 152.469 72.4821 150.201C72.4821 147.705 71.8108 145.781 70.4774 144.438C69.1395 143.099 67.2922 142.42 64.945 142.42C62.6117 142.42 60.7598 143.127 59.3848 144.535C58.0098 145.944 57.2182 148.282 57.0052 151.549L45.8571 150.434C46.5191 144.252 48.6024 139.813 52.1024 137.117C55.6071 134.426 59.9821 133.078 65.2367 133.078C70.9959 133.078 75.5191 134.64 78.8108 137.754C82.1024 140.868 83.7413 144.74 83.7413 149.374C83.7413 152.009 83.2691 154.519 82.3339 156.899C81.3987 159.283 79.9126 161.779 77.8756 164.382C76.533 166.116 74.0932 168.603 70.5608 171.852C67.0237 175.101 64.7969 177.257 63.8571 178.322C62.9219 179.386 62.1626 180.422 61.5839 181.44H83.7459" fill="#AB0635"/>
<path d="M104.266 133.083C109.932 133.083 114.363 135.114 117.553 139.167C121.358 143.964 123.261 151.926 123.261 163.048C123.261 174.143 121.344 182.114 117.511 186.967C114.344 190.969 109.928 192.967 104.266 192.967C98.5712 192.967 93.9786 190.774 90.4925 186.386C87.0064 182.003 85.2656 174.18 85.2656 162.927C85.2656 151.888 87.1823 143.94 91.011 139.088C94.1823 135.086 98.599 133.083 104.266 133.083ZM104.266 142.43C102.923 142.43 101.719 142.862 100.668 143.731C99.6082 144.596 98.798 146.143 98.2147 148.384C97.4508 151.284 97.0712 156.174 97.0712 163.044C97.0712 169.913 97.4091 174.631 98.1036 177.206C98.7841 179.776 99.6499 181.487 100.692 182.337C101.733 183.197 102.928 183.616 104.27 183.616C105.617 183.616 106.817 183.183 107.867 182.319C108.923 181.454 109.738 179.902 110.321 177.666C111.085 174.789 111.465 169.918 111.465 163.044C111.465 156.169 111.122 151.451 110.432 148.876C109.752 146.306 108.881 144.591 107.84 143.731C106.803 142.862 105.613 142.43 104.266 142.43Z" fill="#AB0635"/>
<path d="M153.362 191.875H142.214V149.55C138.14 153.399 133.339 156.234 127.82 158.084V147.868C130.728 146.91 133.89 145.102 137.302 142.43C140.705 139.762 143.052 136.648 144.32 133.087H153.367V191.875" fill="#AB0635"/>
<path d="M179.011 133.083C184.678 133.083 189.108 135.114 192.303 139.167C196.104 143.964 198.011 151.926 198.011 163.048C198.011 174.143 196.09 182.114 192.261 186.967C189.09 190.969 184.673 192.967 179.011 192.967C173.321 192.967 168.729 190.774 165.242 186.386C161.756 182.003 160.016 174.18 160.016 162.927C160.016 151.888 161.923 143.94 165.756 139.088C168.928 135.086 173.344 133.083 179.011 133.083ZM179.011 142.43C177.664 142.43 176.465 142.862 175.414 143.731C174.358 144.596 173.543 146.143 172.965 148.384C172.201 151.284 171.817 156.174 171.817 163.044C171.817 169.913 172.155 174.631 172.844 177.206C173.53 179.776 174.395 181.487 175.437 182.337C176.483 183.197 177.668 183.616 179.016 183.616C180.363 183.616 181.562 183.183 182.617 182.319C183.668 181.454 184.483 179.902 185.062 177.666C185.826 174.789 186.21 169.918 186.21 163.044C186.21 156.169 185.867 151.451 185.182 148.881C184.497 146.311 183.631 144.596 182.59 143.736C181.548 142.862 180.358 142.43 179.011 142.43Z" fill="#AB0635"/>
<path d="M240.71 69.7303V64.241H238.664V63.5066H243.576V64.241H241.534V69.7303H240.71Z" fill="#AB0635"/>
<path d="M244.086 69.7302V63.5065H245.308L246.785 67.9081C246.919 68.3218 247.026 68.6286 247.081 68.8331C247.151 68.6053 247.266 68.2707 247.419 67.8338L248.915 63.5018H249.998V69.7255H249.216V64.5197L247.391 69.7255H246.669L244.864 64.4221V69.7255H244.086" fill="#AB0635"/>
</g>
<defs>
<clipPath id="clip0_2112_5661">
<rect width="250" height="137" fill="white" transform="translate(0 56)"/>
</clipPath>
</defs>
</svg>
