<svg width="250" height="250" viewBox="0 0 250 250" fill="none" xmlns="http://www.w3.org/2000/svg">
<path d="M161.849 136.485C156.663 136.485 154.02 132.133 154.02 126.744C154.02 121.355 156.663 117.313 161.849 117.313C167.136 117.313 169.677 121.665 169.677 126.744C169.677 132.236 167.034 136.485 161.849 136.485ZM111.113 117.313C114.163 117.313 115.383 119.075 115.383 120.629C115.383 124.464 111.621 126.018 103.691 126.329C103.793 121.665 106.334 117.313 111.113 117.313ZM77.459 136.485C72.5786 136.485 70.5451 132.444 70.5451 126.744C70.5451 121.147 72.6803 117.313 77.459 117.313C82.441 117.313 84.7795 121.355 84.7795 126.744C84.7795 132.444 82.3393 136.485 77.459 136.485ZM35.9759 111.716H28.3503L41.0596 141.46C38.6194 146.953 37.2977 148.3 35.6709 148.3C33.9424 148.3 32.214 146.849 30.9939 145.605L27.6386 150.165C29.9771 152.653 33.0274 154 36.2809 154C40.3479 154 43.3981 151.616 45.1266 147.367L59.7677 111.716H52.2438L44.6182 132.962L35.9759 111.716ZM238.918 117.313C242.679 117.313 243.391 119.904 243.391 126.018V142.082H250V121.769C250 114.515 245.12 111.302 240.544 111.302C236.477 111.302 232.817 113.893 230.784 118.556C229.665 113.996 225.903 111.302 221.531 111.302C217.769 111.302 214.007 113.789 211.872 118.349V111.716H205.263V141.978H211.872V129.024C211.872 122.495 215.227 117.209 219.803 117.209C223.565 117.209 224.276 119.8 224.276 125.915V141.978H230.885V129.024C230.987 122.495 234.342 117.313 238.918 117.313ZM185.844 111.716H182.692V141.978H189.301V130.371C189.301 123.013 192.452 118.038 197.231 118.038C198.451 118.038 199.468 118.038 200.586 118.556L201.603 111.405C200.79 111.302 199.976 111.198 199.265 111.198C194.588 111.198 191.232 114.411 189.301 118.66V111.613L185.844 111.716ZM161.849 111.302C153.105 111.302 147.106 118.142 147.106 126.744C147.106 135.656 153.105 142.393 161.849 142.393C170.694 142.393 176.693 135.553 176.693 126.744C176.693 118.038 170.592 111.302 161.849 111.302ZM111.52 136.485C108.063 136.485 105.521 134.724 104.403 131.096C113.147 130.682 121.789 128.505 121.789 120.629C121.789 116.069 117.417 111.405 111.113 111.405C102.572 111.405 96.8787 118.453 96.8787 126.847C96.8787 135.553 102.572 142.496 111.011 142.496C116.909 142.496 120.67 140.113 123.619 136.589L120.365 132.133C116.909 135.553 114.773 136.485 111.52 136.485ZM78.7807 111.302C75.4255 111.302 72.0702 113.271 70.7485 116.38V111.716H64.1397V153.793H70.7485V138.765C72.1719 140.942 75.3238 142.393 78.2724 142.393C87.118 142.393 91.795 135.76 91.795 126.744C91.6933 117.831 87.118 111.302 78.7807 111.302ZM32.3156 99.6945H1V106.224H13.2009V141.978H20.1147V106.224H32.214L32.3156 99.6945ZM130.94 111.716H126.974V117.727H130.94V141.875H137.548V117.831H143.954V111.82H137.548V107.053C137.548 104.047 138.768 103.011 141.514 103.011C142.53 103.011 143.445 103.322 144.767 103.736L146.292 98.0364C145.072 97.3109 142.632 97 141.107 97C134.803 97 131.041 100.835 131.041 107.571L130.94 111.716Z" fill="#131313"/>
</svg>
