<svg width="250" height="250" viewBox="0 0 250 250" fill="none" xmlns="http://www.w3.org/2000/svg">
<g clip-path="url(#clip0_2112_5399)">
<path fill-rule="evenodd" clip-rule="evenodd" d="M112.718 29.6481C83.786 36.0311 67.659 56.0745 69.2886 83.625C70.3921 102.287 78.2099 115.632 94.3998 126.49C100.778 130.767 107.616 134.207 122.468 140.61C139.4 147.908 144.679 150.849 149.468 155.651C153.757 159.952 155.241 163.456 155.266 169.344C155.343 187.206 139.967 195.837 118.062 190.229C107.659 187.566 96.0544 181.859 86.0756 174.5C84.4676 173.314 83.0963 172.379 83.0286 172.423C82.7723 172.588 66.8896 201.373 66.9769 201.514C67.1617 201.813 72.122 205.067 75.3116 206.982C85.7804 213.267 94.6763 217.063 105.093 219.69C110.533 221.063 109.479 221 127.106 221H142.995L145.754 220.417C174.311 214.387 189.225 195.864 189.217 166.438C189.211 147.603 182.173 134.295 166.196 122.907C160.179 118.618 152.283 114.388 138.406 108.02C120.182 99.6565 113.067 94.8911 109.044 88.354C104.068 80.2689 105.856 69.1223 113.046 63.3935C125.061 53.8213 148.233 59.2972 170.09 76.8738C170.809 77.4527 171.451 77.8655 171.517 77.7911C171.705 77.577 186.687 48.729 186.687 48.5807C186.687 48.4103 186.589 48.3364 183.124 45.8956C171.58 37.7629 160.822 32.6533 149.316 29.8377L145.906 29.0034L130.718 29.0154L115.53 29.0274L112.718 29.6481Z" fill="#FBFBFB"/>
<path fill-rule="evenodd" clip-rule="evenodd" d="M149.095 29.6514C161.065 32.5112 176.351 40.112 186.848 48.4232C186.884 48.4515 183.583 54.872 179.513 62.6907C175.442 70.5094 171.973 77.18 171.802 77.5141L171.493 78.1218L169.294 76.3741C139.666 52.8234 108.337 53.0888 106.346 76.9069C105.353 88.7797 112.984 96.2283 137.845 107.654C154.643 115.375 163.013 120.068 170.001 125.684C185.441 138.092 191.584 154.536 188.834 176.094C185.813 199.772 170.853 215.222 145.813 220.52L143.657 220.976L182.329 220.988L221.001 221V125V29L183.735 29.012L146.47 29.024L149.095 29.6514Z" fill="#343C3C"/>
<path fill-rule="evenodd" clip-rule="evenodd" d="M29 125V221L69.9219 220.983L110.844 220.966L108.781 220.541C99.537 218.636 90.1707 215.183 81.3123 210.415C76.6026 207.88 67.3683 202.147 66.9776 201.514C66.8739 201.347 82.9323 172.33 83.107 172.369C83.1694 172.382 84.5206 173.353 86.1099 174.525C120.131 199.615 155.385 196.974 155.267 169.344C155.241 163.456 153.758 159.952 149.469 155.651C144.68 150.849 139.4 147.908 122.469 140.61C107.616 134.207 100.778 130.767 94.4005 126.49C78.2106 115.632 70.3928 102.287 69.2893 83.625C67.6597 56.0744 83.7867 36.031 112.719 29.648L115.531 29.0274L72.2658 29.0139L29 29V125Z" fill="#34D4AC"/>
<path fill-rule="evenodd" clip-rule="evenodd" d="M111.501 64.7187C111.046 65.1829 110.716 65.5626 110.767 65.5626C110.819 65.5626 111.234 65.1829 111.689 64.7187C112.144 64.2546 112.475 63.8749 112.423 63.8749C112.372 63.8749 111.957 64.2546 111.501 64.7187Z" fill="#9C9CA0"/>
<path fill-rule="evenodd" clip-rule="evenodd" d="M112.625 92.8438C113.185 93.4107 113.685 93.8748 113.737 93.8748C113.788 93.8748 113.372 93.4107 112.812 92.8438C112.252 92.2764 111.751 91.8123 111.7 91.8123C111.648 91.8123 112.064 92.2764 112.625 92.8438ZM173.562 128.802C173.562 128.83 174.216 129.484 175.015 130.255L176.468 131.656L175.067 130.203C173.765 128.853 173.562 128.664 173.562 128.802ZM189.37 164.844C189.371 165.462 189.406 165.693 189.448 165.356C189.489 165.019 189.489 164.513 189.446 164.231C189.403 163.949 189.369 164.225 189.37 164.844ZM189.375 167.937C189.375 168.711 189.408 169.027 189.449 168.641C189.489 168.254 189.489 167.621 189.449 167.234C189.408 166.848 189.375 167.164 189.375 167.937Z" fill="#8A8E92"/>
</g>
<defs>
<clipPath id="clip0_2112_5399">
<rect width="192" height="192" fill="white" transform="translate(29 29)"/>
</clipPath>
</defs>
</svg>
