<svg width="250" height="250" viewBox="0 0 250 250" fill="none" xmlns="http://www.w3.org/2000/svg">
<path d="M8.23303 125.966V125.824C8.23303 111.674 18.869 100.084 34.0022 100.084C40.2105 99.8824 46.2873 101.875 51.1341 105.701C51.6712 106.115 52.1049 106.643 52.4019 107.247C52.6989 107.852 52.8512 108.515 52.8472 109.186C52.838 109.982 52.6057 110.759 52.1758 111.433C51.7458 112.107 51.1351 112.65 50.4112 113.004C49.6872 113.357 48.8781 113.506 48.0735 113.434C47.2688 113.363 46.4999 113.074 45.8517 112.599C42.5664 109.722 38.3263 108.129 33.9307 108.119C24.4369 108.119 17.4413 115.941 17.4413 125.682V125.824C17.4413 135.565 24.3656 143.458 33.9307 143.458C38.5657 143.533 43.0476 141.824 46.4228 138.694C47.1493 138.055 48.0894 137.7 49.0639 137.699C50.1529 137.714 51.1935 138.145 51.966 138.901C52.7385 139.657 53.1824 140.679 53.2041 141.752C53.2018 142.342 53.0734 142.926 52.8275 143.465C52.5816 144.004 52.2235 144.486 51.7765 144.88C46.8674 149.381 40.3484 151.785 33.6452 151.564C19.0831 151.564 8.23303 140.258 8.23303 125.966Z" fill="#388AED"/>
<path d="M56.4193 139.903V139.761C56.4193 131.655 62.7722 127.673 71.9806 127.673C75.4239 127.639 78.8491 128.168 82.1169 129.238V128.313C82.1169 122.98 78.8333 120.136 72.7658 120.136C69.9103 120.099 67.0744 120.606 64.4141 121.629C63.9747 121.764 63.5179 121.836 63.0578 121.842C62.5814 121.846 62.109 121.756 61.6678 121.579C61.2266 121.402 60.8253 121.141 60.487 120.81C60.1487 120.48 59.88 120.087 59.6964 119.654C59.5128 119.221 59.4179 118.757 59.4172 118.287C59.4285 117.554 59.6577 116.84 60.0763 116.233C60.4949 115.627 61.0847 115.154 61.7729 114.874C65.6343 113.37 69.756 112.622 73.908 112.67C79.5472 112.67 83.7587 114.163 86.3999 116.865C89.1838 119.567 90.4687 123.549 90.4687 128.455V146.943C90.4754 147.488 90.3709 148.029 90.1613 148.534C89.9517 149.039 89.6413 149.498 89.2485 149.882C88.8558 150.267 88.3886 150.57 87.8748 150.773C87.3609 150.977 86.8108 151.076 86.2571 151.066C85.7378 151.105 85.2159 151.042 84.7218 150.88C84.2277 150.718 83.7713 150.461 83.3792 150.123C82.9871 149.786 82.6673 149.375 82.4383 148.914C82.2093 148.453 82.0758 147.952 82.0456 147.44V146.018C80.5618 147.796 78.683 149.215 76.5541 150.164C74.4253 151.114 72.1034 151.568 69.7678 151.493C62.7008 151.493 56.4193 147.44 56.4193 139.903ZM82.2597 137.201V134.641C79.5223 133.628 76.6182 133.121 73.6938 133.148C68.126 133.148 64.8423 135.494 64.8423 139.405V139.547C64.8423 143.174 68.0546 145.236 72.1948 145.236C77.9054 145.236 82.2597 141.965 82.2597 137.201Z" fill="#388AED"/>
<path d="M98.4656 102.715C98.458 102.157 98.5633 101.603 98.7753 101.085C98.9873 100.567 99.3017 100.096 99.7003 99.6989C100.099 99.3019 100.574 98.9869 101.097 98.7723C101.62 98.5577 102.182 98.4478 102.749 98.4489C103.319 98.4464 103.885 98.5549 104.413 98.7681C104.941 98.9814 105.421 99.2952 105.825 99.6916C106.23 100.088 106.551 100.559 106.77 101.078C106.989 101.597 107.102 102.153 107.103 102.715V146.8C107.105 147.36 106.994 147.915 106.778 148.432C106.562 148.95 106.244 149.42 105.843 149.817C105.442 150.213 104.965 150.528 104.44 150.742C103.915 150.957 103.353 151.067 102.784 151.067C102.216 151.067 101.653 150.957 101.128 150.742C100.604 150.528 100.127 150.213 99.7257 149.817C99.3245 149.42 99.0067 148.95 98.7905 148.432C98.5742 147.915 98.4638 147.36 98.4656 146.8V102.715Z" fill="#388AED"/>
<path d="M116.027 102.715C116.019 102.157 116.124 101.603 116.336 101.085C116.548 100.567 116.863 100.096 117.261 99.6989C117.66 99.3019 118.135 98.9869 118.658 98.7723C119.181 98.5577 119.743 98.4478 120.31 98.4489C120.88 98.4464 121.446 98.5549 121.974 98.7681C122.502 98.9814 122.982 99.2952 123.386 99.6916C123.791 100.088 124.112 100.559 124.331 101.078C124.55 101.597 124.664 102.153 124.664 102.715V146.8C124.666 147.36 124.555 147.915 124.339 148.432C124.123 148.95 123.805 149.42 123.404 149.817C123.003 150.213 122.526 150.528 122.001 150.742C121.476 150.957 120.914 151.067 120.345 151.067C119.777 151.067 119.214 150.957 118.69 150.742C118.165 150.528 117.688 150.213 117.287 149.817C116.886 149.42 116.568 148.95 116.352 148.432C116.135 147.915 116.025 147.36 116.027 146.8L116.027 102.715Z" fill="#388AED"/>
<path d="M137.585 102.786C137.591 102.302 137.788 101.838 138.134 101.493C138.481 101.148 138.949 100.949 139.441 100.938H158.572C164.711 100.938 169.636 102.858 172.634 105.844C175.073 108.32 176.431 111.638 176.418 115.088V115.23C176.418 123.549 170.207 128.313 161.784 129.451L175.989 147.796C176.324 148.144 176.526 148.597 176.56 149.075C176.541 149.575 176.332 150.049 175.976 150.404C175.619 150.76 175.14 150.971 174.633 150.995C174.297 150.975 173.972 150.873 173.686 150.699C173.4 150.526 173.161 150.285 172.991 150L157.644 130.091H141.297V149.147C141.3 149.388 141.254 149.628 141.162 149.853C141.07 150.077 140.934 150.281 140.761 150.453C140.589 150.625 140.383 150.762 140.157 150.855C139.93 150.948 139.687 150.996 139.441 150.996C139.196 150.996 138.953 150.948 138.726 150.855C138.499 150.762 138.294 150.625 138.121 150.453C137.949 150.281 137.812 150.077 137.72 149.853C137.628 149.628 137.582 149.388 137.585 149.147V102.786ZM158.144 126.748C166.495 126.748 172.706 122.553 172.706 115.372V115.23C172.706 108.546 167.423 104.35 158.358 104.35H141.297V126.748H158.144Z" fill="#388AED"/>
<path d="M181.132 140.187V140.045C181.132 132.508 187.627 128.242 197.05 128.242C201.126 128.202 205.187 128.729 209.114 129.806V128.242C209.114 120.918 204.617 117.149 197.121 117.149C193.528 117.159 189.986 117.987 186.771 119.567C186.528 119.695 186.26 119.768 185.986 119.781C185.553 119.761 185.144 119.582 184.84 119.279C184.535 118.976 184.358 118.571 184.344 118.145C184.348 117.819 184.443 117.5 184.62 117.224C184.796 116.948 185.046 116.725 185.343 116.581C189.087 114.814 193.184 113.891 197.335 113.879C202.261 113.879 206.187 115.23 208.828 117.86C210.116 119.232 211.108 120.847 211.746 122.606C212.384 124.366 212.654 126.235 212.54 128.1V149.218C212.552 149.447 212.517 149.676 212.436 149.891C212.355 150.106 212.231 150.303 212.071 150.469C211.911 150.635 211.718 150.768 211.504 150.858C211.29 150.949 211.059 150.995 210.827 150.995C210.594 150.995 210.363 150.949 210.15 150.858C209.936 150.768 209.743 150.635 209.582 150.469C209.422 150.303 209.298 150.106 209.217 149.891C209.137 149.676 209.101 149.447 209.113 149.218V144.667C207.55 146.857 205.461 148.632 203.032 149.836C200.604 151.039 197.911 151.633 195.194 151.564C188.413 151.564 181.132 147.725 181.132 140.187ZM209.185 137.13V133.006C205.159 131.932 201.007 131.382 196.836 131.37C189.126 131.37 184.843 134.783 184.843 139.832V139.974C184.843 145.236 189.84 148.293 195.408 148.293C202.832 148.293 209.185 143.743 209.185 137.13H209.185Z" fill="#388AED"/>
<path d="M222.321 102.004C222.314 101.724 222.365 101.446 222.47 101.186C222.575 100.925 222.732 100.689 222.932 100.489C223.132 100.29 223.37 100.133 223.633 100.027C223.896 99.9202 224.178 99.8673 224.463 99.8708C224.751 99.8659 225.037 99.9174 225.305 100.022C225.572 100.127 225.816 100.284 226.022 100.482C226.228 100.681 226.392 100.917 226.504 101.179C226.616 101.44 226.674 101.721 226.676 102.004V103.213C226.674 103.497 226.616 103.777 226.504 104.039C226.391 104.3 226.228 104.537 226.022 104.735C225.816 104.934 225.572 105.09 225.305 105.195C225.037 105.3 224.751 105.351 224.463 105.346C224.178 105.35 223.896 105.297 223.633 105.19C223.37 105.084 223.132 104.927 222.932 104.728C222.732 104.529 222.575 104.292 222.47 104.032C222.365 103.771 222.315 103.493 222.321 103.213V102.004ZM222.75 115.941C222.742 115.71 222.782 115.48 222.866 115.265C222.951 115.049 223.079 114.853 223.242 114.687C223.405 114.521 223.6 114.389 223.816 114.299C224.032 114.209 224.264 114.163 224.498 114.163C224.733 114.163 224.965 114.209 225.181 114.299C225.397 114.389 225.592 114.521 225.755 114.687C225.918 114.853 226.046 115.049 226.131 115.265C226.215 115.48 226.255 115.71 226.247 115.941V149.218C226.265 149.448 226.234 149.679 226.155 149.897C226.076 150.114 225.952 150.313 225.791 150.481C225.63 150.648 225.434 150.78 225.218 150.869C225.001 150.958 224.769 151.001 224.534 150.995C224.296 151.002 224.059 150.961 223.838 150.874C223.617 150.787 223.417 150.656 223.249 150.489C223.082 150.322 222.951 150.123 222.865 149.904C222.779 149.686 222.74 149.452 222.75 149.218L222.75 115.941Z" fill="#388AED"/>
<path d="M237.669 100.298C237.657 100.069 237.693 99.84 237.774 99.6251C237.855 99.4102 237.979 99.2137 238.139 99.0475C238.299 98.8813 238.492 98.7489 238.706 98.6582C238.919 98.5675 239.15 98.5205 239.382 98.52C239.619 98.5191 239.853 98.5645 240.071 98.6538C240.289 98.743 240.487 98.8742 240.654 99.0398C240.82 99.2053 240.951 99.4018 241.039 99.6178C241.127 99.8338 241.171 100.065 241.167 100.298V149.218C241.185 149.448 241.153 149.679 241.074 149.897C240.996 150.114 240.872 150.313 240.71 150.481C240.549 150.648 240.354 150.78 240.137 150.869C239.921 150.958 239.688 151.001 239.454 150.995C239.216 151.002 238.979 150.961 238.758 150.874C238.537 150.787 238.336 150.656 238.169 150.489C238.001 150.322 237.87 150.123 237.784 149.904C237.699 149.686 237.659 149.452 237.669 149.218V100.298Z" fill="#388AED"/>
</svg>
