<svg width="250" height="250" viewBox="0 0 250 250" fill="none" xmlns="http://www.w3.org/2000/svg">
<g clip-path="url(#clip0_1789_6905)">
<path d="M11 231L52.5875 112.465L11 85.3825V231ZM142.527 157.688V90.391L11 231L142.527 157.688ZM11 19V75.8028L96.8302 117.606L136.723 85.3825L11 19Z" fill="#13224D"/>
<path d="M149.772 182.077H140.603V209.426H140.221L121.416 182.077H113.332V225.564H122.543V198.193H122.862L141.816 225.564H149.772V182.077Z" fill="#13224D"/>
<path d="M164.891 225.564L168.125 215.648H183.845L187.079 225.564H196.949L181.931 182.077H170.061L155.021 225.564H164.891ZM170.465 208.471L175.826 192.014H176.166L181.527 208.471H170.465Z" fill="#13224D"/>
<path d="M204.682 182.077H194.45L209.489 225.564H221.36L236.378 182.077H226.167L215.616 215.117H215.212L204.682 182.077Z" fill="#13224D"/>
</g>
<defs>
<clipPath id="clip0_1789_6905">
<rect width="226" height="212" fill="white" transform="translate(11 19)"/>
</clipPath>
</defs>
</svg>
