<svg width="250" height="250" viewBox="0 0 250 250" fill="none" xmlns="http://www.w3.org/2000/svg">
<g clip-path="url(#clip0_2112_5467)">
<path d="M152.268 21.45C152.268 21.45 152.269 20.9207 152.27 19.8682C152.271 18.8158 151.842 17.8085 151.083 17.079C150.324 16.3496 149.3 15.961 148.248 16.0031C105.956 18.0936 72.2405 52.0765 70.505 94.362C70.5004 95.2792 70.8733 96.1578 71.5366 96.7911C72.2 97.4249 73.0949 97.7577 74.0113 97.7118H80.4567C82.4464 97.7297 84.1035 96.192 84.2336 94.2075C86.0597 59.3571 113.92 31.5107 148.79 29.6856C151.445 29.3507 152.268 27.8948 152.268 26.1297C152.268 24.3647 152.268 21.45 152.268 21.45ZM96.8418 97.7772C98.437 97.7772 98.968 97.7706 100.927 97.7764C102.885 97.7819 104.517 96.2753 104.665 94.3235C106.358 70.5724 125.327 51.713 149.099 50.145C150.966 50.0142 152.381 48.4054 152.27 46.5376V40.3147C152.247 39.271 151.802 38.281 151.038 37.57C150.273 36.8589 149.253 36.4874 148.21 36.5398C117.5 38.5711 93.0404 63.0124 91.0009 93.7049C90.9487 94.7478 91.3205 95.7673 92.0317 96.5315C92.743 97.296 93.7337 97.7542 94.7781 97.7772C95.8222 97.8002 96.0355 97.7772 96.8418 97.7772ZM152.27 60.8387V67.0871C152.253 68.9553 150.83 70.5105 148.97 70.6946C136.555 72.214 126.761 81.9714 125.2 94.3748C124.963 96.2827 123.359 97.7266 121.436 97.7636H116.035C113.096 97.7636 111.329 95.8565 111.549 93.6535C113.508 74.3099 128.816 59.0157 148.171 57.0638C149.227 56.9731 150.273 57.3308 151.052 58.0487C151.832 58.7665 152.274 59.779 152.27 60.8387ZM223.916 152.12C222.15 152.12 220.693 151.27 220.358 148.616C218.555 113.722 190.65 85.8378 155.738 84.042C153.752 83.9124 152.213 82.256 152.231 80.2671V73.8252C152.185 72.9096 152.518 72.0151 153.152 71.3521C153.786 70.6892 154.665 70.3162 155.583 70.3209C197.896 72.0489 231.904 105.749 233.996 148.023C234.042 149.063 233.665 150.078 232.952 150.837C232.238 151.596 231.248 152.036 230.206 152.056L223.916 152.12ZM152.27 94.6715C152.293 93.6251 152.739 92.6332 153.507 91.9216C154.275 91.2103 155.298 90.8401 156.343 90.8962C187.043 92.9329 211.494 117.366 213.539 148.049C213.595 149.094 213.225 150.117 212.513 150.884C211.801 151.651 210.809 152.097 209.762 152.12H203.536C201.653 152.23 200.037 150.794 199.926 148.912C198.346 125.167 179.487 106.224 155.738 104.527C153.784 104.379 152.277 102.749 152.283 100.791L152.27 94.6715ZM187.675 152.123C187.675 152.123 184.819 152.14 182.949 152.123C181.08 152.105 179.524 150.668 179.34 148.809C177.819 136.396 168.049 126.606 155.634 125.051C153.725 124.814 152.281 123.211 152.244 121.289V115.208C152.24 114.146 152.684 113.131 153.466 112.413C154.249 111.695 155.298 111.339 156.356 111.433C175.711 113.385 191.019 128.679 192.979 148.023C193.069 149.079 192.711 150.124 191.993 150.903C191.275 151.682 190.262 152.124 189.201 152.12L187.675 152.123ZM26.0454 97.7503C27.8114 97.7503 29.2681 98.6009 29.6032 101.255C31.4085 136.163 59.3345 164.052 94.2623 165.828C96.2477 165.958 97.7865 167.615 97.7686 169.603V176.045C97.8146 176.961 97.4817 177.856 96.8476 178.518C96.2134 179.181 95.3344 179.554 94.4169 179.549C52.104 177.821 18.0958 144.122 16.0037 101.848C15.9583 100.807 16.335 99.7921 17.0485 99.033C17.7619 98.2739 18.7516 97.8348 19.7935 97.815L26.0454 97.7503ZM97.7301 155.148C97.7071 156.194 97.2606 157.186 96.4929 157.897C95.7253 158.609 94.7018 158.979 93.6566 158.923C62.9755 156.882 38.5364 132.472 36.4739 101.809C36.4178 100.764 36.788 99.7411 37.4998 98.9739C38.2116 98.2066 39.2042 97.7605 40.2508 97.7375H46.477C48.3599 97.6277 49.9757 99.0638 50.0863 100.946C51.6598 124.691 70.5136 143.639 94.2623 145.343C96.2154 145.492 97.7227 147.122 97.7169 149.08L97.7301 155.148ZM60.7468 97.7503H66.9987C68.8681 97.7679 70.4241 99.1895 70.6082 101.049C72.1299 113.462 81.8986 123.252 94.3137 124.806C96.2228 125.043 97.6674 126.646 97.704 128.569V134.662C97.697 135.713 97.2521 136.713 96.4766 137.422C95.7011 138.131 94.6652 138.485 93.6177 138.399C74.2632 136.447 58.9553 121.153 56.9957 101.809C56.917 100.764 57.2763 99.7334 57.9876 98.9637C58.6992 98.1941 59.6985 97.7546 60.7468 97.7503ZM97.7169 223.921C97.7169 222.156 98.5678 220.7 101.223 220.365C136.136 218.57 164.04 190.686 165.844 155.792C165.973 153.807 167.631 152.269 169.621 152.287H176.066C176.982 152.241 177.877 152.574 178.541 153.208C179.204 153.842 179.577 154.72 179.572 155.637C177.836 197.927 144.113 231.912 101.816 233.996C100.775 234.042 99.7598 233.665 99.0003 232.952C98.2408 232.239 97.8013 231.25 97.7815 230.208L97.7169 223.921ZM155.196 152.274C156.243 152.297 157.236 152.744 157.947 153.511C158.659 154.278 159.029 155.301 158.973 156.346C156.928 187.029 132.477 211.461 101.777 213.498C100.732 213.554 99.7088 213.184 98.9412 212.473C98.1735 211.762 97.727 210.769 97.704 209.723V203.501C97.5942 201.618 99.0311 200.004 100.914 199.893C124.672 198.32 143.63 179.477 145.335 155.74C145.483 153.788 147.114 152.282 149.073 152.287L155.196 152.274ZM97.7429 189.199V182.951C97.7601 181.083 99.1825 179.528 101.043 179.343C113.458 177.824 123.252 168.067 124.813 155.663C125.05 153.755 126.654 152.311 128.577 152.274H133.978C136.917 152.274 138.683 154.181 138.464 156.385C136.504 175.728 121.197 191.022 101.842 192.974C100.786 193.065 99.74 192.707 98.9606 191.989C98.1809 191.271 97.739 190.259 97.7429 189.199ZM97.7429 223.921C97.7429 222.156 98.5935 220.7 101.249 220.365C136.162 218.57 164.066 190.686 165.869 155.792C165.999 153.807 167.657 152.269 169.646 152.287H176.092C177.008 152.241 177.903 152.574 178.566 153.208C179.23 153.842 179.603 154.72 179.598 155.637C177.862 197.927 144.139 231.912 101.842 233.996C100.801 234.042 99.7855 233.665 99.026 232.952C98.2665 232.239 97.827 231.25 97.8072 230.208L97.7429 223.921ZM155.222 152.274C156.269 152.297 157.261 152.744 157.973 153.511C158.685 154.278 159.055 155.301 158.999 156.346C156.954 187.029 132.503 211.461 101.803 213.498C100.758 213.554 99.7345 213.184 98.9669 212.473C98.1992 211.762 97.7527 210.769 97.7301 209.723V203.501C97.6199 201.618 99.0568 200.004 100.94 199.893C124.697 198.32 143.656 179.477 145.361 155.74C145.509 153.788 147.14 152.282 149.099 152.287L155.222 152.274ZM97.7429 189.199V182.951C97.7601 181.083 99.1825 179.528 101.043 179.343C113.458 177.824 123.252 168.067 124.813 155.663C125.05 153.755 126.654 152.311 128.577 152.274H133.978C136.917 152.274 138.683 154.181 138.464 156.385C136.504 175.728 121.197 191.022 101.842 192.974C100.786 193.065 99.74 192.707 98.9606 191.989C98.1809 191.271 97.739 190.259 97.7429 189.199Z" fill="#FF5C00"/>
</g>
<defs>
<clipPath id="clip0_2112_5467">
<rect width="218" height="218" fill="white" transform="translate(16 16)"/>
</clipPath>
</defs>
</svg>
