<svg width="250" height="250" viewBox="0 0 250 250" fill="none" xmlns="http://www.w3.org/2000/svg">
<g clip-path="url(#clip0_1789_6928)">
<path d="M107.936 106.682H124.448L115.718 92.9359L99.6931 117.789H92.4005L111.891 87.9348C112.738 86.7288 114.151 86 115.718 86C117.232 86 118.645 86.7035 119.467 87.8847L139.035 117.789H131.742L128.301 112.236H111.584L107.937 106.682H107.936ZM183.692 112.235V86.3014H177.503V114.774C177.503 115.553 177.811 116.307 178.401 116.885C178.992 117.463 179.788 117.789 180.661 117.789H208.883L212.53 112.236H183.691L183.692 112.235ZM81.3064 107.586C87.3159 107.586 92.195 102.837 92.195 96.9564C92.195 91.0756 87.3159 86.3009 81.3064 86.3009H54.2322V117.79H60.4189V91.8555H80.8959C83.7721 91.8555 86.083 94.1428 86.083 96.9574C86.083 99.7715 83.7721 102.058 80.8959 102.058L63.4492 102.033L81.9228 117.79H90.9109L78.482 107.587H81.3069L81.3064 107.586ZM16.1499 117.789C7.26724 117.79 0.0585938 110.753 0.0585938 102.058C0.0585938 93.3629 7.26724 86.3019 16.1499 86.3019H34.8524C43.737 86.3019 50.9403 93.3629 50.9403 102.058C50.9403 110.753 43.737 117.789 34.8519 117.789H16.1499ZM34.4365 112.236C40.1913 112.236 44.8522 107.687 44.8522 102.058C44.8522 96.4291 40.1913 91.8555 34.4365 91.8555H16.5638C10.811 91.8555 6.14763 96.4291 6.14763 102.058C6.14763 107.687 10.811 112.236 16.5633 112.236H34.4361H34.4365ZM151.952 117.789C143.067 117.789 135.85 110.753 135.85 102.058C135.85 93.3629 143.067 86.3019 151.952 86.3019H174.165L170.544 91.8555H152.363C146.61 91.8555 141.937 96.4291 141.937 102.058C141.937 107.687 146.61 112.236 152.363 112.236H174.678L171.031 117.789H151.952ZM227.63 112.236C222.879 112.236 218.847 109.12 217.615 104.822H244.065L247.711 99.2685H217.615C218.847 94.9963 222.879 91.8555 227.63 91.8555H245.786L249.457 86.3009H227.219C218.334 86.3009 211.118 93.3624 211.118 102.057C211.118 110.753 218.334 117.789 227.219 117.789H246.299L249.945 112.236H227.63H227.63Z" fill="#EA1B22"/>
</g>
<path d="M0 165.642H5.20123V157.44H9.57362C15.2313 157.44 18.5226 153.97 18.5226 148.918C18.5226 143.891 15.2914 140.346 9.70575 140.346H0V165.642ZM5.20123 153.154V144.718H8.70875C11.7118 144.718 13.1652 146.398 13.1652 148.918C13.1652 151.425 11.7118 153.154 8.73277 153.154H5.20123Z" fill="black"/>
<path d="M25.2836 165.642H41.9083V161.232H30.4848V155.192H41.0074V150.783H30.4848V144.755H41.8603V140.346H25.2836V165.642Z" fill="black"/>
<path d="M71.9847 152.994C71.9847 144.718 66.9877 140 60.4652 140C53.9066 140 48.9456 144.718 48.9456 152.994C48.9456 161.232 53.9066 165.988 60.4652 165.988C66.9877 165.988 71.9847 161.269 71.9847 152.994ZM66.7114 152.994C66.7114 158.354 64.2369 161.257 60.4652 161.257C56.6814 161.257 54.2189 158.354 54.2189 152.994C54.2189 147.633 56.6814 144.731 60.4652 144.731C64.2369 144.731 66.7114 147.633 66.7114 152.994Z" fill="black"/>
<path d="M79.2202 165.642H84.4214V157.44H88.7938C94.4515 157.44 97.7428 153.97 97.7428 148.918C97.7428 143.891 94.5116 140.346 88.926 140.346H79.2202V165.642ZM84.4214 153.154V144.718H87.929C90.932 144.718 92.3854 146.398 92.3854 148.918C92.3854 151.425 90.932 153.154 87.953 153.154H84.4214Z" fill="black"/>
<path d="M104.504 165.642H120.252V161.232H109.705V140.346H104.504V165.642Z" fill="black"/>
<path d="M127.079 165.642H143.703V161.232H132.28V155.192H142.802V150.783H132.28V144.755H143.655V140.346H127.079V165.642Z" fill="black"/>
<path d="M164.519 147.621H169.504C169.431 143.113 165.828 140 160.35 140C154.957 140 151.005 143.063 151.029 147.658C151.017 151.388 153.576 153.525 157.732 154.55L160.41 155.242C163.089 155.909 164.579 156.699 164.591 158.404C164.579 160.257 162.873 161.516 160.23 161.516C157.527 161.516 155.582 160.232 155.413 157.7H150.38C150.512 163.171 154.32 166 160.29 166C166.296 166 169.828 163.048 169.84 158.416C169.828 154.204 166.741 151.969 162.464 150.981L160.254 150.437C158.116 149.931 156.326 149.115 156.362 147.3C156.362 145.669 157.768 144.471 160.314 144.471C162.801 144.471 164.326 145.632 164.519 147.621Z" fill="black"/>
<path d="M199.328 152.994C199.328 144.718 194.331 140 187.808 140C181.25 140 176.289 144.718 176.289 152.994C176.289 161.232 181.25 165.988 187.808 165.988C194.331 165.988 199.328 161.269 199.328 152.994ZM194.054 152.994C194.054 158.354 191.58 161.257 187.808 161.257C184.024 161.257 181.562 158.354 181.562 152.994C181.562 147.633 184.024 144.731 187.808 144.731C191.58 144.731 194.054 147.633 194.054 152.994Z" fill="black"/>
<path d="M206.563 165.642H211.764V155.192H221.77V150.783H211.764V144.755H222.852V140.346H206.563V165.642Z" fill="black"/>
<path d="M228.796 144.755H236.327V165.642H241.468V144.755H249V140.346H228.796V144.755Z" fill="black"/>
<defs>
<clipPath id="clip0_1789_6928">
<rect width="250" height="32" fill="white" transform="translate(0 86)"/>
</clipPath>
</defs>
</svg>
