<svg width="250" height="250" viewBox="0 0 250 250" fill="none" xmlns="http://www.w3.org/2000/svg">
<g clip-path="url(#clip0_1789_6975)">
<path d="M90.8825 176.846C92.4315 176.157 94.0009 175.523 95.5847 174.928C97.3732 174.256 99.176 173.624 101.003 173.073C103.277 172.388 105.57 171.768 107.895 171.275C111.031 170.608 114.202 170.118 117.393 169.807C115.589 175.465 113.616 181.067 111.476 186.606C111.564 187.688 111.621 188.771 111.646 189.856C116.044 188.986 120.517 188.548 125 188.547C129.57 188.547 134.033 189.003 138.354 189.856C138.379 188.771 138.436 187.688 138.524 186.606C136.384 181.067 134.41 175.465 132.607 169.807C135.801 170.117 138.972 170.61 142.105 171.275C144.429 171.768 146.722 172.388 148.996 173.073C150.824 173.624 152.627 174.256 154.415 174.928C156 175.523 157.57 176.158 159.119 176.847C170.316 181.826 180.292 189.189 188.348 198.423C208.945 180.636 222 154.351 222 125C222 71.4287 178.571 28 125 28C71.4287 28 28 71.4287 28 125C28 154.351 41.0548 180.636 61.6522 198.423C69.7088 189.189 79.6846 181.825 90.8825 176.846Z" fill="#A5DBE8"/>
<path d="M159.118 176.847L165.139 197.553L166.847 197.633C167.956 197.633 168.736 197.925 168.736 199.034C168.736 200.877 168.831 202.948 169.008 204.756C170.508 206.03 172.335 207.467 173.721 208.863C178.908 205.842 183.804 202.347 188.346 198.423C180.29 189.189 170.315 181.826 159.118 176.847ZM147.343 176.64L154.414 174.928C152.625 174.256 150.823 173.624 148.995 173.073C146.72 172.388 144.427 171.768 142.104 171.275C138.968 170.608 135.797 170.118 132.605 169.807C134.409 175.465 136.382 181.067 138.522 186.606C138.434 187.688 138.378 188.771 138.353 189.856C143.363 190.844 148.288 192.561 152.843 194.576L147.343 176.64Z" fill="#525353"/>
<path d="M76.2773 208.863C77.4035 209.519 78.5409 210.159 79.6974 210.771C80.102 208.827 80.7492 206.134 80.9447 204.134C79.4442 205.408 77.6626 207.467 76.2773 208.863ZM152.725 194.397C148.118 192.356 143.298 190.833 138.354 189.856C133.955 188.986 129.483 188.548 124.999 188.547C120.428 188.547 115.966 189.003 111.645 189.856C106.636 190.843 101.409 192.341 96.8565 194.355L96.3723 197.372H153.628L152.725 194.397Z" fill="black"/>
<path d="M80.7682 204.708C80.9455 202.9 81.0736 201.288 81.0736 199.444C81.0736 198.337 81.8336 197.626 82.9423 197.626L84.7603 197.563L90.8827 176.846C79.6848 181.825 69.709 189.189 61.6523 198.423C66.1949 202.347 71.0911 205.842 76.2781 208.863C77.6633 207.465 79.1075 206.128 80.6067 204.854" fill="#525353"/>
<path d="M169.749 208.393C170.142 210.364 170.231 210.756 170.302 210.771C171.455 210.158 172.595 209.522 173.722 208.863C172.322 207.45 170.862 206.098 169.348 204.809L169.749 208.393Z" fill="black"/>
<path d="M152.725 194.397L153.628 197.372H165.339L159.118 176.847C157.569 176.161 156.001 175.521 154.414 174.928L147.344 176.64L152.725 194.397Z" fill="#AA9678"/>
<path d="M84.8672 201.517C84.9286 201.474 84.9907 201.431 85.0513 201.387H84.8755C84.874 201.43 84.8695 201.474 84.8672 201.517Z" fill="#C4B6A1"/>
<path d="M165.126 201.387H164.949L165.133 201.517C165.132 201.474 165.127 201.43 165.126 201.387Z" fill="#AA9678"/>
<path d="M164.926 201.087L124.918 201.133L125.001 222C139.891 222 153.992 218.636 166.6 212.64C165.777 209.024 165.694 205.129 165.56 201.338C165.5 201.294 164.926 201.087 164.926 201.087Z" fill="#AA9678"/>
<path d="M124.937 201.219C124.937 201.219 84.7081 201.168 84.6467 201.212C84.5133 205.003 83.7312 209.501 83.4023 212.64C96.0101 218.636 110.111 222 125.001 222L125.024 201.287L124.937 201.219Z" fill="#C4B6A1"/>
<path d="M155.005 185.746L155.026 185.809L155.005 185.746C155.005 185.746 154.022 184.966 152.773 183.53C154.022 184.966 155.005 185.746 155.005 185.746Z" fill="#AA9678"/>
<path d="M184.645 97.9825V97.987V97.9825ZM188.548 125.91L188.549 125.881L188.548 125.91Z" fill="white"/>
<path d="M188.438 124.37C188.441 124.396 188.449 124.419 188.452 124.445C188.454 124.46 188.459 124.475 188.461 124.49V124.496C188.507 124.867 188.525 125.254 188.533 125.644C188.535 125.716 188.547 125.784 188.547 125.855L188.548 125.881L188.547 125.91C188.546 125.987 188.533 126.059 188.532 126.136C188.527 126.512 188.504 126.888 188.462 127.262V127.267L188.451 127.323C188.448 127.352 188.439 127.379 188.435 127.408C188.384 127.794 188.312 128.177 188.218 128.556L188.216 128.561V128.562L188.23 128.547L188.235 128.529V128.53L190.774 125.872L188.215 123.193L188.216 123.199C188.311 123.572 188.384 123.965 188.438 124.37Z" fill="#676A6A"/>
<path d="M188.436 127.408C188.442 127.358 188.455 127.313 188.462 127.262C188.507 126.898 188.523 126.519 188.532 126.136C188.533 126.05 188.547 125.968 188.547 125.881C188.547 125.8 188.535 125.724 188.533 125.644C188.529 125.26 188.505 124.877 188.461 124.496C188.455 124.452 188.444 124.413 188.439 124.37C188.387 123.976 188.313 123.585 188.216 123.199C188.182 123.068 188.136 122.952 188.098 122.827C187.868 122.067 187.555 121.397 187.184 120.84C187.041 120.628 186.886 120.425 186.718 120.233C186.565 120.064 186.397 119.908 186.217 119.767C186.15 119.717 186.079 119.681 186.011 119.637C185.802 119.5 185.576 119.39 185.338 119.312C185.114 119.237 184.88 119.197 184.643 119.192C184.405 119.192 184.175 119.242 183.948 119.312C183.711 119.39 183.484 119.499 183.275 119.637C183.208 119.681 183.137 119.716 183.071 119.767C182.759 120.01 182.485 120.298 182.257 120.622C182.204 120.694 182.153 120.766 182.103 120.84C181.732 121.397 181.418 122.068 181.189 122.827L181.161 122.918C181.059 123.267 180.98 123.634 180.914 124.01C180.895 124.125 180.868 124.236 180.852 124.354C180.791 124.776 180.76 125.215 180.753 125.665C180.752 125.728 180.742 125.787 180.742 125.849H180.757C180.757 129.544 182.506 132.539 184.662 132.539C185.033 132.539 185.39 132.442 185.73 132.276C185.934 132.176 186.127 132.054 186.305 131.913C186.378 131.854 186.447 131.782 186.517 131.716C186.69 131.555 186.853 131.373 187.009 131.171C187.116 131.029 187.222 130.887 187.321 130.729C187.384 130.628 187.441 130.519 187.5 130.412C187.609 130.21 187.712 130 187.805 129.777C187.84 129.697 187.875 129.619 187.907 129.536C188.026 129.226 188.13 128.899 188.218 128.556C188.311 128.19 188.381 127.805 188.436 127.408ZM184.784 124.991C183.975 124.991 183.32 123.867 183.32 122.482C183.32 121.097 183.975 119.973 184.784 119.973C185.592 119.973 186.247 121.097 186.247 122.482C186.247 123.867 185.592 124.991 184.784 124.991Z" fill="black"/>
<path d="M184.784 119.973C183.976 119.973 183.32 121.097 183.32 122.482C183.32 123.867 183.976 124.991 184.784 124.991C185.593 124.991 186.248 123.867 186.248 122.482C186.248 121.097 185.593 119.973 184.784 119.973Z" fill="white"/>
<path d="M181.192 122.827C181.421 122.068 181.735 121.397 182.106 120.84C182.156 120.765 182.207 120.694 182.26 120.622C182.487 120.298 182.761 120.009 183.074 119.767C183.14 119.716 183.211 119.681 183.278 119.637C183.487 119.499 183.713 119.39 183.951 119.312C184.177 119.241 184.408 119.192 184.646 119.192C184.884 119.192 185.115 119.241 185.341 119.312C185.579 119.39 185.805 119.5 186.014 119.637C186.082 119.681 186.153 119.717 186.219 119.767C186.394 119.901 186.561 120.058 186.721 120.233C186.889 120.425 187.044 120.628 187.186 120.84C187.558 121.397 187.871 122.067 188.1 122.827V122.828L184.646 107.007L181.191 122.827H181.192Z" fill="#909393"/>
<path d="M138.867 125.734C138.863 125.415 138.842 125.101 138.807 124.792C138.806 124.788 138.804 124.783 138.804 124.779C138.769 124.476 138.718 124.176 138.652 123.878L138.646 123.856C138.581 123.566 138.502 123.279 138.409 122.996L138.401 122.977C138.309 122.697 138.202 122.422 138.082 122.153C138.08 122.148 138.076 122.142 138.074 122.136C137.111 119.994 135.365 118.302 133.193 117.407L133.166 117.398C132.638 117.182 132.09 117.017 131.531 116.904C131.517 116.902 131.503 116.901 131.489 116.898C130.911 116.784 130.324 116.727 129.736 116.726C129.145 116.726 128.572 116.787 128.013 116.894L127.954 116.903C127.399 117.013 126.863 117.176 126.348 117.382L126.307 117.398C125.787 117.609 125.288 117.868 124.815 118.171C124.343 118.476 123.9 118.822 123.492 119.205L123.482 119.236L123.448 119.244C122.795 119.865 122.236 120.578 121.789 121.361L121.773 121.389C121.636 121.629 121.513 121.879 121.399 122.134C121.387 122.161 121.372 122.187 121.36 122.214C121.257 122.45 121.167 122.694 121.084 122.939C121.068 122.988 121.047 123.033 121.032 123.081C120.959 123.311 120.9 123.547 120.844 123.782C120.829 123.85 120.807 123.916 120.793 123.983C120.744 124.216 120.711 124.455 120.68 124.695C120.671 124.768 120.655 124.839 120.647 124.912C120.552 125.82 120.594 126.736 120.772 127.631C120.773 127.642 120.774 127.655 120.777 127.667C120.891 128.238 121.06 128.788 121.276 129.315C121.279 129.323 121.28 129.33 121.284 129.337C121.721 130.395 122.352 131.361 123.145 132.186C123.766 132.834 124.482 133.39 125.268 133.834L125.28 133.841C125.525 133.979 125.779 134.103 126.038 134.218C126.059 134.227 126.079 134.239 126.101 134.248C126.341 134.353 126.589 134.443 126.838 134.527C126.88 134.542 126.921 134.56 126.964 134.573C127.194 134.647 127.432 134.706 127.67 134.761C127.734 134.776 127.796 134.797 127.862 134.811C128.093 134.858 128.331 134.891 128.57 134.922C128.642 134.93 128.713 134.947 128.787 134.955C130.921 135.179 133.066 134.644 134.845 133.444C135.818 132.786 136.656 131.948 137.314 130.975C138.333 129.466 138.877 127.686 138.875 125.865C138.875 125.843 138.872 125.823 138.872 125.803C138.871 125.779 138.868 125.757 138.867 125.734ZM129.736 124.663C129.285 124.663 128.838 124.574 128.422 124.401C128.005 124.229 127.627 123.976 127.308 123.657C126.989 123.338 126.737 122.96 126.564 122.543C126.392 122.126 126.303 121.68 126.303 121.229C126.303 120.778 126.392 120.332 126.564 119.915C126.737 119.499 126.99 119.12 127.309 118.802C127.628 118.483 128.006 118.23 128.423 118.057C128.839 117.885 129.286 117.796 129.736 117.796C130.647 117.796 131.52 118.158 132.164 118.802C132.808 119.446 133.169 120.319 133.169 121.23C133.169 122.14 132.807 123.014 132.164 123.657C131.52 124.301 130.646 124.663 129.736 124.663Z" fill="black"/>
<path d="M129.734 117.796C128.823 117.796 127.95 118.158 127.306 118.802C126.662 119.446 126.301 120.319 126.301 121.229C126.301 122.14 126.662 123.013 127.306 123.657C127.95 124.3 128.823 124.662 129.734 124.662C130.644 124.662 131.517 124.3 132.161 123.657C132.805 123.013 133.167 122.14 133.167 121.229C133.167 120.319 132.805 119.446 132.161 118.802C131.517 118.158 130.644 117.796 129.734 117.796Z" fill="white"/>
<path d="M123.449 119.244L123.483 119.236L123.493 119.205L129.787 99.955V95.4498L129.787 95.3991C126.234 94.6635 122.616 94.2903 118.988 94.2851C117.756 94.2851 116.535 94.3374 115.321 94.42C115.144 94.4321 114.967 94.4427 114.789 94.4564C108.472 94.9361 102.25 96.5828 96.489 99.2124C91.5488 101.468 86.9588 104.44 82.8325 107.963V107.964L82.8257 107.97C81.7216 108.915 80.6522 109.9 79.6194 110.923C79.4254 111.112 79.2283 111.3 79.0366 111.493C78.0603 112.477 77.1158 113.493 76.2046 114.538C76.0069 114.766 75.8121 114.999 75.6166 115.23C74.6971 116.308 73.812 117.416 72.9627 118.551C72.8923 118.646 72.8263 118.747 72.7566 118.842C71.951 119.942 71.1787 121.066 70.4407 122.213C70.296 122.436 70.1475 122.657 70.0057 122.883C69.4071 123.832 68.8501 124.808 68.2969 125.785H96.9702L123.449 119.244Z" fill="#BBBCBD"/>
<path d="M147.654 117.078C147.712 116.327 147.76 115.577 147.798 114.825C147.851 113.808 147.886 112.789 147.906 111.772C147.921 110.981 147.919 110.19 147.915 109.4C147.915 109.172 147.92 108.943 147.918 108.715C147.894 106.674 147.819 104.634 147.693 102.597L147.676 102.585L147.668 102.571C146.91 102.136 146.152 101.702 145.392 101.271L145.339 101.24L144.746 100.905L144.735 100.899L144.324 100.668L144.243 100.623C144.143 100.568 144.044 100.513 143.943 100.46C142.625 99.7757 141.281 99.1439 139.913 98.566C136.652 97.1891 132.259 95.9819 129.785 95.3991V99.9551L136.024 119.236L136.031 119.252C136.675 119.866 137.229 120.571 137.673 121.349V121.35C137.819 121.604 137.952 121.867 138.073 122.136C138.076 122.142 138.079 122.148 138.08 122.153C138.201 122.421 138.307 122.696 138.4 122.977L138.408 122.996C138.5 123.278 138.58 123.564 138.645 123.856L138.651 123.878C138.716 124.173 138.767 124.474 138.803 124.779C138.803 124.783 138.805 124.788 138.805 124.792C138.841 125.101 138.861 125.415 138.866 125.734L138.89 125.785H146.529C147.042 122.981 147.41 120.153 147.633 117.312C147.638 117.234 147.648 117.156 147.654 117.078Z" fill="#E3DDDB"/>
<path d="M157.647 110.261C157.641 110.269 157.637 110.279 157.633 110.288L157.647 110.261" fill="#FCB03F"/>
<path d="M123.492 119.205C123.903 118.82 124.347 118.474 124.821 118.169C125.291 117.867 125.789 117.608 126.307 117.398C126.321 117.392 126.336 117.388 126.348 117.382C126.868 117.173 127.405 117.013 127.954 116.903L128.013 116.894C128.581 116.784 129.158 116.727 129.736 116.726C130.336 116.726 130.921 116.787 131.489 116.898C131.503 116.901 131.517 116.902 131.531 116.904C132.1 117.018 132.656 117.187 133.193 117.408C134.245 117.841 135.208 118.467 136.032 119.252L136.026 119.236L129.787 99.9551L123.492 119.205Z" fill="#909393"/>
<path d="M121.275 129.315C121.056 128.783 120.889 128.231 120.776 127.667C120.773 127.655 120.772 127.642 120.771 127.631C120.593 126.736 120.551 125.82 120.647 124.912C120.654 124.839 120.67 124.768 120.679 124.695C120.71 124.455 120.744 124.216 120.792 123.983C120.806 123.916 120.828 123.85 120.843 123.782C120.899 123.547 120.958 123.311 121.031 123.081C121.047 123.033 121.066 122.988 121.083 122.94C121.166 122.694 121.256 122.45 121.36 122.214C121.371 122.187 121.386 122.161 121.398 122.134C121.512 121.879 121.636 121.629 121.772 121.389L121.789 121.361C122.236 120.578 122.794 119.865 123.447 119.244L96.9687 125.785H96.918L123.144 132.186C122.352 131.361 121.72 130.395 121.283 129.337C121.279 129.33 121.278 129.323 121.275 129.315Z" fill="#676A6A"/>
<path d="M180.854 124.354C180.87 124.236 180.895 124.125 180.916 124.01C180.982 123.634 181.061 123.267 181.162 122.918C181.173 122.879 181.178 122.834 181.19 122.796L184.645 106.975L184.644 97.9552C181.821 95.6234 178.799 94.3488 175.651 94.3488C171.674 94.3488 167.966 96.5449 165.193 99.2571C162.159 102.225 159.815 105.96 157.919 109.729C157.831 109.902 157.742 110.069 157.656 110.243C158.24 110.749 158.818 111.262 159.389 111.785C160.678 112.968 161.945 114.176 163.19 115.408C163.77 115.981 164.34 116.566 164.912 117.148C165.518 117.766 166.125 118.382 166.722 119.009C167.814 120.157 168.891 121.318 169.952 122.494C170.862 123.498 171.763 124.511 172.653 125.533L172.655 125.535C172.804 125.691 172.909 125.803 172.949 125.849H180.741C180.741 125.786 180.754 125.728 180.754 125.665C180.762 125.215 180.793 124.776 180.854 124.354ZM157.655 110.285L157.646 110.261L157.633 110.287L157.667 110.32C157.663 110.308 157.659 110.297 157.655 110.285Z" fill="#E3DDDB"/>
<path d="M63.5988 135.74L63.6685 135.566C64.7148 132.851 65.9213 130.201 67.2818 127.63C67.4925 127.229 67.6986 126.828 67.9168 126.431C68.0373 126.212 68.1737 126.003 68.2965 125.785C68.8497 124.807 69.4067 123.832 70.0054 122.883C70.1471 122.656 70.2956 122.436 70.4403 122.213C71.1783 121.066 71.9506 119.942 72.7562 118.842C72.8259 118.746 72.8919 118.646 72.9623 118.551C73.8116 117.416 74.6967 116.308 75.6162 115.229C75.8117 114.999 76.0057 114.767 76.2043 114.538C77.1154 113.493 78.0599 112.477 79.0362 111.493C79.2287 111.3 79.425 111.112 79.619 110.923C80.6518 109.9 81.7213 108.915 82.8253 107.97L82.8321 107.963C87.1903 93.3643 101.263 84.3933 117.041 84.3933C123.392 84.3933 129.707 86.2235 135.12 89.5343C140.671 92.9301 144.457 96.2478 147.395 102.047L147.439 102.134C147.514 102.282 147.597 102.422 147.67 102.571L147.677 102.585L147.695 102.597C150.163 104.124 152.514 105.832 154.728 107.708C155.473 108.337 156.204 108.982 156.92 109.644C157.156 109.86 157.399 110.067 157.633 110.287C157.637 110.278 157.641 110.269 157.646 110.261C157.649 110.254 157.651 110.248 157.655 110.242C157.735 110.078 157.814 109.91 157.895 109.748C160.118 95.7158 167.183 88.0642 174.483 88.0642C179.987 88.0642 183.987 91.3455 187.009 100.179L187.04 100.273L187.047 100.284C187.938 101.256 188.77 102.28 189.538 103.352L189.537 103.351C189.553 103.372 189.569 103.392 189.585 103.414L189.584 103.413L189.585 103.414C189.628 103.542 189.665 103.674 189.707 103.802V103.801L189.593 103.341C180.511 76.4522 155.079 57.0931 125.124 57.0931C87.5517 57.0931 57.0938 87.5511 57.0938 125.123C57.0938 132.53 58.2775 139.661 60.4751 146.297L60.4842 146.258C61.2568 142.679 62.298 139.163 63.5988 135.74Z" fill="#525353"/>
<path d="M190.61 125.875L188.237 128.53V128.529L188.232 128.547C188.142 128.896 188.031 129.222 187.909 129.536C187.877 129.619 187.842 129.697 187.807 129.777C187.716 129.994 187.614 130.205 187.502 130.412C187.443 130.519 187.386 130.628 187.323 130.729C187.224 130.887 187.118 131.03 187.01 131.171C186.862 131.366 186.698 131.548 186.519 131.716C186.449 131.782 186.381 131.854 186.306 131.913C186.129 132.054 185.936 132.176 185.732 132.276C185.392 132.442 185.035 132.539 184.664 132.539C182.508 132.539 180.759 129.544 180.759 125.849H172.926L172.93 125.855C174.402 127.556 175.851 129.277 177.276 131.017C178.645 132.69 179.998 134.378 181.333 136.078L181.53 136.328C182.795 137.943 184.049 139.567 185.292 141.201L185.654 141.673C186.974 143.411 188.285 145.154 189.588 146.905C191.88 140.118 193.084 133.012 193.156 125.849L190.953 125.765L190.61 125.875Z" fill="white"/>
<path d="M114.789 94.4564C114.966 94.4427 115.144 94.4321 115.32 94.42C116.541 94.3335 117.764 94.2885 118.987 94.2851C122.676 94.2851 126.28 94.6799 129.786 95.3991H129.787C132.261 95.9819 136.653 97.1891 139.914 98.566C141.282 99.1439 142.627 99.7757 143.945 100.46L144.244 100.623L144.325 100.668C144.447 100.736 144.581 100.81 144.737 100.899L144.748 100.905L145.341 101.24L145.394 101.271C146.232 101.746 147.16 102.279 147.514 102.482L147.605 102.534L147.67 102.571C147.597 102.423 147.514 102.282 147.439 102.135L147.395 102.047C144.457 96.2479 139.932 91.2736 134.381 87.8778C128.968 84.5669 122.653 82.7368 116.302 82.7368C100.524 82.7368 87.1902 93.3644 82.832 107.963C86.9583 104.44 91.5484 101.468 96.4886 99.2124C102.249 96.5828 108.471 94.9361 114.789 94.4564Z" fill="black"/>
<path d="M189.585 103.414L189.584 103.413L189.585 103.414C189.569 103.392 189.552 103.372 189.536 103.351L189.538 103.352C188.769 102.28 187.938 101.256 187.047 100.284L187.025 100.257C186.645 99.8452 186.253 99.4447 185.849 99.0563C185.7 98.9131 185.546 98.788 185.395 98.6509C185.145 98.4243 184.898 98.1901 184.645 97.9825V107.007L188.099 122.829V122.828C188.137 122.951 188.183 123.066 188.216 123.193L190.609 125.875L190.633 125.849H193.137C193.14 125.617 193.155 125.388 193.155 125.155V125.152C193.154 117.896 191.989 110.688 189.707 103.801V103.802C189.665 103.674 189.628 103.542 189.585 103.414Z" fill="#BBBCBD"/>
<path d="M165.192 99.2571C167.965 96.5449 171.673 94.3488 175.65 94.3488C178.797 94.3488 181.82 95.6234 184.643 97.9552L184.644 97.9825V97.987V97.9825C184.897 98.1901 185.145 98.4243 185.394 98.6509C185.545 98.788 185.7 98.9131 185.849 99.0563C186.253 99.4447 186.645 99.8452 187.024 100.257L187.046 100.284C187.044 100.281 187.042 100.278 187.039 100.275L187.039 100.274L187.008 100.179C183.986 91.3455 179.111 85.6066 173.609 85.6066C166.308 85.6066 160.117 95.7158 157.894 109.748L157.917 109.729C159.813 105.96 162.158 102.225 165.192 99.2571ZM155.326 185.501C155.326 185.501 154.344 184.722 153.095 183.286C152.515 182.621 151.973 181.924 151.474 181.196C151.315 180.964 151.158 180.723 151.001 180.475C150.529 179.728 150.152 178.82 149.737 177.922C149.256 176.882 149.255 176.19 148.979 175.222C148.776 174.509 148.615 173.784 148.496 173.052C148.305 171.868 148.228 170.668 148.267 169.469C148.288 168.777 148.359 168.061 148.463 167.332C148.566 166.608 148.707 165.89 148.885 165.181C149.435 162.981 150.386 160.638 151.87 158.164L152.247 157.317C152.732 156.509 152.84 156.545 153.301 155.766C159.791 144.814 163.292 136.532 161.579 123.779C161.391 122.473 161.178 121.17 160.94 119.872C160.79 120.813 160.632 121.752 160.466 122.69C160.401 122.981 160.225 123.297 160.158 123.495C157.339 131.838 152.901 137.976 146.516 144.906C145.627 145.867 144.727 146.819 143.817 147.759C142.19 149.441 140.547 151.105 138.887 152.753C138.196 153.441 137.491 154.138 136.774 154.849C136.116 155.5 135.297 156.894 134.319 157.921C133.716 159.61 133.03 161.515 132.45 163.519C132.189 163.42 131.94 163.331 131.674 163.228C119.27 158.43 110.965 152.02 110.965 152.02C110.965 152.02 117.355 160.34 128.12 168.15C129.11 168.867 130.137 169.532 131.196 170.141C130.752 177.171 133.853 183.919 147.851 185.932C150.217 186.272 152.641 186.256 155.082 185.981C155.057 185.908 155.218 185.91 155.205 185.87C155.192 185.829 155.336 185.721 155.336 185.721" fill="black"/>
<path d="M147.838 167.406C160.264 169.412 178.656 169.083 197.748 160.144C198.208 159.928 198.715 160.495 199.175 160.269C199.175 160.269 186.126 173.597 170.543 181.132C170.087 181.352 169.638 181.586 169.178 181.795C167.672 182.483 166.14 183.083 164.603 183.636C161.588 184.719 158.532 185.542 155.499 185.921C155.359 185.939 155.22 185.966 155.08 185.981C155.061 185.924 155.042 185.867 155.023 185.809L155.003 185.746C155.003 185.746 154.019 184.966 152.771 183.53C152.19 182.867 151.649 182.169 151.151 181.441C150.455 180.431 149.847 179.364 149.331 178.251C148.896 177.311 148.534 176.339 148.25 175.343C147.715 173.474 147.475 171.533 147.537 169.59C147.563 168.875 147.629 168.162 147.733 167.453L147.838 167.406Z" fill="#9F2254"/>
<path d="M138.934 153.259C140.594 151.611 142.238 149.946 143.864 148.265C144.774 147.324 145.674 146.373 146.564 145.412C152.948 138.481 157.635 131.996 160.455 123.653C160.521 123.455 160.588 123.194 160.652 122.901L160.682 122.765C160.748 122.454 160.813 122.107 160.877 121.717C160.903 121.448 161.746 120.906 161.77 120.653C161.063 117.02 159.433 113.201 157.655 110.285C157.659 110.297 157.663 110.308 157.667 110.32L157.633 110.287C157.399 110.067 157.156 109.86 156.92 109.644C156.204 108.982 155.473 108.337 154.728 107.708C152.514 105.833 150.163 104.124 147.695 102.597C147.819 104.638 147.899 106.678 147.92 108.715C147.923 108.943 147.917 109.172 147.917 109.4C147.921 110.19 147.923 110.981 147.908 111.772C147.888 112.79 147.852 113.808 147.8 114.825C147.762 115.577 147.714 116.327 147.656 117.078C147.649 117.156 147.64 117.234 147.635 117.312C147.412 120.153 147.043 122.981 146.531 125.785L145.634 130.028C143.76 137.626 139.953 144.517 136.823 151.633C135.994 153.52 135.206 155.428 134.516 157.372L134.32 157.921C135.142 157.054 135.976 156.198 136.821 155.354C137.539 154.644 138.244 153.946 138.934 153.259Z" fill="#FCB03F"/>
<path d="M97.87 194.122C102.424 192.108 106.638 190.843 111.647 189.856C111.622 188.771 111.565 187.688 111.477 186.606C113.617 181.067 115.59 175.465 117.394 169.807C114.203 170.118 111.032 170.608 107.896 171.275C105.572 171.768 103.278 172.388 101.004 173.073C99.1772 173.624 97.3744 174.256 95.5859 174.928L102.657 176.64L96.9674 194.499L97.87 194.122Z" fill="#525353"/>
<path d="M185.29 141.201C184.048 139.567 182.794 137.943 181.528 136.328L181.331 136.078C179.979 134.357 178.61 132.649 177.223 130.955C175.814 129.236 174.383 127.536 172.929 125.855C172.837 125.748 172.745 125.64 172.652 125.534C171.454 124.157 170.237 122.797 169.002 121.453C168.249 120.631 167.489 119.817 166.721 119.01C166.122 118.384 165.518 117.764 164.91 117.148C164.339 116.566 163.769 115.981 163.188 115.408C161.944 114.177 160.676 112.969 159.387 111.785C158.816 111.263 158.238 110.749 157.653 110.242C157.65 110.248 157.647 110.254 157.645 110.261C158.874 113.793 160.277 117.37 160.979 121.055C161.162 122.013 161.313 122.946 161.436 123.856C163.148 136.608 159.062 144.934 152.573 155.887C152.098 156.687 151.621 157.487 151.141 158.285C149.658 160.76 148.707 163.102 148.156 165.302C147.979 166.011 147.838 166.729 147.734 167.453C160.46 169.507 179.597 169.89 199.176 160.269C199.176 160.269 195.336 154.626 189.559 146.868C188.265 145.13 186.963 143.399 185.652 141.673C185.533 141.515 185.411 141.357 185.29 141.201Z" fill="#DF0067"/>
<path d="M96.2901 197.691L102.656 176.64L95.5846 174.928C94.0008 175.523 92.4313 176.157 90.8824 176.847L84.5781 197.691L91.6159 197.801L96.2901 197.691Z" fill="#AA9678"/>
<path d="M100.766 188.584C101.387 188.822 102.019 189.037 102.65 189.258C109.872 191.792 117.471 193.086 125.125 193.083C133.832 193.088 142.458 191.416 150.533 188.158C150.948 187.992 151.355 187.808 151.766 187.633C152.432 187.35 153.094 187.057 153.751 186.753C154.337 186.481 154.924 186.21 155.501 185.921C155.362 185.94 155.222 185.966 155.083 185.981C152.642 186.256 150.218 186.272 147.852 185.932C133.854 183.919 130.753 177.171 131.197 170.141C130.138 169.532 129.111 168.867 128.121 168.15C117.356 160.34 110.966 152.02 110.966 152.02C110.966 152.02 119.271 158.43 131.675 163.228C131.941 163.331 132.19 163.42 132.452 163.519C133.031 161.515 133.717 159.61 134.32 157.921L134.516 157.372C135.206 155.428 135.994 153.52 136.823 151.633C139.953 144.517 143.76 137.626 145.634 130.028L146.531 125.785H138.876L138.875 125.786L138.876 125.801L138.872 125.803C138.872 125.823 138.876 125.843 138.876 125.865C138.877 127.686 138.334 129.466 137.314 130.975C136.321 132.443 134.925 133.593 133.293 134.285C131.872 134.887 130.322 135.117 128.788 134.955C128.714 134.947 128.644 134.931 128.571 134.922C128.331 134.891 128.093 134.858 127.862 134.811C127.797 134.796 127.735 134.776 127.671 134.761C127.433 134.706 127.195 134.647 126.964 134.573C126.922 134.559 126.881 134.542 126.838 134.527C126.589 134.443 126.341 134.353 126.102 134.248C126.08 134.239 126.059 134.228 126.038 134.218C125.78 134.104 125.527 133.978 125.28 133.841L125.269 133.834C124.485 133.391 123.769 132.836 123.146 132.186L96.9192 125.785H68.2967C68.1739 126.003 68.0375 126.213 67.917 126.432C67.6987 126.828 67.4926 127.23 67.282 127.63C66.5786 128.958 65.9164 130.308 65.2965 131.678C64.7168 132.958 64.174 134.255 63.6687 135.566L63.599 135.74C62.2982 139.163 61.257 142.679 60.4844 146.258C64.9903 160.002 73.7575 171.812 85.2179 180.135C85.5513 180.377 85.9029 180.592 86.2409 180.829C88.1803 182.19 90.1894 183.45 92.2602 184.602C94.9993 186.126 97.8414 187.456 100.766 188.584Z" fill="white"/>
<path d="M169.394 204.854C169.21 203.035 169.115 201.208 169.109 199.379C169.109 198.847 168.898 198.336 168.521 197.96C168.145 197.584 167.635 197.372 167.102 197.372H82.9002C82.3679 197.372 81.8574 197.584 81.481 197.96C81.1045 198.336 80.893 198.847 80.8928 199.379C80.8928 201.222 80.7844 203.046 80.6078 204.854C80.4116 206.841 80.1082 208.816 79.6992 210.771C80.9201 211.416 82.1507 212.045 83.4026 212.64C84.2399 208.987 84.7301 205.263 84.8667 201.517C84.869 201.474 84.8736 201.43 84.8751 201.387H165.127C165.129 201.43 165.133 201.474 165.135 201.517C165.272 205.263 165.763 208.987 166.6 212.64C167.847 212.043 169.082 211.42 170.303 210.771C169.894 208.816 169.591 206.841 169.394 204.854Z" fill="#8B7460"/>
</g>
<defs>
<clipPath id="clip0_1789_6975">
<rect width="194" height="194" fill="white" transform="translate(28 28)"/>
</clipPath>
</defs>
</svg>
