<svg width="250" height="250" viewBox="0 0 250 250" fill="none" xmlns="http://www.w3.org/2000/svg">
<g clip-path="url(#clip0_1789_6906)">
<path d="M37 232L78.9128 112.347L37 85.0088V232ZM169.556 157.996V90.0645L37 232L169.556 157.996ZM37 18V75.3386L123.501 117.537L163.706 85.0088L37 18Z" fill="#13224D"/>
<path d="M138.002 226.513L141.261 216.503H157.104L160.363 226.513H170.311L155.175 182.615H143.212L128.055 226.513H138.002ZM143.619 209.258L149.022 192.647H149.365L154.768 209.258H143.619Z" fill="#13224D"/>
<path d="M184.3 182.615H173.773L187.258 204.564L173.516 226.513H184.15L193.154 211.53H193.497L202.501 226.513H213.178L199.479 204.564L212.878 182.615H202.394L193.497 197.576H193.154L184.3 182.615Z" fill="#13224D"/>
</g>
<defs>
<clipPath id="clip0_1789_6906">
<rect width="177" height="214" fill="white" transform="translate(37 18)"/>
</clipPath>
</defs>
</svg>
