<svg width="250" height="250" viewBox="0 0 250 250" fill="none" xmlns="http://www.w3.org/2000/svg">
<g clip-path="url(#clip0_1789_6982)">
<path d="M239.721 46.0037C236.018 46.1218 237.189 47.1794 229.188 49.1312C221.109 51.1025 211.24 50.4974 202.54 54.1156C176.568 64.9154 171.357 101.825 147.746 115.047C130.097 124.93 112.291 125.718 96.283 130.693C85.7624 133.963 74.2538 140.671 64.7222 148.815C57.3242 155.138 57.1311 160.699 49.4002 168.63C41.1323 177.113 16.5374 168.773 5.39062 181.757C8.98091 185.357 10.5558 186.365 17.6313 185.431C16.1671 188.184 7.53074 190.504 9.22089 194.554C11.0001 198.816 31.8781 201.704 50.8579 190.344C59.6968 185.053 66.7377 177.426 80.5026 175.606C98.3163 173.252 118.838 177.116 139.46 180.065C136.402 189.104 130.263 195.116 125.346 202.315C123.822 203.941 128.404 204.124 133.631 203.141C143.034 200.836 149.809 198.979 156.905 194.884C165.623 189.852 166.945 176.953 177.641 174.161C183.6 183.243 199.81 185.389 209.867 178.124C201.042 175.647 198.602 157.022 201.582 148.815C204.403 141.045 207.192 128.619 210.034 118.349C213.085 107.321 214.21 93.4195 217.903 87.8012C223.459 79.3492 229.597 76.4466 234.926 71.6806C240.256 66.9136 245.135 62.2749 244.974 51.3683C244.923 47.8551 243.09 45.8978 239.721 46.0037Z" fill="#002B64"/>
<path d="M13.0548 193.776C26.5704 195.697 34.7896 193.776 45.643 189.111C54.8784 185.139 63.7969 176.953 74.7027 173.483C90.7184 168.388 108.282 173.489 125.403 174.507C129.572 174.755 133.715 174.758 137.804 174.316C144.181 170.43 144.05 155.893 150.257 154.561C150.074 174.957 141.641 187.178 132.82 199.011C151.409 195.756 162.534 185.096 170.047 170.858C172.327 166.541 174.273 161.897 175.994 157.028C178.655 159.054 177.147 165.215 178.485 168.553C191.289 161.481 198.62 145.343 203.476 129.021C209.093 110.13 211.392 91.0021 215.015 85.4126C218.551 79.957 224.054 76.5944 229.077 73.1016C234.785 69.1303 239.876 64.9916 240.755 57.4253C234.736 56.8732 233.344 55.4921 232.453 52.4845C229.439 54.1686 226.668 54.5292 223.537 54.6221C220.821 54.7039 217.836 54.584 214.191 54.9549C184.043 58.0247 180.212 90.9696 160.889 109.645C159.464 111.014 157.95 112.288 156.357 113.459C149.589 118.46 141.287 122.032 133.653 124.926C121.295 129.607 109.546 129.94 97.9524 133.981C89.4407 136.947 80.7922 141.249 73.8019 145.993C72.1137 147.132 70.4755 148.342 68.8917 149.62C64.7896 152.947 62.0964 156.64 59.4923 160.438C56.8057 164.351 54.2119 168.378 50.2579 172.225C43.8516 178.462 19.9138 174.044 11.4865 179.828C10.5472 180.471 9.80105 181.243 9.29297 182.171C13.8919 184.243 16.9629 182.971 22.2527 183.551C22.9464 188.528 11.3393 191.485 13.0548 193.777V193.776ZM195.701 157.925C196.061 163.635 199.404 174.961 202.355 177.715C196.575 179.109 186.618 176.806 184.064 172.764C185.376 166.928 192.206 161.593 195.701 157.925Z" fill="white"/>
<path d="M204.172 67.316C208.439 70.989 217.394 68.0409 215.794 60.7321C209.163 60.1874 205.321 62.4189 204.172 67.316ZM233.924 58.7738C232.79 61.1345 230.616 64.1783 230.616 70.187C230.607 71.2186 229.826 71.9259 229.813 70.3357C229.872 64.4618 231.439 61.9236 233.105 58.587C233.879 57.2198 234.345 57.784 233.924 58.7738Z" fill="#002B64"/>
<path d="M232.779 57.8853C231.44 60.1373 228.216 64.2462 227.683 70.2326C227.584 71.2586 226.743 71.8943 226.87 70.3078C227.451 64.4637 230.028 60.8055 231.984 57.626C232.871 56.3332 233.288 56.9355 232.779 57.8853ZM231.737 56.7068C230.212 58.8389 225.248 63.7731 224.211 69.6954C224.024 70.7084 223.132 71.2735 223.394 69.7028C224.468 63.9265 228.747 59.3863 230.965 56.3834C231.958 55.1659 232.322 55.8025 231.737 56.7068ZM230.807 55.3926C228.995 57.2905 223.078 63.5826 221.213 69.3004C220.883 70.2772 219.919 70.7131 220.403 69.1944C222.284 63.6254 227.466 57.626 230.088 54.9632C231.246 53.8972 231.515 54.5775 230.807 55.3926Z" fill="#002B64"/>
</g>
<defs>
<clipPath id="clip0_1789_6982">
<rect width="240" height="158" fill="white" transform="translate(5 46)"/>
</clipPath>
</defs>
</svg>
