<svg width="250" height="250" viewBox="0 0 250 250" fill="none" xmlns="http://www.w3.org/2000/svg">
<g clip-path="url(#clip0_1789_6974)">
<path d="M199.068 56.987C198.912 55.867 197.923 55.2472 197.106 55.1789C196.29 55.1114 179.022 53.8418 179.022 53.8418C179.022 53.8418 167.03 42.032 165.713 40.7248C164.396 39.4184 161.824 39.8157 160.826 40.1073C160.679 40.1502 158.206 40.9074 154.114 42.1631C150.108 30.7284 143.038 20.2204 130.6 20.2204C130.257 20.2204 129.904 20.2342 129.55 20.2541C126.013 15.6138 121.631 13.5978 117.846 13.5978C88.8723 13.5978 75.0299 49.526 70.6898 67.7835C59.4312 71.244 51.4331 73.7042 50.4115 74.0225C44.1272 75.9779 43.9284 76.1743 43.1033 82.0482C42.4822 86.4952 26.0391 212.632 26.0391 212.632L154.168 236.446L223.592 221.548C223.592 221.548 199.221 58.107 199.068 56.987H199.068ZM147.033 44.3356L136.191 47.6642C136.195 46.9063 136.199 46.1606 136.199 45.3452C136.199 38.2385 135.204 32.5166 133.609 27.9806C140.018 28.7784 144.286 36.0116 147.033 44.3356ZM125.659 29.3898C127.441 33.8184 128.599 40.174 128.599 48.7504C128.599 49.1892 128.595 49.5904 128.591 49.9962C121.541 52.1626 113.879 54.5146 106.2 56.8743C110.512 40.3688 118.593 32.3969 125.659 29.3898ZM117.05 21.3066C118.301 21.3066 119.561 21.7277 120.766 22.5509C111.481 26.8851 101.528 37.8013 97.3243 59.6006L79.6252 65.038C84.5484 48.4106 96.2385 21.3066 117.05 21.3066H117.05Z" fill="#95BF46"/>
<path d="M197.107 55.1788C196.291 55.1113 179.024 53.8417 179.024 53.8417C179.024 53.8417 167.031 42.0318 165.715 40.7247C165.222 40.2383 164.558 39.989 163.864 39.8816L154.176 236.444L223.594 221.548C223.594 221.548 199.222 58.1069 199.069 56.9869C198.914 55.8669 197.925 55.2471 197.107 55.1788Z" fill="#5E8E3E"/>
<path d="M130.602 93.2293L122.042 118.488C122.042 118.488 114.542 114.517 105.348 114.517C91.8703 114.517 91.1921 122.907 91.1921 125.021C91.1921 136.557 121.508 140.977 121.508 167.998C121.508 189.258 107.914 202.947 89.5858 202.947C67.5915 202.947 56.3438 189.369 56.3438 189.369L62.2329 170.068C62.2329 170.068 73.7946 179.914 83.5505 179.914C89.9253 179.914 92.5184 174.935 92.5184 171.298C92.5184 156.25 67.6472 155.579 67.6472 130.852C67.6472 110.041 82.706 89.9016 113.104 89.9016C124.816 89.9016 130.602 93.2293 130.602 93.2293Z" fill="white"/>
</g>
<defs>
<clipPath id="clip0_1789_6974">
<rect width="198" height="224" fill="white" transform="translate(26 13)"/>
</clipPath>
</defs>
</svg>
