<svg width="250" height="250" viewBox="0 0 250 250" fill="none" xmlns="http://www.w3.org/2000/svg">
<g clip-path="url(#clip0_1789_6860)">
<path d="M200.745 218.706C200.743 221.885 199.49 224.933 197.262 227.181C195.034 229.429 192.013 230.693 188.862 230.695H62.0719C58.9212 230.695 55.8992 229.434 53.6695 227.188C51.4399 224.942 50.1847 221.895 50.1797 218.716V31.4846C50.1784 29.9086 50.4852 28.3478 51.0824 26.8916C51.6796 25.4354 52.5555 24.1122 53.6601 22.9978C54.7646 21.8834 56.0761 20.9997 57.5195 20.3972C58.9629 19.7947 60.5099 19.4852 62.0719 19.4865H143.443L200.745 78.4453V218.706Z" fill="#615EFF"/>
<path opacity="0.3" d="M149.748 76.9073L200.745 126.084V78.1013H155.571C153.599 78.1238 151.655 77.6302 149.928 76.6685L149.748 76.9073Z" fill="#1A194D"/>
<path d="M200.746 78.3497H155.449C152.298 78.3472 149.277 77.0833 147.05 74.8355C144.822 72.5878 143.569 69.54 143.566 66.3612V19.1616L200.746 78.3497Z" fill="#C5C4FF"/>
<path d="M79.7385 176.441V156.432H76.0391V150.911H79.7385V150.061C79.7856 146.664 80.901 144.06 83.0845 142.251C85.1581 140.552 88.0564 139.703 91.7794 139.703C94.12 139.703 96.8848 140.159 100.074 141.072L98.9898 147.348L97.6702 146.994C95.9579 146.538 94.1514 146.31 92.2506 146.31C89.2188 146.31 87.7029 147.694 87.7029 150.463V150.911H92.6983V156.432H87.7029V176.441H79.7385ZM103.726 176.441H95.738V150.911H103.726V176.441Z" fill="white"/>
<path d="M116.945 176.441H108.981V140.199H116.945V176.441Z" fill="white"/>
<path d="M134.193 176.913C130.282 176.913 127.117 175.749 124.697 173.421C122.278 171.077 121.069 168.033 121.069 164.289V163.629C121.069 161.018 121.548 158.713 122.506 156.715C123.48 154.718 124.894 153.176 126.747 152.091C128.601 150.99 130.8 150.439 133.345 150.439C136.927 150.439 139.754 151.556 141.828 153.79C143.901 156.007 144.938 159.106 144.938 163.086V166.177H129.151C129.434 167.609 130.054 168.733 131.012 169.551C131.971 170.369 133.212 170.778 134.735 170.778C137.249 170.778 139.212 169.897 140.626 168.136L144.255 172.43C143.265 173.798 141.859 174.892 140.037 175.71C138.231 176.512 136.283 176.913 134.193 176.913ZM133.298 156.574C130.973 156.574 129.591 158.115 129.151 161.198H137.162V160.585C137.194 159.311 136.872 158.328 136.196 157.636C135.521 156.928 134.555 156.574 133.298 156.574Z" fill="white"/>
<path d="M161.503 169.268C161.503 168.592 161.15 168.049 160.443 167.64C159.736 167.231 158.393 166.806 156.414 166.366C154.434 165.925 152.801 165.351 151.512 164.643C150.224 163.92 149.243 163.047 148.567 162.024C147.892 161.002 147.554 159.83 147.554 158.509C147.554 156.165 148.52 154.238 150.452 152.728C152.384 151.202 154.913 150.439 158.04 150.439C161.401 150.439 164.103 151.202 166.145 152.728C168.187 154.254 169.209 156.259 169.209 158.745H161.244C161.244 156.7 160.168 155.677 158.016 155.677C157.183 155.677 156.484 155.913 155.919 156.385C155.353 156.841 155.071 157.415 155.071 158.107C155.071 158.815 155.416 159.389 156.107 159.83C156.799 160.27 157.898 160.632 159.406 160.915C160.93 161.198 162.265 161.537 163.412 161.93C167.245 163.251 169.161 165.619 169.161 169.032C169.161 171.36 168.125 173.256 166.051 174.719C163.993 176.182 161.323 176.913 158.04 176.913C155.856 176.913 153.908 176.52 152.196 175.733C150.484 174.947 149.148 173.877 148.19 172.524C147.232 171.171 146.753 169.748 146.753 168.254H154.175C154.207 169.433 154.599 170.298 155.353 170.849C156.107 171.384 157.073 171.651 158.252 171.651C159.335 171.651 160.145 171.431 160.679 170.991C161.228 170.55 161.503 169.976 161.503 169.268Z" fill="white"/>
</g>
<defs>
<clipPath id="clip0_1789_6860">
<rect width="151" height="212" fill="white" transform="translate(50 19)"/>
</clipPath>
</defs>
</svg>
