<svg width="250" height="250" viewBox="0 0 250 250" fill="none" xmlns="http://www.w3.org/2000/svg">
<g clip-path="url(#clip0_1789_7025)">
<path d="M42.6485 124.997C42.6485 157.597 61.5926 185.766 89.063 199.117L49.7786 91.4811C45.0692 102.027 42.6396 113.448 42.6485 124.997ZM180.599 120.841C180.599 110.663 176.943 103.615 173.808 98.1286C169.633 91.3448 165.722 85.6 165.722 78.8162C165.722 71.2458 171.462 64.1988 179.549 64.1988C179.914 64.1988 180.261 64.2442 180.618 64.2646C165.965 50.8412 146.444 42.6455 125.003 42.6455C96.2323 42.6455 70.9197 57.4071 56.1941 79.7659C58.1262 79.8238 59.9487 79.863 61.4938 79.863C70.1079 79.863 83.442 78.8178 83.442 78.8178C87.8814 78.5561 88.4048 85.0766 83.9716 85.6016C83.9716 85.6016 79.5087 86.1265 74.5443 86.3867L104.535 175.591L122.559 121.539L109.726 86.3851C105.291 86.125 101.09 85.6 101.09 85.6C96.6522 85.3399 97.1725 78.5545 101.61 78.8162C101.61 78.8162 115.211 79.8614 123.303 79.8614C131.916 79.8614 145.251 78.8162 145.251 78.8162C149.694 78.5545 150.216 85.075 145.779 85.6C145.779 85.6 141.309 86.125 136.354 86.3851L166.115 174.914L174.328 147.464C177.89 136.073 180.599 127.892 180.599 120.841Z" fill="#00749A"/>
<path d="M126.444 132.201L101.734 204.001C109.289 206.227 117.123 207.357 124.999 207.357C134.589 207.357 143.786 205.698 152.347 202.689C152.117 202.329 151.921 201.95 151.761 201.554L126.444 132.201ZM197.262 85.4859C197.616 88.1091 197.817 90.9267 197.817 93.9543C197.817 102.311 196.256 111.706 191.555 123.452L166.399 196.184C190.883 181.907 207.351 155.381 207.351 124.998C207.373 111.187 203.902 97.5953 197.262 85.4859Z" fill="#00749A"/>
<path d="M125.001 28.9999C72.0673 28.9999 29 72.0641 29 124.998C29 177.937 72.0658 221.001 125.001 221.001C177.933 221.001 221.006 177.939 221.006 124.998C221.005 72.0641 177.933 28.9999 125.001 28.9999ZM125.001 216.6C74.4947 216.6 33.4019 175.507 33.4019 124.998C33.4019 74.493 74.4931 33.4033 125.001 33.4033C175.505 33.4033 216.595 74.493 216.595 124.998C216.595 175.507 175.504 216.6 125.001 216.6Z" fill="#00749A"/>
</g>
<defs>
<clipPath id="clip0_1789_7025">
<rect width="192" height="192" fill="white" transform="translate(29 29)"/>
</clipPath>
</defs>
</svg>
