<svg width="250" height="250" viewBox="0 0 250 250" fill="none" xmlns="http://www.w3.org/2000/svg">
<g clip-path="url(#clip0_1789_7004)">
<path d="M45 233L87.489 112.229L45 84.635V233ZM179.378 158.305V89.738L45 233L179.378 158.305ZM45 17V74.8745L132.691 117.467L173.448 84.635L45 17Z" fill="#13224D"/>
<path d="M170.215 197.476H179.778C178.56 188.714 170.802 182.548 160.739 182.548C148.981 182.548 139.918 190.986 139.918 205.351C139.918 219.37 148.394 228.067 160.934 228.067C172.171 228.067 180.191 220.993 180.191 209.332V203.75H161.565V210.803H171.128C170.997 216.298 167.237 219.781 160.978 219.781C153.914 219.781 149.459 214.524 149.459 205.264C149.459 196.048 154.088 190.834 160.891 190.834C165.738 190.834 169.019 193.322 170.215 197.476Z" fill="#13224D"/>
<path d="M187.259 227.462H196.67V213.096H204.581C214.818 213.096 220.773 207.017 220.773 198.168C220.773 189.363 214.926 183.154 204.82 183.154H187.259V227.462ZM196.67 205.589V190.813H203.016C208.45 190.813 211.08 193.755 211.08 198.168C211.08 202.56 208.45 205.589 203.06 205.589H196.67Z" fill="#13224D"/>
</g>
<defs>
<clipPath id="clip0_1789_7004">
<rect width="176" height="216" fill="white" transform="translate(45 17)"/>
</clipPath>
</defs>
</svg>
