<svg width="250" height="250" viewBox="0 0 250 250" fill="none" xmlns="http://www.w3.org/2000/svg">
<g clip-path="url(#clip0_1789_6929)">
<g clip-path="url(#clip1_1789_6929)">
<path d="M107.936 106.682H124.448L115.718 92.9359L99.6931 117.789H92.4005L111.891 87.9348C112.738 86.7288 114.151 86 115.718 86C117.232 86 118.645 86.7035 119.467 87.8847L139.035 117.789H131.742L128.301 112.236H111.584L107.937 106.682H107.936ZM183.692 112.235V86.3014H177.503V114.774C177.503 115.553 177.811 116.307 178.401 116.885C178.992 117.463 179.788 117.789 180.661 117.789H208.883L212.53 112.236H183.691L183.692 112.235ZM81.3064 107.586C87.3159 107.586 92.195 102.837 92.195 96.9564C92.195 91.0756 87.3159 86.3009 81.3064 86.3009H54.2322V117.79H60.4189V91.8555H80.8959C83.7721 91.8555 86.083 94.1428 86.083 96.9574C86.083 99.7715 83.7721 102.058 80.8959 102.058L63.4492 102.033L81.9228 117.79H90.9109L78.482 107.587H81.3069L81.3064 107.586ZM16.1499 117.789C7.26724 117.79 0.0585938 110.753 0.0585938 102.058C0.0585938 93.3629 7.26724 86.3019 16.1499 86.3019H34.8524C43.737 86.3019 50.9403 93.3629 50.9403 102.058C50.9403 110.753 43.737 117.789 34.8519 117.789H16.1499ZM34.4365 112.236C40.1913 112.236 44.8522 107.687 44.8522 102.058C44.8522 96.4291 40.1913 91.8555 34.4365 91.8555H16.5638C10.811 91.8555 6.14763 96.4291 6.14763 102.058C6.14763 107.687 10.811 112.236 16.5633 112.236H34.4361H34.4365ZM151.952 117.789C143.067 117.789 135.85 110.753 135.85 102.058C135.85 93.3629 143.067 86.3019 151.952 86.3019H174.165L170.544 91.8555H152.363C146.61 91.8555 141.937 96.4291 141.937 102.058C141.937 107.687 146.61 112.236 152.363 112.236H174.678L171.031 117.789H151.952ZM227.63 112.236C222.879 112.236 218.847 109.12 217.615 104.822H244.065L247.711 99.2685H217.615C218.847 94.9963 222.879 91.8555 227.63 91.8555H245.786L249.457 86.3009H227.219C218.334 86.3009 211.118 93.3624 211.118 102.057C211.118 110.753 218.334 117.789 227.219 117.789H246.299L249.945 112.236H227.63H227.63Z" fill="#EA1B22"/>
</g>
<path d="M13.1778 147.328H18.1768C18.1045 142.993 14.4908 140 8.99796 140C3.58943 140 -0.373622 142.945 -0.34953 147.363C-0.361576 150.95 2.20417 153.005 6.37199 153.99L9.05819 154.656C11.7444 155.297 13.2381 156.057 13.2501 157.696C13.2381 159.477 11.5276 160.689 8.87751 160.689C6.16721 160.689 4.2158 159.454 4.04716 157.019H-1C-0.867497 162.28 2.951 165 8.93773 165C14.9606 165 18.5021 162.162 18.5141 157.708C18.5021 153.658 15.4063 151.508 11.118 150.558L8.9016 150.036C6.75745 149.549 4.96264 148.765 4.99878 147.019C4.99878 145.451 6.40813 144.299 8.96183 144.299C11.4553 144.299 12.9851 145.416 13.1778 147.328Z" fill="black"/>
<path d="M33.0048 140.333H27.789V164.656H33.0048V140.333Z" fill="black"/>
<path d="M43.0626 164.656H59.7339V160.416H48.2784V154.608H58.8305V150.368H48.2784V144.572H59.6857V140.333H43.0626V164.656Z" fill="black"/>
<path d="M69.599 164.656H80.139C85.68 164.656 88.6313 161.805 88.6313 157.933C88.6313 154.335 86.0173 152.162 83.2107 152.031V151.793C85.7764 151.223 87.6676 149.43 87.6676 146.568C87.6676 142.922 84.9212 140.333 79.4765 140.333H69.599V164.656ZM74.8148 160.451V153.99H79.1874C81.6929 153.99 83.2468 155.416 83.2468 157.423C83.2468 159.252 81.982 160.451 79.0669 160.451H74.8148ZM74.8148 150.511V144.489H78.7778C81.0906 144.489 82.4036 145.665 82.4036 147.423C82.4036 149.347 80.8136 150.511 78.6815 150.511H74.8148Z" fill="black"/>
<path d="M97.7917 164.656H114.463V160.416H103.007V154.608H113.56V150.368H103.007V144.572H114.415V140.333H97.7917V164.656Z" fill="black"/>
<path d="M124.328 164.656H140.12V160.416H129.544V140.333H124.328V164.656Z" fill="black"/>
<path d="M184.725 148.848C184.038 143.23 179.726 140 174.016 140C167.499 140 162.524 144.537 162.524 152.494C162.524 160.428 167.415 164.988 174.016 164.988C180.34 164.988 184.159 160.843 184.725 156.366L179.449 156.342C178.955 158.943 176.883 160.439 174.1 160.439C170.354 160.439 167.812 157.696 167.812 152.494C167.812 147.435 170.318 144.549 174.136 144.549C176.991 144.549 179.051 146.176 179.449 148.848H184.725Z" fill="black"/>
<path d="M194.231 164.656H199.447V156.033H203.254L207.927 164.656H213.685L208.445 155.202C211.252 154.014 212.806 151.603 212.806 148.278C212.806 143.444 209.566 140.333 203.964 140.333H194.231V164.656ZM199.447 151.9V144.537H202.965C205.976 144.537 207.434 145.855 207.434 148.278C207.434 150.689 205.976 151.9 202.989 151.9H199.447Z" fill="black"/>
<path d="M222.258 140.333V164.656H227.318V148.765H227.522L233.907 164.537H237.352L243.736 148.824H243.941V164.656H249V140.333H242.568L235.774 156.675H235.485L228.691 140.333H222.258Z" fill="black"/>
</g>
<defs>
<clipPath id="clip0_1789_6929">
<rect width="250" height="250" fill="white"/>
</clipPath>
<clipPath id="clip1_1789_6929">
<rect width="250" height="32" fill="white" transform="translate(0 86)"/>
</clipPath>
</defs>
</svg>
