<svg width="250" height="250" viewBox="0 0 250 250" fill="none" xmlns="http://www.w3.org/2000/svg">
<g clip-path="url(#clip0_2189_3905)">
<path d="M177 30H73C49.2518 30 30 49.2518 30 73V177C30 200.748 49.2518 220 73 220H177C200.748 220 220 200.748 220 177V73C220 49.2518 200.748 30 177 30Z" fill="#F78422"/>
<path d="M153.493 96.3559C127.743 70.6061 93.4818 56.4248 57.0203 56.4248V83.2523C86.3159 83.2523 113.84 94.6428 134.523 115.326C155.206 136.009 166.597 163.533 166.597 192.829H193.424C193.424 156.368 179.243 122.106 153.493 96.3559Z" fill="white"/>
<path d="M56.7422 101.823V128.65C92.1301 128.65 120.921 157.441 120.921 192.829H147.748C147.748 142.648 106.923 101.823 56.7422 101.823Z" fill="white"/>
<path d="M75.7908 193.575C86.4028 193.575 95.0055 184.972 95.0055 174.36C95.0055 163.748 86.4028 155.146 75.7908 155.146C65.1789 155.146 56.5762 163.748 56.5762 174.36C56.5762 184.972 65.1789 193.575 75.7908 193.575Z" fill="white"/>
</g>
<defs>
<clipPath id="clip0_2189_3905">
<rect width="190" height="190" fill="white" transform="translate(30 30)"/>
</clipPath>
</defs>
</svg>
