<svg width="250" height="250" viewBox="0 0 250 250" fill="none" xmlns="http://www.w3.org/2000/svg">
<g clip-path="url(#clip0_1789_7022)">
<path fill-rule="evenodd" clip-rule="evenodd" d="M222.375 53H27.2478C14.8992 53 4.90271 63.1635 5.00071 75.4978V150.491C5.00071 162.923 14.9972 172.988 27.3458 172.988H119.764L162.004 196.67L152.4 172.988H222.375C234.724 172.988 244.72 162.923 244.72 150.491V75.4978C244.72 63.0648 234.724 53 222.375 53ZM23.132 70.3667C20.3879 70.5641 18.3297 71.5509 16.9577 73.4256C15.5856 75.2018 15.0956 77.4713 15.3896 80.0369C21.1719 117.04 26.5621 142.005 31.5604 154.931C33.5205 159.667 35.7746 161.937 38.4207 161.74C42.5369 161.444 47.4371 155.721 53.2194 144.57C56.2575 138.255 60.9618 128.782 67.3321 116.152C72.6241 134.801 79.8763 148.813 88.9912 158.187C91.5395 160.851 94.1855 162.036 96.7332 161.838C98.9878 161.641 100.751 160.457 101.928 158.286C102.908 156.411 103.3 154.24 103.104 151.773C102.516 142.794 103.398 130.262 105.848 114.178C108.396 97.601 111.532 85.6613 115.354 78.5567C116.138 77.0766 116.432 75.5965 116.334 73.8204C116.138 71.5508 115.158 69.676 113.296 68.1959C111.434 66.7158 109.376 66.0251 107.122 66.2224C104.28 66.4197 102.124 67.8012 100.654 70.5641C94.5776 81.7143 90.265 99.7718 87.7173 124.835C83.9929 115.362 80.8565 104.212 78.4065 91.0884C77.3287 85.2667 74.6826 82.5037 70.3701 82.7998C67.43 82.9971 64.98 84.9706 63.0199 88.7202L41.5569 129.868C38.0287 115.56 34.6965 98.0944 31.6584 77.4713C30.9724 72.3403 28.1302 69.972 23.132 70.3667ZM211.987 77.4716C218.945 78.9518 224.14 82.7014 227.668 88.9179C230.804 94.2464 232.372 100.66 232.372 108.357C232.372 118.52 229.824 127.796 224.727 136.282C218.847 146.149 211.203 151.083 201.696 151.083C200.031 151.083 198.266 150.885 196.404 150.491C189.446 149.011 184.252 145.261 180.723 139.045C177.587 133.618 176.019 127.105 176.019 119.507C176.019 109.344 178.567 100.068 183.663 91.6808C189.642 81.8133 197.286 76.8796 206.695 76.8796C208.361 76.8796 210.125 77.077 211.987 77.4716ZM207.871 130.854C211.497 127.598 213.947 122.763 215.319 116.251C215.711 113.981 216.005 111.514 216.005 108.949C216.005 106.087 215.417 103.028 214.241 99.9695C212.771 96.1212 210.811 94.049 208.458 93.5556C204.931 92.8649 201.5 94.8384 198.266 99.6735C195.62 103.423 193.954 107.37 193.072 111.416C192.582 113.685 192.386 116.152 192.386 118.619C192.386 121.481 192.974 124.539 194.15 127.598C195.62 131.447 197.58 133.519 199.932 134.012C202.382 134.505 205.028 133.42 207.871 130.854ZM166.219 88.9179C162.69 82.7014 157.398 78.9518 150.538 77.4716C148.675 77.077 146.912 76.8796 145.245 76.8796C135.837 76.8796 128.193 81.8133 122.215 91.6808C117.118 100.068 114.57 109.344 114.57 119.507C114.57 127.105 116.138 133.618 119.274 139.045C122.803 145.261 127.997 149.011 134.955 150.491C136.817 150.885 138.581 151.083 140.247 151.083C149.754 151.083 157.398 146.149 163.278 136.282C168.375 127.796 170.923 118.52 170.923 108.357C170.923 100.66 169.354 94.2464 166.219 88.9179ZM153.87 116.251C152.498 122.763 150.047 127.598 146.421 130.854C143.579 133.42 140.933 134.505 138.483 134.012C136.131 133.519 134.171 131.447 132.701 127.598C131.525 124.539 130.937 121.481 130.937 118.619C130.937 116.152 131.133 113.685 131.623 111.416C132.505 107.37 134.171 103.423 136.817 99.6735C140.051 94.8384 143.482 92.8649 147.009 93.5556C149.362 94.049 151.322 96.1212 152.792 99.9695C153.968 103.028 154.556 106.087 154.556 108.949C154.556 111.514 154.36 113.981 153.87 116.251Z" fill="#7F54B3"/>
</g>
<defs>
<clipPath id="clip0_1789_7022">
<rect width="240" height="144" fill="white" transform="translate(5 53)"/>
</clipPath>
</defs>
</svg>
