<svg width="250" height="250" viewBox="0 0 250 250" fill="none" xmlns="http://www.w3.org/2000/svg">
<g clip-path="url(#clip0_1789_6885)">
<path opacity="0.25" d="M143.469 212.525L213.068 142.982L177.983 107.925L108.383 177.468L143.469 212.525Z" fill="#59C1A7"/>
<path opacity="0.25" d="M177.549 142.555L212.635 107.498L143.036 37.955L107.95 73.0123L177.549 142.555Z" fill="#36C3F2"/>
<path opacity="0.15" d="M106.873 212.717L141.959 177.659L72.3599 108.117L37.2741 143.174L106.873 212.717Z" fill="#EF3D55"/>
<path opacity="0.15" d="M73.9986 140.847L143.598 71.304L108.512 36.2466L38.9128 105.789L73.9986 140.847Z" fill="#6A266D"/>
<path d="M124.999 79.8503C138.797 79.8503 149.982 68.674 149.982 54.8874C149.982 41.1008 138.797 29.9246 124.999 29.9246C111.201 29.9246 100.016 41.1008 100.016 54.8874C100.016 68.674 111.201 79.8503 124.999 79.8503Z" fill="#6A266D"/>
<path d="M195.553 150.578C209.351 150.578 220.537 139.402 220.537 125.616C220.537 111.829 209.351 100.653 195.553 100.653C181.756 100.653 170.57 111.829 170.57 125.616C170.57 139.402 181.756 150.578 195.553 150.578Z" fill="#36C3F2"/>
<path d="M124.999 221.075C138.797 221.075 149.982 209.899 149.982 196.113C149.982 182.326 138.797 171.15 124.999 171.15C111.201 171.15 100.016 182.326 100.016 196.113C100.016 209.899 111.201 221.075 124.999 221.075Z" fill="#59C1A7"/>
<path d="M54.5613 150.347C68.3591 150.347 79.5444 139.171 79.5444 125.384C79.5444 111.598 68.3591 100.422 54.5613 100.422C40.7635 100.422 29.5781 111.598 29.5781 125.384C29.5781 139.171 40.7635 150.347 54.5613 150.347Z" fill="#EF3D55"/>
</g>
<defs>
<clipPath id="clip0_1789_6885">
<rect width="192" height="193" fill="white" transform="translate(29 29)"/>
</clipPath>
</defs>
</svg>
