<svg width="250" height="250" viewBox="0 0 250 250" fill="none" xmlns="http://www.w3.org/2000/svg">
<path d="M32.8115 128.784H27.0199V141.7H19.75V106.417H32.86C37.0281 106.417 40.243 107.346 42.5047 109.204C44.7665 111.061 45.8973 113.687 45.8973 117.079C45.8973 119.486 45.3723 121.498 44.3222 123.113C43.2882 124.713 41.7131 125.989 39.5968 126.942L47.2301 141.361V141.7H39.4271L32.8115 128.784ZM27.0199 122.895H32.8842C34.7098 122.895 36.1234 122.435 37.125 121.514C38.1266 120.577 38.6274 119.293 38.6274 117.661C38.6274 115.997 38.1509 114.688 37.1977 113.735C36.2607 112.782 34.8148 112.305 32.86 112.305H27.0199V122.895Z" fill="#615EFF"/>
<path d="M72.6747 126.409H58.7165V135.86H75.098V141.7H51.4467V106.417H75.0495V112.305H58.7165V120.714H72.6747V126.409Z" fill="#615EFF"/>
<path d="M97.6588 132.443C97.6588 131.07 97.1742 130.02 96.2049 129.293C95.2355 128.55 93.4908 127.774 90.9706 126.966C88.4503 126.142 86.4552 125.335 84.985 124.543C80.9785 122.378 78.9753 119.462 78.9753 115.795C78.9753 113.889 79.5084 112.192 80.5746 110.706C81.657 109.204 83.1999 108.032 85.2031 107.192C87.2225 106.352 89.4843 105.932 91.9883 105.932C94.5086 105.932 96.7541 106.393 98.7251 107.313C100.696 108.218 102.223 109.503 103.305 111.167C104.404 112.83 104.953 114.721 104.953 116.837H97.6831C97.6831 115.221 97.1742 113.969 96.1564 113.081C95.1386 112.176 93.7089 111.724 91.8672 111.724C90.0901 111.724 88.7088 112.104 87.7233 112.863C86.7379 113.606 86.2451 114.591 86.2451 115.819C86.2451 116.966 86.8186 117.927 87.9657 118.703C89.1289 119.478 90.8332 120.205 93.0788 120.884C97.2146 122.128 100.228 123.671 102.118 125.512C104.008 127.354 104.953 129.648 104.953 132.395C104.953 135.448 103.798 137.847 101.488 139.592C99.1774 141.32 96.0675 142.185 92.158 142.185C89.4439 142.185 86.9721 141.692 84.7427 140.706C82.5133 139.705 80.8089 138.34 79.6295 136.611C78.4664 134.882 77.8848 132.879 77.8848 130.601H85.1789C85.1789 134.495 87.5052 136.441 92.158 136.441C93.8866 136.441 95.2355 136.094 96.2049 135.399C97.1742 134.689 97.6588 133.703 97.6588 132.443Z" fill="#615EFF"/>
<path d="M136.456 112.305H125.648V141.7H118.378V112.305H107.715V106.417H136.456V112.305Z" fill="#615EFF"/>
<path d="M140.503 138.259C140.503 137.144 140.874 136.24 141.617 135.545C142.377 134.85 143.322 134.503 144.453 134.503C145.6 134.503 146.545 134.85 147.288 135.545C148.047 136.24 148.427 137.144 148.427 138.259C148.427 139.357 148.055 140.254 147.312 140.949C146.569 141.627 145.616 141.967 144.453 141.967C143.306 141.967 142.361 141.627 141.617 140.949C140.874 140.254 140.503 139.357 140.503 138.259ZM140.503 118.412C140.503 117.297 140.874 116.393 141.617 115.698C142.377 115.003 143.322 114.656 144.453 114.656C145.6 114.656 146.545 115.003 147.288 115.698C148.047 116.393 148.427 117.297 148.427 118.412C148.427 119.511 148.055 120.407 147.312 121.102C146.569 121.781 145.616 122.12 144.453 122.12C143.306 122.12 142.361 121.781 141.617 121.102C140.874 120.407 140.503 119.511 140.503 118.412Z" fill="#615EFF"/>
<path d="M174.55 134.43H161.803L159.38 141.7H151.65L164.784 106.417H171.521L184.728 141.7H176.997L174.55 134.43ZM163.766 128.542H172.587L168.152 115.335L163.766 128.542Z" fill="#615EFF"/>
<path d="M195.293 129.268V141.7H188.023V106.417H201.788C204.437 106.417 206.764 106.902 208.767 107.871C210.786 108.84 212.337 110.221 213.42 112.015C214.502 113.792 215.043 115.819 215.043 118.097C215.043 121.554 213.856 124.285 211.481 126.288C209.122 128.275 205.851 129.268 201.667 129.268H195.293ZM195.293 123.38H201.788C203.71 123.38 205.172 122.928 206.174 122.023C207.192 121.118 207.701 119.826 207.701 118.146C207.701 116.417 207.192 115.02 206.174 113.953C205.156 112.887 203.751 112.338 201.957 112.305H195.293V123.38Z" fill="#615EFF"/>
<path d="M227.79 141.7H220.52V106.417H227.79V141.7Z" fill="#615EFF"/>
<path d="M14.4201 150.424C8.60422 148.792 5.69627 145.036 5.69627 139.156V134.333C5.69627 130.924 4.25845 129.22 1.38281 129.22V124.204C4.19383 124.204 5.63165 122.596 5.69627 119.381V114.244C5.69627 111.255 6.42326 108.84 7.87724 106.998C9.33121 105.157 11.5122 103.824 14.4201 103L15.7772 106.902C14.5494 107.354 13.6204 108.145 12.9904 109.276C12.3603 110.391 12.0291 111.942 11.9968 113.929V119.018C11.9968 122.669 10.5509 125.23 7.65914 126.7C10.5509 128.186 11.9968 130.763 11.9968 134.43V139.567C12.0776 143.348 13.3377 145.658 15.7772 146.498L14.4201 150.424Z" fill="#1A194D"/>
<path d="M232.227 146.498C234.682 145.626 235.942 143.283 236.007 139.471V134.333C236.007 130.682 237.485 128.146 240.442 126.724C237.485 125.302 236.007 122.726 236.007 118.994V113.929C235.942 110.165 234.682 107.822 232.227 106.902L233.584 103C236.475 103.808 238.648 105.132 240.102 106.974C241.556 108.8 242.291 111.199 242.307 114.171V119.381C242.372 122.596 243.81 124.204 246.621 124.204V129.22C243.745 129.22 242.307 130.908 242.307 134.285V139.543C242.178 145.198 239.27 148.824 233.584 150.424L232.227 146.498Z" fill="#1A194D"/>
</svg>
