<svg width="250" height="250" viewBox="0 0 250 250" fill="none" xmlns="http://www.w3.org/2000/svg">
<g clip-path="url(#clip0_1789_6990)">
<path d="M120.871 191.906C120.871 198.758 115.337 204.312 108.509 204.312C101.682 204.312 96.1484 198.758 96.1484 191.906C96.1484 185.053 101.682 179.5 108.509 179.5C115.337 179.5 120.871 185.053 120.871 191.906Z" fill="#0066CC"/>
<path d="M172.844 191.906C172.844 198.758 167.309 204.312 160.482 204.312C153.655 204.312 148.121 198.758 148.121 191.906C148.121 185.053 153.655 179.5 160.482 179.5C167.309 179.5 172.844 185.053 172.844 191.906Z" fill="#0066CC"/>
<path d="M165.022 167.095H103.971C99.0679 167.095 94.6495 164.13 92.7786 159.582L76.6972 120.511H64.1094C57.422 120.511 52 115.07 52 108.358C52 101.647 57.422 96.2062 64.1094 96.2062H84.7969C89.6997 96.2062 94.1182 99.1729 95.9891 103.719L112.07 142.791H157.003L173.55 103.616C176.161 97.4351 183.268 94.555 189.427 97.1692C195.583 99.7896 198.459 106.921 195.85 113.101L176.172 159.685C174.274 164.177 169.884 167.095 165.022 167.095Z" fill="#0066CC"/>
<path d="M178.55 55.8893C173.916 51.0466 166.251 50.8917 161.427 55.5414L146.352 70.0665V12.1532C146.352 5.44053 140.932 0.000854492 134.243 0.000854492C127.555 0.000854492 122.133 5.44053 122.133 12.1532V69.7824L107.626 55.6007C102.835 50.919 95.1687 51.0177 90.502 55.827C85.8353 60.6348 85.9352 68.3287 90.726 73.0119L125.793 107.289C125.954 107.445 126.126 107.584 126.293 107.73C126.381 107.807 126.466 107.887 126.556 107.963C126.968 108.304 127.396 108.614 127.84 108.892C127.902 108.93 127.969 108.965 128.032 109.004C128.468 109.265 128.916 109.498 129.375 109.7C129.417 109.718 129.454 109.744 129.496 109.762C129.525 109.774 129.553 109.783 129.581 109.794C129.856 109.909 130.135 110.008 130.416 110.101C130.519 110.136 130.621 110.177 130.724 110.209C130.999 110.291 131.279 110.357 131.558 110.421C131.67 110.447 131.78 110.48 131.892 110.502C132.172 110.558 132.454 110.594 132.735 110.629C132.847 110.643 132.956 110.667 133.068 110.676C133.447 110.714 133.825 110.733 134.203 110.733C134.216 110.733 134.228 110.736 134.241 110.736H134.243C134.275 110.736 134.308 110.731 134.34 110.731C134.694 110.728 135.048 110.713 135.399 110.679C135.608 110.66 135.816 110.62 136.021 110.59C136.195 110.564 136.37 110.546 136.542 110.512C136.789 110.465 137.033 110.398 137.276 110.336C137.405 110.301 137.537 110.277 137.664 110.239C137.915 110.165 138.159 110.073 138.405 109.982C138.524 109.94 138.645 109.903 138.763 109.855C138.997 109.76 139.226 109.65 139.456 109.539C139.582 109.479 139.709 109.425 139.831 109.361C140.04 109.252 140.243 109.129 140.447 109.006C140.587 108.922 140.729 108.843 140.865 108.753C141.044 108.636 141.216 108.506 141.39 108.378C141.545 108.264 141.701 108.152 141.851 108.03C142.002 107.907 142.147 107.774 142.294 107.643C142.406 107.543 142.523 107.453 142.632 107.348L178.203 73.0727C183.027 68.4229 183.182 60.7305 178.55 55.8893Z" fill="#99CC00"/>
<path d="M136.113 250.684C123.981 250.684 111.327 246.099 97.7235 236.932C92.1713 233.191 90.6924 225.641 94.4206 220.069C98.1488 214.499 105.672 213.015 111.225 216.755C132.429 231.044 144.41 227.602 156.872 217.42C162.059 213.183 169.687 213.966 173.909 219.171C178.13 224.377 177.349 232.031 172.162 236.268C160.397 245.879 148.53 250.684 136.113 250.684Z" fill="#99CC00"/>
</g>
<defs>
<clipPath id="clip0_1789_6990">
<rect width="250" height="250" fill="white"/>
</clipPath>
</defs>
</svg>
