<svg width="250" height="250" viewBox="0 0 250 250" fill="none" xmlns="http://www.w3.org/2000/svg">
<path d="M49.8749 32.7274C50.0959 31.05 51.635 29.8694 53.3124 30.0905L218.334 51.8384C220.011 52.0594 221.192 53.5985 220.971 55.2759L199.49 218.272C199.269 219.95 197.73 221.13 196.052 220.909L31.0307 199.161C29.3533 198.94 28.1727 197.401 28.3938 195.724L49.8749 32.7274Z" fill="url(#paint0_radial_1789_7039)"/>
<g filter="url(#filter0_di_1789_7039)">
<path fill-rule="evenodd" clip-rule="evenodd" d="M41.4541 40.2333C39.7622 40.2333 38.3906 41.6048 38.3906 43.2967V207.703C38.3906 209.395 39.7622 210.766 41.4541 210.766H207.902C209.594 210.766 210.966 209.395 210.966 207.703V43.2967C210.966 41.6048 209.594 40.2333 207.902 40.2333H41.4541ZM174.709 138.775C179.3 141.398 187.98 137.243 191.043 117.841C194.107 98.439 189.001 87.2063 179.3 73.4207C169.599 59.6351 151.224 47.3814 137.438 46.8709C123.652 46.3603 121.096 50.9549 121.097 56.5714C121.098 59.7629 128.683 65.2626 138.417 72.3206C145.813 77.6838 154.451 83.9468 161.945 90.7808C173.411 101.237 173.295 117.68 173.219 128.392C173.18 133.895 173.152 137.885 174.709 138.775ZM122.643 95.5483C113.229 98.1238 100.749 101.539 88.9422 109.672C78.4696 116.886 72.3446 125.586 67.5228 132.434C61.7661 140.611 57.8671 146.148 50.6451 143.37C37.3741 138.264 51.1553 106.098 68.0043 92.8227C84.8534 79.5477 106.808 78.5266 106.808 78.5266C106.808 78.5266 138.468 78.5266 137.958 87.2064C137.709 91.426 131.549 93.1116 122.643 95.5483ZM149.188 96.9075C136.526 96.499 134.381 110.012 134.892 116.82C135.573 120.905 139.385 129.278 149.188 130.095C161.442 131.116 165.016 125.5 166.548 116.82C168.079 108.14 165.016 97.4181 149.188 96.9075ZM134.14 136.609C134.074 143.028 133.994 150.702 139.996 156.135C145.695 161.292 157.745 159.667 168.319 158.241C177.635 156.984 185.806 155.883 187.479 159.709C191.054 167.878 171.392 188.811 152.758 188.811C137.951 188.811 122.125 179.112 114.467 160.73C106.809 142.348 124.679 121.415 131.317 125.5C134.237 127.297 134.193 131.566 134.14 136.609ZM97.6148 142.349C100.366 131.651 111.35 124.246 119.723 118.602C125.336 114.818 129.775 111.825 129.775 109.161C129.774 102.524 107.649 102.719 99.1403 108.139C87.9139 115.288 71.5749 130.095 74.1227 159.707C77.233 195.857 97.0979 206.17 102.204 202.085C104.556 200.203 102.791 191.167 100.653 180.221C98.1504 167.41 95.1369 151.984 97.6148 142.349Z" fill="url(#paint1_linear_1789_7039)"/>
</g>
<defs>
<filter id="filter0_di_1789_7039" x="34.3906" y="40.2333" width="180.578" height="178.533" filterUnits="userSpaceOnUse" color-interpolation-filters="sRGB">
<feFlood flood-opacity="0" result="BackgroundImageFix"/>
<feColorMatrix in="SourceAlpha" type="matrix" values="0 0 0 0 0 0 0 0 0 0 0 0 0 0 0 0 0 0 127 0" result="hardAlpha"/>
<feOffset dy="4"/>
<feGaussianBlur stdDeviation="2"/>
<feComposite in2="hardAlpha" operator="out"/>
<feColorMatrix type="matrix" values="0 0 0 0 0 0 0 0 0 0 0 0 0 0 0 0 0 0 0.25 0"/>
<feBlend mode="normal" in2="BackgroundImageFix" result="effect1_dropShadow_1789_7039"/>
<feBlend mode="normal" in="SourceGraphic" in2="effect1_dropShadow_1789_7039" result="shape"/>
<feColorMatrix in="SourceAlpha" type="matrix" values="0 0 0 0 0 0 0 0 0 0 0 0 0 0 0 0 0 0 127 0" result="hardAlpha"/>
<feOffset/>
<feGaussianBlur stdDeviation="2"/>
<feComposite in2="hardAlpha" operator="arithmetic" k2="-1" k3="1"/>
<feColorMatrix type="matrix" values="0 0 0 0 0 0 0 0 0 0 0 0 0 0 0 0 0 0 1 0"/>
<feBlend mode="normal" in2="shape" result="effect2_innerShadow_1789_7039"/>
</filter>
<radialGradient id="paint0_radial_1789_7039" cx="0" cy="0" r="1" gradientUnits="userSpaceOnUse" gradientTransform="translate(124.683 125.5) rotate(97.5077) scale(85.2665 86.2876)">
<stop stop-color="#FACE34"/>
<stop offset="1" stop-color="#E03712"/>
</radialGradient>
<linearGradient id="paint1_linear_1789_7039" x1="124.999" y1="64.2304" x2="124.999" y2="110.693" gradientUnits="userSpaceOnUse">
<stop stop-color="#424242"/>
<stop offset="1"/>
</linearGradient>
</defs>
</svg>
