<svg width="250" height="250" viewBox="0 0 250 250" fill="none" xmlns="http://www.w3.org/2000/svg">
<g clip-path="url(#clip0_1789_7000)">
<path fill-rule="evenodd" clip-rule="evenodd" d="M222 124.948C222 178.548 178.605 222 125.074 222C123.729 222 122.39 221.973 121.058 221.918L111.738 205.752C116.078 206.465 120.533 206.836 125.074 206.836C170.241 206.836 206.855 170.173 206.855 124.948C206.855 118.071 206.009 111.391 204.414 105.009L214.516 87.4883C219.337 99.0146 222 111.67 222 124.948Z" fill="#ED9B33"/>
<path fill-rule="evenodd" clip-rule="evenodd" d="M43.1534 124.966C43.1534 162.756 68.7963 194.56 103.639 203.943L113.633 221.242C65.4188 215.625 28 174.663 28 124.966C28 106.044 33.4241 88.3891 42.8031 73.4688H61.4069C49.9929 87.5289 43.1534 105.449 43.1534 124.966Z" fill="#00C3F2"/>
<path fill-rule="evenodd" clip-rule="evenodd" d="M125.003 28C162.67 28 195.323 49.4155 211.391 80.7056L201.981 96.9609C190.584 65.5573 160.421 43.1172 125.003 43.1172C102.262 43.1172 81.6868 52.3683 66.8549 67.3034L46.9453 67.3035C64.6121 43.4611 92.9971 28 125.003 28Z" fill="#00B47E"/>
<path fill-rule="evenodd" clip-rule="evenodd" d="M111.423 162.447L79.2181 130.35C78.6252 129.759 78.6252 128.801 79.2181 128.21L94.2472 113.231C94.8401 112.64 95.8013 112.64 96.3942 113.231L112.497 129.28L154.364 87.5526C154.956 86.9616 155.918 86.9616 156.511 87.5526L171.54 102.532C172.133 103.122 172.133 104.08 171.54 104.671L113.57 162.447C112.977 163.038 112.016 163.038 111.423 162.447Z" fill="#004976"/>
</g>
<defs>
<clipPath id="clip0_1789_7000">
<rect width="194" height="194" fill="white" transform="translate(28 28)"/>
</clipPath>
</defs>
</svg>
