<svg width="250" height="250" viewBox="0 0 250 250" fill="none" xmlns="http://www.w3.org/2000/svg">
<path d="M165.808 73.8736C165.808 85.3984 160.931 95.5904 152.927 103.568C144.027 112.427 131.136 114.642 131.136 122.178C131.136 132.37 147.587 129.263 163.37 144.992C173.823 155.41 180.263 169.149 180.263 185.094C180.263 216.552 154.923 241.591 123.132 241.591C91.3405 241.591 66 216.581 66 185.123C66 169.169 72.4507 155.429 82.8937 145.022C98.6762 129.283 115.127 132.389 115.127 122.197C115.127 114.661 102.246 112.446 93.3465 103.587C85.3422 95.61 80.455 85.418 80.455 73.4522C80.455 50.4222 99.3448 31.8022 122.463 31.8022C126.917 31.8022 130.92 32.4686 134.253 32.4686C140.251 32.4686 143.369 29.8128 143.369 25.5988C143.369 23.1586 142.248 20.0618 142.248 16.7396C142.248 9.2034 148.698 3 156.477 3C164.264 3 170.489 9.4288 170.489 17.1806C170.489 25.3734 164.038 29.1366 159.151 30.9202C155.149 32.2432 152.032 34.017 152.032 38.0056C152.032 45.5124 165.818 52.833 165.818 73.8736H165.808ZM161.383 185.123C161.383 163.191 145.158 145.463 123.141 145.463C101.134 145.463 84.9095 163.191 84.9095 185.123C84.9095 206.83 101.134 224.784 123.141 224.784C145.148 224.784 161.383 206.811 161.383 185.123ZM148.256 73.4326C148.256 59.4774 136.918 47.9526 123.132 47.9526C109.355 47.9526 98.0173 59.4774 98.0173 73.4326C98.0173 87.3878 109.355 98.9126 123.132 98.9126C136.918 98.9126 148.256 87.3878 148.256 73.4326Z" fill="#008561"/>
</svg>
