<svg width="250" height="250" viewBox="0 0 250 250" fill="none" xmlns="http://www.w3.org/2000/svg">
<path d="M218.174 124.733C218.174 176.36 176.307 218.227 124.681 218.227C73.0542 218.227 31.1875 176.36 31.1875 124.733C31.1875 73.1067 73.0542 31.24 124.681 31.24C176.307 31.24 218.174 73.1067 218.174 124.733Z" fill="#CA2127"/>
<path d="M116.838 62.5467C90.4916 65.3733 64.2516 85.64 63.1849 114.653C62.4916 132.36 69.9049 145.64 87.6116 149.373C89.6383 141 90.0116 136.467 90.0116 136.467C90.0116 136.467 82.2249 129 81.4249 124.253C74.9183 86.0667 127.665 59.9867 155.345 86.6533C174.438 105.16 161.852 162.067 131.025 156.147C101.478 150.493 145.478 105.213 121.905 96.3067C102.758 89.0533 92.5716 118.44 101.638 133C96.3049 158.067 84.8383 181.693 89.4783 213.107C104.572 202.707 109.638 182.76 113.798 161.96C121.372 166.333 125.425 170.92 135.078 171.613C170.705 174.227 190.598 137.747 185.745 104.04C181.372 74.1733 150.118 58.9733 116.838 62.5467Z" fill="white"/>
</svg>
