<svg width="250" height="250" viewBox="0 0 250 250" fill="none" xmlns="http://www.w3.org/2000/svg">
<g clip-path="url(#clip0_1789_6927)">
<path d="M107.936 106.682H124.448L115.718 92.9359L99.6931 117.789H92.4005L111.891 87.9348C112.738 86.7288 114.151 86 115.718 86C117.232 86 118.645 86.7035 119.467 87.8847L139.035 117.789H131.742L128.301 112.236H111.584L107.937 106.682H107.936ZM183.692 112.235V86.3014H177.503V114.774C177.503 115.553 177.811 116.307 178.401 116.885C178.992 117.463 179.788 117.789 180.661 117.789H208.883L212.53 112.236H183.691L183.692 112.235ZM81.3064 107.586C87.3159 107.586 92.195 102.837 92.195 96.9564C92.195 91.0756 87.3159 86.3009 81.3064 86.3009H54.2322V117.79H60.4189V91.8555H80.8959C83.7721 91.8555 86.083 94.1428 86.083 96.9574C86.083 99.7715 83.7721 102.058 80.8959 102.058L63.4492 102.033L81.9228 117.79H90.9109L78.482 107.587H81.3069L81.3064 107.586ZM16.1499 117.789C7.26724 117.79 0.0585938 110.753 0.0585938 102.058C0.0585938 93.3629 7.26724 86.3019 16.1499 86.3019H34.8524C43.737 86.3019 50.9403 93.3629 50.9403 102.058C50.9403 110.753 43.737 117.789 34.8519 117.789H16.1499ZM34.4365 112.236C40.1913 112.236 44.8522 107.687 44.8522 102.058C44.8522 96.4291 40.1913 91.8555 34.4365 91.8555H16.5638C10.811 91.8555 6.14763 96.4291 6.14763 102.058C6.14763 107.687 10.811 112.236 16.5633 112.236H34.4361H34.4365ZM151.952 117.789C143.067 117.789 135.85 110.753 135.85 102.058C135.85 93.3629 143.067 86.3019 151.952 86.3019H174.165L170.544 91.8555H152.363C146.61 91.8555 141.937 96.4291 141.937 102.058C141.937 107.687 146.61 112.236 152.363 112.236H174.678L171.031 117.789H151.952ZM227.63 112.236C222.879 112.236 218.847 109.12 217.615 104.822H244.065L247.711 99.2685H217.615C218.847 94.9963 222.879 91.8555 227.63 91.8555H245.786L249.457 86.3009H227.219C218.334 86.3009 211.118 93.3624 211.118 102.057C211.118 110.753 218.334 117.789 227.219 117.789H246.299L249.945 112.236H227.63H227.63Z" fill="#EA1B22"/>
</g>
<path d="M8.74631 165.642C16.2638 165.642 20.8177 160.874 20.8177 152.969C20.8177 145.089 16.2638 140.346 8.81859 140.346H0V165.642H8.74631ZM5.21646 161.059V144.928H8.54151C13.1677 144.928 15.6132 147.349 15.6132 152.969C15.6132 158.614 13.1677 161.059 8.52946 161.059H5.21646Z" fill="black"/>
<path d="M37.7206 165.642L39.5517 159.874H48.4547L50.2858 165.642H55.8758L47.3704 140.346H40.648L32.1306 165.642H37.7206ZM40.8769 155.699L43.9128 146.126H44.1056L47.1415 155.699H40.8769Z" fill="black"/>
<path d="M65.0353 144.755H72.5889V165.642H77.7452V144.755H85.2988V140.346H65.0353V144.755Z" fill="black"/>
<path d="M100.018 165.642L101.849 159.874H110.752L112.583 165.642H118.173L109.668 140.346H102.946L94.4282 165.642H100.018ZM103.175 155.699L106.21 146.126H106.403L109.439 155.699H103.175Z" fill="black"/>
<path d="M131.321 165.642H141.862C147.404 165.642 150.355 162.677 150.355 158.651C150.355 154.908 147.741 152.648 144.934 152.512V152.265C147.5 151.672 149.391 149.807 149.391 146.83C149.391 143.038 146.645 140.346 141.199 140.346H131.321V165.642ZM136.537 161.269V154.55H140.91C143.416 154.55 144.97 156.032 144.97 158.12C144.97 160.022 143.705 161.269 140.79 161.269H136.537ZM136.537 150.931V144.669H140.501C142.814 144.669 144.127 145.892 144.127 147.72C144.127 149.721 142.536 150.931 140.404 150.931H136.537Z" fill="black"/>
<path d="M168.18 165.642L170.011 159.874H178.914L180.745 165.642H186.335L177.83 140.346H171.107L162.59 165.642H168.18ZM171.336 155.699L174.372 146.126H174.565L177.601 155.699H171.336Z" fill="black"/>
<path d="M212.303 147.621H217.303C217.231 143.113 213.617 140 208.123 140C202.714 140 198.75 143.063 198.774 147.658C198.762 151.388 201.328 153.525 205.497 154.55L208.183 155.242C210.87 155.909 212.364 156.699 212.376 158.404C212.364 160.257 210.653 161.516 208.003 161.516C205.292 161.516 203.34 160.232 203.172 157.7H198.124C198.256 163.171 202.075 166 208.063 166C214.086 166 217.628 163.048 217.64 158.416C217.628 154.204 214.532 151.969 210.243 150.981L208.027 150.437C205.882 149.931 204.087 149.115 204.123 147.3C204.123 145.669 205.533 144.471 208.087 144.471C210.581 144.471 212.111 145.632 212.303 147.621Z" fill="black"/>
<path d="M231.327 165.642H248V161.232H236.543V155.192H247.096V150.783H236.543V144.755H247.952V140.346H231.327V165.642Z" fill="black"/>
<defs>
<clipPath id="clip0_1789_6927">
<rect width="250" height="32" fill="white" transform="translate(0 86)"/>
</clipPath>
</defs>
</svg>
