<svg width="250" height="250" viewBox="0 0 250 250" fill="none" xmlns="http://www.w3.org/2000/svg">
<g clip-path="url(#clip0_1789_7030)">
<path d="M149.374 125.544C149.378 132.719 148.083 139.836 145.554 146.55C138.836 149.08 131.718 150.376 124.54 150.377H124.456C117.065 150.368 109.984 149.017 103.45 146.554C100.918 139.838 99.6226 132.72 99.625 125.544V125.456C99.6215 118.282 100.915 111.167 103.442 104.453C110.158 101.919 117.278 100.622 124.457 100.625H124.541C131.719 100.622 138.838 101.918 145.554 104.452C148.084 111.165 149.379 118.281 149.375 125.456L149.374 125.544ZM222.618 108.917H164.538L205.604 67.8475C202.381 63.3196 198.785 59.0686 194.855 55.1387V55.1356C190.925 51.2099 186.675 47.6177 182.149 44.3958L141.08 85.4652V27.3852C135.618 26.4664 130.089 26.003 124.55 26L124.447 26C118.813 26.0031 113.295 26.482 107.917 27.3852V85.4652L66.8475 44.3958C62.3214 47.6168 58.0733 51.2116 54.1481 55.1426L54.1263 55.1582C50.2027 59.0831 46.6122 63.3275 43.392 67.8475L84.4645 108.917H26.3852C26.3852 108.917 25 119.825 25 125.466V125.534C25 131.175 25.4781 136.702 26.3852 142.083H84.4652L43.3927 183.152C49.8537 192.219 57.7806 200.146 66.8475 206.607L107.917 165.535V223.618C113.373 224.532 118.895 224.994 124.428 225H124.568C130.101 224.995 135.623 224.533 141.079 223.618V165.535L182.152 206.607C186.677 203.384 190.926 199.791 194.855 195.864L194.864 195.855C198.789 191.925 202.382 187.676 205.604 183.152L164.532 142.083H222.618C223.522 136.712 223.994 131.2 224 125.572V125.428C223.994 119.8 223.522 114.288 222.618 108.917Z" fill="#FF4A00"/>
</g>
<defs>
<clipPath id="clip0_1789_7030">
<rect width="199" height="199" fill="white" transform="translate(25 26)"/>
</clipPath>
</defs>
</svg>
