<svg width="250" height="250" viewBox="0 0 250 250" fill="none" xmlns="http://www.w3.org/2000/svg">
<path d="M23 201.187L120.205 47H180.539V68.4522L96.7418 201.187" fill="#FBBC04"/>
<path d="M180.539 201.187H120.205V47H180.539V201.187Z" fill="#1A73E8"/>
<path d="M224.114 157.613C224.114 181.679 204.606 201.187 180.539 201.187V114.038C204.606 114.038 224.114 133.546 224.114 157.613Z" fill="#34A853"/>
<path d="M180.539 201.187C156.473 201.187 136.965 181.679 136.965 157.613C136.965 133.546 156.473 114.038 180.539 114.038V201.187Z" fill="#0D652D"/>
<path d="M214.058 80.519C214.058 99.0282 199.055 114.038 180.539 114.038V47C199.055 47 214.058 62.0098 214.058 80.519Z" fill="#1A73E8"/>
<path d="M180.539 114.038C162.023 114.038 147.02 99.0282 147.02 80.519C147.02 62.0098 162.023 47 180.539 47V114.038Z" fill="#174EA6"/>
<path d="M26.3518 77.1671C26.3518 60.5082 39.86 47 56.5189 47C73.1778 47 86.686 60.5082 86.686 77.1671C86.686 93.826 73.1778 107.334 56.5189 107.334C39.86 107.334 26.3518 93.826 26.3518 77.1671Z" fill="#EA4335"/>
</svg>
