<svg width="250" height="250" viewBox="0 0 250 250" fill="none" xmlns="http://www.w3.org/2000/svg">
<path d="M117.749 1.09473L124.421 13.564C125.92 15.8651 127.545 17.9018 129.459 19.7986C135.071 25.3128 140.301 31.1981 145.115 37.4142C156.419 52.1845 164.044 68.5873 169.489 86.3273C172.754 97.164 174.528 108.281 174.66 119.522C175.207 153.128 163.63 181.985 140.287 205.967C136.49 209.77 132.388 213.259 128.022 216.399C125.71 216.399 124.616 214.635 123.663 213.01C121.927 209.997 120.772 206.688 120.257 203.254C119.436 199.188 118.897 195.122 119.163 190.924V189.028C118.976 188.623 116.937 2.05091 117.749 1.09473Z" fill="#599636"/>
<path d="M117.752 0.682605C117.479 0.138436 117.205 0.550449 116.932 0.81476C117.065 3.53561 116.111 5.96105 114.619 8.27765C112.979 10.5787 110.807 12.3434 108.627 14.2402C96.5186 24.6727 86.9878 37.2741 79.3553 51.3681C69.1995 70.3363 63.9654 90.6649 62.4811 112.066C61.8014 119.786 64.9341 147.025 67.3793 154.885C74.0509 175.75 86.0347 193.233 101.557 208.408C105.37 212.061 109.448 215.451 113.666 218.708C114.893 218.708 115.026 217.62 115.307 216.811C115.845 215.081 116.254 213.314 116.533 211.525L119.268 191.204L117.752 0.682605Z" fill="#6CAC48"/>
<path d="M124.421 224.655C124.695 221.546 126.195 218.965 127.827 216.392C126.187 215.715 124.968 214.37 124.015 212.87C123.193 211.449 122.513 209.952 121.984 208.4C120.078 202.71 119.672 196.739 119.125 190.924V187.403C118.445 187.947 118.304 192.549 118.304 193.233C117.907 199.379 117.087 205.491 115.851 211.525C115.445 213.966 115.172 216.399 113.664 218.568C113.664 218.84 113.664 219.112 113.797 219.517C116.25 226.7 116.922 234.015 117.336 241.47V244.191C117.336 247.44 117.203 246.756 119.914 247.845C121.007 248.249 122.226 248.389 123.32 249.197C124.14 249.197 124.273 248.521 124.273 247.977L123.867 243.507V231.038C123.734 228.861 124.14 226.7 124.414 224.663L124.421 224.655Z" fill="#C2BFBF"/>
</svg>
