<svg width="250" height="250" viewBox="0 0 250 250" fill="none" xmlns="http://www.w3.org/2000/svg">
<g clip-path="url(#clip0_1789_6871)">
<path d="M188.913 29H61.0873C52.5772 29 44.4157 32.3806 38.3981 38.3981C32.3806 44.4157 29 52.5772 29 61.0873L29 188.913C29 197.423 32.3806 205.584 38.3981 211.602C44.4157 217.619 52.5772 221 61.0873 221H188.913C193.127 221.001 197.299 220.171 201.193 218.559C205.086 216.946 208.623 214.583 211.603 211.603C214.583 208.623 216.946 205.086 218.559 201.193C220.171 197.299 221.001 193.127 221 188.913V61.0873C221.001 56.8732 220.172 52.7002 218.56 48.8066C216.948 44.9131 214.584 41.3754 211.604 38.3956C208.625 35.4158 205.087 33.0523 201.193 31.4402C197.3 29.828 193.127 28.9989 188.913 29ZM186.094 175.98C186.093 178.664 185.026 181.238 183.128 183.135C181.229 185.033 178.655 186.098 175.971 186.098H74.0504C72.7211 186.099 71.4047 185.838 70.1763 185.33C68.948 184.821 67.8317 184.076 66.8913 183.137C65.9509 182.197 65.2048 181.081 64.6956 179.854C64.1863 178.626 63.9239 177.309 63.9234 175.98V74.0548C63.9228 72.7247 64.1843 71.4076 64.6931 70.1787C65.2018 68.9497 65.9477 67.8331 66.8882 66.8926C67.8287 65.9521 68.9454 65.2062 70.1743 64.6974C71.4032 64.1887 72.7204 63.9272 74.0504 63.9277H175.967C177.297 63.9277 178.613 64.1897 179.842 64.6987C181.07 65.2077 182.186 65.9537 183.126 66.8942C184.066 67.8346 184.812 68.951 185.32 70.1797C185.829 71.4083 186.09 72.7251 186.09 74.0548V175.98H186.094Z" fill="black"/>
<path d="M104.628 151.184C103.083 151.179 101.603 150.561 100.513 149.466C99.4232 148.37 98.8129 146.887 98.8164 145.341V104.659C98.8164 101.434 101.417 98.8163 104.628 98.8163H145.372C148.592 98.8163 151.184 101.434 151.184 104.659V145.341C151.184 148.562 148.592 151.184 145.372 151.184H104.628Z" fill="black"/>
</g>
<defs>
<clipPath id="clip0_1789_6871">
<rect width="192" height="192" fill="white" transform="translate(29 29)"/>
</clipPath>
</defs>
</svg>
