<svg width="250" height="250" viewBox="0 0 250 250" fill="none" xmlns="http://www.w3.org/2000/svg">
<g clip-path="url(#clip0_1789_6874)">
<path d="M31.9169 88.0126L62.9833 145.014C65.1364 148.977 70.3654 152.025 74.6717 152.025H138.035C142.341 152.025 144.186 148.977 142.033 145.014L110.659 87.7076C108.506 83.7448 103.277 80.6967 98.971 80.6967H35.608H35.3004C31.6093 81.0017 29.7638 84.0499 31.9169 88.0126Z" fill="#7AD143"/>
<path d="M152.178 154.158L170.941 187.993C172.171 190.432 175.247 192.261 178.015 192.261L215.541 191.651C218.002 191.651 219.232 189.822 218.002 187.384L199.239 153.549C198.009 151.11 194.932 149.281 192.164 149.281L154.331 149.586C151.87 150.195 150.64 152.024 152.178 154.158Z" fill="#7AD143"/>
<path d="M152.191 26.1338L114.665 72.7716C112.204 75.8196 111.897 81.6114 114.05 85.5741L145.424 142.271C147.577 146.234 151.268 146.843 154.036 143.491L191.87 96.8523C194.33 93.8041 194.638 88.0128 192.485 84.0501L160.803 27.353C159.573 25.2193 157.728 24 155.882 24C154.651 24 153.421 24.6096 152.191 26.1338Z" fill="#00C2FF"/>
<path d="M143.571 154.769L121.117 182.507C119.579 184.336 119.272 187.69 120.809 190.128L139.572 223.963C140.802 226.402 143.263 226.707 144.801 224.573L167.255 196.834C168.793 195.005 169.101 191.652 167.563 189.214L148.8 155.378C148.185 154.159 146.955 153.245 146.032 153.549C144.801 153.549 144.186 153.854 143.571 154.769Z" fill="#00C2FF"/>
</g>
<defs>
<clipPath id="clip0_1789_6874">
<rect width="189" height="202" fill="white" transform="translate(31 24)"/>
</clipPath>
</defs>
</svg>
