<svg width="250" height="250" viewBox="0 0 250 250" fill="none" xmlns="http://www.w3.org/2000/svg">
<path d="M3.15039 98.743C3.15039 81.8197 17.38 68 34.3618 68C43.7311 68 50.4067 71.6892 55.4427 76.4909L49.5284 82.4053C45.9563 79.0089 41.0374 76.4324 34.3618 76.4324C22.0061 76.4324 12.344 86.3872 12.344 98.743C12.344 111.099 22.0061 121.054 34.3618 121.054C42.3843 121.054 46.9518 117.833 49.8797 114.905C52.2806 112.504 53.8617 109.049 54.4472 104.365H34.3618V95.9907H62.6454C62.9382 97.5133 63.1138 99.27 63.1138 101.261C63.1138 107.585 61.4156 115.373 55.8526 120.878C50.4653 126.499 43.5554 129.486 34.4204 129.486C17.38 129.427 3.15039 115.666 3.15039 98.743Z" fill="#4285F4"/>
<path d="M85.8922 89.9006C74.9418 89.9006 66.041 98.2159 66.041 109.693C66.041 121.112 74.9418 129.486 85.8922 129.486C96.8425 129.486 105.743 121.112 105.743 109.693C105.743 98.2159 96.8425 89.9006 85.8922 89.9006ZM85.8922 121.639C79.9193 121.639 74.7076 116.72 74.7076 109.635C74.7076 102.491 79.8607 97.6303 85.8922 97.6303C91.8651 97.6303 97.0768 102.491 97.0768 109.635C97.0768 116.72 91.8651 121.639 85.8922 121.639Z" fill="#DB4437"/>
<path d="M129.224 89.9006C118.274 89.9006 109.373 98.2159 109.373 109.693C109.373 121.112 118.274 129.486 129.224 129.486C140.175 129.486 149.075 121.112 149.075 109.693C149.075 98.2159 140.175 89.9006 129.224 89.9006ZM129.224 121.639C123.251 121.639 118.04 116.72 118.04 109.635C118.04 102.491 123.193 97.6303 129.224 97.6303C135.256 97.6303 140.409 102.491 140.409 109.635C140.409 116.72 135.197 121.639 129.224 121.639Z" fill="#F4B400"/>
<path d="M182.398 91.072V94.2927H182.105C180.173 91.9504 176.425 89.8423 171.682 89.8423C161.785 89.8423 152.709 98.5089 152.709 109.693C152.709 120.761 161.785 129.428 171.682 129.428C176.425 129.428 180.173 127.319 182.105 124.919H182.398V127.788C182.398 135.342 178.357 139.382 171.857 139.382C166.529 139.382 163.249 135.576 161.903 132.355L154.349 135.518C156.515 140.788 162.313 147.229 171.916 147.229C182.105 147.229 190.713 141.256 190.713 126.617V91.072H182.398ZM172.443 121.639C166.47 121.639 161.434 116.603 161.434 109.693C161.434 102.725 166.47 97.6305 172.443 97.6305C178.357 97.6305 182.983 102.725 182.983 109.693C183.042 116.662 178.357 121.639 172.443 121.639Z" fill="#4285F4"/>
<path d="M205.352 70.108H196.686V128.256H205.352V70.108Z" fill="#0F9D58"/>
<path d="M229.183 121.639C224.733 121.639 221.629 119.59 219.58 115.666L246.048 104.716L245.17 102.491C243.53 98.0402 238.494 89.9006 228.246 89.9006C218.057 89.9006 209.566 97.9231 209.566 109.693C209.566 120.761 217.94 129.486 229.183 129.486C238.26 129.486 243.472 123.923 245.697 120.702L238.963 116.193C236.679 119.472 233.634 121.639 229.183 121.639ZM228.539 97.5132C231.994 97.5132 234.922 99.2114 235.859 101.729L218.174 109.049C217.94 101.437 224.089 97.5132 228.539 97.5132Z" fill="#DB4437"/>
<g clip-path="url(#clip0_2108_4352)">
<path d="M60.8918 153.051H64.863L56.962 182.16H53.0735L46.7031 162.97H46.5376L40.1672 182.16H36.2788L28.0469 153.051H32.018L38.2644 175.939H38.4298L44.8416 156.954H48.3991L54.8109 175.939H54.9764L60.8918 153.051Z" fill="#5F6368"/>
<path d="M64.5039 172.199C64.5039 169.137 65.4829 166.603 67.4409 164.597C69.4265 162.591 71.9223 161.588 74.9282 161.588C77.9342 161.588 80.4162 162.591 82.3742 164.597C84.3598 166.603 85.3526 169.137 85.3526 172.199C85.3526 175.289 84.3598 177.823 82.3742 179.802C80.4156 181.808 77.9336 182.811 74.9282 182.81C71.9228 182.81 69.4271 181.806 67.4409 179.799C65.4824 177.794 64.5033 175.26 64.5039 172.197M68.3096 172.197C68.3096 174.338 68.9439 176.073 70.2125 177.401C71.4811 178.728 73.053 179.392 74.9282 179.392C76.8035 179.392 78.3754 178.728 79.644 177.401C80.9126 176.073 81.5469 174.338 81.5469 172.197C81.5469 170.083 80.9126 168.362 79.644 167.034C78.3496 165.679 76.7776 165.001 74.9282 165.001C73.0789 165 71.5064 165.679 70.2108 167.036C68.9417 168.364 68.3074 170.085 68.3079 172.199" fill="#5F6368"/>
<path d="M91.8584 182.16H88.0527V162.239H91.693V165.491H91.8618C92.2479 164.434 93.0409 163.533 94.2408 162.787C95.4407 162.042 96.6195 161.669 97.7772 161.67C98.8798 161.67 99.8174 161.832 100.59 162.157L99.4285 165.777C98.9591 165.588 98.2145 165.493 97.1947 165.493C95.7607 165.493 94.5129 166.062 93.4515 167.2C92.39 168.339 91.859 169.666 91.8584 171.183V182.16Z" fill="#5F6368"/>
<path d="M120.179 182.16H115.587L109.258 172.768L106.155 175.777V182.16H102.35V153.051H106.155V170.98L114.925 162.239H119.806V162.401L111.905 170.126L120.179 181.997V182.16Z" fill="#5F6368"/>
<path d="M136.645 176.631C136.645 178.366 135.873 179.829 134.328 181.021C132.784 182.213 130.84 182.81 128.496 182.81C126.455 182.81 124.662 182.288 123.118 181.244C121.605 180.241 120.448 178.798 119.809 177.118L123.201 175.695C123.697 176.889 124.421 177.817 125.373 178.48C126.28 179.13 127.374 179.479 128.496 179.476C129.71 179.476 130.723 179.218 131.536 178.703C132.348 178.188 132.754 177.578 132.755 176.874C132.755 175.601 131.763 174.666 129.777 174.068L126.302 173.215C122.36 172.239 120.388 170.368 120.388 167.603C120.388 165.787 121.139 164.33 122.643 163.232C124.146 162.133 126.069 161.585 128.413 161.586C130.206 161.586 131.826 162.006 133.274 162.846C134.721 163.686 135.734 164.811 136.313 166.22L132.922 167.603C132.533 166.759 131.871 166.066 131.04 165.63C130.146 165.15 129.142 164.905 128.123 164.919C127.181 164.906 126.254 165.16 125.456 165.651C124.668 166.139 124.274 166.735 124.274 167.44C124.274 168.578 125.363 169.391 127.542 169.879L130.603 170.652C134.629 171.627 136.642 173.619 136.642 176.626" fill="#5F6368"/>
<path d="M149.862 182.81C148.373 182.81 147.015 182.498 145.788 181.875C144.561 181.252 143.617 180.425 142.954 179.395H142.785L142.954 182.16V190.941H139.148V162.239H142.789V165.003H142.958C143.619 163.974 144.564 163.147 145.792 162.523C147.019 161.899 148.377 161.588 149.866 161.588C152.54 161.588 154.802 162.618 156.65 164.678C158.553 166.766 159.504 169.273 159.504 172.199C159.504 175.154 158.553 177.661 156.65 179.72C154.802 181.78 152.541 182.81 149.866 182.81M149.245 179.395C151.065 179.395 152.596 178.718 153.837 177.362C155.075 176.035 155.694 174.314 155.694 172.199C155.694 170.113 155.075 168.392 153.837 167.036C152.599 165.68 151.068 165.003 149.245 165.003C147.398 165.003 145.853 165.681 144.612 167.036C143.398 168.392 142.791 170.113 142.792 172.199C142.792 174.313 143.399 176.048 144.612 177.403C145.85 178.731 147.395 179.394 149.245 179.394" fill="#5F6368"/>
<path d="M169.924 161.588C172.738 161.588 174.958 162.327 176.584 163.804C178.21 165.28 179.024 167.306 179.025 169.882V182.161H175.385V179.395H175.216C173.644 181.672 171.548 182.81 168.928 182.81C166.694 182.81 164.826 182.16 163.322 180.859C161.819 179.558 161.068 177.932 161.068 175.98C161.068 173.921 161.861 172.281 163.446 171.061C165.032 169.841 167.149 169.231 169.797 169.231C172.057 169.231 173.919 169.638 175.381 170.451V169.594C175.381 168.293 174.857 167.188 173.809 166.28C172.8 165.387 171.485 164.901 170.128 164.919C168.004 164.919 166.321 165.799 165.081 167.561L161.73 165.487C163.577 162.887 166.307 161.587 169.919 161.587M165.002 176.066C165.002 177.041 165.422 177.854 166.263 178.505C167.104 179.155 168.089 179.481 169.218 179.481C170.816 179.481 172.243 178.898 173.499 177.732C174.754 176.567 175.381 175.198 175.381 173.626C174.195 172.705 172.54 172.245 170.417 172.244C168.872 172.244 167.583 172.61 166.549 173.342C165.515 174.073 164.999 174.981 165.002 176.066Z" fill="#5F6368"/>
<path d="M191.926 182.81C188.92 182.81 186.424 181.807 184.439 179.802C182.48 177.742 181.501 175.208 181.502 172.199C181.502 169.137 182.481 166.603 184.439 164.597C186.425 162.591 188.92 161.588 191.926 161.588C193.995 161.588 195.801 162.096 197.345 163.112C198.89 164.129 200.048 165.531 200.82 167.321L197.349 168.744C196.273 166.25 194.384 165.003 191.681 165.003C189.944 165.003 188.441 165.695 187.173 167.078C185.932 168.46 185.311 170.168 185.311 172.2C185.311 174.232 185.932 175.94 187.173 177.323C188.441 178.705 189.944 179.397 191.681 179.397C194.467 179.397 196.425 178.15 197.555 175.657L200.948 177.079C200.203 178.868 199.038 180.271 197.452 181.287C195.866 182.303 194.025 182.811 191.93 182.812" fill="#5F6368"/>
<path d="M212.407 182.81C209.429 182.81 206.975 181.807 205.044 179.802C203.114 177.796 202.148 175.262 202.148 172.199C202.148 169.164 203.086 166.637 204.961 164.617C206.837 162.597 209.236 161.587 212.159 161.588C215.164 161.588 217.556 162.544 219.335 164.454C221.113 166.365 222.002 169.041 222.001 172.484L221.96 172.89H206.037C206.093 174.842 206.755 176.414 208.022 177.606C209.29 178.799 210.807 179.395 212.573 179.395C214.999 179.395 216.902 178.203 218.281 175.818L221.673 177.444C220.808 179.078 219.497 180.443 217.888 181.387C216.274 182.335 214.447 182.81 212.407 182.81ZM206.329 169.801H217.949C217.836 168.418 217.264 167.272 216.232 166.365C215.199 165.457 213.814 165.003 212.075 165.003C210.64 165.003 209.406 165.437 208.372 166.304C207.338 167.172 206.656 168.337 206.325 169.801" fill="#5F6368"/>
</g>
<defs>
<clipPath id="clip0_2108_4352">
<rect width="194" height="38" fill="white" transform="translate(28 153)"/>
</clipPath>
</defs>
</svg>
