<svg width="250" height="250" viewBox="0 0 250 250" fill="none" xmlns="http://www.w3.org/2000/svg">
<g clip-path="url(#clip0_2153_3850)">
<path d="M202.861 186.164C193.674 197.85 181.974 207.318 168.628 213.864C155.282 220.41 140.634 223.867 125.769 223.978C110.905 224.09 96.206 220.852 82.7639 214.506C69.3218 208.16 57.4813 198.868 48.1211 187.32L86.2153 126.339H165.898L202.861 186.164Z" fill="#4B4EA0"/>
<path d="M165.881 126.339H86.1982L126.281 62.2307L165.881 126.339Z" fill="#EC2226"/>
<path d="M224 126.339C223.762 148.065 216.338 169.101 202.886 186.164L165.906 126.339H224Z" fill="#5AA0D5"/>
<path d="M224 125C224 125.458 224 125.882 224 126.339H165.881L126.281 62.2307L86.1987 126.339H26C26 125.882 26 125.458 26 125C26.0086 102.194 33.8838 80.0884 48.2969 62.4138C62.71 44.7392 82.7786 32.5773 105.117 27.98C111.663 26.6688 118.323 26.0056 125 26C138.002 25.9945 150.878 28.5515 162.892 33.5248C174.906 38.4981 185.822 45.7902 195.016 54.9842C204.21 64.1783 211.502 75.0942 216.475 87.1079C221.448 99.1216 224.005 111.998 224 125Z" fill="#FDCD08"/>
<path d="M86.1987 126.339L48.1045 187.32C34.0514 170.078 26.2591 148.581 26 126.339H86.1987Z" fill="#5AA0D5"/>
</g>
<defs>
<clipPath id="clip0_2153_3850">
<rect width="198" height="198" fill="white" transform="translate(26 26)"/>
</clipPath>
</defs>
</svg>
