<svg width="250" height="250" viewBox="0 0 250 250" fill="none" xmlns="http://www.w3.org/2000/svg">
<g clip-path="url(#clip0_2196_3836)">
<path d="M171.931 23.901C174.711 23.901 177.377 25.004 179.343 26.9673C181.309 28.9305 182.413 31.5933 182.413 34.3698C182.413 37.1463 181.309 39.809 179.343 41.7723C177.377 43.7356 174.711 44.8385 171.931 44.8385H171.381C168.774 44.7574 166.295 43.6867 164.451 41.8445C162.606 40.0023 161.534 37.5272 161.453 34.9232C161.535 32.1361 162.501 29.4471 164.212 27.2438C165.183 26.1678 166.375 25.315 167.708 24.7444C169.041 24.1737 170.482 23.8988 171.931 23.9387M171.931 10.7182C165.823 10.8511 160.002 13.3317 155.679 17.6436C151.356 21.9555 148.865 27.7665 148.724 33.8667C148.584 39.967 150.804 45.8864 154.923 50.3928C159.042 54.8991 164.743 57.6451 170.838 58.0591H171.939C175.061 58.0831 178.156 57.4867 181.045 56.3045C183.934 55.1224 186.559 53.3781 188.767 51.1732C190.974 48.9683 192.721 46.3468 193.904 43.4613C195.088 40.5759 195.685 37.4842 195.661 34.366C195.684 31.2479 195.086 28.1563 193.901 25.2713C192.717 22.3862 190.97 19.7653 188.761 17.5611C186.553 15.3569 183.928 13.6134 181.038 12.4321C178.149 11.2509 175.053 10.6555 171.931 10.6805V10.7182Z" fill="#FF4F1F"/>
<path d="M155.941 176.193C159.164 176.136 162.366 176.721 165.36 177.914C168.354 179.107 171.081 180.883 173.38 183.139C175.679 185.396 177.506 188.087 178.752 191.056C179.999 194.025 180.641 197.212 180.641 200.432C180.641 203.651 179.999 206.839 178.752 209.808C177.506 212.777 175.679 215.468 173.38 217.724C171.081 219.981 168.354 221.757 165.36 222.95C162.366 224.143 159.164 224.728 155.941 224.671H130.017C126.794 224.728 123.592 224.143 120.598 222.95C117.604 221.757 114.878 219.981 112.578 217.724C110.279 215.468 108.453 212.777 107.206 209.808C105.959 206.839 105.317 203.651 105.317 200.432C105.317 197.212 105.959 194.025 107.206 191.056C108.453 188.087 110.279 185.396 112.578 183.139C114.878 180.883 117.604 179.107 120.598 177.914C123.592 176.721 126.794 176.136 130.017 176.193H155.941ZM155.941 160.217H130.017C119.579 160.361 109.617 164.603 102.287 172.026C94.9562 179.449 90.8464 189.456 90.8464 199.882C90.8464 210.309 94.9562 220.316 102.287 227.739C109.617 235.162 119.579 239.404 130.017 239.548H155.941C166.379 239.404 176.341 235.162 183.672 227.739C191.002 220.316 195.112 210.309 195.112 199.882C195.112 189.456 191.002 179.449 183.672 172.026C176.341 164.603 166.379 160.361 155.941 160.217V160.217Z" fill="#FF4F1F"/>
<path d="M155.944 83.6192C159.167 83.5625 162.369 84.1475 165.363 85.3402C168.357 86.5328 171.084 88.3092 173.383 90.5656C175.682 92.822 177.509 95.5133 178.755 98.4823C180.002 101.451 180.644 104.639 180.644 107.858C180.644 111.078 180.002 114.265 178.755 117.234C177.509 120.203 175.682 122.894 173.383 125.151C171.084 127.407 168.357 129.183 165.363 130.376C162.369 131.569 159.167 132.154 155.944 132.097H94.7194C91.4964 132.154 88.2944 131.569 85.3002 130.376C82.306 129.183 79.5796 127.407 77.2802 125.151C74.9809 122.894 73.1545 120.203 71.9078 117.234C70.6611 114.265 70.0191 111.078 70.0191 107.858C70.0191 104.639 70.6611 101.451 71.9078 98.4823C73.1545 95.5133 74.9809 92.822 77.2802 90.5656C79.5796 88.3092 82.306 86.5328 85.3002 85.3402C88.2944 84.1475 91.4964 83.5625 94.7194 83.6192H155.944M155.944 67.6432H94.7194C84.2813 67.7868 74.3194 72.029 66.9888 79.4521C59.6582 86.8752 55.5484 96.8823 55.5484 107.309C55.5484 117.735 59.6582 127.742 66.9888 135.165C74.3194 142.588 84.2813 146.83 94.7194 146.974H155.944C166.382 146.83 176.344 142.588 183.674 135.165C191.005 127.742 195.115 117.735 195.115 107.309C195.115 96.8823 191.005 86.8752 183.674 79.4521C176.344 72.029 166.382 67.7868 155.944 67.6432V67.6432Z" fill="#FF4F1F"/>
</g>
<defs>
<clipPath id="clip0_2196_3836">
<rect width="141" height="230" fill="white" transform="translate(55 10)"/>
</clipPath>
</defs>
</svg>
