<svg width="250" height="250" viewBox="0 0 250 250" fill="none" xmlns="http://www.w3.org/2000/svg">
<path d="M215 170.861V136.65L211.23 134.558L125.491 183.071L44.0787 137.014L44.0961 117.176L125.491 162.714L215 112.575V78.8834L211.23 76.7906L125.491 125.304L47.4318 81.1318L125.491 37.2358L188.523 72.6743L193.248 70.0281V66.0847L125.491 28L36 78.3126V83.2764L125.491 133.555L206.904 87.7905V107.853L125.491 153.911L39.7701 105.415L36 107.507V141.7L125.491 191.84L206.904 146.232V166.174L125.491 212.232L39.7701 163.718L36 165.811V170.861L125.491 221L215 170.861Z" fill="#FF3621"/>
</svg>
