<svg width="250" height="250" viewBox="0 0 250 250" fill="none" xmlns="http://www.w3.org/2000/svg">
<g clip-path="url(#clip0_1789_6931)">
<path d="M186.341 11H62.6592C55.1155 11 49 17.1084 49 24.6434V148.182C49 155.717 55.1155 161.826 62.6592 161.826H186.34C193.885 161.826 200 155.717 200 148.182V24.6434C200 17.1084 193.885 11 186.341 11ZM95.7258 141.233C95.7258 143.426 93.9462 145.203 91.7508 145.203H74.8301C72.6347 145.203 70.8551 143.426 70.8551 141.233V70.3838C70.8551 68.1909 72.6347 66.4134 74.8301 66.4134H91.7508C93.9462 66.4134 95.7258 68.1909 95.7258 70.3838V141.233ZM83.2904 59.7348C74.4127 59.7348 67.2157 52.5461 67.2157 43.6786C67.2157 34.8111 74.4127 27.6224 83.2904 27.6224C92.1682 27.6224 99.3652 34.8111 99.3652 43.6786C99.3652 52.5461 92.1686 59.7348 83.2904 59.7348ZM184.153 141.552C184.153 143.568 182.516 145.203 180.498 145.203H162.341C160.323 145.203 158.686 143.568 158.686 141.552V108.32C158.686 103.363 160.142 86.5963 145.715 86.5963C134.525 86.5963 132.256 98.0725 131.8 103.223V141.552C131.8 143.568 130.164 145.203 128.145 145.203H110.584C108.566 145.203 106.929 143.568 106.929 141.552V70.064C106.929 68.048 108.566 66.4134 110.584 66.4134H128.145C130.163 66.4134 131.8 68.048 131.8 70.064V76.2451C135.949 70.0253 142.116 65.2245 155.245 65.2245C184.319 65.2245 184.153 92.3558 184.153 107.263V141.552Z" fill="#0077B7"/>
</g>
<path d="M69.9473 238C66.0272 238 62.8114 236.783 60.3001 234.35C57.85 231.917 56.625 228.754 56.625 224.861C56.625 220.056 58.7382 216.346 62.9646 213.73C67.191 211.054 73.9287 209.229 83.1777 208.256C83.1165 205.884 82.4733 203.846 81.2483 202.143C80.0845 200.379 77.9713 199.497 74.9087 199.497C72.7036 199.497 70.5292 199.923 68.3854 200.774C66.3028 201.626 64.2509 202.66 62.2295 203.876L58.3707 196.851C60.882 195.269 63.6996 193.901 66.8234 192.745C70.0085 191.589 73.3774 191.012 76.93 191.012C82.5652 191.012 86.7609 192.684 89.5173 196.03C92.3349 199.314 93.7437 204.089 93.7437 210.354V236.905H85.0153L84.2802 231.978H83.9127C81.8914 233.681 79.717 235.111 77.3894 236.266C75.1231 237.422 72.6424 238 69.9473 238ZM73.3468 229.788C75.1843 229.788 76.8381 229.363 78.3082 228.511C79.8395 227.599 81.4627 226.382 83.1777 224.861V214.825C77.0525 215.616 72.7955 216.802 70.4067 218.383C68.0179 219.904 66.8234 221.79 66.8234 224.04C66.8234 226.048 67.436 227.507 68.661 228.42C69.886 229.332 71.448 229.788 73.3468 229.788Z" fill="#989692"/>
<path d="M124.948 238C119.313 238 114.81 235.932 111.442 231.796C108.073 227.66 106.388 221.911 106.388 214.551C106.388 209.685 107.277 205.488 109.053 201.96C110.89 198.432 113.279 195.726 116.219 193.84C119.159 191.954 122.253 191.012 125.499 191.012C128.072 191.012 130.246 191.468 132.022 192.38C133.86 193.232 135.636 194.418 137.351 195.939L136.984 188.731V172.49H147.55V236.905H138.821L138.086 232.069H137.719C136.065 233.712 134.135 235.111 131.93 236.266C129.725 237.422 127.398 238 124.948 238ZM127.52 229.332C130.889 229.332 134.044 227.66 136.984 224.314V203.42C135.452 202.021 133.921 201.048 132.39 200.501C130.858 199.953 129.327 199.679 127.796 199.679C124.917 199.679 122.436 200.987 120.354 203.603C118.332 206.157 117.322 209.777 117.322 214.46C117.322 219.265 118.21 222.945 119.986 225.5C121.763 228.055 124.274 229.332 127.52 229.332Z" fill="#989692"/>
<path d="M176.349 238C173.286 238 170.224 237.422 167.161 236.266C164.099 235.05 161.465 233.56 159.26 231.796L164.221 225.044C166.242 226.565 168.264 227.781 170.285 228.694C172.306 229.606 174.45 230.062 176.717 230.062C179.167 230.062 180.974 229.545 182.137 228.511C183.301 227.477 183.883 226.2 183.883 224.679C183.883 223.402 183.393 222.368 182.413 221.577C181.494 220.725 180.3 219.995 178.83 219.387C177.36 218.718 175.828 218.079 174.236 217.471C172.276 216.741 170.316 215.859 168.356 214.825C166.457 213.73 164.895 212.362 163.67 210.719C162.445 209.016 161.832 206.918 161.832 204.424C161.832 200.47 163.302 197.246 166.242 194.752C169.183 192.259 173.164 191.012 178.187 191.012C181.372 191.012 184.22 191.559 186.731 192.654C189.243 193.749 191.417 194.996 193.255 196.395L188.385 202.781C186.792 201.626 185.169 200.713 183.516 200.044C181.923 199.314 180.239 198.949 178.462 198.949C176.196 198.949 174.511 199.436 173.409 200.409C172.306 201.322 171.755 202.477 171.755 203.876C171.755 205.64 172.674 206.979 174.511 207.891C176.349 208.803 178.493 209.685 180.943 210.537C183.026 211.267 185.047 212.179 187.007 213.274C188.967 214.308 190.59 215.677 191.876 217.38C193.224 219.083 193.898 221.334 193.898 224.132C193.898 227.964 192.397 231.248 189.396 233.985C186.394 236.662 182.045 238 176.349 238Z" fill="#989692"/>
<defs>
<clipPath id="clip0_1789_6931">
<rect width="151" height="150.826" fill="white" transform="translate(49 11)"/>
</clipPath>
</defs>
</svg>
