<svg width="250" height="250" viewBox="0 0 250 250" fill="none" xmlns="http://www.w3.org/2000/svg">
<g clip-path="url(#clip0_1789_6926)">
<path d="M71.4142 124.81C71.4142 111.857 71.4342 98.8938 71.3842 85.9507C71.3842 84.1503 72.5739 83.03 74.3735 83.03C77.7027 83.01 81.0519 83 84.3811 83.03C86.2706 83.05 87.3704 84.2003 87.3504 85.9707C87.3004 97.4334 87.3204 108.916 87.3204 120.379V121.009C87.3404 122.279 87.9002 123.21 89.0699 123.71C90.1997 124.19 91.2594 123.94 92.1792 122.96C95.5384 119.359 98.8876 115.748 102.227 112.137C104.276 109.916 106.356 107.726 108.385 105.495C109.155 104.655 110.045 104.255 111.195 104.275C115.384 104.305 119.593 104.305 123.782 104.275C125.021 104.275 126.001 104.655 126.521 105.805C127.051 106.996 126.801 108.056 125.911 109.026C119.623 115.988 113.354 122.96 107.076 129.921C106.576 130.481 106.086 131.061 105.696 131.702C104.996 132.832 104.996 133.942 105.646 135.092C106.346 136.333 107.336 137.333 108.315 138.343C115.923 146.165 123.552 153.987 131.18 161.789C132.1 162.739 132.37 163.779 131.91 165C131.47 166.14 130.6 166.66 129.17 166.66C124.511 166.66 119.843 166.64 115.184 166.66C114.134 166.66 113.324 166.33 112.574 165.53C105.806 158.418 98.9875 151.346 92.1892 144.265C91.2194 143.244 90.1397 142.984 89.02 143.454C87.8902 143.905 87.3004 144.865 87.3004 146.255V163.689C87.3004 165.57 86.3506 166.54 84.491 166.55H74.2535C72.204 166.55 71.4042 165.74 71.4042 163.719L71.4142 124.81ZM134.939 111.777C134.939 103.205 134.969 94.6228 134.909 86.0507C134.889 84.1103 136.019 83 137.988 83C141.227 83.02 144.447 83 147.676 83C149.565 83 150.645 84.0603 150.645 85.9407C150.665 90.9419 150.665 95.9531 150.675 100.954C150.675 103.115 151.785 104.235 153.924 104.235H167.371C168.791 104.235 169.721 105.005 170 106.396C170.14 107.066 170.09 107.736 170.11 108.426V116.718C170.11 118.889 169.141 119.859 166.971 119.859C162.672 119.859 158.373 119.839 154.074 119.839C151.875 119.839 150.745 120.949 150.725 123.12C150.705 127.531 150.635 131.922 150.695 136.333C150.785 143.054 155.934 149.246 162.622 150.826C164.592 151.296 166.591 151.376 168.591 151.096C170.22 150.866 171.4 151.736 171.59 153.377C172 156.868 172.37 160.368 172.73 163.859C172.87 165.19 171.9 166.41 170.53 166.63C166.841 167.26 163.152 167.04 159.523 166.22C146.566 163.319 137.048 152.957 135.189 139.824C134.999 138.523 134.939 137.223 134.939 135.933V111.777ZM249.981 152.737C249.981 151.546 249.071 150.716 247.882 150.656C247.072 150.626 246.272 150.596 245.462 150.526C241.323 150.216 239.194 148.276 238.444 144.195C237.864 141.084 237.884 137.923 237.864 134.762C237.834 125.69 237.844 116.618 237.844 107.546C237.844 107.276 237.844 107.026 237.824 106.766C237.714 105.295 236.654 104.245 235.165 104.245C231.676 104.225 228.176 104.225 224.687 104.245C223.108 104.245 221.988 105.375 221.918 106.936C221.898 107.316 221.918 107.706 221.918 108.156C221.618 107.996 221.388 107.886 221.168 107.776C214.87 104.465 208.191 103.395 201.173 104.565C183.307 107.566 171.66 125.47 176.099 143.034C181.738 165.32 208.441 174.192 226.307 159.688C226.727 159.348 226.897 159.358 227.227 159.818C229.066 162.449 231.496 164.349 234.515 165.5C237.844 166.77 241.313 166.94 244.832 166.69C246.082 166.6 247.322 166.42 248.462 165.85C249.271 165.44 249.931 164.829 249.951 163.899C250.021 160.178 250.001 156.457 249.981 152.737ZM206.512 151.126C197.824 151.096 190.915 144.025 190.945 135.162C190.975 126.78 198.074 119.819 206.592 119.839C215.33 119.859 222.228 126.88 222.208 135.763C222.178 144.135 215.03 151.136 206.512 151.126ZM32.3936 104.115C15.7976 104.145 1.38108 116.968 1.01117 134.782C0.631258 153.207 15.2177 166.39 31.5038 166.8C48.9196 167.24 63.3461 153.487 63.6461 136.113C63.936 118.428 50.0893 104.315 32.3936 104.115ZM32.2836 151.126C23.7157 151.126 16.6874 144.085 16.6674 135.482C16.6474 126.87 23.6657 119.839 32.3136 119.809C40.9415 119.789 47.9299 126.8 47.9299 135.462C47.9299 144.125 40.9415 151.126 32.2836 151.126Z" fill="#00297A"/>
</g>
<defs>
<clipPath id="clip0_1789_6926">
<rect width="249" height="84" fill="white" transform="translate(1 83)"/>
</clipPath>
</defs>
</svg>
