<svg width="250" height="250" viewBox="0 0 250 250" fill="none" xmlns="http://www.w3.org/2000/svg">
<path d="M39.1602 197.077L68.1784 12.5733C68.3983 11.2095 69.1499 9.98707 70.27 9.17167C71.3901 8.35626 72.7883 8.01372 74.1606 8.21847C74.9713 8.36644 75.7393 8.68992 76.4105 9.16601C77.0816 9.6421 77.6395 10.2592 78.0446 10.9736L108 66.6536L119.876 43.9906C120.2 43.3687 120.645 42.8167 121.185 42.3661C121.724 41.9156 122.348 41.5753 123.02 41.3648C123.691 41.1543 124.398 41.0777 125.1 41.1394C125.801 41.2011 126.484 41.3998 127.108 41.7243C128.054 42.2671 128.839 43.0489 129.385 43.9906L210.189 197.077H39.1602Z" fill="#FFA000"/>
<path d="M139.34 125.222L108.09 66.5204L39.1602 197.077L139.34 125.222Z" fill="#F57C00"/>
<path d="M210.368 197.077L188.046 60.388C187.816 58.9882 187.039 57.7357 185.885 56.9034C184.731 56.071 183.293 55.7263 181.885 55.9442C180.782 56.1005 179.761 56.6162 178.983 57.4107L39.1602 197.077L116.617 240.537C119.004 241.84 121.684 242.523 124.407 242.523C127.13 242.523 129.809 241.84 132.197 240.537L210.368 197.077Z" fill="#FFCA28"/>
<path d="M188.269 60.5213C188.039 59.1215 187.262 57.869 186.108 57.0367C184.954 56.2044 183.517 55.8596 182.109 56.0776C181.002 56.2239 179.978 56.7411 179.207 57.544L151.349 85.2285L129.563 43.8129C129.238 43.191 128.793 42.639 128.254 42.1884C127.714 41.7379 127.091 41.3976 126.419 41.1871C125.747 40.9767 125.041 40.9001 124.339 40.9617C123.638 41.0234 122.955 41.2221 122.331 41.5466C121.385 42.0894 120.599 42.8712 120.054 43.8129L108.179 66.4759L78.2232 10.8403C77.8873 10.2293 77.4334 9.69041 76.8877 9.25451C76.3419 8.81861 75.7151 8.49431 75.043 8.30024C74.371 8.10617 73.6671 8.04616 72.9717 8.12365C72.2764 8.20114 71.6032 8.4146 70.9909 8.75177C70.2641 9.13796 69.634 9.68197 69.1471 10.3435C68.6602 11.0051 68.3292 11.7672 68.1784 12.5734L39.1602 197.077L39.9637 197.477L151.572 86.3839L179.43 58.6994C179.921 58.1914 180.511 57.7872 181.163 57.5112C181.815 57.2351 182.516 57.0929 183.225 57.0929C183.933 57.0929 184.634 57.2351 185.286 57.5112C185.938 57.7872 186.528 58.1914 187.019 58.6994C187.844 59.4722 188.366 60.5117 188.493 61.6323L210.457 196.989H210.725L188.269 60.5213ZM39.428 196.811L68.1784 13.9065C68.2711 13.2207 68.5004 12.5602 68.8529 11.9637C69.2054 11.3673 69.6739 10.8468 70.2311 10.4329C70.7882 10.0191 71.4228 9.72007 72.0976 9.55348C72.7723 9.38688 73.4737 9.35605 74.1606 9.46277C74.9745 9.60177 75.7463 9.92168 76.4188 10.3987C77.0913 10.8757 77.647 11.4975 78.0446 12.2179L108 67.8979L119.876 45.2349C120.196 44.6088 120.639 44.0525 121.177 43.5986C121.716 43.1447 122.341 42.8023 123.014 42.5913C123.687 42.3803 124.396 42.305 125.099 42.3698C125.802 42.4345 126.485 42.6381 127.108 42.9686C128.054 43.5114 128.839 44.2932 129.385 45.2349L150.769 85.7173L39.428 196.811Z" fill="white" fill-opacity="0.2"/>
<path opacity="0.2" d="M132.198 239.026C129.805 240.337 127.117 241.025 124.385 241.025C121.654 241.025 118.966 240.337 116.573 239.026L39.2949 196.1V197.3L116.617 240.537C119.005 241.84 121.685 242.523 124.408 242.523C127.131 242.523 129.81 241.84 132.198 240.537L210.324 197.255V196.055L132.198 239.026Z" fill="#A52714"/>
<path d="M188.269 60.5213C188.039 59.1215 187.262 57.869 186.108 57.0367C184.954 56.2044 183.517 55.8596 182.109 56.0776C181.002 56.2239 179.978 56.7411 179.207 57.544L151.349 85.2285L129.563 43.8129C129.238 43.191 128.793 42.639 128.254 42.1884C127.714 41.7379 127.091 41.3976 126.419 41.1871C125.747 40.9767 125.041 40.9001 124.339 40.9617C123.638 41.0234 122.955 41.2221 122.331 41.5466C121.385 42.0894 120.599 42.8712 120.054 43.8129L108.179 66.4759L78.2232 10.8403C77.8873 10.2293 77.4334 9.69041 76.8877 9.25451C76.3419 8.81861 75.7151 8.49431 75.043 8.30024C74.371 8.10617 73.6671 8.04616 72.9717 8.12365C72.2764 8.20114 71.6032 8.4146 70.9909 8.75177C70.2641 9.13796 69.634 9.68197 69.1471 10.3435C68.6602 11.0051 68.3292 11.7672 68.1784 12.5734L39.1602 197.077L116.617 240.537C119.004 241.84 121.684 242.523 124.407 242.523C127.13 242.523 129.809 241.84 132.197 240.537L210.323 197.255L188.269 60.5213Z" fill="url(#paint0_linear_2108_4171)"/>
<defs>
<linearGradient id="paint0_linear_2108_4171" x1="34.5985" y1="49.3049" x2="212.449" y2="228.099" gradientUnits="userSpaceOnUse">
<stop stop-color="white" stop-opacity="0.1"/>
<stop offset="1" stop-color="white" stop-opacity="0"/>
</linearGradient>
</defs>
</svg>
