<svg width="250" height="250" viewBox="0 0 250 250" fill="none" xmlns="http://www.w3.org/2000/svg">
<g clip-path="url(#clip0_2108_4268)">
<path d="M66.5341 207.449L23.7871 133.446C22.1436 130.601 21.2783 127.374 21.2783 124.089C21.2783 120.803 22.1436 117.576 23.7871 114.731L66.5341 40.7293C68.1779 37.8837 70.5421 35.5208 73.3893 33.878C76.2364 32.2352 79.466 31.3705 82.7536 31.3707H168.248C171.535 31.3708 174.764 32.2356 177.611 33.8784C180.458 35.5212 182.822 37.884 184.465 40.7293L227.212 114.731C228.856 117.576 229.722 120.804 229.722 124.089C229.722 127.375 228.856 130.603 227.212 133.448L184.465 207.449C182.822 210.294 180.458 212.657 177.611 214.299C174.764 215.942 171.535 216.807 168.248 216.806H82.7536C79.466 216.807 76.2363 215.942 73.3892 214.299C70.542 212.657 68.1778 210.293 66.5341 207.448V207.449Z" fill="url(#paint0_linear_2108_4268)"/>
<path opacity="0.07" d="M218.411 149.447L166.567 97.6345L157.028 99.6104L133.247 75.8444L125.637 90.0679L121.511 106.521L128.495 113.504L115.08 116.241L96.685 97.8559L84.1947 109.856L107.193 132.846L82.8154 152.214L148.268 217.63L180.155 217.321L218.411 149.447Z" fill="black"/>
<path d="M160.543 112.533C165.331 112.533 169.213 108.654 169.213 103.868C169.213 99.0825 165.331 95.2029 160.543 95.2029C155.755 95.2029 151.873 99.0825 151.873 103.868C151.873 108.654 155.755 112.533 160.543 112.533Z" fill="white"/>
<path d="M90.456 112.533C95.2443 112.533 99.126 108.654 99.126 103.868C99.126 99.0825 95.2443 95.2029 90.456 95.2029C85.6678 95.2029 81.7861 99.0825 81.7861 103.868C81.7861 108.654 85.6678 112.533 90.456 112.533Z" fill="white"/>
<path d="M125.5 173.2C130.29 173.2 134.172 169.32 134.172 164.533C134.172 159.747 130.29 155.866 125.5 155.866C120.711 155.866 116.829 159.747 116.829 164.533C116.829 169.32 120.711 173.2 125.5 173.2Z" fill="white"/>
<path d="M125.5 138.09C133.237 138.09 139.508 131.822 139.508 124.089C139.508 116.357 133.237 110.089 125.5 110.089C117.764 110.089 111.492 116.357 111.492 124.089C111.492 131.822 117.764 138.09 125.5 138.09Z" fill="white"/>
<path d="M90.456 155.31C96.534 155.31 101.461 150.385 101.461 144.31C101.461 138.236 96.534 133.311 90.456 133.311C84.3781 133.311 79.4509 138.236 79.4509 144.31C79.4509 150.385 84.3781 155.31 90.456 155.31Z" fill="white"/>
<path d="M160.543 155.31C166.621 155.31 171.548 150.385 171.548 144.31C171.548 138.236 166.621 133.311 160.543 133.311C154.465 133.311 149.538 138.236 149.538 144.31C149.538 150.385 154.465 155.31 160.543 155.31Z" fill="white"/>
<path d="M125.5 94.6463C131.579 94.6463 136.507 89.7211 136.507 83.6455C136.507 77.5698 131.579 72.6446 125.5 72.6446C119.422 72.6446 114.494 77.5698 114.494 83.6455C114.494 89.7211 119.422 94.6463 125.5 94.6463Z" fill="white"/>
</g>
<defs>
<linearGradient id="paint0_linear_2108_4268" x1="125.501" y1="31.3723" x2="125.501" y2="216.518" gradientUnits="userSpaceOnUse">
<stop stop-color="#4387FD"/>
<stop offset="1" stop-color="#4683EA"/>
</linearGradient>
<clipPath id="clip0_2108_4268">
<rect width="209" height="187" fill="white" transform="translate(21 31)"/>
</clipPath>
</defs>
</svg>
