<svg width="250" height="250" viewBox="0 0 250 250" fill="none" xmlns="http://www.w3.org/2000/svg">
<g clip-path="url(#clip0_1789_6872)">
<path d="M66.2392 207.781L23.6407 134.102C22.0029 131.27 21.1406 128.056 21.1406 124.785C21.1406 121.515 22.0029 118.301 23.6407 115.469L66.2392 41.7918C67.8772 38.9587 70.2333 36.6062 73.0705 34.9706C75.9077 33.335 79.1261 32.474 82.4022 32.4742H167.599C170.875 32.4743 174.093 33.3354 176.93 34.971C179.767 36.6066 182.123 38.959 183.761 41.7918L226.359 115.469C227.997 118.302 228.86 121.515 228.86 124.786C228.86 128.057 227.997 131.271 226.359 134.104L183.761 207.779C182.123 210.612 179.767 212.964 176.93 214.6C174.093 216.236 170.875 217.097 167.599 217.097H82.4022C79.1261 217.097 75.9076 216.236 73.0704 214.601C70.2331 212.965 67.8771 210.612 66.2392 207.779V207.781Z" fill="url(#paint0_linear_1789_6872)"/>
<path opacity="0.07" d="M101.167 108.379L89.791 119.706L99.458 129.361L89.8868 146.336L162.32 218.667L179.873 218.67L214.151 157.195L159.873 102.991L101.167 108.379Z" fill="black"/>
<path d="M158.59 102.537H91.3477C90.2653 102.537 89.3809 103.422 89.3809 104.505V118.385C89.3809 119.465 90.2669 120.349 91.3477 120.349H158.59C159.672 120.349 160.559 119.465 160.559 118.385V104.501C160.559 103.422 159.674 102.536 158.592 102.536L158.59 102.537ZM148.18 115.46C147.114 115.457 146.092 115.033 145.339 114.28C144.586 113.527 144.162 112.506 144.16 111.442C144.16 110.915 144.263 110.392 144.465 109.905C144.667 109.418 144.963 108.975 145.337 108.603C145.71 108.23 146.153 107.934 146.641 107.733C147.129 107.531 147.652 107.427 148.18 107.428C150.403 107.428 152.204 109.215 152.204 111.442C152.204 111.969 152.1 112.492 151.898 112.98C151.696 113.467 151.399 113.91 151.026 114.283C150.652 114.657 150.208 114.953 149.72 115.155C149.232 115.357 148.708 115.46 148.18 115.46ZM158.59 129.22L91.3477 129.223C90.2653 129.223 89.3809 130.108 89.3809 131.19V145.069C89.3809 146.149 90.2669 147.035 91.3477 147.035H158.59C159.672 147.035 160.559 146.149 160.559 145.069V131.187C160.559 130.108 159.674 129.22 158.592 129.22H158.59ZM148.18 142.144C147.114 142.142 146.092 141.717 145.339 140.964C144.585 140.211 144.161 139.19 144.16 138.126C144.16 137.598 144.263 137.076 144.465 136.589C144.667 136.102 144.963 135.659 145.337 135.287C145.71 134.914 146.153 134.618 146.641 134.416C147.129 134.215 147.652 134.111 148.18 134.112C148.721 134.09 149.262 134.178 149.769 134.37C150.276 134.562 150.739 134.854 151.129 135.229C151.52 135.604 151.831 136.054 152.044 136.552C152.256 137.05 152.366 137.586 152.366 138.127C152.366 138.669 152.256 139.204 152.044 139.702C151.831 140.2 151.52 140.65 151.129 141.025C150.739 141.4 150.276 141.693 149.769 141.885C149.262 142.077 148.721 142.165 148.18 142.143" fill="white"/>
</g>
<defs>
<linearGradient id="paint0_linear_1789_6872" x1="125.001" y1="32.4759" x2="125.001" y2="216.81" gradientUnits="userSpaceOnUse">
<stop stop-color="#4387FD"/>
<stop offset="1" stop-color="#4683EA"/>
</linearGradient>
<clipPath id="clip0_1789_6872">
<rect width="208" height="187" fill="white" transform="translate(21 32)"/>
</clipPath>
</defs>
</svg>
