<svg width="250" height="250" viewBox="0 0 250 250" fill="none" xmlns="http://www.w3.org/2000/svg">
<path d="M204.648 193.714C204.663 193.773 204.679 193.832 204.695 193.891C198.608 193.1 195.163 186.826 195.163 169.636C195.163 159.613 196.428 150.037 197.664 140.679C198.846 131.739 200 122.998 200 114.258C200 97.5083 195.163 84.1603 176.419 84.1603C159.789 84.1603 141.648 102.9 134.693 117.665C135.587 111.929 137.069 107.02 138.342 102.802C139.652 98.4609 140.741 94.8521 140.741 91.8265C140.957 90.4603 140.851 89.0628 140.43 87.7447C140.01 86.4265 139.287 85.2239 138.319 84.232C137.35 83.2401 136.164 82.4861 134.852 82.0298C133.541 81.5735 132.141 81.4273 130.763 81.6028C121.087 81.6028 99.316 90.6926 96.5954 104.04C94.7817 110.566 93.8747 115.681 93.5714 162.253C93.4323 170.278 92.7064 178.279 91.9695 185.741C91.5083 188.32 90.0631 190.621 87.9364 192.163C85.8097 193.705 83.1663 194.369 80.5592 194.015C73.5986 194.015 70.267 184.92 70.267 155.632C70.267 136.934 73.1062 121.364 75.1589 110.109C76.3209 103.736 77.2308 98.7468 77.2308 95.3542C77.3141 93.8832 77.0932 92.4107 76.5817 91.0281C76.0703 89.6454 75.2792 88.382 74.2575 87.316C73.2357 86.25 72.0051 85.4041 70.6417 84.8306C69.2783 84.2572 67.8112 83.9685 66.3312 83.9823C60.3857 84.9523 54.7274 87.2123 49.7572 90.6022C44.787 93.9921 40.6267 98.4288 37.5712 103.598C33.0278 112.699 30 151.937 30 174.684C30 200.84 39.6879 221.881 68.1473 221.881C76.2913 221.998 84.225 219.305 90.6005 214.259C91.3005 219.064 93.1677 221.881 97.202 221.881C125.621 221.881 131.066 209.673 131.066 202.001C131.066 156.569 141.648 121.357 153.741 121.357C158.882 121.357 160.695 126.471 160.695 133.854C160.695 140.041 159.632 147.829 158.535 155.861C157.367 164.413 156.161 173.242 156.161 180.71C156.161 206.265 169.464 221.881 193.652 221.881C202.458 222.05 211.003 218.985 217.669 213.297C220.798 208.518 220.248 204.527 219.305 199.36C218.438 194.609 209.53 193.621 204.648 193.714Z" fill="#FF5621"/>
<path d="M72.733 26.8792C62.1842 26.8792 44.3935 35.0995 44.3935 52.69C44.3935 72.5459 53.1433 75.8779 61.8815 75.8788C70.1811 75.1666 77.8669 71.2352 83.281 64.9326C88.6951 58.63 91.4035 50.4614 90.822 42.1888C90.822 31.1315 82.3868 26.8792 72.733 26.8792Z" fill="#FF5621"/>
</svg>
