<svg width="30" height="31" viewBox="0 0 30 31" fill="none" xmlns="http://www.w3.org/2000/svg">
<g clip-path="url(#clip0_3727_61629)">
<path d="M14.9449 2C7.10628 2 0.75 8.18902 0.75 15.8238C0.75 21.9316 4.81726 27.1133 10.4574 28.9413C11.1667 29.0692 11.4273 28.6414 11.4273 28.2762C11.4273 27.9466 11.414 26.8576 11.408 25.7025C7.45886 26.5387 6.62556 24.0715 6.62556 24.0715C5.97986 22.4736 5.04949 22.0488 5.04949 22.0488C3.76165 21.1908 5.14657 21.2084 5.14657 21.2084C6.57202 21.3059 7.32259 22.633 7.32259 22.633C8.58861 24.7464 10.6433 24.1353 11.4533 23.7822C11.5807 22.8886 11.9486 22.2789 12.3545 21.9337C9.2017 21.584 5.88724 20.3987 5.88724 15.1018C5.88724 13.5927 6.44176 12.3594 7.34987 11.3914C7.20247 11.0431 6.71663 9.63716 7.48736 7.73302C7.48736 7.73302 8.67935 7.36147 11.392 9.15004C12.5242 8.84365 13.7385 8.69013 14.9449 8.68493C16.1512 8.69013 17.3665 8.84365 18.5009 9.15004C21.2103 7.36147 22.4006 7.73302 22.4006 7.73302C23.1733 9.63716 22.6872 11.0431 22.5398 11.3914C23.4499 12.3594 24.0007 13.5926 24.0007 15.1018C24.0007 20.4113 20.68 21.5805 17.5191 21.9226C18.0282 22.3516 18.4819 23.193 18.4819 24.4826C18.4819 26.3322 18.4654 27.8209 18.4654 28.2762C18.4654 28.6441 18.7209 29.0752 19.4405 28.9394C25.0775 27.1094 29.1397 21.9296 29.1397 15.8238C29.1397 8.18902 22.7843 2 14.9449 2Z" fill="#989DBF"/>
<path d="M6.06623 21.6923C6.03505 21.7609 5.92395 21.7815 5.82297 21.7345C5.72 21.6894 5.66211 21.5957 5.6955 21.5267C5.72612 21.4561 5.83722 21.4363 5.93998 21.4838C6.04318 21.5288 6.10196 21.6233 6.06623 21.6923V21.6923ZM6.76447 22.299C6.69679 22.3602 6.56442 22.3317 6.47458 22.2351C6.38173 22.1388 6.36436 22.01 6.43305 21.9478C6.50285 21.8868 6.63121 21.9153 6.72428 22.0118C6.81713 22.1093 6.83517 22.2373 6.76436 22.2991L6.76447 22.299ZM7.24352 23.0753C7.15646 23.1341 7.01418 23.079 6.92634 22.956C6.8394 22.8332 6.8394 22.6857 6.92824 22.6266C7.01641 22.5676 7.15646 22.6207 7.24552 22.7427C7.33236 22.8677 7.33236 23.0151 7.24341 23.0754L7.24352 23.0753ZM8.05354 23.9744C7.97572 24.0579 7.81007 24.0355 7.68872 23.9215C7.5647 23.81 7.53008 23.6518 7.60812 23.5683C7.68683 23.4846 7.85348 23.5081 7.97572 23.6212C8.09896 23.7324 8.13659 23.8918 8.05365 23.9744H8.05354ZM9.10047 24.278C9.06629 24.3862 8.90664 24.4354 8.74589 24.3894C8.58535 24.342 8.48026 24.2152 8.51266 24.1058C8.54605 23.9968 8.70637 23.9455 8.86835 23.9948C9.02866 24.0419 9.13398 24.1678 9.10058 24.278H9.10047ZM10.2921 24.4066C10.2961 24.5207 10.1598 24.6152 9.99098 24.6173C9.8212 24.6209 9.68394 24.5286 9.68216 24.4165C9.68216 24.3014 9.81541 24.2077 9.98508 24.205C10.1539 24.2017 10.2921 24.2933 10.2921 24.4066V24.4066ZM11.4626 24.363C11.4829 24.4742 11.3655 24.5885 11.198 24.6188C11.0332 24.6481 10.8807 24.5795 10.8597 24.4692C10.8392 24.3551 10.9588 24.241 11.1232 24.2114C11.2911 24.183 11.4412 24.2499 11.4626 24.363" fill="#989DBF"/>
</g>
<defs>
<clipPath id="clip0_3727_61629">
<rect width="28.5" height="27" fill="white" transform="translate(0.75 2)"/>
</clipPath>
</defs>
</svg>
