<svg width="30" height="31" viewBox="0 0 30 31" fill="none" xmlns="http://www.w3.org/2000/svg">
<path d="M1.125 28.625V12.1407L13.4858 3.59896C13.9328 3.28996 14.4562 3.12646 15 3.12646C15.5438 3.12646 16.0672 3.28996 16.5142 3.59896L28.875 12.1407V28.625H1.125Z" fill="white"/>
<path d="M15 3.50146C15.4665 3.50146 15.9165 3.64171 16.3005 3.90721L28.5 12.3365V28.25H1.5V12.3365L13.6995 3.90721C14.0835 3.64171 14.5335 3.50146 15 3.50146ZM15 2.75146C14.3962 2.75146 13.7925 2.93071 13.2735 3.28996L0.75 11.9435V29H29.25V11.9435L16.7265 3.28996C16.2075 2.93146 15.6038 2.75146 15 2.75146Z" fill="#989DBF"/>
<path d="M18.75 19.25H11.25L1.5 12.3365L13.6995 3.90722C14.0835 3.64172 14.5335 3.50146 15 3.50146C15.4665 3.50146 15.9165 3.64172 16.3005 3.90722L28.5 12.3365L18.75 19.25Z" fill="#C0C3D9"/>
<path d="M24.375 5.375H5.625V20H24.375V5.375Z" fill="white" stroke="#989DBF" stroke-miterlimit="10"/>
<path d="M1.5 12.3364V28.2499H28.5V12.3364L18.5903 18.8667L11.505 18.9627L1.5 12.3364Z" fill="#E6E7EF"/>
<path d="M18.5107 18.5001H11.4893L2.157 11.8828L1.5 12.3366L11.25 19.2501H18.75L28.5 12.3366L27.843 11.8828L18.5107 18.5001Z" fill="#989DBF"/>
<path d="M20.625 10.25H9.375C9.168 10.25 9 10.082 9 9.875C9 9.668 9.168 9.5 9.375 9.5H20.625C20.832 9.5 21 9.668 21 9.875C21 10.082 20.832 10.25 20.625 10.25Z" fill="#989DBF"/>
<path d="M17.625 12.5H9.375C9.168 12.5 9 12.332 9 12.125C9 11.918 9.168 11.75 9.375 11.75H17.625C17.832 11.75 18 11.918 18 12.125C18 12.332 17.832 12.5 17.625 12.5Z" fill="#989DBF"/>
<path d="M20.625 14.75H9.375C9.168 14.75 9 14.582 9 14.375C9 14.168 9.168 14 9.375 14H20.625C20.832 14 21 14.168 21 14.375C21 14.582 20.832 14.75 20.625 14.75Z" fill="#989DBF"/>
</svg>
