<svg width="30" height="31" viewBox="0 0 30 31" fill="none" xmlns="http://www.w3.org/2000/svg">
<path d="M15 27.875C14.4697 27.875 13.977 27.6523 13.6118 27.2488L13.5007 27.125H0.99975C0.6555 27.125 0.375 26.8445 0.375 26.5002V6.74975C0.375 6.4055 0.6555 6.125 0.99975 6.125H29.0002C29.3445 6.125 29.625 6.4055 29.625 6.74975V26.5002C29.625 26.8445 29.3445 27.125 29.0002 27.125H16.4993L16.3882 27.2488C16.023 27.6523 15.5303 27.875 15 27.875Z" fill="#CBC8FF"/>
<path d="M29.0002 6.5C29.1375 6.5 29.25 6.6125 29.25 6.74975V26.4995C29.25 26.6375 29.1375 26.75 29.0002 26.75H16.6658H16.332L16.1085 26.9983C15.8175 27.3215 15.4237 27.5 15 27.5C14.5763 27.5 14.1825 27.3215 13.8915 26.9983L13.668 26.75H13.3342H0.99975C0.8625 26.75 0.75 26.6375 0.75 26.5002V6.74975C0.75 6.6125 0.8625 6.5 0.99975 6.5H29.0002ZM29.0002 5.75H0.99975C0.44775 5.75 0 6.19775 0 6.74975V26.4995C0 27.0523 0.44775 27.5 0.99975 27.5H13.3335C13.7452 27.9575 14.3355 28.25 14.9993 28.25C15.663 28.25 16.2532 27.9575 16.665 27.5H28.9988C29.5523 27.5 30 27.0522 30 26.5002V6.74975C30 6.19775 29.5522 5.75 29.0002 5.75Z" fill="#A6A4FF"/>
<path d="M14.5875 25.625C14.4135 24.77 13.6553 24.125 12.75 24.125H2.625V3.875H12.9998C13.911 3.875 14.7128 4.74125 14.721 4.75025L14.9985 5.06L15.279 4.751C15.2865 4.742 16.0807 3.875 17.0002 3.875H27.375V24.125H17.25C16.3447 24.125 15.5865 24.77 15.4125 25.625H14.5875Z" fill="white"/>
<path d="M27 4.25V23.75H17.25C16.272 23.75 15.438 24.377 15.1282 25.25H14.871C14.5612 24.377 13.7273 23.75 12.7493 23.75H3V4.25H12.9998C13.62 4.25 14.2522 4.79375 14.4412 5L14.997 5.615L15.5565 5.00225C15.7478 4.79375 16.3792 4.25 17.0002 4.25H27ZM27.75 3.5H17.0002C15.8955 3.5 15 4.49975 15 4.49975C15 4.49975 14.1045 3.5 12.9998 3.5H2.25V24.5H12.75C13.5788 24.5 14.25 25.1712 14.25 26H15.75C15.75 25.1712 16.4212 24.5 17.25 24.5H27.75V3.5Z" fill="#A6A4FF"/>
<path d="M17.0002 4.25C16.2637 4.25 15.5655 4.9925 15.5588 5L15 5.624V25.25H15.1282C15.438 24.377 16.272 23.75 17.25 23.75H27V4.25H17.0002Z" fill="#EAE9FF"/>
<path d="M12.375 14H5.625C5.418 14 5.25 13.832 5.25 13.625C5.25 13.418 5.418 13.25 5.625 13.25H12.375C12.582 13.25 12.75 13.418 12.75 13.625C12.75 13.832 12.582 14 12.375 14ZM12.375 8H5.625C5.418 8 5.25 7.832 5.25 7.625C5.25 7.418 5.418 7.25 5.625 7.25H12.375C12.582 7.25 12.75 7.418 12.75 7.625C12.75 7.832 12.582 8 12.375 8ZM12.375 11H5.625C5.418 11 5.25 10.832 5.25 10.625C5.25 10.418 5.418 10.25 5.625 10.25H12.375C12.582 10.25 12.75 10.418 12.75 10.625C12.75 10.832 12.582 11 12.375 11ZM12.375 17H5.625C5.418 17 5.25 16.832 5.25 16.625C5.25 16.418 5.418 16.25 5.625 16.25H12.375C12.582 16.25 12.75 16.418 12.75 16.625C12.75 16.832 12.582 17 12.375 17ZM24.375 14H17.625C17.418 14 17.25 13.832 17.25 13.625C17.25 13.418 17.418 13.25 17.625 13.25H24.375C24.582 13.25 24.75 13.418 24.75 13.625C24.75 13.832 24.582 14 24.375 14ZM24.375 17H17.625C17.418 17 17.25 16.832 17.25 16.625C17.25 16.418 17.418 16.25 17.625 16.25H24.375C24.582 16.25 24.75 16.418 24.75 16.625C24.75 16.832 24.582 17 24.375 17ZM24.375 8H17.625C17.418 8 17.25 7.832 17.25 7.625C17.25 7.418 17.418 7.25 17.625 7.25H24.375C24.582 7.25 24.75 7.418 24.75 7.625C24.75 7.832 24.582 8 24.375 8ZM24.375 11H17.625C17.418 11 17.25 10.832 17.25 10.625C17.25 10.418 17.418 10.25 17.625 10.25H24.375C24.582 10.25 24.75 10.418 24.75 10.625C24.75 10.832 24.582 11 24.375 11ZM21.375 20H17.625C17.418 20 17.25 19.832 17.25 19.625C17.25 19.418 17.418 19.25 17.625 19.25H21.375C21.582 19.25 21.75 19.418 21.75 19.625C21.75 19.832 21.582 20 21.375 20ZM12.375 20H5.625C5.418 20 5.25 19.832 5.25 19.625C5.25 19.418 5.418 19.25 5.625 19.25H12.375C12.582 19.25 12.75 19.418 12.75 19.625C12.75 19.832 12.582 20 12.375 20Z" fill="#A6A4FF"/>
</svg>
