<svg width="30" height="31" viewBox="0 0 30 31" fill="none" xmlns="http://www.w3.org/2000/svg">
<path d="M15 8.75L17.6135 16.6365L25.5 19.25L17.6135 21.8635L15 29.75L12.3865 21.8635L4.5 19.25L12.3865 16.6365L15 8.75Z" fill="#EAE9FF"/>
<path fill-rule="evenodd" clip-rule="evenodd" d="M17.6135 16.6365L15 8.75L12.3865 16.6365L4.5 19.25L12.3865 21.8635L15 29.75L17.6135 21.8635L25.5 19.25L17.6135 16.6365ZM23.1157 19.25L17.02 17.23L15 11.1343L12.98 17.23L6.88427 19.25L12.98 21.27L15 27.3657L17.02 21.27L23.1157 19.25Z" fill="#A6A4FF"/>
<path d="M6.75 7.25L7.68338 10.0666L10.5 11L7.68338 11.9334L6.75 14.75L5.81662 11.9334L3 11L5.81662 10.0666L6.75 7.25Z" fill="#EAE9FF"/>
<path fill-rule="evenodd" clip-rule="evenodd" d="M7.68338 10.0666L6.75 7.25L5.81662 10.0666L3 11L5.81662 11.9334L6.75 14.75L7.68338 11.9334L10.5 11L7.68338 10.0666ZM8.11573 11L7.08993 10.6601L6.75 9.63427L6.41007 10.6601L5.38427 11L6.41007 11.3399L6.75 12.3657L7.08993 11.3399L8.11573 11Z" fill="#A6A4FF"/>
<path d="M23.25 2L24.5567 5.94327L28.5 7.25L24.5567 8.55673L23.25 12.5L21.9433 8.55673L18 7.25L21.9433 5.94327L23.25 2Z" fill="#EAE9FF"/>
<path fill-rule="evenodd" clip-rule="evenodd" d="M24.5567 5.94327L23.25 2L21.9433 5.94327L18 7.25L21.9433 8.55673L23.25 12.5L24.5567 8.55673L28.5 7.25L24.5567 5.94327ZM26.1157 7.25L23.9633 6.53672L23.25 4.38427L22.5367 6.53672L20.3843 7.25L22.5367 7.96328L23.25 10.1157L23.9633 7.96328L26.1157 7.25Z" fill="#A6A4FF"/>
</svg>
