<svg width="30" height="31" viewBox="0 0 30 31" fill="none" xmlns="http://www.w3.org/2000/svg">
<path d="M16.6191 28.625C17.6804 27.878 18.3749 26.6435 18.3749 25.25V4.625H28.1249V25.25C28.1249 27.1107 26.6106 28.625 24.7499 28.625H16.6191Z" fill="#C0C3D9"/>
<path d="M27.75 5V25.25C27.75 26.9045 26.4045 28.25 24.75 28.25H17.601C18.315 27.4535 18.75 26.4012 18.75 25.25V5H27.75ZM28.5 4.25H18V25.25C18 27.3207 16.3207 29 14.25 29H24.75C26.8207 29 28.5 27.3207 28.5 25.25V4.25Z" fill="#989DBF"/>
<path d="M5.25 28.625C3.38925 28.625 1.875 27.1107 1.875 25.25V1.625H21.375V25.25C21.375 26.9847 22.6898 28.4173 24.375 28.604V28.625H5.25Z" fill="#E6E7EF"/>
<path d="M21 2V25.25C21 26.4755 21.591 27.5653 22.5023 28.25H5.25C3.5955 28.25 2.25 26.9045 2.25 25.25V2H21ZM21.75 1.25H1.5V25.25C1.5 27.3207 3.17925 29 5.25 29H24.75V28.25C23.0932 28.25 21.75 26.9068 21.75 25.25V1.25Z" fill="#989DBF"/>
<path d="M25.125 8.75H21.375C21.1687 8.75 21 8.58125 21 8.375C21 8.16875 21.1687 8 21.375 8H25.125C25.3313 8 25.5 8.16875 25.5 8.375C25.5 8.58125 25.3313 8.75 25.125 8.75ZM25.125 11H21.375C21.1687 11 21 10.8313 21 10.625C21 10.4187 21.1687 10.25 21.375 10.25H25.125C25.3313 10.25 25.5 10.4187 25.5 10.625C25.5 10.8313 25.3313 11 25.125 11ZM25.125 13.25H21.375C21.1687 13.25 21 13.0813 21 12.875C21 12.6687 21.1687 12.5 21.375 12.5H25.125C25.3313 12.5 25.5 12.6687 25.5 12.875C25.5 13.0813 25.3313 13.25 25.125 13.25ZM25.125 15.5H21.375C21.1687 15.5 21 15.3313 21 15.125C21 14.9187 21.1687 14.75 21.375 14.75H25.125C25.3313 14.75 25.5 14.9187 25.5 15.125C25.5 15.3313 25.3313 15.5 25.125 15.5ZM25.125 17.75H21.375C21.1687 17.75 21 17.5813 21 17.375C21 17.1687 21.1687 17 21.375 17H25.125C25.3313 17 25.5 17.1687 25.5 17.375C25.5 17.5813 25.3313 17.75 25.125 17.75ZM25.125 20H21.375C21.1687 20 21 19.8313 21 19.625C21 19.4187 21.1687 19.25 21.375 19.25H25.125C25.3313 19.25 25.5 19.4187 25.5 19.625C25.5 19.8313 25.3313 20 25.125 20ZM25.125 22.25H21.375C21.1687 22.25 21 22.0813 21 21.875C21 21.6687 21.1687 21.5 21.375 21.5H25.125C25.3313 21.5 25.5 21.6687 25.5 21.875C25.5 22.0813 25.3313 22.25 25.125 22.25ZM25.125 24.5H21.375C21.1687 24.5 21 24.3313 21 24.125C21 23.9187 21.1687 23.75 21.375 23.75H25.125C25.3313 23.75 25.5 23.9187 25.5 24.125C25.5 24.3313 25.3313 24.5 25.125 24.5Z" fill="#989DBF"/>
<path d="M17.625 9.5H13.125C12.9187 9.5 12.75 9.33125 12.75 9.125C12.75 8.91875 12.9187 8.75 13.125 8.75H17.625C17.8313 8.75 18 8.91875 18 9.125C18 9.33125 17.8313 9.5 17.625 9.5ZM17.625 11.75H13.125C12.9187 11.75 12.75 11.5813 12.75 11.375C12.75 11.1687 12.9187 11 13.125 11H17.625C17.8313 11 18 11.1687 18 11.375C18 11.5813 17.8313 11.75 17.625 11.75ZM17.625 14H13.125C12.9187 14 12.75 13.8313 12.75 13.625C12.75 13.4187 12.9187 13.25 13.125 13.25H17.625C17.8313 13.25 18 13.4187 18 13.625C18 13.8313 17.8313 14 17.625 14ZM17.625 16.25H13.125C12.9187 16.25 12.75 16.0813 12.75 15.875C12.75 15.6687 12.9187 15.5 13.125 15.5H17.625C17.8313 15.5 18 15.6687 18 15.875C18 16.0813 17.8313 16.25 17.625 16.25ZM17.625 18.5H13.125C12.9187 18.5 12.75 18.3313 12.75 18.125C12.75 17.9187 12.9187 17.75 13.125 17.75H17.625C17.8313 17.75 18 17.9187 18 18.125C18 18.3313 17.8313 18.5 17.625 18.5ZM17.625 20.75H13.125C12.9187 20.75 12.75 20.5813 12.75 20.375C12.75 20.1687 12.9187 20 13.125 20H17.625C17.8313 20 18 20.1687 18 20.375C18 20.5813 17.8313 20.75 17.625 20.75ZM17.625 23H13.125C12.9187 23 12.75 22.8313 12.75 22.625C12.75 22.4187 12.9187 22.25 13.125 22.25H17.625C17.8313 22.25 18 22.4187 18 22.625C18 22.8313 17.8313 23 17.625 23ZM17.625 25.25H13.125C12.9187 25.25 12.75 25.0813 12.75 24.875C12.75 24.6687 12.9187 24.5 13.125 24.5H17.625C17.8313 24.5 18 24.6687 18 24.875C18 25.0813 17.8313 25.25 17.625 25.25Z" fill="#989DBF"/>
<path d="M10.125 9.5H5.625C5.41875 9.5 5.25 9.33125 5.25 9.125C5.25 8.91875 5.41875 8.75 5.625 8.75H10.125C10.3313 8.75 10.5 8.91875 10.5 9.125C10.5 9.33125 10.3313 9.5 10.125 9.5ZM10.125 11.75H5.625C5.41875 11.75 5.25 11.5813 5.25 11.375C5.25 11.1687 5.41875 11 5.625 11H10.125C10.3313 11 10.5 11.1687 10.5 11.375C10.5 11.5813 10.3313 11.75 10.125 11.75ZM10.125 14H5.625C5.41875 14 5.25 13.8313 5.25 13.625C5.25 13.4187 5.41875 13.25 5.625 13.25H10.125C10.3313 13.25 10.5 13.4187 10.5 13.625C10.5 13.8313 10.3313 14 10.125 14ZM10.125 16.25H5.625C5.41875 16.25 5.25 16.0813 5.25 15.875C5.25 15.6687 5.41875 15.5 5.625 15.5H10.125C10.3313 15.5 10.5 15.6687 10.5 15.875C10.5 16.0813 10.3313 16.25 10.125 16.25ZM10.125 18.5H5.625C5.41875 18.5 5.25 18.3313 5.25 18.125C5.25 17.9187 5.41875 17.75 5.625 17.75H10.125C10.3313 17.75 10.5 17.9187 10.5 18.125C10.5 18.3313 10.3313 18.5 10.125 18.5ZM10.125 20.75H5.625C5.41875 20.75 5.25 20.5813 5.25 20.375C5.25 20.1687 5.41875 20 5.625 20H10.125C10.3313 20 10.5 20.1687 10.5 20.375C10.5 20.5813 10.3313 20.75 10.125 20.75ZM10.125 23H5.625C5.41875 23 5.25 22.8313 5.25 22.625C5.25 22.4187 5.41875 22.25 5.625 22.25H10.125C10.3313 22.25 10.5 22.4187 10.5 22.625C10.5 22.8313 10.3313 23 10.125 23ZM10.125 25.25H5.625C5.41875 25.25 5.25 25.0813 5.25 24.875C5.25 24.6687 5.41875 24.5 5.625 24.5H10.125C10.3313 24.5 10.5 24.6687 10.5 24.875C10.5 25.0813 10.3313 25.25 10.125 25.25Z" fill="#989DBF"/>
<path d="M17.25 6.5H6C5.5875 6.5 5.25 6.1625 5.25 5.75C5.25 5.3375 5.5875 5 6 5H17.25C17.6625 5 18 5.3375 18 5.75C18 6.1625 17.6625 6.5 17.25 6.5Z" fill="#989DBF"/>
</svg>
