<svg width="30" height="31" viewBox="0 0 30 31" fill="none" xmlns="http://www.w3.org/2000/svg">
<path d="M22.875 20.375C21.6345 20.375 20.625 19.3655 20.625 18.125C20.625 16.8845 21.6345 15.875 22.875 15.875C24.7425 15.875 25.125 16.4248 25.125 17.2498C25.125 18.614 24.0337 20.375 22.875 20.375Z" fill="#E6E7EF"/>
<path d="M22.875 16.25C24.75 16.25 24.75 16.8043 24.75 17.2498C24.75 18.386 23.7803 20 22.875 20C21.8408 20 21 19.1585 21 18.125C21 17.0915 21.8408 16.25 22.875 16.25ZM22.875 15.5C21.4253 15.5 20.25 16.6753 20.25 18.125C20.25 19.5747 21.4253 20.75 22.875 20.75C24.3247 20.75 25.5 18.6995 25.5 17.2498C25.5 15.8 24.3247 15.5 22.875 15.5Z" fill="#989DBF"/>
<path d="M7.125 20.375C5.96625 20.375 4.875 18.6148 4.875 17.2498C4.875 16.424 5.2575 15.875 7.125 15.875C8.3655 15.875 9.375 16.8845 9.375 18.125C9.375 19.3655 8.3655 20.375 7.125 20.375Z" fill="#E6E7EF"/>
<path d="M7.125 16.25C8.15925 16.25 9 17.0915 9 18.125C9 19.1585 8.15925 20 7.125 20C6.21975 20 5.25 18.386 5.25 17.2498C5.25 16.8043 5.25 16.25 7.125 16.25ZM7.125 15.5C5.67525 15.5 4.5 15.8 4.5 17.2498C4.5 18.6995 5.67525 20.75 7.125 20.75C8.57475 20.75 9.75 19.5747 9.75 18.125C9.75 16.6753 8.57475 15.5 7.125 15.5Z" fill="#989DBF"/>
<path d="M15 29.375C14.0482 29.375 13.1655 28.9797 12.5137 28.2627L12.4507 28.193L12.3622 28.1615C9.2295 27.0462 7.125 24.068 7.125 20.75V9.78575C7.125 7.8245 8.72025 6.22925 10.6815 6.22925H19.3185C21.2797 6.22925 22.875 7.8245 22.875 9.78575V20.75C22.875 24.068 20.7705 27.0462 17.6385 28.1615L17.55 28.193L17.487 28.2627C16.8345 28.9797 15.9518 29.375 15 29.375Z" fill="white"/>
<path d="M19.3185 6.60425C21.0727 6.60425 22.5 8.0315 22.5 9.78575V20.75C22.5 23.9097 20.496 26.7462 17.5125 27.809L17.3355 27.872L17.2095 28.0107C16.629 28.6482 15.8438 29 15 29C14.1562 29 13.371 28.6482 12.7905 28.01L12.6645 27.8712L12.4875 27.8082C9.504 26.7462 7.5 23.9097 7.5 20.75V9.78575C7.5 8.0315 8.92725 6.60425 10.6815 6.60425H19.3185ZM19.3185 5.85425H10.6815C8.51025 5.85425 6.75 7.6145 6.75 9.78575V20.75C6.75 24.335 9.04125 27.3777 12.2355 28.5155C12.9217 29.2685 13.9005 29.75 15 29.75C16.0995 29.75 17.0783 29.2685 17.7645 28.5147C20.9588 27.377 23.25 24.335 23.25 20.75V9.78575C23.25 7.6145 21.4897 5.85425 19.3185 5.85425Z" fill="#989DBF"/>
<path d="M22.875 18.875V13.8575C22.875 9.60725 19.659 8.40875 19.626 8.3975L19.3845 8.3105L19.2158 8.50625C19.191 8.53475 16.6852 11.3758 11.9467 11.3758C8.83725 11.3758 7.125 12.9522 7.125 15.8135V18.875H7.002C6.579 17.8242 4.875 13.3797 4.875 10.1555C4.875 5.96225 8.382 1.625 14.25 1.625C17.304 1.625 18.9165 3.155 19.605 4.067L19.7175 4.21625H19.9042C21.2587 4.21625 25.125 5.35625 25.125 10.4195C25.125 12.9537 23.4067 17.7485 22.9897 18.875H22.875Z" fill="#C0C3D9"/>
<path d="M14.25 2C17.1405 2 18.6585 3.437 19.3057 4.2935L19.5308 4.59125H19.9042C21.1612 4.59125 24.75 5.66225 24.75 10.4203C24.75 12.1753 23.8943 15.0717 23.25 17.003V13.8575C23.25 9.34625 19.8952 8.09525 19.7527 8.04425L19.2682 7.874L18.9323 8.26025C18.8348 8.372 16.4978 11 11.946 11C8.59575 11 6.75 12.7092 6.75 15.8135V17.1305C6.108 15.2915 5.25 12.4123 5.25 10.1548C5.25 6.2015 8.4045 2 14.25 2ZM14.25 1.25C8.00475 1.25 4.5 5.8475 4.5 10.1548C4.5 13.9378 6.75 19.25 6.75 19.25H7.5C7.5 19.25 7.5 16.8545 7.5 15.8135C7.5 12.6155 9.669 11.75 11.946 11.75C16.9313 11.75 19.5 8.75 19.5 8.75C19.5 8.75 22.5 9.8225 22.5 13.8575C22.5 15.0027 22.5 19.25 22.5 19.25H23.25C23.25 19.25 25.5 13.394 25.5 10.4195C25.5 5.18225 21.4822 3.8405 19.9042 3.8405C19.5052 3.314 17.8455 1.25 14.25 1.25Z" fill="#989DBF"/>
<path d="M19.125 17.75C18.8266 17.75 18.5405 17.8685 18.3295 18.0795C18.1185 18.2905 18 18.5766 18 18.875C18 19.1734 18.1185 19.4595 18.3295 19.6705C18.5405 19.8815 18.8266 20 19.125 20C19.4234 20 19.7095 19.8815 19.9205 19.6705C20.1315 19.4595 20.25 19.1734 20.25 18.875C20.25 18.5766 20.1315 18.2905 19.9205 18.0795C19.7095 17.8685 19.4234 17.75 19.125 17.75ZM10.875 17.75C10.5766 17.75 10.2905 17.8685 10.0795 18.0795C9.86853 18.2905 9.75 18.5766 9.75 18.875C9.75 19.1734 9.86853 19.4595 10.0795 19.6705C10.2905 19.8815 10.5766 20 10.875 20C11.1734 20 11.4595 19.8815 11.6705 19.6705C11.8815 19.4595 12 19.1734 12 18.875C12 18.5766 11.8815 18.2905 11.6705 18.0795C11.4595 17.8685 11.1734 17.75 10.875 17.75Z" fill="#989DBF"/>
<path d="M23.25 21.125C23.0437 21.125 22.875 20.957 22.875 20.75V15.5C22.875 15.293 23.0437 15.125 23.25 15.125H24.75C25.7842 15.125 26.625 15.9665 26.625 17V19.25C26.625 20.2835 25.7842 21.125 24.75 21.125H23.25Z" fill="#989DBF"/>
<path d="M24.75 15.5C25.5773 15.5 26.25 16.1727 26.25 17V19.25C26.25 20.0773 25.5773 20.75 24.75 20.75H23.25V15.5H24.75ZM24.75 14.75H23.25C22.836 14.75 22.5 15.086 22.5 15.5V20.75C22.5 21.164 22.836 21.5 23.25 21.5H24.75C25.9927 21.5 27 20.4927 27 19.25V17C27 15.7573 25.9927 14.75 24.75 14.75Z" fill="#989DBF"/>
<path d="M21.1119 24.5L18.8994 26.75H20.6507C21.3354 26.105 21.9092 25.346 22.3427 24.5H21.1119Z" fill="white"/>
<path d="M15.9644 25.625H22.0716C23.7584 25.625 25.1249 24.2578 25.1249 22.5718V21.125" stroke="#989DBF" stroke-miterlimit="10"/>
<path d="M15.375 26.75H14.625C14.004 26.75 13.5 26.246 13.5 25.625C13.5 25.004 14.004 24.5 14.625 24.5H15.375C15.996 24.5 16.5 25.004 16.5 25.625C16.5 26.246 15.996 26.75 15.375 26.75Z" fill="#989DBF"/>
</svg>
