<svg width="30" height="31" viewBox="0 0 30 31" fill="none" xmlns="http://www.w3.org/2000/svg">
<g clip-path="url(#clip0_3727_61634)">
<path fill-rule="evenodd" clip-rule="evenodd" d="M11.9423 4.03638C10.6749 4.03731 9.6492 5.06378 9.65014 6.32864C9.6492 7.59349 10.6758 8.61996 11.9432 8.6209H14.2363V6.32957C14.2373 5.06472 13.2106 4.03825 11.9423 4.03638C11.9432 4.03638 11.9432 4.03638 11.9423 4.03638ZM11.9423 10.1503H5.82924C4.56185 10.1513 3.5352 11.1777 3.53614 12.4426C3.53426 13.7074 4.56091 14.7339 5.8283 14.7358H11.9423C13.2097 14.7348 14.2363 13.7084 14.2354 12.4435C14.2363 11.1777 13.2097 10.1513 11.9423 10.1503Z" fill="#C0C3D9"/>
<path fill-rule="evenodd" clip-rule="evenodd" d="M26.4639 12.4426C26.4649 11.1777 25.4382 10.1513 24.1708 10.1503C22.9034 10.1513 21.8768 11.1777 21.8777 12.4426V14.7358H24.1708C25.4382 14.7348 26.4649 13.7084 26.4639 12.4426ZM20.3499 12.4426V6.32864C20.3509 5.06472 19.3252 4.03825 18.0578 4.03638C16.7904 4.03731 15.7637 5.06378 15.7647 6.32864V12.4426C15.7628 13.7074 16.7894 14.7339 18.0568 14.7358C19.3242 14.7348 20.3509 13.7084 20.3499 12.4426Z" fill="#989DBF"/>
<path fill-rule="evenodd" clip-rule="evenodd" d="M18.0563 26.9635C19.3237 26.9626 20.3503 25.9361 20.3494 24.6713C20.3503 23.4064 19.3237 22.3799 18.0563 22.379H15.7632V24.6713C15.7622 25.9352 16.7889 26.9616 18.0563 26.9635ZM18.0563 20.8486H24.1703C25.4377 20.8477 26.4643 19.8212 26.4634 18.5564C26.4653 17.2915 25.4386 16.2651 24.1712 16.2632H18.0572C16.7898 16.2641 15.7632 17.2906 15.7641 18.5554C15.7632 19.8212 16.7889 20.8477 18.0563 20.8486V20.8486Z" fill="#C0C3D9"/>
<path fill-rule="evenodd" clip-rule="evenodd" d="M3.53613 18.5565C3.5352 19.8214 4.56185 20.8479 5.82924 20.8488C7.09662 20.8479 8.12327 19.8214 8.12234 18.5565V16.2643H5.82924C4.56185 16.2652 3.5352 17.2917 3.53613 18.5565ZM9.65014 18.5565V24.6705C9.64826 25.9354 10.6749 26.9618 11.9423 26.9637C13.2097 26.9628 14.2363 25.9363 14.2354 24.6714V18.5584C14.2373 17.2936 13.2106 16.2671 11.9432 16.2652C10.6749 16.2652 9.6492 17.2917 9.65014 18.5565C9.65014 18.5575 9.65014 18.5565 9.65014 18.5565Z" fill="#989DBF"/>
</g>
<defs>
<clipPath id="clip0_3727_61634">
<rect width="23.28" height="23.28" fill="white" transform="translate(3.35986 3.85999)"/>
</clipPath>
</defs>
</svg>
