<svg width="30" height="31" viewBox="0 0 30 31" fill="none" xmlns="http://www.w3.org/2000/svg">
<path d="M15.1684 2C7.7479 2 1.5 8.01601 1.5 15.4392C1.5 15.679 1.5 29.3553 1.5 29.3553L15.1658 29.3422C22.5864 29.3422 28.605 23.0943 28.605 15.6737C28.605 8.25318 22.5811 2 15.1684 2Z" fill="#C0C3D9"/>
<path d="M15.3001 7.20178C13.8573 7.20263 12.4395 7.57809 11.1854 8.29141C9.93132 9.00472 8.88394 10.0315 8.14579 11.2711C7.40764 12.5107 7.00402 13.9208 6.97444 15.3632C6.94485 16.8057 7.29032 18.2311 7.97702 19.5L6.46973 24.3486L11.8823 23.1259C13.0149 23.6362 14.2473 23.8867 15.4892 23.859C16.7311 23.8314 17.9512 23.5263 19.0599 22.9662C20.1687 22.406 21.1382 21.605 21.8973 20.6217C22.6564 19.6384 23.186 18.4977 23.4473 17.2833C23.7085 16.0688 23.6948 14.8113 23.4072 13.6028C23.1196 12.3944 22.5653 11.2655 21.785 10.299C21.0046 9.3324 20.018 8.55263 18.8973 8.01673C17.7766 7.48083 16.5502 7.20239 15.308 7.20178H15.3001Z" fill="white"/>
<path d="M21.909 10.4641C23.0318 11.9362 23.6319 13.7405 23.6146 15.5919C23.5973 17.4432 22.9635 19.236 21.8134 20.6868C20.6633 22.1377 19.0625 23.1639 17.264 23.6032C15.4654 24.0425 13.5718 23.87 11.8823 23.1128L6.46973 24.3513L11.9798 23.7004C13.7442 24.734 15.8273 25.0822 17.832 24.6787C19.8367 24.2751 21.6228 23.148 22.8499 21.5122C24.0769 19.8764 24.6592 17.8463 24.4857 15.8088C24.3122 13.7713 23.395 11.8689 21.909 10.4641V10.4641Z" fill="#C0C3D9"/>
<path d="M20.3753 8.92786C21.6456 10.2747 22.4308 12.0064 22.6069 13.8494C22.7829 15.6924 22.3398 17.5415 21.3475 19.1044C20.3552 20.6674 18.8703 21.8551 17.1275 22.4799C15.3847 23.1046 13.4835 23.1307 11.7242 22.5541L6.46973 24.3513L11.8823 23.126C13.7444 23.9671 15.8508 24.0942 17.8006 23.4831C19.7504 22.8721 21.4074 21.5654 22.4563 19.8119C23.5052 18.0584 23.8728 15.9804 23.4891 13.9735C23.1054 11.9665 21.9971 10.1707 20.3753 8.92786V8.92786Z" fill="#989DBF"/>
<path d="M8.47506 19.6844C7.74311 17.92 7.63979 15.9577 8.18243 14.1263C8.72506 12.2948 9.88068 10.7055 11.4556 9.62462C13.0306 8.54377 14.9292 8.03706 16.8333 8.18941C18.7373 8.34176 20.5312 9.1439 21.9143 10.4614C20.6415 8.79113 18.7848 7.66321 16.7159 7.30346C14.647 6.94371 12.5185 7.37869 10.7566 8.5213C8.99474 9.66391 7.72944 11.4298 7.21403 13.4656C6.69862 15.5013 6.97113 17.6566 7.97702 19.4999L6.46973 24.3486L8.47506 19.6844Z" fill="#E6E7EF"/>
<path d="M7.97713 19.5C7.06884 17.8222 6.76399 15.8836 7.11354 14.0081C7.46309 12.1326 8.44585 10.4339 9.89754 9.19605C11.3492 7.95818 13.1818 7.25615 15.089 7.20733C16.9962 7.1585 18.8623 7.76583 20.3754 8.92779C18.933 7.40899 16.9713 6.48936 14.8813 6.35214C12.7912 6.21491 10.7261 6.87017 9.09747 8.18735C7.46886 9.50453 6.39627 11.3869 6.09342 13.4595C5.79056 15.5321 6.27966 17.6427 7.46328 19.3708L6.47247 24.3512L7.97713 19.5Z" fill="#989DBF"/>
</svg>
