<svg width="30" height="31" viewBox="0 0 30 31" fill="none" xmlns="http://www.w3.org/2000/svg">
<path d="M23.625 10.625H10.125V8.37504H23.625V5.07654L28.6808 9.50004L23.625 13.9235V10.625Z" fill="#C0C3D9"/>
<path d="M24 5.903L28.1107 9.5L24 13.097V11V10.25H23.25H10.5V8.75H23.25H24V8V5.903ZM23.25 4.25V8H9.75V11H23.25V14.75L29.25 9.5L23.25 4.25Z" fill="#989DBF"/>
<path d="M1.125 8.375H3.375V10.625H1.125V8.375Z" fill="#C0C3D9"/>
<path d="M3 8.75V10.25H1.5V8.75H3ZM3.75 8H0.75V11H3.75V8Z" fill="#989DBF"/>
<path d="M5.625 8.375H7.875V10.625H5.625V8.375Z" fill="#989DBF"/>
<path d="M7.5 8.75V10.25H6V8.75H7.5ZM8.25 8H5.25V11H8.25V8Z" fill="#989DBF"/>
<path d="M1.31934 21.5L6.37509 17.0765V20.375H19.8751V22.625H6.37509V25.9235L1.31934 21.5Z" fill="#E6E7EF"/>
<path d="M6 17.903V20V20.75H6.75H19.5V22.25H6.75H6V23V25.097L1.88925 21.5L6 17.903ZM6.75 16.25L0.75 21.5L6.75 26.75V23H20.25V20H6.75V16.25Z" fill="#989DBF"/>
<path d="M26.625 20.375H28.875V22.625H26.625V20.375Z" fill="#EAE9FF"/>
<path d="M28.5 20.75V22.25H27V20.75H28.5ZM29.25 20H26.25V23H29.25V20Z" fill="#989DBF"/>
<path d="M22.125 20.375H24.375V22.625H22.125V20.375Z" fill="#EAE9FF"/>
<path d="M24 20.75V22.25H22.5V20.75H24ZM24.75 20H21.75V23H24.75V20Z" fill="#989DBF"/>
</svg>
