<svg width="30" height="31" viewBox="0 0 30 31" fill="none" xmlns="http://www.w3.org/2000/svg">
<path d="M15.75 26.375C9.33975 26.375 4.125 21.1602 4.125 14.75C4.125 8.33975 9.33975 3.125 15.75 3.125C22.1602 3.125 27.375 8.33975 27.375 14.75C27.375 21.1602 22.1602 26.375 15.75 26.375Z" fill="#C0C3D9"/>
<path d="M15.75 3.5C21.9533 3.5 27 8.54675 27 14.75C27 20.9533 21.9533 26 15.75 26C9.54675 26 4.5 20.9533 4.5 14.75C4.5 8.54675 9.54675 3.5 15.75 3.5ZM15.75 2.75C9.12225 2.75 3.75 8.12225 3.75 14.75C3.75 21.3778 9.12225 26.75 15.75 26.75C22.3778 26.75 27.75 21.3778 27.75 14.75C27.75 8.12225 22.3778 2.75 15.75 2.75Z" fill="#989DBF"/>
<path d="M13.5 28.625C7.08975 28.625 1.875 23.4102 1.875 17C1.875 10.5898 7.08975 5.375 13.5 5.375C19.9102 5.375 25.125 10.5898 25.125 17C25.125 23.4102 19.9102 28.625 13.5 28.625Z" fill="#C0C3D9"/>
<path d="M13.5 5.75C19.7033 5.75 24.75 10.7968 24.75 17C24.75 23.2033 19.7033 28.25 13.5 28.25C7.29675 28.25 2.25 23.2033 2.25 17C2.25 10.7968 7.29675 5.75 13.5 5.75ZM13.5 5C6.87225 5 1.5 10.3723 1.5 17C1.5 23.6278 6.87225 29 13.5 29C20.1278 29 25.5 23.6278 25.5 17C25.5 10.3723 20.1278 5 13.5 5Z" fill="#989DBF"/>
<path d="M13.5 8C12.3181 8 11.1478 8.23279 10.0558 8.68508C8.96392 9.13738 7.97177 9.80031 7.13604 10.636C6.30031 11.4718 5.63738 12.4639 5.18508 13.5558C4.73279 14.6478 4.5 15.8181 4.5 17C4.5 18.1819 4.73279 19.3522 5.18508 20.4442C5.63738 21.5361 6.30031 22.5282 7.13604 23.364C7.97177 24.1997 8.96392 24.8626 10.0558 25.3149C11.1478 25.7672 12.3181 26 13.5 26C14.6819 26 15.8522 25.7672 16.9442 25.3149C18.0361 24.8626 19.0282 24.1997 19.864 23.364C20.6997 22.5282 21.3626 21.5361 21.8149 20.4442C22.2672 19.3522 22.5 18.1819 22.5 17C22.5 15.8181 22.2672 14.6478 21.8149 13.5558C21.3626 12.4639 20.6997 11.4718 19.864 10.636C19.0282 9.80031 18.0361 9.13738 16.9442 8.68508C15.8522 8.23279 14.6819 8 13.5 8Z" fill="#E6E7EF"/>
<path d="M17.2502 19.0415C17.2502 15.6223 11.8764 15.8832 11.8764 13.961C11.8764 13.3415 12.4322 12.8068 13.5744 12.8068C14.8682 12.8068 15.7997 13.1735 16.5234 13.6122V11.5212C15.9977 11.2287 15.2049 11.0562 14.1527 11V9.5H12.9137V11.0323C11.9882 11.1305 11.2404 11.459 10.6757 12.0208C10.1027 12.5915 9.81543 13.2815 9.81543 14.0922C9.81543 17.2955 15.1914 17.3945 15.1914 19.1495C15.1914 19.7742 14.4084 20.2572 13.5354 20.2572C11.3642 20.2572 10.1147 19.5005 9.81543 19.2582V21.4032C10.7079 21.8675 11.8749 22.103 12.9129 22.1135V23.75H12.9519H14.0829H14.1519V22.0573C15.1337 21.9365 15.8949 21.6245 16.4297 21.113C16.9764 20.5895 17.2502 19.898 17.2502 19.0415Z" fill="#989DBF"/>
</svg>
