<svg width="30" height="31" viewBox="0 0 30 31" fill="none" xmlns="http://www.w3.org/2000/svg">
<path d="M1.875 3.125H28.125V27.875H1.875V3.125Z" fill="white"/>
<path d="M27.75 3.5V27.5H2.25V3.5H27.75ZM28.5 2.75H1.5V28.25H28.5V2.75Z" fill="#989DBF"/>
<path d="M2.25 3.5H27.75V7.25H2.25V3.5Z" fill="#C0C3D9"/>
<path fill-rule="evenodd" clip-rule="evenodd" d="M17.0097 11.775C17.203 11.8493 17.2994 12.0663 17.2251 12.2596L13.4751 22.0096C13.4007 22.2029 13.1837 22.2993 12.9904 22.225C12.7971 22.1506 12.7007 21.9337 12.7751 21.7404L16.5251 11.9904C16.5994 11.7971 16.8164 11.7006 17.0097 11.775ZM11.1704 13.4156C11.298 13.5787 11.2693 13.8144 11.1062 13.942L7.17103 17.0217L11.1062 20.1014C11.2693 20.2291 11.298 20.4647 11.1704 20.6278C11.0427 20.7909 10.807 20.8197 10.6439 20.692L5.9541 17.0217L10.6439 13.3514C10.807 13.2238 11.0427 13.2525 11.1704 13.4156ZM18.8297 13.4156C18.9574 13.2525 19.1931 13.2238 19.3562 13.3514L24.046 17.0217L19.3562 20.692C19.1931 20.8197 18.9574 20.7909 18.8297 20.6278C18.7021 20.4647 18.7309 20.2291 18.8939 20.1014L22.8291 17.0217L18.8939 13.942C18.7309 13.8144 18.7021 13.5787 18.8297 13.4156Z" fill="#989DBF"/>
</svg>
