<svg width="30" height="31" viewBox="0 0 30 31" fill="none" xmlns="http://www.w3.org/2000/svg">
<path d="M4.125 4.625H6.375V29.375H4.125V4.625Z" fill="#CBC8FF"/>
<path d="M6 5V29H4.5V5H6ZM6.75 4.25H3.75V29.75H6.75V4.25Z" fill="#A6A4FF"/>
<path d="M5.625 1.625C5.22718 1.625 4.84564 1.78304 4.56434 2.06434C4.28304 2.34564 4.125 2.72718 4.125 3.125C4.125 3.52282 4.28304 3.90436 4.56434 4.18566C4.84564 4.46696 5.22718 4.625 5.625 4.625C6.02282 4.625 6.40436 4.46696 6.68566 4.18566C6.96696 3.90436 7.125 3.52282 7.125 3.125C7.125 2.72718 6.96696 2.34564 6.68566 2.06434C6.40436 1.78304 6.02282 1.625 5.625 1.625Z" fill="#CBC8FF"/>
<path d="M5.625 2C6.24525 2 6.75 2.50475 6.75 3.125C6.75 3.74525 6.24525 4.25 5.625 4.25C5.00475 4.25 4.5 3.74525 4.5 3.125C4.5 2.50475 5.00475 2 5.625 2ZM5.625 1.25C4.58925 1.25 3.75 2.08925 3.75 3.125C3.75 4.16075 4.58925 5 5.625 5C6.66075 5 7.5 4.16075 7.5 3.125C7.5 2.08925 6.66075 1.25 5.625 1.25Z" fill="#A6A4FF"/>
<path d="M4.125 4.625H25.875V18.875H4.125V4.625Z" fill="white"/>
<path d="M25.5 5V18.5H4.5V5H25.5ZM26.25 4.25H3.75V19.25H26.25V4.25Z" fill="#A6A4FF"/>
<path d="M7.5 5H11.25V8H7.5V5ZM11.25 8H15V11.75H11.25V8ZM22.5 5H25.5V8H22.5V5ZM15 5H18.75V8H15V5ZM18.75 8H22.5V11.75H18.75V8ZM7.5 11.75H11.25V15.5H7.5V11.75ZM11.25 15.5H15V18.5H11.25V15.5ZM4.5 8H7.5V11.75H4.5V8ZM4.5 15.5H7.5V18.5H4.5V15.5ZM22.5 11.75H25.5V15.5H22.5V11.75Z" fill="#CBC8FF"/>
<path d="M15 11.75H18.75V15.5H15V11.75Z" fill="#A6A4FF"/>
<path d="M18.75 15.5H22.5V18.5H18.75V15.5Z" fill="#CBC8FF"/>
<path d="M3.75 3.125H4.5V4.625H3.75V3.125Z" fill="#615EFF"/>
</svg>
