<svg width="250" height="250" viewBox="0 0 250 250" fill="none" xmlns="http://www.w3.org/2000/svg">
<path fill-rule="evenodd" clip-rule="evenodd" d="M95.775 53.416C116.139 30.5363 149.862 23.8245 177.586 37.0311C214.422 54.5797 227.86 99.2826 207.805 133.766L162.69 211.252C160.168 215.582 156.02 218.741 151.154 220.036C146.289 221.331 141.106 220.656 136.742 218.159L191.362 124.329C205.912 99.3023 196.18 66.8621 169.474 54.0895C149.436 44.5065 124.941 49.2937 110.138 65.7745C101.973 74.8219 97.3885 86.503 97.2356 98.6514C97.0827 110.8 101.372 122.591 109.307 131.838C110.733 133.498 112.267 135.062 113.9 136.521L82.0135 191.396C80.7666 193.541 79.1064 195.422 77.1276 196.93C75.1489 198.438 72.8905 199.544 70.4812 200.185C68.072 200.827 65.5591 200.99 63.0861 200.667C60.6131 200.344 58.2284 199.541 56.0682 198.302L90.6847 138.728C85.7124 131.609 82.1416 123.62 80.1607 115.183L58.9482 151.762C56.4266 156.092 52.2779 159.251 47.4128 160.546C42.5478 161.841 37.3641 161.166 33 158.668L87.8558 64.3121C90.139 60.4372 92.7909 56.7885 95.775 53.416ZM159.089 83.4501C172.3 91.0269 176.863 107.877 169.219 120.99L116.616 211.241C114.094 215.571 109.945 218.73 105.08 220.025C100.215 221.32 95.0316 220.645 90.6675 218.147L139.511 134.124C135.592 133.304 131.899 131.65 128.686 129.276C125.473 126.901 122.818 123.862 120.903 120.369C118.989 116.876 117.86 113.012 117.596 109.044C117.331 105.075 117.937 101.097 119.372 97.384C120.806 93.6708 123.035 90.3111 125.905 87.5368C128.774 84.7625 132.216 82.6396 135.992 81.3148C139.768 79.9901 143.789 79.4949 147.777 79.8635C151.764 80.2322 155.624 81.4559 159.089 83.4501ZM139.955 100.411C139.051 101.1 138.293 101.96 137.723 102.94H137.72C136.862 104.417 136.464 106.112 136.577 107.813C136.689 109.515 137.307 111.144 138.352 112.497C139.398 113.849 140.823 114.863 142.449 115.411C144.074 115.959 145.827 116.016 147.485 115.574C149.143 115.133 150.632 114.213 151.764 112.932C152.896 111.65 153.619 110.064 153.843 108.374C154.067 106.684 153.782 104.965 153.022 103.437C152.263 101.908 151.065 100.637 149.578 99.7843C148.591 99.2183 147.501 98.851 146.371 98.7032C145.241 98.5555 144.093 98.6303 142.992 98.9234C141.891 99.2165 140.859 99.722 139.955 100.411Z" fill="#E8E8ED"/>
</svg>
