<svg width="14" height="13" viewBox="0 0 14 13" fill="none" xmlns="http://www.w3.org/2000/svg">
<path d="M0.506 4.84H8.052L5.236 2.024C5.148 1.92133 5.104 1.804 5.104 1.672C5.104 1.54 5.148 1.42267 5.236 1.32L6.424 0.154C6.52667 0.0513328 6.644 0 6.776 0C6.908 0 7.02533 0.0513328 7.128 0.154L13.046 6.072C13.1487 6.17467 13.2 6.292 13.2 6.424C13.2 6.556 13.1487 6.67333 13.046 6.776L7.128 12.694C7.02533 12.7967 6.908 12.848 6.776 12.848C6.644 12.848 6.52667 12.7967 6.424 12.694L5.236 11.528C5.148 11.4253 5.104 11.308 5.104 11.176C5.104 11.044 5.148 10.9267 5.236 10.824L8.25 7.81H0.506C0.359333 7.81 0.238334 7.76233 0.143 7.667C0.0476662 7.57167 0 7.45067 0 7.304V5.324C0 5.192 0.0476662 5.07833 0.143 4.983C0.238334 4.88767 0.359333 4.84 0.506 4.84Z" fill="#433BFB"/>
</svg>
