<svg width="250" height="250" viewBox="0 0 250 250" fill="none" xmlns="http://www.w3.org/2000/svg">
<g clip-path="url(#clip0_2185_3834)">
<path d="M125 223C179.124 223 223 179.124 223 125C223 70.8761 179.124 27 125 27C70.8761 27 27 70.8761 27 125C27 179.124 70.8761 223 125 223Z" fill="#FF3465"/>
<path fill-rule="evenodd" clip-rule="evenodd" d="M103.269 177.623C96.496 174.894 90.6235 171.085 85.6583 166.199C80.6864 161.315 76.8154 155.528 74.041 148.846C71.2644 142.164 69.875 134.803 69.875 126.754C69.875 118.565 71.4273 110.912 74.5342 103.801C77.6389 96.6869 81.937 90.5084 87.4286 85.2629C92.9157 80.0196 99.3475 75.8889 106.713 72.8709C114.08 69.8528 122.025 68.3438 130.551 68.3438C136.903 68.3438 142.864 69.2417 148.428 71.0377C153.986 72.8358 158.828 75.3151 162.945 78.4733C167.063 81.636 170.313 85.4075 172.695 89.7878C175.08 94.1747 176.271 98.8092 176.271 103.691C176.271 109.153 174.538 113.713 171.072 117.378C167.604 121.044 163.341 122.875 158.286 122.875C153.085 122.875 148.752 121.079 145.286 117.487C141.818 113.895 140.085 109.37 140.085 103.908C140.085 102.329 140.263 100.818 140.627 99.3808C140.986 97.9462 141.527 95.8612 142.249 93.13C142.972 90.688 143.443 88.857 143.661 87.6349C143.874 86.4149 143.984 85.0855 143.984 83.6465C143.984 79.9123 142.762 76.857 140.325 74.4872C137.885 72.1152 134.809 70.9304 131.106 70.9304C127.823 70.9304 124.793 71.9795 122.018 74.0667C119.237 76.1539 116.813 79.0012 114.748 82.5996C112.678 86.2047 111.04 90.4865 109.829 95.4582C108.618 100.43 108.012 105.724 108.012 111.339C108.012 124.452 111.335 134.86 117.982 142.567C124.623 150.276 133.585 154.127 144.852 154.127C151.209 154.127 156.987 152.942 162.188 150.572C167.386 148.2 172.442 144.503 177.357 139.472L179.955 140.764C167.675 168.069 149.544 181.716 125.566 181.716C117.474 181.716 110.042 180.35 103.269 177.623Z" fill="white"/>
</g>
<defs>
<clipPath id="clip0_2185_3834">
<rect width="196" height="196" fill="white" transform="translate(27 27)"/>
</clipPath>
</defs>
</svg>
