<svg width="250" height="250" viewBox="0 0 250 250" fill="none" xmlns="http://www.w3.org/2000/svg">
<path fill-rule="evenodd" clip-rule="evenodd" d="M113.571 43.2165C112.657 43.2993 110.413 43.6589 108.585 44.0164C93.5191 46.96 80.3698 55.694 69.8493 69.7447L67.5842 72.7702L65.2297 72.4702C57.2161 71.4494 46.6319 72.7255 38.359 75.7105C21.7237 81.7124 8.51837 95.1804 2.9057 111.869C0.535057 118.918 -0.596453 127.932 0.313991 132.516C3.40725 148.088 15.0406 162.101 31.7104 170.335C48.6115 178.683 68.6916 180.895 86.5738 176.378C88.8198 175.811 90.6847 175.391 90.718 175.445C99.207 189.306 111.357 198.966 126.661 204.019C158.653 214.584 193.986 203.53 210.308 177.849C211.383 176.159 212.262 174.621 212.262 174.432C212.262 174.243 213.842 173.361 215.773 172.473C238.034 162.232 251.031 144.745 249.936 126.51C248.713 106.153 234.67 88.4545 212.797 79.7043C200.672 74.854 185.743 72.9626 172.771 74.6331L170.886 74.8759L167.586 70.384C160.55 60.8067 152.226 53.6396 142.659 48.9196C133.1 44.2034 123.494 42.3203 113.571 43.2165ZM135.387 52.4558C139.271 53.0587 144.183 54.7324 148.408 56.8931C156.34 60.9502 163.256 67.4296 169.43 76.5877C171.528 79.6994 171.675 79.8256 172.93 79.5914C176.163 78.9885 184.538 78.8379 188.418 79.3129C197.426 80.416 203.68 82.2503 210.599 85.8175C221.234 91.3 228.891 99.9488 232.374 110.412C236.107 121.631 235.254 133.573 229.998 143.667C225.477 152.351 217.09 160.421 208.004 164.831C205.814 165.894 205.46 166.269 203.702 169.387C198.846 178.003 191.122 185.142 181.501 189.906C168.251 196.468 152.002 197.661 137.88 193.109C133.773 191.785 127.056 188.481 123.133 185.855C117.501 182.085 111.184 175.164 106.914 168.087C106.52 167.433 106.184 167.458 102.135 168.444C93.4044 170.571 85.8055 170.848 77.4195 169.346C62.5778 166.687 49.861 158.773 41.9841 147.293C38.9677 142.897 37.7876 140.607 36.1786 136.027C34.3852 130.923 33.8545 127.526 34.1234 122.865C35.4273 100.272 49.3354 83.1962 70.3309 78.4104C73.2845 77.7372 75.6015 77.5444 81.0883 77.515L88.0814 77.4778L90.3511 74.264C92.9739 70.5499 100.061 63.2645 103.391 60.8592C109.558 56.4049 116.926 53.3686 124.168 52.2969C126.4 51.9667 132.821 52.0577 135.387 52.4558Z" fill="#60C7CC"/>
<path fill-rule="evenodd" clip-rule="evenodd" d="M127.492 84.5476C112.886 85.784 103.997 87.4962 95.0974 90.7882C77.5289 97.2862 67.6636 107.082 67.6636 118.028C67.6636 123.707 69.9233 128.392 75.1482 133.545C77.4341 135.799 80.0794 137.879 82.5161 139.338C84.6071 140.589 86.3216 141.8 86.3266 142.027C86.3312 142.255 85.5446 143.293 84.5785 144.335C74.8229 154.853 69.312 160.987 69.4745 161.149C69.5825 161.257 75.6215 159.476 82.8947 157.192C98.499 152.291 105.887 150.139 108.169 149.829C109.084 149.704 112.636 150.026 116.065 150.543C121.403 151.349 123.908 151.482 133.517 151.472C143.011 151.461 145.663 151.316 150.762 150.534C169.819 147.609 184.002 141.562 192.403 132.78C201.994 122.755 201.424 111.369 190.851 101.747C181.608 93.3346 166.276 87.4834 147.864 85.3408C142.484 84.7148 130.863 84.2625 127.492 84.5476ZM141.62 93.438C159.984 95.1316 174.925 102.287 179.556 111.605C182.024 116.569 181.206 122.088 177.28 126.959C171.787 133.776 159.42 139.194 144.737 141.219C138.762 142.042 123.855 141.841 118.766 140.869C115.887 140.319 115.411 140.334 112.533 141.068C109.552 141.827 97.2686 145.564 90.3499 147.816C88.5481 148.402 86.9823 148.791 86.8697 148.679C86.7575 148.567 88.9079 146.094 91.6484 143.182C94.3889 140.272 97.2183 137.211 97.9363 136.383L99.242 134.876L96.1454 132.954C89.9671 129.119 85.8816 123.725 85.284 118.614C84.9749 115.968 86.1118 112.092 87.9942 109.373C95.793 98.1075 118.64 91.3187 141.62 93.438Z" fill="#F59C1E"/>
</svg>
