<svg width="250" height="250" viewBox="0 0 250 250" fill="none" xmlns="http://www.w3.org/2000/svg">
<g clip-path="url(#clip0_1789_6829)">
<path d="M166.108 88.7899C166.043 76.7287 171.423 67.6252 182.313 60.9209C176.22 52.0804 167.015 47.2165 154.861 46.2634C143.355 45.3432 130.78 53.0663 126.178 53.0663C121.316 53.0663 110.167 46.5921 101.416 46.5921C83.3312 46.8879 64.1118 61.2167 64.1118 90.3674C64.1118 98.9778 65.6675 107.873 68.7789 117.053C72.9275 129.114 87.9011 158.692 103.523 158.199C111.69 158.002 117.459 152.317 128.09 152.317C138.397 152.317 143.744 158.199 152.852 158.199C168.603 157.969 182.151 131.086 186.105 118.992C164.973 108.903 166.108 89.4143 166.108 88.7899ZM147.763 34.8266C156.611 24.1786 155.801 14.4836 155.542 11C147.731 11.4601 138.688 16.3898 133.535 22.4697C127.863 28.9768 124.525 37.0286 125.238 46.0991C133.697 46.7564 141.411 42.3526 147.763 34.8266Z" fill="black"/>
</g>
<path d="M73.6932 230.685C68.7873 230.685 65.5731 228.297 65.5731 224.544C65.5731 220.749 68.6181 218.532 74.3699 218.148L84.943 217.466V221.005C84.943 226.676 80.0794 230.685 73.6932 230.685ZM70.6059 238.829C76.7383 238.829 82.4477 235.802 84.9853 230.813H85.239V238.318H95.3469V206.379C95.3469 197.125 87.8612 191.07 76.3154 191.07C65.4462 191.07 57.5798 197.168 57.3261 205.696H67.0533C67.7723 201.944 71.198 199.428 75.977 199.428C81.6442 199.428 84.943 202.115 84.943 207.061V210.472L72.932 211.197C61.3016 211.922 55 216.656 55 224.971C55 233.243 61.513 238.829 70.6059 238.829Z" fill="black"/>
<path d="M121.484 238.829C128.25 238.829 133.579 235.589 136.074 230.386H136.286V238.318H146.605V173.928H136.074V199.556H135.821C133.325 194.396 128.124 191.198 121.441 191.198C109.98 191.198 102.241 200.537 102.241 214.992C102.241 229.491 109.938 238.829 121.484 238.829ZM124.571 200.025C131.507 200.025 136.117 206.038 136.117 215.035C136.117 224.075 131.549 230.003 124.571 230.003C117.593 230.003 113.025 224.203 113.025 215.035C113.025 205.91 117.593 200.025 124.571 200.025Z" fill="black"/>
<path d="M155.064 205.185C155.064 211.794 159.378 216.186 167.836 218.191L176.21 220.237C180.82 221.346 182.511 222.796 182.511 225.525C182.511 228.979 179.17 231.154 173.799 231.154C168.301 231.154 164.876 228.809 164.241 224.587H153.88C154.556 233.243 162.042 239 173.376 239C184.964 239 193 233.158 193 224.502C193 217.636 189.447 214.097 180.143 211.922L172.023 210.046C167.455 208.98 165.298 207.189 165.298 204.588C165.298 201.176 168.513 198.916 173.419 198.916C178.451 198.916 181.793 201.39 182.131 205.313H191.943C191.731 196.87 184.288 191.07 173.63 191.07C162.507 191.07 155.064 196.742 155.064 205.185Z" fill="black"/>
<defs>
<clipPath id="clip0_1789_6829">
<rect width="129.922" height="147.692" fill="white" transform="translate(60.1472 11)"/>
</clipPath>
</defs>
</svg>
