<svg width="250" height="250" viewBox="0 0 250 250" fill="none" xmlns="http://www.w3.org/2000/svg">
<path d="M39.161 197.077L68.1793 12.5734C68.3991 11.2095 69.1508 9.9871 70.2709 9.1717C71.391 8.35629 72.7891 8.01375 74.1615 8.2185C74.9721 8.36647 75.7402 8.68995 76.4113 9.16604C77.0825 9.64213 77.6404 10.2592 78.0455 10.9736L108.001 66.6537L119.876 43.9906C120.201 43.3687 120.646 42.8167 121.186 42.3662C121.725 41.9156 122.349 41.5754 123.02 41.3649C123.692 41.1544 124.399 41.0778 125.1 41.1394C125.802 41.2011 126.484 41.3999 127.109 41.7243C128.055 42.2672 128.84 43.0489 129.385 43.9906L210.19 197.077H39.161Z" fill="#FFA000"/>
<path d="M139.341 125.222L108.091 66.5204L39.161 197.077L139.341 125.222Z" fill="#F57C00"/>
<path d="M210.369 197.077L188.047 60.388C187.817 58.9882 187.04 57.7357 185.886 56.9034C184.732 56.071 183.294 55.7263 181.886 55.9442C180.783 56.1005 179.762 56.6162 178.984 57.4107L39.161 197.077L116.617 240.537C119.005 241.84 121.685 242.523 124.408 242.523C127.131 242.523 129.81 241.84 132.198 240.537L210.369 197.077Z" fill="#FFCA28"/>
<path d="M188.27 60.5213C188.04 59.1215 187.263 57.869 186.109 57.0367C184.955 56.2043 183.517 55.8596 182.109 56.0776C181.003 56.2239 179.979 56.7411 179.208 57.544L151.35 85.2285L129.564 43.8128C129.239 43.191 128.794 42.639 128.255 42.1884C127.715 41.7379 127.092 41.3976 126.42 41.1871C125.748 40.9766 125.041 40.9 124.34 40.9617C123.638 41.0234 122.956 41.2221 122.332 41.5465C121.386 42.0894 120.6 42.8712 120.055 43.8128L108.18 66.4759L78.224 10.8403C77.8881 10.2293 77.4343 9.69038 76.8885 9.25448C76.3428 8.81857 75.7159 8.49428 75.0439 8.30021C74.3719 8.10614 73.668 8.04613 72.9726 8.12362C72.2772 8.20111 71.6041 8.41457 70.9918 8.75174C70.265 9.13793 69.6348 9.68194 69.148 10.3435C68.6611 11.005 68.33 11.7671 68.1793 12.5734L39.161 197.077L39.9646 197.477L151.573 86.3839L179.431 58.6994C179.922 58.1913 180.512 57.7872 181.164 57.5112C181.816 57.2351 182.517 57.0928 183.225 57.0928C183.934 57.0928 184.635 57.2351 185.287 57.5112C185.939 57.7872 186.529 58.1913 187.02 58.6994C187.845 59.4722 188.367 60.5117 188.493 61.6322L210.458 196.989H210.726L188.27 60.5213ZM39.4289 196.811L68.1793 13.9065C68.272 13.2207 68.5013 12.5602 68.8537 11.9637C69.2062 11.3672 69.6748 10.8468 70.2319 10.4329C70.7891 10.019 71.4237 9.72004 72.0984 9.55345C72.7732 9.38685 73.4746 9.35601 74.1615 9.46274C74.9753 9.60174 75.7472 9.92165 76.4197 10.3987C77.0921 10.8757 77.6478 11.4975 78.0455 12.2179L108.001 67.8979L119.876 45.2348C120.197 44.6087 120.639 44.0525 121.178 43.5986C121.717 43.1447 122.341 42.8022 123.015 42.5912C123.688 42.3802 124.397 42.3049 125.1 42.3697C125.803 42.4345 126.486 42.6381 127.109 42.9685C128.055 43.5114 128.84 44.2932 129.385 45.2348L150.77 85.7173L39.4289 196.811Z" fill="white" fill-opacity="0.2"/>
<path opacity="0.2" d="M132.198 239.026C129.805 240.337 127.117 241.025 124.385 241.025C121.654 241.025 118.966 240.337 116.573 239.026L39.2949 196.1V197.3L116.617 240.537C119.005 241.84 121.685 242.523 124.408 242.523C127.131 242.523 129.81 241.84 132.198 240.537L210.324 197.255V196.055L132.198 239.026Z" fill="#A52714"/>
<path d="M188.27 60.5213C188.04 59.1215 187.263 57.869 186.109 57.0367C184.955 56.2043 183.517 55.8596 182.109 56.0776C181.003 56.2239 179.979 56.7411 179.208 57.544L151.35 85.2285L129.564 43.8128C129.239 43.191 128.794 42.639 128.255 42.1884C127.715 41.7379 127.092 41.3976 126.42 41.1871C125.748 40.9766 125.041 40.9 124.34 40.9617C123.638 41.0234 122.956 41.2221 122.332 41.5465C121.386 42.0894 120.6 42.8712 120.055 43.8128L108.18 66.4759L78.224 10.8403C77.8881 10.2293 77.4343 9.69038 76.8885 9.25448C76.3428 8.81857 75.7159 8.49428 75.0439 8.30021C74.3719 8.10614 73.668 8.04613 72.9726 8.12362C72.2772 8.20111 71.6041 8.41457 70.9918 8.75174C70.265 9.13793 69.6348 9.68194 69.148 10.3435C68.6611 11.005 68.33 11.7671 68.1793 12.5734L39.161 197.077L116.617 240.537C119.005 241.84 121.685 242.523 124.408 242.523C127.131 242.523 129.81 241.84 132.198 240.537L210.324 197.255L188.27 60.5213Z" fill="url(#paint0_linear_2108_4171)"/>
<defs>
<linearGradient id="paint0_linear_2108_4171" x1="34.5993" y1="49.3049" x2="212.45" y2="228.099" gradientUnits="userSpaceOnUse">
<stop stop-color="white" stop-opacity="0.1"/>
<stop offset="1" stop-color="white" stop-opacity="0"/>
</linearGradient>
</defs>
</svg>
