<svg width="250" height="250" viewBox="0 0 250 250" fill="none" xmlns="http://www.w3.org/2000/svg">
<g clip-path="url(#clip0_1789_6827)">
<path d="M207.994 89.1858L205.328 89.1409L125.056 65.3006L125.008 64.1974V24L208 65.635L207.994 89.1858Z" fill="#D9A741"/>
<path d="M125 66.6068L125.008 24L42.011 65.6187L42 183.366L42.0415 183.387V183.388L124.992 225.002L125.267 224.617L125.16 185.022L124.997 184.801L119.812 181.092L55.6172 161.903L55.9414 87.4223L125 66.6068Z" fill="#876929"/>
<path d="M137.412 151.039L52.6027 163.007L52.6085 85.9783L137.418 97.9628L137.412 151.039Z" fill="#D9A741"/>
<path d="M94.4353 146.17L124.997 150.073L125.003 98.9067L94.4411 102.806L94.4353 146.17Z" fill="#876929"/>
<path d="M63.6481 142.239L83.4818 144.768L83.4877 104.202L63.6481 106.737V142.239Z" fill="#876929"/>
<path d="M52.6084 85.9782L125.008 64.1974L207.994 89.1858L137.47 97.9686L52.6084 85.9782Z" fill="#624A1E"/>
<path d="M207.953 139.381L124.997 149.883L125.003 98.9067L207.953 109.507V139.381Z" fill="#D9A741"/>
<path d="M207.947 159.844L206.162 159.921L125.252 184.49L124.997 184.801L124.992 225.002L207.947 183.403V159.844Z" fill="#D9A741"/>
<path d="M52.6027 163.007L124.997 184.801L207.947 159.843L137.412 151.039L52.6027 163.007Z" fill="#FAD791"/>
</g>
<defs>
<clipPath id="clip0_1789_6827">
<rect width="166" height="201" fill="white" transform="translate(42 24)"/>
</clipPath>
</defs>
</svg>
