<svg width="250" height="250" viewBox="0 0 250 250" fill="none" xmlns="http://www.w3.org/2000/svg">
<path d="M87.3951 210.731C88.5985 217.078 84.6876 223.124 78.37 224.635C72.0524 225.844 66.0356 221.915 64.5314 215.567C64.5314 215.567 43.1719 114.911 43.1719 94.3562C43.1719 51.4337 77.1666 20.9043 125 20.9043C172.833 20.9043 206.828 51.1314 206.828 94.0539C206.828 114.608 185.469 215.265 185.469 215.265C184.265 221.612 178.248 225.844 171.931 224.635C165.613 223.426 161.401 217.381 162.605 211.033" fill="#57D1E5"/>
<path d="M87.3951 210.731C88.5985 217.078 84.6876 223.124 78.37 224.635C72.0524 225.844 66.0356 221.915 64.5314 215.567C64.5314 215.567 43.1719 114.911 43.1719 94.3562C43.1719 51.4337 77.1666 20.9043 125 20.9043C172.833 20.9043 206.828 51.1314 206.828 94.0539C206.828 114.608 185.469 215.265 185.469 215.265C184.265 221.612 178.248 225.844 171.931 224.635C165.613 223.426 161.401 217.381 162.605 211.033" stroke="#3B2D55" stroke-width="1.17327" stroke-linecap="round" stroke-linejoin="round"/>
<path d="M180.354 182.015L174.638 214.66C173.736 221.008 167.719 225.542 161.402 224.635C155.084 223.728 150.571 217.683 151.474 211.335" fill="#57D1E5"/>
<path d="M181.557 182.015L178.85 199.244L177.346 207.708L176.744 212.242L175.842 216.776C173.736 224.03 166.215 227.96 158.995 225.844C155.986 224.937 153.579 223.124 151.774 220.705C149.969 217.985 149.067 214.358 149.669 211.033C149.669 210.126 150.872 209.219 151.774 209.521C152.677 209.521 153.579 210.731 153.279 211.637C152.677 216.776 155.986 221.31 161.1 222.217C165.914 223.124 171.028 220.403 172.532 215.567C172.833 214.66 173.134 212.846 173.435 211.637L174.337 207.406L175.842 198.942L179.151 182.015C179.292 181.737 179.507 181.505 179.773 181.345C180.039 181.184 180.345 181.102 180.655 181.108C181.257 181.108 181.557 181.712 181.557 182.015Z" fill="#3B2D55"/>
<path d="M97.3229 123.072C117.427 123.072 133.724 106.697 133.724 86.4972C133.724 66.2975 117.427 49.9224 97.3229 49.9224C77.2189 49.9224 60.9214 66.2975 60.9214 86.4972C60.9214 106.697 77.2189 123.072 97.3229 123.072Z" fill="white" stroke="#3B2D55" stroke-width="1.17327" stroke-linejoin="round"/>
<path d="M104.844 62.3154C98.5261 63.5245 97.3227 77.429 100.933 81.3585C103.339 83.7766 108.454 84.6835 108.454 86.4971C108.454 88.3107 103.339 89.2175 100.933 91.6357C97.0219 95.5652 98.5261 109.47 104.844 110.679C112.365 112.19 123.797 103.122 123.797 86.4971C123.797 69.8722 112.365 60.804 104.844 62.3154Z" fill="#3B2D55"/>
<path d="M79.874 135.767C81.0774 139.697 84.9883 145.742 90.1025 144.533C92.5092 143.929 94.0134 140.604 94.0134 135.767" fill="white"/>
<path d="M79.874 135.767C81.0774 139.697 84.9883 145.742 90.1025 144.533C92.5092 143.929 94.0134 140.604 94.0134 135.767" stroke="#3B2D55" stroke-width="0.977725" stroke-linecap="round" stroke-linejoin="round"/>
<path d="M112.365 133.349C113.568 138.488 114.771 142.115 118.682 142.115C122.593 142.115 127.407 136.976 126.203 128.21" fill="white"/>
<path d="M112.365 133.349C113.568 138.488 114.771 142.115 118.682 142.115C122.593 142.115 127.407 136.976 126.203 128.21" stroke="#3B2D55" stroke-width="1.17327" stroke-linecap="round" stroke-linejoin="round"/>
<path d="M72.3533 133.047C96.7213 136.674 121.39 130.629 141.546 116.724C142.449 116.422 143.652 116.724 143.953 117.631C144.254 118.236 144.254 119.142 143.652 119.747C122.593 134.256 97.0221 139.999 71.7517 136.372C70.8491 136.07 70.5483 135.163 70.8491 134.256C71.4508 133.349 71.7517 133.047 72.3533 133.047ZM144.555 122.467C144.212 120.813 143.358 119.309 142.116 118.17C140.874 117.03 139.306 116.313 137.635 116.12C136.733 116.422 135.529 115.817 135.529 114.608C135.229 113.702 135.83 112.492 137.034 112.492H138.237C143.05 113.399 146.66 117.329 147.262 122.165C147.262 122.77 146.66 123.374 146.059 123.374C145.156 123.676 144.555 123.072 144.555 122.467Z" fill="#3B2D55"/>
<path d="M98.526 211.335C99.4285 217.683 95.2167 223.728 88.5983 224.635C82.2807 225.542 76.2639 221.31 75.3614 214.66L69.9463 182.015" fill="#57D1E5"/>
<path d="M100.632 211.033C101.535 218.59 96.1195 225.24 88.8994 226.146C82.281 227.053 76.2642 222.821 74.4592 216.776L73.5566 212.242L71.7516 199.546C70.2474 193.501 69.3449 187.758 68.4424 182.015C68.4424 181.41 69.0441 180.806 69.6457 180.806C70.2474 180.806 70.8491 181.108 70.8491 181.712L74.1583 198.64L76.8659 211.335L77.7684 215.265C79.2726 220.101 84.086 223.124 89.2002 221.915C94.0137 220.705 97.3229 216.171 96.7212 211.335C96.7212 210.428 97.3229 209.219 98.2254 209.219C99.4288 208.917 100.331 209.824 100.632 211.033Z" fill="#3B2D55"/>
<path d="M115.373 211.94C115.674 218.287 110.861 224.03 104.242 224.333C98.2255 224.635 92.8104 220.101 92.2087 214.055L88.5986 181.41" fill="#57D1E5"/>
<path d="M117.479 211.94C117.78 219.496 112.064 225.844 104.543 226.146C97.9244 226.449 92.2084 222.217 90.7042 215.869C90.4034 214.358 90.1026 212.846 90.1026 211.335L89.8017 207.103L88.8992 198.64L87.395 181.41C87.395 180.806 87.9967 180.201 88.5984 180.201C89.2 180.201 89.8017 180.503 89.8017 181.108L93.4118 206.801L94.0135 211.033C94.3143 212.544 94.3143 214.056 94.6151 214.962C95.8185 219.799 100.632 223.124 105.445 222.217C107.824 221.764 109.97 220.488 111.509 218.61C113.048 216.733 113.883 214.372 113.869 211.94C113.869 211.033 114.771 210.126 115.975 210.126C116.576 210.428 117.178 211.033 117.479 211.94Z" fill="#3B2D55"/>
<path d="M161.402 181.108L157.792 214.055C157.19 220.403 151.775 225.239 145.156 224.635C138.839 224.03 134.025 218.59 134.627 211.94" fill="#57D1E5"/>
<path d="M162.906 181.108L161.401 198.338L160.499 206.801L160.198 211.033C160.198 212.544 159.897 214.056 159.596 215.567C158.694 218.892 156.889 221.612 153.88 223.728C147.563 227.96 139.44 226.449 135.228 220.101C133.423 217.683 132.822 214.66 132.822 211.637C133.123 210.731 134.025 209.824 134.928 210.126C135.83 210.126 136.432 211.033 136.432 211.94C136.131 217.078 139.741 221.31 144.855 222.217C149.669 222.821 154.482 219.799 155.686 214.962L156.287 211.033L158.092 198.338L160.499 181.108C160.8 180.504 161.401 179.899 162.003 180.201C162.304 180.201 162.605 180.504 162.906 181.108Z" fill="#3B2D55"/>
<path d="M137.635 179.899L136.733 212.846C136.733 219.194 131.618 224.635 125 224.635C118.682 224.635 113.267 219.496 113.267 212.846L112.365 179.899" fill="#57D1E5"/>
<path d="M138.839 180.201L138.538 205.592V211.94C138.538 214.358 138.237 216.776 137.034 218.892C133.725 225.542 125.301 228.262 118.683 224.635C115.073 222.822 112.365 219.194 111.763 215.265C111.462 214.056 111.462 212.847 111.462 211.637V205.29L111.162 179.899C111.162 179.294 111.763 178.69 112.365 178.69C112.967 178.69 113.568 179.294 113.568 179.899L115.073 211.637C115.073 212.544 115.073 213.451 115.373 214.358L116.276 216.776C118.983 221.612 124.699 223.426 129.513 220.706C131.318 219.799 132.521 218.287 133.424 216.776L134.326 214.358C134.627 213.451 134.627 212.544 134.627 211.637L136.131 179.899C136.131 179.294 136.733 178.69 137.335 178.69C138.538 178.69 138.839 179.294 138.839 180.201Z" fill="#3B2D55"/>
</svg>
