<svg width="250" height="250" viewBox="0 0 250 250" fill="none" xmlns="http://www.w3.org/2000/svg">
<g clip-path="url(#clip0_2112_5280)">
<path fill-rule="evenodd" clip-rule="evenodd" d="M245.73 101.654C244.019 101.654 242.572 102.993 242.572 104.809C242.572 106.641 244.019 107.98 245.73 107.98C247.422 107.98 248.872 106.641 248.872 104.809C248.872 102.993 247.422 101.654 245.73 101.654ZM245.73 107.454C244.307 107.454 243.196 106.332 243.196 104.809C243.196 103.311 244.307 102.181 245.73 102.181C247.135 102.181 248.247 103.311 248.247 104.809C248.245 106.332 247.134 107.454 245.73 107.454Z" fill="black"/>
<path fill-rule="evenodd" clip-rule="evenodd" d="M246.231 105.035C246.757 104.967 247.16 104.683 247.16 104.031C247.16 103.311 246.743 102.993 245.893 102.993H244.53V106.642H245.073V105.06H245.696L246.644 106.642H247.252L246.231 105.035ZM245.072 104.591V103.461H245.812C246.188 103.461 246.591 103.545 246.591 103.997C246.591 104.559 246.18 104.591 245.722 104.591H245.072ZM34.0346 104.044C30.0686 101.449 25.5335 100.775 16.5617 100.775H0.128418C2.4897 103.082 3.24488 104.333 3.24488 107.599V137.394C3.24488 144.697 3.15049 146.045 0.696136 148.158H14.4849C12.0279 147.004 10.6119 145.179 10.6119 140.855V106.447C13.634 105.87 15.5233 105.581 18.3566 105.581C26.8564 105.581 32.7117 108.369 32.7117 116.73C32.7117 123.459 26.9508 128.744 19.8669 128.744C17.6 128.744 15.9939 128.265 12.9719 127.207L13.3495 129.128C13.7271 130.666 19.016 131.917 22.5101 131.917C32.2384 131.917 40.5494 126.822 40.5494 116.442C40.5521 111.637 38.0964 106.736 34.0346 104.044ZM74.7415 108.086V132.498C74.7415 138.361 72.097 144.128 63.5972 144.128C55.1918 144.128 52.4529 138.553 52.4529 132.498V108.086C52.4529 104.337 53.0193 102.992 55.0974 100.877H42.2526C44.0475 102.414 45.0858 104.144 45.0858 107.604V132.883C45.0858 144.896 51.602 149.894 64.0692 149.894C76.0631 149.894 82.1085 143.935 82.1085 132.883V107.604C82.1085 104.144 83.0525 102.414 84.9418 100.877H72.097C74.1738 102.992 74.7415 104.337 74.7415 108.086ZM97.8664 142.009V106.639C97.8664 103.564 98.6216 102.506 100.888 100.873H87.6661C90.1231 103.468 90.4062 104.814 90.4062 111.253V140.374C90.4062 144.123 89.9343 146.237 87.6661 148.16H117.133L120.91 138.741C116.66 141.432 112.694 142.969 106.366 142.969C103.533 142.969 101.173 142.681 97.8664 142.009ZM155.673 135.091C155.673 121.923 129.986 120.962 129.986 111.639C129.986 107.795 133.857 105.008 139.431 105.008C143.965 105.008 146.985 106.449 151.332 109.429V101.644C146.608 100.586 143.679 100.106 139.903 100.106C129.702 100.106 122.052 104.816 122.052 112.792C122.052 127.402 147.553 126.343 147.553 137.204C147.553 141.626 142.736 144.027 137.543 144.027C131.971 144.027 128.002 142.202 122.903 138.454L124.698 148.066C128.286 149.123 131.025 149.603 134.991 149.603C146.984 149.603 155.673 144.027 155.673 135.091ZM228.741 126.246C236.201 124.325 241.398 119.519 241.398 112.31C241.398 104.044 234.314 100.777 225.719 100.777H205.318C207.492 102.506 208.53 104.236 208.53 107.794V142.49C208.53 145.084 207.492 146.719 206.17 148.16H219.959C216.371 145.18 216.087 144.41 216.087 137.107V106.159C218.637 105.487 219.863 105.198 222.509 105.198C228.838 105.198 233.465 108.37 233.465 114.425C233.465 120.768 227.609 124.229 220.145 125.476C232.991 147.294 237.713 148.256 243.001 148.256C243.664 148.256 246.024 148.256 247.911 148.16C240.17 142.009 235.825 137.011 228.741 126.246Z" fill="black"/>
<path fill-rule="evenodd" clip-rule="evenodd" d="M189.396 148.16H204.038C200.259 145.757 199.787 144.892 197.52 139.318L181.653 100.777H170.508C171.829 102.218 172.398 102.89 172.398 103.948C172.398 104.429 172.302 105.006 171.829 106.255L158.419 139.318C156.059 145.18 154.264 146.621 151.998 148.16H165.031C163.236 147.199 162.574 146.43 162.574 144.796C162.574 144.027 162.764 142.873 163.613 140.76L167.674 130.38H186.091L190.815 142.01C191.57 143.837 191.76 144.604 191.76 145.372C191.76 146.525 191.098 147.294 189.396 148.16ZM169.376 125.766L176.743 106.928L184.298 125.766H169.376Z" fill="black"/>
</g>
<defs>
<clipPath id="clip0_2112_5280">
<rect width="249" height="50" fill="white" transform="translate(0 100)"/>
</clipPath>
</defs>
</svg>
