<svg width="250" height="250" viewBox="0 0 250 250" fill="none" xmlns="http://www.w3.org/2000/svg">
<path d="M213.3 105.81H151.867C150.854 105.816 149.851 105.621 148.914 105.237C147.977 104.852 147.126 104.286 146.41 103.57C145.694 102.854 145.127 102.003 144.743 101.067C144.358 100.13 144.163 99.1266 144.17 98.1143V36.6955C144.17 35.6872 143.97 34.6889 143.583 33.7579C143.196 32.8269 142.628 31.9818 141.912 31.271C141.197 30.5603 140.348 29.998 139.414 29.6165C138.481 29.235 137.481 29.0419 136.473 29.0482H113.477C112.469 29.0419 111.469 29.235 110.535 29.6165C109.602 29.998 108.753 30.5603 108.037 31.271C107.322 31.9818 106.754 32.8269 106.367 33.7579C105.979 34.6889 105.78 35.6872 105.78 36.6955V98.1143C105.786 99.1266 105.592 100.13 105.207 101.067C104.822 102.003 104.256 102.854 103.54 103.57C102.824 104.286 101.973 104.852 101.036 105.237C100.099 105.621 99.0953 105.816 98.0827 105.81H75.0872C74.0746 105.816 73.0708 105.621 72.1341 105.237C71.1973 104.852 70.3463 104.286 69.6302 103.57C68.9142 102.854 68.3475 102.003 67.9629 101.067C67.5784 100.13 67.3836 99.1266 67.39 98.1143V36.6955C67.3964 35.6832 67.2017 34.6796 66.8171 33.7431C66.4326 32.8066 65.8658 31.9557 65.1498 31.2398C64.4338 30.524 63.5827 29.9574 62.6459 29.5729C61.7092 29.1885 60.7054 28.9938 59.6928 29.0002H36.6493C35.6407 29.0001 34.6421 29.1995 33.7109 29.5868C32.7797 29.9741 31.9344 30.5417 31.2234 31.257C30.5125 31.9722 29.9501 32.8209 29.5685 33.7543C29.187 34.6876 28.9938 35.6872 29.0002 36.6955V213.304C28.9938 214.317 29.1885 215.32 29.5731 216.257C29.9576 217.193 30.5243 218.044 31.2404 218.76C31.9564 219.476 32.8075 220.043 33.7442 220.427C34.681 220.812 35.6848 221.006 36.6974 221H213.3C214.313 221.006 215.317 220.812 216.253 220.427C217.19 220.043 218.041 219.476 218.757 218.76C219.473 218.044 220.04 217.193 220.425 216.257C220.809 215.32 221.004 214.317 220.998 213.304V113.649C221.023 112.625 220.843 111.606 220.467 110.652C220.091 109.699 219.528 108.831 218.81 108.1C218.092 107.368 217.234 106.789 216.288 106.396C215.341 106.002 214.325 105.803 213.3 105.81ZM182.415 171.028C182.422 172.542 182.129 174.042 181.554 175.442C180.979 176.842 180.133 178.115 179.065 179.187C177.996 180.26 176.727 181.111 175.329 181.691C173.931 182.272 172.432 182.571 170.918 182.571H155.523C154.009 182.571 152.51 182.272 151.112 181.691C149.714 181.111 148.444 180.26 147.376 179.187C146.308 178.115 145.462 176.842 144.887 175.442C144.312 174.042 144.019 172.542 144.025 171.028V155.685C144.019 154.172 144.312 152.672 144.887 151.272C145.462 149.871 146.308 148.599 147.376 147.526C148.444 146.454 149.714 145.603 151.112 145.022C152.51 144.441 154.009 144.142 155.523 144.142H170.918C172.432 144.142 173.931 144.441 175.329 145.022C176.727 145.603 177.996 146.454 179.065 147.526C180.133 148.599 180.979 149.871 181.554 151.272C182.129 152.672 182.422 154.172 182.415 155.685V171.028Z" fill="#FF6600"/>
</svg>
