<svg width="250" height="250" viewBox="0 0 250 250" fill="none" xmlns="http://www.w3.org/2000/svg">
<path d="M161.414 156.683C158.714 151.786 156.279 146.746 154.12 141.588C162.143 138.093 169.371 133.007 175.366 126.637C184.745 117.479 189.433 104.543 189.433 87.8284C189.433 68.4527 183.085 53.3959 170.387 42.6575C157.608 31.8958 141.334 26.1678 124.625 26.5499H43.1426V211.628H82.7981V145.116H97.8786L107.083 144.884C110.499 153.184 118.112 171.432 122.541 181.148L161.414 156.683ZM82.7981 63.4789H119.298C137.631 63.4789 146.797 70.8721 146.797 85.6593C146.797 101.545 136.57 109.478 116.114 109.46H82.7981V63.4789Z" fill="#E2401B"/>
<path d="M202.401 198.326L192.01 190.98L149.025 218.8L164.077 224.641L190.301 224.584L209.319 211.05L202.401 198.326Z" fill="#E2401B"/>
<path d="M168.014 167.411L128.156 192.483L139.358 210.008L181.764 183.316L168.014 167.411Z" fill="#E2401B"/>
</svg>
