<svg width="250" height="250" viewBox="0 0 250 250" fill="none" xmlns="http://www.w3.org/2000/svg">
<path d="M223.192 125C223.192 179.676 178.601 224 123.596 224C68.5906 224 24 179.676 24 125C24 70.3238 68.5906 26 123.596 26C178.601 26 223.192 70.3238 223.192 125Z" fill="white"/>
<path d="M148.1 220.981C191.257 210.128 223.192 171.271 223.192 125C223.192 70.3238 178.601 26 123.596 26C68.5906 26 24 70.3238 24 125C24 166.222 49.3455 201.56 85.3913 216.454C108.933 199.358 178.887 146.159 169.09 124.453C164.146 113.499 150.337 123.044 133.805 134.472C111.043 150.206 83.1211 169.506 66.0746 143.777C47.9445 116.412 112.856 57.9287 112.856 57.9287L144.686 66.9681C144.686 66.9681 69.2508 120.889 88.3058 135.095C96.2924 141.049 109.859 133.142 125.048 124.289C146.102 112.018 170.274 97.9287 187.029 116.411C210.696 142.518 165.196 200.875 148.1 220.981Z" fill="#0065FD"/>
</svg>
