<svg width="250" height="250" viewBox="0 0 250 250" fill="none" xmlns="http://www.w3.org/2000/svg">
<g clip-path="url(#clip0_1789_7040)">
<path d="M216.204 170.547C205.639 176.049 150.913 198.535 139.262 204.605C127.611 210.675 121.138 210.617 111.934 206.22C102.73 201.823 44.4914 178.315 34.0004 173.304C28.7575 170.8 26 168.686 26 166.689V146.694C26 146.694 101.82 130.2 114.06 125.812C126.3 121.424 130.547 121.265 140.963 125.078C151.38 128.892 213.665 140.121 223.96 143.889L223.955 163.602C223.957 165.578 221.581 167.746 216.204 170.547Z" fill="#912626"/>
<path d="M216.2 150.67C205.636 156.17 150.911 178.657 139.26 184.726C127.61 190.797 121.137 190.738 111.934 186.341C102.729 181.947 44.4928 158.435 34.0025 153.427C23.5122 148.416 23.2926 144.967 33.5973 140.935C43.902 136.902 101.819 114.195 114.061 109.807C126.3 105.42 130.547 105.26 140.963 109.074C151.379 112.887 205.778 134.524 216.071 138.291C226.368 142.063 226.763 145.168 216.2 150.67Z" fill="#C6302B"/>
<path d="M216.204 138.194C205.639 143.697 150.913 166.182 139.262 172.254C127.611 178.322 121.138 178.263 111.934 173.867C102.729 169.472 44.4914 145.962 34.0004 140.951C28.7575 138.447 26 136.336 26 134.338V114.341C26 114.341 101.82 97.8479 114.06 93.4596C126.3 89.0713 130.547 88.9121 140.963 92.7255C151.381 96.539 213.666 107.766 223.96 111.534L223.955 131.249C223.957 133.225 221.581 135.393 216.204 138.194Z" fill="#912626"/>
<path d="M216.2 118.317C205.636 123.818 150.911 146.303 139.26 152.375C127.61 158.444 121.137 158.384 111.934 153.987C102.729 149.594 44.4928 126.083 34.0025 121.074C23.5122 116.064 23.2926 112.615 33.5973 108.581C43.902 104.55 101.82 81.8416 114.061 77.4541C126.3 73.0665 130.547 72.9073 140.963 76.7207C151.379 80.5334 205.778 102.169 216.071 105.938C226.368 109.708 226.763 112.815 216.2 118.317Z" fill="#C6302B"/>
<path d="M216.204 104.641C205.639 110.143 150.913 132.629 139.262 138.701C127.611 144.77 121.138 144.711 111.934 140.314C102.729 135.919 44.4914 112.408 34.0004 107.4C28.7575 104.894 26 102.782 26 100.787V80.7884C26 80.7884 101.82 64.2961 114.06 59.9086C126.3 55.5195 130.547 55.3618 140.963 59.1745C151.381 62.9879 213.666 74.2148 223.96 77.9834L223.955 97.6973C223.957 99.6716 221.581 101.84 216.204 104.641Z" fill="#912626"/>
<path d="M216.2 84.764C205.636 90.2658 150.911 112.752 139.26 118.821C127.61 124.89 121.137 124.831 111.934 120.436C102.73 116.039 44.4929 92.5299 34.0034 87.5203C23.5123 82.5115 23.2934 79.0612 33.5974 75.0284C43.9021 70.9963 101.82 48.2912 114.061 43.9022C126.301 39.5138 130.547 39.3562 140.963 43.1696C151.38 46.983 205.778 68.6186 216.071 72.3872C226.368 76.155 226.764 79.2622 216.2 84.764Z" fill="#C6302B"/>
<path d="M149.171 65.3122L132.151 67.0779L128.341 76.2394L122.187 66.0162L102.534 64.2513L117.199 58.9666L112.799 50.8545L126.528 56.2203L139.471 51.9858L135.973 60.3737L149.171 65.3122ZM127.325 109.758L95.5606 96.593L141.076 89.6114L127.325 109.758ZM83.2864 70.4045C96.7221 70.4045 107.614 74.6236 107.614 79.8271C107.614 85.0322 96.7221 89.2505 83.2864 89.2505C69.8506 89.2505 58.959 85.0314 58.959 79.8271C58.959 74.6236 69.8506 70.4045 83.2864 70.4045Z" fill="white"/>
<path d="M169.285 67.8167L196.223 78.4541L169.308 89.0814L169.285 67.8159" fill="#621B1C"/>
<path d="M139.483 79.5969L169.285 67.8167L169.308 89.0813L166.386 90.2234L139.483 79.5969Z" fill="#9A2928"/>
</g>
<defs>
<clipPath id="clip0_1789_7040">
<rect width="198" height="170" fill="white" transform="translate(26 40)"/>
</clipPath>
</defs>
</svg>
