<svg width="250" height="250" viewBox="0 0 250 250" fill="none" xmlns="http://www.w3.org/2000/svg">
<g clip-path="url(#clip0_2110_4569)">
<path d="M43.2632 136.102L125.343 174.07L207.419 136.102L125.341 132.684L43.2632 136.102Z" fill="#FCBF92"/>
<path d="M125.593 25L43.3003 66.2427V124.436H141.978V33.2295L125.593 25Z" fill="#9D5025"/>
<path d="M43.3003 165.461L125.642 224L207.733 165.461L125.461 153.43L43.3003 165.461Z" fill="#FCBF92"/>
<path d="M125.593 124.436H169.009V62.3395L156.331 57.2443L125.595 66.2532L125.593 124.436Z" fill="#9D5025"/>
<path d="M156.331 124.436H189.889V84.1591L180.291 81.2653L156.331 85.3531V124.436Z" fill="#9D5025"/>
<path d="M180.291 78.1082V124.436H207.417L207.737 77.903L199.496 74.5946L180.291 78.1082Z" fill="#9D5025"/>
<path d="M125.593 25V124.436H141.978V33.2295L125.593 25ZM169.009 62.3395L156.331 57.2442V124.436H169.009V62.3395ZM189.889 84.159L180.291 81.2652V124.438H189.889V84.159ZM199.496 124.436H207.735V77.9008L199.496 74.5925V124.436ZM125.343 144.35V174.07L207.419 153.51V136.102L125.343 144.35ZM125.343 194.656V224L207.733 182.604V165.461L125.343 194.656Z" fill="#F68534"/>
<path d="M43.3003 182.782L125.343 224V194.44L43.3044 165.459L43.3003 182.782ZM43.2632 153.511L125.343 174.07V144.35L43.2632 136.1V153.511Z" fill="#9D5025"/>
</g>
<defs>
<clipPath id="clip0_2110_4569">
<rect width="165" height="199" fill="white" transform="translate(43 25)"/>
</clipPath>
</defs>
</svg>
