<svg width="250" height="250" viewBox="0 0 250 250" fill="none" xmlns="http://www.w3.org/2000/svg">
<g clip-path="url(#clip0_2142_3891)">
<path d="M199.128 103.162C200.969 124.418 167.539 144.703 124.418 148.391C81.2982 152.079 44.961 137.812 43.1199 116.556C41.2788 95.3 74.709 75.0147 117.829 71.3265C160.852 67.6382 197.287 81.8088 199.128 103.162Z" fill="#BBE6FB"/>
<path d="M118.992 73.7529C102.519 73.4617 83.3332 80.0617 68.9921 86.1764C67.5386 90.447 66.6665 95.0088 66.6665 99.7647C66.6665 125 89.4378 145.479 117.539 145.479C145.639 145.479 168.508 125.097 168.508 99.7647C168.508 91.8058 166.182 84.2352 162.209 77.7323C150.775 75.9852 134.98 74.0441 118.992 73.7529Z" fill="white"/>
<path d="M117.636 73.7529C108.527 73.1705 92.8296 77.9264 79.7482 82.6823C77.7134 87.3411 76.6475 92.4852 76.6475 97.9205C76.6475 120.05 96.7056 138.006 117.83 138.006C138.857 138.006 157.461 120.05 159.012 97.9205C159.496 90.7382 157.074 83.9441 153.585 78.1205C140.116 75.7911 125.775 74.3352 117.636 73.7529Z" fill="white"/>
<path d="M94.2827 95.1059C95.4455 92.5823 97.0928 91.4176 98.7401 89.3794C98.5463 88.8941 98.1587 87.2441 98.1587 86.7588C98.1587 84.2353 100.194 82.2941 102.616 82.2941C103.197 82.2941 103.779 82.3912 104.263 82.5853C111.725 76.8588 121.511 74.4323 131.395 76.6647C132.267 76.8588 133.139 77.15 134.011 77.3441C124.321 75.9853 113.275 79.4794 105.814 85.497C106.008 86.0794 106.686 87.5353 106.686 88.2147C106.686 90.7382 105.039 91.3206 102.616 91.3206C102.035 91.3206 101.55 91.2235 100.969 91.0294C99.3215 93.2617 97.1897 97.6294 96.2207 100.347C100.387 104.035 104.07 105.394 108.915 107.238C108.915 107.044 109.108 106.753 109.108 106.559C109.108 99.0853 115.697 92.9706 123.159 92.9706C129.845 92.9706 135.465 97.8235 136.531 104.229C139.922 102.094 143.12 100.444 145.542 97.3382C144.961 96.6588 144.38 94.6206 144.38 93.65C144.38 91.4176 146.221 89.5735 148.449 89.5735C148.74 89.5735 149.031 89.5735 149.418 89.6706C150.678 87.05 151.647 84.3323 152.228 81.5176C140.504 72.7823 117.829 74.0441 117.829 74.0441C117.829 74.0441 99.806 73.0735 87.5967 79.0912C88.4688 84.7206 90.7944 90.35 94.2827 95.1059Z" fill="#373535"/>
<path d="M150.291 91.7088C151.163 92.4852 151.55 93.0676 151.938 93.747C153.004 95.6882 150.872 97.5323 148.546 97.5323C148.353 97.5323 148.062 97.5323 147.868 97.4352C145.349 101.415 140.891 106.462 136.918 109.082C143.023 110.053 148.74 112.479 153.198 116.265C156.492 110.344 159.011 101.706 159.011 94.4264C159.011 88.8941 156.589 84.8176 152.907 81.8088C152.81 84.8176 151.163 88.9911 150.291 91.7088Z" fill="#373535"/>
<path d="M101.066 129.368C103.101 123.738 108.043 119.468 112.791 115.682C112.112 114.712 111.047 112.382 110.659 111.315C104.942 109.568 99.9031 106.268 95.9303 101.997C95.9303 102.094 95.8334 102.288 95.8334 102.385C95.0582 105.685 94.9613 109.082 95.3489 112.285C98.0621 112.771 100.194 115.197 100.194 118.109C100.194 119.856 98.6435 122.282 97.4807 123.447C98.6435 125.971 99.5156 127.329 101.066 129.368Z" fill="#373535"/>
<path d="M100.678 134.026C98.256 131.6 96.6087 126.844 95.0583 123.835C94.7676 123.835 94.4769 123.932 94.1862 123.932C90.8916 123.932 87.5002 121.215 88.2754 118.012C88.663 116.265 89.9227 115.1 91.8606 114.129C91.3761 110.441 91.2792 105.297 92.1513 101.512C92.3451 100.444 92.9265 99.9588 93.2172 98.8911C89.632 93.65 87.3064 86.6617 87.3064 79.7705V78.9941C81.2017 82.1 76.6475 86.8558 76.6475 94.4264C76.6475 111.218 86.3374 127.718 100.678 134.123V134.026Z" fill="#373535"/>
<path d="M136.046 110.829C134.205 116.071 129.167 119.953 123.256 119.953C120.058 119.953 117.151 118.885 114.922 117.041C110.174 120.729 105.814 127.232 103.682 132.959C104.651 134.026 105.329 134.9 106.492 135.871C109.787 136.744 114.438 135.871 118.023 135.871C132.461 135.871 145.349 129.465 152.713 118.109C147.674 114.615 141.86 111.315 136.046 110.829Z" fill="#373535"/>
<path d="M93.8956 97.047C95.0584 94.5235 96.4149 92.2911 98.0622 90.1558C97.8684 89.6705 97.7715 89.0882 97.7715 88.6029C97.7715 86.0794 99.8064 84.1382 102.229 84.1382C102.81 84.1382 103.392 84.2352 103.876 84.4294C111.337 78.7029 121.124 76.2764 131.008 78.5088C131.88 78.7029 132.752 78.9941 133.624 79.1882C123.934 77.8294 113.857 80.8382 106.396 86.8558C106.589 87.4382 106.783 88.0205 106.783 88.6029C106.783 91.1264 104.748 93.0676 102.326 93.0676C101.744 93.0676 101.26 92.9705 100.679 92.7764C99.0312 95.0088 97.5777 97.5323 96.6087 100.25C100.194 104.035 104.554 107.141 109.399 108.888V108.209C109.399 100.735 115.504 94.6205 122.965 94.6205C129.651 94.6205 135.272 99.4735 136.337 105.879C139.729 103.744 142.636 101.026 145.155 97.8235C144.574 97.1441 144.186 96.2705 144.186 95.2999C144.186 93.0676 146.027 91.2235 148.256 91.2235C148.547 91.2235 148.837 91.2235 149.225 91.3205C150.485 88.6999 151.454 85.9823 152.035 83.1676C140.31 74.4323 117.636 75.6941 117.636 75.6941C117.636 75.6941 99.6126 74.7235 87.4033 80.7411C88.0816 86.6617 90.4072 92.2911 93.8956 97.047Z" fill="#1287B1"/>
<path d="M150.872 92.3882C151.744 93.1647 152.228 94.2324 152.228 95.3971C152.228 97.6294 150.387 99.4735 148.159 99.4735C147.965 99.4735 147.674 99.4735 147.48 99.3765C144.961 103.356 141.57 106.753 137.597 109.276C143.411 110.15 148.934 112.674 153.488 116.459C156.783 110.538 158.721 103.647 158.721 96.3676C158.721 90.8353 156.298 86.7588 152.616 83.75C152.422 86.7588 151.841 89.6706 150.872 92.3882Z" fill="#1287B1"/>
<path d="M101.647 130.629C103.682 125 107.17 120.05 111.919 116.265C111.24 115.294 110.659 114.323 110.271 113.159C104.554 111.412 99.5155 108.112 95.5426 103.841C95.5426 103.938 95.4457 104.132 95.4457 104.229C94.6705 107.529 94.5736 110.926 94.9612 114.129C97.6744 114.615 99.8061 117.041 99.8061 119.953C99.8061 121.7 99.031 123.253 97.8682 124.321C98.8372 126.553 100.194 128.688 101.647 130.629Z" fill="#1287B1"/>
<path d="M100.678 133.929C98.2559 131.503 96.221 128.785 94.6706 125.776C94.3799 125.776 94.0892 125.873 93.7985 125.873C90.504 125.873 87.8877 123.253 87.8877 119.953C87.8877 117.623 89.2443 115.585 91.1822 114.615C90.6978 110.926 90.8915 107.238 91.7636 103.453C91.9574 102.385 92.345 101.318 92.6357 100.25C89.0505 95.0088 86.9187 88.6029 86.9187 81.7117V80.9352C80.814 84.0411 76.2598 88.797 76.2598 96.3676C76.2598 113.159 86.2404 127.621 100.581 134.026C100.678 134.026 100.678 134.026 100.678 133.929Z" fill="#1287B1"/>
<path d="M135.659 112.771C133.818 118.012 128.779 121.894 122.868 121.894C119.67 121.894 116.763 120.826 114.535 118.982C109.787 122.671 106.201 127.718 103.973 133.444C104.942 134.512 106.008 135.482 107.073 136.453C110.368 137.326 113.856 137.812 117.442 137.812C131.88 137.812 144.67 130.338 152.035 118.982C147.19 115.488 141.473 113.256 135.659 112.771Z" fill="#1287B1"/>
<path d="M136.144 109.276L148.644 106.268L136.047 105.588L146.318 97.8235L134.69 101.997L142.539 91.0294L131.589 98.3088L135.368 85.497L127.907 96.0764L127.713 82.6823L122.771 94.6206L118.702 82.5853L118.895 96.7559L111.822 84.0411L115.698 97.5323L104.167 89.1853L113.178 100.541L98.8373 95.3L110.078 103.647L95.6396 104.132L110.465 107.918L95.6396 111.121L110.271 112.188L97.9652 120.05L110.659 115.488L101.841 126.65L112.985 117.624L109.012 132.571L117.636 120.341L116.473 134.706L121.318 121.603L125.485 135.288L126.454 121.506L132.655 133.25L128.973 119.856L140.213 128.591L132.946 117.429L145.349 122.282L135.853 112.965L148.547 113.935L136.144 109.276Z" fill="white"/>
<path d="M2.71338 133.25C41.57 94.3294 72.5777 82.2941 100.775 76.8588C104.458 76.1794 105.233 67.9294 105.233 67.9294C105.233 67.9294 105.717 73.947 108.334 74.7235C110.95 75.5 114.341 65.3088 114.341 65.3088C114.341 65.3088 111.241 74.4323 114.341 75.0147C117.442 75.5 123.256 66.0853 123.256 66.0853C123.256 66.0853 120.93 74.1412 122.481 74.7235C124.031 75.2088 131.88 62.9794 131.88 62.9794C131.88 62.9794 127.229 71.0353 131.589 71.9088C136.047 72.6853 142.539 66.3764 142.539 66.3764C142.539 66.3764 137.5 72.1029 139.729 72.9764C149.419 76.3735 157.171 63.8529 157.171 63.8529C157.171 63.8529 155.33 69.3853 150.678 75.4029C160.853 78.0235 168.411 62.6882 168.411 62.6882L160.853 78.0235C164.729 79.9647 180.33 61.9117 180.33 61.9117C180.33 61.9117 172.287 75.9853 167.539 78.897C170.155 81.0323 179.554 72.5882 179.554 72.5882C179.554 72.5882 171.996 82.0029 174.903 82.4882C179.07 85.8853 194.477 65.0176 194.477 65.0176C194.477 65.0176 188.469 77.3441 179.651 86.9529C187.016 90.7382 205.427 66.9588 205.427 66.9588C205.427 66.9588 204.942 74.5294 191.57 86.5647C201.454 85.3029 214.244 66.4735 214.244 66.4735C214.244 66.4735 209.593 80.547 198.353 90.5441C208.043 89.5735 223.644 65.5029 223.644 65.5029C223.644 65.5029 217.636 82.197 205.427 91.9029C218.992 94.9117 238.566 74.6264 238.566 74.6264C238.566 74.6264 230.911 88.9912 220.834 94.9117C232.074 99.1823 247.481 81.4206 247.481 81.4206C247.481 81.4206 232.074 105.2 207.558 104.132C199.516 103.744 175.194 79.6735 123.062 81.6147C54.07 84.1382 39.5351 113.45 2.71338 133.25Z" fill="#373535" fill-opacity="0.35"/>
<path d="M4.26367 130.338C43.1203 91.4176 74.128 79.3823 102.326 73.947C106.008 73.2676 106.783 65.0176 106.783 65.0176C106.783 65.0176 107.268 71.0353 109.884 71.8117C112.5 72.5882 115.892 62.397 115.892 62.397C115.892 62.397 112.791 71.5206 115.892 72.1029C118.992 72.5882 124.806 63.1735 124.806 63.1735C124.806 63.1735 122.481 71.2294 124.031 71.8117C125.581 72.297 133.43 60.0676 133.43 60.0676C133.43 60.0676 128.779 68.1235 133.14 68.997C137.597 69.7735 144.089 63.4647 144.089 63.4647C144.089 63.4647 139.051 69.1911 141.279 70.0647C150.969 73.4617 158.721 60.9412 158.721 60.9412C158.721 60.9412 156.88 66.4735 152.229 72.4911C162.403 75.1117 169.961 59.7764 169.961 59.7764L162.403 75.1117C166.279 77.247 181.977 59.1941 181.977 59.1941C181.977 59.1941 173.934 73.2676 169.186 76.1794C171.802 78.0235 181.202 69.6764 181.202 69.6764C181.202 69.6764 173.644 79.0912 176.55 79.5764C180.717 82.9735 196.124 62.1059 196.124 62.1059C196.124 62.1059 190.019 74.4323 181.202 84.0411C188.566 87.7294 207.074 63.95 207.074 63.95C207.074 63.95 206.589 71.5206 193.217 83.5559C203.101 82.2941 215.892 63.4647 215.892 63.4647C215.892 63.4647 211.24 77.5382 200 87.5353C209.69 86.5647 225.291 62.4941 225.291 62.4941C225.291 62.4941 219.283 79.1882 207.074 88.8941C220.64 91.9029 240.213 71.6176 240.213 71.6176C240.213 71.6176 232.558 85.9823 222.481 91.9029C233.721 96.1735 249.128 78.4117 249.128 78.4117C249.128 78.4117 233.721 102.191 209.206 101.124C201.163 100.735 176.841 76.6647 124.709 78.6059C55.7172 81.2264 41.0854 110.441 4.26367 130.338Z" fill="#373535"/>
<path d="M1.74414 137.521C22.2868 147.809 41.0852 135.968 64.7286 142.665C82.7519 147.712 104.651 154.021 134.399 149.653C164.147 145.382 189.535 132.376 201.744 109.276C205.523 98.9882 220.93 111.606 220.93 111.606C220.93 111.606 209.69 106.947 209.981 109.082C210.271 111.315 226.841 118.982 226.841 118.982C226.841 118.982 211.822 114.324 212.791 117.818C213.663 121.312 231.589 135.482 231.589 135.482C231.589 135.482 211.143 120.147 209.496 122.282C207.752 124.418 218.12 132.862 218.12 132.862C218.12 132.862 201.066 122.282 195.058 125.388C190.698 127.621 212.791 142.082 212.791 142.082C212.791 142.082 198.45 131.115 195.058 134.026C191.667 136.938 211.24 160.426 211.24 160.426C211.24 160.426 188.953 136.356 186.725 137.521C184.496 138.685 192.829 150.235 192.829 150.235C192.829 150.235 181.977 138.2 178.973 140.238C175.969 142.374 194.67 173.529 194.67 173.529C194.67 173.529 174.419 141.597 165.988 146.935C179.07 175.762 174.225 179.838 174.225 179.838C174.225 179.838 172.577 150.429 156.201 151.206C147.965 151.594 160.077 173.141 160.077 173.141C160.077 173.141 148.934 153.438 141.473 153.826C155.136 179.838 150.291 190.321 150.291 190.321C150.291 190.321 152.519 168.094 134.012 155.768C141.085 162.076 129.554 190.321 129.554 190.321C129.554 190.321 139.632 148.682 122.093 156.641C119.283 157.903 121.899 177.412 121.899 177.412C121.899 177.412 118.411 155.088 113.081 156.253C109.981 156.932 93.5077 187.215 93.5077 187.215C93.5077 187.215 106.977 154.506 102.907 155.865C99.903 156.835 94.2829 170.326 94.2829 170.326C94.2829 170.326 96.9961 157.029 94.2829 156.253C91.5697 155.476 76.2596 170.326 76.2596 170.326C76.2596 170.326 87.5968 157.029 85.6589 154.215C82.655 150.041 79.2635 149.847 75.0968 151.497C69.0891 153.826 61.0465 164.794 61.0465 164.794C61.0465 164.794 69.0891 153.632 67.7325 149.556C65.5038 142.859 42.3449 162.465 42.3449 162.465C42.3449 162.465 56.0077 149.556 52.9069 146.741C49.8062 144.024 32.7519 144.8 27.5193 144.8C11.9186 144.994 6.4922 141.306 1.74414 137.521Z" fill="#373535" fill-opacity="0.35"/>
<path d="M0.87207 135.191C21.4147 145.479 40.2132 133.638 63.8566 140.335C81.8798 145.382 103.779 151.691 133.527 147.324C163.275 143.053 188.663 130.047 200.872 106.947C204.651 96.6588 220.058 109.276 220.058 109.276C220.058 109.276 208.818 104.618 209.109 106.753C209.399 108.985 225.969 116.653 225.969 116.653C225.969 116.653 210.95 111.994 211.919 115.488C212.791 118.982 230.717 133.153 230.717 133.153C230.717 133.153 210.465 117.721 208.818 119.856C207.171 121.991 217.442 130.435 217.442 130.435C217.442 130.435 200.388 119.856 194.38 122.962C190.019 125.194 212.112 139.656 212.112 139.656C212.112 139.656 197.771 128.688 194.38 131.6C190.988 134.512 210.562 158 210.562 158C210.562 158 188.372 133.929 186.143 135.094C183.915 136.259 192.248 147.809 192.248 147.809C192.248 147.809 181.202 135.871 178.198 137.909C175.194 140.044 193.798 171.2 193.798 171.2C193.798 171.2 173.546 139.171 165.213 144.509C178.391 173.432 173.45 177.509 173.45 177.509C173.45 177.509 171.802 148.1 155.426 148.876C147.19 149.265 159.302 170.812 159.302 170.812C159.302 170.812 148.256 151.206 140.795 151.594C154.457 177.606 149.612 188.088 149.612 188.088C149.612 188.088 151.841 165.862 133.333 153.535C140.407 159.844 128.876 188.088 128.876 188.088C128.876 188.088 138.953 146.45 121.415 154.409C118.605 155.671 121.221 175.179 121.221 175.179C121.221 175.179 117.733 152.856 112.403 154.021C109.302 154.7 92.8294 184.982 92.8294 184.982C92.8294 184.982 106.298 152.274 102.229 153.632C99.2248 154.603 93.6046 168.094 93.6046 168.094C93.6046 168.094 96.3178 154.797 93.6046 154.021C90.8914 153.244 75.5814 168.094 75.5814 168.094C75.5814 168.094 86.9186 154.797 84.9806 151.982C81.9767 147.809 78.5853 147.615 74.4186 149.265C68.4108 151.594 60.3682 162.562 60.3682 162.562C60.3682 162.562 68.4108 151.4 67.0542 147.324C64.8256 140.626 41.6666 160.232 41.6666 160.232C41.6666 160.232 55.3294 147.324 52.2287 144.509C49.1279 141.791 32.0736 142.568 26.8411 142.568C11.0465 142.665 5.62013 138.976 0.87207 135.191Z" fill="#373535"/>
</g>
<defs>
<clipPath id="clip0_2142_3891">
<rect width="250" height="132" fill="white" transform="translate(0 59)"/>
</clipPath>
</defs>
</svg>
