<svg width="250" height="250" viewBox="0 0 250 250" fill="none" xmlns="http://www.w3.org/2000/svg">
<path fill-rule="evenodd" clip-rule="evenodd" d="M67.2249 153.412C61.0249 156.5 48.6249 162.676 49.2449 170.088C51.1049 174.412 56.0649 170.088 57.9249 168.235C62.2649 163.912 65.3649 158.353 67.2249 153.412ZM105.665 137.353C101.325 148.471 88.9249 153.412 85.8249 151.559C83.9649 150.324 85.8249 147.235 85.8249 144.765C83.3449 146 79.0049 147.853 76.5249 148.471C82.7249 152.794 85.8249 160.824 85.8249 168.235C85.8249 175.647 82.7249 182.441 77.1449 187.382C87.6849 202.824 82.1049 215.794 67.8449 226.294L67.2249 226.912V225.676C65.3649 218.265 62.2649 212.088 57.3049 206.529C54.8249 203.441 51.7249 200.971 49.2449 198.5C45.5249 194.794 41.8049 191.706 38.7049 188C24.4449 173.176 18.8649 147.235 20.7249 127.471C21.9649 116.971 25.0649 107.088 29.4049 98.4411C33.1249 91.0294 38.0849 84.2353 43.6649 78.6765C56.0649 65.7059 72.8049 55.2059 90.1649 49.6471C105.665 45.3235 123.025 44.0883 137.905 51.5C140.385 52.7353 144.105 54.5882 145.965 56.4411C147.205 57.6764 148.445 58.9118 149.685 60.147C149.685 60.147 149.685 60.1471 150.305 60.7647L218.505 26.1765C224.085 23.0882 228.425 23.0882 230.285 25.5588C232.145 28.0294 229.665 32.9706 225.325 35.4412L166.425 78.0588C167.665 81.147 165.805 86.0882 163.325 89.1764C171.385 91.647 164.565 103.382 160.845 107.088C150.925 118.824 132.945 127.471 116.825 134.265C111.865 135.5 109.385 136.118 105.665 137.353Z" fill="#393C42"/>
<path fill-rule="evenodd" clip-rule="evenodd" d="M159.605 97.8235C163.945 92.2647 160.845 89.1764 157.745 92.2647C151.545 98.4411 142.865 100.294 134.185 99.0588C122.405 97.2059 121.785 95.3529 123.645 93.4999C137.905 98.4411 154.645 91.6471 161.465 80.5294C164.565 76.2059 154.645 73.1176 148.445 65.0882C120.545 27.4118 32.5049 60.147 24.4449 126.235C21.9649 146 27.5449 168.235 41.1849 183.676C51.7249 195.412 62.2649 200.353 69.0849 218.265C81.4849 207.765 79.6249 196.029 70.3249 185.529C85.8249 177.5 83.3449 157.118 72.8049 150.941C67.8449 169.471 49.8649 183.059 45.5249 170.088C43.0449 156.5 64.7449 147.853 100.085 134.882C129.225 123.147 148.445 113.882 159.605 97.8235Z" fill="#55BFCE"/>
<path fill-rule="evenodd" clip-rule="evenodd" d="M159.605 97.8235C163.945 92.2647 160.845 89.1764 157.745 92.2647C152.785 97.8235 144.725 99.6764 137.905 99.6764C125.505 99.0588 116.205 96.5882 107.525 97.2058C90.1649 99.0588 72.8049 110.176 64.1249 119.441C48.6249 134.882 31.8849 167.618 48.6249 173.794C47.3849 173.176 46.1449 171.323 45.5249 169.471C43.0449 155.882 64.7449 147.235 100.085 134.265C129.225 123.147 148.445 113.882 159.605 97.8235Z" fill="white"/>
<path fill-rule="evenodd" clip-rule="evenodd" d="M83.9649 123.147C93.2649 127.471 91.4049 142.912 90.1649 147.235C107.525 142.294 101.945 116.971 110.005 109.559C100.085 108.941 81.4849 118.823 83.9649 123.147Z" fill="#55BFCE"/>
<path fill-rule="evenodd" clip-rule="evenodd" d="M113.105 77.4412C115.585 76.2059 118.685 76.8236 119.925 79.2942C121.165 81.7648 120.545 84.8529 118.065 86.0882C115.585 87.3235 112.485 86.7059 111.245 84.2353C109.385 81.7647 110.625 78.6765 113.105 77.4412Z" fill="#393C42"/>
<path fill-rule="evenodd" clip-rule="evenodd" d="M154.645 79.2941L223.465 31.7352C225.325 30.4999 227.805 27.4117 227.185 26.1764C225.945 24.9411 222.845 25.5588 220.365 26.7941L145.965 66.9412C143.485 71.8823 148.445 82.3823 154.645 79.2941Z" fill="#55BFCE"/>
<path fill-rule="evenodd" clip-rule="evenodd" d="M148.445 70.0294L220.365 28.0294C223.465 26.1765 224.705 26.1765 226.565 26.1765C225.325 24.9412 222.225 25.5588 220.365 26.7941L145.965 66.9412C144.105 70.6471 146.585 77.4411 150.305 79.9117C149.065 76.2058 148.445 73.1177 148.445 70.0294Z" fill="white"/>
<path fill-rule="evenodd" clip-rule="evenodd" d="M42.4248 89.1764C44.9048 88.5588 46.7648 90.4117 46.7648 92.8823C46.7648 95.3529 44.9048 97.8235 42.4248 97.8235C39.9448 98.4412 38.0848 96.5882 38.0848 94.1176C38.0848 91.647 39.9448 89.1764 42.4248 89.1764Z" fill="#25ABAD"/>
<path fill-rule="evenodd" clip-rule="evenodd" d="M56.6848 73.7353C58.5448 73.1177 60.4048 74.9706 60.4048 76.8235C60.4048 78.6765 58.5448 81.147 56.6848 81.147C54.8248 81.7647 52.9648 79.9117 52.9648 78.0588C52.9648 76.2059 54.2048 73.7353 56.6848 73.7353Z" fill="#25ABAD"/>
<path fill-rule="evenodd" clip-rule="evenodd" d="M98.8449 53.3529C100.705 53.3529 101.945 55.2059 101.945 57.0588C101.325 58.9117 99.4649 60.7647 96.9849 60.7647C95.1249 60.7647 93.8849 58.9117 93.8849 57.0588C94.5049 54.5882 96.9849 53.3529 98.8449 53.3529Z" fill="#25ABAD"/>
<path fill-rule="evenodd" clip-rule="evenodd" d="M111.865 50.8823C113.725 51.5 114.345 52.7353 113.725 54.5882C113.105 56.4412 111.245 57.0588 109.385 57.0588C107.525 56.4412 106.905 55.2058 107.525 53.3529C108.145 51.4999 110.005 50.8823 111.865 50.8823Z" fill="#25ABAD"/>
<path fill-rule="evenodd" clip-rule="evenodd" d="M56.6848 83C57.9248 83 59.1648 83.6177 59.1648 85.4706C59.1648 87.3235 57.9248 88.5588 56.0648 88.5588C54.8248 88.5588 53.5848 87.9411 53.5848 86.0882C54.2048 84.8529 55.4448 83.6176 56.6848 83Z" fill="#25ABAD"/>
<path fill-rule="evenodd" clip-rule="evenodd" d="M34.9849 100.912C36.8449 100.912 38.0849 101.529 38.0849 103.382C38.0849 105.235 36.8449 106.471 34.9849 107.088C33.1249 107.088 31.8849 106.471 31.8849 104.618C31.8849 102.765 33.1249 101.529 34.9849 100.912Z" fill="#25ABAD"/>
<path fill-rule="evenodd" clip-rule="evenodd" d="M163.945 57.0588L160.845 58.9118C160.845 63.8529 165.185 69.4118 167.665 70.0294C165.185 66.9412 163.325 60.7647 163.945 57.0588ZM181.305 47.7941L178.205 49.0294C178.825 53.3529 181.925 58.2941 183.785 58.2941C182.545 56.4411 180.685 50.8823 181.305 47.7941ZM198.045 38.5294L196.185 39.7647C196.185 42.2353 198.045 46.5588 200.525 47.1764C199.285 45.3235 197.425 42.2353 198.045 38.5294ZM214.165 29.8824L212.305 31.1176C212.305 32.9706 214.785 36.0588 216.025 36.6764C215.405 35.4411 214.165 32.353 214.165 29.8824Z" fill="#25ABAD"/>
</svg>
