<svg width="250" height="250" viewBox="0 0 250 250" fill="none" xmlns="http://www.w3.org/2000/svg">
<path d="M125 223C179.124 223 223 179.124 223 125C223 70.8761 179.124 27 125 27C70.8761 27 27 70.8761 27 125C27 179.124 70.8761 223 125 223Z" fill="#333333"/>
<path d="M125 210.75C172.358 210.75 210.75 172.358 210.75 125C210.75 77.6416 172.358 39.25 125 39.25C77.6416 39.25 39.25 77.6416 39.25 125C39.25 172.358 77.6416 210.75 125 210.75Z" fill="white" stroke="#333333"/>
<path d="M125 135.208C130.638 135.208 135.208 130.638 135.208 125C135.208 119.362 130.638 114.792 125 114.792C119.362 114.792 114.792 119.362 114.792 125C114.792 130.638 119.362 135.208 125 135.208Z" fill="#333333"/>
<path d="M159.649 96.476C163.032 96.476 165.774 93.7337 165.774 90.351C165.774 86.9682 163.032 84.226 159.649 84.226C156.266 84.226 153.524 86.9682 153.524 90.351C153.524 93.7337 156.266 96.476 159.649 96.476Z" fill="#333333"/>
<path d="M125 86.2082C130.638 86.2082 135.208 81.6377 135.208 75.9998C135.208 70.3619 130.638 65.7915 125 65.7915C119.362 65.7915 114.792 70.3619 114.792 75.9998C114.792 81.6377 119.362 86.2082 125 86.2082Z" fill="#333333"/>
<path d="M174 135.208C179.638 135.208 184.208 130.638 184.208 125C184.208 119.362 179.638 114.792 174 114.792C168.362 114.792 163.792 119.362 163.792 125C163.792 130.638 168.362 135.208 174 135.208Z" fill="#333333"/>
<path d="M159.649 169.858C165.287 169.858 169.858 165.287 169.858 159.649C169.858 154.011 165.287 149.441 159.649 149.441C154.011 149.441 149.441 154.011 149.441 159.649C149.441 165.287 154.011 169.858 159.649 169.858Z" fill="#333333"/>
<path d="M125 184.208C130.638 184.208 135.208 179.638 135.208 174C135.208 168.362 130.638 163.792 125 163.792C119.362 163.792 114.792 168.362 114.792 174C114.792 179.638 119.362 184.208 125 184.208Z" fill="#333333"/>
<path d="M90.3509 169.858C95.9888 169.858 100.559 165.287 100.559 159.649C100.559 154.011 95.9888 149.441 90.3509 149.441C84.7129 149.441 80.1425 154.011 80.1425 159.649C80.1425 165.287 84.7129 169.858 90.3509 169.858Z" fill="#333333"/>
<path d="M75.9999 135.208C81.6378 135.208 86.2082 130.638 86.2082 125C86.2082 119.362 81.6378 114.792 75.9999 114.792C70.362 114.792 65.7916 119.362 65.7916 125C65.7916 130.638 70.362 135.208 75.9999 135.208Z" fill="#333333"/>
<path d="M90.3509 100.559C95.9888 100.559 100.559 95.9888 100.559 90.3509C100.559 84.713 95.9888 80.1426 90.3509 80.1426C84.7129 80.1426 80.1425 84.713 80.1425 90.3509C80.1425 95.9888 84.7129 100.559 90.3509 100.559Z" fill="#333333"/>
<path d="M117.781 117.781L156.04 86.7412L163.259 93.9605L132.219 132.219L117.781 117.781Z" fill="#333333"/>
</svg>
