<svg width="250" height="250" viewBox="0 0 250 250" fill="none" xmlns="http://www.w3.org/2000/svg">
<g clip-path="url(#clip0_2185_3872)">
<mask id="mask0_2185_3872" style="mask-type:alpha" maskUnits="userSpaceOnUse" x="28" y="32" width="193" height="138">
<path d="M28 32.3877H220.825V169.619H28" fill="white"/>
</mask>
<g mask="url(#mask0_2185_3872)">
<path fill-rule="evenodd" clip-rule="evenodd" d="M108.241 47.3541C114.459 40.7673 123.116 36.681 132.692 36.681C145.422 36.681 156.526 43.8965 162.44 54.6097C167.581 52.2759 173.269 50.9762 179.254 50.9762C202.212 50.9762 220.825 70.0661 220.825 93.6135C220.825 117.164 202.212 136.254 179.254 136.254C176.451 136.254 173.714 135.966 171.064 135.424C165.858 144.867 155.933 151.249 144.541 151.249C139.774 151.249 135.265 150.131 131.247 148.137C125.97 160.764 113.668 169.619 99.3336 169.619C84.4042 169.619 71.6796 160.015 66.7967 146.544C64.6627 147.002 62.4495 147.244 60.1823 147.244C42.408 147.244 28 132.442 28 114.182C28 101.941 34.4699 91.2568 44.0909 85.5397C42.1104 80.9033 41.0108 75.7916 41.0108 70.4148C41.0108 49.4145 57.7793 32.3879 78.4613 32.3879C90.6051 32.3879 101.397 38.2572 108.241 47.3541Z" fill="#129CD8"/>
</g>
<path fill-rule="evenodd" clip-rule="evenodd" d="M55.9273 103.552C55.8054 103.874 55.9697 103.941 56.0095 103.996C56.3723 104.264 56.7377 104.457 57.1092 104.673C59.0758 105.733 60.9348 106.041 62.8764 106.041C66.8322 106.041 69.2893 103.903 69.2893 100.46V100.394C69.2893 97.2093 66.5148 96.0512 63.9164 95.2158L63.5761 95.1059C61.615 94.4578 59.9234 93.8986 59.9234 92.5848V92.5184C59.9234 91.3946 60.9123 90.5676 62.4453 90.5676C64.1486 90.5676 66.1693 91.144 67.47 91.876C67.47 91.876 67.8553 92.1267 67.9941 91.7494C68.0707 91.5445 68.7284 89.7436 68.7993 89.5475C68.8728 89.3373 68.7427 89.1791 68.6065 89.0955C67.1185 88.1762 65.064 87.5479 62.9387 87.5479L62.5447 87.5509C58.9227 87.5509 56.3948 89.7753 56.3948 92.962V93.0284C56.3948 96.3854 59.1835 97.4775 61.7966 98.2355L62.2161 98.3679C64.1205 98.9614 65.7611 99.4746 65.7611 100.834V100.904C65.7611 102.148 64.6926 103.076 62.9754 103.076C62.3065 103.076 60.1781 103.065 57.8797 101.587C57.6021 101.419 57.4434 101.301 57.2281 101.169C57.1148 101.097 56.8315 100.973 56.7066 101.35L55.9273 103.552Z" fill="#FEFEFE"/>
<path fill-rule="evenodd" clip-rule="evenodd" d="M113.832 103.552C113.71 103.874 113.875 103.941 113.915 103.996C114.277 104.264 114.643 104.457 115.014 104.673C116.981 105.733 118.84 106.041 120.781 106.041C124.737 106.041 127.194 103.903 127.194 100.46V100.394C127.194 97.2093 124.42 96.0512 121.821 95.2158L121.481 95.1059C119.52 94.4578 117.828 93.8986 117.828 92.5848V92.5184C117.828 91.3946 118.817 90.5676 120.35 90.5676C122.054 90.5676 124.074 91.144 125.375 91.876C125.375 91.876 125.76 92.1267 125.899 91.7494C125.976 91.5445 126.633 89.7436 126.704 89.5475C126.778 89.3373 126.648 89.1791 126.511 89.0955C125.024 88.1762 122.972 87.5479 120.844 87.5479L120.45 87.5509C116.828 87.5509 114.3 89.7753 114.3 92.962V93.0284C114.3 96.3854 117.092 97.4775 119.702 98.2355L120.121 98.3679C122.026 98.9614 123.669 99.4746 123.669 100.834V100.904C123.669 102.148 122.601 103.076 120.88 103.076C120.211 103.076 118.086 103.065 115.785 101.587C115.507 101.419 115.343 101.307 115.133 101.169C115.062 101.123 114.728 100.99 114.615 101.35L113.832 103.552Z" fill="#FEFEFE"/>
<path fill-rule="evenodd" clip-rule="evenodd" d="M153.363 96.8058C153.363 98.7509 153.005 100.287 152.303 101.37C151.606 102.442 150.554 102.967 149.089 102.967C147.621 102.967 146.575 102.442 145.89 101.37C145.195 100.287 144.844 98.7509 144.844 96.8058C144.844 94.8637 145.195 93.3306 145.886 92.2591C146.575 91.1986 147.621 90.6824 149.089 90.6824C150.554 90.6824 151.606 91.1986 152.303 92.2591C153.005 93.3306 153.363 94.8637 153.363 96.8058ZM156.664 93.1982C156.341 92.0832 155.834 91.1005 155.162 90.2823C154.49 89.461 153.638 88.801 152.626 88.3226C151.617 87.8443 150.426 87.5994 149.089 87.5994C147.748 87.5994 146.555 87.8443 145.547 88.3226C144.538 88.801 143.685 89.461 143.013 90.2849C142.338 91.1036 141.834 92.0863 141.511 93.1982C141.188 94.3075 141.023 95.5206 141.023 96.8058C141.023 98.0909 141.188 99.3071 141.511 100.413C141.834 101.526 142.338 102.508 143.013 103.33C143.685 104.151 144.54 104.808 145.55 105.274C146.558 105.741 147.748 105.978 149.089 105.978C150.426 105.978 151.614 105.741 152.626 105.274C153.635 104.808 154.488 104.151 155.162 103.33C155.834 102.511 156.341 101.529 156.664 100.413C156.987 99.304 157.152 98.0909 157.152 96.8058C157.152 95.5206 156.987 94.3075 156.664 93.1982Z" fill="#FEFEFE"/>
<path fill-rule="evenodd" clip-rule="evenodd" d="M183.777 102.444C183.67 102.119 183.355 102.243 183.355 102.243C182.876 102.43 182.366 102.6 181.819 102.687C181.269 102.776 180.663 102.819 180.011 102.819C178.415 102.819 177.143 102.335 176.233 101.381C175.324 100.425 174.811 98.88 174.816 96.7911C174.822 94.8922 175.273 93.4632 176.083 92.371C176.888 91.2877 178.115 90.7315 179.748 90.7315C181.108 90.7315 182.148 90.8928 183.236 91.2384C183.236 91.2384 183.497 91.3536 183.619 91.008C183.911 90.1894 184.123 89.6103 184.432 88.7142C184.52 88.4579 184.305 88.3511 184.225 88.3194C183.797 88.1493 182.789 87.8701 182.023 87.7518C181.312 87.6423 180.476 87.5847 179.546 87.5847C178.161 87.5847 176.925 87.8265 175.868 88.3049C174.811 88.7806 173.918 89.4406 173.207 90.2615C172.498 91.0828 171.96 92.0655 171.603 93.1778C171.243 94.2872 171.064 95.5029 171.064 96.7938C171.064 99.5774 171.801 101.828 173.26 103.473C174.723 105.13 176.917 105.968 179.779 105.968C181.471 105.968 183.205 105.62 184.455 105.121C184.455 105.121 184.693 105.003 184.588 104.721L183.777 102.444Z" fill="#FEFEFE"/>
<path fill-rule="evenodd" clip-rule="evenodd" d="M189.554 94.9411C189.713 93.8604 190.005 92.9617 190.459 92.2613C191.141 91.1982 192.184 90.6103 193.653 90.6103C195.12 90.6103 196.087 91.1982 196.784 92.2613C197.246 92.9644 197.447 93.8982 197.526 94.9442L189.554 94.9411ZM200.669 92.5669C200.389 91.4892 199.694 90.4028 199.241 89.9073C198.521 89.1176 197.815 88.5671 197.118 88.262C196.209 87.8641 195.115 87.6021 193.916 87.6021C192.522 87.6021 191.255 87.8412 190.226 88.331C189.197 88.8208 188.333 89.4922 187.653 90.328C186.975 91.1608 186.465 92.1518 186.14 93.2787C185.813 94.3968 185.649 95.6156 185.649 96.9034C185.649 98.2145 185.819 99.4364 186.156 100.531C186.497 101.641 187.041 102.612 187.775 103.422C188.511 104.234 189.455 104.868 190.586 105.314C191.711 105.755 193.077 105.986 194.644 105.98C197.872 105.971 199.572 105.24 200.272 104.845C200.397 104.773 200.513 104.652 200.369 104.301L199.635 102.22C199.524 101.911 199.215 102.024 199.215 102.024C198.414 102.326 197.28 102.868 194.627 102.862C192.893 102.86 191.609 102.341 190.804 101.525C189.979 100.696 189.571 99.4738 189.503 97.748L200.678 97.7564C200.678 97.7564 200.973 97.7533 201.004 97.4596C201.015 97.3387 201.386 95.1258 200.669 92.5669Z" fill="#FEFEFE"/>
<path fill-rule="evenodd" clip-rule="evenodd" d="M100.045 94.9411C100.203 93.8604 100.495 92.9617 100.946 92.2613C101.635 91.1982 102.675 90.6103 104.143 90.6103C105.61 90.6103 106.58 91.1982 107.277 92.2613C107.736 92.9644 107.937 93.8982 108.016 94.9442L100.045 94.9411ZM111.159 92.5669C110.879 91.4892 110.185 90.4028 109.731 89.9073C109.011 89.1176 108.308 88.5671 107.609 88.262C106.696 87.8641 105.605 87.6021 104.409 87.6021C103.012 87.6021 101.745 87.8412 100.716 88.331C99.6874 88.8208 98.823 89.4922 98.1428 90.328C97.4657 91.1608 96.9554 92.1518 96.6298 93.2787C96.3037 94.3968 96.1394 95.6156 96.1394 96.9034C96.1394 98.2145 96.3093 99.4364 96.6466 100.531C96.987 101.641 97.5309 102.612 98.2648 103.422C99.0016 104.234 99.9456 104.868 101.076 105.314C102.201 105.755 103.567 105.986 105.134 105.98C108.362 105.971 110.063 105.24 110.763 104.845C110.887 104.773 111.004 104.652 110.859 104.301L110.125 102.22C110.015 101.911 109.705 102.024 109.705 102.024C108.904 102.326 107.77 102.868 105.117 102.862C103.386 102.86 102.099 102.341 101.294 101.525C100.47 100.696 100.061 99.4738 99.9936 97.748L111.168 97.7564C111.168 97.7564 111.463 97.7533 111.494 97.4596C111.505 97.3387 111.876 95.1258 111.159 92.5669Z" fill="#FEFEFE"/>
<path fill-rule="evenodd" clip-rule="evenodd" d="M75.887 102.382C75.4476 102.028 75.3884 101.939 75.2435 101.708C75.02 101.36 74.9062 100.864 74.9062 100.23C74.9062 99.2329 75.2323 98.5128 75.9038 98.0313C75.8982 98.0313 76.8677 97.1783 79.1461 97.21C80.747 97.2302 82.1813 97.4725 82.1813 97.4725V102.639C82.1813 102.639 80.7613 102.947 79.163 103.045C76.8902 103.187 75.8783 102.38 75.887 102.382ZM80.3336 94.3978C79.88 94.3631 79.2932 94.3459 78.5905 94.3459C77.6327 94.3459 76.706 94.4668 75.8359 94.706C74.9629 94.9452 74.178 95.3141 73.5034 95.8039C72.8232 96.2994 72.2792 96.9308 71.8827 97.68C71.4857 98.4292 71.2847 99.3108 71.2847 100.296C71.2847 101.305 71.4546 102.178 71.7975 102.892C72.1374 103.61 72.6278 104.209 73.2544 104.67C73.8749 105.131 74.6429 105.468 75.5298 105.673C76.4085 105.878 77.403 105.982 78.4915 105.982C79.6391 105.982 80.7786 105.884 81.8864 105.693C82.9831 105.503 84.3266 105.227 84.7006 105.137C85.0717 105.051 85.4829 104.936 85.4829 104.936C85.7605 104.863 85.7376 104.564 85.7376 104.564L85.732 94.1731C85.732 91.8908 85.1344 90.2024 83.9582 89.1538C82.785 88.1104 81.0562 87.5833 78.8231 87.5833C77.9842 87.5833 76.6381 87.6984 75.8273 87.8629C75.8273 87.8629 73.3876 88.3439 72.3843 89.145C72.3843 89.145 72.1629 89.283 72.2823 89.5974L73.0727 91.7584C73.1722 92.0381 73.4412 91.9427 73.4412 91.9427C73.4412 91.9427 73.5264 91.9084 73.6254 91.8477C75.7737 90.6606 78.4941 90.6953 78.4941 90.6953C79.7014 90.6953 80.6311 90.9459 81.2573 91.43C81.8665 91.9084 82.1757 92.6228 82.1757 94.1384V94.6199C81.2175 94.4783 80.3336 94.3978 80.3336 94.3978Z" fill="#FEFEFE"/>
<path fill-rule="evenodd" clip-rule="evenodd" d="M170.478 88.5421C170.564 88.2858 170.385 88.1618 170.311 88.1332C170.121 88.0611 169.169 87.8562 168.438 87.8074C167.032 87.7208 166.253 87.96 165.556 88.2801C164.862 88.5971 164.094 89.1129 163.668 89.6976L163.666 88.3118C163.666 88.1214 163.532 87.9688 163.345 87.9688H160.48C160.293 87.9688 160.16 88.1214 160.16 88.3118V105.264C160.16 105.454 160.31 105.606 160.5 105.606H163.436C163.623 105.606 163.773 105.454 163.773 105.264V96.7949C163.773 95.6566 163.898 94.5244 164.145 93.8126C164.386 93.1064 164.714 92.5445 165.122 92.1414C165.53 91.7377 165.995 91.4555 166.505 91.2972C167.024 91.1354 167.599 91.0808 168.001 91.0808C168.588 91.0808 169.229 91.2365 169.229 91.2365C169.447 91.2594 169.566 91.1239 169.639 90.9278C169.829 90.4095 170.376 88.8508 170.478 88.5421Z" fill="#FEFEFE"/>
<path fill-rule="evenodd" clip-rule="evenodd" d="M142.917 80.6863C142.559 80.5742 142.236 80.499 141.811 80.4212C141.381 80.3407 140.87 80.3003 140.292 80.3003C138.271 80.3003 136.679 80.8824 135.56 82.0291C134.449 83.1674 133.692 84.902 133.312 87.1812L133.176 87.9507H130.64C130.64 87.9507 130.328 87.9392 130.266 88.2822L129.849 90.645C129.818 90.8697 129.914 91.0108 130.212 91.0108H132.683L130.175 105.234C129.98 106.378 129.756 107.32 129.506 108.035C129.262 108.741 129.021 109.268 128.727 109.651C128.441 110.02 128.171 110.296 127.704 110.455C127.319 110.585 126.874 110.646 126.389 110.646C126.119 110.646 125.76 110.599 125.493 110.544C125.227 110.493 125.088 110.432 124.89 110.348C124.89 110.348 124.601 110.236 124.484 110.53C124.394 110.772 123.736 112.613 123.657 112.841C123.578 113.066 123.688 113.241 123.83 113.293C124.158 113.412 124.402 113.489 124.85 113.596C125.473 113.746 125.998 113.754 126.488 113.754C127.517 113.754 128.455 113.608 129.231 113.322C130.013 113.034 130.694 112.533 131.297 111.859C131.946 111.127 132.357 110.36 132.748 109.314C133.136 108.28 133.466 106.994 133.732 105.496L136.248 91.0108H139.929C139.929 91.0108 140.241 91.0223 140.303 90.6793L140.72 88.3165C140.748 88.0918 140.655 87.9507 140.357 87.9507H136.784C136.801 87.8702 136.963 86.5908 137.373 85.3891C137.549 84.8729 137.878 84.4614 138.158 84.176C138.431 83.8964 138.748 83.6977 139.094 83.582C139.448 83.4668 139.85 83.4093 140.292 83.4093C140.629 83.4093 140.958 83.4497 141.211 83.5016C141.556 83.5768 141.692 83.6168 141.783 83.6427C142.146 83.7579 142.194 83.6484 142.268 83.4699L143.121 81.0838C143.208 80.8275 142.996 80.718 142.917 80.6863Z" fill="#FEFEFE"/>
<path fill-rule="evenodd" clip-rule="evenodd" d="M92.986 105.263C92.986 105.454 92.8528 105.609 92.6656 105.609H89.7013C89.5145 105.609 89.3813 105.454 89.3813 105.263V81.0097C89.3813 80.8198 89.5145 80.6667 89.7013 80.6667H92.6656C92.8528 80.6667 92.986 80.8198 92.986 81.0097V105.263Z" fill="#FEFEFE"/>
</g>
<g clip-path="url(#clip1_2185_3872)">
<path d="M47.2476 185.351C46.9267 185.67 46.5892 185.972 46.2369 186.256V181.467H41.9768V218.738H46.2491V205.072C52.3981 212.164 59.4861 211.452 64.0716 208.581C69.6913 205.096 72.0987 197.582 70.0891 190.646C66.9727 180.43 54.2034 176.92 47.2476 185.351ZM55.0584 206.495C49.4384 206.495 45.9964 201.67 45.9484 195.64C45.8997 189.609 50.5695 184.627 56.1655 184.579C61.7607 184.531 66.1892 189.271 66.1892 195.615C66.137 201.664 61.2018 206.524 55.1672 206.472H55.1664H55.046L55.0584 206.495Z" fill="#7D888E"/>
<path d="M199.193 172.784V181.227H208.159V185.086H199.421C199.361 186.015 199.265 186.69 199.265 187.499C199.265 191.937 199.433 196.388 199.265 200.766C199 205.989 201.672 207.099 206.485 206.134C206.893 206.022 207.295 205.889 207.689 205.736C208.688 209.004 208.062 209.993 204.812 210.403C198.037 211.211 194.788 208.34 194.776 201.478V185.267L190.926 185.086V181.468L194.752 181.227V172.784H199.193Z" fill="#7D888E"/>
<path d="M110.825 209.884H106.517V181.468H110.741V188.029C113.713 183.531 117.01 180.66 122.282 180.877V185.304C113.737 186.908 110.813 190.538 110.813 199.415C110.825 202.804 110.825 206.254 110.825 209.884Z" fill="#7D888E"/>
<path d="M148.721 169.636V186.16C141.212 179.417 134.424 178.923 128.671 184.266C122.92 189.609 122.413 199.223 127.276 205.482C129.222 208.008 132.028 209.725 135.158 210.307C140.609 211.405 144.882 209.27 148.697 204.53V209.8H152.825V169.623H148.721V169.636ZM138.383 206.676C132.764 206.544 128.407 201.562 128.528 195.374C128.648 189.187 132.848 184.519 138.552 184.592C144.257 184.664 148.841 189.573 148.757 195.845C148.709 201.815 143.931 206.797 138.395 206.676H138.383Z" fill="#7D888E"/>
<path d="M99.0672 189.911C98.8145 185.557 96.1432 182.674 91.9792 181.552C86.8556 180.249 81.4331 180.88 76.7442 183.325L77.9473 186.859C82.9897 184.977 85.6608 184.604 88.9585 185.014C92.6653 185.484 95.9506 189.03 94.6869 193.239L93.3875 192.962C88.5735 192.058 83.8196 191.527 79.2346 193.65C74.9078 195.488 72.8883 200.493 74.7223 204.829C75.3676 206.355 76.4418 207.658 77.8145 208.581C80.21 210.183 83.0845 210.903 85.9501 210.62C89.4053 210.355 92.6334 208.792 94.9876 206.242L95.1923 209.86H99.1998C99.1998 209.221 99.3557 208.654 99.3436 208.195C99.308 202.081 99.4282 195.941 99.0672 189.911ZM90.8478 205.88C87.3223 207.581 83.724 207.833 80.4145 205.374C78.2308 203.588 77.9056 200.366 79.6867 198.178C80.0124 197.779 80.395 197.432 80.8231 197.147C84.8485 195.284 89.4245 194.995 93.6515 196.339C94.3692 196.669 94.8898 197.316 95.0598 198.088C95.6726 201.345 93.9181 204.585 90.8597 205.844L90.8478 205.88Z" fill="#7D888E"/>
<path d="M173.716 180.599C165.41 180.461 158.563 187.098 158.425 195.423C158.287 203.748 164.909 210.611 173.216 210.749C181.516 210.887 188.359 204.26 188.506 195.941V195.845C188.661 187.6 182.117 180.79 173.889 180.636C173.884 180.636 173.878 180.635 173.873 180.635L173.716 180.599ZM173.716 206.76C167.856 206.76 163.21 201.803 163.234 195.507C163.258 189.211 167.723 184.519 173.668 184.567C179.613 184.616 184.102 189.489 184.102 195.652C184.102 201.815 179.541 206.737 173.704 206.76H173.716Z" fill="#7D888E"/>
</g>
<defs>
<clipPath id="clip0_2185_3872">
<rect width="194" height="137.619" fill="white" transform="translate(28 32)"/>
</clipPath>
<clipPath id="clip1_2185_3872">
<rect width="166.517" height="49.381" fill="white" transform="translate(41.7417 169.619)"/>
</clipPath>
</defs>
</svg>
