<svg width="250" height="250" viewBox="0 0 250 250" fill="none" xmlns="http://www.w3.org/2000/svg">
<path d="M204.488 35.875H48.0697C35.2715 35.875 24.8966 46.1725 24.8966 58.875V191.125C24.8966 203.828 35.2715 214.125 48.0697 214.125H204.488C217.286 214.125 227.661 203.828 227.661 191.125V58.875C227.661 46.1725 217.286 35.875 204.488 35.875Z" fill="#5F5CFF" stroke="#5F5CFF"/>
<path fill-rule="evenodd" clip-rule="evenodd" d="M126.175 67.5L161.038 102.687L154.803 110.66L126.003 188.25L108.846 134.084L91.5192 102.262L126.175 67.5ZM146.19 120.998L128.405 142.862L128.405 168.913L146.19 120.998ZM127.455 75.1763L113.319 133.407L123.932 166.9L123.936 141.244L155.031 103.012L127.455 75.1763ZM122.206 77.8442L97.0599 103.068L110.22 127.237L122.206 77.8442Z" fill="white"/>
</svg>
