<svg width="250" height="250" viewBox="0 0 250 250" fill="none" xmlns="http://www.w3.org/2000/svg">
<path fill-rule="evenodd" clip-rule="evenodd" d="M223.022 93.098C222.251 91.9794 220.967 91.4056 219.673 91.4056H145.97L182.723 32.8988C183.669 31.3964 183.722 29.3399 182.573 27.6911C181.794 26.5712 180.497 26 179.197 26H115.729C109.357 26 103.403 29.4032 99.8336 35.0846L27.704 149.914C26.7604 151.417 26.7207 153.474 27.8575 155.123C28.6277 156.24 29.9115 156.813 31.2071 156.813H104.873L68.1163 215.334C67.4545 216.389 67.2521 217.717 67.5538 218.984C68.0183 220.945 69.7626 222.233 71.6432 222.233H135.074C141.494 222.233 147.493 218.803 151.087 213.08L186.422 156.813H186.423L223.173 98.3058C224.118 96.8033 224.158 94.7442 223.022 93.098Z" fill="#4E48E0"/>
<path fill-rule="evenodd" clip-rule="evenodd" d="M186.43 156.8L151.088 213.078C147.493 218.803 141.493 222.232 135.074 222.232H71.6435C69.7629 222.232 68.0187 220.945 67.5541 218.984C67.2524 217.718 67.4549 216.389 68.1166 215.334L104.88 156.8H186.43Z" fill="#4E48E0"/>
<path fill-rule="evenodd" clip-rule="evenodd" d="M145.922 91.4055H219.673C220.967 91.4055 222.251 91.9793 223.022 93.0966C224.159 94.7441 224.117 96.8019 223.175 98.3057L186.424 156.812H104.843L145.922 91.4055Z" fill="#1C81C1"/>
<path fill-rule="evenodd" clip-rule="evenodd" d="M31.2068 156.813C29.9125 156.813 28.6287 156.24 27.8585 155.123C26.7203 153.474 26.7601 151.417 27.705 149.915L99.8346 35.0846C103.403 29.4032 109.358 26 115.729 26H179.197C180.496 26 181.795 26.5725 182.574 27.6911C183.722 29.3399 183.669 31.3964 182.724 32.9001L104.881 156.813H31.2068Z" fill="#5CC4CD"/>
</svg>
