<svg width="250" height="250" viewBox="0 0 250 250" fill="none" xmlns="http://www.w3.org/2000/svg">
<path d="M125.349 194.323C115.464 194.08 107.31 189.689 102.102 180.522C96.7651 171.047 96.9976 161.347 102.688 152.106C116.236 130.112 129.961 108.24 143.602 86.3123C146.391 81.8275 149.116 77.2771 152.035 72.8765C155.911 66.8576 161.968 62.6001 168.915 61.0104C175.862 59.4207 183.151 60.6246 189.229 64.3656C202.071 72.3335 206.367 88.9059 198.37 101.967C182.023 128.776 165.444 155.455 148.632 182.002C143.453 190.213 135.596 194.173 125.349 194.323Z" fill="#FFCB00"/>
<path d="M40.4535 194.323C30.4762 194.08 22.3679 189.492 17.263 180.363C12.0001 170.888 12.3348 161.169 18.0441 151.928C32.6179 128.383 47.2569 104.873 61.9609 81.3968C63.8206 78.3632 65.6803 75.2547 67.6702 72.3147C71.7052 66.4265 77.8577 62.3507 84.825 60.9502C91.7922 59.5496 99.0273 60.9344 104.998 64.8113C110.969 68.6881 115.208 74.7527 116.816 81.721C118.424 88.6893 117.276 96.0143 113.614 102.145C97.3231 128.633 80.8089 155.027 64.2855 181.393C58.9203 189.941 51.0258 194.173 40.4535 194.323Z" fill="#FF3D57"/>
<path d="M210.793 140.636C225.828 140.711 238 152.742 237.972 167.498C237.972 182.479 225.475 194.557 210.3 194.37C195.125 194.183 183.167 182.282 183.185 167.461C183.204 152.424 195.422 140.542 210.793 140.636Z" fill="#00D647"/>
</svg>
