<svg width="250" height="250" viewBox="0 0 250 250" fill="none" xmlns="http://www.w3.org/2000/svg">
<path d="M124.599 124.412C151.723 124.412 173.713 102.605 173.713 75.7061C173.713 48.8065 151.723 27 124.599 27C97.4735 27 75.4842 48.8065 75.4842 75.7061C75.4842 102.605 97.4735 124.412 124.599 124.412Z" fill="url(#paint0_linear_3464_20802)"/>
<path d="M120.466 221.551C88.4586 201.029 61.6941 173.392 42.6554 140.557C41.2758 137.82 42.1035 134.536 44.8628 133.168H45.1387L82.3883 115.109C84.8717 113.741 88.1827 114.836 89.5623 117.298C108.325 148.492 136.193 173.666 169.58 188.989C157.164 201.302 143.643 212.248 129.019 221.551C126.26 222.919 122.949 222.919 120.466 221.551Z" fill="url(#paint1_linear_3464_20802)"/>
<path d="M128.739 221.551C161.022 201.302 187.511 173.392 206.825 140.831C208.204 138.094 207.377 134.811 204.618 133.443H204.342L167.092 115.383C164.608 114.014 161.298 115.109 159.918 117.572C141.155 148.766 113.287 173.94 79.9004 189.263C92.041 201.576 105.837 212.522 120.461 221.824C122.944 222.919 126.255 222.919 128.739 221.551Z" fill="#2684FF"/>
<defs>
<linearGradient id="paint0_linear_3464_20802" x1="124.662" y1="43.2268" x2="124.662" y2="143.457" gradientUnits="userSpaceOnUse">
<stop stop-color="#2684FF"/>
<stop offset="0.82" stop-color="#0052CC"/>
</linearGradient>
<linearGradient id="paint1_linear_3464_20802" x1="94.3402" y1="140.653" x2="127.738" y2="211.138" gradientUnits="userSpaceOnUse">
<stop stop-color="#2684FF"/>
<stop offset="0.62" stop-color="#0052CC"/>
</linearGradient>
</defs>
</svg>
