<svg width="250" height="250" viewBox="0 0 250 250" fill="none" xmlns="http://www.w3.org/2000/svg">
<path fill-rule="evenodd" clip-rule="evenodd" d="M53.4542 177.907C42.3211 193.01 33.7172 215.263 42.6338 221.968C55.214 231.429 112.415 205.251 158.116 148.858C203.817 92.4638 218.951 34.3055 198.628 25.3628C189.259 21.2404 169.683 34.3548 158.446 45.2437L163.296 47.8518C174.356 40.7712 192.794 33.4554 175.746 64.2572L175.5 64.6986C151.366 46.369 117.818 42.5951 89.3181 57.783C50.2713 78.5916 35.4864 127.114 56.295 166.161C61.1922 175.35 67.624 183.196 75.1059 189.55C45.558 212.377 52.7645 192.535 56.8998 182.771L53.4542 177.907ZM164.672 199.186C194.432 183.326 210.099 151.367 206.654 119.775C195.688 128.785 184.869 139.041 174.512 150.419C157.362 169.262 143.394 189.078 133.035 208.391C143.785 207.584 154.547 204.581 164.672 199.186Z" fill="black"/>
</svg>
