<svg width="250" height="250" viewBox="0 0 250 250" fill="none" xmlns="http://www.w3.org/2000/svg">
<g clip-path="url(#clip0_2185_3928)">
<path d="M192.726 157.274C175.985 140.548 153.722 131.065 130.595 129.34C132.149 152.446 141.813 174.689 158.554 191.415C175.295 208.14 196.868 217.624 220.685 219.348C219.131 196.243 209.467 173.999 192.726 157.274ZM57.4196 157.274C74.1603 140.548 96.4237 131.065 119.55 129.34C117.997 152.446 108.332 174.689 91.5914 191.415C75.7136 208.14 53.2776 217.624 29.4609 219.348C31.1868 196.243 40.6789 173.999 57.4196 157.274ZM57.4196 91.2335C74.1603 107.959 96.4237 117.443 119.55 119.167C117.997 96.0616 108.332 73.8182 91.5914 57.0926C74.8507 40.3671 52.5873 30.8834 29.4609 29.1591C31.1868 52.9543 40.6789 75.3701 57.4196 91.2335ZM192.726 91.2335C175.985 107.959 153.722 117.443 129.733 119.167C131.286 96.0616 140.951 73.8182 157.691 57.0926C175.295 40.3671 196.868 30.711 220.685 29.1591C219.131 52.9543 209.467 75.3701 192.726 91.2335Z" fill="#6B5AED"/>
</g>
<defs>
<clipPath id="clip0_2185_3928">
<rect width="192" height="191" fill="white" transform="translate(29 29)"/>
</clipPath>
</defs>
</svg>
