<svg width="250" height="250" viewBox="0 0 250 250" fill="none" xmlns="http://www.w3.org/2000/svg">
<g clip-path="url(#clip0_1789_6907)">
<path d="M99.243 72.5944L120.882 110.07C124.414 109.126 128.167 109.461 131.477 111.015L142.852 91.3131L123.839 58.3892L99.0202 72.7217H99.0217L99.243 72.5944ZM66.6237 121.073H109.91C110.255 119.757 110.773 118.492 111.45 117.311C112.587 115.341 114.145 113.648 116.013 112.351L104.64 92.6552H66.6123V121.318H66.6237V121.073ZM138.363 132.85C137.227 134.815 135.672 136.506 133.808 137.802L145.191 157.514H183.208V129.1H139.905C139.554 130.411 139.036 131.672 138.363 132.85V132.85ZM135.878 114.099C138.47 116.683 140.064 120.1 140.379 123.746H163.122L182.136 90.8205L157.529 76.61L135.879 114.099H135.878ZM92.287 173.563L113.938 136.058C111.358 133.474 109.767 130.066 109.441 126.429H86.686L67.6725 159.338L92.4848 173.68L92.287 173.563ZM150.579 177.568L128.945 140.091C125.411 141.045 121.654 140.713 118.343 139.152L106.964 158.86L125.966 191.776L150.786 177.449L150.579 177.568Z" fill="#ED7D1A"/>
<path d="M124.916 28.1765C71.4772 28.1765 28 71.6424 28 125.073C28 178.518 71.4772 222 124.916 222C178.35 222 221.817 178.518 221.817 125.073C221.818 71.6424 178.35 28.1765 124.917 28.1765H124.916ZM124.916 47.7963C167.596 47.7963 202.195 82.3904 202.195 125.073C202.195 167.766 167.596 202.379 124.916 202.379C82.2298 202.379 47.6251 167.766 47.6251 125.073C47.6251 82.3904 82.2298 47.7955 124.916 47.7955V47.7963Z" fill="#5282B0"/>
</g>
<defs>
<clipPath id="clip0_1789_6907">
<rect width="194" height="194" fill="white" transform="translate(28 28)"/>
</clipPath>
</defs>
</svg>
