<svg width="250" height="250" viewBox="0 0 250 250" fill="none" xmlns="http://www.w3.org/2000/svg">
<g clip-path="url(#clip0_1789_6891)">
<path d="M164.791 136.959C156.066 136.959 148.244 140.819 142.887 146.896L129.161 137.193C130.618 133.187 131.455 128.885 131.455 124.383C131.455 119.959 130.647 115.729 129.238 111.783L142.934 102.182C148.29 108.229 156.092 112.068 164.791 112.068C180.896 112.068 194 98.9845 194 82.9006C194 66.8167 180.896 53.7334 164.791 53.7334C148.687 53.7334 135.583 66.8167 135.583 82.9006C135.583 85.7794 136.018 88.5555 136.8 91.1845L123.095 100.79C117.371 93.6978 109.128 88.746 99.7363 87.2345V70.741C112.967 67.966 122.936 56.2273 122.936 42.2008C122.936 26.117 109.832 13.0336 93.7274 13.0336C77.6229 13.0336 64.5188 26.117 64.5188 42.2008C64.5188 56.0394 74.2295 67.6333 87.1955 70.6064V87.3141C69.5003 90.4158 56 105.837 56 124.383C56 143.02 69.634 158.497 87.457 161.493V179.136C74.3583 182.011 64.5188 193.676 64.5188 207.609C64.5188 223.692 77.6229 236.776 93.7274 236.776C109.832 236.776 122.936 223.692 122.936 207.609C122.936 193.676 113.096 182.011 99.9977 179.136V161.493C109.019 159.976 117.18 155.236 122.962 148.156L136.78 157.922C136.013 160.528 135.583 163.276 135.583 166.126C135.583 182.21 148.687 195.293 164.791 195.293C180.896 195.293 194 182.21 194 166.126C194 150.042 180.896 136.959 164.791 136.959ZM164.791 68.7589C172.601 68.7589 178.953 75.1044 178.953 82.9006C178.953 90.6968 172.601 97.0417 164.791 97.0417C156.982 97.0417 150.63 90.6968 150.63 82.9006C150.63 75.1044 156.982 68.7589 164.791 68.7589ZM79.5657 42.2008C79.5657 34.4046 85.918 28.0597 93.7274 28.0597C101.537 28.0597 107.889 34.4046 107.889 42.2008C107.889 49.997 101.537 56.342 93.7274 56.342C85.918 56.342 79.5657 49.997 79.5657 42.2008ZM107.889 207.609C107.889 215.405 101.537 221.75 93.7274 221.75C85.918 221.75 79.5657 215.405 79.5657 207.609C79.5657 199.812 85.918 193.467 93.7274 193.467C101.537 193.467 107.889 199.812 107.889 207.609ZM93.7263 144.105C82.8345 144.105 73.974 135.259 73.974 124.383C73.974 113.507 82.8345 104.659 93.7263 104.659C104.618 104.659 113.478 113.507 113.478 124.383C113.478 135.259 104.618 144.105 93.7263 144.105ZM164.791 180.268C156.982 180.268 150.63 173.922 150.63 166.126C150.63 158.33 156.982 151.985 164.791 151.985C172.601 151.985 178.953 158.33 178.953 166.126C178.953 173.922 172.601 180.268 164.791 180.268Z" fill="black"/>
</g>
<defs>
<clipPath id="clip0_1789_6891">
<rect width="138" height="224" fill="white" transform="translate(56 13)"/>
</clipPath>
</defs>
</svg>
