<svg width="250" height="250" viewBox="0 0 250 250" fill="none" xmlns="http://www.w3.org/2000/svg">
<path d="M198.728 123.972C204.674 120.339 209.611 115.281 213.087 109.261C216.563 103.241 218.468 96.4493 218.628 89.5078V81.3884C218.628 47.4721 195.182 30 152.387 30H79.364C78.7764 29.9999 78.2123 30.2298 77.7936 30.6401C77.3749 31.0503 77.1352 31.6079 77.1261 32.1926V93.8586C77.1352 94.4433 77.3749 95.0009 77.7936 95.4111C78.2123 95.8214 78.7764 96.0513 79.364 96.0512H114.722C115.31 96.0513 115.874 95.8214 116.292 95.4111C116.711 95.0009 116.951 94.4433 116.96 93.8586V63.0256C116.96 62.4441 117.192 61.8864 117.605 61.4752C118.019 61.064 118.579 60.833 119.163 60.833H152.938C170.669 60.833 178.553 67.0682 178.553 84.8143V87.5207C178.553 104.65 170.91 112.187 159.479 112.187H39.2891C38.8346 112.19 38.3915 112.329 38.0171 112.586C37.6427 112.842 37.3543 113.205 37.189 113.626L28.1343 137.573C28.0125 137.904 27.9727 138.259 28.0183 138.609C28.064 138.959 28.1936 139.292 28.3963 139.581C28.599 139.87 28.8688 140.107 29.1828 140.27C29.4968 140.433 29.8457 140.519 30.2 140.519H161.924C175.695 140.519 183.201 149.461 183.201 163.027V168.201C183.201 180.671 176.108 189.612 159.101 189.612H119.163C118.865 189.613 118.57 189.553 118.296 189.436C118.021 189.32 117.774 189.149 117.568 188.934C117.362 188.72 117.202 188.466 117.097 188.188C116.993 187.91 116.946 187.613 116.96 187.317V158.882C116.96 158.291 116.724 157.725 116.305 157.307C115.885 156.89 115.316 156.655 114.722 156.655H79.364C78.7705 156.655 78.2013 156.89 77.7816 157.307C77.3619 157.725 77.1261 158.291 77.1261 158.882V217.807C77.1352 218.392 77.3749 218.95 77.7936 219.36C78.2123 219.77 78.7764 220 79.364 220H159.755C203.1 220 223 199.445 223 171.181V161.691C222.993 153.755 220.703 145.986 216.402 139.303C212.101 132.619 205.969 127.3 198.728 123.972Z" fill="#546AE4"/>
</svg>
