<svg width="250" height="250" viewBox="0 0 250 250" fill="none" xmlns="http://www.w3.org/2000/svg">
<g clip-path="url(#clip0_1789_7009)">
<path d="M124.895 195.728C85.8913 195.728 54.272 164.108 54.272 125.105C54.272 86.1017 85.8913 54.4832 124.895 54.4832C163.898 54.4832 195.517 86.1017 195.517 125.105C195.517 164.108 163.898 195.728 124.895 195.728ZM124.895 29.2104C71.9338 29.2104 29 72.145 29 125.105C29 178.067 71.9338 221 124.895 221C177.855 221 220.789 178.067 220.789 125.105C220.789 72.145 177.855 29.2104 124.894 29.2104H124.895Z" fill="#CF272D"/>
<path d="M128.837 101.222C128.837 90.2109 137.764 81.2837 148.776 81.2837C159.789 81.2837 168.715 90.2109 168.715 101.222C168.715 112.235 159.789 121.162 148.776 121.162C137.764 121.162 128.837 112.235 128.837 101.222ZM128.837 148.987C128.837 137.975 137.764 129.047 148.776 129.047C159.789 129.047 168.715 137.975 168.715 148.987C168.715 159.999 159.789 168.926 148.776 168.926C137.764 168.926 128.837 159.999 128.837 148.987ZM81.0732 148.987C81.0732 137.975 90.0012 129.047 101.013 129.047C112.025 129.047 120.952 137.975 120.952 148.987C120.952 159.999 112.025 168.926 101.013 168.926C90.0012 168.926 81.0732 159.999 81.0732 148.987ZM81.0732 101.223C81.0732 90.2109 90.0012 81.2844 101.013 81.2844C112.025 81.2844 120.952 90.2109 120.952 101.223C120.952 112.236 112.025 121.163 101.013 121.163C90.0012 121.163 81.0732 112.236 81.0732 101.223Z" fill="#CF272D"/>
</g>
<defs>
<clipPath id="clip0_1789_7009">
<rect width="192" height="192" fill="white" transform="translate(29 29)"/>
</clipPath>
</defs>
</svg>
