<svg width="250" height="250" viewBox="0 0 250 250" fill="none" xmlns="http://www.w3.org/2000/svg">
<g clip-path="url(#clip0_3464_20738)">
<path fill-rule="evenodd" clip-rule="evenodd" d="M31.521 68.9497H218.479V185.798H31.521V68.9497Z" fill="#DDEEFF"/>
<path fill-rule="evenodd" clip-rule="evenodd" d="M218.479 68.9497H31.521V45.5409C31.521 36.958 38.5089 30 47.1393 30H202.861C211.486 30 218.479 36.9496 218.479 45.5409V68.9497Z" fill="#BBDDFF"/>
<path fill-rule="evenodd" clip-rule="evenodd" d="M78.2605 57.265C73.9583 57.265 70.4707 53.7771 70.4707 49.4749C70.4707 45.1726 73.9579 41.6851 78.2605 41.6851C82.5631 41.6851 86.0503 45.1726 86.0503 49.4749C86.0503 53.7771 82.5631 57.265 78.2605 57.265ZM50.9957 57.265C46.6935 57.265 43.2059 53.7771 43.2059 49.4749C43.2059 45.1726 46.6935 41.6851 50.9957 41.6851C55.2979 41.6851 58.7859 45.1726 58.7859 49.4749C58.7859 53.7771 55.2979 57.265 50.9957 57.265Z" fill="white"/>
<path fill-rule="evenodd" clip-rule="evenodd" d="M62.6806 185.798H31.521C31.521 161.875 40.6476 137.951 58.9001 119.699C95.4062 83.1929 154.594 83.1929 191.1 119.699L169.067 141.732C157.789 130.455 142.209 123.479 125 123.479C90.5818 123.479 62.6806 151.38 62.6806 185.798Z" fill="#0066FF"/>
<path fill-rule="evenodd" clip-rule="evenodd" d="M187.319 185.799H218.479C218.479 161.875 209.352 137.952 191.1 119.699L169.067 141.732C180.344 153.01 187.319 168.589 187.319 185.799Z" fill="#CC66FF"/>
<path fill-rule="evenodd" clip-rule="evenodd" d="M102.967 207.832C90.798 195.663 90.798 175.934 102.967 163.765C115.135 151.597 182.837 127.961 182.837 127.961C182.837 127.961 159.202 195.663 147.033 207.832C134.865 220 115.135 220 102.967 207.832Z" fill="#66CCFF"/>
<path fill-rule="evenodd" clip-rule="evenodd" d="M125 201.378C116.396 201.378 109.42 194.403 109.42 185.798C109.42 177.194 116.396 170.218 125 170.218C133.604 170.218 140.58 177.194 140.58 185.798C140.58 194.403 133.604 201.378 125 201.378Z" fill="#0066FF"/>
</g>
<defs>
<clipPath id="clip0_3464_20738">
<rect width="190" height="190" fill="white" transform="translate(30 30)"/>
</clipPath>
</defs>
</svg>
