<svg width="250" height="250" viewBox="0 0 250 250" fill="none" xmlns="http://www.w3.org/2000/svg">
<g clip-path="url(#clip0_2112_5075)">
<path d="M201.052 30H38.974C33.4882 30 29 34.5237 29 40.053V58.1481C29 63.6773 33.4882 68.201 38.974 68.201H200.553C206.039 68.201 210.527 63.6773 210.527 58.1481V40.053C211.026 34.5237 206.538 30 201.052 30ZM201.052 131.032H38.974C33.4882 131.032 29 135.555 29 141.085V159.18C29 164.709 33.4882 169.233 38.974 169.233H200.553C206.039 169.233 210.527 164.709 210.527 159.18V141.085C211.026 135.555 206.538 131.032 201.052 131.032ZM130.236 181.799H38.974C33.4882 181.799 29 186.323 29 191.852V209.947C29 215.476 33.4882 220 38.974 220H130.236C135.722 220 140.21 215.476 140.21 209.947V191.852C140.21 186.323 135.722 181.799 130.236 181.799ZM211.026 80.7672H38.974C33.4882 80.7672 29 85.2909 29 90.8199V108.915C29 114.444 33.4882 118.968 38.974 118.968H211.026C216.512 118.968 221 114.444 221 108.915V90.8199C221 85.2909 216.512 80.7672 211.026 80.7672Z" fill="#0BA4DB"/>
</g>
<defs>
<clipPath id="clip0_2112_5075">
<rect width="192" height="190" fill="white" transform="translate(29 30)"/>
</clipPath>
</defs>
</svg>
