<svg width="250" height="250" viewBox="0 0 250 250" fill="none" xmlns="http://www.w3.org/2000/svg">
<g clip-path="url(#clip0_3464_20758)">
<path d="M48.5478 42.1277C45.8599 44.3264 45.3167 48.0775 47.0302 51.0924C51.386 58.7566 56.3624 66.0661 61.5888 73.1642C70.6972 85.5342 89.5752 106.086 106.882 117.646C121.55 108.684 135.031 104.763 149.842 100.693C127.633 87.9967 108.44 70.5679 93.2953 49.9993C89.2504 44.506 85.4111 38.8257 81.9795 32.9292C80.2729 29.9968 76.976 28.3507 73.693 29.2421C70.2375 30.1803 65.4798 31.7744 60.3769 34.3836C55.3385 36.9599 51.314 39.8651 48.5478 42.1277Z" fill="url(#paint0_linear_3464_20758)"/>
<path d="M157.023 110.917C139.958 114.994 123.792 121.167 109.211 130.36C88.5267 143.401 72.3169 162.067 61.5881 176.638C56.1284 184.053 51.8687 190.71 48.9531 195.55C48.4131 196.446 47.716 197.654 47.0253 198.868C45.3446 201.821 45.7177 205.501 48.2371 207.788C50.9834 210.28 55.0206 213.474 59.9223 215.967C64.9655 218.531 70.1302 220.012 73.8428 220.834C77.0651 221.548 80.2253 219.895 81.8772 217.048C85.335 211.088 89.2096 205.35 93.2946 199.803C102.704 187.024 115.491 172.755 130.241 163.455C144.882 154.224 162.505 149.323 177.249 146.835C183.236 145.824 189.295 145.024 195.365 144.744C199.125 144.571 202.314 141.921 202.862 138.213C203.409 134.51 203.954 129.634 203.954 124.9C203.954 120.275 203.434 115.515 202.9 111.846C202.342 108.016 198.983 105.32 195.099 105.324C182.222 105.338 169.495 107.937 157.023 110.917Z" fill="#080808"/>
</g>
<defs>
<linearGradient id="paint0_linear_3464_20758" x1="208.033" y1="58.613" x2="42.4716" y2="199.745" gradientUnits="userSpaceOnUse">
<stop stop-color="#080808"/>
<stop offset="1" stop-color="#080808" stop-opacity="0"/>
</linearGradient>
<clipPath id="clip0_3464_20758">
<rect width="158" height="192" fill="white" transform="translate(46 29)"/>
</clipPath>
</defs>
</svg>
