<svg width="30" height="31" viewBox="0 0 30 31" fill="none" xmlns="http://www.w3.org/2000/svg">
<path d="M1.875 8.75H28.125V29.375H1.875V8.75Z" fill="#C0C3D9"/>
<path d="M27.75 9.125V29H2.25V9.125H27.75ZM28.5 8.375H1.5V29.75H28.5V8.375Z" fill="#989DBF"/>
<path d="M16.125 16.625H24.375V29.375H16.125V16.625Z" fill="#C0C3D9"/>
<path d="M24 17V29H16.5V17H24ZM24.75 16.25H15.75V29.75H24.75V16.25Z" fill="#989DBF"/>
<path d="M5.625 16.625H12.375V22.625H5.625V16.625Z" fill="#989DBF"/>
<path d="M12 17V22.25H6V17H12ZM12.75 16.25H5.25V23H12.75V16.25Z" fill="#C0C3D9"/>
<path d="M27 14.375C25.5525 14.375 24.375 13.1975 24.375 11.75C24.375 11.543 24.207 11.375 24 11.375C23.793 11.375 23.625 11.543 23.625 11.75C23.625 13.1975 22.4475 14.375 21 14.375C19.5525 14.375 18.375 13.1975 18.375 11.75C18.375 11.543 18.207 11.375 18 11.375C17.793 11.375 17.625 11.543 17.625 11.75C17.625 13.1975 16.4475 14.375 15 14.375C13.5525 14.375 12.375 13.1975 12.375 11.75C12.375 11.543 12.207 11.375 12 11.375C11.793 11.375 11.625 11.543 11.625 11.75C11.625 13.1975 10.4475 14.375 9 14.375C7.5525 14.375 6.375 13.1975 6.375 11.75C6.375 11.543 6.207 11.375 6 11.375C5.793 11.375 5.625 11.543 5.625 11.75C5.625 13.1975 4.4475 14.375 3 14.375C2.9145 14.375 2.82825 14.3712 2.74125 14.363C1.4145 14.2355 0.375 13.0317 0.375 11.621V8.8445L2.58 4.748C2.60925 4.69325 2.625 4.6325 2.625 4.57025V2.75C2.625 2.12975 3.12975 1.625 3.75 1.625H26.25C26.8703 1.625 27.375 2.12975 27.375 2.75V4.57025C27.375 4.6325 27.3908 4.69325 27.42 4.748L29.625 8.8445V11.621C29.625 13.0317 28.5855 14.2355 27.2588 14.363C27.1718 14.3712 27.0855 14.375 27 14.375Z" fill="#989DBF"/>
<path d="M26.25 2C26.6632 2 27 2.33675 27 2.75V4.57025C27 4.694 27.0308 4.81625 27.0892 4.92575L29.25 8.939V11.621C29.25 12.8405 28.3598 13.8807 27.2235 13.9895C27.1485 13.9963 27.0735 14 27 14C25.7595 14 24.75 12.9905 24.75 11.75C24.75 11.336 24.414 11 24 11C23.586 11 23.25 11.336 23.25 11.75C23.25 12.9905 22.2405 14 21 14C19.7595 14 18.75 12.9905 18.75 11.75C18.75 11.336 18.414 11 18 11C17.586 11 17.25 11.336 17.25 11.75C17.25 12.9905 16.2405 14 15 14C13.7595 14 12.75 12.9905 12.75 11.75C12.75 11.336 12.414 11 12 11C11.586 11 11.25 11.336 11.25 11.75C11.25 12.9905 10.2405 14 9 14C7.7595 14 6.75 12.9905 6.75 11.75C6.75 11.336 6.414 11 6 11C5.586 11 5.25 11.336 5.25 11.75C5.25 12.9905 4.2405 14 3 14C2.9265 14 2.8515 13.9963 2.7765 13.9895C1.64025 13.8807 0.75 12.8405 0.75 11.621V8.939L2.91075 4.92575C2.96925 4.817 3 4.69475 3 4.57025V2.75C3 2.33675 3.33675 2 3.75 2H26.25ZM26.25 1.25H3.75C2.92125 1.25 2.25 1.92125 2.25 2.75V4.57025L0 8.75V11.621C0 13.1877 1.14525 14.5873 2.70525 14.7358C2.80425 14.7455 2.90325 14.75 3 14.75C4.65675 14.75 6 13.4067 6 11.75C6 13.4067 7.34325 14.75 9 14.75C10.6567 14.75 12 13.4067 12 11.75C12 13.4067 13.3433 14.75 15 14.75C16.6567 14.75 18 13.4067 18 11.75C18 13.4067 19.3433 14.75 21 14.75C22.6567 14.75 24 13.4067 24 11.75C24 13.4067 25.3433 14.75 27 14.75C27.0975 14.75 27.1958 14.7455 27.2948 14.7358C28.8548 14.5873 30 13.1877 30 11.621V8.75L27.75 4.57025V2.75C27.75 1.92125 27.0788 1.25 26.25 1.25Z" fill="#E6E7EF"/>
<path d="M2.25 4.25H27.75V5H2.25V4.25Z" fill="#989DBF"/>
<path d="M0.851562 8.75H29.1476L27.1293 5H2.86981L0.851562 8.75Z" fill="#C0C3D9"/>
<path d="M0 8.75H30V9.5H0V8.75ZM22.125 22.25C21.9261 22.25 21.7353 22.329 21.5947 22.4697C21.454 22.6103 21.375 22.8011 21.375 23C21.375 23.1989 21.454 23.3897 21.5947 23.5303C21.7353 23.671 21.9261 23.75 22.125 23.75C22.3239 23.75 22.5147 23.671 22.6553 23.5303C22.796 23.3897 22.875 23.1989 22.875 23C22.875 22.8011 22.796 22.6103 22.6553 22.4697C22.5147 22.329 22.3239 22.25 22.125 22.25Z" fill="#989DBF"/>
</svg>
