<svg width="30" height="31" viewBox="0 0 30 31" fill="none" xmlns="http://www.w3.org/2000/svg">
<path d="M12.375 21.875H17.625V26.375H12.375V21.875Z" fill="#CBC8FF"/>
<path d="M17.25 22.25V26H12.75V22.25H17.25ZM18 21.5H12V26.75H18V21.5Z" fill="#A6A4FF"/>
<path d="M1.125 3.875H28.875V23.375H1.125V3.875Z" fill="white"/>
<path d="M28.5 4.25V23H1.5V4.25H28.5ZM29.25 3.5H0.75V23.75H29.25V3.5Z" fill="#A6A4FF"/>
<path d="M1.125 20.375H28.875V23.375H1.125V20.375Z" fill="#CBC8FF"/>
<path d="M28.5 20.75V23H1.5V20.75H28.5ZM29.25 20H0.75V23.75H29.25V20Z" fill="#A6A4FF"/>
<path d="M7.125 27.875V27.5C7.125 26.4665 7.9665 25.625 9 25.625H21C22.0335 25.625 22.875 26.4665 22.875 27.5V27.875H7.125Z" fill="#CBC8FF"/>
<path d="M21 26C21.8273 26 22.5 26.6727 22.5 27.5H7.5C7.5 26.6727 8.17275 26 9 26H21ZM21 25.25H9C7.75725 25.25 6.75 26.2573 6.75 27.5V28.25H23.25V27.5C23.25 26.2573 22.2428 25.25 21 25.25Z" fill="#A6A4FF"/>
<path d="M27.375 22.25H25.875C25.668 22.25 25.5 22.082 25.5 21.875C25.5 21.668 25.668 21.5 25.875 21.5H27.375C27.582 21.5 27.75 21.668 27.75 21.875C27.75 22.082 27.582 22.25 27.375 22.25Z" fill="white"/>
<path d="M14.9997 17.3452C14.2077 16.9995 10.223 14.9295 10.127 8.24695L15.0005 6.1582L19.874 8.24695C19.7772 14.91 15.764 17.0062 14.9997 17.3452Z" fill="#EAE9FF"/>
<path d="M15 6.566L19.4925 8.49125C19.3162 14.4358 15.9698 16.4683 15.0023 16.9325C14.0295 16.4592 10.683 14.4042 10.5067 8.49125L15 6.566ZM15 5.75L9.75 8C9.75 15.845 15 17.75 15 17.75C15 17.75 20.25 15.8855 20.25 8L15 5.75Z" fill="#A6A4FF"/>
<path d="M14.9992 8.19824L12.0742 9.45149C12.4365 12.8197 14.0242 14.4705 15.0082 15.1837C15.9772 14.4832 17.5642 12.8407 17.925 9.45149L14.9992 8.19824Z" fill="#CBC8FF"/>
</svg>
