<svg width="30" height="31" viewBox="0 0 30 31" fill="none" xmlns="http://www.w3.org/2000/svg">
<path d="M10.875 6.125H19.125V29.375H10.875V6.125Z" fill="#F0EFFF"/>
<path d="M18.75 6.5V29H11.25V6.5H18.75ZM19.5 5.75H10.5V29.75H19.5V5.75Z" fill="#A6A4FF"/>
<path d="M10.875 8.75H19.125V9.5H10.875V8.75ZM10.875 26H19.125V26.75H10.875V26ZM15 12.5C14.586 12.5 14.25 12.836 14.25 13.25V22.25C14.25 22.664 14.586 23 15 23C15.414 23 15.75 22.664 15.75 22.25V13.25C15.75 12.836 15.414 12.5 15 12.5Z" fill="#A6A4FF"/>
<path d="M20.625 1.625H28.875V29.375H20.625V1.625Z" fill="#CBC8FF"/>
<path d="M28.5 2V29H21V2H28.5ZM29.25 1.25H20.25V29.75H29.25V1.25Z" fill="#A6A4FF"/>
<path d="M20.625 4.25H28.875V5H20.625V4.25ZM20.625 26H28.875V26.75H20.625V26ZM24.75 8.75C24.336 8.75 24 9.086 24 9.5V21.5C24 21.914 24.336 22.25 24.75 22.25C25.164 22.25 25.5 21.914 25.5 21.5V9.5C25.5 9.086 25.164 8.75 24.75 8.75Z" fill="#A6A4FF"/>
<path d="M1.125 1.625H9.375V29.375H1.125V1.625Z" fill="#EAE9FF"/>
<path d="M9 2V29H1.5V2H9ZM9.75 1.25H0.75V29.75H9.75V1.25Z" fill="#A6A4FF"/>
<path d="M1.125 4.25H9.375V5H1.125V4.25ZM1.125 26H9.375V26.75H1.125V26ZM5.25 8.75C4.836 8.75 4.5 9.086 4.5 9.5V21.5C4.5 21.914 4.836 22.25 5.25 22.25C5.664 22.25 6 21.914 6 21.5V9.5C6 9.086 5.664 8.75 5.25 8.75Z" fill="#A6A4FF"/>
</svg>
