<svg width="30" height="31" viewBox="0 0 30 31" fill="none" xmlns="http://www.w3.org/2000/svg">
<path d="M15 29.375C11.7037 29.3743 7.29075 29.2955 5.6025 29.1515C2.84325 28.9085 2.75625 25.8583 2.66475 22.6295C2.65275 22.2298 2.64225 21.833 2.625 21.4445C2.625 19.679 2.79975 17.6323 3.081 16.1195C3.61725 13.85 4.851 13.811 7.092 13.7405C7.42725 13.73 7.779 13.7188 8.14425 13.6985C8.14725 13.6985 8.349 13.6955 8.562 13.691C9.44025 13.6708 11.4968 13.6243 14.9235 13.6243C14.9235 13.6243 15.0562 13.625 15.0817 13.625C18.5332 13.625 20.5665 13.6715 21.438 13.691C21.6682 13.6963 21.813 13.6993 21.876 13.6993C22.221 13.7188 22.5728 13.73 22.908 13.7405C25.1483 13.811 26.3827 13.85 26.9227 16.1368C27.2002 17.6315 27.3757 19.6783 27.3757 21.4603C27.3592 21.8323 27.348 22.229 27.336 22.6288C27.2445 25.8575 27.1575 28.9078 24.3975 29.1508C22.7092 29.2955 18.2963 29.3743 15 29.375Z" fill="#C0C3D9"/>
<path d="M14.9145 14H14.952H14.9528L15.0098 14.0007L15.0472 14H15.0802C18.5002 14 20.5522 14.0465 21.429 14.0668C21.6397 14.0713 21.7808 14.0743 21.8535 14.075C22.215 14.0945 22.563 14.1058 22.8953 14.1163C25.0837 14.1853 26.0827 14.216 26.5492 16.1893C26.8267 17.6818 26.9993 19.7023 27 21.4288C26.9827 21.8195 26.9715 22.2185 26.9602 22.6205C26.8575 26.2107 26.6213 28.5792 24.3652 28.778C22.6875 28.9212 18.288 28.9993 15 29C11.712 28.9993 7.31175 28.9212 5.63625 28.778C3.378 28.5785 3.14175 26.2107 3.039 22.6205C3.02775 22.2185 3.0165 21.8188 3 21.461C3 19.7015 3.1725 17.6818 3.44325 16.2238C3.9165 14.216 4.9155 14.1845 7.10475 14.1163C7.437 14.1058 7.785 14.0945 8.1465 14.075C8.21925 14.0743 8.36025 14.0713 8.571 14.0668C9.44775 14.0465 11.5012 14 14.9145 14ZM15.0765 13.25C15.0495 13.25 15.0262 13.2507 15 13.2507C14.9738 13.2507 14.9498 13.25 14.9235 13.25C10.5945 13.25 8.42025 13.325 8.124 13.325C5.34075 13.478 3.4095 13.1 2.7135 16.0513C2.40375 17.7148 2.25 19.835 2.25 21.461C2.40375 24.9845 2.097 29.2183 5.57025 29.525C7.34325 29.6765 11.9445 29.7493 15 29.75C18.0555 29.7493 22.6568 29.6765 24.4298 29.525C27.903 29.219 27.5963 24.9845 27.75 21.461C27.75 19.835 27.5962 17.7155 27.2873 16.052C26.5912 13.1 24.66 13.478 21.8768 13.3257C21.5798 13.325 19.4055 13.25 15.0765 13.25Z" fill="#989DBF"/>
<path d="M14.25 26.75H12.75V25.7188C12.5625 26 12.0938 26.7493 11.0933 26.75C10.5938 26.75 9.75 26.375 9.75 25.25V18.5H11.25V24.9688C11.25 25.1413 11.2635 25.4427 11.8125 25.4375C12.4223 25.4315 12.75 24.6875 12.75 24.6875V18.5H14.25V26.75Z" fill="white"/>
<path d="M9 17.75H7.5V26.75H6V17.75H4.5V16.25H9V17.75Z" fill="white"/>
<path d="M20.25 20.42C20.25 19.7727 20.0453 19.334 19.7835 19.0032C19.524 18.6725 19.1415 18.5 18.6547 18.5C18.411 18.5 18.168 18.5675 17.925 18.6912C17.6812 18.8127 17.4225 19.025 17.25 19.295V16.25H15.75V26.75H17.25V25.7188C17.5395 26.057 17.9618 26.7583 18.75 26.75C19.875 26.75 20.25 25.7188 20.25 24.875V20.42ZM18.75 24.5172C18.75 24.9312 18.414 25.25 18 25.25C17.586 25.25 17.2567 25.091 17.25 24.875V20.42C17.2567 20.0427 17.586 19.67 18 19.67C18.414 19.67 18.75 19.9992 18.75 20.75V24.5172Z" fill="white"/>
<path d="M25.4997 23V20.663C25.4997 19.9145 25.1247 18.5 23.2497 18.5C21.4685 18.5 21.002 19.985 21.002 20.663V24.194C21.002 24.9612 21.2105 25.5538 21.608 25.988C22.0092 26.4223 22.565 26.6315 23.2782 26.6315C24.0567 26.6315 24.6507 26.438 25.0317 26.0203C25.4337 25.6205 25.4997 25.0138 25.4997 24.194V23.75H23.9997V24.125C23.9997 24.5773 23.9555 24.9245 23.8505 25.0482C23.747 25.1862 23.5542 25.247 23.2497 25.25C22.9745 25.253 22.7652 25.1765 22.6617 25.004C22.556 24.8473 22.4997 24.5773 22.4997 24.1595V23H25.4997ZM22.4997 20.75C22.5065 20.3473 22.8357 20 23.2497 20C23.6637 20 23.9997 20.2888 23.9997 20.75V21.5H22.4997V20.75Z" fill="white"/>
<path d="M11.25 1.25L9.75 5.45L8.25 1.25H6.75L9 7.55V11.75H10.5V7.55L12.75 1.25H11.25Z" fill="#989DBF"/>
<path d="M21 3.875V9.6875C21 9.6875 20.6723 10.4315 20.0625 10.4375C19.5135 10.4427 19.5 10.1413 19.5 9.96875V3.875H18V10.25C18 11.375 18.8438 11.75 19.3433 11.75C20.3438 11.75 20.8125 11 21 10.7188V11.6562H22.5V3.875H21Z" fill="#989DBF"/>
<path d="M14.8125 11.75C13.572 11.75 12.5625 10.7195 12.5625 9.45277V6.07777C12.5625 4.81177 13.572 3.78052 14.8125 3.78052C16.053 3.78052 17.0625 4.81102 17.0625 6.07777V9.45277C17.0625 10.7195 16.053 11.75 14.8125 11.75ZM14.8125 5.18752C14.3985 5.18752 14.0625 5.55877 14.0625 6.01552V9.51577C14.0625 9.97252 14.3985 10.3438 14.8125 10.3438C15.2265 10.3438 15.5625 9.97252 15.5625 9.51577V6.01552C15.5625 5.55877 15.2265 5.18752 14.8125 5.18752Z" fill="#989DBF"/>
</svg>
