<svg width="30" height="31" viewBox="0 0 30 31" fill="none" xmlns="http://www.w3.org/2000/svg">
<g clip-path="url(#clip0_2275_89714)">
<path d="M22.875 21.125C21.6345 21.125 20.625 20.1155 20.625 18.875C20.625 17.6345 21.6345 16.625 22.875 16.625C24.7425 16.625 25.125 17.1748 25.125 17.9998C25.125 19.364 24.0338 21.125 22.875 21.125Z" fill="#E6E7EF"/>
<path d="M22.875 17C24.75 17 24.75 17.5543 24.75 17.9998C24.75 19.136 23.7803 20.75 22.875 20.75C21.8415 20.75 21 19.9085 21 18.875C21 17.8415 21.8415 17 22.875 17ZM22.875 16.25C21.4253 16.25 20.25 17.4253 20.25 18.875C20.25 20.3247 21.4253 21.5 22.875 21.5C24.3247 21.5 25.5 19.4495 25.5 17.9998C25.5 16.55 24.3247 16.25 22.875 16.25Z" fill="#989DBF"/>
<path d="M7.125 21.125C5.96625 21.125 4.875 19.364 4.875 17.9998C4.875 17.1748 5.2575 16.625 7.125 16.625C8.3655 16.625 9.375 17.6345 9.375 18.875C9.375 20.1155 8.3655 21.125 7.125 21.125Z" fill="#E6E7EF"/>
<path d="M7.125 17C8.1585 17 9 17.8415 9 18.875C9 19.9085 8.1585 20.75 7.125 20.75C6.21975 20.75 5.25 19.136 5.25 17.9998C5.25 17.5543 5.25 17 7.125 17ZM7.125 16.25C5.67525 16.25 4.5 16.55 4.5 17.9998C4.5 19.4495 5.67525 21.5 7.125 21.5C8.57475 21.5 9.75 20.3247 9.75 18.875C9.75 17.4253 8.57475 16.25 7.125 16.25Z" fill="#989DBF"/>
<path d="M15 30.125C14.049 30.125 13.1655 29.7298 12.513 29.0128L12.45 28.943L12.3615 28.9115C9.2295 27.7963 7.125 24.818 7.125 21.5V10.5358C7.125 8.57452 8.72025 6.97852 10.6815 6.97852H19.3185C21.2797 6.97852 22.875 8.57377 22.875 10.5358V21.5C22.875 24.818 20.7705 27.7963 17.6385 28.9115L17.55 28.943L17.487 29.0128C16.8345 29.7298 15.951 30.125 15 30.125Z" fill="white"/>
<path d="M19.3185 7.35449C21.0727 7.35449 22.5 8.78174 22.5 10.536V21.5002C22.5 24.66 20.496 27.4965 17.5125 28.5592L17.3355 28.6222L17.2095 28.761C16.629 29.3992 15.8438 29.7502 15 29.7502C14.1562 29.7502 13.371 29.3985 12.7905 28.7602L12.6645 28.6215L12.4875 28.5585C9.504 27.4965 7.5 24.66 7.5 21.5002V10.536C7.5 8.78174 8.92725 7.35449 10.6815 7.35449H19.3185ZM19.3185 6.60449H10.6815C8.51025 6.60449 6.75 8.36474 6.75 10.536V21.5002C6.75 25.0852 9.04125 28.128 12.2355 29.2657C12.9217 30.0187 13.9005 30.5002 15 30.5002C16.0995 30.5002 17.0783 30.0187 17.7645 29.265C20.9588 28.128 23.25 25.0852 23.25 21.5002V10.536C23.25 8.36474 21.4897 6.60449 19.3185 6.60449Z" fill="#989DBF"/>
<path d="M22.875 19.625V14.6075C22.875 10.3572 19.6582 9.15875 19.626 9.1475L19.3837 9.0605L19.215 9.25625C19.1903 9.28475 16.6853 12.1258 11.946 12.1258C8.8365 12.1258 7.12425 13.7023 7.12425 16.5643V19.625H7.002C6.57975 18.5742 4.875 14.1297 4.875 10.9055C4.875 5.5655 9.64125 2.375 14.25 2.375C17.301 2.375 18.915 3.905 19.605 4.817L19.7175 4.9655H19.9042C21.2587 4.9655 25.125 6.1055 25.125 11.1688C25.125 13.7045 23.4067 18.4985 22.9897 19.6243L22.875 19.625Z" fill="#E6E7EF"/>
<path d="M14.25 2.75C17.1405 2.75 18.6585 4.187 19.3057 5.0435L19.5308 5.34125H19.9042C21.1612 5.34125 24.75 6.41225 24.75 11.1702C24.75 12.9253 23.8943 15.8217 23.25 17.753V14.6075C23.25 10.0962 19.8953 8.84525 19.7528 8.79425L19.2682 8.624L18.9323 9.01025C18.8348 9.122 16.4978 11.75 11.946 11.75C8.59575 11.75 6.75 13.4592 6.75 16.5635V17.8805C6.108 16.0415 5.25 13.1623 5.25 10.9047C5.25 6.9515 8.4045 2.75 14.25 2.75ZM14.25 2C8.00475 2 4.5 6.5975 4.5 10.9055C4.5 14.6877 6.75 20 6.75 20H7.5C7.5 20 7.5 17.6045 7.5 16.5635C7.5 13.3655 9.669 12.5 11.946 12.5C16.9313 12.5 19.5 9.5 19.5 9.5C19.5 9.5 22.5 10.5725 22.5 14.6075C22.5 15.7527 22.5 20 22.5 20H23.25C23.25 20 25.5 14.144 25.5 11.1695C25.5 5.93225 21.4823 4.5905 19.9042 4.5905C19.5052 4.064 17.8455 2 14.25 2Z" fill="#989DBF"/>
<path d="M19.125 18.5C18.504 18.5 18 19.004 18 19.625C18 20.246 18.504 20.75 19.125 20.75C19.746 20.75 20.25 20.246 20.25 19.625C20.25 19.004 19.746 18.5 19.125 18.5ZM10.875 18.5C10.254 18.5 9.75 19.004 9.75 19.625C9.75 20.246 10.254 20.75 10.875 20.75C11.496 20.75 12 20.246 12 19.625C12 19.004 11.496 18.5 10.875 18.5Z" fill="#989DBF"/>
<path d="M15 27.125C12.396 27.125 11.4638 24.8517 11.25 24.23C11.7555 24.3275 13.3875 24.875 15 24.875C16.6125 24.875 18.2445 24.3267 18.75 24.23C18.5363 24.8517 17.604 27.125 15 27.125Z" fill="#C0C3D9"/>
<path d="M15.0002 27.4998C12.1967 27.4998 11.1497 25.0901 10.8954 24.3521C10.8519 24.2253 10.8789 24.0851 10.9667 23.9838C11.0544 23.8826 11.1872 23.8368 11.3207 23.8616C11.4384 23.8841 11.6154 23.9306 11.8374 23.9883C12.5702 24.1788 13.7949 24.4998 15.0002 24.4998C16.2054 24.4998 17.4302 24.1788 18.1622 23.9876C18.3842 23.9298 18.5612 23.8833 18.6789 23.8608C18.8124 23.8368 18.9452 23.8818 19.0329 23.9831C19.1207 24.0843 19.1477 24.2246 19.1042 24.3513C18.8507 25.0901 17.8037 27.4998 15.0002 27.4998ZM11.8929 24.7773C12.3467 25.6451 13.2654 26.7498 15.0002 26.7498C16.7349 26.7498 17.6537 25.6451 18.1074 24.7773C17.3282 24.9783 16.1717 25.2498 15.0002 25.2498C13.8287 25.2498 12.6722 24.9783 11.8929 24.7773Z" fill="#989DBF"/>
<path d="M26.5155 8.77789C26.352 8.77789 26.2012 8.66914 26.1547 8.50489C26.0985 8.30464 26.2155 8.09839 26.4142 8.04214L29.4142 7.19914C29.6145 7.14439 29.8207 7.25989 29.877 7.45864C29.9332 7.65889 29.8162 7.86514 29.6175 7.92139L26.6175 8.76439C26.583 8.77339 26.5492 8.77789 26.5155 8.77789Z" fill="#989DBF"/>
<path d="M25.1032 5.73435C25.0035 5.73435 24.903 5.6946 24.8295 5.61585C24.6885 5.46435 24.696 5.2266 24.8467 5.0856L27.375 2.7201C27.5272 2.57985 27.7635 2.58585 27.9052 2.73735C28.0462 2.88885 28.0387 3.1266 27.888 3.2676L25.359 5.6331C25.287 5.70135 25.1947 5.73435 25.1032 5.73435Z" fill="#989DBF"/>
<path d="M22.4022 4.25095C22.3482 4.25095 22.2927 4.23895 22.241 4.2142C22.0542 4.12495 21.9747 3.90145 22.064 3.7147L23.495 0.714699C23.5835 0.526449 23.8077 0.447699 23.9952 0.537699C24.182 0.626949 24.2615 0.850449 24.1722 1.0372L22.7412 4.0372C22.6767 4.1722 22.5425 4.25095 22.4022 4.25095Z" fill="#989DBF"/>
<path d="M3.48499 8.82792C3.45124 8.82792 3.41749 8.82342 3.38299 8.81367L0.382991 7.97067C0.184241 7.91517 0.0672413 7.70817 0.123491 7.50867C0.179741 7.30992 0.386741 7.19517 0.586241 7.24917L3.58624 8.09217C3.78574 8.14842 3.90199 8.35542 3.84574 8.55492C3.79924 8.71992 3.64849 8.82792 3.48499 8.82792Z" fill="#989DBF"/>
<path d="M4.8974 5.78542C4.80515 5.78542 4.71365 5.75167 4.6409 5.68417L1.9154 3.13417C1.76465 2.99242 1.7564 2.75542 1.89815 2.60392C2.0399 2.45167 2.2769 2.44492 2.4284 2.58667L5.1539 5.13667C5.3054 5.27767 5.3129 5.51542 5.1719 5.66692C5.09765 5.74567 4.9979 5.78542 4.8974 5.78542Z" fill="#989DBF"/>
<path d="M7.38583 3.68354C7.24558 3.68354 7.11133 3.60554 7.04683 3.46979L5.90233 1.06979C5.81233 0.883037 5.89183 0.659537 6.07858 0.570287C6.26608 0.480287 6.48958 0.559787 6.57883 0.747287L7.72333 3.14729C7.81258 3.33404 7.73308 3.55754 7.54633 3.64679C7.49458 3.67154 7.43908 3.68354 7.38583 3.68354Z" fill="#989DBF"/>
</g>
<defs>
<clipPath id="clip0_2275_89714">
<rect width="30" height="30" fill="white" transform="translate(0 0.5)"/>
</clipPath>
</defs>
</svg>
