<svg width="30" height="30" viewBox="0 0 30 30" fill="none" xmlns="http://www.w3.org/2000/svg">
<path fill-rule="evenodd" clip-rule="evenodd" d="M6.75 9C6.75 4.44354 10.4435 0.75 15 0.75C19.5565 0.75 23.25 4.44354 23.25 9V13.2848L21.75 13.2855V9C21.75 5.27196 18.728 2.25 15 2.25C11.272 2.25 8.25 5.27196 8.25 9V13.2848L6.75 13.2855V9Z" fill="#A6A4FF"/>
<path d="M1.875 28.125V16.5C1.875 13.812 4.062 11.625 6.75 11.625H23.25C25.938 11.625 28.125 13.812 28.125 16.5V28.125H1.875Z" fill="#EAE9FF"/>
<path d="M23.25 12C25.731 12 27.75 14.019 27.75 16.5V27.75H2.25V16.5C2.25 14.019 4.269 12 6.75 12H23.25ZM23.25 11.25H6.75C3.8505 11.25 1.5 13.6005 1.5 16.5V28.5H28.5V16.5C28.5 13.6005 26.1495 11.25 23.25 11.25Z" fill="#CBC8FF"/>
<path d="M13.1925 24.375L13.8608 20.3677L13.644 20.2358C12.8497 19.752 12.375 18.9165 12.375 18C12.375 16.5525 13.5525 15.375 15 15.375C16.4475 15.375 17.625 16.5525 17.625 18C17.625 18.9165 17.1502 19.752 16.3568 20.2358L16.14 20.3677L16.8075 24.375H13.1925Z" fill="#CBC8FF"/>
<path d="M15 15.75C16.2405 15.75 17.25 16.7595 17.25 18C17.25 18.7845 16.8428 19.5008 16.161 19.9155L15.7275 20.1795L15.8107 20.6797L16.365 24H13.635L14.1885 20.6797L14.2717 20.1795L13.8383 19.9155C13.1573 19.5008 12.75 18.7845 12.75 18C12.75 16.7595 13.7595 15.75 15 15.75ZM15 15C13.3432 15 12 16.3432 12 18C12 19.0868 12.5835 20.0303 13.449 20.556L12.75 24.75H17.25L16.551 20.556C17.4165 20.0303 18 19.0868 18 18C18 16.3432 16.6568 15 15 15Z" fill="#A6A4FF"/>
</svg>
