<svg width="30" height="31" viewBox="0 0 30 31" fill="none" xmlns="http://www.w3.org/2000/svg">
<path d="M9.37594 20.228V12.0815C9.37594 11.7995 9.49669 11.5685 9.61369 11.2663L13.1499 2.40876C13.4432 1.76076 14.1429 1.44201 14.8029 1.73376C15.4044 2.00001 15.3699 2.65101 15.3759 3.45051V19.6888C15.3759 19.9723 15.2912 20.249 15.1322 20.486L11.8937 25.2988L6.67969 23.414L9.37594 20.228Z" fill="#C0C3D9"/>
<path d="M11.8916 25.6738C11.8488 25.6738 11.8061 25.6663 11.7641 25.6513L6.55007 23.7658C6.43457 23.7238 6.34682 23.6286 6.31532 23.5101C6.28382 23.3916 6.31232 23.2648 6.39107 23.1711L8.99957 20.0908V12.0816C8.99957 11.7793 9.10157 11.5296 9.19982 11.2881L12.8006 2.26933C13.1876 1.41208 14.1371 1.02883 14.9538 1.39108C15.7428 1.73908 15.7466 2.53708 15.7496 3.30883V3.44758V19.6888C15.7496 20.0481 15.6431 20.3953 15.4413 20.6953L12.2036 25.5088C12.1316 25.6138 12.0138 25.6738 11.8916 25.6738ZM7.31282 23.2446L11.7446 24.8473L14.8196 20.2761C14.9381 20.1013 15.0003 19.8981 15.0378 19.6513L15.0363 3.27433C14.9958 2.52583 14.9643 2.21608 14.6501 2.07733C14.1986 1.87633 13.7021 2.09608 13.4906 2.56333L9.89507 11.5716C9.81032 11.7771 9.74957 11.9263 9.74957 12.0816V20.2281C9.74957 20.3166 9.71807 20.4021 9.66107 20.4703L7.31282 23.2446Z" fill="#989DBF"/>
<path d="M15.375 18.1835C15.168 18.1835 15.0465 18.0155 15.0465 17.8085L15 12.0702C15.0008 11.7867 14.8875 11.5205 14.6805 11.3188C14.4697 11.1147 14.1885 11.0007 13.8878 11C13.887 11 13.8855 11 13.8848 11C13.2608 11 12.7522 11.4762 12.7507 12.0635V17.75C12.7507 17.957 12.5827 18.125 12.3757 18.125C12.1687 18.125 12 17.957 12 17.75V12.062C12.003 11.0615 12.8482 10.25 13.884 10.25C13.8855 10.25 13.8877 10.25 13.8892 10.25C14.385 10.2515 14.8515 10.4398 15.2025 10.781C15.5573 11.126 15.7508 11.5835 15.7493 12.0717V17.8085C15.75 18.0155 15.582 18.1835 15.375 18.1835Z" fill="#989DBF"/>
<path d="M6.18181 23.297L11.0938 26.5659L12.6437 24.237L7.73172 20.9681L6.18181 23.297Z" fill="#E6E7EF"/>
<path d="M11.0955 26.9397C11.022 26.9397 10.95 26.9187 10.8877 26.8767L5.97596 23.6082C5.80346 23.4942 5.75696 23.261 5.87096 23.0885L7.42046 20.7597C7.47596 20.6772 7.56146 20.6195 7.65896 20.6C7.75721 20.5797 7.85771 20.6 7.94021 20.6555L12.852 23.924C13.0245 24.038 13.071 24.2712 12.957 24.4437L11.4075 26.7725C11.352 26.855 11.2665 26.9127 11.169 26.9322C11.145 26.9375 11.1202 26.9397 11.0955 26.9397ZM6.70346 23.1912L10.9912 26.045L12.1252 24.341L7.83746 21.4872L6.70346 23.1912Z" fill="#989DBF"/>
<path d="M6.29157 23.8172L10.5723 26.666L11.2396 25.6633L6.9589 22.8144L6.29157 23.8172Z" fill="#E6E7EF"/>
<path d="M21.1642 6.71801C21.0683 6.71801 20.9722 6.68126 20.8987 6.60851C20.7525 6.46226 20.7525 6.22451 20.8987 6.07826L23.7975 3.17951C23.9437 3.03326 24.1815 3.03326 24.3277 3.17951C24.474 3.32576 24.474 3.56351 24.3277 3.70976L21.429 6.60851C21.3562 6.68126 21.2602 6.71801 21.1642 6.71801Z" fill="#989DBF"/>
<path d="M22.619 8.87132C22.4713 8.87132 22.331 8.78358 22.2718 8.63733C22.1938 8.44532 22.2868 8.22632 22.478 8.14907L26.0885 6.68282C26.2783 6.60407 26.4988 6.69707 26.5768 6.88832C26.6548 7.07957 26.5618 7.29932 26.3705 7.37657L22.76 8.84282C22.7135 8.86232 22.6663 8.87132 22.619 8.87132Z" fill="#989DBF"/>
<path d="M8.83644 6.71827C8.74044 6.71827 8.64444 6.68152 8.57094 6.60877L5.67219 3.70927C5.52594 3.56302 5.52594 3.32527 5.67219 3.17902C5.81844 3.03277 6.05619 3.03277 6.20244 3.17902L9.10119 6.07777C9.24744 6.22402 9.24744 6.46177 9.10119 6.60802C9.02844 6.68152 8.93244 6.71827 8.83644 6.71827Z" fill="#989DBF"/>
<path d="M7.38064 8.87173C7.33339 8.87173 7.28614 8.86273 7.23964 8.84398L3.62914 7.37773C3.43714 7.29973 3.34414 7.08073 3.42214 6.88948C3.50014 6.69673 3.71914 6.60373 3.91114 6.68323L7.52164 8.14948C7.71364 8.22748 7.80589 8.44648 7.72789 8.63773C7.66939 8.78398 7.52914 8.87173 7.38064 8.87173Z" fill="#989DBF"/>
<path d="M22.125 23.228V15.0815C22.125 14.7995 22.0043 14.5685 21.8873 14.2663L18.351 5.40876C18.0578 4.76076 17.358 4.44201 16.698 4.73376C16.0965 5.00001 16.131 5.65101 16.125 6.45051V22.6888C16.125 22.9723 16.2098 23.249 16.3688 23.486L19.6072 28.2988L24.8213 26.414L22.125 23.228Z" fill="#E6E7EF"/>
<path d="M19.608 28.6738C19.4857 28.6738 19.368 28.6138 19.2967 28.5081L16.0582 23.6946C15.8565 23.3953 15.75 23.0473 15.75 22.6888L15.7507 6.30881C15.7537 5.53781 15.7575 4.73906 16.5465 4.39106C17.3633 4.02881 18.315 4.41731 18.693 5.25356L22.3005 14.2881C22.398 14.5296 22.5 14.7793 22.5 15.0816V23.0908L25.1077 26.1711C25.1865 26.2648 25.2157 26.3916 25.1835 26.5101C25.152 26.6286 25.0642 26.7238 24.9487 26.7658L19.7347 28.6513C19.6935 28.6671 19.65 28.6738 19.608 28.6738ZM17.202 5.00006C17.0843 5.00006 16.9657 5.02556 16.8502 5.07731C16.536 5.21681 16.5045 5.52656 16.5015 6.31181L16.5 6.45356V22.6888C16.5 22.8981 16.5622 23.1013 16.68 23.2761L19.755 27.8473L24.1867 26.2446L21.8385 23.4711C21.7815 23.4028 21.75 23.3173 21.75 23.2288V15.0816C21.75 14.9263 21.6892 14.7771 21.6052 14.5708L18.003 5.54756C17.8522 5.21606 17.5425 5.00006 17.202 5.00006Z" fill="#989DBF"/>
<path d="M16.125 21.1835C15.918 21.1835 15.75 21.0155 15.75 20.8085V15.0702C15.7485 14.5842 15.9428 14.126 16.2968 13.781C16.6478 13.4398 17.1143 13.2515 17.61 13.25C17.6115 13.25 17.6138 13.25 17.6153 13.25C18.6518 13.25 19.4963 14.0615 19.4993 15.0605V20.75C19.4993 20.957 19.3313 21.125 19.1243 21.125C18.9173 21.125 18.75 20.957 18.75 20.75V15.062C18.7485 14.4763 18.2393 14 17.616 14C17.6153 14 17.6138 14 17.613 14C17.3123 14.0007 17.031 14.114 16.8203 14.3187C16.6133 14.5205 16.5 14.7867 16.5008 15.0687V20.8085C16.5 21.0155 16.332 21.1835 16.125 21.1835Z" fill="#989DBF"/>
<path d="M23.7674 23.9674L18.8555 27.2363L20.4054 29.5652L25.3173 26.2963L23.7674 23.9674Z" fill="#989DBF"/>
<path d="M20.4054 29.9397C20.3807 29.9397 20.3559 29.9375 20.3312 29.9322C20.2337 29.9127 20.1482 29.855 20.0927 29.7725L18.5432 27.4437C18.4284 27.2712 18.4757 27.038 18.6482 26.924L23.5599 23.6555C23.6424 23.6 23.7444 23.5797 23.8412 23.6C23.9379 23.6202 24.0242 23.6772 24.0797 23.7597L25.6292 26.0885C25.7439 26.261 25.6967 26.4942 25.5242 26.6082L20.6124 29.8767C20.5509 29.9187 20.4789 29.9397 20.4054 29.9397ZM19.3757 27.3402L20.5097 29.0442L24.7974 26.1905L23.6634 24.4865L19.3757 27.3402Z" fill="#989DBF"/>
<path d="M24.5405 25.8143L20.2598 28.6631L20.9271 29.6658L25.2078 26.817L24.5405 25.8143Z" fill="#989DBF"/>
</svg>
