<svg width="30" height="31" viewBox="0 0 30 31" fill="none" xmlns="http://www.w3.org/2000/svg">
<path d="M27.375 11.375H29.625V14.375H27.375V11.375Z" fill="#CBC8FF"/>
<path d="M29.25 11.75V14H27.75V11.75H29.25ZM30 11H27V14.75H30V11Z" fill="#A6A4FF"/>
<path d="M0.375 11.375H2.625V14.375H0.375V11.375Z" fill="#CBC8FF"/>
<path d="M2.25 11.75V14H0.75V11.75H2.25ZM3 11H0V14.75H3V11Z" fill="#A6A4FF"/>
<path d="M6.375 2.375H23.625V15.125H6.375V2.375Z" fill="white"/>
<path d="M23.25 2.75V14.75H6.75V2.75H23.25ZM24 2H6V15.5H24V2Z" fill="#A6A4FF"/>
<path d="M6 28.625C4.13925 28.625 2.625 27.1108 2.625 25.25V9.875H11.25C11.8702 9.875 12.375 10.3798 12.375 11V12.125H9.375V12.5C9.375 13.9475 10.5525 15.125 12 15.125H18C19.4475 15.125 20.625 13.9475 20.625 12.5V12.125H17.625V11C17.625 10.3798 18.1298 9.875 18.75 9.875H27.375V25.25C27.375 27.1108 25.8608 28.625 24 28.625H6Z" fill="#EAE9FF"/>
<path d="M27 10.25V25.25C27 26.9045 25.6545 28.25 24 28.25H6C4.3455 28.25 3 26.9045 3 25.25V10.25H11.25C11.6632 10.25 12 10.5868 12 11V11.75H9.75H9V12.5C9 14.1545 10.3455 15.5 12 15.5H18C19.6545 15.5 21 14.1545 21 12.5V11.75H20.25H18V11C18 10.5868 18.3368 10.25 18.75 10.25H27ZM27.75 9.5H18.75C17.9213 9.5 17.25 10.1712 17.25 11V12.5H20.25C20.25 13.7428 19.2428 14.75 18 14.75H12C10.7572 14.75 9.75 13.7428 9.75 12.5H12.75V11C12.75 10.1712 12.0787 9.5 11.25 9.5H2.25V25.25C2.25 27.3207 3.92925 29 6 29H24C26.0707 29 27.75 27.3207 27.75 25.25V9.5ZM19.875 6.5H10.125C9.918 6.5 9.75 6.332 9.75 6.125C9.75 5.918 9.918 5.75 10.125 5.75H19.875C20.082 5.75 20.25 5.918 20.25 6.125C20.25 6.332 20.082 6.5 19.875 6.5Z" fill="#A6A4FF"/>
<path d="M15 17C14.8011 17 14.6103 17.079 14.4697 17.2197C14.329 17.3603 14.25 17.5511 14.25 17.75C14.25 17.9489 14.329 18.1397 14.4697 18.2803C14.6103 18.421 14.8011 18.5 15 18.5C15.1989 18.5 15.3897 18.421 15.5303 18.2803C15.671 18.1397 15.75 17.9489 15.75 17.75C15.75 17.5511 15.671 17.3603 15.5303 17.2197C15.3897 17.079 15.1989 17 15 17ZM18 17C17.8011 17 17.6103 17.079 17.4697 17.2197C17.329 17.3603 17.25 17.5511 17.25 17.75C17.25 17.9489 17.329 18.1397 17.4697 18.2803C17.6103 18.421 17.8011 18.5 18 18.5C18.1989 18.5 18.3897 18.421 18.5303 18.2803C18.671 18.1397 18.75 17.9489 18.75 17.75C18.75 17.5511 18.671 17.3603 18.5303 17.2197C18.3897 17.079 18.1989 17 18 17ZM21 17C20.8011 17 20.6103 17.079 20.4697 17.2197C20.329 17.3603 20.25 17.5511 20.25 17.75C20.25 17.9489 20.329 18.1397 20.4697 18.2803C20.6103 18.421 20.8011 18.5 21 18.5C21.1989 18.5 21.3897 18.421 21.5303 18.2803C21.671 18.1397 21.75 17.9489 21.75 17.75C21.75 17.5511 21.671 17.3603 21.5303 17.2197C21.3897 17.079 21.1989 17 21 17ZM24 17C23.8011 17 23.6103 17.079 23.4697 17.2197C23.329 17.3603 23.25 17.5511 23.25 17.75C23.25 17.9489 23.329 18.1397 23.4697 18.2803C23.6103 18.421 23.8011 18.5 24 18.5C24.1989 18.5 24.3897 18.421 24.5303 18.2803C24.671 18.1397 24.75 17.9489 24.75 17.75C24.75 17.5511 24.671 17.3603 24.5303 17.2197C24.3897 17.079 24.1989 17 24 17ZM6 17C5.80109 17 5.61032 17.079 5.46967 17.2197C5.32902 17.3603 5.25 17.5511 5.25 17.75C5.25 17.9489 5.32902 18.1397 5.46967 18.2803C5.61032 18.421 5.80109 18.5 6 18.5C6.19891 18.5 6.38968 18.421 6.53033 18.2803C6.67098 18.1397 6.75 17.9489 6.75 17.75C6.75 17.5511 6.67098 17.3603 6.53033 17.2197C6.38968 17.079 6.19891 17 6 17ZM9 17C8.80109 17 8.61032 17.079 8.46967 17.2197C8.32902 17.3603 8.25 17.5511 8.25 17.75C8.25 17.9489 8.32902 18.1397 8.46967 18.2803C8.61032 18.421 8.80109 18.5 9 18.5C9.19891 18.5 9.38968 18.421 9.53033 18.2803C9.67098 18.1397 9.75 17.9489 9.75 17.75C9.75 17.5511 9.67098 17.3603 9.53033 17.2197C9.38968 17.079 9.19891 17 9 17ZM12 17C11.8011 17 11.6103 17.079 11.4697 17.2197C11.329 17.3603 11.25 17.5511 11.25 17.75C11.25 17.9489 11.329 18.1397 11.4697 18.2803C11.6103 18.421 11.8011 18.5 12 18.5C12.1989 18.5 12.3897 18.421 12.5303 18.2803C12.671 18.1397 12.75 17.9489 12.75 17.75C12.75 17.5511 12.671 17.3603 12.5303 17.2197C12.3897 17.079 12.1989 17 12 17ZM15 21.5C14.8011 21.5 14.6103 21.579 14.4697 21.7197C14.329 21.8603 14.25 22.0511 14.25 22.25C14.25 22.4489 14.329 22.6397 14.4697 22.7803C14.6103 22.921 14.8011 23 15 23C15.1989 23 15.3897 22.921 15.5303 22.7803C15.671 22.6397 15.75 22.4489 15.75 22.25C15.75 22.0511 15.671 21.8603 15.5303 21.7197C15.3897 21.579 15.1989 21.5 15 21.5ZM18 21.5C17.8011 21.5 17.6103 21.579 17.4697 21.7197C17.329 21.8603 17.25 22.0511 17.25 22.25C17.25 22.4489 17.329 22.6397 17.4697 22.7803C17.6103 22.921 17.8011 23 18 23C18.1989 23 18.3897 22.921 18.5303 22.7803C18.671 22.6397 18.75 22.4489 18.75 22.25C18.75 22.0511 18.671 21.8603 18.5303 21.7197C18.3897 21.579 18.1989 21.5 18 21.5ZM21 21.5C20.8011 21.5 20.6103 21.579 20.4697 21.7197C20.329 21.8603 20.25 22.0511 20.25 22.25C20.25 22.4489 20.329 22.6397 20.4697 22.7803C20.6103 22.921 20.8011 23 21 23C21.1989 23 21.3897 22.921 21.5303 22.7803C21.671 22.6397 21.75 22.4489 21.75 22.25C21.75 22.0511 21.671 21.8603 21.5303 21.7197C21.3897 21.579 21.1989 21.5 21 21.5ZM24 21.5C23.8011 21.5 23.6103 21.579 23.4697 21.7197C23.329 21.8603 23.25 22.0511 23.25 22.25C23.25 22.4489 23.329 22.6397 23.4697 22.7803C23.6103 22.921 23.8011 23 24 23C24.1989 23 24.3897 22.921 24.5303 22.7803C24.671 22.6397 24.75 22.4489 24.75 22.25C24.75 22.0511 24.671 21.8603 24.5303 21.7197C24.3897 21.579 24.1989 21.5 24 21.5ZM6 21.5C5.80109 21.5 5.61032 21.579 5.46967 21.7197C5.32902 21.8603 5.25 22.0511 5.25 22.25C5.25 22.4489 5.32902 22.6397 5.46967 22.7803C5.61032 22.921 5.80109 23 6 23C6.19891 23 6.38968 22.921 6.53033 22.7803C6.67098 22.6397 6.75 22.4489 6.75 22.25C6.75 22.0511 6.67098 21.8603 6.53033 21.7197C6.38968 21.579 6.19891 21.5 6 21.5ZM9 21.5C8.80109 21.5 8.61032 21.579 8.46967 21.7197C8.32902 21.8603 8.25 22.0511 8.25 22.25C8.25 22.4489 8.32902 22.6397 8.46967 22.7803C8.61032 22.921 8.80109 23 9 23C9.19891 23 9.38968 22.921 9.53033 22.7803C9.67098 22.6397 9.75 22.4489 9.75 22.25C9.75 22.0511 9.67098 21.8603 9.53033 21.7197C9.38968 21.579 9.19891 21.5 9 21.5ZM12 21.5C11.8011 21.5 11.6103 21.579 11.4697 21.7197C11.329 21.8603 11.25 22.0511 11.25 22.25C11.25 22.4489 11.329 22.6397 11.4697 22.7803C11.6103 22.921 11.8011 23 12 23C12.1989 23 12.3897 22.921 12.5303 22.7803C12.671 22.6397 12.75 22.4489 12.75 22.25C12.75 22.0511 12.671 21.8603 12.5303 21.7197C12.3897 21.579 12.1989 21.5 12 21.5ZM16.5 19.25C16.3011 19.25 16.1103 19.329 15.9697 19.4697C15.829 19.6103 15.75 19.8011 15.75 20C15.75 20.1989 15.829 20.3897 15.9697 20.5303C16.1103 20.671 16.3011 20.75 16.5 20.75C16.6989 20.75 16.8897 20.671 17.0303 20.5303C17.171 20.3897 17.25 20.1989 17.25 20C17.25 19.8011 17.171 19.6103 17.0303 19.4697C16.8897 19.329 16.6989 19.25 16.5 19.25ZM19.5 19.25C19.3011 19.25 19.1103 19.329 18.9697 19.4697C18.829 19.6103 18.75 19.8011 18.75 20C18.75 20.1989 18.829 20.3897 18.9697 20.5303C19.1103 20.671 19.3011 20.75 19.5 20.75C19.6989 20.75 19.8897 20.671 20.0303 20.5303C20.171 20.3897 20.25 20.1989 20.25 20C20.25 19.8011 20.171 19.6103 20.0303 19.4697C19.8897 19.329 19.6989 19.25 19.5 19.25ZM22.5 19.25C22.3011 19.25 22.1103 19.329 21.9697 19.4697C21.829 19.6103 21.75 19.8011 21.75 20C21.75 20.1989 21.829 20.3897 21.9697 20.5303C22.1103 20.671 22.3011 20.75 22.5 20.75C22.6989 20.75 22.8897 20.671 23.0303 20.5303C23.171 20.3897 23.25 20.1989 23.25 20C23.25 19.8011 23.171 19.6103 23.0303 19.4697C22.8897 19.329 22.6989 19.25 22.5 19.25ZM7.5 19.25C7.30109 19.25 7.11032 19.329 6.96967 19.4697C6.82902 19.6103 6.75 19.8011 6.75 20C6.75 20.1989 6.82902 20.3897 6.96967 20.5303C7.11032 20.671 7.30109 20.75 7.5 20.75C7.69891 20.75 7.88968 20.671 8.03033 20.5303C8.17098 20.3897 8.25 20.1989 8.25 20C8.25 19.8011 8.17098 19.6103 8.03033 19.4697C7.88968 19.329 7.69891 19.25 7.5 19.25ZM10.5 19.25C10.3011 19.25 10.1103 19.329 9.96967 19.4697C9.82902 19.6103 9.75 19.8011 9.75 20C9.75 20.1989 9.82902 20.3897 9.96967 20.5303C10.1103 20.671 10.3011 20.75 10.5 20.75C10.6989 20.75 10.8897 20.671 11.0303 20.5303C11.171 20.3897 11.25 20.1989 11.25 20C11.25 19.8011 11.171 19.6103 11.0303 19.4697C10.8897 19.329 10.6989 19.25 10.5 19.25ZM13.5 19.25C13.3011 19.25 13.1103 19.329 12.9697 19.4697C12.829 19.6103 12.75 19.8011 12.75 20C12.75 20.1989 12.829 20.3897 12.9697 20.5303C13.1103 20.671 13.3011 20.75 13.5 20.75C13.6989 20.75 13.8897 20.671 14.0303 20.5303C14.171 20.3897 14.25 20.1989 14.25 20C14.25 19.8011 14.171 19.6103 14.0303 19.4697C13.8897 19.329 13.6989 19.25 13.5 19.25ZM22.5 23.75C22.3011 23.75 22.1103 23.829 21.9697 23.9697C21.829 24.1103 21.75 24.3011 21.75 24.5C21.75 24.6989 21.829 24.8897 21.9697 25.0303C22.1103 25.171 22.3011 25.25 22.5 25.25C22.6989 25.25 22.8897 25.171 23.0303 25.0303C23.171 24.8897 23.25 24.6989 23.25 24.5C23.25 24.3011 23.171 24.1103 23.0303 23.9697C22.8897 23.829 22.6989 23.75 22.5 23.75ZM7.5 23.75C7.30109 23.75 7.11032 23.829 6.96967 23.9697C6.82902 24.1103 6.75 24.3011 6.75 24.5C6.75 24.6989 6.82902 24.8897 6.96967 25.0303C7.11032 25.171 7.30109 25.25 7.5 25.25C7.69891 25.25 7.88968 25.171 8.03033 25.0303C8.17098 24.8897 8.25 24.6989 8.25 24.5C8.25 24.3011 8.17098 24.1103 8.03033 23.9697C7.88968 23.829 7.69891 23.75 7.5 23.75ZM19.5 23.75C19.3605 23.75 10.6395 23.75 10.5 23.75C10.086 23.75 9.75 24.086 9.75 24.5C9.75 24.914 10.086 25.25 10.5 25.25C10.6395 25.25 19.3605 25.25 19.5 25.25C19.914 25.25 20.25 24.914 20.25 24.5C20.25 24.086 19.914 23.75 19.5 23.75Z" fill="#A6A4FF"/>
</svg>
