<svg fill="none" xmlns="http://www.w3.org/2000/svg" viewBox="0 0 500 105"><path d="M130.8 81.8c-2.5-.4-4.8-1-6.8-1.8v-8.7c4.9 1.6 9.5 2.3 13.9 2.3 3.8 0 6.6-.7 8.5-2.2 1.9-1.5 2.8-3.6 2.8-6.5 0-1.6-.3-2.9-.9-4-.5-1-1.5-2-2.8-3-1.3-.8-3.1-1.6-5.5-2.4l-3.7-1.2c-9-3.1-13.6-8.9-13.6-17.3 0-3.7.8-7 2.4-9.7 1.7-2.7 4.1-4.7 7.4-6.2 3.3-1.4 7.3-2.1 12.1-2.1a48.7 48.7 0 0 1 12 1.6v8.7a37 37 0 0 0-11.1-1.6c-8.3 0-12.5 2.9-12.5 8.5 0 1.6.3 2.9.8 3.9s1.4 2 2.6 2.7c1.2.8 2.9 1.6 5 2.3l3.7 1.3A24 24 0 0 1 156 53c2.4 2.8 3.7 6.5 3.7 11 0 3.9-.9 7.1-2.6 9.9a16.3 16.3 0 0 1-7.3 6.3 28.1 28.1 0 0 1-11.7 2.2 44 44 0 0 1-7.2-.6ZM166.4 30c-.9-1-1.3-2.2-1.3-3.8 0-1.6.4-2.8 1.3-3.7 1-.9 2.3-1.3 4.1-1.3 1.9 0 3.2.4 4.2 1.3.9 1 1.4 2.1 1.4 3.7s-.5 2.8-1.4 3.7c-1 .9-2.3 1.3-4.2 1.3-1.8 0-3.1-.4-4-1.3ZM176 36h-10.2v45.6H176V36ZM185 36h8.4l.8 4.9h.5a14.4 14.4 0 0 1 11.6-5.6c3.9 0 7 1.2 9.2 3.6 2.3 2.5 3.4 6.4 3.4 11.8v30.8h-10v-30c0-2.6-.6-4.4-1.6-5.5-1-1-2.5-1.6-4.4-1.6a10 10 0 0 0-4.4 1 8.2 8.2 0 0 0-3.4 3.3v32.9H185V36ZM239.7 92.7c3.9 0 6.7-1 8.6-2.7 1.8-1.8 2.7-4.8 2.7-9v-4h-.5c-1 1.5-2.3 2.8-4 3.8a13.1 13.1 0 0 1-13.3-.9c-2.2-1.5-4-4-5.4-7.3-1.4-3.4-2-7.7-2-13 0-8 1.7-14.2 5.4-18.2 3.6-4 9.1-6 16.5-6a43.6 43.6 0 0 1 13.4 2.1v41.8c0 7.5-1.7 13-5 16.4-3.4 3.4-8.6 5.1-15.5 5.1h-.9v-8.1Zm8.6-20a7 7 0 0 0 2.7-2.3V43.7c-1.3-.3-2.7-.5-4.1-.5-3.6 0-6.3 1.2-8.1 3.6-1.8 2.4-2.7 6.3-2.7 12 0 3.8.3 6.9 1 9 .7 2.2 1.7 3.8 3 4.6 1.2.8 2.7 1.3 4.6 1.3 1.3 0 2.5-.3 3.6-1ZM270.2 81.6V14h10v67.5h-10ZM321.5 62h-23.9c.2 3.1.6 5.5 1.4 7.3.8 1.8 2 3 3.7 3.8 1.7.7 4 1 6.7 1 2.9 0 6.2-.4 10-1.5v8.2a46.7 46.7 0 0 1-11.2 1.6c-4.8 0-8.8-.8-11.8-2.4-3-1.6-5.3-4.1-6.8-7.6s-2.2-8-2.2-13.8c0-7.8 1.5-13.6 4.6-17.5 3-3.9 7.4-5.8 13-5.8 11 0 16.5 7.9 16.5 23.6V62ZM301 43.4c-1 .8-2 2.2-2.5 4.1-.6 2-1 4.6-1 8H312c0-3.3-.3-6-.8-8-.6-2-1.4-3.3-2.4-4a6 6 0 0 0-3.7-1.3c-1.6 0-2.9.4-4 1.2ZM335 81.8c-2.6-.4-4.9-1-7-1.8v-8.7c5 1.6 9.6 2.3 14 2.3 3.8 0 6.6-.7 8.5-2.2 1.9-1.5 2.8-3.6 2.8-6.5 0-1.6-.3-2.9-.9-4-.5-1-1.5-2-2.8-3-1.3-.8-3.1-1.6-5.4-2.4l-3.8-1.2c-9-3.1-13.6-8.9-13.6-17.3 0-3.8.8-7 2.5-9.7 1.6-2.7 4-4.7 7.3-6.2 3.3-1.4 7.3-2.1 12.1-2.1a48.7 48.7 0 0 1 12 1.6v8.7a37 37 0 0 0-11.1-1.6c-8.3 0-12.5 2.8-12.5 8.5 0 1.6.3 2.8.8 3.9.5 1 1.4 2 2.6 2.7 1.2.8 2.9 1.6 5 2.3l3.7 1.3A24 24 0 0 1 360 53c2.4 2.8 3.7 6.5 3.7 11 0 3.8-.9 7.1-2.6 9.9a16.3 16.3 0 0 1-7.3 6.3 28.1 28.1 0 0 1-11.7 2.1c-2.3 0-4.6-.1-7.2-.5ZM393.4 73.1v8.5a29 29 0 0 1-6.9.8c-4.7 0-8.3-1.3-10.8-3.8s-3.7-6.5-3.7-12V44h-7v-8h7l1.8-16.3h8.3V36h11v8h-11v21.4c0 2 .2 3.7.7 5 .5 1.1 1.2 2 2.2 2.5a9 9 0 0 0 4 .8c1 0 2.5-.2 4.4-.6ZM401 76.7c-3-3.8-4.7-9.7-4.7-17.7 0-15.8 6.1-23.7 18.3-23.7 5.8 0 10.3 2 13.5 5.8 3.2 3.9 4.7 9.8 4.7 17.8 0 15.7-6 23.5-18.2 23.5-5.9 0-10.4-1.9-13.5-5.7Zm18-3.4c1-.8 2-2.4 2.5-4.7.7-2.3 1-5.5 1-9.5 0-4.2-.4-7.5-1-9.8-.6-2.4-1.4-4-2.6-4.9a6.7 6.7 0 0 0-4.3-1.4c-1.8 0-3.2.5-4.4 1.4-1 .9-2 2.5-2.6 4.8-.6 2.3-.9 5.5-.9 9.6 0 4.2.3 7.4 1 9.7.5 2.3 1.4 3.9 2.5 4.8 1.2 1 2.6 1.4 4.4 1.4 1.8 0 3.2-.5 4.3-1.4ZM439.9 36h8.3l.8 6.3h.5a11.4 11.4 0 0 1 11-6.8c1 0 2 0 3 .2v9.4l-3.6-.2c-2 0-4 .5-5.7 1.4a10 10 0 0 0-4.2 3.9v31.4h-10.1V36ZM500 62H476c.2 3.1.6 5.5 1.4 7.3.8 1.8 2 3 3.7 3.8 1.7.7 4 1 6.7 1 2.9 0 6.2-.4 10-1.5v8.2a46.8 46.8 0 0 1-11.2 1.6c-4.8 0-8.8-.8-11.8-2.4-3-1.6-5.3-4.1-6.8-7.6s-2.2-8-2.2-13.8c0-7.8 1.5-13.6 4.6-17.5 3-3.9 7.4-5.8 13-5.8 11 0 16.5 7.9 16.5 23.6V62Zm-20.4-18.6c-1 .8-1.9 2.2-2.5 4.1-.6 2-1 4.6-1 8h14.4c0-3.3-.4-6-1-8-.5-2-1.2-3.3-2.3-4a6 6 0 0 0-3.7-1.3c-1.6 0-2.9.4-4 1.2Z" fill="#1B1A21"/><path d="M54.7 0a40 40 0 0 1 25.6 20.6c6.5 15.6 5 35.3-2.1 47a30 30 0 0 1-55.7-15 29.8 29.8 0 0 1 41-28s-3.1-1.8-11.4-3.1C28.3 18.4.3 36.4 6.7 77.9a52.1 52.1 0 0 0 97.9-26A52.3 52.3 0 0 0 54.6 0Z" fill="url(#a)"/><path d="M74.2 22A34 34 0 0 0 44.7 3.6c-3.9 0-7.6.5-11.5 1.5A45.3 45.3 0 0 0 13 17.8 52 52 0 0 0 2.5 36l-.1.5c-.2.5-.7 2-.7 2.4 0 .2 0 .6-.2.8l-.4 1.5-.1.4a54.3 54.3 0 0 0 5.4 35.9l2.1 3.5c-7.3-40 13.8-59 37.8-59.5 12.6-.2 25.2 4.9 31.3 15.1-.4-5.6-.8-8.7-3.4-14.4Z" fill="url(#b)"/><defs><linearGradient id="a" x1="86.5" y1="0" x2="10.2" y2="67.2" gradientUnits="userSpaceOnUse"><stop stop-color="#F0F"/><stop offset=".4" stop-color="#A0F"/><stop offset="1" stop-color="#1E0A78"/></linearGradient><linearGradient id="b" x1="38.8" y1="-13.5" x2="85.2" y2="33.6" gradientUnits="userSpaceOnUse"><stop offset="0" stop-color="#F0F"/><stop offset=".5" stop-color="#80C"/><stop offset="1" stop-color="#311B92"/></linearGradient></defs></svg>