<?xml version="1.0" encoding="utf-8"?>
<!-- Generator: Adobe Illustrator 25.0.1, SVG Export Plug-In . SVG Version: 6.00 Build 0)  -->
<svg version="1.1" id="Layer_1" xmlns="http://www.w3.org/2000/svg" xmlns:xlink="http://www.w3.org/1999/xlink" x="0px" y="0px"
	 viewBox="0 0 250 250" style="enable-background:new 0 0 250 250;" xml:space="preserve">
<style type="text/css">
	.st0{fill:#881421;}
	.st1{fill:#AF2031;}
	.st2{fill:#C94F60;}
	.st3{fill:#E08095;}
	.st4{opacity:0.1;enable-background:new    ;}
	.st5{opacity:0.2;enable-background:new    ;}
	.st6{fill:url(#SVGID_1_);}
	.st7{fill:#FFFFFF;}
</style>
<g>
	<path class="st0" d="M90.6,142.9v29.9c0,8.3,22.1,14.9,49.3,14.9s49.3-6.7,49.3-14.9v-29.9H90.6z"/>
	<path class="st1" d="M90.6,110.1v32.9c0,8.3,22.1,14.9,49.3,14.9s49.3-6.7,49.3-14.9v-32.9H90.6z"/>
	<path class="st2" d="M90.6,77.2v32.9c0,8.3,22.1,14.9,49.3,14.9s49.3-6.7,49.3-14.9V77.2H90.6z"/>
	<ellipse class="st3" cx="139.9" cy="77.2" rx="49.3" ry="14.9"/>
	<path class="st4" d="M127,89.1H90.6v74.7H127c3,0,5.5-2.5,5.5-5.5V94.6C132.5,91.6,130,89.1,127,89.1z"/>
	<path class="st5" d="M124,92.1H90.6v74.7H124c3,0,5.5-2.5,5.5-5.5V97.6C129.5,94.6,127,92.1,124,92.1z"/>
	<path class="st5" d="M124,92.1H90.6v68.8H124c3,0,5.5-2.5,5.5-5.5V97.6C129.5,94.6,127,92.1,124,92.1z"/>
	<path class="st5" d="M121,92.1H90.6v68.8H121c3,0,5.5-2.5,5.5-5.5V97.6C126.5,94.6,124,92.1,121,92.1z"/>
	
		<linearGradient id="SVGID_1_" gradientUnits="userSpaceOnUse" x1="72.1546" y1="-1682.2845" x2="115.07" y2="-1607.9569" gradientTransform="matrix(1 0 0 1 0 1770.1207)">
		<stop  offset="0" style="stop-color:#B72C3F"/>
		<stop  offset="0.5" style="stop-color:#B12334"/>
		<stop  offset="1" style="stop-color:#9D1623"/>
	</linearGradient>
	<path class="st6" d="M66.2,92.1H121c3,0,5.5,2.5,5.5,5.5v54.8c0,3-2.5,5.5-5.5,5.5H66.2c-3,0-5.5-2.5-5.5-5.5V97.6
		C60.7,94.6,63.2,92.1,66.2,92.1z"/>
	<path class="st7" d="M89.7,107.2h8.1l13,35.6h-7.6l-2.9-8.5H86.9l-2.8,8.5h-7.6L89.7,107.2z M98.5,128.8l-4.1-12.9
		c-0.3-0.9-0.6-1.9-0.8-2.9h-0.1c-0.2,1-0.4,2-0.7,3l-4.2,12.8L98.5,128.8z"/>
</g>
</svg>
