<?xml version="1.0" encoding="utf-8"?>
<!-- Generator: Adobe Illustrator 25.0.1, SVG Export Plug-In . SVG Version: 6.00 Build 0)  -->
<svg version="1.1" id="Layer_1" xmlns="http://www.w3.org/2000/svg" xmlns:xlink="http://www.w3.org/1999/xlink" x="0px" y="0px"
	 viewBox="0 0 250 250" style="enable-background:new 0 0 250 250;" xml:space="preserve">
<style type="text/css">
	.st0{fill:#4386FA;}
	.st1{opacity:0.1;enable-background:new    ;}
	.st2{fill:#FFFFFF;}
</style>
<g>
	<path class="st0" d="M85,184.8l-31.8-55.1c-1.7-3-1.7-6.5,0-9.5L85,65.2c1.7-3,4.8-4.7,8.2-4.8h63.6c3.4,0,6.5,1.8,8.2,4.8
		l31.8,55.1c1.7,3,1.7,6.5,0,9.5L165,184.8c-1.7,3-4.8,4.7-8.2,4.8H93.2C89.8,189.6,86.7,187.7,85,184.8L85,184.8z"/>
	<path class="st1" d="M144.8,107.3c0,0,8.8,21.2-3.2,33.2c-12,12-34,4.3-34,4.3l44.6,44.8h4.5c3.4,0,6.5-1.8,8.2-4.8l21-36.4
		L144.8,107.3z"/>
	<path class="st2" d="M155.3,150.7l-9.7-9.7c-0.1-0.1-0.2-0.2-0.3-0.3c9-11.6,6.9-28.3-4.7-37.3c-11.6-9-28.3-6.9-37.3,4.7
		s-6.9,28.3,4.7,37.3c9.6,7.4,23,7.4,32.6,0c0,0.1,0.1,0.2,0.2,0.3l9.7,9.7c0.6,0.6,1.6,0.6,2.2,0l2.6-2.6
		C155.9,152.2,155.9,151.2,155.3,150.7z M124.2,144.4c-11,0-20-9-20-20s9-20,20-20s20,9,20,20l0,0
		C144.2,135.4,135.2,144.4,124.2,144.4z M111.4,123.3v8.3c1.3,2.3,3.1,4.1,5.3,5.4v-13.7L111.4,123.3z M121.4,116.4v22.3
		c1.8,0.3,3.6,0.3,5.3,0v-22.3H121.4z M136.9,131.5v-4.9h-5.3V137C133.7,135.6,135.6,133.8,136.9,131.5L136.9,131.5z"/>
</g>
</svg>
