<?xml version="1.0" encoding="utf-8"?>
<!-- Generator: Adobe Illustrator 25.0.1, SVG Export Plug-In . SVG Version: 6.00 Build 0)  -->
<svg version="1.1" id="Layer_1" xmlns="http://www.w3.org/2000/svg" xmlns:xlink="http://www.w3.org/1999/xlink" x="0px" y="0px"
	 viewBox="0 0 250 250" style="enable-background:new 0 0 250 250;" xml:space="preserve">
<style type="text/css">
	.st0{fill:none;}
	.st1{fill:#373535;}
	.st2{fill:#BBE6FB;}
	.st3{opacity:0.35;clip-path:url(#SVGID_2_);}
	.st4{fill:#FFFFFF;}
	.st5{fill:#1287B1;}
	.st6{clip-path:url(#SVGID_4_);}
	.st7{opacity:0.35;clip-path:url(#SVGID_6_);}
	.st8{opacity:0.35;clip-path:url(#SVGID_8_);}
</style>
<polyline class="st0" points="27.8,576.5 27.8,31.4 448.9,31.4 "/>
<g id="g3014">
	<g id="g3020" transform="translate(61.4912,609.1372)">
		<path id="path3022" class="st1" d="M8.6-451.9c1.3,0,2.4,0.3,3,0.9c0.1,0.9-0.7,2.4-1.3,2.4c-0.6-0.2-1.2-0.4-1.9-0.4
			c-3,0-4.5,3.1-4.5,6.2c0,1.9,0.7,3.1,2.2,3.1c1.6,0,3.3-1.1,4.2-1.9c0.2,0.2,0.5,0.7,0.5,1.3c0,0.7-0.2,1.3-0.8,1.9
			c-1.1,1.1-2.8,1.9-5.4,1.9c-3,0-5-1.7-5-5.6C-0.4-447.2,3-451.9,8.6-451.9L8.6-451.9z"/>
	</g>
	<g id="g3024" transform="translate(75.6021,591.6636)">
		<path id="path3026" class="st1" d="M4.2-422.4c1.6,0,4.6-2.8,5.4-8.3c0-0.3,0.1-0.4,0.1-0.8c-0.4-0.1-0.9-0.2-1.4-0.2
			c-1.2,0-2.5,0.4-3.6,1.9c-1.2,1.6-1.7,3.6-1.7,5.3C3.1-423.1,3.5-422.4,4.2-422.4L4.2-422.4z M-1.1-423.8c0-1.9,0.7-5.4,3.1-7.8
			c2.1-2.2,4.7-2.7,7-2.7c1.6,0,3.7,0.5,5,0.8c-0.3,1.5-1.1,6.9-1.5,10.1c-0.2,1.4-0.2,3.2-0.2,3.9c-1.1,0.5-3.1,0.6-3.7,0.6
			c-0.3,0-0.4-1.4-0.3-2.6c0-0.4,0.1-1.1,0.1-1.3c-1.3,2.1-3.8,4-6.5,4C0.1-419-1.1-420.6-1.1-423.8C-1.1-423.8-1.1-423.8-1.1-423.8
			z"/>
	</g>
	<g id="g3028" transform="translate(101.8579,609.1372)">
		<path id="path3030" class="st1" d="M-4-451.9c1.4,0,2.6,0.5,3.2,1.1c0,0.9-0.8,2.5-1.9,2c-0.5-0.2-1-0.3-1.7-0.3
			c-0.9,0-1.7,0.4-1.7,1.2c0,0.6,0.5,1.1,2.7,2.6c1.6,1.2,2.2,2.2,2.2,3.6c0,2.4-2.3,5-6.2,5c-1.6,0-3-0.6-3.5-1.3
			c-0.6-1-0.1-2.9,0.5-2.6c0.9,0.4,2.3,0.9,3.4,0.9c1.1,0,1.8-0.5,1.8-1.2c0-0.6-0.5-1.1-2.5-2.5c-1.7-1.3-2.2-2.4-2.2-3.7
			C-9.8-449.6-7.5-451.9-4-451.9L-4-451.9z"/>
	</g>
	<g id="g3032" transform="translate(118.417,609.1372)">
		<path id="path3034" class="st1" d="M-9.2-451.9c1.4,0,2.6,0.5,3.2,1.1c0,0.9-0.8,2.5-1.9,2c-0.5-0.2-1-0.3-1.7-0.3
			c-0.9,0-1.7,0.4-1.7,1.2c0,0.6,0.5,1.1,2.7,2.6c1.6,1.2,2.2,2.2,2.2,3.6c0,2.4-2.3,5-6.2,5c-1.6,0-3-0.6-3.5-1.3
			c-0.6-1-0.1-2.9,0.5-2.6c0.9,0.4,2.3,0.9,3.4,0.9c1.1,0,1.8-0.5,1.8-1.2c0-0.6-0.5-1.1-2.5-2.5c-1.7-1.3-2.2-2.4-2.2-3.7
			C-15-449.6-12.6-451.9-9.2-451.9L-9.2-451.9z"/>
	</g>
	<g id="g3036" transform="translate(133.5361,591.6636)">
		<path id="path3038" class="st1" d="M-13.9-422.4c1.6,0,4.6-2.8,5.4-8.3c0-0.3,0.1-0.4,0.1-0.8c-0.4-0.1-0.9-0.2-1.4-0.2
			c-1.2,0-2.5,0.4-3.6,1.9c-1.2,1.6-1.7,3.6-1.7,5.3C-15-423.1-14.6-422.4-13.9-422.4L-13.9-422.4z M-19.2-423.8
			c0-1.9,0.7-5.4,3.1-7.8c2.1-2.2,4.7-2.7,7-2.7c1.6,0,3.7,0.5,5,0.8c-0.3,1.5-1.1,6.9-1.5,10.1c-0.2,1.4-0.2,3.2-0.2,3.9
			c-1.1,0.5-3.1,0.6-3.7,0.6c-0.3,0-0.4-1.4-0.3-2.6c0-0.4,0.1-1.1,0.1-1.3c-1.3,2.1-3.8,4-6.5,4C-17.9-419-19.2-420.6-19.2-423.8
			C-19.2-423.8-19.2-423.8-19.2-423.8z"/>
	</g>
	<g id="g3040" transform="translate(158.688,602.897)">
		<path id="path3042" class="st1" d="M-21.7-441.3c1.5-2.4,3.5-4.3,6.3-4.3c2.3,0,3.1,2.2,2.7,5.3c-0.2,1.5-0.6,3.5-0.9,5.5
			c-0.2,1.6-0.4,3.1-0.4,4.1c-0.9,0.4-3.4,0.6-3.9,0.6c-0.2,0-0.3-1.8,0-3.7c0.3-1.6,0.8-4.5,1.1-6.1c0.2-1,0.1-2.1-0.8-2.1
			c-1.2,0-4.1,1.9-5.6,9.9c-0.1,0.7-0.4,1.1-0.7,1.3c-0.5,0.3-1.6,0.6-3.7,0.6c0.4-2,1-6.1,1.5-9.2c0.4-2.8,0.6-4.6,0.5-5.3
			c0.6-0.2,3.5-0.8,3.8-0.8c0.4,0,0.4,1,0.1,3.5C-21.8-441.9-21.8-441.5-21.7-441.3L-21.7-441.3z"/>
	</g>
	<g id="g3044" transform="translate(183.0728,591.7114)">
		<path id="path3046" class="st1" d="M-29.3-422.4c1.5,0,4.4-2.7,5.2-7.5c0-0.3,0.1-0.8,0.2-1.1c-0.4-0.4-1-0.7-1.9-0.7
			c-3.3,0-4.8,4-4.8,6.9C-30.6-423.2-30.1-422.4-29.3-422.4L-29.3-422.4z M-31.5-419c-2.1,0-3.4-1.9-3.4-5.1c0-5.4,3.3-10.3,9-10.3
			c1,0,1.9,0.3,2.4,0.6c0.3-1.5,1-6.2,1-7.6c0.9-0.2,2.9-0.5,3.8-0.5c0.4,0,0.5,0.4,0.3,1.2c-0.8,5-2.2,14.5-2.5,16.6
			c-0.2,1.8-0.2,3.5-0.2,4.5c-1.1,0.5-3.2,0.6-3.8,0.6c-0.2,0-0.4-1.5-0.3-2.9c0-0.4,0.1-1.1,0.1-1.2C-26.7-420.4-29-419-31.5-419
			L-31.5-419z"/>
	</g>
	<g id="g3048" transform="translate(208.0317,602.2241)">
		<path id="path3050" class="st1" d="M-37.1-440.2c1.8-3.9,3.8-4.8,5.2-4.8c0.4,0,1.1,0.3,1.4,0.6c0.1,1.1-0.7,3.3-1.5,4.1
			c-0.4-0.2-0.9-0.4-1.5-0.4c-1.1,0-3.3,1.8-4.7,9.3c-0.1,0.6-0.3,0.9-0.7,1.1c-0.6,0.3-2.8,0.6-3.8,0.6c0.5-2.7,1.4-8.2,1.7-11.5
			c0.1-0.8,0.1-2.3,0.1-2.9c0.6-0.3,3.1-0.9,3.7-0.9C-37-444.9-36.7-443.1-37.1-440.2L-37.1-440.2z"/>
	</g>
	<g id="g3052" transform="translate(224.9751,591.6636)">
		<path id="path3054" class="st1" d="M-42.4-422.4c1.6,0,4.6-2.8,5.4-8.3c0-0.3,0.1-0.4,0.1-0.8c-0.4-0.1-0.9-0.2-1.4-0.2
			c-1.2,0-2.5,0.4-3.6,1.9c-1.2,1.6-1.7,3.6-1.7,5.3C-43.5-423.1-43.1-422.4-42.4-422.4L-42.4-422.4z M-47.7-423.8
			c0-1.9,0.7-5.4,3.1-7.8c2.1-2.2,4.7-2.7,7-2.7c1.6,0,3.7,0.5,5,0.8c-0.3,1.5-1.1,6.9-1.5,10.1c-0.2,1.4-0.2,3.2-0.2,3.9
			c-1.1,0.5-3.1,0.6-3.7,0.6c-0.3,0-0.4-1.4-0.3-2.6c0-0.4,0.1-1.1,0.1-1.3c-1.3,2.1-3.8,4-6.5,4C-46.4-419-47.7-420.6-47.7-423.8
			C-47.7-423.8-47.7-423.8-47.7-423.8z"/>
	</g>
</g>
<polyline class="st0" points="27.8,576.5 27.8,31.4 448.9,31.4 "/>
<g id="g2830">
	<g id="g2836" transform="translate(210.8784,690.4834)">
		<path id="path2838" class="st2" d="M-38-589.2c1.1,12.7-18.9,24.8-44.6,27s-47.5-6.3-48.6-19c-1.1-12.7,18.9-24.8,44.6-27
			C-60.8-610.4-39.1-601.9-38-589.2"/>
	</g>
</g>
<polyline class="st0" points="27.8,576.5 27.8,31.4 448.9,31.4 "/>
<g id="g2842">
	<g id="g2848">
		<g id="g2850">
		</g>
		<g id="g2856">
			<g>
				<defs>
					<rect id="SVGID_1_" x="93.8" y="83.8" width="60.8" height="42.8"/>
				</defs>
				<clipPath id="SVGID_2_">
					<use xlink:href="#SVGID_1_"  style="overflow:visible;"/>
				</clipPath>
				<g id="g2858" class="st3">
					<g id="g2860" transform="translate(141.3843,715.9233)">
						<path id="path2862" class="st4" d="M-16.3-632.1c-9.8-0.2-21.3,3.7-29.9,7.4c-0.9,2.6-1.4,5.3-1.4,8.1
							c0,15.1,13.6,27.3,30.4,27.3s30.4-12.2,30.4-27.3c0-4.8-1.4-9.2-3.8-13.1C2.6-630.8-6.8-632-16.3-632.1"/>
					</g>
				</g>
			</g>
		</g>
	</g>
</g>
<polyline class="st0" points="27.8,576.5 27.8,31.4 448.9,31.4 "/>
<g id="g2866">
	<g id="g2872" transform="translate(140.1528,715.9277)">
		<path id="path2874" class="st4" d="M-15.9-632.1c-5.4-0.3-14.8,2.5-22.6,5.3c-1.2,2.8-1.8,5.9-1.8,9.1c0,13.2,12,23.9,24.6,23.9
			c12.6,0,23.7-10.7,24.6-23.9c0.3-4.3-1.2-8.3-3.2-11.8C-2.5-631-11.1-631.8-15.9-632.1"/>
	</g>
</g>
<polyline class="st0" points="27.8,576.5 27.8,31.4 448.9,31.4 "/>
<g id="g2878">
	<g id="g2884" transform="translate(119.8818,697.4946)">
		<path id="path2886" class="st1" d="M-9.6-601c0.7-1.5,1.7-2.2,2.7-3.4c-0.1-0.3-0.3-1.3-0.3-1.6c0-1.5,1.2-2.7,2.7-2.7
			c0.4,0,0.7,0.1,1,0.2c4.4-3.4,10.3-4.9,16.2-3.6c0.5,0.1,1.1,0.3,1.6,0.4c-5.8-0.8-12.4,1.3-16.8,4.9c0.1,0.3,0.5,1.2,0.5,1.6
			c0,1.5-1,1.8-2.4,1.8c-0.3,0-0.7-0.1-1-0.2c-1,1.4-2.2,3.9-2.8,5.5c2.5,2.2,4.7,3,7.6,4.1c0-0.1,0.1-0.3,0.1-0.4
			c0-4.5,3.9-8.1,8.4-8.1c4,0,7.3,2.9,8,6.7c2-1.3,3.9-2.2,5.4-4.1c-0.3-0.4-0.7-1.6-0.7-2.2c0-1.3,1.1-2.4,2.4-2.4
			c0.2,0,0.4,0,0.6,0.1c0.7-1.5,1.3-3.2,1.7-4.9c-7-5.2-20.5-4.5-20.5-4.5s-10.8-0.6-18.1,3C-13.1-607.2-11.7-603.8-9.6-601"/>
	</g>
	<g id="g2888" transform="translate(168.4907,700.4282)">
		<path id="path2890" class="st1" d="M-24.8-606c0.5,0.4,0.8,0.8,1,1.2c0.7,1.2-0.7,2.3-2,2.3c-0.1,0-0.3,0-0.4,0
			c-1.5,2.4-4.2,5.4-6.5,6.9c3.6,0.6,7,2,9.8,4.3c2-3.5,3.5-8.7,3.5-13c0-3.3-1.5-5.7-3.7-7.5C-23.3-610.1-24.2-607.6-24.8-606"/>
	</g>
	<g id="g2892" transform="translate(125.7842,667.8032)">
		<path id="path2894" class="st1" d="M-11.5-550.9c1.2-3.3,4.2-5.9,7-8.2c-0.4-0.6-1-2-1.3-2.6c-3.4-1-6.5-3-8.8-5.6
			c0,0.1,0,0.1-0.1,0.2c-0.4,2-0.5,4-0.3,5.9c1.6,0.3,2.9,1.7,2.9,3.5c0,1-0.9,2.5-1.6,3.2C-12.9-552.9-12.4-552.1-11.5-550.9"/>
	</g>
	<g id="g2896" transform="translate(125.4756,663.7393)">
		<path id="path2898" class="st1" d="M-11.4-544c-1.4-1.4-2.4-4.3-3.4-6.1c-0.2,0-0.4,0-0.5,0c-2,0-4-1.6-3.5-3.5
			c0.3-1,1-1.7,2.2-2.3c-0.3-2.2-0.3-5.3,0.2-7.6c0.1-0.6,0.5-0.9,0.7-1.6c-2.2-3.2-3.5-7.3-3.5-11.4c0-0.2,0-0.3,0-0.4
			c-3.6,1.8-6.4,4.7-6.4,9.2C-25.7-557.6-20-547.8-11.4-544C-11.4-544-11.4-544-11.4-544"/>
	</g>
	<g id="g2900" transform="translate(156.1313,683.8511)">
		<path id="path2902" class="st1" d="M-20.9-578c-1.1,3.2-4.1,5.4-7.6,5.4c-1.9,0-3.6-0.7-5-1.7c-2.8,2.2-5.4,6.1-6.7,9.5
			c0.6,0.6,1,1.2,1.7,1.7c2,0.5,4.7,0,6.9,0c8.7,0,16.3-3.8,20.7-10.6C-14-575.7-17.4-577.7-20.9-578"/>
	</g>
</g>
<polyline class="st0" points="27.8,576.5 27.8,31.4 448.9,31.4 "/>
<g id="g2906">
	<g id="g2912" transform="translate(119.5596,695.7944)">
		<path id="path2914" class="st5" d="M-9.5-598.2c0.7-1.5,1.5-2.8,2.5-4.1c-0.1-0.3-0.2-0.6-0.2-0.9c0-1.5,1.2-2.7,2.7-2.7
			c0.4,0,0.7,0.1,1,0.2c4.4-3.4,10.3-4.9,16.2-3.6c0.5,0.1,1.1,0.3,1.6,0.4c-5.8-0.8-11.8,1-16.3,4.6c0.1,0.3,0.2,0.7,0.2,1
			c0,1.5-1.2,2.7-2.7,2.7c-0.3,0-0.7-0.1-1-0.2c-1,1.4-1.8,2.8-2.4,4.5c2.1,2.3,4.7,4.1,7.6,5.2c0-0.1,0-0.3,0-0.4
			c0-4.5,3.6-8.1,8.1-8.1c4,0,7.3,2.9,8,6.7c2-1.3,3.8-2.9,5.3-4.8c-0.3-0.4-0.6-0.9-0.6-1.5c0-1.3,1.1-2.4,2.4-2.4
			c0.2,0,0.4,0,0.6,0.1c0.7-1.5,1.3-3.2,1.7-4.9c-7-5.2-20.5-4.5-20.5-4.5s-10.8-0.6-18.1,3C-13-604.3-11.6-601-9.5-598.2"/>
	</g>
	<g id="g2916" transform="translate(169.0396,699.8481)">
		<path id="path2918" class="st5" d="M-24.9-605c0.5,0.4,0.8,1.1,0.8,1.8c0,1.3-1.1,2.4-2.4,2.4c-0.1,0-0.3,0-0.4,0
			c-1.5,2.4-3.5,4.4-5.9,5.9c3.5,0.5,6.8,2,9.5,4.3c2-3.5,3.1-7.6,3.1-12c0-3.3-1.5-5.7-3.7-7.5C-24-608.3-24.4-606.6-24.9-605"/>
	</g>
	<g id="g2920" transform="translate(126.3252,666.6401)">
		<path id="path2922" class="st5" d="M-11.6-548.9c1.2-3.3,3.3-6.3,6.1-8.6c-0.4-0.6-0.7-1.2-1-1.8c-3.4-1-6.5-3-8.8-5.6
			c0,0.1,0,0.1-0.1,0.2c-0.4,2-0.5,4-0.3,5.9c1.6,0.3,2.9,1.7,2.9,3.5c0,1-0.4,1.9-1.1,2.6C-13.3-551.4-12.5-550.1-11.6-548.9"/>
	</g>
	<g id="g2924" transform="translate(125.4619,663.7983)">
		<path id="path2926" class="st5" d="M-11.4-544.1c-1.4-1.4-2.6-3.1-3.6-4.9c-0.2,0-0.4,0-0.5,0c-2,0-3.5-1.6-3.5-3.5
			c0-1.4,0.8-2.6,2-3.2c-0.3-2.2-0.2-4.4,0.3-6.7c0.1-0.6,0.3-1.3,0.5-1.9c-2.2-3.2-3.4-7-3.4-11.1c0-0.2,0-0.3,0-0.4
			c-3.6,1.8-6.4,4.7-6.4,9.2C-25.9-556.5-20-547.9-11.4-544.1C-11.4-544.1-11.4-544.1-11.4-544.1"/>
	</g>
	<g id="g2928" transform="translate(155.8091,682.1509)">
		<path id="path2930" class="st5" d="M-20.8-575.1c-1.1,3.2-4.1,5.4-7.6,5.4c-1.9,0-3.6-0.7-5-1.7c-2.8,2.2-5,5.2-6.3,8.6
			c0.6,0.6,1.2,1.2,1.9,1.8c2,0.5,4.1,0.8,6.2,0.8c8.7,0,16.3-4.5,20.6-11.2C-13.9-573.5-17.3-574.8-20.8-575.1"/>
	</g>
</g>
<polyline class="st0" points="27.8,576.5 27.8,31.4 448.9,31.4 "/>
<g id="g2934">
	<g id="g2940">
		<g id="g2942">
		</g>
		<g id="g2948">
			<g>
				<defs>
					<rect id="SVGID_3_" x="111.2" y="89" width="31.6" height="31.6"/>
				</defs>
				<clipPath id="SVGID_4_">
					<use xlink:href="#SVGID_3_"  style="overflow:visible;"/>
				</clipPath>
				<g id="g2950" class="st6">
					<g id="g2952" transform="translate(156.2222,685.187)">
						<path id="path2954" class="st4" d="M-20.9-580.2l7.5-1.8l-7.5-0.4l6.1-4.7l-6.9,2.5l4.7-6.5l-6.5,4.3l2.3-7.7l-4.5,6.3l-0.1-8
							l-2.9,7.1l-2.5-7.2l0.1,8.5l-4.2-7.6l2.3,8.1l-6.9-5l5.4,6.8l-8.5-3.1l6.7,5l-8.6,0.3l8.8,2.3l-8.8,1.9l8.7,0.6l-7.4,4.7
							l7.6-2.7l-5.3,6.7l6.6-5.4l-2.4,8.9l5.1-7.3l-0.7,8.6l2.9-7.8l2.5,8.2l0.6-8.2l3.7,7l-2.2-8l6.7,5.2l-4.4-6.7l7.4,2.9
							l-5.7-5.6l7.6,0.6L-20.9-580.2z"/>
					</g>
				</g>
			</g>
		</g>
	</g>
</g>
<polyline class="st0" points="27.8,576.5 27.8,31.4 448.9,31.4 "/>
<g id="g2958">
	<g id="g2964">
		<g id="g2966">
		</g>
		<g id="g2972">
			<g>
				<defs>
					<rect id="SVGID_5_" x="55.6" y="76.7" width="146.2" height="42.5"/>
				</defs>
				<clipPath id="SVGID_6_">
					<use xlink:href="#SVGID_5_"  style="overflow:visible;"/>
				</clipPath>
				<g id="g2974" class="st7">
					<g id="g2976" transform="translate(40.4033,664.3701)">
						<path id="path2978" class="st1" d="M15.2-545.1c23.2-23.2,41.8-30.4,58.6-33.7c2.2-0.4,2.6-5.3,2.6-5.3s0.3,3.6,1.9,4.1
							c1.6,0.5,3.6-5.6,3.6-5.6s-1.9,5.5,0,5.8c1.9,0.3,5.3-5.3,5.3-5.3s-1.4,4.8-0.5,5.1c0.9,0.3,5.6-7,5.6-7s-2.8,4.8-0.2,5.3
							c2.7,0.5,6.5-3.3,6.5-3.3s-3,3.4-1.7,3.9c5.8,2,10.4-5.5,10.4-5.5s-1.1,3.3-3.9,6.9c6.1,1.6,10.6-7.6,10.6-7.6l-4.5,9.2
							c2.3,1.2,11.7-9.5,11.7-9.5s-4.8,8.4-7.6,10.1c1.6,1.2,7.2-3.7,7.2-3.7s-4.5,5.6-2.8,5.9c2.5,2,11.7-10.4,11.7-10.4
							s-3.6,7.3-8.9,13.1c4.4,2.2,15.4-12,15.4-12s-0.3,4.5-8.3,11.7c5.9-0.8,13.6-12,13.6-12s-2.8,8.4-9.5,14.3
							c5.8-0.6,15.1-15,15.1-15s-3.6,10-10.9,15.7c8.1,1.8,19.8-10.3,19.8-10.3s-4.6,8.6-10.6,12.1c6.7,2.6,15.9-8,15.9-8
							s-9.2,14.2-23.8,13.6c-4.8-0.2-19.3-14.6-50.5-13.4C45.9-574.4,37.1-556.9,15.2-545.1"/>
					</g>
				</g>
			</g>
		</g>
	</g>
	<g id="g2980" transform="translate(41.7861,666.9326)">
		<path id="path2982" class="st1" d="M14.7-549.4c23.2-23.2,41.8-30.4,58.6-33.7c2.2-0.4,2.6-5.3,2.6-5.3s0.3,3.6,1.9,4.1
			c1.6,0.5,3.6-5.6,3.6-5.6s-1.9,5.5,0,5.8c1.9,0.3,5.3-5.3,5.3-5.3s-1.4,4.8-0.5,5.1c0.9,0.3,5.6-7,5.6-7s-2.8,4.8-0.2,5.3
			c2.6,0.5,6.5-3.3,6.5-3.3s-3,3.4-1.7,3.9c5.8,2,10.4-5.5,10.4-5.5s-1.1,3.3-3.9,6.9c6.1,1.6,10.6-7.6,10.6-7.6l-4.5,9.2
			c2.3,1.2,11.7-9.5,11.7-9.5s-4.8,8.4-7.6,10.1c1.6,1.2,7.2-3.7,7.2-3.7s-4.5,5.6-2.8,5.9c2.5,2,11.7-10.4,11.7-10.4
			s-3.6,7.3-8.9,13.1c4.4,2.2,15.4-12,15.4-12s-0.3,4.5-8.3,11.7c5.9-0.8,13.6-12,13.6-12s-2.8,8.4-9.5,14.3
			c5.8-0.6,15.1-15,15.1-15s-3.6,10-10.9,15.7c8.1,1.8,19.8-10.3,19.8-10.3s-4.6,8.6-10.6,12.1c6.7,2.6,15.9-8,15.9-8
			s-9.2,14.2-23.8,13.6c-4.8-0.2-19.3-14.6-50.5-13.4C45.4-578.7,36.7-561.3,14.7-549.4"/>
	</g>
</g>
<polyline class="st0" points="27.8,576.5 27.8,31.4 448.9,31.4 "/>
<g id="g2986">
	<g id="g2992">
		<g id="g2994">
		</g>
		<g id="g3000">
			<g>
				<defs>
					<rect id="SVGID_7_" x="55" y="102.6" width="137.2" height="50.8"/>
				</defs>
				<clipPath id="SVGID_8_">
					<use xlink:href="#SVGID_7_"  style="overflow:visible;"/>
				</clipPath>
				<g id="g3002" class="st8">
					<g id="g3004" transform="translate(39.5195,660.6802)">
						<path id="path3006" class="st1" d="M15.4-538.9c12.3,6.2,23.5-0.9,37.6,3.1c10.8,3,23.8,6.8,41.6,4.2
							c17.8-2.6,33-10.3,40.2-24.1c2.3-6.2,11.5,1.4,11.5,1.4s-6.7-2.8-6.5-1.5c0.2,1.3,10.1,5.9,10.1,5.9s-9-2.8-8.4-0.7
							c0.5,2.1,11.2,10.5,11.2,10.5s-12.1-9.2-13.1-7.9c-1,1.2,5.1,6.3,5.1,6.3s-10.2-6.3-13.8-4.5c-2.6,1.3,10.6,10,10.6,10
							s-8.6-6.5-10.6-4.8c-2,1.7,9.7,15.7,9.7,15.7s-13.2-14.3-14.6-13.6c-1.3,0.7,3.7,7.6,3.7,7.6s-6.5-7.2-8.3-5.9
							c-1.8,1.2,9.3,19.9,9.3,19.9s-12.1-19.1-17.1-15.9c7.8,17.2,4.9,19.6,4.9,19.6s-1-17.5-10.8-17.1c-4.9,0.2,2.3,13.1,2.3,13.1
							s-6.7-11.7-11.1-11.5c8.2,15.5,5.3,21.8,5.3,21.8s1.4-13.2-9.7-20.6c4.2,3.7-2.6,20.6-2.6,20.6s6-24.8-4.4-20.1
							c-1.7,0.7-0.1,12.4-0.1,12.4s-2.1-13.3-5.3-12.6c-1.8,0.4-11.7,18.5-11.7,18.5s8.1-19.5,5.6-18.7c-1.8,0.6-5.1,8.6-5.1,8.6
							s1.6-7.9,0-8.4c-1.6-0.5-10.8,8.4-10.8,8.4s6.8-7.9,5.6-9.6c-1.8-2.5-3.8-2.6-6.3-1.6c-3.6,1.4-8.4,7.9-8.4,7.9s4.8-6.6,4-9.1
							c-1.4-4-15.2,7.7-15.2,7.7s8.2-7.7,6.3-9.4c-1.9-1.6-12-1.1-15.2-1.1C21.5-534.4,18.3-536.6,15.4-538.9"/>
					</g>
				</g>
			</g>
		</g>
	</g>
	<g id="g3008" transform="translate(38.8408,662.7183)">
		<path id="path3010" class="st1" d="M15.7-542.3c12.3,6.2,23.5-0.9,37.6,3.1c10.8,3,23.8,6.8,41.6,4.2c17.8-2.6,33-10.3,40.2-24.1
			c2.3-6.2,11.5,1.4,11.5,1.4s-6.7-2.8-6.5-1.5c0.2,1.3,10.1,5.9,10.1,5.9s-9-2.8-8.4-0.7c0.5,2.1,11.2,10.5,11.2,10.5
			s-12.1-9.2-13.1-7.9c-1,1.2,5.1,6.3,5.1,6.3s-10.2-6.3-13.8-4.5c-2.6,1.3,10.6,10,10.6,10s-8.6-6.5-10.6-4.8
			c-2,1.7,9.7,15.7,9.7,15.7s-13.2-14.3-14.6-13.6c-1.3,0.7,3.7,7.6,3.7,7.6s-6.5-7.2-8.3-5.9c-1.8,1.2,9.3,19.9,9.3,19.9
			s-12.1-19.1-17.1-15.9c7.8,17.2,4.9,19.6,4.9,19.6s-1-17.5-10.8-17.1c-4.9,0.2,2.3,13.1,2.3,13.1s-6.7-11.7-11.1-11.5
			c8.2,15.5,5.3,21.8,5.3,21.8s1.4-13.2-9.7-20.6c4.2,3.7-2.6,20.6-2.6,20.6s6-24.8-4.4-20.1c-1.7,0.7-0.1,12.4-0.1,12.4
			s-2.1-13.3-5.3-12.6c-1.8,0.4-11.7,18.5-11.7,18.5s8.1-19.5,5.6-18.7c-1.8,0.6-5.1,8.6-5.1,8.6s1.6-7.9,0-8.4
			c-1.6-0.5-10.8,8.4-10.8,8.4s6.8-7.9,5.6-9.6c-1.8-2.5-3.8-2.6-6.3-1.6c-3.6,1.4-8.4,7.9-8.4,7.9s4.8-6.6,4-9.1
			c-1.4-4-15.2,7.7-15.2,7.7s8.2-7.7,6.3-9.3c-1.9-1.6-12-1.1-15.2-1.1C21.7-537.9,18.5-540.1,15.7-542.3"/>
	</g>
</g>
</svg>
