<?xml version="1.0" encoding="utf-8"?>
<!-- Generator: Adobe Illustrator 25.0.1, SVG Export Plug-In . SVG Version: 6.00 Build 0)  -->
<svg version="1.1" id="Layer_1" xmlns="http://www.w3.org/2000/svg" xmlns:xlink="http://www.w3.org/1999/xlink" x="0px" y="0px"
	 viewBox="0 0 250 250" style="enable-background:new 0 0 250 250;" xml:space="preserve">
<style type="text/css">
	.st0{clip-path:url(#SVGID_2_);}
	.st1{fill:#D4E5F1;}
	.st2{fill:#CADBE9;}
	.st3{fill:#ABC1D7;}
	.st4{fill:#95B0C4;}
	.st5{fill:#EAE735;}
	.st6{fill:#ED5248;}
	.st7{fill:#DEEAF5;}
	.st8{fill:#E0E9F5;}
	.st9{opacity:0.1;enable-background:new    ;}
	.st10{fill:#FFFFFF;}
	.st11{fill:url(#SVGID_3_);}
	.st12{fill:url(#SVGID_4_);}
	.st13{fill:url(#SVGID_5_);}
	.st14{fill:url(#SVGID_6_);}
	.st15{fill:url(#SVGID_7_);}
	.st16{fill:#414242;}
	.st17{fill:url(#SVGID_8_);}
	.st18{fill:url(#SVGID_9_);}
	.st19{fill:url(#SVGID_10_);}
	.st20{fill:url(#SVGID_11_);}
</style>
<g>
	<defs>
		<rect id="SVGID_1_" x="37" y="100.8" width="176" height="48.3"/>
	</defs>
	<clipPath id="SVGID_2_">
		<use xlink:href="#SVGID_1_"  style="overflow:visible;"/>
	</clipPath>
	<g class="st0">
		<path class="st1" d="M122.9,111.6l-22.2,33.7l-37.4-11.2L122.9,111.6z"/>
		<path class="st2" d="M70.3,149.2l-7-15.1l37.4,11.2L70.3,149.2z"/>
		<path class="st3" d="M37.1,109.1l26.2,25l-7.1,4.9L37.1,109.1z"/>
		<path class="st4" d="M70.3,149.2l-7-15.1l-7.1,4.9L70.3,149.2z"/>
		<path class="st5" d="M59.1,130.1l16-29.2l-2.5,29.7l-9.3,3.5L59.1,130.1z"/>
		<path class="st6" d="M91.8,123.3l-16.7-22.5l-2.5,29.7L91.8,123.3z"/>
		<path class="st7" d="M122.9,111.6l-33.7,8.4l2.6,3.4L122.9,111.6z"/>
		<path class="st8" d="M66.5,116.5l-29.4-7.5l22,21L66.5,116.5z"/>
		<path class="st9" d="M62.7,115.6l-3.6,14.5l7.4-13.5L62.7,115.6z"/>
		<path class="st9" d="M90.7,119.6l1.1,3.7l-2.6-3.4L90.7,119.6z"/>
		<path class="st9" d="M75.1,100.8l1.4,28.3l-3.9,1.5L75.1,100.8z"/>
		<path class="st9" d="M70.7,131.3l4.4-30.5l-2.5,29.7L70.7,131.3z"/>
		<path class="st10" d="M63.3,134.3L37,109.2l0.2-0.2l26.2,24.9l59.5-22.5l0.1,0.3L63.3,134.3z"/>
		
			<linearGradient id="SVGID_3_" gradientUnits="userSpaceOnUse" x1="132.9901" y1="106.2067" x2="140.1716" y2="106.2067" gradientTransform="matrix(1 0 0 -1 0 249)">
			<stop  offset="0" style="stop-color:#999999"/>
			<stop  offset="1" style="stop-color:#000000"/>
		</linearGradient>
		<path class="st11" d="M133,146.3c1.3-0.2,2.5-0.5,3.5-1c1.4-0.8,2.6-1.8,3.7-3l-3-3L133,146.3z"/>
		
			<linearGradient id="SVGID_4_" gradientUnits="userSpaceOnUse" x1="135.0303" y1="121.7832" x2="140" y2="121.7832" gradientTransform="matrix(1 0 0 -1 0 249)">
			<stop  offset="0" style="stop-color:#999999"/>
			<stop  offset="1" style="stop-color:#000000"/>
		</linearGradient>
		<path class="st12" d="M136.9,130.6l3.1-3.4c-1-1.1-2.2-2.1-3.6-2.8c-0.4-0.2-0.9-0.4-1.3-0.5l1.6,6.5
			C136.7,130.4,136.8,130.5,136.9,130.6z"/>
		
			<linearGradient id="SVGID_5_" gradientUnits="userSpaceOnUse" x1="146.2124" y1="109.0615" x2="160.7627" y2="123.6117" gradientTransform="matrix(1 0 0 -1 0 249)">
			<stop  offset="0" style="stop-color:#999999"/>
			<stop  offset="1" style="stop-color:#000000"/>
		</linearGradient>
		<path class="st13" d="M156.4,132.8l8.8-9H159l-9.2,9.8v6l3.1-3.2L156.4,132.8z"/>
		
			<linearGradient id="SVGID_6_" gradientUnits="userSpaceOnUse" x1="147.3109" y1="143.4885" x2="147.3109" y2="109.8497" gradientTransform="matrix(1 0 0 -1 0 249)">
			<stop  offset="0" style="stop-color:#999999"/>
			<stop  offset="1" style="stop-color:#000000"/>
		</linearGradient>
		<path class="st14" d="M149.9,131.8v-16.4h-5.1v30.5h5.1V143v-3.4v-6V131.8z"/>
		
			<linearGradient id="SVGID_7_" gradientUnits="userSpaceOnUse" x1="150.6452" y1="121.1383" x2="162.8483" y2="102.1861" gradientTransform="matrix(1 0 0 -1 0 249)">
			<stop  offset="0" style="stop-color:#999999"/>
			<stop  offset="1" style="stop-color:#000000"/>
		</linearGradient>
		<path class="st15" d="M153,136.4l6.6,9.5h5.8l-9.1-13.1L153,136.4z"/>
		<path class="st16" d="M177.5,123.5c-1.8,0-3.4,0.2-4.6,0.5c-1.3,0.3-2.5,0.8-3.8,1.3l1.4,4c1-0.4,2-0.8,3-1c1-0.3,2.1-0.4,3.3-0.4
			c1.8,0,3.1,0.4,4,1.2c0.9,0.8,1.4,2,1.4,3.5v0.5v3.2c0,0,0.1,0,0.1,0v1.4c0,0.3,0,0.6-0.1,0.9v7.1h5v-13.1c0-3-0.8-5.2-2.4-6.9
			C183.2,124.3,180.8,123.5,177.5,123.5z"/>
		
			<linearGradient id="SVGID_8_" gradientUnits="userSpaceOnUse" x1="187.7618" y1="109.6709" x2="173.5161" y2="109.6709" gradientTransform="matrix(1 0 0 -1 0 249)">
			<stop  offset="0" style="stop-color:#999999"/>
			<stop  offset="1" style="stop-color:#000000"/>
		</linearGradient>
		<path class="st17" d="M181.8,139.8c-0.3,0.6-0.7,1.1-1.2,1.5c-0.5,0.4-1.1,0.7-1.9,0.9c-0.7,0.2-1.5,0.3-2.3,0.3
			c-1.2,0-2.2-0.3-3-0.8c-0.8-0.6-1.2-1.4-1.2-2.4v-0.1c0-1.1,0.4-2,1.3-2.6c0.9-0.6,2.1-0.9,3.7-0.9c1,0,1.9,0.1,2.8,0.3
			c0.8,0.2,1.6,0.4,2.2,0.6v-3.2c-0.9-0.3-1.8-0.5-2.7-0.7c-0.9-0.2-2.1-0.3-3.4-0.3c-1.3,0-2.5,0.2-3.6,0.4c-1.1,0.3-2,0.7-2.8,1.3
			c-0.8,0.6-1.4,1.3-1.9,2.2c-0.4,0.9-0.7,1.9-0.7,3.1v0.1c0,1.1,0.2,2.1,0.6,3c0.4,0.8,1,1.6,1.7,2.1c0.7,0.6,1.5,1,2.5,1.3
			c0.9,0.3,2,0.4,3,0.4c1.7,0,3.1-0.3,4.3-0.9c1.2-0.6,2.1-1.4,2.9-2.3v2.7h0v-7.1C182.1,139.1,182,139.5,181.8,139.8z"/>
		
			<linearGradient id="SVGID_9_" gradientUnits="userSpaceOnUse" x1="193.0251" y1="114.3574" x2="210.5046" y2="114.3574" gradientTransform="matrix(1 0 0 -1 0 249)">
			<stop  offset="0" style="stop-color:#999999"/>
			<stop  offset="1" style="stop-color:#000000"/>
		</linearGradient>
		<path class="st18" d="M211,125.7c-1.4-1.5-3.3-2.3-5.8-2.3c-0.9,0-1.6,0.1-2.3,0.3c-0.7,0.2-1.3,0.5-1.9,0.9
			c-0.6,0.4-1.1,0.8-1.5,1.2c-0.4,0.5-0.8,1-1.2,1.5v6.2c0-1.7,0.5-3.1,1.4-4c0.9-1,2.1-1.4,3.6-1.4c1.5,0,2.6,0.5,3.5,1.4
			s1.2,2.3,1.2,4v12.5h5.1v-14C213,129.3,212.3,127.2,211,125.7z"/>
		
			<linearGradient id="SVGID_10_" gradientUnits="userSpaceOnUse" x1="195.7431" y1="132.5435" x2="195.7431" y2="101.1042" gradientTransform="matrix(1 0 0 -1 0 249)">
			<stop  offset="0" style="stop-color:#999999"/>
			<stop  offset="1" style="stop-color:#000000"/>
		</linearGradient>
		<path class="st19" d="M198.3,123.8h-5.1v22.1h5.1v-10.1v-2.3v-6.2V123.8z"/>
		<path class="st16" d="M126.6,129.9c0.6-0.6,1.2-1.1,2-1.5c0.8-0.4,1.6-0.6,2.5-0.6c1.3,0,2.4,0.3,3.2,0.8c0.8,0.5,1.6,1.1,2.3,1.8
			l-1.6-6.5c-1.1-0.3-2.4-0.5-3.8-0.5c-1.7,0-3.2,0.3-4.6,0.9c-1.4,0.6-2.6,1.4-3.6,2.5c-1,1.1-1.8,2.3-2.4,3.7
			c-0.6,1.4-0.9,2.9-0.9,4.5s0.3,3.1,0.9,4.5l4.8-7.5C125.7,131.2,126.1,130.5,126.6,129.9z"/>
		
			<linearGradient id="SVGID_11_" gradientUnits="userSpaceOnUse" x1="128.2142" y1="118.9098" x2="129.5085" y2="100.05" gradientTransform="matrix(1 0 0 -1 0 249)">
			<stop  offset="0" style="stop-color:#999999"/>
			<stop  offset="1" style="stop-color:#000000"/>
		</linearGradient>
		<path class="st20" d="M137.1,139.3c-0.8,0.8-1.7,1.5-2.6,2c-0.9,0.5-2,0.8-3.2,0.8c-1,0-1.9-0.2-2.7-0.6c-0.8-0.4-1.5-0.9-2.1-1.5
			s-1-1.4-1.4-2.3c-0.3-0.9-0.5-1.8-0.5-2.8c0-1,0.2-1.9,0.5-2.7c0-0.1,0.1-0.1,0.1-0.2l-4.8,7.5c0.6,1.4,1.4,2.6,2.4,3.6
			c1,1,2.2,1.9,3.6,2.5c1.4,0.6,2.9,0.9,4.6,0.9c0.7,0,1.3,0,1.9-0.1L137.1,139.3L137.1,139.3z"/>
	</g>
</g>
</svg>
