<?xml version="1.0" encoding="utf-8"?>
<!-- Generator: Adobe Illustrator 25.0.1, SVG Export Plug-In . SVG Version: 6.00 Build 0)  -->
<svg version="1.1" id="Layer_1" xmlns="http://www.w3.org/2000/svg" xmlns:xlink="http://www.w3.org/1999/xlink" x="0px" y="0px"
	 viewBox="0 0 250 250" style="enable-background:new 0 0 250 250;" xml:space="preserve">
<style type="text/css">
	.st0{fill:url(#SVGID_1_);}
</style>
<linearGradient id="SVGID_1_" gradientUnits="userSpaceOnUse" x1="123.7829" y1="44.6379" x2="134.7394" y2="184.7248">
	<stop  offset="0" style="stop-color:#1D1B2C"/>
	<stop  offset="0.3547" style="stop-color:#23428B"/>
	<stop  offset="0.7011" style="stop-color:#45B7E9"/>
	<stop  offset="1" style="stop-color:#62268A"/>
</linearGradient>
<path class="st0" d="M101.9,111.4c3.7,6.1,8.3,11.7,13.6,16.5c3.7,3.4,5.9,8.2,5.9,13.2v38.6C101.8,162.9,94.2,136.1,101.9,111.4
	 M128.6,141.1c0-5,2.1-9.8,5.9-13.2c5.3-4.8,9.9-10.3,13.6-16.5c2,6.2,3,12.7,3,19.3c0,18.8-8.2,36.6-22.4,48.9l0,0v-38.5H128.6z
	 M112,113.3c-4.8-6.4-4.8-15.2,0-21.6c3.7-4.9,8-9.2,12.9-12.9c5,3.7,9.4,8.1,13.2,13.1c4.7,6.3,4.7,14.9,0,21.2
	c-3.7,5-8.2,9.4-13.2,13.1C120.1,122.7,115.7,118.2,112,113.3 M163.5,58.8c-13.7,0-27,3.9-38.5,11.3c-11.5-7.3-24.8-11.2-38.4-11.3
	h-0.2h-0.1c-4.8,0-9.7,0.5-14.5,1.5l1.8,7.1c4.2-0.8,8.5-1.3,12.7-1.3c11.3,0,22.4,2.9,32.2,8.5c-31,24.9-35.9,70.2-11,101.2
	c4.4,5.5,9.6,10.3,15.4,14.3l2.1,1.4l2.1-1.4c14.5-10,24.9-24.9,29.2-42c6.8-27.2-2.9-55.9-24.8-73.5c13.6-7.8,29.6-10.3,44.9-7.3
	l1.8-7.1c-4.8-1-9.6-1.5-14.5-1.6C163.6,58.8,163.5,58.8,163.5,58.8"/>
</svg>
