<?xml version="1.0" encoding="utf-8"?>
<!-- Generator: Adobe Illustrator 25.0.1, SVG Export Plug-In . SVG Version: 6.00 Build 0)  -->
<svg version="1.1" id="Layer_1" xmlns="http://www.w3.org/2000/svg" xmlns:xlink="http://www.w3.org/1999/xlink" x="0px" y="0px"
	 viewBox="0 0 250 250" style="enable-background:new 0 0 250 250;" xml:space="preserve">
<style type="text/css">
	.st0{fill:#ED2226;}
</style>
<g>
	<path class="st0" d="M125,60.6c-35.5,0-64.4,28.8-64.4,64.4c0,35.5,28.8,64.4,64.4,64.4c35.5,0,64.4-28.8,64.4-64.4
		S160.5,60.6,125,60.6L125,60.6z M168.5,136.3c0,3.9-2.2,7.3-6.6,8.1c-7.6,1.4-23.5,2.1-36.8,2.1s-29.3-0.8-36.8-2.1
		c-4.4-0.8-6.6-4.2-6.6-8.1v-25.1c0-3.9,3-7.5,6.6-8.1c2.2-0.4,7.5-0.8,11.6-0.8c1.5,0,2.8,1.2,2.8,3v17.6l22.6-0.5l22.6,0.5v-17.6
		c0-1.8,1.3-3,2.8-3c4.1,0,9.3,0.4,11.6,0.8c3.7,0.6,6.6,4.2,6.6,8.1C168.5,119.5,168.5,127.9,168.5,136.3L168.5,136.3z"/>
</g>
</svg>
