<svg width="191" height="69" viewBox="0 0 191 69" fill="none" xmlns="http://www.w3.org/2000/svg">
<path d="M34.5 3.5C30.6 3.5 27.5 6.6 27.5 10.5V19.2C27.4 19.2 27.3 19.2 27.1 19.2H14.1C11.2 19.2 8.40001 20.4 6.40001 22.4C4.40001 24.4 3.20001 27.2 3.20001 30.1V53.5C3.20001 56.4 4.30001 59.1 6.40001 61.2C8.50001 63.3 11.2 64.4 14.1 64.4H30.7C33.6 64.4 36.3 63.2 38.4 61.1C40.4 59.1 41.5 56.3 41.5 53.4V10.4C41.5 6.7 38.4 3.5 34.5 3.5ZM27.5 50.5H17.3V33.3H27.1C27.2 33.3 27.3 33.3 27.5 33.3V50.5Z" fill="#29E3C1"/>
<path d="M175.8 50.5H170.7V33.6H175.5C179.4 33.6 182.5 30.5 182.5 26.6C182.5 22.7 179.4 19.6 175.5 19.6H170.7V10.6C170.7 6.69998 167.6 3.59998 163.7 3.59998C159.8 3.59998 156.7 6.69998 156.7 10.6V19.6H151.3C147.4 19.6 144.3 22.7 144.3 26.6C144.3 30.5 147.4 33.6 151.3 33.6H156.7V56.9C156.7 57.1 156.6 57.3 156.6 57.5C156.6 61.4 159.7 64.5 163.6 64.5H175.8C179.7 64.5 182.8 61.4 182.8 57.5C182.8 53.6 179.6 50.5 175.8 50.5Z" fill="#29E3C1"/>
<path d="M82.6 4.19995H67.9C61.4 4.19995 56.1 9.49995 56.1 16.1V52.3999C56.1 58.9999 61.4 64.3 67.9 64.3H82.6C89.1 64.3 94.4 58.9999 94.4 52.3999V16.1C94.4 9.59995 89.1 4.19995 82.6 4.19995ZM80.4 50.3H70.2V18.3H80.4V50.3Z" fill="#29E3C1"/>
<path d="M135.1 50.5H131.9V10.6C131.9 7 129.2 4.1 125.8 3.7C125.3 3.6 124.9 3.5 124.4 3.5H112C108.1 3.5 105 6.6 105 10.5C105 14.4 108.1 17.5 112 17.5H117.8V50.5H112.7C108.8 50.5 105.7 53.6 105.7 57.5C105.7 61.4 108.8 64.5 112.7 64.5H135.1C139 64.5 142.1 61.4 142.1 57.5C142.1 53.6 138.9 50.5 135.1 50.5Z" fill="#29E3C1"/>
</svg>
