<?xml version="1.0" encoding="utf-8"?>
<!-- Generator: Adobe Illustrator 25.0.1, SVG Export Plug-In . SVG Version: 6.00 Build 0)  -->
<svg version="1.1" id="Layer_1" xmlns="http://www.w3.org/2000/svg" xmlns:xlink="http://www.w3.org/1999/xlink" x="0px" y="0px"
	 viewBox="0 0 250 250" style="enable-background:new 0 0 250 250;" xml:space="preserve">
<style type="text/css">
	.st0{fill:#FF3621;}
</style>
<path class="st0" d="M179.8,113.2l-55,31.2l-58.4-33.2l-2.7,1.5v24.1l61.2,34.9l55-31.2v12.8l-55,31.2l-58.5-33.2l-2.7,1.5v4.1
	l61.2,34.9l61.4-34.9v-24.1l-2.7-1.5l-58.7,33.2l-54.7-31.2v-12.6l54.7,30.9l61.4-34.9V93l-3.2-1.7l-58.2,33L73.1,94.8l51.8-29.3
	l42.8,24.1l3.9-2v-2.9l-46.6-26.3L63.7,93.1v3.7l61.2,34.9l55-31.2V113.2z"/>
</svg>
