<?xml version="1.0" encoding="utf-8"?>
<!-- Generator: Adobe Illustrator 25.0.1, SVG Export Plug-In . SVG Version: 6.00 Build 0)  -->
<svg version="1.1" id="Layer_1" xmlns="http://www.w3.org/2000/svg" xmlns:xlink="http://www.w3.org/1999/xlink" x="0px" y="0px"
	 viewBox="0 0 250 250" style="enable-background:new 0 0 250 250;" xml:space="preserve">
<style type="text/css">
	.st0{fill:#00992C;}
	.st1{fill:#1BA442;}
	.st2{fill:#FEFEFE;}
	.st3{fill:#F9F9F9;}
	.st4{fill:#FCFCFC;}
	.st5{fill:#FDFDFD;}
	.st6{fill:#F8F8F8;}
	.st7{fill:#F7F7F7;}
	.st8{fill:#F6F6F6;}
	.st9{fill:#F1F1F1;}
	.st10{fill:#F4F4F4;}
	.st11{fill:#F5F5F5;}
	.st12{fill:#EEEEEE;}
	.st13{fill:#EFEFEF;}
	.st14{fill:#FBFBFB;}
	.st15{fill:#FAFAFA;}
	.st16{fill:#F0F0F0;}
	.st17{fill:#E3E3E3;}
	.st18{fill:#019A2D;}
	.st19{fill:#029A2D;}
	.st20{fill:#019A2C;}
</style>
<g id="g108" transform="translate(-8.92,-8.1)">
	<path id="path4" class="st0" d="M64,132.7v45.6c0,13.4,10.8,24.2,24.2,24.2h90.9c13.4,0,24.2-10.8,24.2-24.2v-45.6H64z
		 M121.1,169.1c-0.5,2.4-1.3,4.2-2.6,5.4c-0.2,0.2-0.4,0.3-0.6,0.5c-0.3,0.2-0.6,0.4-0.9,0.6c-0.5,0.3-1,0.5-1.6,0.7
		c-0.3,0.1-0.5,0.2-0.8,0.2c-0.8,0.2-1.7,0.3-2.7,0.3c-2.9,0-5.8,0-8.7,0H103c-0.1,0-0.2,0-0.3,0c-0.1,0-0.1,0-0.2,0
		c-0.1,0-0.1-0.1-0.2-0.1c-0.1,0-0.1-0.1-0.2-0.1c-0.2-0.2-0.3-0.6-0.3-1.1c0.1-4.5,0-9.1,0-13.7c0-4.3,0.1-8.7,0-13
		c-0.1-1,0.1-1.6,0.7-1.8c0.1,0,0.2-0.1,0.2-0.1c0.1,0,0.1,0,0.2,0c0.3,0,0.5-0.1,0.9,0c2.6,0.1,5.2,0,7.8,0c1.1,0,2.1,0.1,3,0.3
		c0.3,0.1,0.6,0.1,0.9,0.2c1,0.3,2,0.8,2.7,1.4c0.4,0.3,0.8,0.7,1.1,1.2c1,1.3,1.7,3,2,5.2C122,159.8,122,164.5,121.1,169.1z
		 M144.7,171c-0.3,1.4-0.9,2.5-1.8,3.4c-0.2,0.2-0.4,0.4-0.6,0.5c-1.2,1-2.9,1.6-4.8,1.8c-0.3,0-0.7,0.1-1,0.1c-3.3,0-6.6,0-9.9,0
		c-0.5,0-0.9-0.1-1-0.4c-0.1-0.2-0.1-0.4-0.1-0.8c0-9.2,0-18.3,0-27.5c0-0.4-0.1-1,0.3-1.2c0.1,0,0.3-0.1,0.4-0.1
		c4.2,0.1,8.3-0.4,12.4,0.3c3.4,0.6,5,2.6,5.5,6.2c0.2,1.4,0.1,2.6-0.3,3.7c-0.2,0.5-0.4,0.9-0.6,1.3c-0.2,0.3-0.4,0.5-0.6,0.7
		c-0.1,0.1-0.2,0.2-0.3,0.3c-0.3,0.3-0.7,0.7-1.2,0.9c-0.1,0.1-0.3,0.2-0.4,0.3s-0.3,0.2-0.5,0.2c0,0,0,0,0.1,0.1
		c0,0.1,0.1,0.1,0.1,0.1c0,0,0,0,0.1,0C144.6,163.5,145.8,166.2,144.7,171z M164.3,176.7c-0.1,0-0.2,0-0.3,0c-0.1,0-0.2,0-0.3,0
		h-0.1c-0.1,0-0.3,0-0.4,0c-0.3,0-0.6,0-1,0c-4.5,0-9,0-13.5,0c-0.3,0-0.5,0-0.7,0c-0.1,0-0.1,0-0.2,0c-0.1,0-0.1,0-0.2-0.1
		c-0.4-0.2-0.5-0.6-0.4-1.5c0.3-3.9,2.1-7,4.8-9.7c1.6-1.6,3.2-3.1,4.9-4.6c2.3-2,2.6-4.6,2.2-7.4c-0.1-0.7-0.4-1.2-0.8-1.6
		c-0.2-0.2-0.4-0.3-0.7-0.4c0,0-0.1,0-0.1-0.1c-0.2-0.1-0.4-0.1-0.7-0.2c0,0-0.1,0-0.1,0h0c-0.1,0-0.2,0-0.3,0c-0.2,0-0.3,0-0.5,0
		c-0.2,0-0.5,0.1-0.7,0.2c0,0-0.1,0-0.1,0c0,0-0.1,0-0.1,0.1c-0.1,0.1-0.2,0.1-0.3,0.2c-0.1,0-0.1,0.1-0.2,0.2
		c-0.1,0.1-0.1,0.1-0.2,0.2c-0.2,0.2-0.3,0.4-0.5,0.7c-0.4,0.9-0.7,1.9-0.6,2.8c0,0.9-0.2,1.2-0.7,1.3c-0.2,0.1-0.5,0.1-0.9,0
		c-0.5-0.1-1.1,0-1.6,0c-0.3,0-0.6,0-0.8,0c-0.6,0-1,0-1.3-0.1c-0.1,0-0.1,0-0.1,0c-0.1,0-0.1,0-0.2-0.1c-0.1,0-0.1-0.1-0.1-0.1
		c-0.3-0.3-0.2-0.8-0.1-1.9c0.3-2.8,1.3-4.8,3-6c0.2-0.1,0.4-0.3,0.6-0.4c0.2-0.1,0.4-0.2,0.6-0.3c0.2-0.1,0.4-0.2,0.6-0.3
		c0.1-0.1,0.2-0.1,0.4-0.1c0.1,0,0.2-0.1,0.3-0.1c0.2-0.1,0.5-0.1,0.7-0.2c0.1,0,0.3-0.1,0.4-0.1c0.1,0,0.3,0,0.4-0.1
		c0.3,0,0.5-0.1,0.8-0.1h0c0.4,0,0.9,0,1.4,0c0.3,0,0.6,0,0.9,0c0.1,0,0.1,0,0.2,0c0.1,0,0.1,0,0.2,0c0.3,0,0.5,0.1,0.8,0.1
		c0,0,0,0,0,0c0.3,0,0.6,0.1,0.9,0.2c0.3,0.1,0.6,0.1,0.8,0.2c0.1,0,0.1,0,0.2,0.1c0.2,0.1,0.4,0.2,0.7,0.3c0.3,0.1,0.5,0.2,0.7,0.4
		c0.2,0.1,0.5,0.3,0.7,0.4c0.2,0.1,0.4,0.3,0.6,0.5c2.3,2,3,5.2,1.9,9.3c-0.6,2-1.7,3.7-3.2,5.1c-1.7,1.6-3.4,3.1-5,4.7
		c-1,1-1.9,2.2-2.4,3.7c3.5,0,6.7,0,9.9,0c0.1,0,0.2,0,0.2,0c0.1,0,0.1,0,0.2,0c0.1,0,0.1,0,0.2,0c0,0,0,0,0,0c0.1,0,0.1,0,0.2,0.1
		c0,0,0.1,0,0.1,0c0.1,0,0.1,0.1,0.2,0.1c0.2,0.2,0.3,0.5,0.3,1C165.5,175.9,165.5,176.5,164.3,176.7z"/>
	<path id="path6" d="M64,132.4L64,132.4 M179.1,63.2H88.2C74.9,63.2,64,74.1,64,87.4v44.9c0.1,0,0.1,0,0.2-0.1
		c0.6-0.2,1.3-0.2,1.9-0.2h134.2c0.7,0,1.3-0.1,2,0c0.2,0,0.4,0,0.5,0.1c0.2,0,0.3,0.1,0.5,0.2V87.4
		C203.3,74.1,192.5,63.2,179.1,63.2z M119.7,94.5c0.1,0,0.2,0,0.3,0h0.1c0.1,0,0.1,0,0.2,0c0.1,0,0.1,0,0.2,0c0,0,0.1,0,0.1,0
		c0.1,0,0.2,0.1,0.2,0.1c0,0,0.1,0.1,0.1,0.1c0,0,0.1,0.1,0.1,0.1c0,0.1,0,0.1,0,0.1c0,0.3-0.1,0.7,0,1c0.1,0.5,0.1,1.1-0.4,1.3
		c-0.1,0-0.1,0-0.2,0c-0.1,0-0.2,0-0.4,0c-0.9-0.1-1.8,0-2.8,0h-2.1c-1.7,0-2.1-0.7-1.7-2.3c0.1-0.4,0.3-0.5,0.5-0.5
		c0.1,0,0.3,0,0.4,0C116.1,94.6,117.9,94.6,119.7,94.5z M129.7,94.5c0.9,0.1,1.8,0,2.7,0c0.8,0,1.6-0.1,2.4,0c0.1,0,0.2,0,0.3,0
		c0.1,0,0.1,0,0.2,0c0.5-0.1,1.1-0.1,1,0.9c-0.1,0.5,0,1-0.2,1.4c0,0.1-0.1,0.2-0.1,0.2c-0.2,0.3-0.6,0.5-1.3,0.4
		c-1.7-0.1-3.4-0.1-5.2,0c-1.2,0.1-1.2-0.6-1.2-1.5c0-0.4,0-0.7,0.1-1c0-0.1,0.1-0.1,0.1-0.1C128.8,94.6,129.1,94.5,129.7,94.5z
		 M134.8,99.8c-0.9,1.9-1.9,2.9-4.1,2.8c-5.2-0.2-10.5-0.1-15.7,0c-0.3,0-0.6,0-0.8-0.1c0,0-0.1,0-0.1,0c-0.1,0-0.1,0-0.2-0.1
		c0,0-0.1,0-0.1,0c-0.1,0-0.1-0.1-0.2-0.1c-0.1-0.1-0.1-0.1-0.1-0.2c0-0.1-0.1-0.2-0.1-0.3c0,0,0-0.1,0-0.2c0-0.1,0-0.3,0-0.5
		c0-0.1,0-0.2,0-0.3c0-0.1,0-0.1,0-0.1c0-0.1,0-0.1,0-0.2c0-0.1,0.1-0.2,0.1-0.2c0-0.1,0.1-0.1,0.1-0.2c0.1-0.1,0.1-0.1,0.2-0.1
		c0.1,0,0.1-0.1,0.2-0.1c0.2-0.1,0.5-0.1,0.8-0.1C121.4,99.8,128,99.8,134.8,99.8L134.8,99.8z M114.5,107.9c-1.2,0-1-0.7-1-1.5V106
		c0-0.1,0-0.3,0-0.4c0-0.1,0-0.1,0-0.2c0,0,0-0.1,0.1-0.1c0,0,0-0.1,0.1-0.1l0.1-0.1c0-0.1,0.1-0.1,0.2-0.1c0,0,0.1,0,0.1,0
		c0.1,0,0.2-0.1,0.3-0.1c0.1,0,0.2,0,0.3,0c5.8,0.1,11.6,0,17.4,0c0.1,0,0.2,0,0.3,0c0.1,0,0.1,0,0.2,0c0.1,0,0.1,0,0.2,0
		c0.1,0,0.2,0.1,0.3,0.2c0,0,0.1,0,0.1,0.1c0.1,0,0.1,0.1,0.2,0.1c0.1,0.1,0.1,0.1,0.2,0.2c0.1,0.1,0.2,0.2,0.3,0.3
		c0.3,0.5,0.5,1,0.8,1.5c0.1,0.1,0.1,0.2,0.2,0.3C128,107.9,121.2,107.8,114.5,107.9z M115.2,113.2c-1.7,0.3-1.9-0.6-1.8-1.9
		c0-0.1,0-0.1,0-0.2c0-0.3,0.1-0.5,0.3-0.6c0,0,0.1-0.1,0.1-0.1c0,0,0,0,0,0c0.1,0,0.2-0.1,0.2-0.1c0.1,0,0.2,0,0.3,0
		c1.9,0,3.8,0.1,5.7,0c1.3,0,0.9,0.8,1,1.5c0,0.8,0.1,1.5-1.1,1.4c-0.9-0.1-1.8,0-2.7,0C116.6,113.2,115.9,113.1,115.2,113.2z
		 M122.4,115.5c4.1,0,8.2,0,12.3,0c0.1,0,0.3,0,0.5,0c0.1,0,0.3,0,0.4,0c0.1,0,0.1,0,0.2,0c0,0,0.1,0,0.1,0c0.1,0,0.1,0,0.1,0.1
		c0,0,0,0,0,0c0,0,0.1,0.1,0.1,0.1c0,0,0,0.1,0,0.1c0,0.1,0,0.1,0,0.1c0,0,0,0.1,0,0.1c-0.1,0.9,0,2.2-1.5,2.3c-0.3,0-0.6,0-0.9,0
		h-23.7c-0.8,0-1.4,0-1.6-0.6c0-0.1-0.1-0.2-0.1-0.3c0-0.1,0-0.3,0-0.4c0-0.1,0-0.3,0-0.4c0-0.1,0-0.1,0-0.2c0-0.1,0-0.1,0-0.2
		c0,0,0-0.1,0-0.1c0,0,0-0.1,0-0.1c0-0.1,0.1-0.1,0.1-0.2c0,0,0-0.1,0.1-0.1c0-0.1,0.1-0.1,0.2-0.2c0,0,0.1,0,0.1-0.1
		c0,0,0.1,0,0.1-0.1c0.1,0,0.1,0,0.1,0c0.2-0.1,0.5-0.1,0.9-0.1C114.2,115.5,118.3,115.5,122.4,115.5z M108.4,121.7
		c0-0.1,0-0.2,0-0.2c0-0.1,0-0.2,0.1-0.2c0-0.1,0.1-0.1,0.1-0.1c0,0,0.1-0.1,0.1-0.1c0.1,0,0.1-0.1,0.2-0.1c0.1,0,0.2,0,0.2-0.1
		c0.1,0,0.2,0,0.3,0c7.9,0.1,15.8,0,24.1,0c-0.4,0.4-0.7,0.7-1.1,1c-0.2,0.2-0.4,0.3-0.6,0.4c-0.2,0.1-0.4,0.2-0.5,0.3
		c-0.1,0.1-0.3,0.1-0.4,0.2c-0.2,0.1-0.4,0.2-0.6,0.3c-0.2,0.1-0.4,0.2-0.6,0.2c-0.2,0.1-0.3,0.1-0.5,0.1c-0.1,0-0.2,0-0.3,0.1
		c-0.3,0.1-0.6,0.1-1,0.2c-0.2,0-0.5,0-0.7,0c-2.9,0-5.9,0-8.8,0c-2.9,0-5.9,0-8.8,0c-0.1,0-0.2,0-0.2,0c-0.1,0-0.1,0-0.2,0
		c-0.1,0-0.2,0-0.3-0.1c0,0-0.1,0-0.1-0.1c-0.1,0-0.1-0.1-0.1-0.1c-0.1,0-0.1-0.1-0.1-0.2c0,0,0-0.1,0-0.1c-0.1-0.2-0.1-0.3-0.1-0.6
		c0-0.1,0-0.1,0-0.2C108.5,122.2,108.4,121.9,108.4,121.7z M139.7,92.1c-0.1,0-0.2,0-0.3,0c-0.1,0-0.1,0-0.1,0c0,0,0,0,0,0
		c-0.1,0-0.3-0.1-0.4-0.1c-0.1,0-0.1-0.1-0.1-0.1c-0.1,0-0.1-0.1-0.1-0.1c-0.2-0.2-0.2-0.6-0.2-1c0.1-0.7-0.2-1.5,0.8-1.6
		c0.1,0,0.2,0,0.4,0h0.2c4.4,0.1,8.8,0,13.2,0c0.8,0,2.1,2,1.7,2.7c-0.1,0.2-0.2,0.2-0.4,0.3c-0.2,0-0.5,0-0.7,0h-0.1
		c-2.3,0-4.7,0-7,0c-0.7,0-1.4,0-2.1,0C142.9,92.1,141.3,92.1,139.7,92.1z M143.4,106.2c0-0.1,0-0.2,0-0.3c0-0.1,0-0.2,0-0.2
		c0.1-0.6,0.4-0.7,1-0.7c1.8,0,3.6,0.1,5.4,0c0.3,0,0.6,0,0.7,0.1c0,0,0.1,0.1,0.1,0.1c0,0,0.1,0.1,0.1,0.1c0,0,0,0.1,0,0.1
		c0,0,0,0,0,0.1c0,0.1,0,0.2,0,0.3c0,0.2,0,0.3,0,0.5v0c0,0.6,0.4,1.6-0.9,1.5c-0.9-0.1-1.8,0-2.8,0c-0.6,0-1.3-0.1-1.9,0
		c-1,0.2-1.5-0.1-1.7-0.6c0-0.1-0.1-0.1-0.1-0.2C143.4,106.9,143.3,106.6,143.4,106.2z M144.9,110.3c0.7,0.1,1.5,0,2.2,0
		c0.6,0,1.3,0.1,1.9,0c0.4-0.1,0.7-0.1,1,0c0.1,0,0.1,0,0.2,0.1c0.1,0,0.1,0,0.1,0.1c0.1,0,0.1,0.1,0.1,0.1c0,0,0.1,0.1,0.1,0.1
		c0.1,0.1,0.1,0.1,0.1,0.2c0,0,0,0,0,0c0,0,0,0.1,0,0.1c0,0.1,0,0.1,0.1,0.2c0,0,0,0,0,0c0.1,0.3,0.1,0.7,0,1.1c0,0.7-0.3,1-1,1
		c-1.6,0-3.2-0.1-4.8,0c-0.6,0-1.1,0-1.3-0.3c0,0-0.1-0.1-0.1-0.1c-0.2-0.2-0.2-0.5-0.2-1C143.4,110.6,143.7,110.2,144.9,110.3z
		 M150.8,122.3c0,0.7,0.1,1.3-0.8,1.4c-0.1,0-0.2,0-0.4,0c-3.4-0.1-6.8-0.1-10.2,0h-0.1c-0.1,0-0.2,0-0.3,0c-0.1,0-0.1,0-0.2,0
		c-0.6-0.2-0.5-0.8-0.5-1.4c0-0.7-0.1-1.3,0.6-1.4c0,0,0,0,0,0c0.1,0,0.2,0,0.4,0c1.7,0.1,3.4,0,5,0c1.7,0,3.5,0.1,5.2,0
		c0.3,0,0.4,0,0.6,0.1C151,121.1,150.8,121.7,150.8,122.3z M177.2,123.7c-0.9,0-1.7,0-2.5,0h-0.7c-2.3,0-4.6,0-6.9,0
		c-1.3,0-1.1-0.7-1.1-1.4c0-0.3,0-0.6,0-0.8c0,0,0-0.1,0-0.1c0-0.1,0-0.1,0-0.2c0-0.1,0.1-0.1,0.1-0.1c0,0,0.1-0.1,0.1-0.1
		c0,0,0.1-0.1,0.1-0.1c0,0,0.1,0,0.1,0c0.1,0,0.1,0,0.2,0c0.1,0,0.3,0,0.4,0c1.7,0.1,3.5,0,5.2,0c1.7,0,3.4,0.1,5,0
		c0.3,0,0.5,0,0.6,0.1c0.1,0,0.1,0.1,0.2,0.1c0.1,0,0.1,0.1,0.1,0.1c0.1,0.1,0.1,0.2,0.1,0.3c0.1,0.2,0.1,0.4,0,0.6
		c0,0.1,0,0.2,0,0.3C178.1,122.9,178.5,123.7,177.2,123.7z M177.1,118.4c-1.7-0.1-3.3,0-5,0c-1.7,0-3.3-0.1-5,0
		c-1.3,0.1-1.1-0.7-1.2-1.6c0-0.8,0-1.4,1.1-1.4c3.3,0.1,6.7,0.1,10,0c0.5,0,0.8,0.1,1,0.3c0,0,0.1,0.1,0.1,0.2
		c0.1,0.2,0.1,0.6,0.1,0.9v0.2C178.2,117.8,178.2,118.5,177.1,118.4z M173.3,106.9c0,0.3-0.1,0.5-0.2,0.6c0,0.1-0.1,0.1-0.1,0.1
		c0,0-0.1,0.1-0.1,0.1c0,0-0.1,0-0.1,0.1c-0.1,0-0.1,0-0.2,0c-0.1,0-0.2,0-0.3,0c-1.8,0-3.6-0.1-5.3,0h0c-1,0-1-0.7-0.9-1.3
		c0-0.5-0.3-1.1,0.2-1.4c0,0,0,0,0.1,0c0,0,0.1,0,0.1,0c0.1-0.1,0.3-0.1,0.5-0.1c0.9,0,1.8,0,2.8,0c0.4,0,0.7,0,1.1,0
		c0.3,0,0.6,0,0.9-0.1c0.1,0,0.1,0,0.2,0c0.1,0,0.1,0,0.2,0c0.2,0,0.4,0,0.6,0C173.3,105.1,173.4,105.8,173.3,106.9z M165.9,110.9
		c0-0.1,0-0.1,0.1-0.2c0.1-0.2,0.3-0.3,0.5-0.4c0.1,0,0.1,0,0.2,0c0.1,0,0.2,0,0.3,0c0.5,0,1,0,1.6,0c1.3,0,2.5,0,3.8,0
		c0.1,0,0.3,0,0.4,0c0.1,0,0.1,0,0.2,0c0.1,0,0.1,0,0.1,0.1c0,0,0.1,0,0.1,0.1c0,0,0,0,0,0c0,0,0,0,0,0c0,0,0,0,0,0
		c0.1,0.1,0.1,0.2,0.1,0.3c0.1,0.3,0,0.6,0,0.9c0,0.7,0.2,1.6-1,1.5c-0.9-0.1-1.8,0-2.7,0h-1.9C166,113.2,165.5,112.6,165.9,110.9z
		 M163.1,107.8c-0.4,0.1-0.9,0.1-1.7,0.1h-5.9c-2.5,0-2.5,0-3.1-2.8h11.9c0,0.1,0,0.2,0,0.3C164,107.1,163.9,107.6,163.1,107.8z
		 M158.1,123.1C158.1,123.1,158.1,123.1,158.1,123.1c-0.1-0.2-0.2-0.4-0.3-0.5c-0.2-0.5-0.4-1.1-0.2-1.6c0.1-0.2,1.3-0.2,1.4,0
		c0.1,0.1,0.1,0.2,0.1,0.2c0,0.1,0,0.1,0.1,0.2c0,0.1,0,0.1,0,0.2c0.1,0.7-0.5,1.3-0.8,2.1c0,0,0,0,0-0.1
		C158.2,123.4,158.2,123.3,158.1,123.1z M159.1,118.5c-0.1,0-0.2,0-0.3,0h0c-0.6-0.1-1.2,0.1-1.8,0c0,0-0.1,0-0.1,0c0,0-0.1,0-0.1,0
		c0,0-0.1,0-0.1-0.1c-0.3-0.2-0.5-0.5-0.7-1c-0.3-1-0.3-1.6,0.3-1.8c0.1,0,0.1,0,0.2,0c0.2,0,0.5,0,0.8,0.1c0.1,0,0.1,0,0.2,0
		c0.3,0,0.6,0,0.9,0c0.2,0,0.5-0.1,0.7,0h0c0.1,0.1,0.3,0.1,0.5,0c0.1,0,0.2,0,0.2,0c0.6-0.1,1.1-0.2,1.1,0.7
		c-0.1,0.7-0.1,1.5-0.6,2c-0.1,0.1-0.2,0.1-0.2,0.2c0,0-0.1,0-0.1,0.1c0,0-0.1,0-0.1,0.1c-0.1,0-0.3,0.1-0.5,0.1
		C159.2,118.5,159.1,118.5,159.1,118.5z M160.7,113.2c-1.6-0.1-3.2,0-4.8,0c-0.5,0-0.9,0-1.2-0.6c-0.3-0.6-0.5-1-0.5-1.3
		c0-0.1,0-0.2,0-0.3c0-0.5,0.6-0.6,2-0.6h2.4c0.8,0,1.6-0.1,2.4,0c0.2,0,0.6-0.1,0.9-0.1c0.2,0,0.3,0,0.4,0c0.1,0,0.1,0,0.1,0
		c0,0,0,0,0.1,0c0,0,0,0,0.1,0.1c0.1,0.1,0.1,0.2,0.1,0.3c0,0.1,0,0.2,0,0.2c0,0.2,0,0.5-0.1,0.8c0,0.1,0,0.2-0.1,0.3
		c0,0.2-0.1,0.4-0.2,0.6C162,113,161.5,113.3,160.7,113.2z M163.5,86.2c0.1-0.8,0-2.1,1.1-2.3c0.1,0,0.2,0,0.2,0
		c3.1-0.1,6.3-0.1,9.5,0c1.1,0,2.1,0,3.1,0c0.1,0,0.2,0,0.3,0c0.9,0.2,0.3,1.1,0.4,1.7c0.2,0.7,0,1.1-0.7,1.1c-0.1,0-0.1,0-0.2,0
		c-2.2-0.1-4.4,0-6.6,0c-1.9,0-3.8,0-5.7,0c-0.4,0-1,0.3-1.3,0c0,0-0.1-0.1-0.1-0.1C163.5,86.5,163.5,86.4,163.5,86.2z M161.8,91.7
		c0-0.1,0-0.3,0-0.4c0.1-0.9,0-2,1.6-2h6.2c2.5,0,5,0.1,7.4,0c0.5,0,0.8,0.1,1,0.3c0,0,0.1,0.1,0.1,0.1c0,0.1,0.1,0.1,0.1,0.2
		c0.1,0.2,0.1,0.5,0,0.8v0c0,0.3,0,0.7,0,0.9c0,0,0,0.1,0,0.1c0,0,0,0.1,0,0.1c-0.1,0.2-0.4,0.4-1,0.4c-2.4-0.1-4.8,0-7.2,0
		c-2.2,0-4.4,0-6.6,0c-0.3,0-0.8,0.2-1.2,0.1c-0.1,0-0.1,0-0.1-0.1c0,0-0.1-0.1-0.1-0.1C161.8,92,161.8,91.8,161.8,91.7z
		 M160.1,97.4c0-0.2,0.1-0.3,0.1-0.5c0.1-0.6,0.2-1,0.3-1.4c0-0.1,0-0.1,0.1-0.2c0.1-0.2,0.1-0.3,0.2-0.4c0,0,0.1-0.1,0.1-0.1
		c0,0,0.1-0.1,0.1-0.1c0.1,0,0.1-0.1,0.2-0.1c0.1,0,0.1-0.1,0.2-0.1c0.1,0,0.1,0,0.2,0c0.1,0,0.1,0,0.2,0c0.4,0,0.8,0,1.4,0
		c1,0,2,0,3.1,0c2,0,4.1,0,6.1,0c0.1,0,0.2,0,0.3,0c0.1,0,0.2,0,0.2,0c0.1,0,0.2,0.1,0.3,0.2c0,0,0.1,0.1,0.1,0.1c0,0,0,0.1,0.1,0.1
		c0.1,0.2,0,0.5,0,0.8c-0.1,0.7,0.4,1.6-0.9,1.6C168.3,97.4,164.2,97.4,160.1,97.4C160.1,97.4,160.1,97.4,160.1,97.4z M158.4,102.1
		c0-0.3,0-0.6,0.1-0.8c0,0,0-0.1,0-0.1c0.1-0.2,0.1-0.4,0.2-0.5c0.1-0.1,0.1-0.2,0.2-0.3c0.1-0.1,0.1-0.1,0.2-0.1
		c0.8-0.7,2-0.4,3.1-0.4c3.2,0,6.5,0.1,9.7,0c0.4,0,0.7,0.1,0.9,0.2c0.1,0.1,0.2,0.1,0.2,0.2c0,0.1,0.1,0.1,0.1,0.2
		c0,0.1,0,0.2,0.1,0.3c0,0.1,0,0.1,0,0.2c0,0.2,0,0.3,0,0.5c0,0.2,0,0.3,0,0.5c0,0.1,0,0.2,0,0.2c-0.2,0.5-0.5,0.6-1.3,0.6
		c-1.7-0.1-3.4-0.1-5,0c-0.5,0-0.8-0.1-1-0.3c-0.1-0.1-0.1-0.2-0.1-0.4c0,0,0-0.1,0-0.1c0-0.1,0-0.2,0-0.3v0c-0.3,1.3-1.1,1.2-2,1.2
		c-3.7,0-7.4,0-11.1,0c-0.8,0-1.6,0-1.7-1.1c0-0.1,0-0.1,0-0.2c0,0.1,0,0.2,0,0.3c-0.1,0.8-0.6,1-1.4,1c-1.7-0.1-3.4-0.1-5,0
		c-0.7,0-1-0.1-1.2-0.5c0-0.1,0-0.1,0-0.2c0-0.2,0-0.3,0-0.5c0-0.1,0-0.2,0-0.3c0-0.7-0.2-1.4,1.1-1.3c4,0.1,8,0.1,12,0
		C158.1,99.7,157.6,101.2,158.4,102.1z M155.3,94.6c0.1,0,0.1,0,0.1,0c0,0,0.1,0,0.1,0c0.5,0.2,0.6,0.8,1,2.7c-4.1,0-8.1,0-12.2,0
		c-0.4,0-0.6-0.1-0.8-0.2c-0.1-0.1-0.1-0.1-0.1-0.2c0-0.1,0-0.2,0-0.3c0-0.1,0-0.1,0-0.2c0-0.2,0-0.4,0-0.6c0-0.5-0.3-1.2,0.4-1.4
		c0.1,0,0.3-0.1,0.5-0.1c3.6,0,7.1,0,10.7,0C155.1,94.6,155.2,94.6,155.3,94.6z M138.5,85.2L138.5,85.2c0-0.3-0.1-0.6,0-0.8
		c0-0.1,0.1-0.2,0.2-0.3c0.1-0.2,0.4-0.3,0.8-0.3c4,0.1,8,0,11.9,0c0.8,0,1.1,0.4,1.3,0.9c0.1,0.3,0.1,0.6,0.2,0.9
		c0.1,0.4,0.2,0.8,0.4,1.1c0,0,0,0,0,0h-13.8c-0.3,0-0.5,0-0.7-0.1c0,0-0.1-0.1-0.1-0.1C138.3,86.2,138.5,85.6,138.5,85.2z
		 M138.4,116.6c0-0.1,0-0.1,0-0.2c0,0,0,0,0-0.1c0,0,0,0,0-0.1c0.1-0.5,0.3-0.8,1-0.8c0.1,0,0.1,0,0.2,0c3.4,0.1,6.8,0.1,10.2,0
		c1.3,0,1,0.8,1,1.5c0,0.7,0.2,1.5-1,1.5c-1.2-0.1-2.5-0.1-3.7-0.1c-0.5,0-1,0-1.5,0c-0.5,0-0.9,0-1.4,0c-1.2,0-2.4,0-3.6,0.1
		c-0.4,0-0.6,0-0.8-0.1c0,0-0.1,0-0.1-0.1c-0.1,0-0.1-0.1-0.1-0.2c0,0,0-0.1,0-0.1c0-0.1,0-0.1-0.1-0.2c0-0.1,0-0.1,0-0.2
		c0-0.1,0-0.2,0-0.3c0-0.1,0-0.2,0-0.4C138.4,116.8,138.4,116.7,138.4,116.6z M135.8,113.3c-0.2,0-0.3,0-0.5,0h-2.7
		c-0.6,0-1.1-0.1-1.7,0c-0.1,0-0.3,0-0.4,0.1c-0.4,0.1-0.7,0.1-0.9,0c0,0,0,0-0.1,0c0,0,0,0,0,0c0,0,0,0,0,0c-0.1,0-0.1,0-0.2-0.1
		c0,0,0,0,0,0c-0.6-0.3-0.7-1.1-0.6-2c0-0.6,0.2-0.8,0.7-0.9c0.1,0,0.1,0,0.2,0c2,0,3.9,0,5.9,0h0.1c1.5,0,1,1.2,1.2,2
		C136.7,113.2,136.3,113.3,135.8,113.3z M134.3,89.2c0.1,0,0.3,0,0.4,0.1c0.1,0,0.2,0.1,0.3,0.1c0.1,0,0.1,0.1,0.2,0.1
		c0.1,0,0.1,0.1,0.2,0.1c0.1,0,0.1,0.1,0.2,0.1c0.1,0.1,0.1,0.1,0.1,0.2c0.3,0.4,0.5,1,0.5,1.6c-0.1,0.4-0.2,0.5-0.4,0.6
		c-0.2,0.1-0.5,0-0.8,0h0c-4.2,0-8.4,0-12.6,0c-4.2,0-8.3,0-12.5,0h0c-1.2,0-1.4-0.4-1.4-1.5c0-1,0.2-1.4,1.1-1.4c0.1,0,0.3,0,0.4,0
		c8.1,0,16.1,0,24.2,0C134.2,89.2,134.2,89.2,134.3,89.2z M109,84c0.1,0,0.1-0.1,0.2-0.1c0.1,0,0.2,0,0.3,0c0.1,0,0.2,0,0.3,0
		c5.6,0.1,11.3,0,16.9,0h0c2.4,0,4.5,0.9,6.3,2.6c-0.4,0.4-0.8,0.3-1.2,0.3c0,0-0.1,0-0.1,0c-7.3,0-14.6,0-21.9,0
		c-0.1,0-0.3,0-0.4,0c-0.9-0.1-1.2-0.4-1.2-1.5c0-0.7,0.1-1,0.4-1.2C108.9,84,109,84,109,84z M88.8,84.5c0-0.1,0-0.2,0.1-0.3
		c0,0,0-0.1,0.1-0.1c0,0,0.1-0.1,0.1-0.1c0.1,0,0.1-0.1,0.2-0.1c0.1,0,0.1,0,0.2,0c0.1,0,0.2,0,0.3,0c5.1,0.1,10.2,0.1,15.3,0
		c1.4,0,1,0.9,1.1,1.6c0.1,0.9-0.1,1.4-1.2,1.3c-2.5-0.1-5.1,0-7.6,0c-2.5,0-5.1-0.1-7.6,0c-1.2,0-1.1-0.7-1-1.4
		C88.8,85.1,88.8,84.7,88.8,84.5z M88.8,90.2c0-0.1,0-0.2,0-0.3c0-0.1,0-0.1,0-0.2c0,0,0-0.1,0-0.1c0-0.1,0.1-0.1,0.1-0.2
		c0,0,0.1-0.1,0.1-0.1c0,0,0.1,0,0.1-0.1c0,0,0.1,0,0.1-0.1c0.1,0,0.1-0.1,0.2-0.1c0,0,0.1,0,0.1,0c0.1,0,0.3,0,0.4,0
		c5,0.1,10,0.1,15.1,0c0.3,0,0.5,0,0.6,0.1c0,0,0.1,0,0.1,0.1c0.1,0.1,0.2,0.2,0.3,0.3c0,0,0,0.1,0.1,0.1c0.1,0.3,0.1,0.7,0.1,1.1
		c0,0.2,0,0.4,0,0.5c0,0.1,0,0.1,0,0.2c0,0.1,0,0.2-0.1,0.2c0,0.1-0.1,0.1-0.1,0.2c0,0-0.1,0.1-0.1,0.1c0,0-0.1,0-0.1,0.1
		c0,0-0.1,0-0.2,0.1c-0.2,0.1-0.3,0.1-0.6,0.1c-1.8-0.1-3.7,0-5.5,0c-0.8,0-1.5,0-2.3,0c-2.4,0-4.8-0.1-7.3,0c-0.2,0-0.3,0-0.4,0
		c-0.3,0-0.5-0.1-0.6-0.3c-0.1-0.1-0.1-0.2-0.2-0.4c0-0.1,0-0.1,0-0.2c0-0.1,0-0.1,0-0.2c0-0.1,0-0.3,0-0.4
		C88.8,90.5,88.8,90.3,88.8,90.2z M94.6,107.9L94.6,107.9c-0.2,0-0.3,0-0.4,0c-0.8-0.2-0.5-0.9-0.5-1.5c0-0.6-0.1-1.2,0.5-1.3
		c0.1,0,0.2,0,0.4,0c0.9,0.1,1.8,0,2.8,0c0.6,0,1.1,0.1,1.7,0c0.2,0,0.3,0,0.5-0.1c0.1,0,0.2,0,0.3-0.1c0.2,0,0.3,0,0.5,0
		c0,0,0.1,0,0.1,0c0,0,0,0,0,0c0.1,0,0.1,0,0.2,0.1c0,0,0,0,0,0c0.1,0,0.1,0.1,0.2,0.1c0.1,0,0.1,0.1,0.2,0.2c0,0,0.1,0.1,0.1,0.1
		c0,0,0,0.1,0.1,0.1c0.1,0.1,0.1,0.3,0.1,0.4c0.1,0.3,0.1,0.6,0,1c0,0.6-0.2,0.9-0.8,0.9c-0.1,0-0.1,0-0.2,0H100
		C98.2,107.8,96.4,107.8,94.6,107.9z M101,102.4c0,0-0.1,0.1-0.1,0.1c-0.1,0.1-0.4,0.1-0.6,0.1c-0.9-0.1-1.8,0-2.8,0
		c-0.7,0-1.4-0.1-2.1,0c-1.8,0.3-1.8-0.7-1.7-2c0-0.4,0.1-0.6,0.3-0.7c0,0,0.1-0.1,0.1-0.1c0.1-0.1,0.3-0.1,0.6-0.1
		c1.9,0,3.8,0,5.7,0c0.5,0,0.8,0.1,0.9,0.3c0,0.1,0.1,0.1,0.1,0.2c0.1,0.3,0,0.7,0,1.1C101.2,101.7,101.3,102.1,101,102.4
		C101.1,102.4,101,102.4,101,102.4z M101.2,95.5C101.2,95.5,101.2,95.5,101.2,95.5C101.2,95.5,101.2,95.5,101.2,95.5
		C101.2,95.5,101.2,95.5,101.2,95.5c0,0.2,0,0.4,0,0.5c0,0.4,0,0.8-0.1,1.1c0,0.1-0.1,0.1-0.1,0.2c0,0,0,0,0,0
		c-0.1,0.1-0.2,0.1-0.3,0.1c-0.1,0-0.3,0-0.5,0c-0.9-0.1-1.8,0-2.8,0c-0.2,0-0.4,0-0.6,0c-0.4,0-0.9-0.1-1.3,0h0
		c-0.1,0-0.2,0-0.3,0.1c0,0,0,0,0,0c-0.4,0-0.7,0-0.9-0.1c0,0,0,0,0,0c-0.1,0-0.1-0.1-0.2-0.1c0,0,0,0,0,0c-0.4-0.3-0.5-0.9-0.4-1.7
		c0.1-0.6,0.2-0.8,0.6-0.9c0.1,0,0.3,0,0.5,0c1.8,0,3.7,0.1,5.5,0c0.1,0,0.3,0,0.4,0c0.1,0,0.2,0,0.2,0.1c0.1,0,0.1,0.1,0.2,0.1
		c0,0,0.1,0,0.1,0.1c0,0,0.1,0.1,0.1,0.1c0.1,0.1,0.1,0.2,0.1,0.4C101.2,95.3,101.2,95.4,101.2,95.5
		C101.2,95.5,101.2,95.5,101.2,95.5z M93.7,110.8c0.1-0.3,0.3-0.4,0.5-0.4c0.1,0,0.3,0,0.5,0h0.1c1.8,0,3.6,0,5.4,0
		c0.2,0,0.3,0,0.4,0c0.1,0,0.1,0,0.2,0c0.7,0.2,0.5,0.8,0.5,1.4c-0.1,0.5,0.1,1.2-0.5,1.4c0,0-0.1,0-0.2,0.1c0,0,0,0,0,0
		c0,0-0.1,0-0.1,0c-0.1,0-0.2,0-0.4,0c-0.9-0.1-1.8,0-2.7,0h-2.2c-0.2,0-0.4,0-0.6-0.1C93.6,112.8,93.3,111.9,93.7,110.8z
		 M89.2,115.6c0.1,0,0.2-0.1,0.3-0.1c0.1,0,0.1,0,0.2,0c0.1,0,0.3,0,0.4,0c5,0.1,10,0.1,15.1,0c0.2,0,0.3,0,0.5,0c0,0,0.1,0,0.1,0
		c0.1,0,0.1,0,0.1,0.1c0,0,0.1,0,0.1,0.1c0,0,0.1,0.1,0.1,0.1c0.2,0.3,0.2,0.8,0.2,1.2c0,0.6,0,1-0.3,1.2c-0.1,0.1-0.2,0.1-0.3,0.1
		c0,0-0.1,0-0.1,0c-0.1,0-0.2,0-0.4,0h0c-1.8-0.1-3.6-0.1-5.5-0.1c-0.7,0-1.4,0-2.1,0c-2.5,0-5-0.1-7.5,0c-0.2,0-0.3,0-0.5,0
		c-0.3,0-0.5-0.1-0.6-0.3c0,0,0,0,0,0c0,0-0.1-0.1-0.1-0.1c-0.1-0.3-0.1-0.6-0.1-1C88.8,116.3,88.7,115.8,89.2,115.6z M90,120.8
		c5,0.1,10.1,0.1,15,0c0.2,0,0.3,0,0.4,0.1c0.1,0,0.2,0,0.2,0.1c0.1,0,0.1,0,0.1,0.1c0,0,0,0,0,0c0,0,0.1,0,0.1,0.1
		c0,0,0.1,0,0.1,0.1c0,0,0,0,0.1,0.1c0,0,0,0.1,0,0.1c0.1,0.2,0.1,0.5,0.1,0.9c0,0.8,0.2,1.6-1.1,1.5c-2.5-0.1-5,0-7.5,0
		c-2.5,0-5.1-0.1-7.6,0c-0.3,0-0.6,0-0.8-0.1c0,0,0,0-0.1,0c-0.4-0.2-0.4-0.7-0.4-1.3C88.7,121.3,88.7,120.8,90,120.8z"/>
	<path d="M64,132.4v-1.7c0.1-0.1,0.1-0.2,0.2-0.4c0.6-1.3,1.3-0.9,1.9-0.9h134.2c0.7,0,1.3-0.5,2-0.2c0.2,0,0.4-17,0.5-17
		c0.2,0.2,0.3,18.1,0.5,18.6v1.9H64V132.4"/>
	<path class="st1" d="M183.8,202.7L183.8,202.7C183.8,202.7,183.7,202.8,183.8,202.7L183.8,202.7
		C183.7,202.7,183.8,202.7,183.8,202.7z"/>
	<path id="path22" class="st2" d="M140.4,161.2C140.4,161.2,140.3,161.2,140.4,161.2c-0.1-0.1-0.1-0.1-0.2-0.2c0,0,0,0-0.1-0.1
		c0.2-0.1,0.3-0.2,0.5-0.2s0.3-0.2,0.4-0.3c0.4-0.3,0.8-0.6,1.2-0.9c0.1-0.1,0.2-0.2,0.3-0.3c0.2-0.2,0.4-0.5,0.6-0.7
		c0.3-0.4,0.5-0.8,0.6-1.3c0.4-1.1,0.5-2.3,0.3-3.7c-0.4-3.6-2.1-5.6-5.5-6.2c-4.1-0.7-8.3-0.2-12.4-0.3c-0.2,0-0.3,0-0.4,0.1
		c-0.5,0.2-0.3,0.7-0.3,1.2c0,9.2,0,18.3,0,27.5c0,0.3,0.1,0.6,0.2,0.8c0.2,0.3,0.5,0.4,1,0.4c3.3,0,6.6,0,9.9,0c0.3,0,0.7,0,1-0.1
		c1.9-0.2,3.6-0.8,4.8-1.8c0.2-0.2,0.4-0.3,0.6-0.5c0.9-0.9,1.5-2,1.8-3.4C145.8,166.2,144.6,163.5,140.4,161.2z M132.8,151.3
		c0.1,0,0.3,0.1,0.4,0.1c0.4,0,0.7,0,1.1,0.1c0.1,0,0.3,0,0.4,0.1c1.7,0.2,2.7,0.9,3.1,2.1c0,0.1,0.1,0.2,0.1,0.3c0,0,0,0,0,0.1
		c0,0.1,0,0.2,0.1,0.3c0,0,0,0,0,0.1c0,0.3,0.1,0.6,0.1,0.9c0,0.2,0,0.4,0,0.6c0,0.1,0,0.2,0,0.3c0,0.1,0,0.2-0.1,0.3
		c0,0.1-0.1,0.2-0.1,0.3c-0.1,0.3-0.3,0.7-0.5,0.9c-0.1,0.1-0.2,0.3-0.4,0.4c-0.1,0.1-0.3,0.2-0.4,0.4c-0.2,0.2-0.5,0.4-0.8,0.5
		c-0.1,0-0.1,0.1-0.2,0.1c-0.3,0.1-0.6,0.3-0.9,0.3c-0.1,0-0.1,0.1-0.2,0.1c-0.1,0-0.2,0.1-0.3,0.1c-0.1,0-0.1,0-0.2,0
		c0,0,0,0-0.1,0c-0.1,0-0.1,0-0.2,0c-0.3,0-0.7,0-1-0.1c-0.1,0-0.2-0.1-0.3-0.1c-0.1,0-0.2-0.1-0.3-0.1c-0.1-0.1-0.2-0.1-0.3-0.2
		c0,0-0.1-0.1-0.1-0.1c0,0,0-0.1,0-0.1c0-0.2,0-0.4,0-0.6c0-1.6,0.1-3.2,0-4.8C131.4,152,131.6,151,132.8,151.3z M137.2,171.4
		c-1.3,1.2-3.2,1.8-5.2,1.1c-0.5-0.2-0.5-0.5-0.5-0.9c0-2.4,0-4.7,0-7.1c0-1,0.5-1.1,0.9-1c0.4,0.1,0.8,0.2,1,0
		c3.6,0,5.1,1.3,5.2,4.2C138.7,169.1,138.1,170.4,137.2,171.4z"/>
	<path id="path24" class="st2" d="M121.3,155.2c-0.3-2.2-1-3.9-2-5.2c-0.3-0.4-0.7-0.8-1.1-1.2c-0.8-0.6-1.7-1.1-2.7-1.4
		c-0.3-0.1-0.6-0.2-0.9-0.2c-0.9-0.2-1.9-0.3-3-0.3c-2.6,0-5.2,0.1-7.8,0c-0.3,0-0.6,0-0.9,0c-0.1,0-0.1,0-0.2,0
		c-0.1,0-0.2,0-0.2,0.1c-0.6,0.2-0.8,0.8-0.7,1.8c0.1,4.3,0.1,8.6,0.1,13c0,4.5,0,9.1,0,13.7c0,0.5,0.1,0.9,0.3,1.1
		c0.1,0,0.1,0.1,0.2,0.1c0.1,0,0.1,0.1,0.2,0.1c0.1,0,0.1,0,0.2,0c0.1,0,0.2,0,0.3,0h0.2c2.9-0.1,5.8,0,8.7,0c1,0,1.9-0.1,2.7-0.3
		c0.3-0.1,0.5-0.1,0.8-0.2c0.6-0.2,1.1-0.4,1.6-0.7c0.3-0.2,0.6-0.4,0.9-0.6c0.2-0.2,0.4-0.3,0.6-0.5c1.3-1.3,2.1-3,2.5-5.4
		C121.9,164.5,122,159.8,121.3,155.2z M115.2,168.3c-0.2,1.2-0.7,2.2-1.4,2.9c-0.2,0.2-0.4,0.4-0.7,0.6c-0.2,0.2-0.5,0.3-0.7,0.4
		c-0.1,0.1-0.3,0.1-0.4,0.2c-0.5,0.2-1.1,0.3-1.8,0.3c-0.2,0-0.4,0-0.6,0c-0.2,0-0.4-0.1-0.6-0.1c-0.1,0-0.3-0.1-0.4-0.1
		c-0.1,0-0.1,0-0.1,0c-0.1,0-0.1,0-0.2-0.1c0,0,0,0-0.1,0c0,0-0.1,0-0.1-0.1c0,0-0.1-0.1-0.1-0.1c0,0,0-0.1-0.1-0.1
		c-0.1-0.3,0-0.6,0-0.9c0-3.1,0-6.2,0-9.4c0-3,0.1-6,0-9c0-0.6,0.1-1,0.3-1.2c0.1,0,0.1-0.1,0.2-0.1v0c0,0,0,0,0,0
		c0.1,0,0.2-0.1,0.2-0.1c0.1,0,0.2,0,0.3,0c0.1,0,0.2,0,0.3,0c0.2,0,0.3,0,0.5,0c0.1,0,0.3,0,0.4,0c0.2,0,0.3,0,0.5,0
		c0.2,0,0.3,0,0.5,0.1c0,0,0.1,0,0.1,0c0.2,0,0.3,0,0.5,0.1c0.2,0,0.4,0.1,0.6,0.2c0.2,0,0.3,0.1,0.4,0.2c0.4,0.2,0.8,0.4,1.1,0.7
		c0.7,0.7,1.1,1.8,1.3,3.5C115.8,160.2,115.9,164.3,115.2,168.3z"/>
	<path id="path26" class="st2" d="M149,156.9c0.8,0,1.6,0,2.4,0c1,0.1,1.6-0.1,1.6-1.4c-0.1-1,0.2-1.9,0.6-2.8
		c0.6-1.2,1.7-1.7,3-1.6c1.4,0.1,2.3,0.9,2.5,2.3c0.4,2.8,0.1,5.4-2.2,7.4c-1.7,1.5-3.3,3-4.9,4.6c-2.6,2.7-4.4,5.8-4.8,9.7
		c-0.1,1.5,0.3,1.6,1.5,1.6c4.5-0.1,9,0,13.5,0c3.4,0,3.3,0,3.3-3.4c0-1-0.3-1.3-1.2-1.2c-3.2,0.1-6.4,0-10,0
		c0.6-1.6,1.4-2.7,2.4-3.7c1.7-1.6,3.4-3.2,5-4.7c1.5-1.4,2.6-3.1,3.2-5.1c1.9-6.8-1.5-11.4-8.5-11.4c-0.5,0-0.9,0-1.4,0
		c-4.8,0.2-7.4,2.7-7.9,7.5C146.9,156.9,146.9,156.9,149,156.9L149,156.9z"/>
	<path id="path28" class="st3" d="M134.7,115.5c-4.1,0-8.2,0-12.3,0s-8.2,0-12.3,0c-1.2,0-1.7,0.1-1.7,1.6c0,1.5,0.7,1.4,1.7,1.4
		c7.9,0,15.8,0,23.7,0c0.3,0,0.6,0,0.9,0c1.5-0.1,1.4-1.5,1.5-2.4C136.2,115.1,135.2,115.5,134.7,115.5L134.7,115.5z"/>
	<path id="path30" class="st3" d="M109.9,89.2c-1.1,0-1.5,0.3-1.5,1.5c0,1.1,0.2,1.5,1.4,1.5c4.2-0.1,8.3,0,12.5,0
		c4.2,0,8.4,0,12.6,0c0.5,0,1.1,0.3,1.2-0.6c0.1-1.2-0.8-2.3-2-2.3C126,89.2,118,89.2,109.9,89.2L109.9,89.2z"/>
	<path id="path32" class="st4" d="M144.5,99.7c-1.4,0-1,0.8-1.1,1.6c-0.1,0.9,0.1,1.4,1.2,1.3c1.7-0.1,3.4-0.1,5,0
		c0.9,0,1.4-0.2,1.4-1.4c0,1.4,0.8,1.4,1.7,1.4c3.7,0,7.4,0,11.1,0c0.9,0,1.7,0.1,2-1.2c0,1,0.3,1.2,1.1,1.2c1.7-0.1,3.4-0.1,5,0
		c1,0.1,1.4-0.2,1.4-1.3c0-1,0-1.6-1.4-1.5c-3.2,0.1-6.5,0-9.7,0c-1.7,0-3.8-0.6-3.8,2.3c-0.9-0.8-0.3-2.4-2-2.3
		C152.5,99.8,148.5,99.8,144.5,99.7L144.5,99.7z"/>
	<path id="path34" class="st5" d="M109.5,120.8c-1.4,0-1,0.9-1.1,1.6c-0.1,0.9,0.2,1.3,1.2,1.3c5.9,0,11.7,0,17.6,0
		c2.3,0,4.3-0.9,6.3-2.8C125.3,120.9,117.4,120.9,109.5,120.8L109.5,120.8z"/>
	<path id="path36" class="st5" d="M110,86.8c7.3-0.1,14.6,0,21.9,0c0.4,0,0.8,0.1,1.2-0.3c-1.9-1.7-4-2.5-6.3-2.6
		c-5.6,0-11.3,0-16.9,0c-1.1,0-1.5,0.2-1.5,1.4C108.4,86.5,108.8,86.8,110,86.8L110,86.8z"/>
	<path id="path38" class="st4" d="M114.9,99.7c-1.1,0-1.5,0.2-1.5,1.4c0,1.3,0.5,1.5,1.6,1.5c5.2-0.1,10.5-0.1,15.7,0
		c2.2,0.1,3.2-0.9,4.1-2.9C128,99.8,121.5,99.8,114.9,99.7z"/>
	<path id="path40" class="st4" d="M134.7,107.9c-0.8-1.2-1-2.8-2.7-2.8c-5.8,0-11.6,0-17.4,0c-1.2,0-1.1,0.7-1.1,1.4
		c0,0.7-0.2,1.5,1,1.5C121.2,107.8,128,107.9,134.7,107.9z"/>
	<path id="path42" class="st6" d="M90,118.4c2.5-0.1,5,0,7.4,0c2.5,0,5.1-0.1,7.6,0c1.1,0,1.2-0.6,1.1-1.4c0-0.8,0.2-1.6-1.1-1.6
		c-5,0.1-10,0.1-15.1,0c-1.3,0-1.2,0.6-1.2,1.5C88.8,117.9,88.8,118.5,90,118.4z"/>
	<path id="path44" class="st6" d="M90,92.1c2.4-0.1,4.9,0,7.3,0c2.6,0,5.2-0.1,7.8,0c1.1,0,1.2-0.5,1.1-1.4c0-0.8,0.2-1.6-1.1-1.6
		c-5,0.1-10,0.1-15.1,0c-1.2,0-1.2,0.6-1.2,1.5C88.8,91.6,88.7,92.2,90,92.1z"/>
	<path id="path46" class="st7" d="M163.3,92.1c2.2,0.1,4.4,0,6.5,0c2.4,0,4.9-0.1,7.2,0c1.4,0.1,1-0.8,1.1-1.6
		c0.1-0.8,0-1.4-1.1-1.4c-2.5,0.1-5,0-7.4,0c-2.1,0-4.2,0-6.2,0c-1.7,0-1.5,1.5-1.6,2.4C161.7,92.5,162.8,92.1,163.3,92.1
		L163.3,92.1z"/>
	<path id="path48" class="st8" d="M139.7,92.1c2.3-0.1,4.6,0,6.9,0c2.4,0,4.7,0,7.1,0c0.4,0,0.8,0.2,1.1-0.2
		c0.4-0.6-0.9-2.7-1.7-2.7c-4.5,0-9,0-13.5,0c-1.4,0-1.1,0.8-1.1,1.6C138.4,91.7,138.6,92.2,139.7,92.1L139.7,92.1z"/>
	<path id="path50" class="st5" d="M105.1,120.8c-5,0.1-10,0.1-15,0c-1.2,0-1.2,0.6-1.2,1.5c0,0.9,0,1.5,1.2,1.5c2.5-0.1,5.1,0,7.6,0
		c2.5,0,5-0.1,7.4,0c1.4,0.1,1.1-0.8,1.1-1.5C106.2,121.4,106.2,120.8,105.1,120.8z"/>
	<path id="path52" class="st4" d="M89.9,86.8c2.5-0.1,5.1,0,7.6,0s5.1,0,7.6,0c1.1,0,1.3-0.4,1.2-1.3c-0.1-0.7,0.3-1.6-1.1-1.6
		c-5.1,0.1-10.2,0.1-15.4,0c-1.3,0-0.9,0.8-1,1.5C88.8,86.1,88.6,86.8,89.9,86.8L89.9,86.8z"/>
	<path id="path54" class="st4" d="M164.9,86.7c1.9,0.1,3.8,0,5.7,0c2.2,0,4.4,0,6.6,0c0.9,0,1.1-0.4,1-1.1c-0.1-0.6,0.6-1.7-0.7-1.7
		c-4.2-0.1-8.4-0.1-12.6,0c-1.3,0-1.2,1.5-1.3,2.3C163.4,87.2,164.4,86.7,164.9,86.7z"/>
	<path id="path56" class="st4" d="M139.4,86.8c4.5,0,9.1,0,13.9,0c-0.7-1.1,0-2.8-1.8-2.8c-4-0.1-8,0-11.9,0c-1.1,0-1.1,0.6-1,1.3
		C138.5,85.8,138.1,86.8,139.4,86.8L139.4,86.8z"/>
	<path id="path58" class="st9" d="M139.6,118.4c1.7-0.1,3.3,0,5,0c1.7,0,3.5-0.1,5.2,0c1.2,0.1,1-0.7,1-1.5c0-0.7,0.3-1.5-1-1.5
		c-3.4,0.1-6.8,0.1-10.2,0c-1.1,0-1.2,0.5-1.2,1.4C138.5,117.6,138.3,118.5,139.6,118.4z"/>
	<path id="path60" class="st7" d="M177.1,115.5c-3.3,0.1-6.7,0.1-10,0c-1.1,0-1.2,0.6-1.1,1.4c0,0.8-0.1,1.6,1.2,1.6
		c1.7-0.1,3.3,0,5,0c1.7,0,3.3-0.1,5,0c1.2,0.1,1.1-0.6,1.1-1.4C178.1,116.3,178.4,115.4,177.1,115.5z"/>
	<path id="path62" class="st4" d="M172.4,97.4c1.4,0,0.9-0.9,0.9-1.6c0.1-0.7,0.1-1.3-1-1.3c-3,0.1-6.1,0-9.2,0c-2.6,0-2.6,0-3,2.8
		C164.2,97.4,168.3,97.3,172.4,97.4L172.4,97.4z"/>
	<path id="path64" class="st5" d="M144.3,94.5c-1.2,0-0.9,0.8-0.8,1.4c0,0.6-0.4,1.5,0.8,1.4c4.1,0,8.1,0,12.2,0
		c-0.5-2.6-0.6-2.8-1.5-2.8C151.4,94.5,147.9,94.6,144.3,94.5z"/>
	<path id="path66" class="st4" d="M149.8,120.8c-1.7,0.1-3.5,0-5.2,0c-1.7,0-3.4,0.1-5,0c-1.2-0.1-1.1,0.7-1.1,1.4
		c0,0.7-0.2,1.5,1,1.5c3.4-0.1,6.8-0.1,10.2,0c1.2,0,1.1-0.7,1-1.4C150.8,121.6,151,120.8,149.8,120.8z"/>
	<path id="path68" class="st4" d="M177.1,120.8c-1.7,0.1-3.3,0-5,0c-1.7,0-3.5,0.1-5.2,0c-1.3-0.1-1,0.8-1,1.5
		c0,0.7-0.2,1.5,1.1,1.4c3.4-0.1,6.8-0.1,10.2,0c1.3,0,1-0.8,1-1.5C178.2,121.5,178.4,120.8,177.1,120.8z"/>
	<path id="path70" class="st4" d="M155.5,107.9c2,0,3.9,0,5.9,0c2.6,0,2.6,0,2.9-2.8c-4,0-7.9,0-11.9,0
		C152.9,107.9,152.9,107.9,155.5,107.9z"/>
	<path id="path72" class="st10" d="M160.8,110.3c-0.8-0.1-1.6,0-2.4,0c-0.8,0-1.6,0-2.4,0c-2.2,0-2.4,0.2-1.4,2.3
		c0.3,0.6,0.7,0.6,1.2,0.6c1.6,0,3.2-0.1,4.9,0c1.8,0.1,1.7-1.4,1.8-2.3C162.6,109.7,161.4,110.4,160.8,110.3z"/>
	<path id="path74" class="st11" d="M135.3,110.3c-1.9,0-3.9,0-5.9,0c-0.7,0-0.9,0.2-0.9,0.9c-0.1,1.4,0,2.4,1.8,2.1
		c0.7-0.1,1.5,0,2.2,0c0.9,0,1.8,0,2.7,0c0.6,0,1.4,0.1,1.2-0.9C136.4,111.5,136.8,110.3,135.3,110.3L135.3,110.3z"/>
	<path id="path76" class="st10" d="M120.1,110.3c-1.9,0.1-3.8,0-5.7,0c-0.7,0-1,0.2-1,1c-0.1,1.4,0.1,2.3,1.8,1.9c0.7-0.1,1.4,0,2,0
		c0.9,0,1.8-0.1,2.7,0c1.2,0.1,1.1-0.7,1.1-1.4C121,111.1,121.4,110.3,120.1,110.3L120.1,110.3z"/>
	<path id="path78" class="st12" d="M100.1,110.3c-1.8,0.1-3.7,0-5.5,0c-0.4,0-0.8-0.1-1,0.4c-0.6,1.3,0.1,2.5,1.5,2.5
		c0.7,0,1.5,0,2.2,0c0.9,0,1.8-0.1,2.7,0c1.2,0.1,1-0.8,1-1.5S101.4,110.2,100.1,110.3z"/>
	<path id="path80" class="st11" d="M149,110.3c-0.6,0.1-1.2,0-1.9,0c-0.8,0-1.5,0.1-2.2,0c-1.2-0.1-1.6,0.3-1.6,1.5
		c0,1.4,0.6,1.5,1.6,1.4c1.6-0.1,3.2,0,4.8,0c0.7,0,1-0.2,1-1C150.9,110.9,150.8,110,149,110.3L149,110.3z"/>
	<path id="path82" class="st13" d="M167.6,113.2c0.6,0,1.2,0,1.9,0c0.9,0,1.8,0,2.7,0c1.2,0.1,1-0.8,1-1.5c0-0.7,0.2-1.5-1-1.5
		c-1.8,0.1-3.5,0-5.3,0c-0.5,0-0.9,0-1,0.6C165.5,112.6,165.9,113.2,167.6,113.2L167.6,113.2z"/>
	<path id="path84" class="st14" d="M134.8,94.6c-0.8-0.1-1.6,0-2.4,0c-0.9,0-1.8,0.1-2.7,0c-1.2-0.1-1.3,0.5-1.3,1.4
		c0,0.9,0,1.6,1.2,1.5c1.7-0.1,3.5-0.1,5.2,0c1.7,0.1,1.5-1,1.6-2C136.5,94,135.4,94.6,134.8,94.6L134.8,94.6z"/>
	<path id="path86" class="st15" d="M99.5,105c-0.7,0.1-1.4,0-2.1,0c-0.9,0-1.8,0.1-2.8,0c-1.1-0.1-1,0.6-1,1.3
		c0,0.7-0.4,1.6,0.9,1.5c1.9-0.1,3.8,0,5.7,0c0.7,0,0.9-0.2,0.9-0.9C101.3,105.7,101.2,104.7,99.5,105z"/>
	<path id="path88" class="st14" d="M100.3,99.7c-1.9,0.1-3.8,0-5.7,0c-0.7,0-0.9,0.2-0.9,0.9c-0.1,1.3,0,2.3,1.7,2
		c0.7-0.1,1.4,0,2.1,0c0.9,0,1.8-0.1,2.8,0c1.1,0.1,1-0.6,1-1.3C101.1,100.6,101.6,99.7,100.3,99.7z"/>
	<path id="path90" class="st14" d="M120,94.5c-1.9,0.1-3.8,0-5.7,0c-0.4,0-0.8-0.1-0.9,0.5c-0.4,1.6,0.1,2.3,1.7,2.3
		c0.7,0,1.4,0,2.1,0c0.9,0,1.8-0.1,2.8,0c1.1,0.1,1-0.6,1-1.3C120.9,95.4,121.4,94.5,120,94.5z"/>
	<path id="path92" class="st14" d="M100.1,94.5c-1.8,0.1-3.7,0-5.5,0c-0.7,0-0.9,0.2-1,1c-0.1,1.5,0.2,2.2,1.8,1.9
		c0.6-0.1,1.2,0,1.9,0c0.9,0,1.8-0.1,2.8,0c1.2,0.1,1.1-0.6,1.1-1.4C101.2,95.3,101.4,94.5,100.1,94.5z"/>
	<path id="path94" class="st15" d="M166.9,107.9c1.8-0.1,3.6,0,5.3,0c0.7,0,1-0.1,1-0.9c0.1-1.4-0.1-2.3-1.8-1.9
		c-0.6,0.1-1.2,0-1.9,0c-0.9,0-1.8,0-2.8,0c-1.3-0.1-0.9,0.9-0.9,1.6C165.8,107.3,165.8,107.9,166.9,107.9L166.9,107.9z"/>
	<path id="path96" class="st14" d="M149.8,105c-1.8,0.1-3.6,0-5.4,0c-0.7,0-1,0.1-1.1,0.9c-0.1,1.4,0.1,2.3,1.8,1.9
		c0.6-0.1,1.3,0,1.9,0c0.9,0,1.8,0,2.8,0c1.4,0.1,0.9-0.9,0.9-1.5C150.8,105.7,150.9,105,149.8,105L149.8,105z"/>
	<path id="path98" class="st16" d="M159,115.5c-0.2-0.1-0.5,0-0.7,0c-0.3,0-0.7,0-1,0c-1.7-0.3-1.7,0.4-1.3,1.8
		c0.5,1.7,1.8,1,2.8,1.1c1.9,0.3,1.9-1.2,2-2.3C160.9,114.9,159.6,115.7,159,115.5L159,115.5z"/>
	<path id="path100" class="st17" d="M157.6,120.9c-0.3,1,0.3,1.8,0.7,2.7c0.3-0.9,1.2-1.7,0.7-2.7
		C158.9,120.7,157.7,120.8,157.6,120.9z"/>
	<path id="path102" class="st18" d="M133.5,163.5c-0.5,0.5-2-0.9-2,1c0,2.4,0,4.7,0,7.1c0,0.4,0,0.8,0.5,0.9
		c3.3,1.2,6.8-1.4,6.7-4.9C138.5,164.7,137.1,163.5,133.5,163.5z"/>
	<path id="path104" class="st19" d="M131.5,158.3c0,0.4-0.1,0.8,0.4,1c2.3,1.1,5.9-1,6.1-3.5c0.2-3.2-1-4.4-4.8-4.4
		c-1.6-0.5-1.8,0.5-1.7,2C131.6,155,131.5,156.7,131.5,158.3z"/>
	<path id="path106" class="st20" d="M107.9,161.8c0,3.1,0,6.2,0,9.4c0,0.5-0.2,1.1,0.6,1.4c3.3,0.8,6-0.8,6.5-4.2
		c0.7-4.1,0.7-8.2,0.1-12.2c-0.5-3.8-1.9-4.7-5.9-4.7c-1.1,0-1.5,0.2-1.5,1.4C108,155.8,107.9,158.8,107.9,161.8L107.9,161.8z"/>
</g>
<path d="M58.5,124.3L58.5,124.3"/>
</svg>
