<svg width="147" height="110" viewBox="0 0 147 110" fill="none" xmlns="http://www.w3.org/2000/svg">
<path d="M75.4409 0C84.823 0 94.2052 0 103.587 0C121.449 0.184538 138.049 11.8105 144.183 28.9725C146.889 36.3541 147.431 43.9202 146.709 51.8553C145.627 63.2967 142.198 73.9999 135.884 83.5959C126.141 98.359 112.248 106.663 95.1073 109.247C89.3337 110.169 83.3796 109.985 77.606 109.985C75.2605 109.985 73.8171 108.878 73.8171 106.848C73.6366 104.633 75.08 102.972 77.4256 102.788C80.132 102.603 82.6579 102.788 85.3643 102.603C101.422 102.234 115.495 96.5136 126.501 84.3341C134.26 75.8453 138.229 65.3266 139.492 53.8852C140.394 45.9501 140.394 38.0149 137.327 30.4488C132.636 18.8229 124.156 11.8105 112.428 8.48878C107.918 7.19701 103.226 7.01247 98.5354 7.01247C81.2145 6.82793 63.8936 7.01247 46.5728 7.01247C45.8511 7.01247 45.1294 7.01247 44.4077 7.01247C42.6034 6.82793 41.3404 5.35162 41.16 3.69077C41.16 2.02992 42.2426 0.553627 43.8664 0.18455C44.5881 1.12606e-05 45.4902 0 46.2119 0C56.1353 0 65.8783 0 75.4409 0Z" fill="#29F1FB"/>
<path d="M57.6586 84.5217H26.2965C25.5671 84.5217 25.0201 84.5217 24.2908 84.5217C22.4674 84.3368 21.3733 83.2278 21.191 81.3795C21.0087 79.5312 21.9204 78.2374 23.5614 77.6829C24.6554 77.3132 25.7495 77.3132 27.0258 77.3132C47.63 77.3132 68.4165 77.3132 89.0207 77.3132C96.3143 77.3132 102.514 74.5408 107.437 69.1807C111.631 64.5599 114.001 59.0149 114.548 52.7307C115.095 47.7403 114.366 43.3043 111.448 39.238C108.166 34.8021 103.608 32.5841 98.1376 32.3993C78.6275 32.3993 59.1173 32.3993 39.6071 32.3993C37.6014 32.3993 35.4134 32.2144 33.4077 32.0296C31.5843 31.8448 30.6726 30.7358 30.4902 28.8875C30.3079 26.8543 31.4019 25.5605 33.2253 25.1909C33.7723 25.1909 34.5017 25.006 35.0487 25.1909C56.0176 25.1909 76.9864 25.1909 97.9553 25.1909C108.531 25.1909 117.648 31.6599 120.93 41.8257C123.3 49.0341 122.389 56.2425 119.836 63.2661C114.73 76.5739 102.878 84.8913 88.6561 84.8913C78.0805 84.5217 67.8695 84.5217 57.6586 84.5217Z" fill="#29F1FB"/>
<path d="M11.2625 32.2018C8.86651 32.2018 6.28622 32.2018 3.89024 32.2018C1.86288 32.2018 0.204121 30.9287 0.0198148 29.1099C-0.164491 27.2912 0.941345 25.8362 3.15302 25.2906C4.44316 25.1087 5.549 25.1087 6.83914 25.1087C10.1567 25.1087 13.4742 25.1087 16.7917 25.1087C17.8975 25.1087 18.819 25.2906 19.7406 25.4725C21.5836 25.8362 22.5052 27.4731 22.3209 29.2918C22.1365 31.1105 21.0307 32.2018 19.1877 32.2018C16.6074 32.3837 13.8428 32.2018 11.2625 32.2018Z" fill="#29F1FB"/>
<path d="M55.462 110C53.2738 110 50.9033 110 48.5327 110C46.3445 110 44.8857 108.553 44.7034 106.487C44.521 104.214 45.9798 102.354 47.9857 101.94C52.9091 101.527 57.8326 101.527 62.5737 101.94C64.3972 101.94 65.856 103.8 65.856 105.867V106.074C65.6736 108.347 64.2148 109.793 62.0266 109.793L55.462 110Z" fill="#29F1FB"/>
</svg>
