<?xml version="1.0" encoding="utf-8"?>
<!-- Generator: Adobe Illustrator 25.0.1, SVG Export Plug-In . SVG Version: 6.00 Build 0)  -->
<svg version="1.1" id="Layer_1" xmlns="http://www.w3.org/2000/svg" xmlns:xlink="http://www.w3.org/1999/xlink" x="0px" y="0px"
	 viewBox="0 0 250 250" style="enable-background:new 0 0 250 250;" xml:space="preserve">
<style type="text/css">
	.st0{fill:#5294CF;}
	.st1{fill:#1F5B98;}
	.st2{fill:#2D72B8;}
	.st3{fill:#1A476F;}
</style>
<g>
	<path class="st0" d="M144.1,199.3h1.8l29.3-14.7l0.5-0.7V67l-0.5-0.7l-29.3-14.6H144L144.1,199.3"/>
	<path class="st1" d="M105.9,199.3h-1.8l-29.3-14.7l-0.6-1L73.9,67.6l0.9-1.3l29.3-14.6h1.8L105.9,199.3"/>
	<path class="st2" d="M104.2,51.7h41.7v147.7h-41.7V51.7z"/>
	<path class="st3" d="M190.5,122.2l-1-0.2l-14.1-1.3l-0.2,0.1l-29.3-1.2h-41.7l-29.3,1.2V98.4l0,0l0-0.1l29.3-6.8h41.7l29.3,6.8
		l10.8,5.7v-3.7l4.6-0.5L190,99l-14.4-10.3l-0.4,0.1l-29.3-9.1h-41.7l-29.3,9.1V66.3l-15.3,18V100l0.1-0.1l4.4,0.5v3.8l-4.6,2.4
		v15.6l0.1,0l4.4,0.1v6.6l-3.8,0.1l-0.7-0.1v15.6l4.6,2.5v3.8l-4.4,0.5l-0.2-0.1v15.7l15.3,18v-22.5l29.3,9.1h41.7l29.4-9.1l0.4,0.2
		l14.2-10.2l0.6-1l-4.6-0.5v-3.7l-0.6-0.2l-9.7,5.3l-0.4,0.7l-29.4,6.8v0h-41.7v0l-29.3-6.8v-22.5l29.3,1.2v0h41.7l29.3-1.2l0.7,0.3
		l13.7-1.2l1-0.5l-4.6-0.1v-6.6L190.5,122.2"/>
	<path class="st2" d="M175.2,162.2v22.5l15.3-18v-15.6L175.2,162.2L175.2,162.2"/>
	<path class="st2" d="M175.2,152.7L175.2,152.7l15.3-8.2v-15.7l-15.3,1.4V152.7"/>
	<path class="st2" d="M175.3,98.3L175.3,98.3l-0.1,22.4l15.3,1.4v-15.7L175.3,98.3"/>
	<path class="st2" d="M175.3,88.9l15.3,11V84.3l-15.3-18L175.3,88.9L175.3,88.9L175.3,88.9"/>
</g>
</svg>
