<svg width="77" height="78" viewBox="0 0 77 78" fill="none" xmlns="http://www.w3.org/2000/svg">
<path d="M74 40.7C74 37.8 73.1 35 71.5 32.7C69.9 30.3 67.5 28.6 64.8 27.6C65 26.3 65.2 25.1 65.2 23.8C65.2 19.6 63.9 15.5 61.4 12C58.9 8.49998 55.4 5.99998 51.4 4.69998C47.4 3.39998 43 3.39998 39 4.69998C35 5.99998 31.5 8.59998 29 12C27.2 10.6 24.9 9.79998 22.6 9.79998C20.3 9.79998 18 10.5 16.2 11.9C14.3 13.3 13 15.2 12.3 17.4C11.6 19.6 11.7 22 12.5 24.1C9.80001 25.1 7.50001 26.9 5.80001 29.2C4.10001 31.6 3.20001 34.4 3.20001 37.2C3.20001 40.1 4.10001 42.9 5.70001 45.2C7.40001 47.6 9.70001 49.3 12.4 50.3C12.2 51.6 12 52.8 12 54.1C12 58.3 13.3 62.4 15.8 65.8C18.3 69.2 21.8 71.7 25.8 73C29.8 74.3 34.1 74.3 38.2 73C42.2 71.7 45.7 69.1 48.1 65.7C49.9 67.1 52.1 67.9 54.5 67.9C56.8 67.9 59.1 67.2 60.9 65.9C62.8 64.5 64.1 62.6 64.8 60.4C65.5 58.2 65.4 55.8 64.6 53.7C67.3 52.7 69.7 50.9 71.3 48.6C73 46.4 73.9 43.6 74 40.7Z" fill="white"/>
<path d="M31 34.1L46.5 41.2L62.1 27.5C62.3 26.4 62.4 25.2 62.4 24.1C62.4 20.4 61.2 16.7 59 13.7C56.8 10.7 53.7 8.49996 50.1 7.39996C46.5 6.29996 42.7 6.39995 39.2 7.59995C35.7 8.79995 32.6 11.1 30.5 14.2L28 27.7L31 34.1Z" fill="#FEC514"/>
<path d="M15 50.5C14.8 51.6 14.7 52.8 14.7 54C14.7 57.7 15.9 61.3999 18.1 64.3999C20.3 67.3999 23.5 69.6 27 70.7C30.6 71.8 34.4 71.7 37.9 70.5C41.4 69.3 44.5 66.9 46.6 63.8L49.2 50.3999L45.8 43.8L30.3 36.7L15 50.5Z" fill="#00BFB3"/>
<path d="M14.9 23.7L25.5 26.2L27.8 14.1C26.4 13 24.6 12.4 22.8 12.4C21 12.4 19.2 13 17.8 14C16.3 15.1 15.3 16.6 14.8 18.3C14.2 20.2 14.3 22 14.9 23.7Z" fill="#F04E98"/>
<path d="M14 26.2C11.7 27 9.6 28.5 8.2 30.5C6.8 32.5 6 34.9 6 37.3C6 39.7 6.7 41.9999 8.1 43.8999C9.4 45.8999 11.4 47.4 13.6 48.2L28.5 34.7L25.8 28.9L14 26.2Z" fill="#1BA9F5"/>
<path d="M49.4 63.7999C50.8 64.8999 52.6 65.4999 54.4 65.4999C56.2 65.4999 58 64.8999 59.4 63.8999C60.9 62.7999 61.9 61.2999 62.4 59.5999C62.9 57.8999 62.9 55.9999 62.2 54.2999L51.6 51.7999L49.4 63.7999Z" fill="#93C90E"/>
<path d="M51.5 49L63.2 51.7C65.5 50.9 67.6 49.3999 69 47.3999C70.4 45.3999 71.2 43 71.2 40.6C71.2 38.2 70.5 35.9 69.1 34C67.8 32.1 65.8 30.6 63.6 29.7L48.3 43.1L51.5 49Z" fill="#0077CC"/>
</svg>
