<svg width="135" height="121" viewBox="0 0 135 121" fill="none" xmlns="http://www.w3.org/2000/svg">
<path fill-rule="evenodd" clip-rule="evenodd" d="M80.2748 93.9681V119.455H86.6328V107.699H87.9393V119.37H94.3845V93.9681H87.9393V103.408H86.6328V93.9681H80.2748Z" fill="black" stroke="#FDEE21" stroke-width="0.7909"/>
<path fill-rule="evenodd" clip-rule="evenodd" d="M102.223 93.9681H96.0393V119.455H102.223V93.9681Z" fill="black" stroke="#FDEE21" stroke-width="0.7909"/>
<path fill-rule="evenodd" clip-rule="evenodd" d="M103.268 93.9681L108.146 119.455H115.549L120.426 93.9681H113.894L112.239 104.867C112.065 105.296 111.63 105.296 111.543 104.867L109.888 93.9681H103.268Z" fill="black" stroke="#FDEE21" stroke-width="0.7909"/>
<path fill-rule="evenodd" clip-rule="evenodd" d="M134.013 93.9681H121.733V119.455H134.013V112.762L127.22 112.676V109.844H130.443V103.236H127.22V100.662H134.013V93.9681Z" fill="black" stroke="#FDEE21" stroke-width="0.7909"/>
<path fill-rule="evenodd" clip-rule="evenodd" d="M67.6457 16.5624C66.6006 13.7305 30.978 0.0858169 30.5425 1.6305C24.0103 3.26099 21.3103 10.7269 16.8683 15.361L6.8522 14.8461C2.41027 20.4241 0.145747 26.0879 1.71349 32.0092C7.37478 39.561 13.907 45.9113 18.0006 55.4369C18.349 59.8993 37.5974 55.866 41.6909 55.0078C36.0296 58.9553 31.1522 65.134 33.2425 82.8979C35.1586 91.222 36.4651 100.576 53.5361 110.016C55.8006 111.217 60.4167 112.676 63.2909 113.706C66.078 114.907 69.3006 115.422 78.3587 112.762C83.5845 110.53 89.2457 109.157 94.4716 106.926L88.2877 107.184C79.7522 107.355 73.2199 107.956 71.2167 105.639L63.378 92.3376L67.907 83.5844C74.2651 84.1851 76.3554 89.2482 81.9296 91.222L88.4619 86.4163C107.536 97.4865 115.113 79.3794 117.291 65.3057C117.03 59.556 104.662 67.1078 105.446 64.4475C105.707 58.2688 100.655 50.2021 97.3458 43.9376L101.178 29.3489C102.92 27.8043 93.1651 11.6709 85.1522 9.61135C78.1845 7.80922 67.6457 16.5624 67.6457 16.5624Z" fill="#FDEE21"/>
<path fill-rule="evenodd" clip-rule="evenodd" d="M99.0006 47.456C99.0877 49.0007 99.0877 50.8886 99.1748 52.0901C99.1748 53.034 98.478 53.034 97.8683 53.2057L101.613 54.5787C102.31 55.7801 102.92 56.9816 103.53 58.2688C104.226 61.2723 103.704 61.3582 103.268 61.6156C101.962 61.6156 100.568 61.6156 99.349 61.3582C99.8716 61.6156 100.046 61.873 100.133 62.2163C100.22 62.9028 99.7845 63.8468 99.0877 64.7908C100.22 65.3915 102.223 65.9922 103.704 66.5071L105.359 62.817C104.488 57.3248 102.136 52.2617 99.0006 47.456Z" fill="#C8C037"/>
<path fill-rule="evenodd" clip-rule="evenodd" d="M105.881 65.8206C107.972 66.6787 110.759 66.4213 114.765 64.4475C115.375 64.0184 115.897 64.2759 114.852 64.9624C109.626 69.5106 107.188 67.1936 105.881 65.8206Z" fill="#C8C037"/>
<path fill-rule="evenodd" clip-rule="evenodd" d="M115.113 63.761C115.723 64.8766 115.375 65.8206 115.113 66.8503C114.504 71.8277 112.936 75.6894 109.801 79.8085C99.7844 95.6844 89.6812 85.7298 81.6683 79.2936L78.3586 87.5319C78.1844 88.2184 77.4877 88.8191 82.6264 91.0503L87.9393 87.3603C108.233 102.55 122.517 66.1638 115.113 63.761Z" fill="#C8C037"/>
<path fill-rule="evenodd" clip-rule="evenodd" d="M84.1941 77.9206C82.8006 78.0064 78.7941 79.3794 78.6199 80.1518L80.449 77.4057L84.1941 77.9206Z" fill="#C8C037"/>
<path fill-rule="evenodd" clip-rule="evenodd" d="M81.4941 61.1865C81.7554 61.1865 82.9748 61.5298 82.8006 61.444C82.6264 61.3582 82.8006 63.0745 83.149 64.0184L81.6683 67.1936C84.4554 64.0184 88.8974 64.1901 92.9909 63.8468L90.9877 62.6454C91.3361 61.5298 90.9006 60.6716 90.7264 59.7277L81.4941 61.1865Z" fill="#C8C037"/>
<path fill-rule="evenodd" clip-rule="evenodd" d="M88.4619 51.661C85.4135 52.605 82.5393 54.0638 80.6232 57.239C82.1038 52.0043 82.3651 52.2617 82.8877 52.0043C84.8909 51.0603 86.6328 51.661 88.4619 51.661Z" fill="#C8C037"/>
<path fill-rule="evenodd" clip-rule="evenodd" d="M72.349 112.848C68.6909 116.795 60.5909 112.59 53.8844 110.359C36.7264 99.6319 33.4167 89.5057 33.1554 79.6369C32.2844 65.4773 36.7264 57.239 42.3006 55.2652C38.5554 62.3021 36.9006 74.917 38.5554 84.2709C39.949 89.5057 39.949 98.2589 48.8328 102.979C53.1877 105.382 51.9683 107.27 54.9296 109.501C58.2393 111.989 67.2103 114.392 72.349 112.848Z" fill="#FCF6A0"/>
<path fill-rule="evenodd" clip-rule="evenodd" d="M77.8361 47.1986C71.6522 38.617 63.0296 35.356 53.2748 35.0128C55.1909 34.4121 57.1941 34.0688 59.1103 33.1248C59.6328 32.6099 59.4586 31.7518 59.2844 30.8936C49.878 28.4908 43.9554 25.4872 36.4651 22.7411L56.7586 27.5468C70.3457 28.0617 69.2135 31.4085 77.8361 47.1986Z" fill="#FCF6A0"/>
<path fill-rule="evenodd" clip-rule="evenodd" d="M84.3683 43.0794C79.8393 36.6433 75.3973 28.9199 69.3877 23.9426C55.0167 17.5922 40.6457 12.7865 23.9232 8.40993L29.2361 1.6305C47.0038 5.66383 63.7264 12.3574 78.707 23.3418C81.2328 29.6922 82.9748 36.0426 84.3683 43.0794Z" fill="#FCF6A0"/>
<path fill-rule="evenodd" clip-rule="evenodd" d="M93.6006 31.7518C93.6006 31.7518 91.0748 26.0879 89.7683 23.9426C86.8941 20.7674 85.4135 14.9319 79.4909 12.1858C81.3199 12.7007 82.6264 12.1 86.4586 15.5326L92.4683 26.7745L93.6006 31.7518Z" fill="#FCF6A0"/>
<path fill-rule="evenodd" clip-rule="evenodd" d="M96.7361 41.5347C97.3457 36.6433 98.478 28.834 97.1715 25.7447C93.6006 21.0248 90.0296 16.1333 86.3715 11.5851C85.7619 11.0702 85.3264 10.2979 84.8909 9.69716C89.9425 10.9844 95.2554 14.417 102.31 28.1475L96.7361 41.5347Z" fill="#FCF6A0"/>
<path fill-rule="evenodd" clip-rule="evenodd" d="M75.4844 42.1355C73.4812 40.5908 71.6522 35.0986 68.6038 33.8972C65.8167 33.6397 64.7715 32.7816 61.0264 33.5539C62.3328 32.8674 63.6393 32.0092 65.0328 31.5801C65.9909 31.3227 66.949 31.5801 67.8199 31.7518C68.0812 31.666 68.1683 31.4943 68.1683 31.3227C64.4232 29.0057 56.7586 29.0057 51.6199 27.7184C57.6296 27.8901 64.249 27.5468 68.778 29.0057C72.4361 32.095 73.6554 38.1021 75.4844 42.1355Z" fill="black"/>
<path fill-rule="evenodd" clip-rule="evenodd" d="M86.4586 15.5326C87.3296 15.6184 91.7716 22.5695 91.9457 23.7709C92.2941 26.3454 93.2522 29.1773 93.5135 31.8376C92.8167 29.2631 91.9457 26.7745 90.9877 24.2C90.7264 23.5135 89.9425 21.883 87.8522 19.6518C86.9812 18.0213 86.7199 16.734 86.4586 15.5326Z" fill="black"/>
<path fill-rule="evenodd" clip-rule="evenodd" d="M101.701 53.5489H99.7845L101.875 54.0638L101.701 53.5489Z" fill="black"/>
<path fill-rule="evenodd" clip-rule="evenodd" d="M88.6361 51.661C86.72 51.4036 84.7167 51.4036 82.8006 51.8326C82.0167 52.8624 81.9296 53.8922 81.5812 54.922C83.9329 52.3475 84.8909 52.1759 88.6361 51.661Z" fill="black"/>
<path fill-rule="evenodd" clip-rule="evenodd" d="M114.939 64.7908C113.894 65.6489 113.72 66.4213 110.584 67.3653C108.233 67.8801 106.926 67.022 105.881 65.7348C107.536 66.1638 107.797 67.4511 112.239 66.078L114.939 64.7908Z" fill="black"/>
<path fill-rule="evenodd" clip-rule="evenodd" d="M105.272 65.3057C104.488 67.3653 103.704 69.5106 102.833 71.4844C100.83 73.8014 101.701 72.5142 98.6522 76.0326C99.6103 74.5738 100.83 73.2007 101.526 71.656C101.962 70.6262 102.572 69.5965 102.833 68.7383C102.049 68.3092 100.394 68.3092 100.22 68.4809C97.5199 70.0255 97.0845 71.656 95.5167 73.2865C96.649 71.4844 97.607 69.5106 98.9135 67.966C99.0877 67.7943 100.046 67.7085 100.655 67.6227C99.6974 67.4511 97.9554 67.1078 97.8683 67.1078C96.1264 67.5369 95.1683 68.9957 93.8619 70.0255C94.8199 68.6525 95.6909 67.2794 96.8232 66.1638C96.9103 65.9922 100.133 66.3355 101.875 66.9362V67.6227L102.833 67.966L103.53 66.1638L105.272 65.3057Z" fill="black"/>
<path fill-rule="evenodd" clip-rule="evenodd" d="M84.1941 77.9206C83.7586 77.7489 80.0135 77.3199 80.0135 77.4057C78.5328 78.4355 78.3586 79.3794 78.3586 80.2376C80.7974 77.9206 80.7103 77.9206 84.1941 77.9206Z" fill="black"/>
<path fill-rule="evenodd" clip-rule="evenodd" d="M81.3199 61.1007C81.3199 61.1007 84.02 60.6716 84.02 60.9291C83.8458 61.8731 84.3683 64.1043 84.4554 63.8468L82.8877 65.0482C86.1103 63.4177 89.507 63.761 92.9038 63.5036C92.9038 63.5036 90.0296 62.7312 90.2038 62.7312C90.8135 62.6454 90.0296 59.7277 89.7683 59.7277C90.2909 59.556 90.8135 59.3844 91.4232 59.2986C87.3296 58.183 84.978 58.8695 81.3199 61.1007Z" fill="black"/>
<path fill-rule="evenodd" clip-rule="evenodd" d="M105.01 63.1603L104.401 63.4177C104.313 61.7014 102.397 61.7872 100.83 61.7872L99.5232 61.444C99.9586 61.7872 101.178 61.7872 100.655 62.5596C100.22 62.817 100.046 63.761 99.7845 64.5333H99.0877C100.307 65.0482 101.526 65.4773 102.92 65.9922L103.704 66.078L105.707 65.0482L105.01 63.1603Z" fill="black"/>
<path fill-rule="evenodd" clip-rule="evenodd" d="M86.8941 61.9589C86.5457 61.3582 85.0651 61.444 84.7167 61.8731C84.4554 62.2163 84.7167 64.1901 85.0651 63.8468C85.5877 63.4177 86.1974 63.2461 86.9812 63.2461C87.0683 62.817 87.0683 62.4738 86.8941 61.9589Z" fill="white"/>
<path fill-rule="evenodd" clip-rule="evenodd" d="M101.701 64.9624C101.875 64.8766 102.136 63.8468 102.049 63.5035C101.875 62.817 100.394 62.9028 100.394 62.9028C100.046 63.0745 99.6974 64.1901 99.8716 64.6192C99.9587 64.9624 101.439 65.0482 101.701 64.9624Z" fill="white"/>
<path fill-rule="evenodd" clip-rule="evenodd" d="M40.2103 99.8894L41.0812 99.9752C46.4812 102.55 55.3651 106.411 68.1683 104.352L70.1716 107.441C64.5103 110.187 58.4135 109.501 52.7522 109.672L40.2103 99.8894Z" fill="black"/>
<path fill-rule="evenodd" clip-rule="evenodd" d="M32.5457 79.2936L35.2457 90.4497C42.4748 94.9121 54.7554 99.9752 65.0328 99.5461L62.7683 94.3972C41.3425 89.9348 39.5135 84.2709 32.5457 79.2936Z" fill="black"/>
<path fill-rule="evenodd" clip-rule="evenodd" d="M39.2522 56.4667C40.5586 65.1341 42.3006 71.656 49.9651 77.1482C54.6683 80.495 59.2844 83.756 64.9457 86.5021C64.9457 86.5021 64.4231 89.0766 64.0747 88.9908C47.2651 87.1887 34.9844 73.4582 33.5038 67.1936C34.8102 62.3021 36.9006 59.2986 39.2522 56.4667Z" fill="black"/>
<path fill-rule="evenodd" clip-rule="evenodd" d="M47.2651 51.5752C49.5296 61.1865 54.8425 70.8837 60.1554 79.6369C62.0715 82.0397 62.5941 83.1553 65.6425 84.6142C69.736 85.9014 72.5231 85.5582 75.4844 85.3865C74.7006 83.9277 74.0038 82.383 73.0457 81.0099C66.4264 75.861 69.4748 71.227 71.2167 68.2234C67.5586 67.2794 62.6812 65.3915 62.0715 62.817C61.0264 54.5787 61.5489 52.0043 62.5941 47.7135C57.6296 48.7433 52.6651 49.7731 47.2651 51.5752Z" fill="black"/>
<path fill-rule="evenodd" clip-rule="evenodd" d="M29.149 0.686527C27.4941 1.71631 25.9264 3.261 24.2715 4.97731C21.4844 7.80922 19.5683 10.6411 16.7812 12.7007C16.1715 13.2156 14.6038 13.9879 12.6006 14.0738C11.6425 14.1596 11.0328 14.2454 9.29089 14.0738C7.72315 13.2156 6.3296 13.8163 4.84896 15.4468C3.28122 17.678 1.27799 21.883 0.494118 24.5433C-1.16072 31.3227 3.10702 36.8149 7.28767 41.1057C10.9457 44.6241 13.1232 46.8553 14.6038 50.1163C15.7361 52.2617 16.607 55.0936 17.478 57.1532C17.8264 57.7539 17.7393 57.7539 18.6102 58.0114C20.5264 58.4404 23.2264 58.4404 25.578 58.6121C26.6232 58.6121 28.0167 58.6121 29.3232 58.4404C31.1522 58.0972 33.3296 57.7539 35.1586 57.1532C36.9006 56.7241 38.5554 56.1234 39.949 55.6085C39.7748 56.2092 38.3812 56.8099 37.8586 57.5823C33.0683 64.3617 31.6748 70.4546 32.5457 80.066C32.9812 84.2709 34.0264 87.7894 35.507 91.8227C36.2038 93.6248 37.5973 96.5426 38.9909 98.5163C43.0844 104.266 52.4038 111.646 65.2941 114.478C67.5586 114.821 70.0844 114.65 72.5232 113.963C78.8812 112.075 91.8586 107.613 91.8586 107.613C91.8586 107.613 80.3619 108.557 75.049 108.042C73.8296 107.87 72.5232 107.784 71.6522 107.012C71.478 106.84 70.9554 105.811 71.3038 105.811C71.7393 105.811 73.0457 105.296 75.049 105.124C70.6941 104.695 70.7812 104.695 70.5199 103.923C69.9973 102.721 69.3006 101.091 68.5167 99.6319C70.4328 99.8036 74.6135 100.061 76.007 98.6021C76.007 98.6021 73.4812 98.8596 71.3038 98.6021C70.607 98.5163 69.3006 98.0872 68.9522 97.9156C67.9941 97.5723 67.1232 97.4007 66.949 97.1433C66.6006 96.2851 66.3393 96.0277 65.9909 94.8262C65.4683 93.2816 65.3812 91.5652 65.2941 90.0206C66.6877 91.7369 68.6038 93.1957 70.9554 93.9681C70.9554 93.8823 74.0909 95.3411 76.3554 94.5688L76.7909 94.3972C76.7909 94.3972 75.3102 94.5688 74.7877 94.2255C70.1715 92.3376 69.4748 90.6213 68.778 89.7631L66.7748 86.8454C67.3844 85.644 67.7328 85.644 68.5167 85.644C70.9554 85.9014 72.0006 86.0731 73.4812 85.7298C74.4393 87.7894 74.7877 89.7631 77.0522 91.222C84.6296 93.4532 86.1974 90.5355 88.0264 88.0468C93.4264 91.9943 102.31 93.1957 108.407 88.1326C116.246 79.2078 118.684 65.2199 117.988 64.4475C117.03 62.817 115.723 61.1007 114.678 61.3582C110.759 62.3879 109.365 64.3617 105.446 63.9326C105.881 63.9326 106.665 63.9326 106.665 63.8468C106.926 60.5858 106.665 59.0411 106.491 58.7837C105.272 56.2092 103.791 53.5489 102.659 51.4894C102.397 51.0603 101.526 47.8851 100.22 46.5979C99.6103 46.083 98.2167 44.7957 98.2167 44.7957L98.1296 46.1688C98.1296 46.1688 98.6522 46.2546 98.9135 47.1128C99.6974 50.3738 103.878 58.0113 104.139 58.3546C105.62 60.6716 104.313 63.5894 105.359 65.2199C105.446 65.3915 107.623 65.2199 109.278 65.3057C112.065 64.705 111.891 63.5035 114.33 63.3319C115.897 63.2461 116.072 66.1638 116.072 66.4213C115.81 69.6823 114.765 73.4582 113.197 76.9766C109.975 83.0695 106.404 88.5617 101.265 89.334C95.0812 90.3638 91.7715 87.7035 88.4619 85.9872L87.1554 87.1028C82.8006 91.3936 77.5748 91.0504 75.3974 85.3865C74.3522 83.2411 72.9586 81.8681 71.7393 79.9801L65.4683 84.4426C64.9457 85.4723 64.3361 87.1887 63.5522 88.9908C63.0296 90.278 62.5941 92.5092 62.5941 94.3113C61.8103 95.6844 65.3812 101.091 67.6457 104.438C68.3425 105.382 69.5619 107.098 69.649 107.27C70.0844 108.385 71.0425 109.415 71.1296 109.587C75.3102 114.993 65.8167 113.791 63.8135 113.448C59.8941 112.848 56.149 111.217 52.578 109.072C52.4038 108.986 52.1425 108.814 51.9683 108.728C47.7006 106.068 43.8683 102.721 40.5586 99.3745C38.5554 97.1433 36.7264 92.6809 35.3328 89.4199C33.2425 81.6965 30.2812 68.395 38.3812 58.2688C38.9038 57.6681 39.4264 56.7241 39.949 56.5525C42.3877 54.922 45.0006 53.8922 47.7877 53.2057L47.5264 51.4035C46.1328 51.7468 41.4296 53.4631 40.0361 54.1496C36.9877 55.0078 34.4619 55.9518 30.6296 56.8957C29.4102 57.0674 28.1038 57.0674 26.8844 56.8957C24.0973 56.5525 19.307 56.8957 19.0457 56.5525C17.1296 53.978 16.607 49.344 14.9522 46.8553C13.907 45.5681 12.7748 44.4525 11.6425 43.3369C7.54896 39.3035 3.97799 35.356 3.01993 31.2369C2.75864 30.0355 2.14896 28.7482 2.49735 25.144C3.45541 21.7972 5.11025 19.0511 7.81025 16.2192C10.6844 16.305 13.4715 16.305 15.649 16.734C16.6941 16.9057 18.7844 17.1631 20.9619 17.9355C26.449 19.9092 33.678 23.256 33.678 23.256C28.278 20.3383 22.1812 16.4766 18.349 15.7043C17.7393 15.6184 17.3909 15.361 17.2167 14.9319C22.878 11.5851 23.9232 7.63759 27.7554 4.11915C29.4973 3.34681 30.1941 3.00355 31.6748 2.83192C45.349 4.97731 53.8844 10.2979 60.678 13.9021C63.4651 15.361 65.9038 16.4766 68.3425 17.8496C70.4328 18.5362 76.7909 23.256 78.6199 25.7447C80.5361 29.6922 81.8425 33.8972 83.149 38.0163C84.0199 42.1355 84.8038 43.8518 84.8038 43.8518C84.8038 43.8518 84.0199 40.4192 84.1941 39.7326C84.978 39.9901 86.8941 40.5908 87.678 40.505C87.678 40.505 84.1941 38.7028 83.7586 37.1582C82.278 32.1809 80.7973 24.3716 80.449 23.9426C79.3167 22.5695 74.7006 19.0511 71.8264 17.4206C70.7812 16.8199 70.1715 16.3908 70.0844 16.1333C70.9554 15.1894 72.0877 14.0738 73.1328 13.3014C74.0909 12.6149 74.9619 11.7567 76.3554 11.2418C82.278 8.58156 85.6748 12.2716 86.4586 11.4993C86.4586 11.4993 85.1522 10.0404 85.7619 10.2979C86.3715 10.6411 88.2006 10.9844 88.4619 11.156C90.6393 12.7865 96.2135 18.8794 99.6102 25.3156C100.394 26.8603 100.743 27.8901 100.394 29.778C100.046 31.666 99.6974 32.6957 99.349 33.983C99.0006 34.8411 96.8232 40.5908 96.9103 41.3631C96.4748 44.5383 98.3038 48.4858 98.3038 48.4858C98.3038 47.3702 98.2167 46.8553 98.3038 46.083L98.3909 44.7099C98.3909 44.7099 98.3038 44.3667 98.3038 44.195C98.3909 43.2511 98.6522 42.4787 98.7393 41.878C99.4361 37.7589 100.568 34.7553 101.962 31.1511C102.397 30.2071 102.92 29.6922 102.833 29.0057C102.833 27.8043 101.701 26.0879 100.917 24.4574C100.133 22.827 99.0877 21.0248 97.8683 19.0511C94.907 14.9319 92.4683 11.6709 87.8522 9.61135C86.5457 9.09646 81.4941 8.49575 79.7522 8.83901C77.6619 9.26809 75.8328 9.69717 74.3522 10.6411C72.0877 12.1 70.2586 14.3312 68.1683 15.6184C63.5522 13.3014 61.2877 11.5851 60.8522 11.4135C58.0651 9.95461 54.7554 8.2383 51.1844 6.69362C49.4425 5.23475 38.8167 1.45887 29.149 0.686527ZM88.4619 85.9872C85.5877 83.756 83.149 81.5248 81.5812 79.2078C81.0586 81.9539 79.1425 83.9277 77.749 85.8156C77.4877 86.2447 77.2264 86.8454 78.707 88.8191C79.0554 89.334 80.449 89.4199 81.407 89.4199C80.449 88.7333 78.9683 87.961 78.7941 87.2745C80.449 88.3901 82.0167 88.7333 83.4103 88.5617C83.7586 88.5617 84.107 88.2184 84.4554 87.7035C85.0651 86.4163 85.5877 86.0731 86.1102 85.7298L87.2425 87.1028L88.4619 85.9872Z" fill="black" stroke="black" stroke-width="0.0175764"/>
</svg>
