<svg width="42" height="99" viewBox="0 0 42 99" fill="none" xmlns="http://www.w3.org/2000/svg">
<path d="M21.0178 99C21.1917 98.4162 21.3076 98.0659 21.4235 97.7156C21.6553 96.6647 21.4815 95.8473 20.2064 95.5554C19.453 95.3802 18.6995 95.2051 18.1779 94.4461C18.4097 93.8623 18.8734 94.0958 19.2791 94.0374C20.0325 93.9791 20.9598 94.1542 21.1917 93.0449C21.4235 91.994 21.0758 91.1767 20.1484 90.5929C19.453 90.1842 18.7575 89.8339 18.2938 89.1333C18.004 88.6662 17.5983 88.0824 18.062 87.5569C18.6416 86.9731 19.1052 87.6153 19.5109 87.9072C19.6268 88.024 19.7427 88.1408 19.8587 88.2575C20.5541 88.6662 20.786 90.009 21.9451 89.4836C23.1043 88.9581 24.0895 87.0315 23.8577 85.8054C23.3361 82.6528 22.8145 79.4417 23.2781 76.1723C23.6838 73.3115 24.6112 70.6843 26.234 68.4074C28.2045 65.605 28.3204 62.861 26.4658 60.0002C26.4078 59.8835 26.3499 59.7083 26.234 59.5915C22.6406 54.3955 23.1043 49.1994 26.0601 43.9449C28.0306 40.442 30.4069 37.2309 33.3047 34.4285C34.29 33.436 34.8696 32.3851 35.0435 31.0423C36.7242 20.475 35.4492 10.4915 29.5375 1.38382C29.4216 1.20867 29.3636 1.03352 29.4216 0.799988C31.4501 2.55147 33.1309 4.65326 34.5798 6.87181C40.2016 15.5125 41.9404 24.9121 40.2596 35.0707C40.0857 36.1216 39.6221 36.8806 38.8107 37.5812C35.7969 40.3836 33.0729 43.4779 31.0444 47.0976C30.0012 48.9659 29.2477 50.9509 29.1318 53.111C29.0739 53.7532 28.9 54.629 29.6534 54.9209C30.4648 55.2712 31.0444 54.6874 31.566 54.1619C33.7684 52.0601 35.623 49.7832 37.3617 47.2728C38.405 45.8132 39.4482 44.3536 40.4914 42.894C40.7233 42.6021 40.8971 42.2518 41.4767 42.2518C41.9404 44.6455 41.6506 47.0392 41.2449 49.3745C40.6073 52.7607 39.1584 55.6799 36.2026 57.6649C35.2173 58.3071 34.4059 59.1245 33.7684 60.117C32.3195 62.2771 32.6092 63.9703 34.6378 65.4882C35.3332 66.0137 35.3912 66.3056 34.5798 66.831C32.7831 67.9987 31.7978 69.8669 31.624 71.9103C30.9285 79.2666 30.1171 86.6228 27.2772 93.5704C26.234 96.1392 24.3793 97.7739 21.8292 98.7081C21.6553 98.9416 21.4815 98.9416 21.0178 99Z" fill="#2B5E86"/>
<path d="M11.8026 1.09192C8.32513 6.46314 6.35458 12.1263 5.71705 18.1981C5.25339 22.8687 5.42727 27.481 6.29662 32.0932C6.41254 32.8522 6.81824 33.436 7.33986 34.0199C10.5275 37.4061 13.4833 40.9674 15.3959 45.2878C16.4391 47.6231 17.1926 50.0168 17.1926 52.644C17.1346 54.8042 14.8163 57.2562 12.7878 57.5482C11.8605 57.6649 11.8026 57.0811 11.7446 56.3805C11.5128 53.87 11.3389 51.3596 10.3536 48.9659C8.84674 45.2294 6.70232 41.9015 3.68855 39.2743C1.60209 37.4645 0.790685 35.3043 0.558856 32.6771C-0.484374 21.0589 2.64532 10.8419 10.4695 2.20119C10.7014 1.73413 10.9332 1.26707 11.8026 1.09192Z" fill="#2B5E86"/>
<path d="M17.1343 78.0405C16.3808 76.1139 15.6274 74.1288 14.874 72.2022C14.4683 71.2097 14.0626 70.2756 12.7295 70.2756C12.0341 70.2756 11.4545 69.7501 11.2227 69.0495C10.817 68.1154 10.4113 67.298 9.31007 66.9477C8.49866 66.6558 9.19415 66.1888 9.54189 65.9552C11.4545 64.6124 13.7148 65.1379 14.9319 67.1813C16.2649 69.4582 16.7865 71.9687 17.1922 74.5375C17.3082 75.6468 17.6559 76.7561 17.1343 78.0405Z" fill="#2B5E86"/>
<path d="M8.55703 58.3072C4.67389 55.8551 1.5442 52.8192 0.674843 48.0318C0.616886 47.5647 0.327098 46.9809 0.790755 46.689C1.37033 46.3387 1.71807 46.9809 2.12377 47.2728C3.63066 48.6156 4.61594 50.3671 5.60121 52.1186C6.76035 54.1036 7.80358 56.0886 8.55703 58.3072Z" fill="#2B5E86"/>
</svg>
