<?xml version="1.0" encoding="utf-8"?>
<!-- Generator: Adobe Illustrator 25.0.1, SVG Export Plug-In . SVG Version: 6.00 Build 0)  -->
<svg version="1.1" id="Layer_1" xmlns="http://www.w3.org/2000/svg" xmlns:xlink="http://www.w3.org/1999/xlink" x="0px" y="0px"
	 viewBox="0 0 250 250" style="enable-background:new 0 0 250 250;" xml:space="preserve">
<style type="text/css">
	.st0{fill:#003545;}
</style>
<g>
	<path class="st0" d="M96.9,177.4c-0.6-0.1-1.2-0.2-1.8-0.3c-3-0.7-5.1-3.4-5.2-6.5c0-1.9,0.4-3.6,1.7-5.1c1.6-1.7,3.6-2.1,5.8-2
		c1.3,0.1,2.6,0.4,3.7,1.2c0.4,0.3,0.7,0.7,1.2,1c0-0.7,0-1.3,0-1.9c1.2,0,2.3,0,3.4,0c0,4.4,0,8.8,0,13.2c-1.1,0-2.2,0-3.4,0
		c0-0.6,0-1.3,0-2c-0.2,0.3-0.4,0.4-0.5,0.6c-1,1-2.2,1.5-3.5,1.7c-0.2,0-0.4,0.1-0.6,0.1C97.4,177.4,97.1,177.4,96.9,177.4z
		 M98,165.9c-2.6,0-4.4,1.8-4.4,4.4c0,2.6,1.8,4.5,4.3,4.6c2.7,0,4.6-1.7,4.6-4.3C102.5,167.8,100.8,166,98,165.9z"/>
	<path class="st0" d="M135.5,177.4c-0.6-0.1-1.1-0.2-1.7-0.3c-3-0.7-5.1-3.3-5.2-6.3c-0.1-2,0.3-3.8,1.7-5.2c1.6-1.6,3.6-2.1,5.8-2
		c1.2,0.1,2.3,0.3,3.3,0.9c0.5,0.3,1,0.8,1.5,1.2c0-0.6,0-1.2,0-1.9c1.2,0,2.3,0,3.4,0c0,4.4,0,8.8,0,13.2c-1.1,0-2.2,0-3.4,0
		c0-0.6,0-1.2,0-2c-0.3,0.3-0.5,0.6-0.8,0.8c-0.9,0.9-2.1,1.3-3.3,1.4c-0.2,0-0.4,0.1-0.6,0.1C136.1,177.4,135.8,177.4,135.5,177.4z
		 M141.2,170.4c0-2.7-1.8-4.5-4.5-4.5c-2.6,0-4.4,1.8-4.4,4.4c0,2.7,1.8,4.5,4.5,4.5C139.4,174.9,141.2,173.1,141.2,170.4z"/>
	<path class="st0" d="M124.9,177.4C124.9,177.3,124.9,177.3,124.9,177.4c-1.9-0.1-2.6-1.5-2.6-3c-0.1-3.4,0-6.9,0-10.3
		c0-0.1,0-0.2,0-0.3c1.1,0,2.2,0,3.4,0c0,0.2,0,0.4,0,0.6c0,3,0,5.9,0,8.9c0,0.1,0,0.3,0,0.4c0,0.6,0.2,0.8,0.9,0.8
		c0.1,0,0.2,0,0.4,0c0.2,0.8,0.3,1.6,0.5,2.5c-0.7,0.1-1.3,0.3-1.9,0.4C125.4,177.4,125.1,177.4,124.9,177.4z"/>
	<path class="st0" d="M156,135.9c0.1-1.5,0.3-3.1,0.4-4.6c0-0.3,0.1-0.5,0-0.8c0-0.1-0.2-0.3-0.3-0.4c-0.1,0-0.3,0.1-0.4,0.2
		c-0.2,0.4-0.3,0.8-0.5,1.2c-1.5,3.7-3.3,7.3-5.8,10.4c-3.6,4.5-8.2,7.4-13.8,8.8c-1.2,0.3-2.5,0.3-3.8,0.4c-0.1,0-0.1,0-0.2,0
		c5.8-6.3,9.6-13.6,10-22.3c-0.1,0-0.1-0.1-0.2-0.1c-0.1,0.1-0.3,0.3-0.4,0.4c-0.5,1.1-0.9,2.1-1.4,3.2c-0.5,1.1-0.8,2.2-1.3,3.3
		c-0.4,0.9-0.9,1.7-1.7,2.3c-0.3,0.2-0.7,0.4-1.1,0.5c-2.8,0.3-5.7,0.2-8.5-0.1c-4.2-0.5-8.4-1-12.6-1.4c-3.9-0.3-7.8-0.1-11.6,1.2
		c-2.7,1-5.1,2.5-7.5,4c-2.3,1.4-4.5,2.9-6.9,4.2c-3.1,1.6-6.3,3-9.6,4.3c-2.1,0.9-4.5,1-6.8,1c-1.1,0-1.6-0.6-1.2-1.7
		c0.3-0.8,0.7-1.5,1.2-2.2c0.9-1.3,1.8-2.4,2.7-3.7c0.1-0.2,0.2-0.3,0.4-0.5c-0.2-0.2-0.4-0.3-0.6-0.4c-1.3-0.6-2.4-1.5-3.4-2.4
		c-1.1-0.9-2.1-1.8-3.5-2.3c1.1-1.5,2.4-2.5,4.2-2.8c1.7-0.3,3.4-0.2,5.1,0.1c2.6,0.4,5.2,0.8,7.9,1.2c1.3,0.2,2.6,0.3,3.9-0.1
		c0.6-0.2,1.2-0.4,1.5-0.9c1.4-1.6,2.8-3.1,4-4.8c2.3-3.3,5.1-6,8.4-8.3c2.6-1.9,5.6-3,8.7-4c6.8-2.2,13.6-4.5,20.4-6.8
		c3.8-1.3,7.6-2.9,11.1-5c3.7-2.2,6.5-5.2,8.8-8.7c2.1-3.2,4-6.5,5.9-9.7c1.7-2.8,3.4-5.4,5.7-7.8c3.3-3.4,7.2-5.5,12-5.9
		c1.7-0.2,3.5-0.3,5.2-0.4c1.5-0.1,2.9-0.6,4.2-1.2c0.9-0.4,1.8-0.8,2.7-1.1c0.3-0.1,0.7-0.1,1-0.1c0.8,0,1.4,0.4,1.4,1.2
		c0.1,1.1,0.1,2.2,0,3.3c-0.3,3.6-2.4,6.1-5.1,8.1c-1.7,1.2-3.4,2.4-5.1,3.7c-0.8,0.6-1.5,1.4-2.3,2.1c-1.3,1.4-1.9,3.1-2.3,4.9
		c-0.9,3.8-1.7,7.6-2.6,11.4c-1.2,5.1-2.5,10.2-4.6,15.1c-1.5,3.6-3.4,7-6,9.9c-1.6,1.8-3.5,3.2-5.7,4.2
		C156.1,135.9,156,135.9,156,135.9z"/>
	<path class="st0" d="M73.4,177.1c-1.9-4.3-3.9-8.6-5.8-12.8c0,0-0.1,0-0.1,0c-1.1,4.3-2.1,8.5-3.2,12.8c-1.2,0-2.3,0-3.5,0
		c0.3-1.1,0.5-2.2,0.8-3.2c1.2-4.8,2.5-9.6,3.7-14.4c0.1-0.4,0.2-0.6,0.7-0.6c0.7,0,1.4,0,2.1,0c0.3,0,0.5,0.1,0.7,0.4
		c2,4.4,3.9,8.7,5.9,13.1c0.1,0.2,0.2,0.3,0.3,0.5c0.7-1.7,1.5-3.2,2.2-4.8c1.3-2.9,2.6-5.8,3.9-8.8c0.2-0.4,0.3-0.5,0.7-0.5
		c0.7,0,1.4,0,2.1,0c0.4,0,0.5,0.1,0.6,0.5c1.3,5,2.6,10,3.9,14.9c0.2,0.9,0.5,1.8,0.7,2.7c-1.2,0-2.3,0-3.5,0
		c-1-4.3-2.1-8.6-3.1-13c-0.2,0.3-0.2,0.5-0.3,0.6c-1.8,4-3.6,8-5.4,11.9c-0.2,0.3-0.3,0.5-0.7,0.5C75.1,177,74.2,177.1,73.4,177.1z
		"/>
	<path class="st0" d="M171.8,158.9c0.2,0,0.4,0,0.6,0c3.1,0,6.1,0,9.2,0c1.2,0,2.4,0.2,3.5,0.5c2.7,0.8,3.8,3.7,2.6,6.2
		c-0.5,1-1.4,1.5-2.4,1.8c-0.1,0-0.3,0.1-0.4,0.1c0,0,0,0-0.1,0.1c0.4,0.1,0.7,0.2,1.1,0.3c1.9,0.7,2.9,2.3,2.8,4.5
		c-0.1,2.6-1.5,4.1-4.2,4.5c-0.7,0.1-1.5,0.2-2.2,0.2c-3.4,0-6.8,0-10.2,0c-0.1,0-0.2,0-0.3,0C171.8,171,171.8,165,171.8,158.9z
		 M173.9,175.5c0.1,0,0.2,0,0.3,0c2.7,0,5.4,0,8.2,0c0.7,0,1.5-0.2,2.2-0.5c1.4-0.6,1.9-1.7,1.8-3.2c0-1.4-0.6-2.5-2-3
		c-0.8-0.3-1.7-0.4-2.5-0.4c-2.5-0.1-4.9,0-7.4,0c-0.2,0-0.3,0-0.5,0C173.9,170.7,173.9,173.1,173.9,175.5z M173.9,160.5
		c0,0.2,0,0.3,0,0.4c0,1.8,0,3.6,0,5.4c0,0.4,0.1,0.5,0.5,0.5c2.2,0,4.4,0,6.6,0c0.9,0,1.7-0.1,2.6-0.3c0.7-0.1,1.3-0.5,1.8-1.1
		c1.2-1.9,0.2-4.4-2-4.8c-0.2,0-0.3-0.1-0.5-0.1C179.9,160.5,176.9,160.5,173.9,160.5z"/>
	<path class="st0" d="M149.7,177.1c0-0.2,0-0.4,0-0.6c0-5.7,0-11.3,0-17c0-0.5,0.1-0.6,0.6-0.6c2.7,0,5.3,0,8,0
		c1.9,0,3.8,0.3,5.5,1.2c2.8,1.4,4.2,3.8,4.4,6.9c0.1,1.9,0,3.7-0.9,5.4c-1.4,2.6-3.6,4-6.5,4.4c-0.8,0.1-1.7,0.2-2.5,0.2
		c-2.6,0-5.3,0-7.9,0C150.1,177.1,149.9,177.1,149.7,177.1z M152,175.4c0.1,0,0.1,0.1,0.1,0.1c2.5,0,5.1,0.1,7.6-0.1
		c2-0.1,3.7-1.1,4.9-2.9c1-1.5,1.2-3.2,1.2-4.9c-0.1-4-2.7-6.7-6.7-6.9c-2.2-0.1-4.5,0-6.8-0.1c-0.1,0-0.2,0-0.3,0.1
		C152,165.5,152,170.4,152,175.4z"/>
	<path class="st0" d="M119.7,166.2c-1,0-1.9-0.1-2.8,0c-2.1,0.4-3.4,2.2-3.4,4.3c0,2,0,3.9,0,5.9c0,0.2,0,0.4,0,0.6
		c-1.1,0-2.2,0-3.4,0c0-4.4,0-8.8,0-13.2c1.1,0,2.2,0,3.4,0c0,0.9,0,1.8,0,2.6c0.8-1.1,1.7-2.1,3-2.6c1.3-0.5,2.6-0.4,4,0
		C120.2,164.7,119.9,165.5,119.7,166.2z"/>
	<path class="st0" d="M124,162.1c-1.1,0-1.8-0.7-1.9-1.8c0-1.1,0.7-1.8,1.9-1.8c1.1,0,1.8,0.7,1.8,1.8
		C125.8,161.4,125.1,162.1,124,162.1z"/>
</g>
</svg>
