<svg width="77" height="76" viewBox="0 0 77 76" fill="none" xmlns="http://www.w3.org/2000/svg">
<path d="M50.1465 4.68384C42.748 4.68384 36.1238 9.46009 31.6934 16.9788L31.5213 17.2562L22.7464 31.5541L18.0579 24.8674C15.0254 20.0295 10.6164 16.948 5.71278 16.948C5.43319 16.948 5.13209 16.948 4.8525 16.9788V29.0582C5.13209 29.0273 5.43319 28.9965 5.71278 28.9965C8.07856 28.9965 10.2078 30.3832 11.7348 32.6326L11.7563 32.6635L17.2191 40.552L12.1649 48.7178L11.9713 49.0568C10.4443 51.5528 8.1861 53.0935 5.69128 53.0935C5.39018 53.0935 5.11059 53.0627 4.83099 53.0319V64.4024C5.11059 64.4333 5.41169 64.4333 5.69128 64.4333C10.7024 64.4333 15.1974 61.2594 18.2299 56.2366L18.2514 56.2058L22.8755 48.8103L31.6719 61.5059L31.6934 61.5367C36.1238 69.0554 42.748 73.8317 50.1465 73.8317C63.4809 73.8317 74.2775 58.3628 74.2775 39.2578C74.2775 20.1527 63.4809 4.68384 50.1465 4.68384ZM50.1465 62.0297C45.8881 62.0297 42.0168 59.6262 39.1778 55.7436L39.0918 55.6203C38.8552 55.2813 38.5972 54.9424 38.3821 54.5726L31.1772 43.9416L28.4243 39.9049L34.6829 29.8593L37.9735 24.59C38.1885 24.2511 38.3821 23.9121 38.6187 23.5732L38.6402 23.5423C41.5436 19.1975 45.63 16.4858 50.1465 16.4858C58.9214 16.4858 66.0402 26.6854 66.0402 39.2886C66.0617 51.8301 58.9429 62.0297 50.1465 62.0297Z" fill="url(#paint0_linear_5_159)"/>
<defs>
<linearGradient id="paint0_linear_5_159" x1="3.03281" y1="39.247" x2="65.0507" y2="39.247" gradientUnits="userSpaceOnUse">
<stop stop-color="#1245EB"/>
<stop offset="1" stop-color="#33FFF0"/>
</linearGradient>
</defs>
</svg>
