<svg width="100" height="77" viewBox="0 0 100 77" fill="none" xmlns="http://www.w3.org/2000/svg">
<g clip-path="url(#clip0_2_81)">
<path d="M64.047 13.5993C33.9418 13.6372 22.6485 37.3516 22.6485 37.3516C22.6485 37.3516 31.4047 20.3424 55.7549 20.3424C82.6732 20.3424 104.115 47.6556 81.4666 78.0374C81.4666 78.0374 100 67.5439 100 46.6328C100 25.7217 81.4356 13.5614 64.047 13.5993Z" fill="#000044"/>
<path d="M0 44.4356L17.9146 39.0563C17.9146 39.0563 27.104 8.56094 66.3366 9.31859C83.2921 9.77318 94.1832 20.5697 97.0916 26.8961C97.0916 26.8961 87.2834 0.037384 56.6522 0.037384C26.021 0.037384 9.68441 22.6153 0 44.4356Z" fill="#0066FF"/>
</g>
<defs>
<clipPath id="clip0_2_81">
<rect width="100" height="77" fill="white"/>
</clipPath>
</defs>
</svg>
