<?xml version="1.0" encoding="utf-8"?>
<!-- Generator: Adobe Illustrator 25.0.1, SVG Export Plug-In . SVG Version: 6.00 Build 0)  -->
<svg version="1.1" id="Layer_1" xmlns="http://www.w3.org/2000/svg" xmlns:xlink="http://www.w3.org/1999/xlink" x="0px" y="0px"
	 viewBox="0 0 250 250" style="enable-background:new 0 0 250 250;" xml:space="preserve">
<style type="text/css">
	.st0{fill:#00758F;}
	.st1{fill:#F29111;}
	.st2{fill-rule:evenodd;clip-rule:evenodd;fill:#F29111;}
	.st3{fill-rule:evenodd;clip-rule:evenodd;fill:#00758F;}
</style>
<g>
	<path class="st0" d="M84.3,164h-6.1c-0.2-10.2-0.8-19.9-1.8-28.9h-0.1L67.2,164h-4.6l-9.2-28.9h-0.1c-0.7,8.7-1.1,18.3-1.3,28.9
		h-5.5c0.4-12.9,1.2-25,2.7-36.3h7.5l8.7,26.6h0.1l8.8-26.6h7.2C83.1,141,84,153.1,84.3,164 M110.5,137.3
		c-2.5,13.4-5.7,23.1-9.7,29.2c-3.1,4.7-6.6,7-10.3,7c-1,0-2.2-0.3-3.7-0.9v-3.2c0.7,0.1,1.6,0.2,2.5,0.2c1.7,0,3.2-0.5,4.2-1.5
		c1.3-1.2,1.9-2.5,1.9-4c0-1-0.5-3.1-1.5-6.2l-6.6-20.7h5.9l4.8,15.5c1.1,3.5,1.5,6,1.3,7.4c2.6-7,4.4-14.6,5.5-22.8H110.5"/>
	<g>
		<path class="st1" d="M137,154c0,3.1-1.1,5.6-3.4,7.6c-2.2,2-5.3,3-9,3c-3.5,0-7-1.1-10.3-3.4l1.6-3.1c2.9,1.4,5.4,2.1,7.8,2.1
			c2.2,0,3.9-0.5,5.1-1.4c1.2-1,2-2.3,2-4c0-2.2-1.5-4-4.2-5.5c-2.5-1.4-7.6-4.3-7.6-4.3c-2.7-2-4.1-4.2-4.1-7.7
			c0-2.9,1-5.3,3.1-7.1c2.1-1.8,4.7-2.7,8-2.7c3.4,0,6.4,0.9,9.2,2.7l-1.4,3.1c-2.4-1-4.7-1.5-7-1.5c-1.9,0-3.3,0.4-4.3,1.3
			c-1,0.9-1.6,2-1.6,3.4c0,2.1,1.5,4,4.4,5.6c2.6,1.4,7.8,4.4,7.8,4.4C135.6,148.3,137,150.5,137,154"/>
		<path class="st2" d="M147.9,156.8c-1.5-2.4-2.2-6.2-2.2-11.4c0-9.1,2.8-13.7,8.3-13.7c2.9,0,5,1.1,6.4,3.3
			c1.5,2.4,2.2,6.1,2.2,11.3c0,9.2-2.8,13.8-8.3,13.8C151.3,160.1,149.2,159,147.9,156.8 M169.4,164.9l-6.6-3.3
			c0.6-0.5,1.2-1,1.7-1.6c2.8-3.3,4.2-8.2,4.2-14.8c0-12-4.7-18-14.1-18c-4.6,0-8.2,1.5-10.8,4.6c-2.8,3.3-4.2,8.2-4.2,14.7
			c0,6.4,1.2,11,3.7,14c2.3,2.7,5.7,4,10.3,4c1.7,0,3.3-0.2,4.7-0.6l8.7,5L169.4,164.9"/>
		<path class="st1" d="M191.1,164h-17.2v-36.3h5.8v31.8h11.4V164z M195.2,164h1v-3.7h1.3v-0.8h-3.5v0.8h1.3L195.2,164z M202.5,164
			h0.9v-4.4h-1.4l-1.1,3l-1.2-3h-1.3v4.4h0.9v-3.4h0l1.3,3.4h0.7l1.3-3.4L202.5,164z"/>
	</g>
	<g>
		<path class="st3" d="M198.3,115.6c-3.5-0.1-6.2,0.3-8.5,1.2c-0.7,0.3-1.7,0.3-1.8,1.1c0.4,0.3,0.4,0.9,0.7,1.4
			c0.5,0.9,1.4,2.1,2.3,2.7c0.9,0.7,1.8,1.4,2.8,2c1.7,1.1,3.6,1.7,5.3,2.7c1,0.6,1.9,1.4,2.9,2.1c0.5,0.3,0.8,0.9,1.4,1.1v-0.1
			c-0.3-0.4-0.4-1-0.7-1.4c-0.4-0.4-0.9-0.8-1.3-1.3c-1.3-1.7-2.8-3.2-4.5-4.4c-1.4-1-4.5-2.3-5-3.9l-0.1-0.1c1-0.1,2.1-0.4,3-0.7
			c1.5-0.4,2.8-0.3,4.4-0.7c0.7-0.2,1.4-0.4,2.1-0.6v-0.4c-0.8-0.8-1.4-1.8-2.2-2.6c-2.2-1.9-4.7-3.8-7.2-5.4
			c-1.4-0.9-3.1-1.4-4.5-2.2c-0.5-0.3-1.4-0.4-1.7-0.8c-0.8-1-1.2-2.2-1.8-3.4c-1.3-2.4-2.5-5.1-3.6-7.6c-0.8-1.7-1.3-3.4-2.2-5
			c-4.5-7.4-9.4-12-16.9-16.4c-1.6-0.9-3.5-1.3-5.6-1.8c-1.1,0-2.2-0.1-3.3-0.2c-0.7-0.3-1.4-1.1-2-1.5c-2.5-1.6-8.9-5-10.7-0.5
			c-1.2,2.8,1.7,5.7,2.8,7.1c0.7,1,1.7,2.1,2.2,3.3c0.3,0.7,0.4,1.5,0.7,2.3c0.7,1.9,1.4,4.1,2.3,5.9c0.5,0.9,1,1.9,1.6,2.7
			c0.4,0.5,1,0.7,1.1,1.5c-0.6,0.9-0.7,2.2-1,3.3c-1.6,4.9-1,11.1,1.3,14.7c0.7,1.1,2.4,3.5,4.6,2.6c2-0.8,1.5-3.3,2.1-5.5
			c0.1-0.5,0-0.9,0.3-1.2v0.1c0.6,1.2,1.2,2.4,1.8,3.6c1.4,2.1,3.7,4.4,5.7,5.9c1,0.8,1.9,2.1,3.2,2.6v-0.1h-0.1
			c-0.3-0.4-0.7-0.6-1-0.9c-0.8-0.8-1.7-1.8-2.3-2.6c-1.8-2.5-3.5-5.2-4.9-8c-0.7-1.4-1.3-2.8-1.9-4.2c-0.3-0.5-0.3-1.3-0.7-1.6
			c-0.7,1-1.6,1.8-2.1,3c-0.8,1.9-0.9,4.2-1.2,6.6c-0.2,0-0.1,0-0.2,0.1c-1.4-0.3-1.9-1.8-2.4-3c-1.3-3.1-1.5-8.1-0.4-11.7
			c0.3-0.9,1.6-3.8,1.1-4.7c-0.3-0.8-1.1-1.3-1.6-2c-0.6-0.8-1.2-1.9-1.6-2.8c-1-2.5-1.6-5.2-2.7-7.6c-0.5-1.1-1.4-2.3-2.2-3.4
			c-0.8-1.2-1.7-2-2.4-3.4c-0.2-0.5-0.5-1.3-0.2-1.8c0.1-0.4,0.3-0.5,0.6-0.6c0.6-0.5,2.2,0.1,2.7,0.4c1.6,0.7,3,1.3,4.3,2.2
			c0.6,0.4,1.3,1.3,2.1,1.5h0.9c1.4,0.3,3,0.1,4.3,0.5c2.3,0.7,4.4,1.8,6.3,3c5.7,3.6,10.4,8.8,13.6,15c0.5,1,0.7,1.9,1.2,3
			c0.9,2.2,2.1,4.3,3,6.4c0.9,2.1,1.8,4.2,3.1,5.9c0.7,0.9,3.3,1.4,4.5,1.9c0.9,0.4,2.2,0.7,3,1.2c1.5,0.9,3,2,4.4,3
			C196,113.7,198.2,114.8,198.3,115.6"/>
		<path class="st3" d="M153.8,77.6c-0.6,0-1.2,0.1-1.8,0.2v0.1h0.1c0.4,0.7,1,1.2,1.4,1.8c0.4,0.7,0.7,1.4,1,2.1
			c0,0,0.1-0.1,0.1-0.1c0.6-0.4,0.9-1.1,0.9-2.2c-0.3-0.3-0.3-0.6-0.5-0.9C154.7,78.1,154.1,77.9,153.8,77.6"/>
	</g>
</g>
</svg>
