<?xml version="1.0" encoding="utf-8"?>
<!-- Generator: Adobe Illustrator 27.0.1, SVG Export Plug-In . SVG Version: 6.00 Build 0)  -->
<svg version="1.1" id="Layer_1" xmlns="http://www.w3.org/2000/svg" xmlns:xlink="http://www.w3.org/1999/xlink" x="0px" y="0px"
	 viewBox="0 0 236 168" style="enable-background:new 0 0 236 168;" xml:space="preserve">
<style type="text/css">
	.st0{fill-rule:evenodd;clip-rule:evenodd;fill:#086FFF;}
	.st1{fill-rule:evenodd;clip-rule:evenodd;fill:#050D29;}
</style>
<path class="st0" d="M117.8,17.8c-8.4-3.6-17.5-5.2-27.9-5.2c-10.6,0-20.5,1.8-29.9,5.2c-9.5,3.5-17.8,8.2-25.3,14.4
	S20.9,45.6,16,53.8C11.1,62,7.7,70.9,5.8,80.5c-1.7,9.6-1.5,18.5,0.7,26.7c2.1,8.3,5.8,15.3,11.1,21.6c5.2,6.2,11.9,10.9,20,14.5
	c8.1,3.6,17.5,5.1,28.2,5.1c10.3,0,20.5-1.7,29.9-5.1c6.7-2.5,12.8-5.5,18.5-9.3l19.1-106.5C129,23.4,123.8,20.3,117.8,17.8z
	 M114.7,80.5c-1.1,4.9-3,9.8-5.7,14c-2.7,4.3-6.1,8-9.9,11.2c-4,3.1-8.4,5.5-13.1,7.3c-4.8,1.8-9.7,2.7-14.4,2.7
	c-4.7,0-9.5-0.8-13.5-2.7c-4.1-1.7-7.4-4.2-10.4-7.3c-2.7-3.1-4.7-6.9-5.8-11.2c-1.1-4.2-1.4-9.1-0.5-14c0.9-5.2,2.7-9.8,5.4-14
	c2.7-4.3,6.2-8,9.9-11.1c3.8-3.1,8.1-5.6,13.1-7.4c4.7-1.8,9.7-2.7,14.4-2.7c4.9,0,9.5,0.8,13.5,2.7c4.1,1.7,7.7,4.3,10.4,7.4
	c2.9,3.1,4.7,6.8,6.1,11.1C115.4,70.7,115.6,75.6,114.7,80.5z"/>
<path class="st1" d="M226.5,90.9c-1.5-2.7-4-5.1-7-6.8c-3.1-1.8-7-3.3-11.5-4.3c5.4-2.9,9.7-6.5,12.6-10.9c3.2-4.2,5.2-9.6,6.3-16
	c1.8-10.6,0.2-18.9-4.9-24.5c-5.2-5.5-13.7-8.4-25.7-8.4h-54.8l-23,128.3h58.5c7,0,13.4-0.9,19.2-2.4c5.8-1.6,10.8-4,15.3-7.1
	c4.5-3.1,8-7.1,11-11.8c2.9-4.7,4.9-10,6.1-16c0.7-3.8,0.9-7.6,0.7-10.9C229.3,96.7,228.1,93.5,226.5,90.9z M170.6,45.6h10.6
	c10.6,0,15.1,4.2,13.7,12.5c-1.6,8.2-7.4,12.5-18,12.5h-10.6L170.6,45.6z M195.2,109.2c-1.1,4.4-3.6,7.7-7.7,9.9
	c-4,2.3-10.4,3.3-18.9,3.3h-11.8l5-27.1h11.9c8.6,0,14.4,1.1,17.8,3.3C195,100.9,196.2,104.3,195.2,109.2z"/>
</svg>
