<svg
  version="1.1"
  id="Layer_1"
  xmlns="http://www.w3.org/2000/svg"
  xmlns:xlink="http://www.w3.org/1999/xlink"
  x="0px"
  y="0px"
  viewBox="0 0 66.6 68"
  style="enable-background:new 0 0 66.6 68;"
  xml:space="preserve"
>
<style type="text/css">
	.st0{fill:none;}
	.st1{fill:#2380C3;}
</style>
<g id="图层_2">
	<g id="Layer_1_00000104684275930895239160000006642545263565602447_">
		<g id="_6">
			<polyline class="st0" points="-57.3,110.2 -57.3,-9.8 122.7,-9.8 122.7,110.2 			" />
			<path
          class="st1"
          d="M60.7,27.2L43,17.6l-9.6,5.5l0,0c0,0-3.2,1.8-3.4,4.8c-0.4-0.3-0.8-0.7-0.9-1.2v-6.9l0,0
				c0-0.6,0.4-1.1,0.9-1.3L43,10.9l17.7,9.6"
        />
			<path
          class="st1"
          d="M4.7,20.4c0.1-0.5,0.5-0.9,1-1.1l22-12.9C29.2,5.5,31,5,32.7,5v6.8c-1.8,0-3.5,0.4-5.1,1.2L9.2,23.9l0,0
				l18.5,10.9c3.2,1.6,7,1.6,10.2,0l22-12.9c0.5-0.2,0.9-0.7,0.9-1.3l0,0v6.7l0,0c0,0.6-0.4,1.1-0.9,1.3l-22,12.9
				c-3.2,1.6-7,1.6-10.2,0L5.7,28.6c-0.6-0.2-1-0.8-1-1.4l0,0V20.4L4.7,20.4z"
        />
			<path
          class="st1"
          d="M60.7,38.2c0,0.6-0.4,1.1-0.9,1.3l-22,12.9c-3.2,1.6-7,1.6-10.2,0l-22-12.9c-0.5-0.3-0.8-0.8-0.9-1.3v-6.8
				c0,0.6,0.4,1.1,0.9,1.3l22,12.9c3.2,1.6,7,1.6,10.2,0l22-12.9c0.5-0.3,0.8-0.8,0.8-1.3V38.2z"
        />
			<path
          class="st1"
          d="M60.7,48.7c-0.1,0.6-0.4,1.1-0.9,1.3L37.8,63c-3.2,1.6-7,1.6-10.2,0L5.6,50c-0.5-0.3-0.8-0.8-0.9-1.3V42
				c0.1,0.6,0.4,1.1,0.9,1.3l21.9,12.9c3.2,1.6,7,1.6,10.2,0l22-12.9c0.5-0.2,0.9-0.7,0.9-1.3L60.7,48.7z"
        />
		</g>
	</g>
</g>
</svg>
