<svg
  version="1.1"
  id="Layer_1"
  xmlns="http://www.w3.org/2000/svg"
  xmlns:xlink="http://www.w3.org/1999/xlink"
  x="0px"
  y="0px"
  viewBox="0 0 250 250"
  style="enable-background:new 0 0 250 250;"
  xml:space="preserve"
>
<style type="text/css">
	.st0{fill:#F80000;}
</style>
<g>
	<g transform="matrix(.5081 0 0 .4877 2.7 1.722)">
		<g transform="translate(-715.1 -719.7)">
			<path
          class="st0"
          d="M920.2,980.5h27.2L933,957.4l-26.4,41.8h-12l32.1-50.2c1.4-2,3.7-3.3,6.3-3.3c2.5,0,4.8,1.2,6.2,3.2
				l32.2,50.3h-12l-5.7-9.3h-27.5L920.2,980.5z M1044.9,989.9v-43.6h-10.2v47.9c0,1.3,0.5,2.6,1.5,3.5c1,1,2.3,1.5,3.7,1.5h46.4
				l6-9.3L1044.9,989.9z M876.3,982c9.9,0,17.9-8,17.9-17.9c0-9.9-8-17.9-17.9-17.9h-44.6v53H842v-43.6h33.7c4.7,0,8.5,3.8,8.5,8.6
				c0,4.7-3.8,8.6-8.5,8.6l-28.7,0l30.4,26.5h14.8L871.7,982L876.3,982z M769.1,999.2c-14.6,0-26.5-11.8-26.5-26.5
				s11.9-26.5,26.5-26.5h30.8c14.6,0,26.5,11.9,26.5,26.5c0,14.6-11.9,26.5-26.5,26.5H769.1z M799.2,989.9c9.5,0,17.1-7.6,17.1-17.1
				c0-9.5-7.7-17.2-17.1-17.2h-29.4c-9.5,0-17.1,7.7-17.1,17.2c0,9.5,7.7,17.1,17.1,17.1H799.2z M992.6,999.2
				c-14.6,0-26.5-11.8-26.5-26.5s11.9-26.5,26.5-26.5h36.6l-6,9.3h-29.9c-9.5,0-17.2,7.7-17.2,17.2s7.7,17.1,17.2,17.1h36.7l-6,9.3
				L992.6,999.2z M1117.1,989.9c-7.8,0-14.5-5.2-16.5-12.5h43.5l6-9.3h-49.5c2-7.2,8.7-12.5,16.5-12.5h29.9l6-9.3h-36.6
				c-14.6,0-26.5,11.9-26.5,26.5s11.9,26.5,26.5,26.5h31.4l6-9.3L1117.1,989.9"
        />
			<path
          class="st0"
          d="M1158.3,951.8c0-2.6,2.1-4.6,4.6-4.6c2.6,0,4.7,2.1,4.7,4.6c0,2.6-2.1,4.7-4.7,4.7
				C1160.4,956.5,1158.3,954.5,1158.3,951.8z M1163,957.8c3.3,0,6-2.7,6-6s-2.7-6-6-6c-3.3,0-5.9,2.7-5.9,6S1159.7,957.8,1163,957.8
				z M1162.4,948.3c0.9,0,1.3,0,1.7,0.2c1.2,0.4,1.3,1.4,1.3,1.9c0,0.1,0,0.3-0.1,0.5c0,0.3-0.2,0.8-0.8,1.1c-0.1,0-0.1,0.1-0.3,0.2
				l1.5,2.7h-1.5l-1.4-2.5h-0.9v2.5h-1.3v-6.7L1162.4,948.3z M1162.9,951.4c0.4,0,0.8,0,1.1-0.4c0.1-0.2,0.2-0.3,0.2-0.6
				c0-0.3-0.2-0.6-0.5-0.8c-0.3-0.1-0.6-0.1-1.2-0.1h-0.4v1.9L1162.9,951.4"
        />
		</g>
	</g>
</g>
</svg>
