<svg width="250" height="198" viewBox="0 0 250 198" fill="none" xmlns="http://www.w3.org/2000/svg">
<path d="M11.6167 126.465C11.584 129.624 12.1098 132.763 13.1698 135.738C14.1879 138.558 15.6463 140.984 17.5167 143.064C19.3871 145.144 21.641 146.734 24.25 147.907C26.8591 149.08 29.7807 149.668 33.0195 149.668C36.2583 149.668 39.1799 149.094 41.8031 147.907C44.4264 146.72 46.704 145.125 48.5933 143.064C50.4826 141.003 51.9221 138.558 52.9402 135.738C53.9938 132.762 54.5132 129.622 54.4743 126.465C54.4743 123.35 53.9771 120.435 52.9402 117.729C51.9625 115.101 50.4864 112.689 48.5933 110.625C46.6834 108.582 44.3712 106.959 41.8031 105.858C39.1752 104.728 36.2346 104.154 33.0195 104.154C29.8043 104.154 26.8591 104.728 24.25 105.858C21.7043 106.969 19.4127 108.592 17.5167 110.625C15.6237 112.689 14.1475 115.101 13.1698 117.729C12.1329 120.435 11.6167 123.35 11.6167 126.465V126.465ZM0.00146484 127.168C0.00146484 122.158 0.834846 117.634 2.47793 113.536C4.12102 109.438 6.37968 105.968 9.28704 103.095C12.1944 100.223 15.67 97.9768 19.6806 96.4194C23.6913 94.8621 28.1139 94.0834 32.9248 94.0834C37.7878 94.0264 42.2482 94.7529 46.2968 96.2532C50.3453 97.7536 53.8446 99.9425 56.7661 102.82C59.6877 105.697 61.9842 109.182 63.6273 113.223C65.2752 117.301 66.0896 121.831 66.0896 126.816C66.0896 131.711 65.2752 136.146 63.6273 140.134C62.0736 144.015 59.7378 147.532 56.7661 150.466C53.8446 153.358 50.35 155.603 46.2968 157.218C42.2435 158.832 37.7878 159.668 32.9248 159.739C28.1139 159.739 23.696 158.96 19.6806 157.403C15.7999 155.933 12.2621 153.678 9.28704 150.779C6.38441 147.921 4.10682 144.493 2.47793 140.505C0.849051 136.516 0.00146484 132.049 0.00146484 127.168" fill="#1C3A85"/>
<path d="M75.6883 115.781H86.2499V122.495H86.4164C87.6002 120.029 89.2649 118.118 91.4474 116.764C93.6114 115.41 96.1086 114.724 98.9199 114.724C99.5674 114.724 100.196 114.799 100.806 114.91C101.417 115.021 102.064 115.17 102.693 115.355V125.593C101.824 125.352 100.954 125.166 100.104 125.018C99.253 124.869 98.4205 124.795 97.6064 124.795C95.128 124.795 93.1486 125.259 91.6505 126.168C90.1524 127.077 89.0239 128.115 88.2286 129.284C87.4333 130.471 86.9155 131.639 86.638 132.826C86.3789 133.995 86.2495 134.885 86.2495 135.46V158.143H75.688V115.781M110.092 115.781H120.654V158.143H110.092V115.781ZM108.594 101.407C108.594 99.7013 109.223 98.2172 110.499 96.9563C111.757 95.6951 113.347 95.0646 115.29 95.0646C117.232 95.0646 118.841 95.6581 120.173 96.8636C121.486 98.069 122.152 99.59 122.152 101.407C122.152 103.225 121.486 104.746 120.173 105.951C118.841 107.157 117.232 107.769 115.29 107.769C113.347 107.769 111.757 107.12 110.499 105.859C109.223 104.598 108.594 103.114 108.594 101.408M141.24 136.981C141.24 138.613 141.518 140.208 142.072 141.728C142.627 143.268 143.46 144.603 144.551 145.79C145.624 146.977 146.937 147.905 148.454 148.609C149.989 149.314 151.709 149.667 153.651 149.667C155.575 149.667 157.313 149.314 158.849 148.609C160.366 147.905 161.679 146.977 162.751 145.79C163.843 144.603 164.656 143.268 165.211 141.728C165.785 140.207 166.062 138.613 166.062 136.981C166.062 135.33 165.785 133.735 165.211 132.195C164.656 130.675 163.843 129.321 162.751 128.152C161.679 126.965 160.366 126.019 158.849 125.333C157.313 124.61 155.575 124.257 153.651 124.257C151.709 124.257 149.989 124.61 148.454 125.333C146.937 126.019 145.624 126.965 144.551 128.152C143.46 129.321 142.627 130.675 142.072 132.195C141.517 133.735 141.24 135.33 141.24 136.981ZM130.679 136.981C130.679 133.624 131.289 130.563 132.491 127.837C133.694 125.092 135.321 122.755 137.375 120.826C139.428 118.879 141.869 117.377 144.681 116.32C147.492 115.262 150.489 114.725 153.652 114.725C156.815 114.725 159.811 115.262 162.623 116.32C165.434 117.377 167.876 118.879 169.929 120.826C171.982 122.755 173.61 125.092 174.812 127.837C176.014 130.563 176.625 133.624 176.625 136.981C176.625 140.319 176.015 143.361 174.812 146.106C173.61 148.832 171.982 151.169 169.929 153.116C167.876 155.063 165.434 156.566 162.623 157.623C159.811 158.68 156.815 159.2 153.652 159.2C150.489 159.2 147.492 158.68 144.681 157.623C141.869 156.566 139.428 155.064 137.375 153.116C135.321 151.169 133.694 148.832 132.491 146.106C131.289 143.361 130.679 140.319 130.679 136.981M186.649 158.142H197.211V91.4476H186.649V158.142Z" fill="#1C3A85"/>
<path d="M239.437 132.732C239.381 129.618 238.419 127.168 236.535 125.368C234.65 123.569 232.06 122.681 228.712 122.681C225.53 122.681 223.035 123.588 221.203 125.406C219.37 127.225 218.205 129.67 217.798 132.732H239.437ZM217.798 140.671C218.148 143.843 219.389 146.312 221.496 148.092C223.603 149.873 226.155 150.727 229.153 150.727C231.8 150.727 233.997 150.191 235.791 149.094C237.586 148.017 239.177 146.63 240.489 144.996L248.074 150.727C245.598 153.79 242.842 155.974 239.807 157.256C236.738 158.552 233.538 159.202 230.209 159.202C227.046 159.202 224.048 158.685 221.236 157.626C218.423 156.567 215.984 155.067 213.929 153.12C211.874 151.174 210.25 148.837 209.047 146.107C207.845 143.377 207.234 140.32 207.234 136.982C207.234 133.644 207.845 130.562 209.047 127.837C210.25 125.112 211.879 122.757 213.929 120.824C215.98 118.892 218.423 117.372 221.236 116.318C224.048 115.264 227.046 114.723 230.209 114.723C233.13 114.723 235.815 115.241 238.254 116.28C240.647 117.271 242.784 118.794 244.504 120.734C246.242 122.681 247.572 125.074 248.553 127.932C249.533 130.79 249.997 134.052 249.997 137.76V140.671H217.793" fill="#1C3A85"/>
<path d="M104.857 62.7742C156.851 65.5191 167.45 18.3357 198.635 44.0233C178.881 43.949 176.051 58.0448 159.367 68.2086C143.811 77.6862 121.505 81.3029 104.858 62.7745" fill="#1C3A85"/>
<path d="M35.6243 19.8194C71.2303 21.4517 81.3109 72.2145 133.268 50.4961C111.682 50.9414 100.233 16.277 70.3237 11.4918C60.7425 9.95233 49.7925 12.4378 35.624 19.8194" fill="#234AA3"/>
<path d="M80.3848 3.27764C114.918 11.0312 115.287 50.2592 145.086 44.8987C128.977 34.8092 131.16 -12.7659 80.3848 3.27764Z" fill="#1768BA"/>
<path d="M129.088 4.92619C141.277 14.4965 138.78 32.9692 150.84 42.3725C148.713 35.4732 154.798 25.9956 151.894 17.2415C149.989 11.5476 139.834 5.16747 129.088 4.92619" fill="#FAC705"/>
</svg>
