<?xml version="1.0" encoding="utf-8"?>
<!-- Generator: Adobe Illustrator 25.0.1, SVG Export Plug-In . SVG Version: 6.00 Build 0)  -->
<svg version="1.1" id="Layer_1" xmlns="http://www.w3.org/2000/svg" xmlns:xlink="http://www.w3.org/1999/xlink" x="0px" y="0px"
	 viewBox="0 0 250 250" style="enable-background:new 0 0 250 250;" xml:space="preserve">
<style type="text/css">
	.st0{fill-rule:evenodd;clip-rule:evenodd;fill:#040404;}
</style>
<g>
	<path class="st0" d="M133.4,50.5c-0.8,0.8-0.8,0.8-0.8,2.2c0,4,5.1,4.2,5.4,0.2C138.2,50.1,135.3,48.6,133.4,50.5"/>
	<path class="st0" d="M110.5,58.4c-2.6,1.4-1.8,5.9,1.1,5.9c2.3,0,3.7-2.8,2.4-4.8C113,58.2,111.7,57.8,110.5,58.4"/>
	<path class="st0" d="M134,62.6c-0.3,0.1-0.8,0.4-1.1,0.7l-0.4,0.4l-0.1,13.5c-0.1,12.5-0.1,13.6-0.4,14.2c-0.9,1.7-3.4,2.1-4.8,0.8
		c-1.1-1-1.2-1.1-1.2-8.7v-7l-0.5-0.5c-1.1-1.2-4.4-1-4.4,0.2c0,0.1-0.1,0.3-0.2,0.3c-0.1,0-0.2,4.8-0.1,14.2l0.1,14.1l0.8-0.6
		c0.5-0.3,0.9-0.6,1-0.6c0.1,0,0.2-0.1,0.2-0.2s0.2-0.2,0.4-0.2c0.2,0,0.4-0.1,0.5-0.2c0.2-0.2,1.1-0.4,3.1-1c1-0.3,3.5-0.3,4.7,0
		c1.2,0.3,3.8,1.2,4,1.3c0.2,0.2,0.8,0.6,1.2,0.7c0.2,0.1,0.3,0.2,0.3,0.3c0,0.1,0.1,0.2,0.2,0.2c0.4,0,2.1,1.8,3.5,3.6
		c0.5,0.7,1.5,3.1,1.7,3.9c0.1,0.3,0.2,1.1,0.3,1.7c0.3,1.2,0.1,4.1-0.2,4.4c-0.1,0.1-0.2,0.6-0.2,1c0,0.5-0.1,0.8-0.2,0.8
		c-0.1,0-0.2,0.1-0.2,0.3c0,0.3-0.9,2.2-1.2,2.4c-0.1,0.1-0.3,0.4-0.5,0.7c-0.4,0.7-1.2,1.6-1.8,2.1c-1.2,1.1-1.8,1.5-2,1.5
		c-0.1,0-0.3,0.1-0.3,0.1c-0.1,0.2-1.3,0.8-1.6,0.8c-0.2,0-0.3,0.1-0.3,0.2c0,0.1-0.2,0.2-0.5,0.3c-0.3,0.1-1.2,0.3-1.9,0.4
		c-2.6,0.6-5.8,0.2-8.5-1c-0.6-0.3-1.1-0.5-1.2-0.5c-0.1,0-0.2-0.1-0.2-0.2c0-0.1-0.1-0.2-0.2-0.2c-0.1,0-0.3-0.1-0.5-0.3
		c-0.2-0.2-0.4-0.3-0.5-0.3c-0.1,0-0.2,3-0.2,6.7c-0.1,6.5-0.1,6.8-0.5,7.3c-1.4,1.9-3.9,1.9-5.3,0.1l-0.4-0.6v-34.2V71.6l-0.6-0.5
		c-0.6-0.5-1.3-0.6-2.5-0.5c-0.3,0-0.8,0.3-1.2,0.6l-0.7,0.6l-0.1,3c0,2-0.1,3-0.3,3.1c-0.1,0.1-2.6,0.1-5.4,0.1l-5.2,0l-0.1,0.4
		c-0.1,0.2-0.3,0.8-0.5,1.3c-0.5,1.2-0.6,1.4-1,2.8c-0.2,0.6-0.4,1.3-0.5,1.5c-0.1,0.2-0.2,0.6-0.2,0.9c0,0.3-0.1,0.6-0.2,0.7
		c-0.1,0.1-0.2,0.5-0.3,1c-0.1,0.5-0.2,0.9-0.3,0.9c-0.1,0-0.2,0.3-0.2,0.7S95,89,94.9,89.1c-0.1,0.1-0.2,0.4-0.3,0.7
		c-0.1,0.4-0.3,1.1-0.4,1.7c-0.4,1.4-0.6,1.9-1.1,4c-0.3,0.9-0.5,1.8-0.6,1.8c-0.1,0.1-0.1,0.4-0.1,0.6c0,0.3-0.1,0.7-0.3,1
		c-0.2,0.3-0.3,0.7-0.3,0.9c0,0.2-0.1,0.6-0.2,0.8c-0.1,0.2-0.3,1-0.5,1.7c-0.6,2.7-0.8,3.2-0.9,3.3c-0.1,0.1-0.1,0.4-0.1,0.7
		c0,0.3-0.1,0.6-0.2,0.7c-0.1,0.1-0.2,0.4-0.2,0.7c0,0.5-0.3,1.8-0.8,3c-0.1,0.2-0.2,0.7-0.2,1c-0.1,0.3-0.2,1.1-0.4,1.7
		c-0.3,1.1-0.5,1.9-0.9,4.3c-0.1,0.7-0.3,1.7-0.4,2.3c-0.3,1.4-0.3,9,0,10.5c0.1,0.6,0.3,1.7,0.4,2.2c0.1,0.6,0.2,1.4,0.3,1.8
		s0.2,0.9,0.3,1.1c0.1,0.2,0.3,0.9,0.5,1.6c0.2,0.6,0.4,1.3,0.5,1.6c0.9,2.5,1,2.7,1.9,4.5c0.6,1.3,2.8,5.1,3.2,5.4
		c0.1,0.1,0.3,0.4,0.6,0.7c1.2,1.6,1.6,2.1,3.3,3.7c1.9,1.9,2.7,2.6,3.9,3.5c0.4,0.3,0.8,0.6,0.8,0.7c0,0.1,0.2,0.1,0.3,0.1
		s0.3,0.1,0.4,0.3c0.1,0.2,0.2,0.3,0.4,0.3c0.2,0,0.3,0.1,0.3,0.1c0.2,0.5,4.1,2.7,8,4.5c0.6,0.3,1.1,0.6,1.1,0.7
		c0,0.1,0.2,0.1,0.3,0.1c0.3,0,1.5,0.6,1.7,0.8c0.1,0.1,0.3,0.2,0.6,0.4c0.8,0.4,2.8,2.3,3.3,3.1c0.2,0.4,0.5,0.8,0.5,0.8
		c0.1,0.1,0.3,0.5,0.6,1.1c0.2,0.5,0.6,1.2,0.7,1.5c0.2,0.3,0.3,0.7,0.3,0.9c0,0.2,0.1,0.4,0.1,0.5c0.4,0.4,1,3.4,1.2,5.6
		c0.1,0.8,0.2,1.6,0.3,1.7c0.3,0.3,0.6,5.3,0.7,10c0.1,4.9,0.2,4.6-1.6,5.1c-0.6,0.2-1.3,0.4-1.5,0.5c-0.9,0.4-3.6,1.2-4,1.2
		c-0.2,0-0.4,0.1-0.5,0.1c-0.2,0.2-2,0.8-2.4,0.8c-0.2,0-0.5,0.1-0.6,0.2c-0.1,0.1-0.7,0.3-1.4,0.5c-0.6,0.2-1.3,0.4-1.6,0.5
		c-1.1,0.4-3.6,1.2-3.9,1.2c-0.2,0-0.5,0.1-0.6,0.2c-0.1,0.1-0.4,0.2-0.7,0.3c-0.3,0,8.9,0.1,20.4,0.1s20.7,0,20.4-0.1
		c-0.3,0-0.7-0.2-0.9-0.2c-0.2-0.1-1.2-0.4-2.1-0.7c-1-0.3-1.9-0.6-2.2-0.7c-0.2-0.1-0.9-0.3-1.6-0.5c-0.6-0.2-1.3-0.4-1.5-0.5
		c-0.2-0.1-0.5-0.2-0.8-0.2c-0.2,0-0.6-0.1-0.8-0.3c-0.2-0.2-0.6-0.3-0.8-0.3c-0.2,0-0.5-0.1-0.5-0.2s-0.2-0.2-0.5-0.2
		c-0.3,0-1.4-0.3-2.4-0.7c-2-0.7-3.2-1.1-3.8-1.1c-0.8-0.1-1.2-1.7-1-4c0.1-1,0.2-3.2,0.3-5c0.2-3.8,0.6-7.2,0.8-7.8
		c0.1-0.2,0.2-0.9,0.2-1.4c0-0.5,0.1-1.2,0.2-1.5c0.1-0.3,0.3-1,0.4-1.5c0.4-1.6,2.1-5.5,2.4-5.5c0.1,0,0.2-0.1,0.2-0.2
		c0-0.5,2.9-3.1,3.5-3.1c0.1,0,0.2-0.1,0.2-0.2c0-0.1,0.1-0.2,0.3-0.2c0.2,0,0.3-0.1,0.3-0.2c0-0.1,1-0.6,2.2-1.2
		c3.3-1.6,6.6-3.3,7-3.6c0.6-0.4,1.7-1.1,1.8-1.1c0.1,0,0.4-0.2,0.6-0.5s0.7-0.6,1-0.7c1.4-0.7,5.7-4.7,7.5-7
		c0.6-0.8,1.2-1.5,1.3-1.6c0.6-0.7,2.3-3.6,2.4-3.9c0.1-0.3,0.2-0.5,0.3-0.5c0.1,0,0.2-0.2,0.2-0.4c0-0.2,0.1-0.5,0.3-0.6
		c0.2-0.1,0.3-0.4,0.3-0.6c0-0.2,0.1-0.4,0.2-0.4c0.1,0,0.2-0.2,0.2-0.4c0-0.2,0.1-0.6,0.3-0.9c2.5-5.1,3.1-14.5,1.4-23.9
		c-0.3-1.5-0.5-2.8-0.6-2.9c-0.1-0.2-0.2-0.6-0.2-1.1c0-0.4-0.2-1.4-0.4-2.1c-0.2-0.7-0.4-1.6-0.4-2.1c-0.1-0.4-0.2-0.9-0.3-1
		c-0.1-0.1-0.2-0.4-0.2-0.7c0-0.3-0.1-0.8-0.3-1.1c-0.2-0.3-0.3-0.8-0.3-1.1s-0.1-0.6-0.2-0.6c-0.1-0.1-0.2-0.4-0.3-0.8
		c-0.1-0.4-0.2-1.2-0.4-1.8c-0.2-0.6-0.4-1.3-0.4-1.6c-0.1-0.3-0.2-0.7-0.3-0.9c-0.1-0.2-0.3-0.9-0.5-1.5c-0.2-0.6-0.5-1.7-0.7-2.4
		c-0.2-0.7-0.4-1.5-0.4-1.7c0-0.2-0.1-0.4-0.2-0.5c-0.2-0.2-0.5-1.3-1.2-3.9c-0.1-0.3-0.2-0.8-0.3-1.1c-0.4-0.9-0.6-1.9-0.6-2.3
		c0-0.2-0.1-0.5-0.2-0.5c-0.1-0.1-0.2-0.4-0.2-0.6c0-0.3-0.1-0.7-0.3-1c-0.2-0.3-0.3-0.7-0.3-1c0-0.3-0.1-0.6-0.2-0.6
		c-0.1-0.1-0.2-0.4-0.3-0.8c-0.2-0.9-0.9-2.5-1.2-2.5c-0.1,0-0.3-0.1-0.3-0.2c0-0.3-1.4-0.4-7.5-0.6l-5.9-0.1l-0.1-6.9
		c-0.1-6.6-0.1-6.9-0.5-7.4C136.6,62.6,135.1,62.2,134,62.6"/>
	<path class="st0" d="M121.9,63.2c-1.9,1.1-1.7,4.5,0.3,5.5c2,1,3.7-0.4,3.7-2.9C125.9,63.3,123.8,62,121.9,63.2"/>
	<path class="st0" d="M127.6,108.9c-0.8,0.2-1.4,0.4-1.5,0.4c-0.6,0-2.5,2.1-3.1,3.2c-0.8,1.5-1,4.6-0.3,5.5
		c0.2,0.2,0.3,0.6,0.3,0.8c0,0.2,0.1,0.3,0.2,0.3c0.1,0,0.2,0.1,0.2,0.3c0,0.4,1.8,2,2.9,2.5c4.9,2.3,11.5-3,9.7-7.7
		c-0.1-0.2-0.3-0.8-0.4-1.3c-0.6-2-4.5-4.6-6.4-4.3C129,108.6,128.3,108.7,127.6,108.9"/>
</g>
</svg>
