<?xml version="1.0" encoding="utf-8"?>
<!-- Generator: Adobe Illustrator 25.0.1, SVG Export Plug-In . SVG Version: 6.00 Build 0)  -->
<svg version="1.1" id="Layer_1" xmlns="http://www.w3.org/2000/svg" xmlns:xlink="http://www.w3.org/1999/xlink" x="0px" y="0px"
	 viewBox="0 0 250 250" style="enable-background:new 0 0 250 250;" xml:space="preserve">
<style type="text/css">
	.st0{fill:#336791;}
	.st1{fill:#FFFFFF;}
	.st2{fill:none;stroke:#FFFFFF;stroke-width:3;stroke-linecap:round;stroke-linejoin:round;}
</style>
<g id="Layer_x0020_3">
	<g>
		<g>
			<path d="M158.4,158.7c0.9-7.4,0.6-8.5,6.1-7.2l1.4,0.1c4.2,0.2,9.7-0.7,13-2.2c7-3.2,11.1-8.7,4.2-7.2
				c-15.7,3.2-16.8-2.1-16.8-2.1c16.6-24.6,23.5-55.8,17.5-63.5c-16.3-20.9-44.6-11-45.1-10.7l-0.2,0c-3.1-0.7-6.6-1-10.5-1.1
				c-7.1-0.1-12.5,1.9-16.6,5c0,0-50.4-20.8-48.1,26.1c0.5,10,14.3,75.5,30.8,55.7c6-7.2,11.8-13.3,11.8-13.3
				c2.9,1.9,6.3,2.9,10,2.5l0.3-0.2c-0.1,0.9-0.1,1.8,0.1,2.8c-4.2,4.7-3,5.6-11.5,7.3c-8.6,1.8-3.5,4.9-0.2,5.7
				c4,1,13.2,2.4,19.5-6.3l-0.2,1c1.7,1.3,1.6,9.6,1.8,15.5c0.2,5.9,0.6,11.4,1.8,14.6c1.2,3.2,2.6,11.6,13.7,9.2
				C150.7,188.3,157.8,185.4,158.4,158.7"/>
		</g>
		<g>
			<path d="M137.7,196.6c-5.1,0-8.4-2-10.4-3.9c-3-2.8-4.2-6.5-4.9-8.7c-0.1-0.3-0.2-0.7-0.3-0.9c-1.4-3.8-1.9-9.3-2.2-16.4
				c0-1-0.1-2.2-0.1-3.3c0-0.7,0-1.5-0.1-2.4c-4.8,2.1-10.4,2.5-16.4,1c-2.7-0.7-5.5-2-7.2-4.1c-4.8,4-9.3,3.4-11.8,2.6
				c-4.5-1.5-8.4-5.6-12.1-12.6c-2.6-5-5.2-11.4-7.5-19.2c-4.1-13.5-6.7-27.8-7-32.5C57,81.4,61,70.8,69.6,64.8
				c7.1-5,16.8-6.6,28.9-4.6c5.1,0.8,9.6,2.2,12.3,3.1c5-3,10.8-4.4,17.5-4.3c3.5,0.1,6.9,0.4,10,0.9c3.4-1,9.8-2.5,17.1-2.4
				c13.8,0.2,25.2,5.5,33,15.5c5.3,6.8,3.4,20.3,0.7,30.5c-2.9,11.3-8,23.4-14.3,33.9c1.7-0.1,3.9-0.3,7-0.9
				c7.6-1.6,9.7,2.9,10.2,4.3c2.4,7.2-7.7,12.5-10.8,13.9c-4,1.8-10.4,3-15.7,2.7l-0.2,0l-0.9-0.1c0,0.2-0.1,0.5-0.1,0.7
				c0,0.3-0.1,0.7-0.1,1.1c-0.3,13.6-2.3,22.3-6.3,28c-4.2,6.1-10.2,7.8-15.3,8.9C140.8,196.4,139.2,196.6,137.7,196.6z
				 M127.6,146.5c3.3,2.7,3.6,7.5,3.9,16.6c0,1.1,0.1,2.2,0.1,3.2c0.1,3,0.4,9.9,1.5,12.8c0.2,0.4,0.3,0.8,0.4,1.3
				c1.2,3.7,1.7,5.2,6.6,4.2c4.3-0.9,6.5-1.7,8.2-4.2c2.5-3.6,4-11,4.2-21.8l5.8,0.2l-5.8-0.7c0.1-0.5,0.1-0.9,0.2-1.3
				c0.5-4.3,0.9-7.8,4-10c2-1.4,4.2-1.6,6.1-1.4c-1.6-1.6-2.1-3.2-2.2-4l-0.5-2.4l1.4-2c7.2-10.7,13.2-23.9,16.4-36.2
				c3.2-12.5,2.3-19.2,1.4-20.4c-13-16.6-35.5-9.8-38-9l-0.4,0.2l-2.2,0.4l-1.1-0.2c-2.8-0.6-6-0.9-9.4-1c-5.2-0.1-9.5,1.2-13,3.8
				l-2.7,2l-3.1-1.3c-6.1-2.5-23.8-7.4-33.1-0.9c-5.1,3.6-7.5,10.8-6.9,21.3c0.2,3.6,2.7,17.3,6.7,30.4c5.6,18,10.5,23,11.9,23.4
				c0.2-0.1,0.8-0.4,1.8-1.6c6.1-7.3,11.8-13.4,12.1-13.6l3.4-3.6l4.1,2.7c1.4,0.9,2.9,1.5,4.5,1.6l9.7-8.3l-1.4,14.4
				c0,0.3,0,0.7,0.1,1.3l0.4,2.7l-1.8,2.1c0,0,0,0-0.1,0.1l4.5,2.1L127.6,146.5z"/>
		</g>
	</g>
	<g>
		<g>
			<path class="st0" d="M183.2,142.2c-15.7,3.2-16.8-2.1-16.8-2.1c16.6-24.6,23.5-55.8,17.6-63.5c-16.3-20.8-44.6-11-45.1-10.7
				l-0.2,0c-3.1-0.7-6.6-1-10.5-1.1c-7.1-0.1-12.5,1.9-16.6,5c0,0-50.4-20.8-48.1,26.1c0.5,10,14.3,75.5,30.8,55.7
				c6-7.2,11.8-13.3,11.8-13.3c2.9,1.9,6.3,2.9,10,2.5l0.3-0.2c-0.1,0.9-0.1,1.8,0.1,2.8c-4.2,4.7-3,5.6-11.5,7.3
				c-8.6,1.8-3.5,4.9-0.2,5.7c4,1,13.2,2.4,19.5-6.3l-0.2,1c1.7,1.3,2.8,8.7,2.6,15.3c-0.2,6.7-0.3,11.2,1,14.8
				c1.3,3.6,2.6,11.6,13.7,9.2c9.3-2,14.1-7.2,14.8-15.8c0.5-6.1,1.6-5.2,1.6-10.7l0.9-2.6c1-8.3,0.2-11,5.9-9.7l1.4,0.1
				c4.2,0.2,9.7-0.7,13-2.2C185.9,146.1,190,140.7,183.2,142.2L183.2,142.2z"/>
		</g>
	</g>
	<g>
		<g>
			<path class="st1" d="M138.3,192.9c-9.4,0-12.3-7.4-13.6-10.5c-1.8-4.4-2.2-21.1-1.7-35.6c0-1.1,0.9-1.9,2-1.9
				c1.1,0,1.9,0.9,1.9,2c-0.4,16.2,0.2,30.8,1.5,34c2,5,5.1,9.4,13.7,7.6c8.3-1.8,11.3-4.8,12.6-12.8c1.1-6.2,3.2-23.6,3.4-27.1
				c0.1-1.1,1-1.9,2.1-1.8c1.1,0.1,1.9,1,1.8,2.1c-0.3,3.6-2.4,21.1-3.5,27.5c-1.7,9.5-5.9,13.9-15.7,16
				C141.2,192.8,139.7,192.9,138.3,192.9z"/>
		</g>
	</g>
	<g>
		<g>
			<path class="st1" d="M87.9,157c-0.9,0-1.7-0.2-2.4-0.4c-6.1-2-11.9-11.9-17.2-29.3c-4-13.2-6.6-27-6.8-31.5
				C60.9,82.4,64.3,73,71.8,67.7c14.7-10.4,39.5-0.5,40.5-0.1c1,0.4,1.5,1.5,1.1,2.5s-1.5,1.5-2.5,1.1c-0.3-0.1-23.9-9.5-36.8-0.3
				c-6.3,4.5-9.2,12.8-8.6,24.7c0.2,3.8,2.6,17.2,6.7,30.6c4.7,15.5,10.1,25.2,14.7,26.7c0.7,0.2,2.9,1,6-2.8c6-7.2,11.5-13,11.6-13
				c0.7-0.8,2-0.8,2.7-0.1s0.8,2,0.1,2.7c-0.1,0.1-5.5,5.7-11.4,12.8C92.9,156,90.2,157,87.9,157z"/>
		</g>
	</g>
	<g>
		<g>
			<path class="st1" d="M166.3,141.8c-0.4,0-0.7-0.1-1.1-0.3c-0.9-0.6-1.1-1.8-0.5-2.7c16.7-24.8,22.6-54.8,17.6-61.2
				c-6.3-8.1-15.2-12.3-26.5-12.5c-8.3-0.2-15,1.9-16.1,2.3c-0.1,0-0.2,0.1-0.3,0.1c-1.2,0.4-2.1-0.3-2.4-1c-0.4-0.9-0.1-2,0.8-2.5
				c0.7-0.4,8.4-2.9,17.6-2.8c12.6,0.1,23,5,30,14c4.8,6.1,1.6,21,0.1,27.1c-3.4,13.1-9.8,27.2-17.5,38.7
				C167.5,141.5,166.9,141.8,166.3,141.8z"/>
		</g>
	</g>
	<g>
		<g>
			<path class="st1" d="M167.1,153.3c-2.9,0-5.5-0.4-7.1-1.3c-1.6-1-1.9-2.3-2-3c-0.4-7.5,3.6-8.9,5.8-9.6c-0.3-0.4-0.7-0.9-1-1.3
				c-1.2-1.6-3-3.7-4.3-6.9c-0.2-0.5-0.8-1.7-1.6-3c-4.1-7.3-12.5-22.4-7-30.2c2.5-3.6,7.4-5,14.7-4.3c-0.9-2.8-3.3-8.2-7.8-13.5
				c-5.2-6.1-14.4-13.5-28.7-13.7c-7.3-0.1-13.2,2.1-17.7,6.6c-10.1,10.2-9.7,28.6-9.7,28.8c0,1.1-0.8,2-1.9,2c-1.1,0-2-0.8-2-1.9
				c0-0.8-0.4-20.3,10.8-31.6c5.2-5.3,12.2-7.9,20.6-7.8c15.6,0.2,25.7,8.2,31.4,14.8c6.2,7.2,9.2,15.2,9.5,17.9
				c0.2,2.1-1.4,2.5-1.6,2.6l-0.7,0c-4.9-0.8-11.2-1-13.6,2.3c-4.1,5.8,3.9,20,7.2,26c0.9,1.6,1.5,2.7,1.8,3.4
				c1.1,2.7,2.6,4.5,3.7,5.9c1,1.3,1.9,2.4,2.2,3.7c0.2,0.3,2.3,3.2,14.5,0.7c3.2-0.7,5.1-0.1,5.7,1.7c1.2,3.5-5.2,7.5-8.7,9.2
				C176.5,152.4,171.5,153.3,167.1,153.3z M162,148.6c0.5,0.4,2.5,1,6.4,0.8c3.6-0.2,7.3-0.9,9.6-2c2.6-1.2,4.5-2.6,5.5-3.6
				c0,0-0.1,0-0.1,0c-8,1.7-13.6,1.4-16.8-0.7c-0.2-0.1-0.4-0.2-0.5-0.4c-0.3,0.1-0.5,0.2-0.8,0.2C163.5,143.6,161.7,144,162,148.6z
				"/>
		</g>
	</g>
	<g>
		<g>
			<path class="st1" d="M110.4,158.9c-2,0-4.1-0.3-6.2-0.8c-0.6-0.2-6-1.6-6-5.1c0.1-3.2,4.6-4.1,6.3-4.5c6-1.2,6.4-1.7,8.2-4.1
				c0.6-0.7,1.2-1.6,2.2-2.6c3.1-3.5,6.1-2.3,7.3-1.7c2,0.8,3.6,2.8,4.3,5.1c0.6,2.1,0.3,4.2-0.8,5.8
				C122,156.2,116.7,158.9,110.4,158.9z M102.6,153.2c0.6,0.4,1.5,0.8,2.6,1.1c5.2,1.3,12.4,1.4,17.4-5.6c0.6-0.8,0.4-1.9,0.2-2.4
				c-0.3-1.2-1.2-2.2-2-2.6c-1.1-0.4-1.6-0.7-2.9,0.7l0,0c-0.8,1-1.5,1.7-2,2.4c-2.4,3-3.5,4-10.5,5.5
				C103.9,152.6,103,153,102.6,153.2z M116.4,143.1L116.4,143.1L116.4,143.1z"/>
		</g>
	</g>
	<g>
		<g>
			<path class="st1" d="M116.1,145c-0.9,0-1.8-0.7-1.9-1.7c0-0.2-0.1-0.5-0.1-0.8c-4.6-0.1-9-2.1-12.3-5.6c-4.3-4.5-6.2-10.7-5.3-17
				c0.9-6.8,0.6-12.8,0.4-16c-0.1-0.9-0.1-1.6-0.1-2c0-0.6,0-2.2,5.2-4.8c1.8-0.9,5.4-2.5,9.4-2.9c6.6-0.7,11,2.2,12.2,8.3
				c3.5,16.1,0.3,23.2-2.1,28.4c-0.4,1-0.8,1.9-1.2,2.7l-0.3,0.8c-1.2,3.3-2.3,6.1-2,8.2c0.2,1.1-0.6,2.1-1.6,2.2
				C116.3,145,116.2,145,116.1,145z M100.6,102.5c0,0.3,0,0.7,0.1,1.2c0.2,3.4,0.6,9.6-0.4,16.8c-0.7,5.1,0.8,10.1,4.3,13.7
				c2.7,2.8,6.3,4.4,9.9,4.4c0.4-1.7,1.1-3.6,1.8-5.5l0.3-0.8c0.4-1,0.8-2,1.3-3c2.2-5,5-11.2,1.8-26c-0.6-2.9-2.1-4.5-4.6-5.1
				C109.8,97.1,102.3,101.1,100.6,102.5z M100.4,102.8L100.4,102.8L100.4,102.8z"/>
		</g>
	</g>
	<g>
		<g>
			<path class="st1" d="M111.4,101.7c-0.1,0.6,1.2,2.3,2.8,2.6c1.6,0.2,3-1.1,3.1-1.7c0.1-0.6-1.2-1.3-2.8-1.6
				C112.9,100.7,111.5,101.1,111.4,101.7L111.4,101.7z"/>
		</g>
		<g>
			<path class="st1" d="M114.5,105c-0.2,0-0.3,0-0.4,0c-1-0.2-2.1-0.8-2.8-1.7c-0.2-0.3-0.7-1-0.6-1.6c0-0.2,0.2-0.5,0.5-0.8
				c0.7-0.5,1.9-0.7,3.3-0.5c1.7,0.2,3.5,1.1,3.3,2.3C117.8,103.6,116.2,105,114.5,105z M112,101.8c0.1,0.4,1,1.6,2.2,1.8
				c1.2,0.2,2.2-0.8,2.4-1.2c-0.2-0.2-0.9-0.7-2.2-0.9C113.1,101.4,112.2,101.7,112,101.8z"/>
		</g>
	</g>
	<g>
		<g>
			<path class="st1" d="M161.1,100.4c0.1,0.6-1.2,2.3-2.8,2.6c-1.6,0.2-3-1.1-3.1-1.7c-0.1-0.6,1.2-1.3,2.8-1.6
				S161.1,99.8,161.1,100.4L161.1,100.4z"/>
		</g>
		<g>
			<path class="st1" d="M158,103.3c-1.6,0-3-1.3-3.1-2c-0.1-1,1.4-1.7,3.1-1.9c1.6-0.2,3.3,0.1,3.5,1l0,0c0.1,0.4-0.3,1.1-0.8,1.7
				c-0.4,0.4-1.2,1.1-2.2,1.2C158.3,103.3,158.1,103.3,158,103.3z M159.1,99.9c-0.3,0-0.6,0-1,0.1c-1.7,0.2-2.6,0.9-2.5,1.2
				c0.1,0.4,1.3,1.7,2.7,1.5c0.9-0.1,1.5-0.7,1.9-1c0.5-0.5,0.7-1,0.7-1.2l0,0C160.8,100.2,160.2,99.9,159.1,99.9z"/>
		</g>
	</g>
	<g>
		<g>
			<path class="st1" d="M163.5,137.1c-0.4,0-0.7-0.1-1.1-0.3c-0.9-0.6-1.1-1.8-0.5-2.7c3.8-5.7,3.1-11.5,2.4-17.1
				c-0.3-2.4-0.6-4.9-0.5-7.3c0.1-2.5,0.4-4.5,0.7-6.5c0.3-2.3,0.7-4.5,0.6-7.1c-0.1-1.1,0.8-2,1.8-2.1c1.1-0.1,2,0.8,2.1,1.8
				c0.2,3-0.2,5.5-0.6,7.9c-0.3,1.8-0.6,3.7-0.7,6c-0.1,2.1,0.2,4.3,0.5,6.7c0.7,6,1.5,12.9-3.1,19.7
				C164.8,136.8,164.1,137.1,163.5,137.1z"/>
		</g>
	</g>
	<g>
		<g>
			<path class="st2" d="M57.5,76.2"/>
		</g>
	</g>
</g>
</svg>
