<?xml version="1.0" encoding="utf-8"?>
<!-- Generator: Adobe Illustrator 25.0.1, SVG Export Plug-In . SVG Version: 6.00 Build 0)  -->
<svg version="1.1" id="Layer_1" xmlns="http://www.w3.org/2000/svg" xmlns:xlink="http://www.w3.org/1999/xlink" x="0px" y="0px"
	 viewBox="0 0 250 250" style="enable-background:new 0 0 250 250;" xml:space="preserve">
<style type="text/css">
	.st0{clip-path:url(#SVGID_2_);}
	.st1{fill:url(#SVGID_3_);}
	.st2{fill:url(#SVGID_4_);}
	.st3{fill:url(#SVGID_5_);}
	.st4{opacity:0.6;fill:url(#SVGID_6_);enable-background:new    ;}
</style>
<g>
	<g>
		<defs>
			<rect id="SVGID_1_" x="54.7" y="64.3" width="140.7" height="121.4"/>
		</defs>
		<clipPath id="SVGID_2_">
			<use xlink:href="#SVGID_1_"  style="overflow:visible;"/>
		</clipPath>
		<g class="st0">
			
				<linearGradient id="SVGID_3_" gradientUnits="userSpaceOnUse" x1="164.0674" y1="84.5824" x2="55.7481" y2="196.7705" gradientTransform="matrix(1 0 0 -1 20 280)">
				<stop  offset="0" style="stop-color:#892C6C"/>
				<stop  offset="1" style="stop-color:#D14671"/>
			</linearGradient>
			<path class="st1" d="M77.7,124.9c0-21,17.3-38,38.8-38c7.8,0,14.9,2.1,20.9,6l16.7-16.2c-10.3-7.8-23.5-12.5-37.6-12.5
				c-34.2,0-61.9,27.1-61.9,60.6s27.7,60.6,61.9,60.6v-22.6C95.1,162.9,77.7,145.9,77.7,124.9L77.7,124.9z"/>
			
				<linearGradient id="SVGID_4_" gradientUnits="userSpaceOnUse" x1="82.894" y1="231.7516" x2="195.082" y2="119.011" gradientTransform="matrix(1 0 0 -1 20 280)">
				<stop  offset="0" style="stop-color:#C34170"/>
				<stop  offset="1" style="stop-color:#8B2C6C"/>
			</linearGradient>
			<path class="st2" d="M155.3,124.9h23.1c0-16-6.4-30.6-16.7-41.5l-16.3,16C151.6,106.2,155.3,115.2,155.3,124.9z"/>
			
				<linearGradient id="SVGID_5_" gradientUnits="userSpaceOnUse" x1="162.6363" y1="90.3905" x2="48.2377" y2="202.026" gradientTransform="matrix(1 0 0 -1 20 280)">
				<stop  offset="0" style="stop-color:#882B6B"/>
				<stop  offset="1" style="stop-color:#CF4671"/>
			</linearGradient>
			<path class="st3" d="M135.4,126.9h-34l60.1,58.8l33.8-0.2L135.4,126.9L135.4,126.9z"/>
			
				<linearGradient id="SVGID_6_" gradientUnits="userSpaceOnUse" x1="49.8664" y1="133.1277" x2="65.4733" y2="177.3761" gradientTransform="matrix(1 0 0 -1 20 280)">
				<stop  offset="0" style="stop-color:#FFFFFF"/>
				<stop  offset="0.8598" style="stop-color:#FFFFFF"/>
				<stop  offset="1" style="stop-color:#FFFFFF"/>
			</linearGradient>
			<path class="st4" d="M62.8,94.7c-14.9,42.5,29.6,60.2,29.6,60.2c-4.8-3.5-10.7-11.7-12.5-17.5c-3.8-12.1-2.6-21.6,3.6-32.2"/>
		</g>
	</g>
</g>
</svg>
