<svg width="81" height="87" viewBox="0 0 81 87" fill="none" xmlns="http://www.w3.org/2000/svg">
<path d="M41 62.1L69.9 69.1V14.7L41 21.7V62.1Z" fill="#205B98"/>
<path d="M69.9 14.7L75.5 17.5V66.3L69.9 69.1V14.7Z" fill="#5294CF"/>
<path d="M41 62.1L12 69.1V14.7L41 21.7V62.1Z" fill="#5294CF"/>
<path d="M12 14.7L6.5 17.5V66.3L12 69.1V14.7Z" fill="#205B98"/>
<path d="M48.4 80L59.4 74.6V9.5L48.4 4L44.9 40.1L48.4 80Z" fill="#5294CF"/>
<path d="M33.6 80L22.6 74.6V9.5L33.6 4L37 40L33.6 80Z" fill="#205B98"/>
<path d="M48.4 4H33.6V80.1H48.4V4Z" fill="#2D72B8"/>
</svg>
