<svg width="69" height="77" viewBox="0 0 69 77" fill="none" xmlns="http://www.w3.org/2000/svg">
<path fill-rule="evenodd" clip-rule="evenodd" d="M60.9393 13.9738L47.5584 38.2033L60.9393 62.4328L66.4206 59.5192V16.8875L60.9393 13.9738Z" fill="#E25444"/>
<path fill-rule="evenodd" clip-rule="evenodd" d="M60.9392 13.9738L34.1776 16.8875L20.5549 38.2033L34.1776 59.5192L60.9392 62.4328V13.9738Z" fill="#7B1D13"/>
<path fill-rule="evenodd" clip-rule="evenodd" d="M6.93224 13.9738L2.57944 15.814V60.5926L6.93224 62.4328L34.1776 38.2033L6.93224 13.9738Z" fill="#58150D"/>
<path fill-rule="evenodd" clip-rule="evenodd" d="M6.87372 13.9228L34.2137 21.1473V55.9069L6.87372 62.4499V13.9228Z" fill="#E25444"/>
<path fill-rule="evenodd" clip-rule="evenodd" d="M34.228 24.9641L22.6193 23.1919L34.228 10.6512L45.8081 23.1919L34.228 24.9641Z" fill="#58150D"/>
<path fill-rule="evenodd" clip-rule="evenodd" d="M45.8081 23.1919L34.2137 24.9912L22.6193 23.1919V10.6512" fill="#58150D"/>
<path fill-rule="evenodd" clip-rule="evenodd" d="M34.228 51.2723L22.6193 53.3171L34.228 64.0857L45.8081 53.3171L34.228 51.2723Z" fill="#58150D"/>
<path fill-rule="evenodd" clip-rule="evenodd" d="M34.1776 1.2457L22.5701 7.07305V23.1749L34.2137 20.0568L34.1776 1.2457Z" fill="#7B1D13"/>
<path fill-rule="evenodd" clip-rule="evenodd" d="M34.2137 28.917L22.6193 30.1167V46.1937L34.2137 47.4555V28.917Z" fill="#7B1D13"/>
<path fill-rule="evenodd" clip-rule="evenodd" d="M34.2137 56.0432L22.6193 53.2778V69.0826L34.2137 74.8543V56.0432Z" fill="#7B1D13"/>
<path fill-rule="evenodd" clip-rule="evenodd" d="M45.8081 53.2778L34.2137 56.0439V74.8543L45.8081 69.0826V53.2778Z" fill="#E25444"/>
<path fill-rule="evenodd" clip-rule="evenodd" d="M34.2137 28.917L45.8081 30.1167V46.1937L34.2137 47.4555V28.917Z" fill="#E25444"/>
<path fill-rule="evenodd" clip-rule="evenodd" d="M34.1776 1.2457L45.7851 7.07305V23.1749L34.1776 20.1079V1.2457Z" fill="#E25444"/>
</svg>
