<?xml version="1.0" encoding="utf-8"?>
<!-- Generator: Adobe Illustrator 25.0.1, SVG Export Plug-In . SVG Version: 6.00 Build 0)  -->
<svg version="1.1" id="Layer_1" xmlns="http://www.w3.org/2000/svg" xmlns:xlink="http://www.w3.org/1999/xlink" x="0px" y="0px"
	 viewBox="0 0 250 250" style="enable-background:new 0 0 250 250;" xml:space="preserve">
<style type="text/css">
	.st0{fill:#57D1E5;}
	.st1{fill:#FFFFFF;}
	.st2{fill:#3A2D55;}
</style>
<g>
	<path class="st0" d="M124.6,61.2c-30,0-51.4,19-51.4,45.8c0,12.9,13.4,75.6,13.4,75.6c0.9,3.7,4.5,6.3,8.3,5.6
		c0.9-0.1,1.6-0.4,2.3-0.8l0.6,0c1.3,0.8,2.9,1.1,4.5,1c1.3-0.1,2.5-0.7,3.5-1.4l1.6-0.1c1.3,1.1,3.1,1.6,4.9,1.5
		c1.9-0.1,3.5-0.9,4.7-2.1l2.9-0.2c1.3,1.3,3.1,2.3,5.1,2.3c2.2,0,4.1-0.8,5.5-2.3l3,0.2c1.1,1.1,2.6,1.8,4.3,2
		c2,0.2,3.8-0.3,5.3-1.5l1.8,0.1c0.9,0.6,1.9,1.1,3,1.3c1.6,0.3,3.1,0,4.5-0.6c0.6,0.3,1.2,0.5,1.9,0.6c3.8,0.6,7.5-1.9,8.3-5.6
		c0,0,13.4-62.8,13.4-75.6C175.9,80.2,154.6,61.2,124.6,61.2z"/>
	<g>
		<circle class="st1" cx="108" cy="102.4" r="22.9"/>
		<path class="st2" d="M108,126.5c-13.3,0-24.2-10.8-24.2-24.2S94.6,78.2,108,78.2c13.3,0,24.2,10.8,24.2,24.2
			S121.3,126.5,108,126.5z M108,80.7c-12,0-21.7,9.7-21.7,21.7s9.7,21.7,21.7,21.7s21.7-9.7,21.7-21.7S119.9,80.7,108,80.7z"/>
	</g>
	<path class="st2" d="M112.7,87.4c-4,0.8-4.7,9.5-2.4,11.9c1.6,1.6,4.7,2.1,4.7,3.2c0,1.1-3.2,1.6-4.7,3.2
		c-2.4,2.4-1.6,11.1,2.4,11.9c4.7,1,11.9-4.7,11.9-15S117.4,86.4,112.7,87.4z"/>
	<path class="st1" d="M96.7,133.6c0.8,2.4,3.4,6.9,6.5,6.1c1.5-0.4,2.4-2.4,2.4-5.6"/>
	<path class="st1" d="M117.5,131.6c0.8,3.2,1.6,5.6,4,5.6s5.6-3.2,4.7-8.7"/>
	<path class="st2" d="M137.4,120.7c-1-1.1-2.4-1.9-3.9-2.2h0c0,0-0.1,0-0.1,0c-0.7,0-1.3,0.5-1.3,1.1c0,0.7,0.5,1.3,1.1,1.3
		c0.7,0,1.3,0.2,1.9,0.6c-6.1,4.1-12.9,7.1-20,8.8c-7.4,1.8-15.1,2.1-22.7,1c-0.6-0.1-1.1,0.3-1.2,0.9c-0.1,0.6,0.3,1.1,0.9,1.2
		c1.1,0.2,2.3,0.3,3.5,0.4c0,0,0,0.1,0,0.1c1,3,3.6,7,6.9,7c0.3,0,0.7,0,1.1-0.1c1.2-0.3,3.3-1.6,3.3-6.8c0-0.1,0-0.1,0-0.2
		c2.9-0.2,5.8-0.7,8.7-1.3c0.3,0,0.6-0.1,0.8-0.2c0.7,2.7,1.7,6,5,6c1.4,0,2.9-0.8,4-2.1c1-1.1,2.5-3.6,2-7.8
		c3.3-1.5,6.5-3.3,9.4-5.3c0.3,0.5,0.5,1,0.6,1.6l0,0c0.1,0.4,0.5,0.7,0.9,0.7c0.5,0,0.8-0.4,0.8-0.9
		C139,123.2,138.4,121.8,137.4,120.7z M104.3,134.1c0,2.4-0.6,4.1-1.4,4.3c-1.9,0.5-3.8-2.3-4.7-4.4
		C100.3,134.1,102.3,134.1,104.3,134.1C104.4,134.1,104.3,134.1,104.3,134.1z M123.5,134.7c-0.6,0.7-1.4,1.2-2.1,1.2
		c-1.1,0-1.8-1-2.6-4.2c2.1-0.6,4.2-1.3,6.2-2.2C125.1,131.7,124.6,133.5,123.5,134.7z"/>
	<g>
		<path class="st2" d="M162.8,73.3c-9.5-8.5-22.9-13.2-37.8-13.2s-28.2,4.7-37.8,13.2c-9.6,8.5-14.8,20.6-14.8,33.9
			c0,12.8,12.9,73.3,13.4,75.9c0.9,4,4.4,6.7,8.3,6.7c0.5,0,0.9,0,1.4-0.1c0.8-0.1,1.6-0.4,2.3-0.8c1.6,0.7,3.4,1,5.2,0.7
			c1.3-0.2,2.6-0.8,3.6-1.7c0.9,0.7,2,1.3,3.2,1.6c1.9,0.5,3.9,0.3,5.6-0.5c1.2-0.6,2.3-1.4,3.1-2.4c0.6,0.8,1.3,1.4,2.2,2
			c0.7,0.4,1.4,0.7,2.2,1s1.5,0.3,2.3,0.3c0.8,0,1.6-0.1,2.3-0.3c0.8-0.2,1.5-0.5,2.2-1c0.7-0.4,1.3-0.9,1.8-1.5
			c0.1-0.1,0.3-0.3,0.4-0.4l0,0c1.3,1.6,3.3,2.8,5.4,3.1c2.1,0.3,4.3-0.2,6-1.4c0.2-0.1,0.3-0.2,0.5-0.4c1,0.8,2.2,1.4,3.4,1.6
			c0.9,0.2,1.8,0.2,2.7,0.1c0.8-0.1,1.6-0.3,2.3-0.6c0.7,0.3,1.3,0.5,2.1,0.6c4.5,0.7,8.8-2.2,9.7-6.6c0.5-2.6,13.4-63.1,13.4-75.9
			C177.6,93.9,172.4,81.9,162.8,73.3z M161.8,182.6c-0.7,3-3.5,5-6.6,4.7c0.6-0.6,1.1-1.2,1.5-2c0.4-0.8,0.8-1.7,0.9-2.5l0.4-2.3
			l1.5-9.1c0.5-3.1,1-6.1,1.3-9.2c0-0.4-0.2-0.8-0.6-0.9c-0.4-0.1-0.9,0.2-1,0.6c-0.7,3-1.3,6.1-1.9,9.1l-1.8,9.1l-0.4,2.3
			c-0.1,0.6-0.4,1.2-0.7,1.8c-0.3,0.6-0.7,1.1-1.2,1.5c-0.5,0.4-1,0.8-1.6,1.1c-0.6,0.2-1.2,0.4-1.8,0.5c-0.6,0.1-1.3,0-1.9-0.1
			c-0.8-0.1-1.6-0.5-2.3-1c0.6-0.9,1.1-1.8,1.3-2.9c0.1-0.2,0.1-0.5,0.1-0.8c0-0.1,0-0.3,0-0.4l0-0.3l0.1-1.3l0.3-2.7l0.5-5.4
			c0.3-3.6,0.7-7.2,0.9-10.8c0-0.4-0.3-0.8-0.7-0.9s-0.9,0.2-1,0.7c-0.5,3.5-1,7.1-1.5,10.7l-0.7,5.4l-0.3,2.7
			c-0.1,0.9-0.2,1.9-0.4,2.5c-0.3,1.4-1.3,2.7-2.5,3.5c-1.2,0.8-2.8,1.1-4.2,0.9c-1.5-0.2-2.8-1-3.8-2.2c-0.2-0.3-0.4-0.6-0.6-0.9
			c0.1-0.4,0.2-0.8,0.3-1.1c0.2-0.8,0.2-1.6,0.2-2.2l0-4c0-2.6,0.1-5.3,0.1-7.9c0-2.6,0-5.3,0-7.9c0-0.4-0.3-0.8-0.8-0.8
			c-0.5,0-0.9,0.3-0.9,0.8c-0.1,2.6-0.3,5.3-0.4,7.9c-0.1,2.6-0.2,5.3-0.4,7.9l-0.2,4c0,0.3,0,0.7,0,1c0,0.3,0,0.5-0.1,0.8
			c-0.1,0.5-0.3,1.1-0.6,1.5c-1,2-3.2,3.3-5.4,3.2c-0.5,0-1.1,0-1.6-0.2c-0.5-0.1-1-0.4-1.5-0.6c-1-0.6-1.7-1.4-2.3-2.3
			c-0.3-0.5-0.4-1-0.6-1.5c-0.1-0.5-0.1-1.1-0.2-1.8l-0.2-4c-0.1-2.6-0.2-5.3-0.4-7.9c-0.1-2.6-0.3-5.3-0.4-7.9
			c0-0.4-0.4-0.8-0.8-0.8c-0.5,0-0.8,0.4-0.8,0.8c0,2.6,0,5.3,0,7.9s0,5.3,0.1,7.9l0,4c0,0.6,0,1.4,0.2,2.2c0.1,0.4,0.2,0.8,0.3,1.1
			c-0.7,1.1-1.6,2-2.8,2.5c-1.2,0.6-2.6,0.7-3.9,0.3c-1.3-0.3-2.5-1.1-3.3-2.2c-0.4-0.5-0.8-1.1-1-1.8c-0.1-0.3-0.2-0.7-0.2-1
			c0-0.1,0-0.4-0.1-0.6l-0.1-0.6l-1.2-9.7c-0.4-3.3-0.9-6.5-1.4-9.7c0-0.4-0.4-0.7-0.9-0.7c-0.5,0-0.8,0.4-0.8,0.9
			c0.2,3.3,0.5,6.5,0.8,9.8l1,9.8l0,0.6c0,0.2,0,0.4,0.1,0.7c0,0.5,0.2,1,0.3,1.4c0.2,0.8,0.7,1.6,1.1,2.3c-0.7,0.5-1.5,0.9-2.4,1
			c-1.2,0.2-2.5,0-3.7-0.5c-1.1-0.6-2.1-1.4-2.7-2.6c-0.3-0.6-0.5-1.1-0.7-1.8L95,180l-1.8-9c-0.6-3-1.2-6-1.9-9
			c-0.1-0.4-0.5-0.7-0.9-0.6c-0.4,0-0.8,0.5-0.7,1c0.4,3.1,0.9,6.1,1.3,9.1l1.5,9.1l0.4,2.3c0.1,0.9,0.5,1.8,0.9,2.5
			c0.4,0.7,0.9,1.4,1.5,2c-0.1,0-0.1,0-0.2,0c-3.2,0.5-6.2-1.5-6.9-4.6c-0.1-0.6-13.4-62.8-13.4-75.4c0-12.6,5-24,14-32.1
			c9-8.1,21.9-12.5,36.1-12.5s27.1,4.5,36.1,12.5c9,8,14,19.4,14,32.1C175.2,119.8,161.9,182,161.8,182.6z"/>
	</g>
</g>
</svg>
