<svg width="54" height="73" viewBox="0 0 54 73" fill="none" xmlns="http://www.w3.org/2000/svg">
<mask id="mask0_37_329" style="mask-type:alpha" maskUnits="userSpaceOnUse" x="0" y="0" width="54" height="73">
<path fill-rule="evenodd" clip-rule="evenodd" d="M33.6653 0.858398H5.33843C2.60377 0.858398 0.333496 3.08938 0.333496 5.77671V67.9401C0.333496 70.6274 2.60377 72.8584 5.33843 72.8584H48.6286C51.3632 72.8584 53.6335 70.6274 53.6335 67.9401V20.4809L33.6653 0.858398Z" fill="white"/>
</mask>
<g mask="url(#mask0_37_329)">
<path d="M33.6653 0.858398H5.33843C2.60377 0.858398 0.333496 3.08938 0.333496 5.77671V67.9401C0.333496 70.6274 2.60377 72.8584 5.33843 72.8584H48.6286C51.3632 72.8584 53.6335 70.6274 53.6335 67.9401V20.4809L41.9725 12.3176L33.6653 0.858398Z" fill="#0F9D58"/>
</g>
<mask id="mask1_37_329" style="mask-type:alpha" maskUnits="userSpaceOnUse" x="0" y="0" width="54" height="73">
<path fill-rule="evenodd" clip-rule="evenodd" d="M33.6653 0.858398H5.33843C2.60377 0.858398 0.333496 3.08938 0.333496 5.77671V67.9401C0.333496 70.6274 2.60377 72.8584 5.33843 72.8584H48.6286C51.3632 72.8584 53.6335 70.6274 53.6335 67.9401V20.4809L33.6653 0.858398Z" fill="white"/>
</mask>
<g mask="url(#mask1_37_329)">
<path d="M13.6968 36.0471V59.726H40.321V35.9964H13.6968V36.0471ZM25.3062 56.4809H16.999V52.3739H25.3062V56.4809ZM25.3062 49.9401H16.999V45.833H25.3062V49.9401ZM25.3062 43.3992H16.999V39.2922H25.3062V43.3992ZM36.9672 56.4809H28.66V52.3739H36.9672V56.4809ZM36.9672 49.9401H28.66V45.833H36.9672V49.9401ZM36.9672 43.3992H28.66V39.2922H36.9672V43.3992Z" fill="#F1F1F1"/>
</g>
<mask id="mask2_37_329" style="mask-type:alpha" maskUnits="userSpaceOnUse" x="0" y="0" width="54" height="73">
<path fill-rule="evenodd" clip-rule="evenodd" d="M33.6653 0.858398H5.33843C2.60377 0.858398 0.333496 3.08938 0.333496 5.77671V67.9401C0.333496 70.6274 2.60377 72.8584 5.33843 72.8584H48.6286C51.3632 72.8584 53.6335 70.6274 53.6335 67.9401V20.4809L33.6653 0.858398Z" fill="white"/>
</mask>
<g mask="url(#mask2_37_329)">
<path d="M35.1099 19.0612L53.6333 37.264V20.4809L35.1099 19.0612Z" fill="url(#paint0_linear_37_329)"/>
</g>
<mask id="mask3_37_329" style="mask-type:alpha" maskUnits="userSpaceOnUse" x="0" y="0" width="54" height="73">
<path fill-rule="evenodd" clip-rule="evenodd" d="M33.6653 0.858398H5.33843C2.60377 0.858398 0.333496 3.08938 0.333496 5.77671V67.9401C0.333496 70.6274 2.60377 72.8584 5.33843 72.8584H48.6286C51.3632 72.8584 53.6335 70.6274 53.6335 67.9401V20.4809L33.6653 0.858398Z" fill="white"/>
</mask>
<g mask="url(#mask3_37_329)">
<path d="M33.6265 0.828735V15.533C33.6265 18.2203 35.8451 20.4513 38.6314 20.4513H53.5946L33.6265 0.828735Z" fill="#87CEAC"/>
</g>
<mask id="mask4_37_329" style="mask-type:alpha" maskUnits="userSpaceOnUse" x="0" y="0" width="54" height="73">
<path fill-rule="evenodd" clip-rule="evenodd" d="M33.6653 0.858398H5.33843C2.60377 0.858398 0.333496 3.08938 0.333496 5.77671V67.9401C0.333496 70.6274 2.60377 72.8584 5.33843 72.8584H48.6286C51.3632 72.8584 53.6335 70.6274 53.6335 67.9401V20.4809L33.6653 0.858398Z" fill="white"/>
</mask>
<g mask="url(#mask4_37_329)">
<path d="M5.33843 0.858398C2.60377 0.858398 0.333496 3.08938 0.333496 5.77671V6.18234C0.333496 3.49502 2.60377 1.26403 5.33843 1.26403H33.6137V0.858398H5.33843V0.858398Z" fill="white" fill-opacity="0.2"/>
</g>
<mask id="mask5_37_329" style="mask-type:alpha" maskUnits="userSpaceOnUse" x="0" y="0" width="54" height="73">
<path fill-rule="evenodd" clip-rule="evenodd" d="M33.6653 0.858398H5.33843C2.60377 0.858398 0.333496 3.08938 0.333496 5.77671V67.9401C0.333496 70.6274 2.60377 72.8584 5.33843 72.8584H48.6286C51.3632 72.8584 53.6335 70.6274 53.6335 67.9401V20.4809L33.6653 0.858398Z" fill="white"/>
</mask>
<g mask="url(#mask5_37_329)">
<path d="M48.6286 72.402H5.33843C2.60377 72.402 0.333496 70.171 0.333496 67.4836V67.8893C0.333496 70.5766 2.60377 72.8076 5.33843 72.8076H48.6286C51.3632 72.8076 53.6335 70.5766 53.6335 67.8893V67.4836C53.6335 70.2217 51.3632 72.402 48.6286 72.402Z" fill="#263238" fill-opacity="0.2"/>
</g>
<mask id="mask6_37_329" style="mask-type:alpha" maskUnits="userSpaceOnUse" x="0" y="0" width="54" height="73">
<path fill-rule="evenodd" clip-rule="evenodd" d="M33.6653 0.858398H5.33843C2.60377 0.858398 0.333496 3.08938 0.333496 5.77671V67.9401C0.333496 70.6274 2.60377 72.8584 5.33843 72.8584H48.6286C51.3632 72.8584 53.6335 70.6274 53.6335 67.9401V20.4809L33.6653 0.858398Z" fill="white"/>
</mask>
<g mask="url(#mask6_37_329)">
<path d="M38.6705 20.4811C35.9358 20.4811 33.6655 18.3008 33.6655 15.5627V15.9684C33.6655 18.6557 35.8842 20.8867 38.6705 20.8867H53.6337V20.4811H38.6705Z" fill="#263238" fill-opacity="0.1"/>
</g>
<path d="M33.6653 0.858398H5.33843C2.60377 0.858398 0.333496 3.08938 0.333496 5.77671V67.9401C0.333496 70.6274 2.60377 72.8584 5.33843 72.8584H48.6286C51.3632 72.8584 53.6335 70.6274 53.6335 67.9401V20.4809L33.6653 0.858398Z" fill="url(#paint1_radial_37_329)"/>
<defs>
<linearGradient id="paint0_linear_37_329" x1="44.3721" y1="20.6188" x2="44.3721" y2="37.2504" gradientUnits="userSpaceOnUse">
<stop stop-color="#263238" stop-opacity="0.2"/>
<stop offset="1" stop-color="#263238" stop-opacity="0.02"/>
</linearGradient>
<radialGradient id="paint1_radial_37_329" cx="0" cy="0" r="1" gradientUnits="userSpaceOnUse" gradientTransform="translate(2.04671 2.7964) scale(85.8995 84.4129)">
<stop stop-color="white" stop-opacity="0.1"/>
<stop offset="1" stop-color="white" stop-opacity="0"/>
</radialGradient>
</defs>
</svg>
