<?xml version="1.0" encoding="utf-8"?>
<!-- Generator: Adobe Illustrator 26.0.1, SVG Export Plug-In . SVG Version: 6.00 Build 0)  -->
<svg version="1.1" id="Layer_1" xmlns="http://www.w3.org/2000/svg" xmlns:xlink="http://www.w3.org/1999/xlink" x="0px" y="0px"
	 viewBox="0 0 500 500" style="enable-background:new 0 0 500 500;" xml:space="preserve">
<style type="text/css">
	.st0{fill:#95BF47;}
	.st1{fill:#5E8E3E;}
	.st2{fill:#FFFFFF;}
</style>
<g>
	<g>
		<path class="st0" d="M137.1,214.8c-0.1-0.6-0.6-0.9-1-0.9s-8.2-0.2-8.2-0.2s-6.6-6.3-7.2-7c-0.6-0.6-1.9-0.5-2.4-0.3
			c0,0-1.3,0.4-3.3,1c-0.3-1.1-0.9-2.5-1.6-3.9c-2.3-4.4-5.8-6.8-9.9-6.8l0,0c-0.3,0-0.6,0-0.9,0.1c-0.2-0.2-0.2-0.3-0.4-0.4
			c-1.8-1.9-4.1-2.9-6.9-2.8c-5.3,0.2-10.6,4-15,10.9c-3,4.8-5.3,10.9-6,15.5c-6.1,1.9-10.4,3.2-10.5,3.2c-3.1,1-3.2,1-3.6,4
			c-0.2,2.2-8.2,64.7-8.2,64.7l67.8,11.7l29.4-7.3C149.1,296.3,137.1,215.3,137.1,214.8z M111.5,208.5c-1.6,0.5-3.3,1-5.2,1.7
			c0-2.7-0.4-6.5-1.6-9.7C108.8,201.1,110.8,205.7,111.5,208.5z M102.8,211.2c-3.6,1.1-7.4,2.3-11.3,3.5c1.1-4.2,3.2-8.3,5.7-11.1
			c1-1,2.3-2.1,3.8-2.8C102.5,203.9,102.8,208.3,102.8,211.2z M95.5,197.2c1.3,0,2.3,0.2,3.2,0.9c-1.4,0.7-2.9,1.8-4.1,3.2
			c-3.4,3.6-6,9.3-7,14.7c-3.2,1-6.4,2-9.3,2.9C80.1,210.2,87.3,197.4,95.5,197.2z"/>
		<g>
			<path class="st1" d="M136.1,213.9c-0.4,0-8.2-0.2-8.2-0.2s-6.6-6.3-7.2-7c-0.2-0.2-0.6-0.4-0.9-0.4v97.3l29.4-7.3
				c0,0-12-81-12-81.6C137,214.2,136.5,213.9,136.1,213.9z"/>
			<path class="st2" d="M103.5,229l-3.4,12.8c0,0-3.8-1.7-8.3-1.4c-6.7,0.4-6.7,4.6-6.7,5.6c0.4,5.7,15.4,7,16.2,20.4
				c0.6,10.5-5.5,17.7-14.6,18.3C76,285.2,70,278.8,70,278.8l2.3-9.7c0,0,6,4.5,10.8,4.2c3.1-0.2,4.3-2.8,4.1-4.5
				c-0.5-7.4-12.7-7-13.5-19.2c-0.6-10.3,6.1-20.7,21-21.6C100.5,227.5,103.5,229,103.5,229z"/>
		</g>
	</g>
	<g>
		<path id="s_4_" d="M188.9,256.2c-3.4-1.8-5.1-3.4-5.1-5.5c0-2.7,2.5-4.4,6.3-4.4c4.4,0,8.4,1.8,8.4,1.8l3.1-9.5
			c0,0-2.9-2.2-11.2-2.2c-11.7,0-19.9,6.7-19.9,16.2c0,5.4,3.8,9.4,8.9,12.4c4.1,2.3,5.5,4,5.5,6.4c0,2.5-2.1,4.6-5.9,4.6
			c-5.6,0-11-2.9-11-2.9l-3.3,9.5c0,0,4.9,3.3,13.2,3.3c12,0,20.8-5.9,20.8-16.6C198.5,263.3,194.2,259.2,188.9,256.2z"/>
		<path id="h_4_" d="M236.9,236.1c-5.9,0-10.6,2.9-14.2,7.1l-0.2-0.1l5.1-26.9h-13.4l-13.1,68.6h13.4l4.4-23.4
			c1.7-8.9,6.3-14.3,10.6-14.3c3,0,4.2,2.1,4.2,5c0,1.8-0.2,4.1-0.6,5.9l-5.1,26.9h13.4l5.2-27.7c0.6-2.9,1-6.4,1-8.8
			C247.9,240.7,244,236.1,236.9,236.1z"/>
		<path id="o_4_" d="M278.3,236.1c-16.2,0-26.9,14.6-26.9,30.8c0,10.4,6.4,18.8,18.5,18.8c15.8,0,26.5-14.2,26.5-30.8
			C296.5,245.3,290.9,236.1,278.3,236.1z M271.7,275.5c-4.6,0-6.5-3.9-6.5-8.8c0-7.7,4-20.2,11.2-20.2c4.8,0,6.3,4.1,6.3,8.1
			C282.8,262.8,278.8,275.5,271.7,275.5z"/>
		<path id="p_4_" d="M330.8,236.1c-9,0-14.2,8-14.2,8h-0.2l0.8-7.2h-11.9c-0.6,4.8-1.7,12.3-2.7,17.8l-9.3,49.1h13.4l3.7-19.9h0.3
			c0,0,2.8,1.7,7.8,1.7c15.8,0,26.1-16.2,26.1-32.5C344.7,244.2,340.6,236.1,330.8,236.1z M318,275.7c-3.5,0-5.5-2-5.5-2l2.2-12.5
			c1.6-8.4,5.9-13.9,10.6-13.9c4.1,0,5.4,3.8,5.4,7.4C330.6,263.3,325.5,275.7,318,275.7z"/>
		<path id="dot_4_" d="M363.8,216.9c-4.3,0-7.7,3.4-7.7,7.8c0,4,2.5,6.7,6.3,6.7h0.2c4.2,0,7.8-2.9,7.8-7.8
			C370.5,219.7,367.9,216.9,363.8,216.9z"/>
		<polygon id="i_4_" points="345,284.8 358.4,284.8 367.5,237.3 354.1,237.3 		"/>
		<path id="f_4_" d="M401.7,237.2h-9.3l0.5-2.2c0.8-4.6,3.5-8.6,8-8.6c2.4,0,4.3,0.7,4.3,0.7l2.6-10.5c0,0-2.3-1.2-7.3-1.2
			c-4.8,0-9.5,1.3-13.1,4.4c-4.6,3.9-6.7,9.5-7.8,15.2l-0.4,2.2h-6.3l-2,10.1h6.3l-7.1,37.5h13.4l7.1-37.5h9.3L401.7,237.2z"/>
		<path id="y_4_" d="M434,237.3c0,0-8.4,21.1-12.1,32.7h-0.2c-0.2-3.7-3.3-32.7-3.3-32.7h-14.1l8.1,43.6c0.2,1,0.1,1.6-0.3,2.2
			c-1.6,3-4.2,5.9-7.3,8.1c-2.5,1.8-5.4,3-7.6,3.8l3.7,11.4c2.7-0.6,8.4-2.9,13.1-7.3c6.1-5.7,11.8-14.6,17.6-26.6l16.4-35.2H434z"
			/>
	</g>
</g>
</svg>
