<?xml version="1.0" encoding="utf-8"?>
<!-- Generator: Adobe Illustrator 25.0.1, SVG Export Plug-In . SVG Version: 6.00 Build 0)  -->
<svg version="1.1" id="Layer_1" xmlns="http://www.w3.org/2000/svg" xmlns:xlink="http://www.w3.org/1999/xlink" x="0px" y="0px"
	 viewBox="0 0 250 250" style="enable-background:new 0 0 250 250;" xml:space="preserve">
<style type="text/css">
	.st0{fill:url(#SVGID_1_);}
	.st1{fill:url(#SVGID_2_);}
</style>
<g>
	
		<linearGradient id="SVGID_1_" gradientUnits="userSpaceOnUse" x1="186.773" y1="166.4383" x2="92.4961" y2="83.4415" gradientTransform="matrix(1 0 0 -1 0 249)">
		<stop  offset="0" style="stop-color:#FF00FF"/>
		<stop  offset="0.404" style="stop-color:#AA00FF"/>
		<stop  offset="1" style="stop-color:#1E0A78"/>
	</linearGradient>
	<path class="st0" d="M127.9,60.4c13.8,3.8,26.4,13.5,31.7,25.4c8,19.2,6.1,43.6-2.6,58c-7.4,11.9-18.8,18.2-31.8,18
		c-20.3-0.2-36.7-16.3-36.9-36.6c0-20.3,16-37.1,36.9-37.1c3.4,0,8.3,0.5,13.8,2.8c0,0-4-2.4-14.2-3.9c-29.4-3.8-64,18.4-56,69.7
		c11.1,19.7,32.3,33.1,56.4,32.9c35.5-0.2,64.6-29.2,64.4-65C189.6,90.4,161.7,61.3,127.9,60.4z"/>
	
		<linearGradient id="SVGID_2_" gradientUnits="userSpaceOnUse" x1="70.5127" y1="168.0542" x2="127.8122" y2="109.8967" gradientTransform="matrix(1 0 0 -1 0 249)">
		<stop  offset="3.543580e-02" style="stop-color:#FF00FF"/>
		<stop  offset="0.5129" style="stop-color:#8800CC"/>
		<stop  offset="1" style="stop-color:#311B92"/>
	</linearGradient>
	<path class="st1" d="M152.1,87.7C147.1,77.4,137,69.2,124.5,66c-2.8-0.8-5.7-1.1-8.9-1.2c-4.8,0-9.4,0.6-14.1,1.8
		C89.6,70.1,81.3,77,76.4,82.4c-6.3,7.2-10.5,14.8-12.9,22.3c0,0.2-0.2,0.3-0.2,0.6c-0.2,0.6-0.8,2.5-0.8,2.9
		c-0.2,0.3-0.2,0.8-0.3,1.1c-0.2,0.6-0.3,1.2-0.5,1.8c0,0.2,0,0.3-0.2,0.5c-4,19.9,2.6,37.7,6.6,44.3c1,1.7,1.8,3,2.6,4.3
		c-9.1-49.3,17-72.8,46.7-73.4c15.5-0.3,31.1,6,38.6,18.6C155.7,98.6,155.3,94.8,152.1,87.7z"/>
</g>
</svg>
