<svg width="69" height="75" viewBox="0 0 69 75" fill="none" xmlns="http://www.w3.org/2000/svg">
<path d="M12.437 46.1875L14.9338 55.838H13.0506L11.3889 48.8888L8.25729 55.821H6.66379L3.54917 48.9101L1.84488 55.821H0L2.47546 46.1704H4.10308L7.47334 53.6437L10.8265 46.1704L12.437 46.1875Z" fill="#003545"/>
<path d="M22.0453 49.9155V48.795H23.8647V55.8209H22.0453V54.6833C21.5639 55.5013 20.5754 55.9615 19.3738 55.9615C16.86 55.9615 15.4583 54.189 15.4583 52.1524C15.4583 50.1882 16.7876 48.6075 19.1054 48.6075C20.4305 48.6458 21.5255 49.0889 22.0453 49.9155ZM17.4096 52.2717C17.3898 52.5917 17.4381 52.9123 17.5513 53.2122C17.6645 53.5122 17.8401 53.7847 18.0664 54.0119C18.2927 54.239 18.5646 54.4155 18.8641 54.5297C19.1637 54.644 19.4841 54.6934 19.8042 54.6748C20.1182 54.6909 20.4321 54.6406 20.7253 54.5272C21.0186 54.4139 21.2847 54.2399 21.5062 54.0168C21.7278 53.7937 21.8998 53.5263 22.011 53.2323C22.1222 52.9382 22.1702 52.6239 22.1518 52.3101C22.1657 51.9894 22.1118 51.6694 21.9937 51.3709C21.8756 51.0725 21.6959 50.8023 21.4664 50.578C21.2368 50.3536 20.9626 50.1802 20.6615 50.069C20.3604 49.9578 20.0392 49.9113 19.719 49.9326C19.4094 49.9176 19.1001 49.9681 18.8113 50.0808C18.5226 50.1935 18.2609 50.3659 18.0433 50.5867C17.8257 50.8074 17.6572 51.0716 17.5488 51.362C17.4403 51.6524 17.3944 51.9624 17.4139 52.2717H17.4096Z" fill="#003545"/>
<path d="M27.9628 55.821H26.1477V48.795H27.9628V50.3715C28.1721 49.8645 28.5263 49.4304 28.9809 49.1235C29.4356 48.8166 29.9707 48.6504 30.5192 48.6459C30.9066 48.6398 31.2919 48.7033 31.6568 48.8334L31.2691 50.1627C30.9547 50.0793 30.6314 50.0335 30.3062 50.0264C29.9902 50.023 29.6769 50.0845 29.3858 50.2072C29.0946 50.3299 28.8319 50.5112 28.6137 50.7397C28.3955 50.9683 28.2267 51.2392 28.1177 51.5357C28.0086 51.8323 27.9617 52.1481 27.9798 52.4635L27.9628 55.821Z" fill="#003545"/>
<path d="M32.5487 46.9373C32.5453 46.8159 32.5658 46.695 32.6092 46.5815C32.6525 46.468 32.7178 46.3642 32.8013 46.276C32.8848 46.1877 32.9848 46.1168 33.0957 46.0672C33.2067 46.0177 33.3263 45.9905 33.4477 45.9872H33.5244C33.6503 45.9832 33.7757 46.0041 33.8936 46.0486C34.0114 46.0932 34.1193 46.1605 34.2111 46.2467C34.3029 46.333 34.3768 46.4365 34.4286 46.5514C34.4804 46.6662 34.509 46.7901 34.5129 46.916V46.9629C34.5157 47.0836 34.4946 47.2036 34.4509 47.3161C34.4072 47.4286 34.3417 47.5313 34.2582 47.6184C34.1746 47.7055 34.0747 47.7753 33.9642 47.8236C33.8536 47.872 33.7345 47.898 33.6139 47.9002H33.5244C33.2764 47.9106 33.0345 47.8223 32.8516 47.6546C32.6687 47.4868 32.5598 47.2534 32.5487 47.0055V46.9373ZM32.6296 48.795H34.4532V53.942C34.4532 54.2573 34.5171 54.4873 34.7856 54.4873C34.9014 54.483 35.0167 54.4702 35.1306 54.449L35.4119 55.7783C35.0291 55.928 34.6213 56.0032 34.2104 55.9999C33.4477 55.9999 32.6339 55.7783 32.6339 54.0442L32.6296 48.795Z" fill="#003545"/>
<path d="M42.5685 49.9156V48.795H44.392V55.821H42.5769V54.6833C42.0955 55.5014 41.107 55.9616 39.9055 55.9616C37.3917 55.9616 35.9856 54.1891 35.9856 52.1525C35.9856 50.1883 37.315 48.6075 39.6371 48.6075C40.9536 48.6459 42.0486 49.089 42.5685 49.9156ZM37.9157 52.2718C37.8959 52.5918 37.9442 52.9123 38.0574 53.2123C38.1706 53.5123 38.3462 53.7848 38.5725 54.0119C38.7988 54.239 39.0706 54.4155 39.3702 54.5298C39.6698 54.6441 39.9902 54.6935 40.3102 54.6748C40.6244 54.6909 40.9385 54.6406 41.232 54.5273C41.5255 54.4139 41.7917 54.2401 42.0136 54.017C42.2355 53.794 42.4079 53.5267 42.5196 53.2326C42.6314 52.9385 42.6799 52.6242 42.6622 52.3101C42.6754 51.9892 42.621 51.6691 42.5024 51.3707C42.3838 51.0722 42.2037 50.8021 41.9738 50.5779C41.7439 50.3536 41.4694 50.1802 41.1681 50.0691C40.8668 49.9579 40.5455 49.9114 40.2251 49.9326C39.9155 49.9176 39.6062 49.9681 39.3174 50.0808C39.0287 50.1935 38.7669 50.3659 38.5494 50.5867C38.3318 50.8075 38.1633 51.0717 38.0548 51.3621C37.9464 51.6524 37.9004 51.9624 37.92 52.2718H37.9157Z" fill="#003545"/>
<path d="M47.1794 46.1875H51.5381C55.1981 46.1875 57.0303 48.2071 57.0004 51.0106C57.0303 53.925 55.0064 55.838 51.8577 55.838H47.1709L47.1794 46.1875ZM48.3809 47.0396V54.9901H51.7043C54.6187 54.9901 55.7265 53.0259 55.7265 50.9808C55.7265 48.6715 54.3375 47.0396 51.7043 47.0396H48.3809Z" fill="#003545"/>
<path d="M64.4313 55.821H58.8923V46.1875H63.8902C65.799 46.1875 67.6183 46.5497 67.5885 48.6885C67.5885 50.1968 66.6554 50.6144 65.6669 50.772C65.979 50.7757 66.2871 50.8435 66.5719 50.9712C66.8568 51.0988 67.1125 51.2836 67.323 51.5141C67.5335 51.7446 67.6944 52.0159 67.7958 52.3111C67.8972 52.6064 67.9368 52.9193 67.9123 53.2304C67.9208 55.3949 66.0205 55.821 64.4313 55.821ZM64.0052 50.38C65.9183 50.38 66.3443 49.6472 66.3443 48.7098C66.3443 47.3081 65.4922 47.0055 64.0052 47.0055H60.0342V50.4141L64.0052 50.38ZM64.0563 51.1981H60.0342V55.0029H64.231C65.407 55.0029 66.6511 54.6152 66.6511 53.1325C66.6511 51.4282 65.2195 51.1981 64.0563 51.1981Z" fill="#003545"/>
<path d="M68.3381 0.209912C68.1612 0.0642461 67.9364 -0.0102079 67.7075 0.00112756C67.0442 0.086103 66.4057 0.3081 65.8328 0.653019L65.6623 0.742504C64.9295 1.0963 64.132 1.29638 63.3189 1.33047C62.4668 1.35604 61.7681 1.40717 60.835 1.50517C55.296 2.07184 52.8248 6.31554 50.4473 10.4229C49.1691 12.6555 47.8142 14.9734 45.9778 16.7458C45.5989 17.1143 45.1961 17.4573 44.772 17.7727C42.8717 19.183 40.5112 20.1927 38.6365 20.9043C36.8513 21.586 34.8999 22.1825 33.0166 22.7961C31.291 23.3372 29.6634 23.8527 28.1679 24.4066C27.4905 24.658 26.9153 24.8327 26.4082 25.0202C25.0566 25.3948 23.7776 25.9939 22.6247 26.7926C22.0623 27.1718 21.4999 27.5894 21.1207 27.8962C19.9874 28.8095 18.984 29.8731 18.1382 31.0576C17.407 32.1527 16.5631 33.168 15.6201 34.087C15.3133 34.381 14.768 34.5131 13.9712 34.5131C12.8616 34.4654 11.7574 34.33 10.6691 34.1083C9.46733 33.8653 8.24737 33.7228 7.02192 33.6822C6.29519 33.6385 5.56967 33.7854 4.91715 34.1083C4.4266 34.3995 4.00619 34.7952 3.68579 35.2672L4.04794 35.4291C4.6032 35.7313 5.11727 36.1036 5.57753 36.5369C6.05949 36.9814 6.59646 37.3624 7.1753 37.6703C7.35843 37.7389 7.5253 37.8448 7.6653 37.9813C7.51617 38.2029 7.2946 38.4883 7.06026 38.7951C5.78204 40.4696 5.03641 41.5262 5.46248 42.1014C5.66739 42.2078 5.89645 42.2592 6.12718 42.2506C8.9137 42.2506 10.4135 41.5262 12.3052 40.6102C12.8549 40.346 13.413 40.0733 14.0777 39.7921C15.3163 39.1963 16.5084 38.5084 17.6439 37.7342C19.2971 36.652 21.027 35.5442 22.7057 35.0116C24.0859 34.5905 25.5237 34.3892 26.9664 34.4151C28.7868 34.4559 30.6026 34.6125 32.4031 34.8837C33.7452 35.0542 35.1342 35.2331 36.4934 35.3098C37.026 35.3396 37.5117 35.3567 37.9889 35.3567C38.6266 35.3567 39.2637 35.3226 39.8977 35.2544L40.0511 35.2033C41.0055 34.6153 41.4529 33.3541 41.8875 32.1356C42.0757 31.4469 42.3751 30.7935 42.7737 30.2012C42.7944 30.1791 42.8172 30.1591 42.8419 30.1415C42.8576 30.1291 42.8771 30.1224 42.8972 30.1224C42.9173 30.1224 42.9369 30.1291 42.9526 30.1415V30.1756C42.7311 34.9434 40.8223 37.9685 38.8709 40.657L37.5927 42.046C38.5553 42.0491 39.5136 41.9157 40.4388 41.6498C44.2053 40.5207 47.0472 38.041 49.1179 34.087C49.6255 33.0699 50.0805 32.0275 50.4814 30.9639C50.5197 30.8744 50.8435 30.7125 50.8137 31.1684C50.8137 31.3047 50.8137 31.4539 50.7839 31.5945C50.7945 31.6893 50.7945 31.7851 50.7839 31.8799C50.7327 32.5446 50.5751 33.9464 50.5751 33.9464L51.7383 33.3243C54.5418 31.5519 56.7063 27.9771 58.3424 22.4169C59.0241 20.099 59.5269 17.7982 59.9657 15.7701C60.4941 13.333 60.95 11.2452 61.4698 10.4357C62.2879 9.15745 63.532 8.3053 64.742 7.45316C64.9039 7.34238 65.0701 7.23159 65.232 7.11229C66.7488 6.04711 68.2571 4.82003 68.5895 2.52775V2.56183C68.7727 0.857539 68.5682 0.43147 68.3381 0.209912Z" fill="#003545"/>
<g clip-path="url(#clip0_618_38)">
<path d="M15.1554 72.3433C14.002 72.3433 12.9762 71.9675 12 71.2655L12.4514 70.3768C13.3662 70.9771 14.2667 71.3411 15.094 71.3411C16.1339 71.3411 17.6112 70.9039 17.6112 69.6511C17.6112 68.6608 16.609 68.3984 15.7061 68.2353C15.4296 68.1975 15.1672 68.1597 14.9427 68.0983C13.5269 67.8595 12 67.297 12 65.6803C12 63.6878 13.9665 63.1252 15.3445 63.1252C16.4979 63.1252 17.6372 63.5389 18.5141 64.2905L17.9752 65.1178C17.1739 64.4654 16.271 64.1156 15.3445 64.1156C13.9547 64.1156 13.066 64.7419 13.066 65.6567C13.066 66.4201 14.0185 66.7085 14.6827 66.9094C14.9829 66.9968 15.3587 67.0606 15.6849 67.1221C16.0985 67.1977 16.5121 67.2852 16.8383 67.3845C17.7648 67.6846 18.6795 68.2613 18.6795 69.6511C18.6795 71.8186 16.4247 72.3433 15.1601 72.3433H15.1554Z" fill="#003545"/>
<path d="M22.1469 68.8996L21.5962 69.4385C21.3953 69.6252 21.1944 69.8143 21.0077 70.0152L21.0195 70.0034V72.2464H20.0173L20.0292 63.0024H21.0195L21.0455 68.7152L23.9882 65.7843H25.1274L25.1771 65.86L22.9104 68.1527C23.3122 68.805 23.6998 69.481 24.0993 70.1192C24.5011 70.7834 24.9124 71.4853 25.3023 72.1472L25.2385 72.2464H24.2245L22.1446 68.9019L22.1469 68.8996Z" fill="#003545"/>
<path d="M27.2711 74.7495H26.6708V73.823H27.1341C27.5359 73.823 28.0866 73.6599 28.3608 73.121L28.798 71.8943C27.8597 69.9017 27.0064 67.9116 25.9924 65.782H27.1317L29.3109 70.5541C29.6253 69.8025 29.9373 69.0012 31.216 65.782H32.3316L29.2258 73.622C28.8618 74.5108 28.1244 74.7495 27.2711 74.7495V74.7495Z" fill="#003545"/>
<path d="M35.9999 72.3433C34.8465 72.3433 33.8206 71.9675 32.8445 71.2655L33.2959 70.3768C34.2106 70.9771 35.1112 71.3411 35.9384 71.3411C36.9784 71.3411 38.4557 70.9039 38.4557 69.6511C38.4557 68.6608 37.4535 68.3984 36.5506 68.2353C36.2741 68.1975 36.0117 68.1597 35.7872 68.0983C34.3714 67.8595 32.8445 67.297 32.8445 65.6803C32.8445 63.6878 34.811 63.1252 36.189 63.1252C37.3424 63.1252 38.4817 63.5389 39.3586 64.2905L38.8197 65.1178C38.0184 64.4654 37.1155 64.1156 36.189 64.1156C34.7992 64.1156 33.9105 64.7419 33.9105 65.6567C33.9105 66.4201 34.863 66.7085 35.5272 66.9094C35.8273 66.9968 36.2032 67.0606 36.5293 67.1221C36.943 67.1977 37.3566 67.2852 37.6828 67.3845C38.6093 67.6846 39.524 68.2613 39.524 69.6511C39.524 71.8186 37.2691 72.3433 36.0046 72.3433H35.9999Z" fill="#003545"/>
<path d="M46.147 72.2937C46.7615 73.1328 47.8511 73.8962 49.0022 74.0735L48.6524 75C47.0617 74.688 45.5206 73.596 44.795 72.3811C42.6039 72.2299 40.7107 70.3768 40.7107 67.7839C40.7107 65.1911 42.8403 63.1135 45.1826 63.1135C47.525 63.1135 49.6664 65.08 49.6664 67.7863C49.6664 70.1546 48.0757 71.8706 46.147 72.2961V72.2937ZM45.1826 64.1653C43.2539 64.1653 41.8145 65.7678 41.8145 67.7863C41.8145 69.8048 43.2539 71.3695 45.1826 71.3695C47.1113 71.3695 48.5649 69.7906 48.5649 67.7863C48.5649 65.782 47.1255 64.1653 45.1826 64.1653V64.1653Z" fill="#003545"/>
<path d="M51.0586 63.2883H52.1742V71.2158H57.0716V72.244H51.0586V63.2883Z" fill="#003545"/>
</g>
<defs>
<clipPath id="clip0_618_38">
<rect width="45.0715" height="12" fill="white" transform="translate(12 63)"/>
</clipPath>
</defs>
</svg>
