<svg width="40" height="40" viewBox="0 0 40 40" fill="none" xmlns="http://www.w3.org/2000/svg">
<path d="M10.8639 24.2597C10.8639 26.1038 9.35741 27.6103 7.51325 27.6103C5.66909 27.6103 4.1626 26.1038 4.1626 24.2597C4.1626 22.4155 5.66909 20.909 7.51325 20.909H10.8639V24.2597Z" fill="black"/>
<path d="M12.5522 24.2596C12.5522 22.4155 14.0587 20.909 15.9029 20.909C17.7471 20.909 19.2536 22.4155 19.2536 24.2596V32.6493C19.2536 34.4934 17.7471 35.9999 15.9029 35.9999C14.0587 35.9999 12.5522 34.4934 12.5522 32.6493V24.2596Z" fill="black"/>
<path d="M15.9029 10.7013C14.0587 10.7013 12.5522 9.19481 12.5522 7.35066C12.5522 5.5065 14.0587 4 15.9029 4C17.7471 4 19.2536 5.5065 19.2536 7.35066V10.7013H15.9029Z" fill="black"/>
<path d="M15.9029 12.3896C17.747 12.3896 19.2535 13.8961 19.2535 15.7402C19.2535 17.5844 17.747 19.0909 15.9029 19.0909H7.51325C5.66909 19.0909 4.1626 17.5844 4.1626 15.7402C4.1626 13.8961 5.66909 12.3896 7.51325 12.3896H15.9029Z" fill="black"/>
<path d="M29.3574 15.7402C29.3574 13.8961 30.8639 12.3896 32.7081 12.3896C34.5522 12.3896 36.0587 13.8961 36.0587 15.7402C36.0587 17.5844 34.5522 19.0909 32.7081 19.0909H29.3574V15.7402Z" fill="black"/>
<path d="M27.6691 15.7403C27.6691 17.5844 26.1626 19.0909 24.3184 19.0909C22.4743 19.0909 20.9678 17.5844 20.9678 15.7403V7.35066C20.9678 5.5065 22.4743 4 24.3184 4C26.1626 4 27.6691 5.5065 27.6691 7.35066V15.7403Z" fill="black"/>
<path d="M24.3184 29.2986C26.1626 29.2986 27.6691 30.805 27.6691 32.6492C27.6691 34.4934 26.1626 35.9999 24.3184 35.9999C22.4743 35.9999 20.9678 34.4934 20.9678 32.6492V29.2986H24.3184Z" fill="black"/>
<path d="M24.3184 27.6103C22.4743 27.6103 20.9678 26.1038 20.9678 24.2597C20.9678 22.4155 22.4743 20.909 24.3184 20.909H32.7081C34.5522 20.909 36.0587 22.4155 36.0587 24.2597C36.0587 26.1038 34.5522 27.6103 32.7081 27.6103H24.3184Z" fill="black"/>
</svg>
