<?xml version="1.0" encoding="utf-8"?>
<!-- Generator: Adobe Illustrator 25.0.1, SVG Export Plug-In . SVG Version: 6.00 Build 0)  -->
<svg version="1.1" id="Layer_1" xmlns="http://www.w3.org/2000/svg" xmlns:xlink="http://www.w3.org/1999/xlink" x="0px" y="0px"
	 viewBox="0 0 250 250" style="enable-background:new 0 0 250 250;" xml:space="preserve">
<style type="text/css">
	.st0{fill:#29B5E8;}
</style>
<symbol  id="A" viewBox="-30.8 -32 61.6 64">
	<path class="st0" d="M-22.1-16.7l13,7.8C-7.6-8-5.7-8.3-4.5-9.5c0.8-0.8,1.2-1.8,1.2-2.9V-28c0.1-1.4-0.7-2.7-1.9-3.4
		c-1.2-0.7-2.7-0.7-3.9,0c-1.2,0.7-1.9,2-1.9,3.4v8.9l-7.4-4.4c-0.9-0.5-1.9-0.7-2.9-0.4c-1,0.3-1.8,0.9-2.3,1.8
		C-24.6-20.2-24-17.9-22.1-16.7 M9.1-8.9l13-7.8c1.8-1.1,2.5-3.5,1.4-5.4c-1-1.8-3.3-2.5-5.1-1.5c0,0-0.1,0.1-0.1,0.1L11-19.2v-8.8
		c0.1-1.4-0.7-2.7-1.9-3.4c-1.2-0.7-2.7-0.7-3.9,0c-1.2,0.7-1.9,2-1.9,3.4v15.3c-0.1,0.8,0.1,1.6,0.5,2.4c0.5,0.9,1.3,1.6,2.3,1.8
		C7.2-8.2,8.2-8.4,9.1-8.9 M-2.4,0c0-0.2,0.1-0.5,0.3-0.7l1.5-1.6C-0.5-2.5-0.2-2.6,0-2.6h0.1c0.2,0,0.5,0.1,0.7,0.3l1.5,1.6
		C2.4-0.5,2.5-0.3,2.5,0V0c0,0.3-0.1,0.5-0.3,0.7L0.7,2.3C0.5,2.5,0.3,2.6,0.1,2.6H0c-0.2,0-0.5-0.1-0.7-0.3l-1.5-1.6
		C-2.3,0.5-2.4,0.3-2.4,0L-2.4,0z M-7-0.7v1.4C-7,1-6.9,1.4-6.7,1.6L-1.5,7C-1.3,7.2-1,7.3-0.6,7.4h1.3C1,7.3,1.3,7.2,1.6,7l5.2-5.4
		C7,1.4,7.1,1,7.1,0.7v-1.4C7.1-1,7-1.4,6.7-1.6L1.6-7C1.3-7.2,1-7.3,0.7-7.4h-1.3C-1-7.3-1.3-7.2-1.5-7l-5.2,5.4
		C-6.9-1.3-7-1-7-0.7 M-28.9-4.4l7.4,4.4l-7.4,4.4c-1.8,1.1-2.5,3.5-1.4,5.4c0.5,0.9,1.3,1.6,2.3,1.8c1,0.3,2,0.1,2.9-0.4l13-7.8
		c1.2-0.8,1.9-2.1,1.9-3.5c0-1.4-0.7-2.7-1.9-3.5l-13-7.8c-0.9-0.5-1.9-0.7-2.9-0.4c-1,0.3-1.8,0.9-2.3,1.8
		C-31.3-7.9-30.7-5.5-28.9-4.4 M10.1,0c0,1.4,0.7,2.7,1.9,3.5l13,7.8c0.9,0.5,1.9,0.7,2.9,0.4s1.8-0.9,2.3-1.8
		c1.1-1.9,0.4-4.3-1.4-5.4L21.5,0l7.4-4.4c1.8-1.1,2.5-3.5,1.4-5.4c-0.5-0.9-1.3-1.6-2.3-1.8c-1-0.3-2-0.1-2.9,0.4L12-3.4
		C10.8-2.7,10.1-1.4,10.1,0 M-6.5,8.5c-0.9-0.2-1.8,0-2.6,0.5l-13,7.8c-1.8,1.1-2.5,3.5-1.4,5.4c0.5,0.9,1.3,1.6,2.3,1.8
		c1,0.3,2,0.1,2.9-0.4l7.4-4.4V28c-0.1,2.1,1.6,3.9,3.7,4c0.7,0,1.5-0.2,2.1-0.5c1.2-0.7,1.9-2,1.9-3.4V12.4
		C-3.3,10.5-4.6,8.8-6.5,8.5 M22.1,16.8L9.1,9C8.3,8.4,7.2,8.3,6.2,8.6c-1,0.3-1.8,0.9-2.3,1.8c-0.4,0.7-0.6,1.5-0.5,2.4V28
		c-0.1,2.1,1.6,3.9,3.7,4c0.7,0,1.5-0.2,2.1-0.5c1.2-0.7,1.9-2,1.9-3.4v-8.8l7.3,4.4c0.9,0.5,1.9,0.7,2.9,0.4c1-0.3,1.8-0.9,2.3-1.8
		C24.6,20.3,24,17.9,22.1,16.8"/>
</symbol>
<use xlink:href="#A"  width="61.6" height="64" x="-30.8" y="-32" transform="matrix(2.092 0 0 2.092 125 125)" style="overflow:visible;"/>
</svg>
