<svg width="108" height="121" viewBox="0 0 108 121" fill="none" xmlns="http://www.w3.org/2000/svg">
<path d="M89.5764 24.4589L41.1353 76.8706L101.965 48.9177C100.218 39.5471 95.7705 31.1295 89.5764 24.4589Z" fill="#D93321"/>
<path d="M52.8883 8.89417C46.2177 8.89417 39.8648 10.1648 33.9883 12.7059L27.4766 67.3412L59.8766 9.37064C57.653 9.05299 55.2707 8.89417 52.8883 8.89417Z" fill="#D93321"/>
<path d="M102.759 51.7765L45.106 84.0177L99.2648 77.6647C101.806 71.6294 103.235 65.1177 103.235 58.2883C103.235 56.0647 103.077 53.8412 102.759 51.7765Z" fill="#D93321"/>
<path d="M80.6825 98.9471C87.1943 94.6589 92.4355 88.7824 96.2472 81.953L45.5825 91.9589L80.6825 98.9471Z" fill="#D93321"/>
<path d="M63.2115 9.84705L34.9409 70.9941L87.3527 22.5529C80.8409 16.3588 72.5821 11.9118 63.2115 9.84705Z" fill="#D93321"/>
<path d="M57.3351 107.047C62.7351 106.571 67.9762 105.3 72.7409 103.235L44.3115 99.9001L57.3351 107.047Z" fill="#D93321"/>
<path d="M8.89407 37.9589C6.67054 42.8824 5.24112 48.1236 4.76465 53.8412L12.3882 67.5L8.89407 37.9589Z" fill="#D93321"/>
<path d="M30.9704 14.6117C23.9822 18.2646 18.1058 23.6646 13.6587 30.1764L20.8057 66.0705L30.9704 14.6117Z" fill="#D93321"/>
</svg>
