<svg width="289" height="128" viewBox="0 0 289 128" fill="none" xmlns="http://www.w3.org/2000/svg">
<path fill-rule="evenodd" clip-rule="evenodd" d="M0 81.6H83.3L164.8 0.100006H0V81.6Z" fill="url(#paint0_linear_37_269)"/>
<path fill-rule="evenodd" clip-rule="evenodd" d="M97.8002 16.3H81.5002L81.6002 54.6L67.4002 16.3H53.3002L41.2002 48.3C39.9002 40.2 31.5002 37.4 24.9002 35.3C20.5002 33.9 15.9002 31.8 15.9002 29.5C15.9002 27.6 18.4002 25.9 23.2002 26.1C26.5002 26.3 29.3002 26.5 35.1002 29.3L40.7002 19.5C35.5002 16.8 28.3002 15.2 22.3002 15.2C15.4002 15.2 9.60023 17.4 6.10023 21.1C3.60023 23.7 2.30023 26.9 2.20023 30.6C2.10023 35.6 3.90023 39.1 7.80023 41.9C11.0002 44.3 15.2002 45.8 18.8002 46.9C23.3002 48.3 27.0002 49.5 26.9002 52.1C26.9002 53 26.5002 53.9 25.8002 54.6C24.7002 55.8 23.0002 56.2 20.6002 56.2C16.0002 56.3 12.6002 55.6 7.20023 52.4L2.20023 62.3C7.60023 65.4 13.4002 66.9 19.9002 66.9H21.4002C27.1002 66.8 31.7002 65.4 35.4002 62.5C35.6002 62.3 35.8002 62.2 36.0002 62L35.4002 65.2H49.1002L51.6002 58.9C54.2002 59.8 57.1002 60.3 60.3002 60.3C63.3002 60.3 66.2002 59.8 68.8002 59L70.5002 65.2H95.1002L95.2002 50.8H100.4C113.1 50.8 120.6 44.4 120.6 33.5C120.5 21.6 113.3 16.3 97.8002 16.3ZM60.3002 49.1C58.4002 49.1 56.6002 48.8 55.1002 48.2L60.2002 32H60.3002L65.4002 48.3C63.8002 48.7 62.1002 49.1 60.3002 49.1ZM98.7002 39.7H95.1002V26.6H98.7002C103.5 26.6 107.3 28.2 107.3 33.1C107.3 38.2 103.5 39.7 98.7002 39.7Z" fill="white"/>
<path d="M5.5999 114.5C3.4999 113.7 1.6999 112.4 0.399902 110.8L5.1999 106C6.1999 107.1 7.3999 108 8.5999 108.6C9.7999 109.2 11.2999 109.5 13.0999 109.5C14.2999 109.5 15.2999 109.4 15.7999 109.1C16.3999 108.8 16.6999 108.3 16.6999 107.6C16.6999 107.1 16.4999 106.6 16.0999 106.3C15.6999 106 15.0999 105.7 14.2999 105.4C13.4999 105.2 12.3999 104.9 10.9999 104.6C9.1999 104.2 7.6999 103.7 6.3999 103.1C5.0999 102.5 3.9999 101.6 3.1999 100.5C2.3999 99.4 1.8999 97.9 1.8999 96.1C1.8999 94.3 2.3999 92.7 3.2999 91.4C4.1999 90.1 5.4999 89.2 7.1999 88.6C8.8999 88 10.8999 87.7 13.0999 87.7C15.3999 87.7 17.3999 88 19.2999 88.7C21.1999 89.4 22.6999 90.4 23.9999 91.7L19.5999 96.4C18.5999 95.5 17.4999 94.8 16.4999 94.3C15.3999 93.8 14.2999 93.6 12.9999 93.6C10.8999 93.6 9.8999 94.2 9.8999 95.5C9.8999 96 10.0999 96.4 10.3999 96.6C10.7999 96.9 11.1999 97.1 11.8999 97.3C12.4999 97.5 13.4999 97.7 14.6999 98C16.7999 98.4 18.4999 98.9 19.8999 99.5C21.2999 100.1 22.3999 100.9 23.2999 102.1C24.1999 103.3 24.5999 104.9 24.5999 106.9C24.5999 108.7 24.1999 110.3 23.2999 111.6C22.3999 112.9 21.1999 114 19.4999 114.7C17.7999 115.4 15.6999 115.8 13.1999 115.8C10.1999 115.8 7.6999 115.4 5.5999 114.5Z" fill="#545454"/>
<path d="M54.0999 107.2C53.4999 108.9 52.5999 110.3 51.3999 111.6L54.1999 115L48.5999 119.2L45.5999 115.1C44.9999 115.3 44.2999 115.5 43.4999 115.6C42.5999 115.7 41.6999 115.8 40.6999 115.8C37.6999 115.8 35.0999 115.2 32.9999 114C30.8999 112.8 29.1999 111.1 28.0999 109C26.9999 106.9 26.3999 104.4 26.3999 101.6C26.3999 98.8 26.9999 96.3 28.0999 94.2C29.1999 92.1 30.8999 90.5 32.9999 89.4C35.0999 88.3 37.6999 87.7 40.5999 87.7C43.4999 87.7 46.0999 88.3 48.2999 89.4C50.4999 90.5 52.0999 92.2 53.2999 94.3C54.3999 96.4 54.9999 98.9 54.9999 101.7C55.0999 103.6 54.6999 105.5 54.0999 107.2ZM41.0999 109L39.4999 106.8L44.3999 103L46.3999 105.5C46.7999 104.5 46.9999 103.2 46.9999 101.7C46.9999 100.3 46.6999 99 46.1999 97.9C45.6999 96.8 44.8999 96 43.9999 95.4C43.0999 94.8 41.8999 94.5 40.6999 94.5C39.3999 94.5 38.2999 94.8 37.2999 95.4C36.2999 96 35.5999 96.8 35.0999 97.9C34.5999 99 34.2999 100.3 34.2999 101.8C34.2999 103.3 34.5999 104.6 35.0999 105.7C35.5999 106.8 36.3999 107.6 37.2999 108.2C38.1999 108.8 39.1999 109.1 40.2999 109.1C40.6999 109 40.9999 109 41.0999 109Z" fill="#545454"/>
<path d="M58.2998 88.1H66.1998V108.8H77.6998V115.4H58.2998V88.1Z" fill="#545454"/>
<path d="M104.4 110.2H94.9999L93.3999 115.4H85.3999L94.8999 88.1H104.7L114.2 115.4H106L104.4 110.2ZM102.6 104.2L100.6 97.5C100.1 96.1 99.7999 95 99.6999 94.2C99.5999 94.9 99.2999 95.9 98.7999 97.5L96.7999 104.2H102.6Z" fill="#545454"/>
<path d="M117.2 98.6C117.2 97.7 117.2 96.8 117.1 95.9C117.1 95 117 94.3 116.9 93.7H124.2C124.3 94.1 124.4 94.7 124.4 95.5C124.5 96.3 124.5 96.9 124.5 97.2H124.6C125.3 95.8 126.3 94.8 127.4 94.2C128.5 93.6 129.9 93.3 131.5 93.3C134 93.3 135.7 94 136.9 95.5C138.1 97 138.6 98.9 138.6 101.4V115.3H131.1V103.5C131.1 102.2 130.9 101.3 130.4 100.6C129.9 99.9 129.2 99.6 128.2 99.6C127.1 99.6 126.2 100 125.6 100.7C125 101.5 124.7 102.5 124.7 104V115.3H117.2V98.6Z" fill="#545454"/>
<path d="M142.7 123.5L143.7 117.6C143.9 117.7 144.3 117.8 144.7 117.9C145.1 118 145.5 118 145.9 118C146.5 118 146.9 117.9 147.3 117.6C147.7 117.4 147.9 116.9 148.1 116.3L148.3 115.4L140.5 93.8H148.6L151.5 103.8C151.9 105.3 152.2 106.6 152.4 107.8C152.6 106.5 152.9 105.2 153.3 103.8L156 93.8H163.7L156.5 115.9C155.9 117.7 155.2 119.1 154.5 120.3C153.8 121.5 152.7 122.4 151.6 123.1C150.4 123.8 149 124.1 147.2 124.1C145.3 124 143.8 123.8 142.7 123.5Z" fill="#545454"/>
<path d="M164.3 93.8H171.9L173.6 103.1C173.9 104.5 174.1 106.3 174.4 108.4C174.6 106.7 174.8 105 175.2 103.1L177.1 93.7H185.5L187.3 103.1C187.6 104.7 187.9 106.5 188.1 108.4C188.3 107 188.6 105.2 189 103.1L190.9 93.7H197.8L192.7 115.3H183.8L181.9 105.5C181.6 104.2 181.4 102.8 181.1 101.3C181 102.3 180.7 103.7 180.4 105.5L178.4 115.3H169.5L164.3 93.8Z" fill="#545454"/>
<path d="M200.7 86.3H208.2V93.9C208.2 95.2 208.2 96.2 208.1 97H208.2C208.9 95.8 209.8 94.9 210.9 94.2C212 93.6 213.4 93.3 215 93.3C217.5 93.3 219.3 94 220.4 95.5C221.5 96.9 222.1 98.9 222.1 101.5V115.4H214.6V103.6C214.6 102.3 214.4 101.4 213.9 100.7C213.4 100 212.7 99.7 211.7 99.7C210.6 99.7 209.7 100.1 209.1 100.8C208.5 101.6 208.2 102.6 208.2 104.1V115.4H200.7V86.3Z" fill="#545454"/>
<path d="M228.5 113.1C226.5 111.3 225.5 108.5 225.5 104.8C225.5 102.2 226 100.1 226.9 98.4C227.8 96.7 229.2 95.4 230.8 94.6C232.5 93.8 234.4 93.4 236.5 93.4C240 93.4 242.5 94.4 244.1 96.3C245.7 98.3 246.5 100.9 246.5 104.1C246.5 104.8 246.5 105.6 246.4 106.5H233.5C233.6 107.8 233.9 108.7 234.6 109.4C235.3 110 236.3 110.4 237.7 110.4C238.6 110.4 239.4 110.3 240.1 110C240.8 109.7 241.8 109.2 243 108.4L245.8 113.2C244.5 114 243.2 114.7 241.9 115.1C240.6 115.6 238.9 115.8 237 115.8C233.4 115.8 230.6 114.9 228.5 113.1ZM239.3 101.9C239.2 99.7 238.3 98.6 236.5 98.6C235.6 98.6 234.9 98.9 234.4 99.4C233.9 99.9 233.6 100.8 233.5 101.9H239.3Z" fill="#545454"/>
<path d="M250 98.7C250 97.8 250 96.9 249.9 96C249.9 95.1 249.8 94.3 249.7 93.8H256.8C256.9 94.2 257 94.7 257 95.4C257 96.1 257.1 96.6 257.1 97H257.2C257.8 95.8 258.5 94.9 259.3 94.3C260.1 93.7 261.2 93.4 262.5 93.4C263.2 93.4 263.9 93.5 264.5 93.8L264.2 100.7C263.8 100.6 263.4 100.5 263.1 100.4C262.7 100.3 262.3 100.3 261.9 100.3C260.5 100.3 259.5 100.7 258.7 101.5C257.9 102.3 257.5 103.6 257.5 105.4V115.4H250V98.7Z" fill="#545454"/>
<path d="M268.4 113.1C266.4 111.3 265.4 108.5 265.4 104.8C265.4 102.2 265.9 100.1 266.8 98.4C267.7 96.7 269.1 95.4 270.7 94.6C272.4 93.8 274.3 93.4 276.4 93.4C279.9 93.4 282.4 94.4 284 96.3C285.6 98.3 286.4 100.9 286.4 104.1C286.4 104.8 286.4 105.6 286.3 106.5H273.4C273.5 107.8 273.8 108.7 274.5 109.4C275.2 110 276.2 110.4 277.6 110.4C278.5 110.4 279.3 110.3 280 110C280.7 109.7 281.7 109.2 282.9 108.4L285.7 113.2C284.4 114 283.1 114.7 281.8 115.1C280.5 115.6 278.8 115.8 276.9 115.8C273.2 115.8 270.4 114.9 268.4 113.1ZM279.1 101.9C279 99.7 278.1 98.6 276.3 98.6C275.4 98.6 274.7 98.9 274.2 99.4C273.7 99.9 273.4 100.8 273.3 101.9H279.1Z" fill="#545454"/>
<defs>
<linearGradient id="paint0_linear_37_269" x1="82.4" y1="0.100006" x2="82.4" y2="81.6" gradientUnits="userSpaceOnUse">
<stop stop-color="#00AEEF"/>
<stop offset="0.212" stop-color="#0097DC"/>
<stop offset="0.519" stop-color="#007CC5"/>
<stop offset="0.792" stop-color="#006CB8"/>
<stop offset="1" stop-color="#0066B3"/>
</linearGradient>
</defs>
</svg>
