<?xml version="1.0" encoding="utf-8"?>
<!-- Generator: Adobe Illustrator 25.0.1, SVG Export Plug-In . SVG Version: 6.00 Build 0)  -->
<svg version="1.1" id="Layer_1" xmlns="http://www.w3.org/2000/svg" xmlns:xlink="http://www.w3.org/1999/xlink" x="0px" y="0px"
	 viewBox="0 0 250 250" style="enable-background:new 0 0 250 250;" xml:space="preserve">
<style type="text/css">
	.st0{fill:#0F80CC;}
	.st1{fill:url(#path3035_1_);}
	.st2{fill:#003B57;}
</style>
<g id="g2993" transform="matrix(1.25,0,0,-1.25,-41.57475,299.78375)">
	<g id="g2998" transform="matrix(1.5512433,0,0,1.5512433,-16.326028,-27.718348)">
		<path id="path3005" class="st0" d="M99.2,89c0,0.4,0,0.7,0,0.7s-1.2,8.1-2.6,10.5c-0.2,0.4,0,1.9,0.7,4.3c0.4-0.6,1.9-3.3,2.2-4.2
			c0.4-1,0.4-1.3,0.4-1.3s-0.8,4.4-2.2,6.9c0.3,1,0.7,2.2,1.1,3.4c0.5-0.9,1.8-3.2,2.1-3.9c0.1-0.2,0.1-0.3,0.1-0.4
			c0,0.1,0,0.1,0,0.2c-0.3,1.4-0.9,3.7-1.8,5.5c1.9,9.9,8.4,23.2,15.1,29.1H70.8c-2.9,0-5.3-2.4-5.3-5.3V86.3c0-2.9,2.4-5.3,5.3-5.3
			h28.6C99.2,83.6,99.1,86.3,99.2,89"/>
		
			<linearGradient id="path3035_1_" gradientUnits="userSpaceOnUse" x1="-704.6138" y1="-1725.7478" x2="-699.7708" y2="-1725.7478" gradientTransform="matrix(-7.794998e-07 -17.8181 -17.8181 7.794998e-07 -30659.7266 -12417.8555)">
			<stop  offset="0" style="stop-color:#97D9F6"/>
			<stop  offset="0.9202" style="stop-color:#0F80CC"/>
			<stop  offset="1" style="stop-color:#0F80CC"/>
		</linearGradient>
		<path id="path3035" class="st1" d="M97.2,104.4c0.4-0.6,1.9-3.3,2.2-4.2c0.4-1,0.4-1.3,0.4-1.3s-0.8,4.4-2.2,6.9
			c0.3,1,0.7,2.2,1.1,3.4c0.5-0.8,1.6-2.8,2-3.7c0,0.2,0,0.3,0,0.5c-0.4,1.4-0.9,3.1-1.6,4.5c1.8,9.1,7.4,21.1,13.5,27.5H70.8
			c-2.1,0-3.8-1.7-3.8-3.8V89.8c9.5,3.6,20.9,7,30.8,6.8c-0.4,1.4-0.8,2.7-1.2,3.4C96.3,100.5,96.6,102,97.2,104.4"/>
		<path id="path3045" class="st2" d="M124.3,141.1c-3,2.7-6.6,1.6-10.1-1.6c-0.5-0.5-1.1-1-1.6-1.5c-6.1-6.5-11.7-18.4-13.5-27.5
			c0.7-1.4,1.2-3.2,1.6-4.5c0.1-0.3,0.2-0.7,0.2-0.9c0.2-0.7,0.2-1.1,0.2-1.1s-0.1,0.2-0.3,0.9c0,0.1-0.1,0.3-0.1,0.4
			c0,0.1-0.1,0.1-0.1,0.2c-0.4,0.9-1.5,2.9-2,3.7c-0.4-1.2-0.8-2.4-1.1-3.4c1.4-2.6,2.2-6.9,2.2-6.9s-0.1,0.3-0.4,1.3
			c-0.3,0.9-1.9,3.6-2.2,4.2c-0.6-2.3-0.9-3.9-0.7-4.3c0.4-0.7,0.9-2,1.2-3.4c0.8-3.2,1.4-7,1.4-7s0-0.3,0-0.7
			c-0.1-2.7,0-5.4,0.2-7.9c0.3-3.3,0.8-6.1,1.4-7.7l0.4,0.2c-1,3-1.4,6.9-1.2,11.4c0.3,6.9,1.9,15.3,4.8,24
			c5,13.1,11.9,23.7,18.2,28.7c-5.8-5.2-13.5-22-15.9-28.2c-2.6-7-4.5-13.5-5.6-19.8c1.9,5.9,8.1,8.4,8.1,8.4s3,3.8,6.6,9.1
			c-2.1-0.5-5.6-1.3-6.8-1.8c-1.7-0.7-2.2-1-2.2-1s5.6,3.4,10.4,5C124.4,119.8,131.6,134.6,124.3,141.1"/>
	</g>
</g>
</svg>
