<svg width="250" height="250" viewBox="0 0 250 250" fill="none" xmlns="http://www.w3.org/2000/svg">
<path d="M140.812 120.998L114.537 129.641L91.6785 139.804L85.2835 141.505C83.6548 143.065 81.947 144.646 80.1 146.246C78.0743 148.007 76.1877 149.608 74.7377 150.768C73.1291 152.048 70.7459 154.449 69.5345 155.969C67.7272 158.25 66.2973 160.671 65.6816 162.532C64.5892 165.893 65.1257 169.294 67.2308 172.435C69.9317 176.436 75.3139 180.517 81.5894 183.298C84.7871 184.719 90.1691 186.54 94.2203 187.56C100.953 189.281 113.981 191.141 121.15 191.421C122.6 191.481 124.546 191.481 124.625 191.421C124.785 191.321 125.897 189.181 127.188 186.52C131.597 177.457 134.774 168.954 136.502 161.691C137.535 157.29 138.349 151.428 138.885 144.486C139.024 142.545 139.083 136.043 138.964 133.842C138.785 130.241 138.468 127.32 137.972 124.459C137.892 124.039 137.872 123.659 137.912 123.639C137.991 123.579 138.229 123.499 141.467 122.558L140.812 120.998V120.998H140.812V120.998ZM134.814 124.539C135.052 124.539 135.688 130.681 135.847 134.562C135.887 135.383 135.866 135.923 135.827 135.923C135.668 135.923 132.47 134.022 130.187 132.582C128.201 131.321 124.428 128.8 123.832 128.32C123.633 128.18 123.653 128.16 125.281 127.6C128.042 126.66 134.596 124.539 134.814 124.539ZM121.429 128.981C121.607 128.981 122.064 129.24 123.156 129.921C127.247 132.502 132.808 135.623 135.191 136.663C135.926 136.983 136.005 136.863 134.318 138.024C130.703 140.504 126.195 142.945 120.673 145.406C119.701 145.846 118.886 146.186 118.867 146.186C118.827 146.186 118.946 145.686 119.104 145.086C120.435 140.104 121.19 135.062 121.23 131.021C121.25 129.02 121.25 129.02 121.429 128.961C121.389 128.981 121.408 128.981 121.429 128.981ZM118.668 130.041C118.787 130.161 118.708 134.642 118.549 135.863C118.191 138.784 117.635 141.504 116.722 144.566C116.503 145.306 116.304 145.926 116.265 145.966C116.185 146.066 113.465 143.385 112.571 142.345C111.022 140.544 109.811 138.743 108.917 136.983C108.46 136.083 107.745 134.322 107.805 134.262C108.122 134.042 118.589 129.961 118.668 130.041ZM105.679 135.182C105.699 135.182 105.719 135.182 105.739 135.202C105.779 135.242 105.918 135.563 106.037 135.923C106.673 137.663 108.102 140.224 109.334 141.865C110.684 143.665 112.452 145.586 113.921 146.846C114.398 147.246 114.835 147.626 114.894 147.687C115.014 147.807 115.053 147.786 111.816 149.027C108.063 150.467 103.971 151.908 99.2844 153.428C98.1648 153.792 97.0462 154.159 95.9286 154.529C95.7496 154.589 95.8093 154.489 96.3256 153.669C98.6491 150.007 102.184 142.825 104.17 137.743C104.508 136.863 104.845 135.983 104.905 135.783C104.985 135.502 105.084 135.402 105.342 135.262C105.481 135.223 105.62 135.182 105.679 135.182ZM101.708 136.843C101.767 136.883 100.754 139.024 99.7614 140.984C97.8349 144.766 95.7298 148.487 92.9097 153.008C92.4331 153.789 91.9765 154.509 91.9168 154.589C91.8176 154.729 91.7777 154.689 91.46 154.069C90.7848 152.728 90.2285 151.008 89.9307 149.427C89.6327 147.866 89.6924 145.146 90.0301 143.465C90.288 142.225 90.2684 142.245 90.8642 141.945C93.4062 140.644 101.628 136.763 101.708 136.843ZM135.966 138.244V139.084C135.966 143.545 135.489 149.667 134.794 154.129C134.675 154.909 134.575 155.549 134.556 155.569C134.556 155.569 133.98 155.41 133.305 155.209C130.326 154.269 127.089 152.888 124.169 151.268C122.242 150.208 119.442 148.467 119.522 148.387C119.541 148.367 120.376 147.927 121.349 147.407C125.242 145.366 128.975 143.165 132.212 140.985C133.424 140.164 135.251 138.844 135.648 138.484L135.966 138.244ZM86.7133 144.165C86.7927 144.165 86.7728 144.325 86.6537 145.046C86.5742 145.566 86.475 146.526 86.4356 147.186C86.2763 150.107 86.7532 152.268 88.1831 155.229C88.5803 156.049 88.8983 156.729 88.8781 156.749C88.739 156.87 75.592 160.751 71.4609 161.891C70.2297 162.231 69.1574 162.531 69.0776 162.551C68.9388 162.591 68.9188 162.571 68.9784 162.231C69.4351 159.29 71.6595 155.449 74.7575 152.208C76.8231 150.047 78.4715 148.787 81.2916 147.166C83.3173 146.006 86.4353 144.266 86.6736 144.185C86.6738 144.165 86.6935 144.165 86.7133 144.165ZM117.695 149.747C117.715 149.727 118.191 149.987 118.767 150.327C123.017 152.808 128.935 155.109 133.98 156.289L134.437 156.39L133.801 156.749C131.16 158.23 122.481 161.871 113.604 165.212C112.313 165.692 111.042 166.173 110.803 166.273C110.565 166.372 110.346 166.433 110.346 166.413C110.346 166.392 110.704 165.692 111.16 164.832C113.643 160.151 116.146 154.449 117.416 150.487C117.576 150.107 117.675 149.767 117.695 149.747ZM114.537 150.788C114.557 150.808 114.398 151.228 114.199 151.708C112.472 155.929 110.207 160.531 107.308 165.693C106.573 167.013 105.958 168.074 105.937 168.074C105.918 168.074 105.322 167.713 104.607 167.273C100.397 164.672 96.663 161.471 94.2204 158.37L93.8628 157.93L95.6699 157.43C102.144 155.649 107.645 153.729 113.107 151.368C113.882 151.048 114.517 150.788 114.537 150.788ZM134.159 157.69C134.159 157.69 134.179 157.71 134.159 157.69C134.179 158.15 133.166 162.272 132.331 165.252C131.636 167.753 131.04 169.714 129.948 173.175C129.472 174.696 129.055 175.956 129.035 175.956C129.015 175.956 128.896 175.936 128.777 175.896C122.878 174.815 117.596 173.315 112.631 171.314C111.24 170.754 109.254 169.854 109.135 169.754C109.096 169.713 110.287 169.153 111.797 168.493C120.833 164.512 130.207 159.99 133.424 158.05C133.801 157.81 134.099 157.69 134.159 157.69ZM88.8583 159.251C88.8981 159.29 86.3758 162.952 82.8406 167.933C81.6094 169.674 80.1795 171.714 79.6434 172.475C79.1071 173.235 78.2929 174.435 77.8361 175.156L77.0016 176.456L76.1079 175.696C75.0553 174.815 73.2284 172.935 72.4141 171.895C70.7061 169.754 69.5544 167.493 69.0976 165.433C68.8791 164.472 68.8791 163.992 69.0775 163.932C69.3753 163.852 74.6779 162.592 79.6432 161.431C82.4038 160.791 85.601 160.031 86.7529 159.751C87.9049 159.47 88.8386 159.251 88.8583 159.251ZM91.4003 160.231L92.0356 160.951C94.8958 164.172 97.8151 166.553 101.35 168.634C101.986 168.994 102.462 169.314 102.422 169.334C102.284 169.434 90.149 173.775 84.5287 175.736C81.3712 176.856 78.7694 177.756 78.7498 177.756C78.73 177.756 78.5511 177.637 78.3522 177.496L77.9949 177.236L78.5708 176.396C80.4375 173.675 82.7814 170.694 87.8853 164.492L91.4003 160.231ZM107.249 171.654C107.268 171.635 108.142 171.954 109.214 172.355C111.797 173.335 113.842 173.955 116.583 174.656C119.959 175.516 124.844 176.356 127.724 176.596C128.161 176.636 128.399 176.676 128.32 176.736C128.181 176.816 125.262 177.797 123.117 178.477C119.701 179.557 109.274 182.658 100.774 185.119C99.2053 185.579 97.8548 185.959 97.7754 185.979C97.577 186.019 96.9214 185.839 96.9214 185.759C96.9214 185.719 97.3979 185.099 97.974 184.419C100.834 180.978 103.674 177.136 106.037 173.495C106.692 172.495 107.249 171.674 107.249 171.654ZM103.753 171.755C103.773 171.775 102.363 174.055 99.9006 177.976C98.8478 179.637 97.676 181.518 97.2588 182.178C96.8616 182.818 96.2659 183.819 95.9284 184.379L95.3524 185.399L95.0546 185.319C94.3394 185.119 89.315 183.338 87.9843 182.798C86.3358 182.138 84.6279 181.338 83.3568 180.658C81.7682 179.797 79.7823 178.517 79.941 178.477C79.9807 178.457 82.7016 177.716 85.9783 176.816C94.6771 174.435 99.5029 173.055 102.661 172.055C103.237 171.875 103.733 171.734 103.753 171.755ZM128.479 177.596H128.498C128.578 177.797 125.361 186.8 124.189 189.64C123.931 190.28 123.832 190.441 123.693 190.42C123.355 190.401 118.688 189.741 115.848 189.32C110.903 188.56 102.601 187.099 100.516 186.619L100.04 186.52L102.998 185.839C109.354 184.398 112.412 183.618 115.51 182.658C119.423 181.458 123.295 179.957 127.208 178.117C127.823 177.836 128.34 177.616 128.479 177.596Z" fill="url(#paint0_linear)"/>
<path d="M113.723 59.2972C113.286 59.2375 106.236 61.7983 101.688 63.6587C95.5511 66.1798 90.785 68.5807 87.8456 70.6609C86.7535 71.4415 85.3829 72.8218 85.1647 73.3619C85.0853 73.562 85.0454 73.8021 85.0454 74.0421L87.7068 76.583L94.0419 78.6236L109.116 81.3446L126.354 84.3256L126.533 82.8252C126.473 82.8252 126.433 82.8052 126.374 82.8052L124.11 82.445L123.653 81.6248C121.31 77.4633 118.728 72.3016 117.219 68.8204C116.047 66.1195 114.935 62.9987 114.319 60.7579C113.981 59.3975 113.942 59.3175 113.724 59.2975V59.2971H113.723V59.2972ZM113.405 60.3178H113.425C113.445 60.3376 113.524 60.8981 113.604 61.5579C113.941 64.3593 114.557 67.0598 115.53 69.9808C116.265 72.1816 116.265 72.0617 115.411 71.8014C113.386 71.2414 104.31 69.6609 97.736 68.7406C96.6834 68.6005 95.7897 68.4605 95.7897 68.4406C95.7103 68.3606 100.536 65.8195 102.661 64.8195C105.382 63.5587 112.849 60.4177 113.405 60.3178ZM94.2602 69.2807L95.035 69.5405C99.245 70.9812 109.83 73.0219 115.669 73.502C116.324 73.5621 116.881 73.6222 116.9 73.6222C116.92 73.6422 116.364 73.9423 115.649 74.2823C112.829 75.7028 109.731 77.4434 107.586 78.7839C106.951 79.1838 106.375 79.5042 106.295 79.5042C106.216 79.5042 105.799 79.4241 105.362 79.364L104.568 79.2438L102.582 77.283C99.0866 73.8621 96.3458 71.2213 95.2932 70.2208L94.2602 69.2807ZM93.4661 69.9007L96.2662 73.422C97.7953 75.3627 99.3444 77.2632 99.6823 77.6832C100.02 78.1036 100.298 78.4438 100.278 78.4638C100.199 78.5237 96.2269 77.7433 94.1214 77.2634C91.9567 76.7631 91.063 76.523 89.7325 76.1031L88.6401 75.7428V75.4625C88.6599 74.122 90.3482 72.1215 93.2079 70.081L93.4661 69.9007ZM117.258 74.7024C117.338 74.7024 117.437 74.8824 117.675 75.4226C118.35 76.923 120.456 80.9645 120.972 81.7446C121.131 82.005 121.409 82.0249 118.609 81.5647C111.876 80.4641 109.711 80.1044 109.711 80.0643C109.711 80.0444 109.91 79.9043 110.168 79.7641C112.254 78.604 114.359 77.1233 116.226 75.5428C116.682 75.1626 117.099 74.8025 117.179 74.7423C117.198 74.7024 117.238 74.6825 117.258 74.7024Z" fill="url(#paint1_linear)"/>
<path d="M85.3036 73.0818C85.3036 73.0818 84.8669 73.7823 85.2839 74.8227C85.5423 75.4627 86.2969 76.2428 87.1507 77.0433C87.1507 77.0433 95.9883 85.726 97.0608 86.9666C101.946 92.6483 104.071 98.2502 104.27 105.973C104.389 110.934 103.455 115.296 101.132 120.358C97.0011 129.441 88.2825 139.464 74.8374 150.588L76.8038 149.928C78.0748 148.967 79.8027 147.947 83.854 145.706C93.2078 140.544 103.734 135.803 116.643 130.921C135.231 123.879 165.796 115.636 183.193 112.955L185 112.675L184.722 112.235C183.133 109.754 182.041 108.213 180.73 106.573C176.917 101.811 172.29 97.9502 166.63 94.749C158.845 90.3678 148.775 86.9467 136.026 84.4058C133.623 83.9254 128.34 83.0052 124.05 82.345C114.954 80.9249 109.076 79.9444 102.602 78.824C100.278 78.4237 96.8024 77.8237 94.4986 77.3236C93.3071 77.0633 91.0234 76.5232 89.236 75.903C87.8061 75.3426 85.7405 74.7824 85.3036 73.0818ZM90.4278 78.0836C90.4474 78.0639 90.7651 78.1836 91.1824 78.3237C91.937 78.5835 92.9101 78.8837 94.0623 79.204C94.9339 79.4456 95.8077 79.6789 96.6837 79.9042C97.8752 80.2041 98.8681 80.4843 98.8879 80.4843C99.0272 80.6244 101.033 87.0861 101.708 89.567C101.966 90.5076 102.165 91.3076 102.145 91.3076C102.125 91.3279 101.907 90.9876 101.649 90.5275C99.3249 86.4061 95.6508 82.2247 91.4007 78.8635C90.8449 78.4637 90.4278 78.1036 90.4278 78.0836ZM100.199 80.8045C100.298 80.8045 100.735 80.8646 101.271 80.9845C104.647 81.7447 110.705 82.9051 114.577 83.5654C115.233 83.6653 115.749 83.7856 115.749 83.8254C115.749 83.8656 115.511 84.0054 115.213 84.1657C114.557 84.5056 111.916 86.086 111.042 86.6863C108.838 88.1668 106.852 89.7673 105.422 91.2077C104.846 91.788 104.349 92.2681 104.349 92.2681C104.349 92.2681 104.23 91.9282 104.131 91.5077C103.416 88.7268 101.926 84.6054 100.576 81.7046C100.357 81.2446 100.179 80.8244 100.179 80.7845C100.179 80.8244 100.179 80.8045 100.199 80.8045ZM117.397 84.1056C117.516 84.1455 117.715 84.8258 118.112 86.3262C118.847 89.2273 119.185 92.4683 119.066 95.4893C119.026 96.3296 118.986 97.1097 118.946 97.21L118.887 97.4098L117.854 97.0699C115.729 96.3897 112.274 95.3691 109.315 94.529C107.626 94.0688 106.256 93.6487 106.256 93.6087C106.256 93.4885 108.719 91.0078 109.771 90.0676C111.777 88.2867 117.218 84.0454 117.397 84.1056ZM118.768 84.3054C118.827 84.2457 126.99 85.6659 130.704 86.3862C133.464 86.9263 137.476 87.7667 137.714 87.8669C137.833 87.9067 137.416 88.1468 136.085 88.7469C130.842 91.1279 126.95 93.2683 123.077 95.8694C122.065 96.5496 121.21 97.1097 121.191 97.1097C121.171 97.1097 121.151 96.5297 121.151 95.8294C121.151 92.0283 120.396 88.1869 119.006 84.9459C118.867 84.6257 118.748 84.3257 118.768 84.3054ZM139.879 88.507C139.938 88.567 139.68 90.1877 139.442 91.1478C138.727 94.1289 136.8 98.5506 134.437 102.712C134.02 103.452 133.643 104.052 133.603 104.072C133.563 104.092 133.027 103.792 132.411 103.432C130.108 102.071 127.486 100.791 124.626 99.5905C123.832 99.2505 123.137 98.9702 123.117 98.9305C122.978 98.8103 129.373 94.5489 132.749 92.5083C135.43 90.8678 139.799 88.4269 139.879 88.507ZM141.388 88.747C141.567 88.747 145.181 89.7475 147.068 90.3076C151.735 91.7082 157.097 93.6887 160.592 95.2892L162.042 95.9497L161.029 96.1896C152.49 98.1701 145.181 100.451 138.131 103.332C137.555 103.572 137.038 103.772 136.999 103.772C136.959 103.772 137.158 103.312 137.416 102.752C139.541 98.2103 140.911 93.4687 141.249 89.4271C141.269 89.0469 141.328 88.747 141.388 88.747ZM105.402 97.0699C105.461 97.0097 108.222 97.6701 109.712 98.0899C111.976 98.7303 116.781 100.351 116.781 100.471C116.781 100.491 116.245 100.951 115.61 101.511C113.009 103.692 110.506 105.993 107.507 108.914C106.613 109.774 105.859 110.474 105.819 110.474C105.779 110.474 105.76 110.354 105.779 110.194C106.236 106.833 106.137 102.512 105.501 98.1301C105.442 97.5697 105.382 97.0898 105.402 97.0699ZM163.413 97.13C163.452 97.1698 162.141 99.2505 161.307 100.431C160.116 102.151 158.368 104.432 154.416 109.434C152.331 112.075 149.987 115.056 149.213 116.056C148.418 117.056 147.763 117.896 147.743 117.896C147.723 117.896 147.465 117.537 147.187 117.097C144.963 113.735 142.301 110.794 139.144 108.153C138.548 107.653 137.893 107.113 137.674 106.953C137.456 106.793 137.277 106.633 137.277 106.613C137.277 106.553 140.653 105.092 143.215 104.052C147.703 102.211 153.82 100.011 158.408 98.5902C160.811 97.8301 163.373 97.0898 163.413 97.13ZM164.942 97.5299C165.021 97.51 165.498 97.7501 166.074 98.0899C170.9 100.871 175.626 104.452 179.36 108.133C180.413 109.174 183.014 111.895 182.974 111.915C182.974 111.915 182.061 111.995 180.989 112.075C172.628 112.715 161.923 114.495 151.636 116.996C150.941 117.156 150.325 117.296 150.285 117.296C150.246 117.296 151.02 116.516 151.994 115.576C158.031 109.714 160.791 106.013 164.048 99.4104C164.505 98.4303 164.902 97.59 164.942 97.5299C164.922 97.5299 164.922 97.5299 164.942 97.5299ZM120.714 102.092C120.992 102.151 123.574 103.372 125.52 104.352C127.307 105.252 129.989 106.693 130.128 106.813C130.147 106.833 129.194 107.333 128.023 107.913C124.289 109.794 121.091 111.574 117.755 113.615C116.802 114.195 116.007 114.676 115.987 114.676C115.908 114.676 115.928 114.595 116.464 113.615C118.251 110.334 119.681 106.413 120.496 102.592C120.575 102.291 120.654 102.092 120.714 102.092ZM118.132 102.572C118.192 102.632 117.516 105.092 117.1 106.433C116.285 108.974 114.915 112.155 113.584 114.556C113.266 115.115 112.79 115.936 112.532 116.396L112.035 117.196L110.923 116.116C109.632 114.856 108.579 114.075 107.229 113.375C106.693 113.095 106.276 112.855 106.276 112.815C106.276 112.655 109.672 109.554 112.273 107.313C114.14 105.693 118.073 102.512 118.132 102.572ZM133.921 109.114L134.894 109.754C137.118 111.215 139.739 113.155 141.746 114.856C142.877 115.796 145.062 117.777 145.499 118.257L145.737 118.517L144.129 118.977C135.033 121.518 128.002 123.778 119.8 126.82C118.887 127.16 118.112 127.44 118.052 127.44C117.934 127.44 117.834 127.54 119.88 125.639C125.123 120.778 129.77 115.416 133.226 110.194L133.921 109.114ZM129.77 110.154C129.81 110.194 127.089 114.055 125.46 116.236C123.514 118.837 120.058 123.198 117.675 126.039C116.682 127.22 115.829 128.2 115.789 128.22C115.729 128.24 115.709 127.94 115.709 127.48C115.709 125.059 115.094 122.478 114.021 120.277C113.564 119.357 113.485 119.137 113.584 119.037C113.962 118.697 119.741 115.376 123.395 113.395C125.858 112.075 129.71 110.114 129.77 110.154ZM104.667 116.356C104.727 116.356 105.184 116.596 105.7 116.876C106.971 117.577 108.103 118.357 109.116 119.197C109.155 119.237 108.639 119.657 107.964 120.157C106.077 121.518 103.217 123.699 101.549 125.039C99.8014 126.44 99.7422 126.48 99.9406 126.179C101.251 124.159 101.907 123.018 102.602 121.558C103.217 120.258 103.833 118.717 104.27 117.377C104.429 116.796 104.627 116.356 104.667 116.356ZM111.36 121.638C111.459 121.618 111.579 121.798 112.115 122.598C113.247 124.299 114.12 126.58 114.339 128.42L114.378 128.82L111.658 129.881C106.792 131.781 102.304 133.662 99.2651 135.062C98.4114 135.463 96.9218 136.183 95.9488 136.663C94.9756 137.163 94.1812 137.543 94.1812 137.523C94.1812 137.503 94.7967 137.043 95.5514 136.483C101.49 132.142 106.633 127.38 110.486 122.618C110.903 122.118 111.281 121.658 111.32 121.638L111.36 121.638ZM108.282 122.398C108.361 122.478 106.097 125.059 104.548 126.639C100.715 130.581 96.922 133.662 92.2151 136.663C91.6193 137.043 91.0832 137.383 91.0235 137.423C90.8844 137.503 91.0631 137.303 93.1286 135.042C94.4395 133.622 95.4323 132.421 96.5644 130.941C97.319 129.961 97.4581 129.821 98.5506 129.04C101.47 126.92 108.202 122.318 108.282 122.398Z" fill="url(#paint2_radial)"/>
<defs>
<linearGradient id="paint0_linear" x1="84.8974" y1="178.392" x2="94.4343" y2="172.798" gradientUnits="userSpaceOnUse">
<stop stop-color="#909CA9"/>
<stop offset="1" stop-color="#EDEDEE"/>
</linearGradient>
<linearGradient id="paint1_linear" x1="85.1151" y1="71.7723" x2="92.7598" y2="71.7723" gradientUnits="userSpaceOnUse">
<stop stop-color="#939FAB"/>
<stop offset="1" stop-color="#DCDEE1"/>
</linearGradient>
<radialGradient id="paint2_radial" cx="0" cy="0" r="1" gradientUnits="userSpaceOnUse" gradientTransform="translate(123.69 107.092) rotate(-171.395) scale(9.85771 19.8595)">
<stop stop-color="#EE352C"/>
<stop offset="1" stop-color="#A91D22"/>
</radialGradient>
</defs>
</svg>
