<svg width="100" height="100" viewBox="0 0 100 100" fill="none" xmlns="http://www.w3.org/2000/svg">
<path d="M29.4023 38.2837C28.0129 39.035 27.5606 40.6819 28.4653 41.8954C28.7884 42.3577 29.0792 42.6466 29.1761 42.7044L25.6543 40.2485L22.391 37.9659L4.87885 25.8018C5.55736 25.0506 6.42973 24.4149 7.36673 23.9237L43.2633 5.40306C46.1713 3.9006 49.7577 3.9006 52.6656 5.40306L72.1486 15.458L29.4023 38.2837Z" fill="#FABF00"/>
<path d="M40.2908 58.3069L24.6527 80.1792C23.3926 81.9128 20.8401 82.4906 18.8369 81.4505L7.36674 75.5273C4.45882 74.0249 2.68176 71.2511 2.68176 68.2462V31.2049C2.68176 29.8758 3.03717 28.5756 3.68338 27.4487L23.6834 41.3753L39.1276 52.1237C41.2278 53.5683 41.7448 56.2554 40.2908 58.3069Z" fill="#337E8D"/>
<path d="M88.7561 71.4822C90.2424 72.5224 90.1777 74.6316 88.5299 75.4984C88.5299 75.4984 88.4976 75.4984 88.4976 75.5273L52.6333 94.048C49.7254 95.5504 46.139 95.5504 43.231 94.048L27.6575 86.0156C25.8482 85.091 25.8159 82.7507 27.6252 81.7972L70.5331 58.8558L88.7561 71.4822Z" fill="#337E8D"/>
<path d="M93.2149 31.2048V68.2462C93.2149 69.1707 93.0533 70.0664 92.6979 70.9332L73.2472 57.3822L58.4168 47.0962C56.2843 45.6226 55.7997 42.9644 57.2213 40.9419L72.3748 19.7631C73.6026 18.0584 76.1228 17.5094 78.0614 18.5206L88.4976 23.9237C91.4055 25.4262 93.2149 28.1999 93.2149 31.2048Z" fill="#337E8D"/>
<path d="M72.1163 59.9249L68.336 57.2956C68.336 57.2956 69.4669 59.4048 67.496 60.4739C65.525 61.5429 69.37 61.1095 69.37 61.1095L72.1163 59.9249Z" fill="#337E8D"/>
<path d="M93.1179 69.3152C93.1179 69.3152 92.7302 71.1066 92.3102 72.0312C92.3102 72.0312 92.5687 70.8466 90.6947 69.5464C88.8207 68.2462 91.7609 67.7261 91.7609 67.7261L93.1179 69.3152Z" fill="#337E8D"/>
<path d="M3.03717 28.8067C3.03717 28.8067 3.71568 27.102 4.10341 26.4086C4.10341 26.4086 3.74799 27.5065 4.97578 28.3733C6.20357 29.2401 4.20034 29.7313 4.20034 29.7313L3.03717 28.8067Z" fill="#337E8D"/>
</svg>
