<?xml version="1.0" encoding="utf-8"?>
<!-- Generator: Adobe Illustrator 25.0.1, SVG Export Plug-In . SVG Version: 6.00 Build 0)  -->
<svg version="1.1" id="Layer_1" xmlns="http://www.w3.org/2000/svg" xmlns:xlink="http://www.w3.org/1999/xlink" x="0px" y="0px"
	 viewBox="0 0 250 250" style="enable-background:new 0 0 250 250;" xml:space="preserve">
<style type="text/css">
	.st0{fill:url(#SVGID_1_);}
	.st1{fill:url(#SVGID_2_);fill-opacity:0.2;}
	.st2{fill:#3ECF8E;}
</style>
<g>
	
		<linearGradient id="SVGID_1_" gradientUnits="userSpaceOnUse" x1="-61.4658" y1="213.9749" x2="-61.2558" y2="213.8595" gradientTransform="matrix(129.2647 0 0 -169.3298 8079.1489 36365.1875)">
		<stop  offset="0" style="stop-color:#249361"/>
		<stop  offset="1" style="stop-color:#3ECF8E"/>
	</linearGradient>
	<path class="st0" d="M135.7,187.7c-3.3,4.2-10,1.9-10.1-3.4l-1.2-77.9h52.4c9.5,0,14.8,11,8.9,18.4L135.7,187.7z"/>
	
		<linearGradient id="SVGID_2_" gradientUnits="userSpaceOnUse" x1="-61.4351" y1="214.2345" x2="-61.3393" y2="213.9984" gradientTransform="matrix(129.2647 0 0 -169.3298 8079.1489 36365.1875)">
		<stop  offset="0" style="stop-color:#000000"/>
		<stop  offset="1" style="stop-color:#000000;stop-opacity:0"/>
	</linearGradient>
	<path class="st1" d="M135.7,187.7c-3.3,4.2-10,1.9-10.1-3.4l-1.2-77.9h52.4c9.5,0,14.8,11,8.9,18.4L135.7,187.7z"/>
	<path class="st2" d="M114.3,62.3c3.3-4.2,10-1.9,10.1,3.4l0.5,77.9H73.2c-9.5,0-14.8-11-8.9-18.4L114.3,62.3z"/>
</g>
</svg>
