<svg width="85" height="82" viewBox="0 0 85 82" fill="none" xmlns="http://www.w3.org/2000/svg">
<path d="M55.8749 72.3681H29.1244C29.2827 72.834 29.2827 73.2999 29.2827 73.7658C29.2827 73.9211 29.2827 74.0764 29.2827 74.2316H55.7166C55.7166 74.0764 55.7166 73.9211 55.7166 73.7658C55.7166 73.2999 55.7166 72.834 55.8749 72.3681ZM74.2361 39.9112L65.6886 65.5351C66.3218 65.6904 66.9549 65.8456 67.4298 66.1562L75.9773 40.6876C75.3441 40.5323 74.8693 40.2217 74.2361 39.9112ZM71.7035 27.3321L49.7017 11.6472C49.3851 12.1131 48.9102 12.7343 48.5937 13.2002L70.5955 28.8851C70.9121 28.2639 71.2287 27.798 71.7035 27.3321ZM35.2976 11.6472L13.454 27.1769C13.9289 27.6427 14.2454 28.1086 14.562 28.7298L36.4056 13.2002C35.9307 12.7343 35.6141 12.2684 35.2976 11.6472ZM10.7631 40.0664C10.13 40.377 9.65512 40.5323 9.02197 40.6876L17.4112 66.1562C18.0443 65.8456 18.6775 65.6903 19.3106 65.6903L10.7631 40.0664Z" fill="#0041CE"/>
<path d="M42.5792 13.0449C45.7263 13.0449 48.2775 10.5418 48.2775 7.4542C48.2775 4.36655 45.7263 1.86353 42.5792 1.86353C39.4321 1.86353 36.8809 4.36655 36.8809 7.4542C36.8809 10.5418 39.4321 13.0449 42.5792 13.0449Z" fill="#0041CE"/>
<path d="M6.96444 38.2028C10.1115 38.2028 12.6628 35.6998 12.6628 32.6122C12.6628 29.5245 10.1115 27.0215 6.96444 27.0215C3.81734 27.0215 1.26611 29.5245 1.26611 32.6122C1.26611 35.6998 3.81734 38.2028 6.96444 38.2028Z" fill="#0041CE"/>
<path d="M78.1934 38.2028C81.3405 38.2028 83.8918 35.6998 83.8918 32.6122C83.8918 29.5245 81.3405 27.0215 78.1934 27.0215C75.0463 27.0215 72.4951 29.5245 72.4951 32.6122C72.4951 35.6998 75.0463 38.2028 78.1934 38.2028Z" fill="#0041CE"/>
<path d="M64.106 79.3564C67.2531 79.3564 69.8044 76.8534 69.8044 73.7657C69.8044 70.6781 67.2531 68.175 64.106 68.175C60.9589 68.175 58.4077 70.6781 58.4077 73.7657C58.4077 76.8534 60.9589 79.3564 64.106 79.3564Z" fill="#0041CE"/>
<path d="M20.8936 79.3564C24.0407 79.3564 26.592 76.8534 26.592 73.7657C26.592 70.6781 24.0407 68.175 20.8936 68.175C17.7465 68.175 15.1953 70.6781 15.1953 73.7657C15.1953 76.8534 17.7465 79.3564 20.8936 79.3564Z" fill="#0041CE"/>
<path d="M63.7894 74.2316L63.6311 74.3869V74.5422L63.1562 74.2316H63.7894Z" fill="#0041CE"/>
<path d="M21.8436 74.2316L21.3687 74.5422L21.2104 74.2316H21.8436Z" fill="#0041CE"/>
<path d="M40.838 15.5296L35.4562 31.8357L34.8231 33.6993L30.0745 47.9866L29.4413 49.8501L24.0596 66.1562C23.4264 65.8456 22.7933 65.6903 22.1602 65.6903L27.7002 48.763L28.3333 46.8995L32.7654 33.6993L33.3985 31.8357L38.9386 15.0637C39.5717 15.219 40.2048 15.3743 40.838 15.5296Z" fill="#0041CE"/>
<path d="M57.1416 48.6078L62.6817 65.5351C62.0485 65.6904 61.4154 65.8457 60.7822 66.0009L55.4005 49.6948L54.7673 47.8313L50.0187 33.544L49.3856 31.6805L44.1621 15.5296C44.7953 15.3743 45.4284 15.219 45.9033 14.9084L51.4433 31.6805L52.0765 33.544L56.5085 46.7442L57.1416 48.6078Z" fill="#0041CE"/>
<path d="M63.7896 74.2316L63.6313 74.3869V74.2316H63.7896Z" fill="#0041CE"/>
<path d="M44.1618 58.0809L55.5585 49.8502L54.9253 47.9866L42.4207 56.9938L30.0743 47.9866L28.4914 46.7442L14.4039 36.4947C14.0873 37.1159 13.7708 37.5818 13.2959 38.0476L27.8583 48.6078L29.4412 49.8502L40.8378 58.0809L26.9086 68.1751C27.3834 68.641 27.7 69.1069 28.0166 69.7281L42.4207 59.3232L56.6665 69.7281C56.9831 69.1069 57.2996 68.641 57.7745 68.1751L44.1618 58.0809ZM63.1562 74.2317L63.6311 74.5423L63.7894 74.387L63.9477 74.2317H63.1562ZM55.5585 49.8502L57.1413 48.6078L71.7037 38.0476C71.2289 37.5818 70.9123 37.1159 70.5957 36.4947L56.5082 46.7442L54.9253 47.9866L42.4207 56.9938L30.0743 47.9866L28.4914 46.7442L14.4039 36.4947C14.0873 37.1159 13.7708 37.5818 13.2959 38.0476L27.8583 48.6078L29.4412 49.8502L40.8378 58.0809L26.9086 68.1751C27.3834 68.641 27.7 69.1069 28.0166 69.7281L42.4207 59.3232L56.6665 69.7281C56.9831 69.1069 57.2996 68.641 57.7745 68.1751L43.8453 58.0809L55.5585 49.8502ZM69.8043 33.6993C69.8043 33.3888 69.8043 33.0782 69.8043 32.7676C69.8043 32.457 69.8043 32.1464 69.8043 31.9911H15.3536C15.3536 32.3017 15.3536 32.6123 15.3536 32.7676C15.3536 33.0782 15.3536 33.3888 15.3536 33.6993H69.8043ZM21.2102 74.2317L21.5268 74.5423L22.0017 74.2317H21.2102Z" fill="#0041CE"/>
</svg>
