<?xml version="1.0" encoding="utf-8"?>
<!-- Generator: Adobe Illustrator 25.0.1, SVG Export Plug-In . SVG Version: 6.00 Build 0)  -->
<svg version="1.1" id="Layer_1" xmlns="http://www.w3.org/2000/svg" xmlns:xlink="http://www.w3.org/1999/xlink" x="0px" y="0px"
	 viewBox="0 0 250 250" style="enable-background:new 0 0 250 250;" xml:space="preserve">
<style type="text/css">
	.st0{fill:#E6002D;}
	.st1{fill:#FFFFFF;}
	.st2{fill:#1E2F4F;}
</style>
<g>
	<g>
		<g>
			<polygon class="st0" points="64,88.2 28.5,106.6 28.5,143.4 64,161.8 99.3,143.4 99.3,106.6 			"/>
			<g>
				<polygon class="st1" points="61.5,112.4 61.5,146.8 52.9,142.3 52.9,116.9 41.8,122.7 41.8,113.5 63.9,102 72.7,106.6 				"/>
				<polygon class="st1" points="79.2,140.1 70.5,144.6 70.5,117 79.2,112.4 				"/>
			</g>
		</g>
		<g>
			<polygon class="st2" points="122.1,142.9 122.1,113.3 112.5,113.3 112.5,106.3 139.6,106.3 139.6,113.3 130.1,113.3 130.1,142.9 
							"/>
			<rect x="143.6" y="106.3" class="st2" width="7.7" height="7.1"/>
			<rect x="143.6" y="115.3" class="st2" width="7.7" height="27.6"/>
			<path class="st2" d="M159.3,142.9v-36.6h12.4c3.1,0,5.7,0.3,7.8,1c2.1,0.7,3.7,1.8,4.8,3.4c1.1,1.5,1.9,3.4,2.4,5.4
				c0.4,2.1,0.6,4.7,0.6,8c0,3.2-0.2,6-0.6,8.1c-0.4,2.2-1.1,4.1-2.2,5.8c-1.1,1.7-2.7,3-4.8,3.8c-2.1,0.8-4.7,1.2-8,1.2
				L159.3,142.9L159.3,142.9z M171.8,135.9c2.5,0,4.4-0.6,5.5-1.9c1-1,1.6-3,1.8-5.7c0.1-1.1,0.1-2.7,0.1-4.7s-0.1-3.6-0.2-4.7
				s-0.5-2.2-1-3.2c-0.5-0.9-1.2-1.6-2.2-1.9c-1-0.4-2.4-0.5-4.1-0.5h-4.5v22.6L171.8,135.9L171.8,135.9z"/>
			<path class="st2" d="M194.8,142.9v-36.6h14.4c3.8,0,6.7,0.8,8.6,2.3c1.9,1.6,2.9,4.1,2.9,7.5c0,2.1-0.3,3.7-0.9,4.9
				c-0.6,1.1-1.5,2.1-2.7,2.9c1.4,0.7,2.4,1.6,3.1,2.8c0.8,1.3,1.2,3.2,1.2,5.5c0,3.6-1.1,6.3-3.2,8s-5.1,2.6-8.8,2.6H194.8
				L194.8,142.9z M209.1,136c1.5,0,2.6-0.3,3.3-0.9c0.7-0.6,1-1.7,1-3.2c0-2.7-1.4-4-4.3-4h-6.3v8.1H209.1z M208.9,121.1
				c2.5,0,3.8-1.3,3.8-4c0-2.7-1.3-4-3.9-4h-6.1v7.9H208.9z"/>
		</g>
	</g>
</g>
</svg>
