<svg width="107" height="104" viewBox="0 0 107 104" fill="none" xmlns="http://www.w3.org/2000/svg">
<path d="M53.0425 101.524C80.9714 101.524 103.609 79.352 103.609 52C103.609 24.648 80.9714 2.4762 53.045 2.4762C25.1111 2.4762 2.4762 24.648 2.4762 52C2.4762 79.352 25.116 101.524 53.0425 101.524Z" fill="#FFF6E2"/>
<path d="M53.045 85.1364C71.7625 85.1364 86.9366 70.2694 86.9366 51.9307C86.9366 33.592 71.7625 18.725 53.045 18.725C34.325 18.725 19.1509 33.592 19.1509 51.9307C19.1509 70.2694 34.325 85.1364 53.045 85.1364Z" fill="#FDB515"/>
<path d="M75.4743 48.667C77.5122 43.8112 76.0289 38.6136 72.1611 37.0561C68.2933 35.5011 63.5068 38.1778 61.4714 43.0336C59.4335 47.8894 60.9167 53.087 64.7846 54.6445C68.6499 56.1995 73.4364 53.5253 75.4743 48.667ZM53.1242 93.0923C58.4926 93.0923 62.8432 88.4792 62.8432 82.7889C62.8432 77.0961 58.4926 72.483 53.1242 72.483C47.7558 72.483 43.4051 77.0961 43.4051 82.7889C43.4051 88.4792 47.7558 93.0923 53.1242 93.0923ZM41.6322 54.6395C45.5 53.082 46.9807 47.8845 44.9453 43.0262C42.9074 38.1729 38.1209 35.4936 34.2531 37.0512C30.3878 38.6062 28.9046 43.8062 30.94 48.662C32.9779 53.5178 37.7644 56.1946 41.6322 54.6371V54.6395Z" fill="white"/>
<path d="M70.2743 83.876C80.7585 78.3715 88.1994 68.0086 89.44 55.853L95.3086 62.457C92.0375 75.4917 82.6354 86.1789 70.2842 91.416C70.403 90.376 70.4625 89.2073 70.4625 87.8751C70.4524 86.5401 70.3888 85.206 70.2718 83.876H70.2743ZM41.2211 86.2358C44.9181 87.4616 48.8626 88.1178 52.983 88.1178C57.2817 88.1178 61.3922 87.4021 65.2303 86.0724C64.4255 89.2073 63.175 91.9484 61.5804 94.1002C58.807 94.645 55.9347 94.9322 52.9954 94.9322C50.232 94.9322 47.5404 94.6772 44.9181 94.2042C43.3011 92.0648 42.0358 89.3336 41.2211 86.2358ZM35.8973 83.98C25.2447 78.4755 17.6973 67.9739 16.5063 55.6549L10.7788 62.9522C14.1786 75.8482 23.5907 86.3745 35.8948 91.52C35.7785 90.4553 35.719 89.2543 35.719 87.8875C35.719 86.5701 35.7785 85.2627 35.8948 83.98H35.8973ZM82.4002 30.836L86.5577 25.0071C83.5863 21.501 80.0788 18.4873 76.1651 16.0779L69.1501 20.0225C74.3597 22.5286 78.9006 26.2345 82.4002 30.836ZM30.2764 15.7783C26.1813 18.2264 22.5178 21.3328 19.4331 24.9724L24.123 30.1179C27.5672 25.8213 31.9341 22.3548 36.9002 19.9755L30.2739 15.7783H30.2764ZM28.8699 51.9654C28.8699 41.2088 36.2019 32.1311 46.2404 29.2513C46.6886 28.0132 47.2556 26.936 47.8945 26.057C35.4714 28.4069 26.0941 39.1164 26.0941 51.9654C26.0941 61.0678 30.7939 69.0932 37.9501 73.8351C38.2695 72.9338 38.6112 72.0646 38.9901 71.2227C32.8615 66.9315 28.8699 59.8991 28.8699 51.9654Z" fill="#141E35"/>
<path d="M33.6267 44.054L35.6696 44.574C37.5341 40.3831 40.8704 37.0213 45.0469 35.1248C45.1063 34.3275 45.188 33.5401 45.3193 32.7898C42.7179 33.7939 40.3435 35.3078 38.3355 37.2426C36.3276 39.1775 34.7266 41.4941 33.6267 44.0564V44.054ZM34.3621 54.8922H32.2599C32.6635 57.5698 33.5934 60.1408 34.9959 62.4571C36.3984 64.7733 38.2458 66.7889 40.4313 68.3875C40.7879 67.7882 41.1519 67.2088 41.5431 66.6542C37.7242 63.8045 35.1519 59.5913 34.3621 54.8922ZM70.4477 44.6458L72.4806 44.1233C70.049 38.329 64.9926 33.8521 58.7576 32.1311C58.9111 32.8467 59.0423 33.5995 59.1364 34.3844C64.2374 36.0732 68.3479 39.8321 70.4501 44.6433L70.4477 44.6458ZM74.0753 49.3753L71.8789 47.1542L64.6633 48.2858L63.554 51.537L66.872 53.7111L72.9635 51.537L74.0778 49.3753H74.0753ZM32.3069 49.3753L34.4909 47.1542L41.7189 48.2858L42.8159 51.537L39.4978 53.7111L33.4162 51.537L32.3069 49.3753ZM73.0477 58.198C73.3996 57.1196 73.6613 56.0139 73.8301 54.8922H71.7254C71.6214 55.5286 71.4778 56.1402 71.3143 56.7543C71.9284 57.2397 72.5054 57.7126 73.0477 58.198ZM66.3867 65.0694C65.8444 65.5894 65.2774 66.0995 64.6781 66.5502C65.0644 67.1048 65.4458 67.6842 65.7974 68.2835C66.7291 67.5815 67.6019 66.8047 68.4073 65.9608C67.7259 65.6836 67.053 65.3864 66.3892 65.0694H66.3867Z" fill="#141E35"/>
<path d="M77.2175 51.9653C77.2153 54.9586 76.6377 57.9235 75.5164 60.6988C76.3311 61.6472 76.9452 62.5609 77.3488 63.3805C79.0988 59.8299 80.0071 55.9238 80.0033 51.9653C80.0033 38.3413 69.4695 27.1341 55.9347 25.7251C56.6107 26.5447 57.2124 27.5624 57.7076 28.7312C68.8208 30.8607 77.2175 40.4461 77.2175 51.9653ZM71.6783 67.0354C70.3829 68.5692 68.9024 69.9366 67.2707 71.1063C67.6495 71.9383 68.0061 72.8173 68.3107 73.7211C70.8277 72.0212 73.0403 69.9091 74.8553 67.4737C73.782 67.4629 72.7144 67.3157 71.6783 67.0354ZM55.3577 48.7388C55.333 48.7388 55.3206 48.7264 55.3082 48.7141L53.0425 25.5369H50.9278L48.9914 48.8775H49.0038C49.0038 48.9245 48.9914 48.9691 48.9914 49.0162C49.0038 49.4099 49.041 49.7788 49.1103 50.1379C49.145 50.5316 49.2638 50.9352 49.452 51.3413C49.8532 52.3565 50.5044 53.1242 51.272 53.4807C51.4478 53.6194 51.636 53.7457 51.8267 53.8744C51.8613 53.8992 51.9084 53.919 51.9431 53.9438V53.9537L75.4669 66.6194L76.6951 64.943L55.3577 48.7388ZM58.3564 80.4638C56.5265 80.4638 54.9789 79.2381 54.5307 77.584L63.2345 74.3228L61.1545 69.2565L53.0425 72.4706L44.9206 69.2664L42.853 74.3228L51.4726 77.6533C51.2076 78.5282 50.6474 79.2841 49.8875 79.792C49.1275 80.3 48.2149 80.5287 47.3052 80.439L45.5446 82.8583C46.2057 83.0762 46.9139 83.1925 47.6593 83.1925C49.8433 83.1925 51.7796 82.1748 53.0078 80.5925C53.8925 81.7245 55.1139 82.546 56.4959 82.9386C57.8778 83.3311 59.3488 83.2744 60.6964 82.7765L58.9705 80.4167C58.7675 80.4501 58.5621 80.4658 58.3564 80.4638Z" fill="#141E35"/>
<path d="M80.1221 31.9552L77.2993 35.0999C80.8588 39.9893 82.7733 45.8828 82.7667 51.9306C82.7667 62.1994 77.3339 71.2325 69.1278 76.4152C69.4943 77.7771 69.789 79.2009 70.0143 80.6693C80.1221 74.9245 86.9242 64.2026 86.9242 51.9306C86.949 44.4352 84.3985 37.5192 80.1221 31.9552ZM23.3208 51.9331C23.3208 45.6758 25.3389 39.8815 28.7758 35.1272L25.953 31.9824C21.5385 37.6948 19.146 44.7113 19.1509 51.9306C19.1509 64.2843 26.0347 75.0632 36.2614 80.7782C36.4867 79.3074 36.7715 77.886 37.1379 76.5316C28.8229 71.3613 23.3208 62.2836 23.3208 51.9331ZM53.0425 18.7249C47.8351 18.7249 42.9 19.8813 38.4949 21.9291L40.5749 25.4923C44.4901 23.716 48.7407 22.7999 53.04 22.8057C57.4823 22.8057 61.6968 23.7664 65.4878 25.4799L67.5678 21.9142C63.0143 19.8085 58.0569 18.7193 53.04 18.7224L53.0425 18.7249Z" fill="#141E35"/>
</svg>
