<?xml version="1.0" encoding="utf-8"?>
<!-- Generator: Adobe Illustrator 25.0.1, SVG Export Plug-In . SVG Version: 6.00 Build 0)  -->
<svg version="1.1" id="Layer_1" xmlns="http://www.w3.org/2000/svg" xmlns:xlink="http://www.w3.org/1999/xlink" x="0px" y="0px"
	 viewBox="0 0 250 250" style="enable-background:new 0 0 250 250;" xml:space="preserve">
<style type="text/css">
	.st0{fill:#CDCCCC;}
	.st1{fill:#FFFFFF;}
	.st2{fill:#DD00A1;}
	.st3{fill:#F9D8D2;}
	.st4{fill:#10110E;}
	.st5{fill:#E5E5E5;}
	.st6{opacity:0.2;fill:#8ACCCE;enable-background:new    ;}
	.st7{fill:#515151;}
</style>
<g>
	<path class="st0" d="M166.5,122.8c0-3.9-3.2-7.1-7.1-7.1c-3.9,0-7.1,3.2-7.1,7.1c0.1,2.8,1.9,5.2,4.5,6v10.8
		c-3.1-7.9-8.8-14.4-16.3-18.5c1.1-2.4,2.2-4.4,3.2-6.2c4-6,8.5-11.7,13.3-17c2.7-3.2,5.2-6.1,7.2-8.7c5.7-7.2,12.1-17.8,10.9-24.2
		c-0.3-1.8-1.4-3.4-2.9-4.3c-8-4.7-18.8,10.6-29.5,25.4c-7.1,9.7-10.7,23.5-12.4,31.3c-3.3-0.7-6.6-1.1-10-1.1
		c-4.9,0-9.7,0.8-14.3,2.4c-0.3-8.6,0-17.3,0.8-25.9c2.4-22.4,1.3-35.5-3-40c-1.1-1.4-2.8-2.1-4.6-2.1C86.5,51.2,88,89.6,88.2,94
		c0.5,10.5,4.7,23.3,7.3,30.3c-5.9,4.7-10.3,11.1-12.4,18.4h-0.9c-4-0.2-7.5,2.9-7.6,7c0,0,0,0.1,0,0.1V162c0.2,4.1,3.6,7.2,7.6,7.1
		c0,0,0,0,0,0h1.6c1.8,4.1,4.4,7.9,7.7,10.9l-2.4,2.1c-1.1,1-1.3,2.7-0.3,3.9c7.1,8.6,18.6,13.5,31.6,13.5s24.6-4.9,31.6-13.5
		c1-1.2,0.8-2.9-0.3-3.9l-2.4-2.1c3.3-3.1,6-6.9,7.7-11.1h1.8c4.1,0.2,7.5-3,7.7-7c0,0,0,0,0,0v-12.1c-0.1-2.8-1.9-5.3-4.5-6.3
		v-14.6C164.6,128,166.5,125.6,166.5,122.8z"/>
	<path class="st1" d="M108.9,181.9c2.2-1.4-3.5-0.9-4-1.9c-2.3-0.2-4.5-0.6-6.7-1.2c-4-1.1-13.6-7.5-14.6-13.7c-1-6.2,0-17.9,4.3-25
		c2.7-4.3,6.2-8.1,10.3-11.1c0,0-8.4-20-9.1-35.1c-0.7-15.1,0.5-42,10.3-42.4s8.4,24.7,6.7,41c-1,10.9-1.1,21.8-0.5,32.7
		c4.2-1.3,8.6-2.1,12.9-2.2c3.9-0.1,7.7,0.3,11.5,1.1c0,0,3.1-23.2,13.4-37.7s21.2-29.3,28.3-25.1c7.1,4.2-1.9,19.3-8.2,27.1
		c-6.2,7.8-17,19.6-20.6,25.9c-2.4,4.2-4.4,8.5-6.2,13c6.4,3.3,11.7,8.5,15,14.9c5.1,10.1,5.5,22.6,2.7,27.9
		c-2.8,5-7.6,8.4-13.2,9.4c-3.1,0.1-16.3,3.4-16.3,3.4L108.9,181.9z"/>
	<path class="st2" d="M132,124.4c0,0,7.9-20.5,14.9-32c7-11.5,16.5-20.2,19.4-18.5c3,1.8-6.1,12.5-14,23.1
		c-6.4,9.3-12.3,19.1-17.5,29.1L132,124.4z"/>
	<path class="st2" d="M100.4,127.9l2.4-1.7c0,0-0.3-20.5,0-33s1-28-3.2-27.9c-4.2,0.1-7.1,12.2-5.4,29.1
		C95.3,105.7,97.4,116.9,100.4,127.9z"/>
	<circle class="st3" cx="93.4" cy="167.3" r="4.6"/>
	<circle class="st3" cx="147.4" cy="167.3" r="4.6"/>
	<path class="st4" d="M128,166.9c-0.2-0.1-0.5-0.1-0.6,0.1c0,0,0,0,0,0c0,0-1.4,2.4-3.3,2.5c-1.4,0-2.6-0.6-3.5-1.6v-3.5
		c1.3-0.7,3.3-2.8,3.3-3.6c-0.4-1.6-1.9-2.7-3.5-2.6c-2.4,0-4,1.5-4,2.8s2.6,2.9,3.3,3.4v3.4c-0.8,1-1.9,1.5-3.1,1.6
		c-1.9,0-3.3-2.5-3.3-2.6c-0.1-0.2-0.4-0.3-0.6-0.2c-0.2,0.1-0.3,0.4-0.2,0.6c0,0,1.7,3,4.1,3c1.4-0.1,2.7-0.7,3.6-1.7
		c1,1,2.3,1.6,3.7,1.7h0.3c1.7-0.3,3.2-1.4,4-3C128.2,167.3,128.2,167,128,166.9C128,166.9,128,166.9,128,166.9z"/>
	<path class="st5" d="M98.2,129.1c0,0-6.5-16.5-7.8-25.1s-2.4-23-0.7-32.6c0.7-4.4,1.7-8.8,2.9-13.1c0,0-3,22.3-1.9,32.1
		C91.8,100.2,98.2,129.1,98.2,129.1z"/>
	<path class="st5" d="M130.1,124.1c0,0,4.7-24.9,11.6-34.7s15.4-21.7,19.7-24.7l4.3-3c0,0-17.3,18.1-24,33
		C135,109.5,130.1,124.1,130.1,124.1z"/>
	<path class="st4" d="M102.8,152.4c-2,0-3.6,1.6-3.6,3.6c0,2,1.6,3.6,3.6,3.6s3.6-1.6,3.6-3.6c0,0,0,0,0,0
		C106.3,154,104.7,152.4,102.8,152.4z M103.8,155.7c-0.5,0-1-0.4-1-1c0-0.5,0.4-1,1-1c0.5,0,1,0.4,1,1
		C104.7,155.3,104.3,155.7,103.8,155.7C103.8,155.7,103.7,155.7,103.8,155.7L103.8,155.7z"/>
	<path class="st4" d="M137.9,152.4c-2,0-3.6,1.6-3.6,3.6c0,2,1.6,3.6,3.6,3.6c2,0,3.6-1.6,3.6-3.6S139.9,152.4,137.9,152.4
		L137.9,152.4z M138.9,155.7c-0.5,0-1-0.4-1-1c0.1-0.5,0.6-0.9,1.1-0.8c0.4,0.1,0.8,0.4,0.8,0.8
		C139.9,155.3,139.4,155.7,138.9,155.7z"/>
	<ellipse class="st6" cx="121" cy="157.3" rx="33.2" ry="23.9"/>
	<path class="st1" d="M161.2,144v-15.7c2.5-0.6,4.4-2.8,4.5-5.4c-0.4-3.4-3.4-5.9-6.9-5.5c-2.9,0.3-5.2,2.6-5.5,5.5
		c0.1,2.6,2,4.8,4.5,5.4v15.3h-0.4c-4.7-16.3-18.6-26.5-36.8-26.5s-32.2,10.1-36.8,26.5h-1.6c-3.6-0.2-6.6,2.5-6.8,6.1v12.2
		c0.2,3.5,3.2,6.2,6.8,6.1h2.1c1.8,4.6,4.7,8.7,8.5,12l-3.1,2.7c-0.8,0.7-0.9,1.8-0.2,2.6c0,0,0,0,0,0c6.9,8.3,18.2,13.2,30.9,13.2
		c12.8,0,24-4.7,30.9-13.2c0.7-0.8,0.6-2-0.2-2.6c0,0,0,0,0,0l-3.1-2.7c3.7-3.3,6.6-7.4,8.5-12h2.4c3.5,0.2,6.6-2.5,6.8-6.1v-12.2
		C165.6,147,163.7,144.7,161.2,144z M120.5,134.5c16.8,0,30.5,11.1,30.5,24.7c0,14.7-15.4,21.2-30.5,21.2
		c-15.1,0-30.5-6.6-30.5-21.2C90.1,145.5,103.7,134.5,120.5,134.5z"/>
	<path class="st7" d="M162.3,157.8h-4.5c0-0.7,0-1.4,0-2.2c0-3-0.3-6-0.9-8.9h1.9c1.8-0.1,3.3,1.2,3.4,3c0,0,0,0.1,0,0.1
		L162.3,157.8z"/>
	<path class="st7" d="M158.9,164.9h-2.4c0.4-1.7,0.8-3.4,1-5.1h4.7v2c-0.1,1.7-1.5,3.1-3.3,3C159,164.9,158.9,164.9,158.9,164.9z"/>
	<path class="st7" d="M120.5,195.4c-11.3,0-21.3-4.1-27.7-11.3l3.2-2.8c7.2,4.8,15.8,7.3,24.5,7.1c8.7,0.2,17.2-2.2,24.5-7.1
		l3.2,2.8C141.9,191.3,131.8,195.4,120.5,195.4z"/>
	<path class="st7" d="M82.2,146.7h2c-0.6,2.9-0.9,5.9-0.9,8.9c-0.1,0.7-0.1,1.5,0,2.2h-4.4v-8.1c0-1.7,1.3-3,3-3.1
		C81.9,146.6,82.1,146.6,82.2,146.7z"/>
	<path d="M120.5,132.5c-3.8,0-7.6,0.6-11.3,1.6v-12.3c3.7-1,7.5-1.6,11.3-1.5c3.8,0,7.6,0.5,11.3,1.5v12.4
		C128.2,133,124.4,132.5,120.5,132.5z"/>
	<path class="st7" d="M107,122.5v12.4c-11.3,4.1-19.2,13.5-19.2,24.2c0,13.9,13.2,23.3,32.7,23.3s32.7-9.4,32.7-23.3
		c0-10.7-7.9-20.1-19.2-24.2v-12.4c13.2,4.7,21.4,16.9,21.4,33.2c0,18.3-14,30.6-35,30.6s-35-12.3-35-30.6
		C85.6,139.4,93.8,127.3,107,122.5z"/>
	<path class="st7" d="M78.8,159.9h4.7c0.2,1.7,0.6,3.4,1,5.1h-2.4c-1.8,0.1-3.3-1.2-3.4-3c0,0,0-0.1,0-0.1L78.8,159.9z"/>
	<ellipse class="st7" cx="159.5" cy="122.8" rx="2.8" ry="2.5"/>
</g>
</svg>
