<svg width="100" height="100" viewBox="0 0 100 100" fill="none" xmlns="http://www.w3.org/2000/svg">
<path d="M56.2647 49.6836L56.2736 49.6421L59.3418 33.5647L56.2647 49.6836V49.6836ZM78.4262 33.5266L68.4685 49.6329L49.644 80.1518L49.6448 80.153L68.4728 49.629L78.4308 33.5249L89.3095 15.8642L78.4262 33.5266V33.5266ZM78.7664 1.9357L75.5701 7.16346L78.768 1.9357H78.7664ZM18.8016 29.4605L31.009 17.7353L18.8016 29.4605ZM21.4002 33.707L34.8813 24.1227L21.4002 33.707ZM21.4002 33.707L20.4957 32.2312L21.398 33.707L30.99 49.4651L32.5473 52.0353L30.9886 49.4617L21.4002 33.707V33.707ZM24.7633 28.117L31.009 17.7353L34.8813 24.1227L42.3896 36.5181L34.8856 24.121L31.0103 17.7302L21.3573 1.9357H21.3552L31.009 17.7353L24.7633 28.117V28.117ZM52.8622 53.7726L52.9065 53.8457L54.7139 56.8194L52.8622 53.7726V53.7726Z" fill="#284E64"/>
<path d="M65.6217 23.3817L59.3386 33.5613L52.3495 45.0796L59.3418 33.5647L65.6217 23.3817V23.3817Z" fill="#284E64"/>
<path d="M40.5703 65.2817L49.6422 80.1552L54.6347 57.1839L40.5703 65.2817V65.2817Z" fill="#F16827"/>
<path d="M54.7139 56.8194L52.9065 53.8457L46.7097 43.65L40.5703 65.2817L54.6347 57.1839L54.7139 56.8194V56.8194Z" fill="#F48029"/>
<path d="M30.9886 49.4617L32.5473 52.0353L40.5703 65.2817L46.7096 43.65L30.9886 49.4617V49.4617Z" fill="#F89A2E"/>
<path d="M30.9886 49.4617L46.7096 43.65L42.3897 36.5181L34.8813 24.1227L30.9886 49.4617V49.4617Z" fill="#F16827"/>
<path d="M56.2647 49.6836L59.3418 33.5647L52.3495 45.0796L49.9653 49.0062L52.8623 53.7726L54.7139 56.8194L56.2647 49.6836V49.6836Z" fill="#F89921"/>
<path d="M21.4002 33.707L30.9886 49.4617L34.8813 24.1227L21.4002 33.707V33.707Z" fill="#F89A2E"/>
<path d="M68.4685 49.6329L78.4262 33.5266L56.2736 49.6421L68.4685 49.6329V49.6329Z" fill="#F48029"/>
<path d="M31.009 17.7353L24.7633 28.117L21.4002 33.707L34.8813 24.1227L31.009 17.7353ZM56.2736 49.6421L69.0393 17.8395L65.6217 23.3817L59.3418 33.5647L56.2736 49.6421V49.6421Z" fill="#F4AE5C"/>
<path d="M21.4002 33.707L24.7633 28.117L31.009 17.7353L18.8016 29.4605L18.7992 29.4629L20.4957 32.2312L21.4002 33.707Z" fill="#CD4E27"/>
<path d="M78.4261 33.5266L69.0393 17.8395L56.2736 49.6421L78.4261 33.5266ZM18.8016 29.4605L31.009 17.7353L21.3552 1.93572L21.3541 1.93353L18.7992 29.4629L18.8016 29.4605Z" fill="#F16938"/>
<path d="M78.4261 33.5266L78.7691 1.93572V1.93353L78.768 1.93572L75.5701 7.16348L69.0393 17.8395L78.4261 33.5266ZM21.3541 1.93353H2.14899L18.7992 29.4629L21.3541 1.93353Z" fill="#F89A2E"/>
<path d="M78.7691 1.93353V1.93572L78.4262 33.5266L89.3095 15.8642L97.8933 1.93353H78.7691ZM56.2736 49.6421L56.2647 49.6836L54.7139 56.8194L54.6347 57.1839L49.6422 80.1552L49.6441 80.1518L68.4685 49.6329L56.2736 49.6421Z" fill="#CD4E27"/>
</svg>
