<svg width="168" height="139" viewBox="0 0 168 139" fill="none" xmlns="http://www.w3.org/2000/svg">
<path d="M126.5 25.0001C115.1 13.6001 99.6002 7.10011 83.5002 7.20011C67.4002 7.20011 51.9002 13.6001 40.5002 25.0001C29.0002 36.4001 22.6002 51.9001 22.6002 68.0001C22.6002 75.5001 24.0002 82.9001 26.6002 89.8001C22.6002 93.7001 18.9002 97.8001 15.4002 102.1C13.2002 104.7 11.3002 107.5 9.50018 110.4C8.50018 111.9 7.70018 113.5 7.10018 115.2C6.70018 116.1 6.40018 117.1 6.20018 118.1C5.90018 119.3 6.00018 120.5 6.30018 121.7C6.40018 122 6.50018 122.3 6.60018 122.6L6.70018 122.8C6.70018 122.9 6.80018 122.9 6.80018 123C7.00018 123.3 7.20018 123.6 7.40018 123.9C7.90018 124.5 8.60018 125 9.30018 125.3C10.4002 125.8 11.7002 126 12.9002 126C14.8002 125.9 16.7002 125.6 18.5002 125.1C21.8002 124.1 25.0002 122.8 28.2002 121.3C33.2002 118.9 38.0002 116.2 42.8002 113.3C54.0002 123.4 68.5002 128.9 83.5002 128.9C99.6002 128.9 115.1 122.5 126.5 111.1C137.9 99.7001 144.4 84.2001 144.3 68.1001C144.4 51.9001 138 36.4001 126.5 25.0001ZM28.0002 93.0001C30.6002 98.8001 34.1002 104.1 38.3002 108.8C33.7002 111.6 29.5002 114 25.6002 115.9C22.8002 117.3 19.9002 118.6 16.9002 119.6C15.6002 120.1 14.2002 120.3 12.8002 120.4C12.4002 120.4 12.0002 120.4 11.6002 120.3C11.5002 120.3 11.5002 120.2 11.5002 120.2C11.5002 120.2 11.5002 120.2 11.5002 120.1C11.4002 119.7 11.4002 119.3 11.5002 118.9C11.6002 118.2 11.8002 117.6 12.0002 117C12.5002 115.6 13.1002 114.2 13.9002 112.9C15.4002 110.1 17.2002 107.4 19.0002 104.8C21.7002 100.9 24.6002 97.2001 28.0002 93.0001ZM62.3002 100C68.6002 95.4001 73.6002 91.5001 78.1002 87.8001C83.1002 83.8001 88.2002 79.4001 93.3002 74.8001L93.9002 74.2001C98.4002 69.9001 103.2 65.5001 107.7 61.1001C108.2 60.6001 108.2 59.8001 107.8 59.3001C107.3 58.8001 106.6 58.7001 106 59.1001C101 63.0001 96.1002 67.0001 91.3002 70.8001L90.5002 71.4001C86.0002 74.9001 81.2002 78.7001 74.9002 83.4001L74.3002 83.8001C69.3002 87.5001 64.1002 91.4001 58.9002 95.0001C53.0002 99.1001 48.2002 102.4 43.7002 105.2C34.1002 95.1001 28.8002 81.7001 28.9002 67.7001C28.9002 53.2001 34.6002 39.3001 44.9002 29.0001C55.1002 18.7001 69.1002 12.9001 83.6002 13.0001C98.1002 13.0001 112 18.7001 122.3 29.0001C132.6 39.2001 138.4 53.2001 138.3 67.7001C138.3 82.2001 132.6 96.1001 122.3 106.4C112.1 116.7 98.1002 122.5 83.6002 122.4C70.7002 122.4 58.2002 117.8 48.3002 109.5C53.0002 106.7 57.7002 103.4 62.3002 100Z" fill="#322965"/>
<path d="M159.9 11.2001C159.9 11.2001 145.3 8.90012 140.5 13.1001L131.6 20.9001L130.8 21.6001L130.4 22.0001C130.4 22.0001 115.2 21.0001 111.9 23.9001L108.5 26.8001L107.2 27.9001L105.8 29.1001L105.4 29.4001L112.5 37.5001C110.3 39.4001 111.9 44.7001 116 49.5001C120.1 54.2001 125.2 56.5001 127.4 54.6001L134.5 62.7001L134.7 62.5001L137.4 60.1001L140.8 57.2001C144.1 54.3001 145.2 39.1001 145.2 39.1001L146 38.4001L146.7 37.8001L155.3 30.3001C160.2 26.0001 159.9 11.2001 159.9 11.2001ZM116.1 34.4001L116.6 34.0001L116.1 34.4001ZM143.3 40.7001L142.8 41.1001L143.3 40.7001Z" fill="#ED5735"/>
</svg>
